<?xml version="1.0" encoding="utf-8"?>
<!-- Generator: Adobe Illustrator 21.1.0, SVG Export Plug-In . SVG Version: 6.00 Build 0)  -->
<svg version="1.1" id="Layer_1" xmlns="http://www.w3.org/2000/svg" xmlns:xlink="http://www.w3.org/1999/xlink" x="0px" y="0px"
	 viewBox="0 0 294.1 12.8" style="enable-background:new 0 0 294.1 12.8;" xml:space="preserve">
<title>border</title>
<path class="st0" d="M1.9,8.3c0,0.1,0,0.2,0,0.3v0.5c0,0.3,0,0.9,0.2,1.5v0.2h0.2l0.1,0.1V11c0.1,0.4,0.4,0.6,0.7,0.8
	c0.1,0.1,0.2,0.1,0.3,0.2c0,0.2,0.2,0.3,0.3,0.3l0.2,0.1c0.4,0.1,0.7,0.3,1.1,0.1c0.1,0,0.2,0.1,0.3,0.1h0.1H6l2.1-0.5
	c0.4,0,0.9-0.2,1.3-0.3c0.2-0.1,0.3-0.1,0.5-0.2c0.3-0.2,0.7-0.3,0.9-0.5c0.8-0.4,1.3-1.1,1.3-1.9c0-0.3,0-0.5-0.1-0.9l0,0
	c0.4,0,0.8-0.2,1.1-0.5c0.2-0.1,0.5-0.3,0.6-0.6c0.2-0.1,0.4-0.3,0.5-0.5c0.1-0.1,0.1-0.2,0.2-0.3c0.3,0,0.5-0.1,0.7-0.1
	c0.3-0.1,0.6-0.1,1-0.1h1.2c0.1,0,0.2,0,0.2,0c0.1,0,0.2-0.1,0.2,0l0.1,0.1h1.1H19c0.5-0.2,0.8-0.2,1.1-0.2c0.1,0,0.3,0,0.6,0.1
	c0,0.3,0.3,0.6,0.6,0.6h0.2V6.6c0-0.1,0-0.2,0-0.2l0.3,0.3L22,6.5c0.1-0.1,0.2-0.2,0.3-0.2c0.1,0.1,0.2,0.1,0.4,0h0.1h19.6h0.1
	c0.5-0.2,1.1-0.2,1.6-0.2h8.6c0.6,0.1,2.7,0.1,4.9,0c0.5,0,0.9,0,1.1,0H61c0.3,0,0.7,0,1,0.3l0.1,0.1h0.8V6.3
	c0.5-0.1,2.7-0.1,4.8-0.1c2.3,0,4.4,0,4.9-0.1c0.8,0,1.5,0,2.3,0.2H77c0.1,0.1,0.3,0.1,0.4,0h0.1h8.8c0.2,0,0.5,0,0.7-0.2h1.1h0.1
	c0.1-0.1,0.3-0.1,0.5,0c0.1,0,0.2,0,0.4,0h0.7l0,0h0.1c0.6-0.2,11.3-0.2,11.9,0h3.1c0.2,0,0.5,0,0.7,0c0.4,0,0.7-0.1,1.2,0h13.1h0.1
	c0.2,0,0.5,0.1,0.8,0h13c0.8,0,1.5,0,2.2-0.2c0.4-0.1,1.2,0,1.8-0.2h3.4c0.3,0,0.6-0.1,0.9-0.1c0.4-0.1,0.8-0.1,1.1-0.1l0.1,0.1
	c0.1,0,0.2,0,0.4-0.1s0.4,0,0.5,0.1l0.1,0.1h0.8c0.2,0,0.3,0,0.4,0c0.3,0,0.6,0.1,0.9,0c0.1,0,0.2,0,0.2,0s0.1,0,0.1,0.1h0.1
	c0.4,0.2,0.8,0.1,1.1-0.2l0,0c0.1,0,0.2,0,0.3,0h0.1h0.4h0.4h0.1c0.1,0,0.2,0,0.3,0l0,0c0.3,0.2,0.7,0.4,1.1,0.2h0.1l0.1-0.1
	c0,0,0.1,0,0.2,0c0.4,0.1,0.6,0.1,0.9,0c0.1,0,0.3,0,0.4,0h0.8l0.1-0.1c0.1-0.1,0.3-0.2,0.5-0.1c0.1,0.1,0.3,0.1,0.4,0.1
	c0,0,0.1,0,0.1-0.1c0.3-0.1,0.7,0,1.1,0.1c0.3,0.1,0.6,0.1,0.9,0.1h3.4c0.5,0.2,1.3,0,1.8,0.2c0.7,0.2,1.4,0.2,2.2,0.2h13
	c0.3,0.1,0.6,0.1,0.8,0h0.1h13.1c0.5-0.1,0.8-0.1,1.2,0c0.2,0,0.4,0,0.7,0h3.1c0.6-0.2,11.3-0.2,11.9,0h0.1l0,0h0.7
	c0.1,0,0.2,0,0.4,0c0.2,0,0.4-0.1,0.5,0h0.1h1.1c0.2,0.2,0.6,0.2,0.7,0.2h8.8h0.1c0.1,0,0.3,0,0.4,0h2.1c0.9-0.2,1.5-0.2,2.3-0.2
	c0.5,0.1,2.6,0.1,4.9,0.1c2.1,0,4.3,0,4.8,0.1v0h0.8l0.1-0.1c0.3-0.3,0.7-0.3,1-0.3h2.3c0.2,0,0.6,0,1.1,0c2.1,0.1,4.3,0.1,4.9,0
	h8.6c0.5,0,1.1,0,1.6,0.2h0.1h18.6h0.1c0.1,0,0.2,0,0.4,0c0.1,0,0.2,0.2,0.3,0.2l0.2,0.2l0.3-0.3c0,0.1,0,0.1,0,0.2v0.4h0.2
	c0.3,0,0.6-0.3,0.6-0.6c0.3-0.1,0.5-0.1,0.6-0.1c0.3,0,0.6,0,1.1,0.2h0.1h1.1l0.1-0.1h0.2c0.1,0,0.2,0,0.2,0h1c0.4-0.1,0.7,0,1,0.1
	c0.2,0,0.4,0.1,0.7,0.1c0.1,0.1,0.2,0.2,0.2,0.3c0.2,0.2,0.3,0.4,0.5,0.5c0.1,0.2,0.4,0.5,0.6,0.6c0.4,0.3,0.7,0.5,1.1,0.5l0,0
	c-0.1,0.4-0.1,0.6-0.1,0.9c0,0.8,0.4,1.4,1.3,1.9c0.2,0.2,0.5,0.3,0.9,0.5c0.1,0,0.3,0.1,0.4,0.2c0.5,0.1,0.9,0.3,1.3,0.3l2.1,0.5
	h0.6h0.1c0.1-0.1,0.3-0.1,0.3-0.2c0.3,0.1,0.7,0,1.1-0.1h0.2c0.1,0,0.3-0.1,0.3-0.3c0.1-0.1,0.2-0.2,0.3-0.2
	c0.3-0.2,0.6-0.4,0.7-0.9v-0.1l0.1-0.1h0.2v-0.2c0.2-0.6,0.2-1.1,0.2-1.4V8.6c0-0.1,0-0.2,0-0.3c0-0.2,0.1-0.5,0-0.8
	c0-0.2,0-0.4-0.1-0.6c0,0,0-0.1,0-0.2c0-0.7-0.2-1-0.5-1.6V5c0-0.4-0.1-0.7-0.3-0.9c-0.1-0.1-0.2-0.2-0.2-0.4s-0.1-0.3-0.3-0.3
	c-0.5-0.9-1.2-1.5-2.2-2c-0.5-0.3-1.3-0.6-1.8-0.7l-0.2-0.2h-0.1c-0.2,0.1-0.5,0-0.8-0.1c-0.2-0.1-0.3-0.1-0.5-0.1h-2.1l-0.3,0.1
	c-0.5,0.1-1,0.3-1.4,0.6l-1,0.8l-0.5,0.5c-0.2,0.2-0.2,0.5-0.2,0.7v0.1c-0.2,0.6-0.3,1.1-0.1,1.7c0,0-0.1,0.1-0.1,0.3
	c-0.2,0.1-0.5,0.1-0.8,0.1c-0.5-0.2-1-0.2-1.5-0.2c-0.2,0-0.3,0-0.4,0.1h-0.1L278.6,5h-0.1H275c-0.1-0.1-0.2-0.2-0.3-0.2h-0.1
	l-0.1,0.1c0,0-0.1,0.1-0.2,0.1h-26.2c-0.3-0.2-0.6-0.2-0.9-0.2c-0.2,0-0.4,0-0.6,0.1c-0.2,0-0.3,0.1-0.4,0.1h-8.1
	c-0.5-0.2-1-0.2-1.6,0h-0.3c-0.5-0.1-1.1-0.1-1.7,0c-0.3,0-0.5,0-0.8,0h-9.3l0.7-0.2h-2c-0.2,0-0.5,0-0.7,0.2h-0.5
	c-0.4-0.2-0.9-0.2-1.4,0h-10.2c-0.1,0-0.2,0-0.3,0c-0.2,0-0.4-0.1-0.6,0h-0.3H209c-0.1,0-0.3-0.1-0.5,0c-0.6-0.1-1.1-0.1-1.6-0.1
	c-6.1,0-12.4,0-12.8-0.2c-0.4,0-0.6,0-0.9,0.1c-0.5-0.1-1-0.1-1.3,0l-0.1-0.1l-0.1-0.1h-0.1c0,0-0.1,0-0.2-0.1l-0.1-0.1l-0.2,0.1
	c-0.3,0.1-0.6,0.1-0.9,0.1h-0.1c-0.1,0-0.2-0.1-0.4,0c0,0,0,0-0.1,0.1c-0.7,0.1-4.7,0-6.1,0c-0.4,0-0.8,0-0.9,0
	c-0.5,0-1.2,0-1.9,0.2h-1.1c-0.5-0.2-1-0.2-1.6,0c-0.4,0-0.7,0-0.8-0.1l-0.1-0.1h-0.4c-0.7,0.2-1.1,0-1.6,0.1l0,0L175,4.7
	c-0.3-0.2-0.6-0.1-0.8,0h-0.1c-0.1,0-0.2,0-0.5,0c-4.9-0.1-6,0-6.3,0.2H167c-0.1,0-0.2,0-0.3,0c-0.2,0-0.4-0.1-0.7,0.1l0,0h-1.1
	c-0.1,0-0.2,0-0.3-0.1c-0.1,0-0.3-0.1-0.5-0.1c0-0.1-0.1-0.2-0.3-0.2h-0.1c-0.3,0.1-0.7,0.1-1,0c-0.2,0-0.5,0-0.7,0h-3
	c-0.3,0-0.6,0-0.8-0.3l-0.1-0.1l-0.2,0.1c-0.3,0.1-0.4,0.1-0.7,0.1s-0.7,0-1,0.2l0,0c0,0,0,0-0.1-0.1H156c-0.4-0.2-0.8-0.2-1.1-0.2
	h-0.7c-0.1,0-0.2,0-0.3,0c-0.2,0-0.5-0.1-0.9,0h-2.9c-0.1,0.1-0.3,0.1-0.4,0.1c-0.2,0-0.3,0.1-0.4,0.2h-0.5
	c-0.3-0.3-0.7-0.3-1.1-0.3l0,0c0,0,0,0-0.1,0c0,0,0,0-0.1,0l0,0c-0.4,0-0.8,0-1.1,0.3h-0.5c-0.1-0.1-0.3-0.1-0.4-0.2
	c-0.1,0-0.3-0.1-0.4-0.1h-2.9c-0.4-0.1-0.7-0.1-0.9,0c-0.1,0-0.2,0-0.3,0h-0.7c-0.3,0-0.7,0-1.1,0.2h-0.1C139,4.6,139,4.6,139,4.6
	l0,0c-0.4-0.2-0.7-0.2-1-0.2s-0.4,0-0.7-0.1l-0.2-0.1L137,4.3c-0.3,0.3-0.5,0.3-0.8,0.3h-3c-0.2,0-0.5,0-0.7,0c-0.4,0-0.8,0.1-1,0
	h-0.1c-0.2,0-0.3,0.1-0.3,0.2c-0.2,0-0.4,0.1-0.5,0.1S130.4,5,130.3,5h-1.1l0,0c-0.3-0.1-0.5-0.1-0.7-0.1c-0.1,0-0.2,0-0.3,0h-0.3
	c-0.3-0.2-1.4-0.3-6.3-0.2c-0.3,0-0.4,0-0.5,0H121c-0.2,0-0.5-0.1-0.8,0l-0.1,0.1l0,0c-0.5-0.1-0.9,0-1.6-0.1h-0.4L118,4.8
	c-0.1,0.1-0.4,0.1-0.8,0.1c-0.5-0.2-1-0.2-1.6,0h-1.1c-0.7-0.2-1.4-0.2-1.9-0.2c-0.1,0-0.4,0-0.9,0c-1.4,0-5.4,0.1-6.1,0
	c0,0,0,0-0.1-0.1s-0.3,0-0.4,0H105c-0.3,0-0.6,0-0.9-0.1l-0.2-0.1l-0.1,0.1c0,0-0.1,0.1-0.2,0.1h-0.1l-0.1,0.1l-0.1,0.1
	c-0.4-0.1-0.8-0.2-1.3,0c-0.3-0.1-0.5-0.2-0.9-0.1c-0.4,0.1-6.8,0.2-12.8,0.2c-0.5,0-1,0-1.6,0.1c-0.2-0.1-0.4,0-0.5,0h-0.1h-0.3
	c-0.3-0.1-0.5-0.1-0.6,0c-0.1,0-0.2,0-0.3,0H74.7c-0.5-0.2-1-0.2-1.4,0h-0.5c-0.2-0.2-0.6-0.2-0.7-0.2h-2L70.8,5h-9.3
	c-0.3,0-0.5,0-0.8,0c-0.6,0-1.1-0.1-1.7,0h-0.3c-0.5-0.2-1-0.2-1.6,0H49c-0.1,0-0.3,0-0.4-0.1c-0.2,0-0.4-0.1-0.6-0.1
	c-0.3,0-0.5,0-0.9,0.2H20.9c0,0-0.1,0-0.2-0.1l-0.1-0.1h-0.1c-0.2,0-0.3,0.1-0.3,0.2h-3.5h-0.1l-0.1,0.1h-0.1C16.3,5.1,16.2,5,16,5
	c-0.5,0-1,0-1.5,0.2c-0.3,0-0.5,0-0.8-0.1c-0.1-0.1-0.1-0.3-0.1-0.3c0.2-0.7,0-1.2-0.1-1.7V3c0-0.2,0-0.4-0.2-0.7l-0.5-0.5l-1-0.8
	c-0.4-0.3-0.9-0.4-1.4-0.6l-0.3-0.1H8c-0.2,0-0.3,0-0.5,0.1C7.2,0.5,7,0.6,6.7,0.5H6.6L6.4,0.7C5.8,0.7,5,1.1,4.6,1.4
	C3.7,1.9,3,2.5,2.4,3.4c-0.1,0-0.2,0.2-0.3,0.3C2,3.9,2,4,1.9,4.1C1.8,4.4,1.6,4.7,1.6,5v0.2C1.3,5.7,1.1,6.1,1.1,6.8
	c0,0,0,0.1-0.1,0.2c0,0.2-0.1,0.4-0.1,0.6C1.8,7.8,1.8,8,1.9,8.3z M285,6.9c-0.1,0-0.2,0-0.4,0l-0.3-0.5h0.6h0.1
	C285,6.4,285,6.9,285,6.9z M284.3,2.4c0.1-0.1,0.4-0.4,0.6-0.4h0.5V1.9c0.2-0.2,0.3-0.3,0.7-0.3c0.2,0,0.3,0,0.5-0.1
	c0.5,0,0.9,0,1.3,0.3h0.1l1.2,0.3c0.3,0,0.6,0,0.8,0.3l0.1,0.1v0.1l0.1,0.1c0.3,0.2,0.7,0.4,1.1,0.7c0.1,0.3,0.3,0.5,0.4,0.7
	c0.2,0.2,0.3,0.4,0.4,0.6c0.1,0.1,0.1,0.3,0.2,0.4c0.3,0.6,0.5,1.2,0.6,2c0.2,0.7,0.2,1.3,0.2,2v0.1c0,0.3,0,0.5-0.2,0.7
	c-0.1,0.2-0.1,0.3-0.1,0.4c-0.1,0.3-0.1,0.4-0.3,0.5h-0.1l-0.2,0.2c-0.1,0.1-0.1,0.1-0.1,0.2c0,0.1,0,0.1-0.1,0.1s-0.2,0.1-0.3,0.1
	c-0.1,0-0.1,0.1-0.2,0.1s-0.2,0-0.3,0.1c-0.1,0-0.3,0.1-0.5,0.1c-0.1,0-0.3-0.1-0.5-0.1c-0.3-0.1-0.6-0.2-1-0.2c0,0-0.1,0-0.2-0.1
	l0,0h-0.1c-0.6-0.2-0.9-0.3-1.4-0.6c-0.1-0.3-0.2-0.6-0.4-0.9c0-0.2,0-0.3-0.2-0.5V8.2l0,0l0,0l0.2,0.1c0.4,0.2,0.7,0.3,1.1,0.3h1.8
	c0.4,0,0.5,0,0.6,0.2l0.2,0.3l0.2-0.2c0.3-0.3,0.4-0.3,0.5-0.3h0.1c0.1,0,0.2-0.1,0.2-0.1c0.4-0.1,0.8-0.3,1-0.6l0.1-0.1V7.1
	c-0.1-0.2-0.5-1-0.7-1.2l-0.1-0.1c-0.2-0.1-0.4-0.2-0.6-0.3c-0.2-0.1-0.4-0.3-0.7-0.4h-0.1h-0.1l0,0L290.5,5c-0.4-0.4-1-0.4-1.3-0.4
	c-0.7,0-1.2,0.2-1.4,0.4c-0.3,0.1-0.5,0.1-0.8,0.1c-0.2-0.1-0.4-0.1-0.5,0h-0.1h-0.1c-0.3,0.1-0.8,0.3-1,0.3h-0.1
	c-0.1,0-0.2-0.1-0.4,0l0,0c-0.3,0-0.5,0-0.6-0.1c0-0.2,0-0.5-0.2-0.7V4.3l-0.1-0.1c-0.1-0.1-0.1-0.4-0.1-0.5
	C283.8,3.3,284,2.9,284.3,2.4z M289.2,7.4c0-0.2,0.2-0.2,0.2-0.2h1.3c0.2,0,0.3,0.2,0.3,0.2c0,0.2-0.2,0.2-0.2,0.2h-0.3h-1
	C289.4,7.6,289.2,7.6,289.2,7.4z M11.6,7c-0.3,0-0.4,0-0.4,0V6.5h0.1h0.6L11.6,7z M3,9.1c0-0.7,0-1.3,0.2-1.9c0.1-0.8,0.4-1.4,0.6-2
	C3.9,5.1,3.9,4.9,4,4.7s0.2-0.4,0.4-0.6c0.2-0.2,0.3-0.4,0.4-0.7c0.3-0.3,0.8-0.6,1.1-0.7L6,2.6V2.5l0.1-0.1
	c0.3-0.3,0.5-0.3,0.8-0.3l1.2-0.3h0.1c0.4-0.3,0.9-0.3,1.3-0.3C9.7,1.6,9.8,1.6,10,1.6c0.3,0,0.5,0.1,0.7,0.3L10.8,2h0.5
	c0.2,0,0.5,0.3,0.6,0.4c0.3,0.5,0.5,0.9,0.5,1.5c0,0.1,0,0.4-0.1,0.5l-0.1,0.1v0.3C12.1,5,12,5.2,12,5.5c-0.1,0-0.3,0.1-0.6,0.1l0,0
	c-0.1-0.1-0.3,0-0.4,0h-0.1c-0.3,0-0.8-0.2-1-0.3H9.8H9.7c-0.1,0-0.3-0.1-0.5,0c-0.3,0-0.5,0-0.8-0.1C8.2,5.1,7.6,4.8,7,4.8
	c-0.3,0-0.9,0-1.3,0.4L5.6,5.3l0,0H5.5H5.4C5.1,5.4,4.9,5.5,4.7,5.7C4.5,5.8,4.3,5.9,4.1,6L4,6.1c-0.2,0.2-0.6,1-0.7,1.2V8l0-0.1
	c0.3,0.3,0.7,0.5,1,0.6c0.1,0,0.2,0.1,0.2,0.1h0.1c0.1,0,0.2,0,0.5,0.3l0.2,0.2l0.2-0.3c0.1-0.2,0.2-0.2,0.6-0.2h1.8
	c0.4,0,0.7-0.2,1.1-0.4h0.1l0,0l0,0v1.1C9,9.5,8.9,9.7,8.9,9.8c-0.1,0.3-0.3,0.6-0.4,0.7C8,10.8,7.7,11,7.1,11.1H7l0,0
	c0,0-0.1,0.1-0.2,0.1c-0.3,0-0.7,0.1-1,0.2c-0.2,0.1-0.4,0.1-0.5,0.1c-0.3,0-0.4-0.1-0.5-0.1s-0.2-0.1-0.3-0.1c-0.1,0-0.1,0-0.2-0.1
	c-0.1,0-0.2-0.1-0.3-0.1c-0.1,0-0.1,0-0.2-0.1c0-0.1-0.1-0.1-0.1-0.2l-0.2-0.2H3.4c-0.1-0.1-0.2-0.2-0.3-0.5C3.1,10,3,9.9,3,9.7
	C2.9,9.4,2.9,9.3,2.9,9L3,9.1L3,9.1z M6.9,7.4c0,0.2-0.2,0.2-0.3,0.2h-1H5.3c0,0-0.2,0-0.2-0.2c0,0,0.2-0.2,0.3-0.2h1.3
	C6.8,7.2,6.9,7.2,6.9,7.4z"/>
</svg>
