<?xml version="1.0" encoding="utf-8"?>
<!-- Generator: Adobe Illustrator 21.1.0, SVG Export Plug-In . SVG Version: 6.00 Build 0)  -->
<svg version="1.1" id="Layer_1" xmlns="http://www.w3.org/2000/svg" xmlns:xlink="http://www.w3.org/1999/xlink" x="0px" y="0px"
	 viewBox="0 0 294.1 12.8" style="enable-background:new 0 0 294.1 12.8;" xml:space="preserve">
<title>border</title>
<path class="st0" d="M293.2,4.6c0-0.1,0-0.2,0-0.3V3.8c0-0.3,0-0.9-0.2-1.5l0-0.2h-0.2c0,0-0.1-0.1-0.1-0.1l0-0.1
	c-0.1-0.4-0.4-0.6-0.7-0.8c-0.1-0.1-0.2-0.1-0.3-0.2c0-0.2-0.2-0.3-0.3-0.3l-0.2-0.1c-0.4-0.1-0.7-0.3-1.1-0.1
	c-0.1,0-0.2-0.1-0.3-0.1l-0.1,0l-0.6,0L287,0.8c-0.4,0-0.9,0.2-1.3,0.3c-0.2,0.1-0.3,0.1-0.5,0.2c-0.3,0.2-0.7,0.3-0.9,0.5
	c-0.8,0.4-1.3,1.1-1.3,1.9c0,0.3,0,0.5,0.1,0.9h0c-0.4,0-0.8,0.2-1.1,0.5c-0.2,0.1-0.5,0.3-0.6,0.6c-0.2,0.1-0.4,0.3-0.5,0.5
	c-0.1,0.1-0.1,0.2-0.2,0.3c-0.3,0-0.5,0.1-0.7,0.1c-0.3,0.1-0.6,0.1-1,0.1h-1.2c-0.1,0-0.2,0-0.2,0c-0.1,0-0.2,0.1-0.2,0l-0.1-0.1
	h-1.1l-0.1,0c-0.5,0.2-0.8,0.2-1.1,0.2c-0.1,0-0.3,0-0.6-0.1c0-0.3-0.3-0.6-0.6-0.6h-0.2v0.2c0,0.1,0,0.2,0,0.2l-0.3-0.3l-0.2,0.2
	c-0.1,0.1-0.2,0.2-0.3,0.2c-0.1-0.1-0.2-0.1-0.4,0c0,0-0.1,0-0.1,0h-19.6l-0.1,0c-0.5,0.2-1.1,0.2-1.6,0.2l-8.6,0
	c-0.6-0.1-2.7-0.1-4.9,0c-0.5,0-0.9,0-1.1,0h-2.3c-0.3,0-0.7,0-1-0.3l-0.1-0.1h-0.8v0.2c-0.5,0.1-2.7,0.1-4.8,0.1
	c-2.3,0-4.4,0-4.9,0.1c-0.8,0-1.5,0-2.3-0.2h-2.1c-0.1-0.1-0.3-0.1-0.4,0c0,0-0.1,0-0.1,0h-8.8c-0.2,0-0.5,0-0.7,0.2h-1.1l-0.1,0
	c-0.1,0.1-0.3,0.1-0.5,0c-0.1,0-0.2,0-0.4,0h-0.7l0,0l-0.1,0c-0.6,0.2-11.3,0.2-11.9,0l-3.1,0c-0.2,0-0.5,0-0.7,0
	c-0.4,0-0.7,0.1-1.2,0h-13.1c0,0-0.1,0-0.1,0c-0.2,0-0.5-0.1-0.8,0h-13c-0.8,0-1.5,0-2.2,0.2c-0.4,0.1-1.2,0-1.8,0.2h-3.4
	c-0.3,0-0.6,0.1-0.9,0.1c-0.4,0.1-0.8,0.1-1.1,0.1c0,0-0.1-0.1-0.1-0.1c-0.1,0-0.2,0-0.4,0.1c-0.2,0.1-0.4,0-0.5-0.1l-0.1-0.1h-0.8
	c-0.2,0-0.3,0-0.4,0c-0.3,0-0.6-0.1-0.9,0c-0.1,0-0.2,0-0.2,0c0,0-0.1,0-0.1-0.1l-0.1,0c-0.4-0.2-0.8-0.1-1.1,0.2c0,0,0,0,0,0
	c-0.1,0-0.2,0-0.3,0l-0.1,0l-0.4,0l-0.4,0l-0.1,0c-0.1,0-0.2,0-0.3,0c0,0,0,0,0,0c-0.3-0.2-0.7-0.4-1.1-0.2l-0.1,0
	c0,0-0.1,0.1-0.1,0.1c0,0-0.1,0-0.2,0c-0.4-0.1-0.6-0.1-0.9,0c-0.1,0-0.3,0-0.4,0h-0.8l-0.1,0.1c-0.1,0.1-0.3,0.2-0.5,0.1
	c-0.1-0.1-0.3-0.1-0.4-0.1c0,0-0.1,0-0.1,0.1c-0.3,0.1-0.7,0-1.1-0.1c-0.3-0.1-0.6-0.1-0.9-0.1h-3.4c-0.5-0.2-1.3,0-1.8-0.2
	c-0.7-0.2-1.4-0.2-2.2-0.2h-13c-0.3-0.1-0.6-0.1-0.8,0c0,0-0.1,0-0.1,0h-13.1c-0.5,0.1-0.8,0.1-1.2,0c-0.2,0-0.4,0-0.7,0l-3.1,0
	c-0.6,0.2-11.3,0.2-11.9,0l-0.1,0l0,0h-0.7c-0.1,0-0.2,0-0.4,0c-0.2,0-0.4,0.1-0.5,0l-0.1,0h-1.1c-0.2-0.2-0.6-0.2-0.7-0.2h-8.8
	c0,0-0.1,0-0.1,0c-0.1,0-0.3,0-0.4,0h-2.1c-0.9,0.2-1.5,0.2-2.3,0.2c-0.5-0.1-2.6-0.1-4.9-0.1c-2.1,0-4.3,0-4.8-0.1V6.6h-0.8
	l-0.1,0.1c-0.3,0.3-0.7,0.3-1,0.3h-2.3c-0.2,0-0.6,0-1.1,0c-2.1-0.1-4.3-0.1-4.9,0l-8.6,0c-0.5,0-1.1,0-1.6-0.2l-0.1,0H21.5
	c0,0-0.1,0-0.1,0c-0.1,0-0.2,0-0.4,0c-0.1,0-0.2-0.2-0.3-0.2l-0.2-0.2l-0.3,0.3c0-0.1,0-0.1,0-0.2V6.1h-0.2c-0.3,0-0.6,0.3-0.6,0.6
	c-0.3,0.1-0.5,0.1-0.6,0.1c-0.3,0-0.6,0-1.1-0.2l-0.1,0h-1.1l-0.1,0.1c0,0-0.2,0-0.2,0c-0.1,0-0.2,0-0.2,0H15c-0.4,0.1-0.7,0-1-0.1
	c-0.2,0-0.4-0.1-0.7-0.1c-0.1-0.1-0.2-0.2-0.2-0.3c-0.2-0.2-0.3-0.4-0.5-0.5c-0.1-0.2-0.4-0.5-0.6-0.6c-0.4-0.3-0.7-0.5-1.1-0.5h0
	c0.1-0.4,0.1-0.6,0.1-0.9c0-0.8-0.4-1.4-1.3-1.9C9.5,1.6,9.2,1.5,8.8,1.3C8.7,1.3,8.5,1.2,8.4,1.1C7.9,1,7.5,0.8,7.1,0.8L5,0.3
	l-0.6,0l-0.1,0C4.2,0.4,4,0.4,4,0.5c-0.3-0.1-0.7,0-1.1,0.1L2.7,0.6c-0.1,0-0.3,0.1-0.3,0.3C2.3,1,2.2,1.1,2.1,1.1
	C1.8,1.3,1.5,1.5,1.4,2l0,0.1c0,0-0.1,0.1-0.1,0.1H1.1l0,0.2C0.9,3,0.9,3.5,0.9,3.8v0.5c0,0.1,0,0.2,0,0.3c0,0.2-0.1,0.5,0,0.8
	C0.9,5.6,0.9,5.8,1,6C1,6,1,6.1,1,6.2c0,0.7,0.2,1,0.5,1.6v0.1c0,0.4,0.1,0.7,0.3,0.9C1.9,8.9,2,9,2,9.2c0,0.2,0.1,0.3,0.3,0.3
	c0.5,0.9,1.2,1.5,2.2,2c0.5,0.3,1.3,0.6,1.8,0.7l0.2,0.2l0.1,0c0.2-0.1,0.5,0,0.8,0.1c0.2,0.1,0.3,0.1,0.5,0.1l2.1,0l0.3-0.1
	c0.5-0.1,1-0.3,1.4-0.6l1-0.8l0.5-0.5c0.2-0.2,0.2-0.5,0.2-0.7l0-0.1c0.2-0.6,0.3-1.1,0.1-1.7c0,0,0.1-0.1,0.1-0.3
	c0.2-0.1,0.5-0.1,0.8-0.1c0.5,0.2,1,0.2,1.5,0.2c0.2,0,0.3,0,0.4-0.1c0,0,0.1,0,0.1,0l0.1,0.1l0.1,0h3.5c0.1,0.1,0.2,0.2,0.3,0.2
	h0.1l0.1-0.1c0,0,0.1-0.1,0.2-0.1H47c0.3,0.2,0.6,0.2,0.9,0.2c0.2,0,0.4,0,0.6-0.1c0.2,0,0.3-0.1,0.4-0.1H57c0.5,0.2,1,0.2,1.6,0
	h0.3c0.5,0.1,1.1,0.1,1.7,0c0.3,0,0.5,0,0.8,0h9.3l-0.7,0.2h2c0.2,0,0.5,0,0.7-0.2h0.5c0.4,0.2,0.9,0.2,1.4,0h10.2
	c0.1,0,0.2,0,0.3,0c0.2,0,0.4,0.1,0.6,0h0.3c0,0,0.1,0,0.1,0c0.1,0,0.3,0.1,0.5,0c0.6,0.1,1.1,0.1,1.6,0.1c6.1,0,12.4,0,12.8,0.2
	c0.4,0,0.6,0,0.9-0.1c0.5,0.1,1,0.1,1.3,0c0,0,0.1,0.1,0.1,0.1l0.1,0.1l0.1,0c0,0,0.1,0,0.2,0.1l0.1,0.1l0.2-0.1
	c0.3-0.1,0.6-0.1,0.9-0.1c0,0,0.1,0,0.1,0c0.1,0,0.2,0.1,0.4,0c0,0,0,0,0.1-0.1c0.7-0.1,4.7,0,6.1,0c0.4,0,0.8,0,0.9,0
	c0.5,0,1.2,0,1.9-0.2l1.1,0c0.5,0.2,1,0.2,1.6,0c0.4,0,0.7,0,0.8,0.1l0.1,0.1h0.4c0.7-0.2,1.1,0,1.6-0.1v0l0.1,0.1
	c0.3,0.2,0.6,0.1,0.8,0c0,0,0.1,0,0.1,0c0.1,0,0.2,0,0.5,0c4.9,0.1,6,0,6.3-0.2h0.3c0.1,0,0.2,0,0.3,0c0.2,0,0.4,0.1,0.7-0.1v0
	l1.1,0c0.1,0,0.2,0,0.3,0.1c0.1,0,0.3,0.1,0.5,0.1c0,0.1,0.1,0.2,0.3,0.2l0.1,0c0.3-0.1,0.7-0.1,1,0c0.2,0,0.5,0,0.7,0h3
	c0.3,0,0.6,0,0.8,0.3l0.1,0.1l0.2-0.1c0.3-0.1,0.4-0.1,0.7-0.1c0.3,0,0.7,0,1-0.2c0,0,0,0,0,0c0,0,0,0,0.1,0.1l0.1,0
	c0.4,0.2,0.8,0.2,1.1,0.2h0.7c0.1,0,0.2,0,0.3,0c0.2,0,0.5,0.1,0.9,0l2.9,0c0.1-0.1,0.3-0.1,0.4-0.1c0.2,0,0.3-0.1,0.4-0.2h0.5
	c0.3,0.3,0.7,0.3,1.1,0.3l0,0c0,0,0,0,0.1,0c0,0,0,0,0.1,0l0,0c0.4,0,0.8,0,1.1-0.3h0.5c0.1,0.1,0.3,0.1,0.4,0.2
	c0.1,0,0.3,0.1,0.4,0.1l2.9,0c0.4,0.1,0.7,0.1,0.9,0c0.1,0,0.2,0,0.3,0h0.7c0.3,0,0.7,0,1.1-0.2l0.1,0c0.1-0.1,0.1-0.1,0.1-0.1
	c0,0,0,0,0,0c0.4,0.2,0.7,0.2,1,0.2c0.3,0,0.4,0,0.7,0.1l0.2,0.1l0.1-0.1c0.3-0.3,0.5-0.3,0.8-0.3h3c0.2,0,0.5,0,0.7,0
	c0.4,0,0.8-0.1,1,0l0.1,0c0.2,0,0.3-0.1,0.3-0.2c0.2,0,0.4-0.1,0.5-0.1c0.1,0,0.2-0.1,0.3-0.1l1.1,0v0c0.3,0.1,0.5,0.1,0.7,0.1
	c0.1,0,0.2,0,0.3,0h0.3c0.3,0.2,1.4,0.3,6.3,0.2c0.3,0,0.4,0,0.5,0c0,0,0.1,0,0.1,0c0.2,0,0.5,0.1,0.8,0l0.1-0.1v0
	c0.5,0.1,0.9,0,1.6,0.1h0.4l0.1-0.1c0.1-0.1,0.4-0.1,0.8-0.1c0.5,0.2,1,0.2,1.6,0l1.1,0c0.7,0.2,1.4,0.2,1.9,0.2c0.1,0,0.4,0,0.9,0
	c1.4,0,5.4-0.1,6.1,0c0,0,0,0,0.1,0.1c0.1,0.1,0.3,0,0.4,0c0,0,0.1,0,0.1,0c0.3,0,0.6,0,0.9,0.1l0.2,0.1l0.1-0.1
	c0,0,0.1-0.1,0.2-0.1l0.1,0l0.1-0.1c0,0,0.1-0.1,0.1-0.1c0.4,0.1,0.8,0.2,1.3,0c0.3,0.1,0.5,0.2,0.9,0.1c0.4-0.1,6.8-0.2,12.8-0.2
	c0.5,0,1,0,1.6-0.1c0.2,0.1,0.4,0,0.5,0c0,0,0.1,0,0.1,0h0.3c0.3,0.1,0.5,0.1,0.6,0c0.1,0,0.2,0,0.3,0h10.2c0.5,0.2,1,0.2,1.4,0h0.5
	c0.2,0.2,0.6,0.2,0.7,0.2h2l-0.7-0.2h9.3c0.3,0,0.5,0,0.8,0c0.6,0,1.1,0.1,1.7,0h0.3c0.5,0.2,1,0.2,1.6,0h8.1c0.1,0,0.3,0,0.4,0.1
	c0.2,0,0.4,0.1,0.6,0.1c0.3,0,0.5,0,0.9-0.2h26.2c0,0,0.1,0,0.2,0.1l0.1,0.1h0.1c0.2,0,0.3-0.1,0.3-0.2h3.5l0.1,0l0.1-0.1
	c0,0,0.1,0,0.1,0c0.1,0,0.2,0.1,0.4,0.1c0.5,0,1,0,1.5-0.2c0.3,0,0.5,0,0.8,0.1c0.1,0.1,0.1,0.3,0.1,0.3c-0.2,0.7,0,1.2,0.1,1.7
	l0,0.1c0,0.2,0,0.4,0.2,0.7l0.5,0.5l1,0.8c0.4,0.3,0.9,0.4,1.4,0.6l0.3,0.1l2.1,0c0.2,0,0.3,0,0.5-0.1c0.3-0.1,0.5-0.2,0.8-0.1
	l0.1,0l0.2-0.2c0.6,0,1.4-0.4,1.8-0.7c0.9-0.5,1.6-1.1,2.2-2c0.1,0,0.2-0.2,0.3-0.3c0.1-0.2,0.1-0.3,0.2-0.4
	c0.1-0.3,0.3-0.6,0.3-0.9V7.7c0.3-0.5,0.5-0.9,0.5-1.6c0,0,0-0.1,0.1-0.2c0-0.2,0.1-0.4,0.1-0.6C293.3,5.1,293.3,4.9,293.2,4.6z
	 M10.1,6c0.1,0,0.2,0,0.4,0l0.3,0.5h-0.6c0,0-0.1,0-0.1,0V6z M10.8,10.5c-0.1,0.1-0.4,0.4-0.6,0.4H9.7L9.7,11
	c-0.2,0.2-0.3,0.3-0.7,0.3c-0.2,0-0.3,0-0.5,0.1c-0.5,0-0.9,0-1.3-0.3l-0.1,0l-1.2-0.3c-0.3,0-0.6,0-0.8-0.3L5,10.4l0-0.1l-0.1-0.1
	c-0.3-0.2-0.7-0.4-1.1-0.7C3.7,9.2,3.5,9,3.4,8.8C3.2,8.6,3.1,8.4,3,8.2C2.9,8.1,2.9,7.9,2.8,7.8c-0.3-0.6-0.5-1.2-0.6-2
	C2,5.1,2,4.5,2,3.8V3.7C2,3.4,2,3.2,2.2,3c0.1-0.2,0.1-0.3,0.1-0.4c0.1-0.3,0.1-0.4,0.3-0.5l0.1,0l0.2-0.2c0.1-0.1,0.1-0.1,0.1-0.2
	C3,1.6,3,1.6,3.1,1.6c0.1,0,0.2-0.1,0.3-0.1c0.1,0,0.1-0.1,0.2-0.1c0.1,0,0.2,0,0.3-0.1c0.1,0,0.3-0.1,0.5-0.1
	c0.1,0,0.3,0.1,0.5,0.1c0.3,0.1,0.6,0.2,1,0.2c0,0,0.1,0,0.2,0.1l0,0l0.1,0c0.6,0.2,0.9,0.3,1.4,0.6C7.7,2.5,7.8,2.8,8,3.1
	c0,0.2,0,0.3,0.2,0.5v1.1c0,0,0,0,0,0c0,0,0,0,0,0L8,4.6C7.6,4.4,7.3,4.3,6.9,4.3H5.1c-0.4,0-0.5,0-0.6-0.2L4.3,3.8L4.1,4
	C3.8,4.3,3.7,4.3,3.6,4.3l-0.1,0c-0.1,0-0.2,0.1-0.2,0.1C2.9,4.5,2.5,4.7,2.3,5L2.2,5.1l0,0.7C2.3,6,2.7,6.8,2.9,7L3,7.1
	c0.2,0.1,0.4,0.2,0.6,0.3c0.2,0.1,0.4,0.3,0.7,0.4l0.1,0c0,0,0.1,0,0.1,0v0l0.1,0.1c0.4,0.4,1,0.4,1.3,0.4c0.7,0,1.2-0.2,1.4-0.4
	c0.3-0.1,0.5-0.1,0.8-0.1c0.2,0.1,0.4,0.1,0.5,0c0,0,0.1,0,0.1,0l0.1,0c0.3-0.1,0.8-0.3,1-0.3c0,0,0.1,0,0.1,0c0.1,0,0.2,0.1,0.4,0
	c0,0,0,0,0,0c0.3,0,0.5,0,0.6,0.1c0,0.2,0,0.5,0.2,0.7v0.3l0.1,0.1c0.1,0.1,0.1,0.4,0.1,0.5C11.3,9.6,11.1,10,10.8,10.5z M5.9,5.5
	c0,0.2-0.2,0.2-0.2,0.2H4.4c-0.2,0-0.3-0.2-0.3-0.2c0-0.2,0.2-0.2,0.2-0.2h0.3h1C5.7,5.3,5.9,5.3,5.9,5.5z M283.5,5.9
	c0.3,0,0.4,0,0.4,0v0.5c0,0-0.1,0-0.1,0h-0.6L283.5,5.9z M292.1,3.8c0,0.7,0,1.3-0.2,1.9c-0.1,0.8-0.4,1.4-0.6,2
	c-0.1,0.1-0.1,0.3-0.2,0.5c-0.1,0.2-0.2,0.4-0.4,0.6c-0.2,0.2-0.3,0.4-0.4,0.7c-0.3,0.3-0.8,0.6-1.1,0.7l-0.1,0.1l0,0.1l-0.1,0.1
	c-0.3,0.3-0.5,0.3-0.8,0.3l-1.2,0.3l-0.1,0c-0.4,0.3-0.9,0.3-1.3,0.3c-0.2-0.1-0.3-0.1-0.5-0.1c-0.3,0-0.5-0.1-0.7-0.3l-0.1-0.1
	h-0.5c-0.2,0-0.5-0.3-0.6-0.4c-0.3-0.5-0.5-0.9-0.5-1.5c0-0.1,0-0.4,0.1-0.5l0.1-0.1V8.1c0.1-0.2,0.2-0.4,0.2-0.7
	c0.1,0,0.3-0.1,0.6-0.1c0,0,0,0,0,0c0.1,0.1,0.3,0,0.4,0c0,0,0.1,0,0.1,0c0.3,0,0.8,0.2,1,0.3l0.1,0c0,0,0.1,0,0.1,0
	c0.1,0,0.3,0.1,0.5,0c0.3,0,0.5,0,0.8,0.1c0.2,0.1,0.8,0.4,1.4,0.4c0.3,0,0.9,0,1.3-0.4l0.1-0.1v0c0,0,0.1,0,0.1,0l0.1,0
	c0.3-0.1,0.5-0.2,0.7-0.4c0.2-0.1,0.4-0.2,0.6-0.3l0.1-0.1c0.2-0.2,0.6-1,0.7-1.2l0-0.7L291.8,5c-0.3-0.3-0.7-0.5-1-0.6
	c-0.1,0-0.2-0.1-0.2-0.1l-0.1,0c-0.1,0-0.2,0-0.5-0.3l-0.2-0.2l-0.2,0.3c-0.1,0.2-0.2,0.2-0.6,0.2h-1.8c-0.4,0-0.7,0.2-1.1,0.4
	l-0.1,0c0,0,0,0,0,0c0,0,0,0,0,0V3.6c0.1-0.2,0.2-0.4,0.2-0.5c0.1-0.3,0.3-0.6,0.4-0.7c0.5-0.3,0.8-0.5,1.4-0.6l0.1,0l0,0
	c0,0,0.1-0.1,0.2-0.1c0.3,0,0.7-0.1,1-0.2c0.2-0.1,0.4-0.1,0.5-0.1c0.3,0,0.4,0.1,0.5,0.1c0.1,0,0.2,0.1,0.3,0.1
	c0.1,0,0.1,0,0.2,0.1c0.1,0,0.2,0.1,0.3,0.1c0.1,0,0.1,0,0.2,0.1c0,0.1,0.1,0.1,0.1,0.2l0.2,0.2l0.1,0c0.1,0.1,0.2,0.2,0.3,0.5
	c0,0.1,0.1,0.2,0.1,0.4c0.1,0.3,0.1,0.4,0.1,0.7V3.8z M288.2,5.5c0-0.2,0.2-0.2,0.3-0.2h1h0.3c0,0,0.2,0,0.2,0.2
	c0,0-0.2,0.2-0.3,0.2h-1.3C288.3,5.7,288.2,5.7,288.2,5.5z"/>
</svg>
