<svg id="Layer_1" data-name="Layer 1" xmlns="http://www.w3.org/2000/svg" viewBox="0 0 291.05 33.87">
  <title>borderMiddle</title>
  <path d="M138.59,14.24a5.72,5.72,0,0,0,3.86-.64c.21-.43.86-.64,1.29-.86v-.86c-.43-.86,0-1.29.64-1.72a17.36,17.36,0,0,1,3.86-2.57,21.09,21.09,0,0,1,3.22-1.93,11.45,11.45,0,0,1,3.43.86.82.82,0,0,1,0,1.5c-1.07.86-2.36,1.71-3.21,2.57-1.5,1.29-3.21,2.57-4.72,3.64a.79.79,0,0,0-.21.64l6.22.64a47.3,47.3,0,0,1,7.72.86c.22,0,.86.21,1.29.21a40.12,40.12,0,0,1,7.29.64l6.65.64a9.21,9.21,0,0,1,2.57.43c3.22.43,6.43.86,9.65,1.07L192,20c2.57,0,6.22,1.29,8.58,1.5,2.36,0,4.72.64,7.07.86,3.43.43.43-.43,15.65,1.71,1.5.21,3,0,4.29.21a10.42,10.42,0,0,0,2.57.21c1.93.21,4.07.21,6,.43.86,0,1.5.21,2.36.21a4.18,4.18,0,0,0,1.72.21c2.79-.43,12,.86,14.79,1.07a48.41,48.41,0,0,1,5.57.21,9.29,9.29,0,0,0,1.07-.21l5.14-.64a30.2,30.2,0,0,1,4.29-.21c.64-.21,1.29-.21,1.5-.43a18.87,18.87,0,0,1,3.22-1.07c2.79-1.29,5.79-2.36,7.72-4.29a19.19,19.19,0,0,0,4.5-6,2.78,2.78,0,0,0,.43-2.14c-.43-1.29-1.5-1.72-3-1.5a5.12,5.12,0,0,0-1.93.43,39.08,39.08,0,0,0-5.36,1.72c-1.93.64-3.65,1.71-5.15,2.14-.86.43-.43-1.07.86-1.72,1.72-.86,3.86-1.71,5.58-2.36,1.93-.86,4.28-1.07,6.65-1.71A5.66,5.66,0,0,1,291,10.38a4.72,4.72,0,0,1,0,3.43c-.65,1.07-1.29,2.36-1.93,3.64l-.64.86c-2.36,3-5.79,4.93-9.86,6.65a45,45,0,0,1-6.43,2.36c-2.14.43-4.29.64-6.43.86-7.07.43-20.37-1.07-27.44-1.29l-12.86-.64c-4.07-.43-12.86-1.93-16.94-2.14-2.79-.21-5.36-.64-8.14-.86-3.43-.43-8.58-1.07-12-1.71-3-.43-6-1.07-9.22-1.29-2.57-.21-4.93-.64-7.5-.86-3.64-.43-7.29-1.07-10.93-1.29-3.21-.43-6.43-.86-9.65-1.07l-4.93-.43h-1.93l-1.5,1.29A63.69,63.69,0,0,1,133.23,25a11.29,11.29,0,0,1-4.71,1.71,1.62,1.62,0,0,1-1.5-.86c1.29-1.07,2.79-1.72,4.07-3l4.07-3.22a31.47,31.47,0,0,0,4.07-3.43,13.67,13.67,0,0,1-1.93-.43c-3.22-.21-6.43-.43-9.65-.43a3.66,3.66,0,0,0-1.5.21l-1.5.64a84.71,84.71,0,0,1-8.79,4.72,16.08,16.08,0,0,1-3.86,1.5,5.88,5.88,0,0,1-2.57.43c-.43,0-.86-.21-1.29-.21a7.37,7.37,0,0,1,2.36-1.07,16,16,0,0,1,2.57-1.5A19.69,19.69,0,0,0,115.22,19a23.39,23.39,0,0,1,2.36-1.29l2.14-1.5a5.75,5.75,0,0,0,2.14-1.29,8.61,8.61,0,0,0-1.29-.43h-4.72c-5.36-.43-14.58-1.29-19.72-1.29-2.14,0-20.58-.86-22.72-.86H56.05c-6.22.21-12,.86-18,1.5a54.28,54.28,0,0,0-10.29,1.72,50.93,50.93,0,0,0-12.22,3.86c-3,1.29-5.79,3-7.29,5.36-.21.21-.64.43-.64.64A10.23,10.23,0,0,0,4,29.25c-.64.64-.64.64-.21,2.14a13.08,13.08,0,0,0,1.71.86A11.33,11.33,0,0,1,8.25,32a9.52,9.52,0,0,0,4.93-1.5.46.46,0,0,0,.43-.43c.21,0,0-.21,0-.21a1.06,1.06,0,0,0-.64-.21c-.43.21-.86.21-1.07.43a3,3,0,0,1-1.29.43,2.46,2.46,0,0,1-2.14-.21c-.43-.21-.64-.64-.21-1.07.43-.86,1.5-1.29,3-1.29.43-.21,1.07,0,1.71-.21a2.28,2.28,0,0,1,1.72-.21c.86.21,1.71.64,2.36.86,1.07.86.86,2.14-.64,3A8.38,8.38,0,0,1,13,32.89a22.83,22.83,0,0,1-6.65,1.29c-1.93,0-3.86-.43-4.93-1.5A1.36,1.36,0,0,1,.32,31.4C.1,29.46,1.39,27.75,2.89,26l1.29-.86a13.94,13.94,0,0,1,1.71-1.93A4.68,4.68,0,0,1,7.6,22.18c0-.43.21-.43.43-.64a33.68,33.68,0,0,1,6.65-3.86,94,94,0,0,1,15.65-4.5A70,70,0,0,1,40,12.1a52.56,52.56,0,0,1,5.79-.43c3.43-.21,6.86-.64,10.29-.64.64,0,1.07-.21,1.5-.21H68.7c.21,0,.43.21.86.21a15.32,15.32,0,0,1,6.22-.21c20.37.86,23.8.86,31.51,1.72a28.89,28.89,0,0,1,4.29.21c3.22.21,6.22,0,9.43.43a6.23,6.23,0,0,0,4.71-1.07c.86-.43,1.72-1.07,2.79-1.72l5.36-4.5a15.44,15.44,0,0,0,3.86-4.5l.64-.64a2.58,2.58,0,0,1,1.72-.43,1.58,1.58,0,0,1,1.07,1.29l-1.5,2.14a57,57,0,0,1-7.29,7.07,19.45,19.45,0,0,0-2.14,1.93c-.21.21-.21.43-.64.86.86,0,1.29.21,1.72.21,2.14,0,4.29.21,6.43.43Z" transform="translate(-0.29 -0.31)"/>
</svg>
