<svg id="Layer_1" data-name="Layer 1" xmlns="http://www.w3.org/2000/svg" viewBox="0 0 480.67 493.97">
  <defs>
    <style>
      .cls-1 {
        fill: #b1aad4;
      }

      .cls-2 {
        fill: #d5cfe8;
      }

      .cls-3 {
        fill: #c0b8dc;
      }

      .cls-4 {
        fill: #9894c8;
      }

      .cls-5 {
        fill: #b9b2d9;
      }

      .cls-6 {
        fill: #ccc5e2;
      }

      .cls-7 {
        fill: #c5bddf;
      }
    </style>
  </defs>
  <title>facebookLogo</title>
  <path class="cls-1" d="M166,37.9c0,.23,0,.47,0,.7q.26,3.64.53,7.28l-6.34-2.18c-2.24,1.47-6.57,3.93-6.41,4.26,3.32,7-1.59,4.06-3.83,3a24.85,24.85,0,0,1-7.47-4.95c-5.57-5.71-6.38-5.51-9.78,1.93-1,2.13-4,5.19-5.5,4.89-8.87-1.84-9.07,3.61-9,9.64-4.76-1.78-9.75-8.08-14,.7-.12.25-1.32-.1-2-.05-7.87.61-12.2,5.61-11.41,13.34.31,3.08.92,6.13,1.39,9.19L82,88.59a6.59,6.59,0,0,0-2-.9c-2.59-.24-5.19-.34-7.79-.49,1.64,1.38,3.34,2.7,4.88,4.19a6.85,6.85,0,0,1,1,2.2l-3.39.78c-3.11-.14-6.21-.27-5.84,4.31-2.33,1.44-6.23,2.49-6.71,4.39-1.64,6.53-2.63,13.09-6.11,19.14-2.21,3.84-3.06,8.45-4.52,12.72h0c-4,.22-4.63-1.72-3.9-5.29.79-3.92.93-8,1.35-12l1.55-4.41,2.76-7.2,4.18-5.84,2.76-4.39c3.16-5,6.1-10.06,9.51-14.82,6.16-8.6,12.55-17,19-25.44a36.78,36.78,0,0,1,6-6.2c8.26-6.67,16.64-13.18,25-19.76-1,6-2.07,12-2.89,18.06-.11.78,1.12,1.74,1.73,2.61.69-.61,1.78-1.11,2-1.86,2.2-7.13,4.24-14.31,6.34-21.48l15.91-7.8c2.71,3.87,6,4.5,10.41,2.66,2.53-1.06,5.56-.92,8.36-1.32l1.53,3-3,10.09,3,2.87Z" transform="translate(-9.33 -5.67)"/>
  <path class="cls-1" d="M53.08,145.08q0,1.43,0,2.86c-2.44,1.47-5.36,2.49-7.22,4.5a150,150,0,0,0-12.49,15.45c-.65.92,1.21,3.61,1.91,5.48,1.09-1,2.24-2,3.25-3,1.5-1.61,2.9-3.31,4.34-5q0,8,0,15.91c-2-.58-4.41-.68-6.06-1.82-6.18-4.25-6.85.1-6.86,4.45,0,4,.88,7.92,1.37,11.88l-1.45,2.93-5.83,1.4c-1.12-7.72-2.07-15.39,2.53-22.54.35-.54-1.39-2.44-2.17-3.7l4.08-8.48,7.32-20.47c7,1.27,8.12-2.3,6.53-8-.31-1.12-.64-2.23-1-3.35Z" transform="translate(-9.33 -5.67)"/>
  <path class="cls-2" d="M179,462.33q-.08,3.7-.16,7.4c-4.62-1.73-8.95-3-10.31,4-.18.93-2.34,1.48-3.59,2.2-.18-1.59-1.09-4.07-.41-4.63,4.78-4,2.16-5.46-1.92-6.45-4.29-1-8.77-5.46-12.84.44-.85-.62-2.24-1.09-2.46-1.88-.75-2.74-1.09-5.6-1.58-8.41a34.09,34.09,0,0,1,4.39,2.09c3.84,2.52,6.7,3.3,8.34-2.5.58-2,3.19-3.52,4.88-5.25a38.25,38.25,0,0,1,3,5.59C168.4,461.22,171.73,465.08,179,462.33Z" transform="translate(-9.33 -5.67)"/>
  <path class="cls-3" d="M53.08,145.08,41.38,133.54l-2.51.12,10.15-16c-.42,4-.56,8-1.35,12-.72,3.57-.1,5.51,3.9,5.29l2.92,5.81Z" transform="translate(-9.33 -5.67)"/>
  <path class="cls-2" d="M24.42,173.87c.77,1.27,2.52,3.16,2.17,3.7-4.6,7.16-3.65,14.82-2.53,22.54l0,4.35L20,210.39C17.67,197.76,19.71,185.65,24.42,173.87Z" transform="translate(-9.33 -5.67)"/>
  <path class="cls-4" d="M127,27c-2.09,7.17-4.14,14.34-6.34,21.48-.23.76-1.32,1.25-2,1.86-.61-.87-1.84-1.83-1.73-2.61.82-6,1.89-12,2.89-18.06Z" transform="translate(-9.33 -5.67)"/>
  <path class="cls-1" d="M132.67,446.37l-4.27-.08c-.35-3.92,1.43-6.13,5.37-5.68a57.15,57.15,0,0,1,9.6,2.32,12.34,12.34,0,0,1-.73,3.49c-.79,1.95-1.81,3.8-2.74,5.69a9,9,0,0,0,0,1.39l-4.52-1.06Z" transform="translate(-9.33 -5.67)"/>
  <path class="cls-4" d="M486.16,265.3c-3.85,0-6.78-.83-5.2-5.81.32-1,.55-2.84,0-3.25-7.66-5.84-.62-7.56,2.78-10.3a3,3,0,0,1,1,.37l1.59,3.08q.2,1.89.4,3.78Q486.46,259.24,486.16,265.3Z" transform="translate(-9.33 -5.67)"/>
  <path class="cls-4" d="M470.09,379.69l-5.52-3.15,5.94-9.07,4.17,3.63Z" transform="translate(-9.33 -5.67)"/>
  <path class="cls-3" d="M35.82,144.92,28.5,165.39c1.55-5.95,3.22-11.87,4.6-17.85.62-2.72,1.92-6.39.73-8.22-4.65-7.18,1.44-3.44,3.48-3.81Z" transform="translate(-9.33 -5.67)"/>
  <path class="cls-5" d="M161.63,20.5c-2.8.4-5.83.26-8.36,1.32-4.4,1.85-7.7,1.21-10.41-2.66l19-4Q161.73,17.82,161.63,20.5Z" transform="translate(-9.33 -5.67)"/>
  <path class="cls-4" d="M35.82,144.92l1.49-9.4,1.56-1.87,2.51-.12c.32,1.12.66,2.23,1,3.35C43.94,142.62,42.85,146.19,35.82,144.92Z" transform="translate(-9.33 -5.67)"/>
  <path class="cls-4" d="M480.3,352.2,475,348.91l5.24-6.57,4.16,3.94Z" transform="translate(-9.33 -5.67)"/>
  <path class="cls-4" d="M190.66,12.16l-.56,5.28c-3.64-2.84-10.67,5.21-12.38-3.84l6.93-1.11,3.27,0Z" transform="translate(-9.33 -5.67)"/>
  <path class="cls-4" d="M161.63,20.5q.1-2.68.2-5.35l8.32-1.24L164.67,22l-1.51,1.44Z" transform="translate(-9.33 -5.67)"/>
  <path class="cls-3" d="M490,282.74c-2.39-4.59-8.52-8.42-2.94-14.61Q488.5,275.43,490,282.74Z" transform="translate(-9.33 -5.67)"/>
  <path class="cls-3" d="M486.16,265.3q.3-6.06.61-12.13c3.12,3.85,4.68,7.81.83,12.13h-1.44Z" transform="translate(-9.33 -5.67)"/>
  <path class="cls-6" d="M15.4,236.34c2.62,4.27,1.86,7.7-2.53,10.23Z" transform="translate(-9.33 -5.67)"/>
  <path class="cls-3" d="M53.33,106.08l-2.76,7.2Z" transform="translate(-9.33 -5.67)"/>
  <path class="cls-7" d="M132.67,446.37l2.73,6.06-2.71-.28Q132.68,449.26,132.67,446.37Z" transform="translate(-9.33 -5.67)"/>
  <path class="cls-6" d="M18.52,224.81l-1.63,5.76Z" transform="translate(-9.33 -5.67)"/>
  <path class="cls-2" d="M183.16,474.1l4.34,2.9Z" transform="translate(-9.33 -5.67)"/>
  <path class="cls-2" d="M139.91,453.5a9,9,0,0,1,0-1.39l4.45,2.72Z" transform="translate(-9.33 -5.67)"/>
  <path class="cls-3" d="M60.28,95.85l-2.76,4.39Z" transform="translate(-9.33 -5.67)"/>
  <path class="cls-2" d="M187.56,479.65l1.41,3.12Z" transform="translate(-9.33 -5.67)"/>
  <path class="cls-3" d="M486.37,249.39l-1.59-3.08Z" transform="translate(-9.33 -5.67)"/>
  <path class="cls-5" d="M187.91,12.46l-3.27,0Z" transform="translate(-9.33 -5.67)"/>
  <path class="cls-2" d="M199.37,497l3,2.63Z" transform="translate(-9.33 -5.67)"/>
  <path class="cls-7" d="M263,200.07c-4.25.76-6-.68-6-5.31A157.69,157.69,0,0,0,256,177.65c-.73-8,3.5-13.12,12-13.6,6.69-.38,13.42-.29,20.12-.09,4,.12,5.63-1.11,5.43-5.31-.27-5.49,0-11,.08-16.52,6.81-1,2.75-7.29,5-10.55.88-1.28,1.17-3,1.72-4.48.93,1.2,1.89,2.38,2.78,3.6,3.34,4.58,6.59,7.47,11.59,1.47,2.77-3.32,5-.86,6.6,2,1.2,2.22,4.88,4.44-.18,6.61-.8.34-1.82,2.25-1.59,2.54,2,2.56,4.27,4.91,6.45,7.33.7-1.57,1.5-3.11,2.07-4.73s.86-3.24,1.27-4.87c1.81,2.23,5.61,5.52,5.09,6.51-2.3,4.33-5.78,8.05-9,11.87-1.53,1.82-3.88,3.09-4.94,5.1-.73,1.38.13,3.6.27,5.45.19,2.63.34,5.25.57,7.88a24.67,24.67,0,0,0,.52,2.67c1-.48,2.56-.73,2.82-1.46,2.86-8,6-7.82,10.17-.82,2.2,3.69,5.11,3.72,8.29.54,1.36-1.36,3.54-1.89,5.35-2.8a28.63,28.63,0,0,1,1.36,5.24c.23,3.26,3,8.11-4.08,7.67-.09,0-.67,2.58-.39,2.72a23.33,23.33,0,0,0,5.51,2c1.57.35,4.09-.42,4.71.42,2.21,3,4.55,6.27-2.54,6.27-3.7,0-7.46,1.64-3.77,6.84.84,1.19.27,3.29.66,4.9a19.52,19.52,0,0,0,1.66,3.59,13.34,13.34,0,0,1,2.66-1.79c1.51-.56,3.29-1.45,4.67-1.1,5.25,1.33,10.39,3.11,15.57,4.72l2.87,1.47a39.23,39.23,0,0,1-2,5.22c-3.48,6.37-2.43,8.44,4.87,9.27q0,.71,0,1.41c-1.09,1.88-1.81,4.7-3.4,5.34-1.29.52-3.66-1.54-5.49-2.55-.36-.2-.41-1.07-.74-1.18-8.38-2.62-12.72-6.58-5.17-14.79.24-.26-.33-1.26-.52-1.92a10.52,10.52,0,0,0-3.09,1.07c-6.42,4.91-12.85,9.84-19.08,15-1.24,1-1.49,3.17-2.44,4.64a22.16,22.16,0,0,1-3.75,4.67c-.69.61-2.17.32-3.3.44.14-1.29-.14-2.85.48-3.84,3.18-5,1-5.32-3.37-4.12-1.36.37-3-.17-4.3.26a28,28,0,0,0-4.66,2.46,38.88,38.88,0,0,0,3.06,3.51c1,1,2.7,1.42,3.44,2.53a68.12,68.12,0,0,1,3.69,7.09c-2.28-.18-5-1.25-6.74-.37-4,2-7.57,5.1-11.39,7.62a23.45,23.45,0,0,1-5.07,2.58,19.39,19.39,0,0,1-4.28.53c1.19,1.36,2.25,3.76,3.58,3.91,5,.57,5.34,4.3,5.68,7.78.11,1.16-1.61,2.49-2.49,3.75-.62-1.21-1.23-2.42-1.86-3.63-.74-1.42-1.5-2.82-2.25-4.23-.36,1.38-.77,2.74-1.08,4.13s-.49,2.54-.72,3.81c-1.48-.43-3-.78-4.43-1.31-1.21-.45-2.33-1.1-3.5-1.67a19.16,19.16,0,0,0-.36,4.11c.79,6.25,2.34,12.7-6.92,14.2-.54.09-.34,3.51-.88,5.25a50.88,50.88,0,0,1-2.55,5.78c-3-2.51-9,2.54-10.25-3.66-.81-4.18-2.9-5-6.5-4.83-2.12.1-6,.05-6.11-.4-.63-4.07-1.16-8.33-.58-12.38.61-4.25,2.5-8.31,3.67-12.51a3.08,3.08,0,0,0-2.1-1.29,53,53,0,0,0-6,1.91q0-5.07,0-10.14c4.38-1.12,8.73-2.4,13.17-3.23,1.18-.22,3.82,1.2,3.77,1.46a67.52,67.52,0,0,1-2.78,10.24c-.6,1.63-2,3-3.09,4.42,2.53,1,5.23,3,7.55,2.66,6.43-1,8.51.22,5.39,6.66-.52,1.07.55,2.91.89,4.4,1.2-.79,3.43-1.56,3.45-2.38.19-8.44.07-16.89-.09-25.33a40,40,0,0,0-.9-5.66c1.93.94,3.82,2,5.81,2.79,2.54,1,5.86,3.38,7.61,2.55,5.29-2.51,11-19.72,9.56-25.38-.45-1.74.15-3.74.26-5.62a78.89,78.89,0,0,1,9.43.94c1.18.25,2.05,1.91,3.07,2.93a21.1,21.1,0,0,0,.62-4.91,16.48,16.48,0,0,0-1.51-4.78c-9.3,2.3-16.73-8.31-26.24-3.79l.4-5.74c4.45-2,6.29-8.86,12.91-6.89.21.06.87-1,1.18-1.67,3.65-7.34,1.71-10.23-6.93-10.27-4.46,0-8.13.91-9.24-6.27-1.6-10.38-5-10.95-13.94-4.76-.39.27-1,.42-1.18.79-.87,1.63-1.64,3.32-2.44,5,1.48-.62,2.94-1.3,4.44-1.84,1.24-.45,2.55-.73,3.82-1.09-.07,1.47.41,3.36-.33,4.34a107.42,107.42,0,0,1-7.25,8.06l-4.32.06C268.82,192.89,265.93,196.49,263,200.07Z" transform="translate(-9.33 -5.67)"/>
  <path class="cls-7" d="M118.19,62.51c-.05-6,.15-11.47,9-9.64,1.48.31,4.53-2.76,5.5-4.89,3.4-7.44,4.21-7.64,9.78-1.93A24.85,24.85,0,0,0,150,51c2.23,1,7.15,4,3.83-3-.16-.34,4.17-2.79,6.41-4.26.25,2.87-3.39,8.13,4,6.61a79.19,79.19,0,0,1,.16,9c-.09,1-1.54,2-2.37,3,7.79,6.23-.39,11.25-1.16,16.85-.12.88,1.23,2,1.91,2.95,5.69-4.28,5.11,1.68,5.78,4,.81,2.79.33,6,4.69,5.5-3.62,6-5.83,13.47-14.48,14.47-1.74-.66-4.15-2.4-5.11-1.8-6.52,4.05-6.67,11.1-.7,16.27q0,2.18,0,4.36h0c-.7.15-1.7,0-2,.48-2.71,3.4-4.37,9-10.47,4.42a1.36,1.36,0,0,0-1.23.42c-1.92,4.82-5.41,3-9,2.58-1.69-.22-3.62,1.43-5.44,2.24l5,1.45,2.53,4.22,3.25-2.77h4.36c.64,9.51,6.52,15.54,13.54,21,1.93,1.5,2.9,4.24,4.3,6.41-3.82,1.74-7.62,3.53-11.52,5.08a4.54,4.54,0,0,1-1.76-2.73c.47-5.53-2-8.33-7.23-9.93-1.19-.37-1.79-4-1.9-6.12s.7-4.51,1.11-6.77l-6.68.29-5.76-4.26c-1,1.56-1.94,3.17-3,4.66-1.35,1.84-2.84,3.59-4.26,5.38l-2.9-8.68-4.36-4.36q0-2.89,0-5.78c2.56-1.1,5.29-1.94,7.62-3.41,1.1-.69,1.43-2.59,2.12-3.95a19.26,19.26,0,0,0-3.8.13c-3.84.88-7.92,1.38-11.39,3.08s-10-1.8-10.48,5.6L95,140.73l-4.33,1.45c.26-5.18.7-10.12-6.71-11.11-1.82-.24-3.92-3.61-4.63-5.92-2.93-9.45-3.63-9.86-11.86-4.7-1.08-2.94-5.8-6.28,2-7.67,3.35-.6,7.76-3.82,8.82-6.86,1.91-5.47,8.42-10.4,3.72-17.34l10.13-2.9a18.25,18.25,0,0,0,3.21-1.32c6.47-4.21,12.47-9.51,19.47-12.43C120.77,69.46,120.74,67,118.19,62.51Zm-6.45,53.06.51,4.28c1.28-.53,3.68-1.06,3.68-1.6,0-5.6,15.84-8.43,3-16.26-.27-.16.3-1.4.1-2a32.28,32.28,0,0,0-1.58-3.58c-1.52,1.33-4.08,2.48-4.36,4C112.17,105.52,112.1,110.76,111.74,115.57Zm49-25.05c-2.75-3.62-5.65-7.93-9.15-11.67-.87-.94-3.68-.07-5.6,0,.69,2.6,1.26,5.24,2.18,7.75.17.46,1.76.45,2.7.56,4.43.48,6.08,2.11,3.7,6.69-.75,1.43.5,3.9.83,5.9a55.94,55.94,0,0,0,3.77-4.6C159.77,94.16,159.92,92.88,160.7,90.52Z" transform="translate(-9.33 -5.67)"/>
  <path class="cls-1" d="M347,140.73c2.68-3.38.53-11.19-4.12-14.28-1.31-.87-3-1.12-4.58-1.65l1.43-2.89c7.17-3.51,14.3-7.12,21.56-10.41,1.15-.52,3,.63,4.44.55a3.44,3.44,0,0,0,2.59-1.54,4.8,4.8,0,0,0-.3-3.36c-.16-.36-1.63-.21-2.5-.22a65.76,65.76,0,0,1-7.66-.17c-.2,0-.68-4,.06-4.46a22.3,22.3,0,0,1,8-3.41c2.71-.5,16,9.42,16.57,12.16a4.23,4.23,0,0,1-2,3.46c-4.46,2.12-12.22,2.46-11.16,8.34.81,4.49,7.16,8,11.07,11.91,1.71,1.71,3.5,3.34,5.25,5-3.29,1.45-2.9,7.7-9,6.05-3.39-.92-7.76-.1-11.13,1.29-3.94,1.63-6.75,5.08-3.9,9.84,2.39,4,.32,6.66-2.72,8.3-.9.49-3.39-2-5.15-3.09-1.2-.76-3.13-1.34-3.39-2.35a5.82,5.82,0,0,1,1.09-4.49c1.29-1.59,3.26-2.63,4.94-3.91l-6.56-6.29Z" transform="translate(-9.33 -5.67)"/>
  <path class="cls-7" d="M286.3,121.49c-9.07.14-18.14.17-27.2.48-5.45.19-10.88.82-16.31,1.25-1-1.68-2.1-3.35-3.1-5.05-.88-1.5-2.73-3.62-2.28-4.45a7.65,7.65,0,0,1,4.69-3.25c2.52-.56,5.27,0,7.87-.3.92-.1,1.72-1.25,2.57-1.93-.79-.73-1.47-1.83-2.39-2.11a65.35,65.35,0,0,0-6.77-1.33,26.22,26.22,0,0,0,3.16-4.62c.31-.74-.94-2-1-3.07-.12-2.35.06-4.71.12-7.07,1.85.27,3.7.52,5.55.81s3.41.58,5.12.88a25,25,0,0,0-3.44,3.09c-.62.78-1.22,2.61-.87,2.94,1.51,1.41,3.34,3.36,5.13,3.44,7,.33,14.1.11,21.15,0,8.08-.18,5.37,7.33,7.64,11.13C287.33,114.6,286.27,118.37,286.3,121.49Z" transform="translate(-9.33 -5.67)"/>
  <path class="cls-7" d="M474.49,252.29c1.13,6.53-2.73,10.08-7.6,13.27-2.15,1.41-3.74,3.65-5.77,5.29-1,.78-2.94,1.8-3.51,1.39-3.36-2.43-7.5.4-9.42-.38-5.38-2.19-10.29-6.28-14.31-10.61-1.25-1.35.95-5.88,1.56-9,4.06-3.09,8.05-6.28,12.2-9.25,6-4.31,9-3.32,11,3.47C460.83,253.92,462.81,254.64,474.49,252.29Z" transform="translate(-9.33 -5.67)"/>
  <path class="cls-7" d="M339.77,121.91l-1.43,2.89c-.62,1.26-1.75,2.52-1.73,3.77s1.13,2.57,1.77,3.86l-11.74,2c.14-1.65.29-3.29.4-4.94.08-1.07.1-2.15.15-3.23a10.66,10.66,0,0,0-3.1.39,16.54,16.54,0,0,1-15.51-.77,7,7,0,0,1-3.08-5c-.06-1.4,1.82-3.34,3.31-4.12.65-.34,2.47,1.68,3.81,2.54,1.09.7,2.86,2.08,3.27,1.76,1.42-1.08,3-2.64,3.33-4.27s-.94-3.69-.89-5.54c.05-1.68,1-3.33,1.49-5,1.32,1.07,3.55,2,3.78,3.25.69,3.74,8.46,7,1.11,11.51-.13.08.35,1.69.55,1.69,2.32,0,5.88.77,6.74-.41C334.79,118.57,337.18,121.17,339.77,121.91Z" transform="translate(-9.33 -5.67)"/>
  <path class="cls-3" d="M250.57,42.52l-3.25,6.17c-1-1.19-2-2.35-2.95-3.59-.55-.75-.92-2.39-1.33-2.38-7.51.26-8.51-8.7-14.81-10.41-1.58-.43-2.39-3.71-3.55-5.69,3.22-.69,2.88-8.27,9.13-3.95,4,2.8,9.63,3.32,14.41,5.16,1,.39,2.45,2.48,2.17,3C248.3,34.88,244.66,38.67,250.57,42.52Z" transform="translate(-9.33 -5.67)"/>
  <path class="cls-7" d="M260.14,363.79q-.06-10.83-.13-21.66a40.13,40.13,0,0,1,5.73.05c1,.14,1.86,1.1,2.79,1.68-.95.59-1.91,1.15-2.84,1.77s-1.56,1.12-2.34,1.68c.87.64,1.64,1.61,2.61,1.88,9.15,2.63,10.52,5.66,5.77,13.14l1.45,7.23q0,.72,0,1.45h-4.33C268.75,365.25,263.36,365.83,260.14,363.79Zm10.39-2.85c-1.2-1.14-1.76-2.06-2.5-2.23-.49-.11-1.77.93-1.72,1.33a2.74,2.74,0,0,0,1.47,1.92C268.33,362.16,269.2,361.47,270.53,360.94Z" transform="translate(-9.33 -5.67)"/>
  <path class="cls-4" d="M267.51,16.16,265.88,19l-2.8.17-5.81,1.44-3-.07c-3.24-3.57-6.36-6.85-12.15-5.12-1.54.46-3.91-1.81-5.89-2.83,1.87-.74,4-2.48,5.58-2.06C250.32,12.81,260.16,9,267.51,16.16Z" transform="translate(-9.33 -5.67)"/>
  <path class="cls-1" d="M267.39,62.52c0-2.34-3.08-5.93,2.62-6,.7,0,1.44-2.37,2-3.71.76-1.75,1.37-3.57,2-5.36,1.15,1.53,2.4,3,3.44,4.61,1.45,2.22,2.79,4.51,4.09,6.82,1,1.73,1.78,3.55,2.67,5.33-1.86-.18-3.72-.33-5.57-.53-3.28-.36-6.57-.75-9.85-1.13Z" transform="translate(-9.33 -5.67)"/>
  <path class="cls-7" d="M348.49,258c-2.4,2-4.9,4-7.16,6.18-.71.69-.8,2-1.17,3.08-.66-1-1.33-2.07-2-3.12a1.5,1.5,0,0,1-.18-.69c-.15-3-9.62-2.49-3.17-7.86,2.78-2.32,6.25-3.82,9.46-5.58a10.93,10.93,0,0,1,2.75-.68Z" transform="translate(-9.33 -5.67)"/>
  <path class="cls-3" d="M254.3,20.53l3,.07L260.13,22l5.8,7.21q0,1.44,0,2.88c-.92,1.1-2.22,2.09-2.57,3.34-.15.54,1.69,1.63,2.62,2.47l-1.48,5.79c-4.38-1.4-9.2-1.7-5.52-9,1.6-3.17,1.3-9.36-5.62-9.93-1.06-.09-2-1.42-3-2.18Z" transform="translate(-9.33 -5.67)"/>
  <path class="cls-1" d="M328.2,329.29c.75.72,2.32,1.53,2.46,2.53a4.27,4.27,0,0,1-1.85,3.28c-3.19,2-7.17,3.29-5.53,8.56.16.5-2.12,2.59-2.79,2.38-2.17-.66-4.61-1.65-6-3.3-.9-1.09-.89-4.51,0-5.23,3.64-2.87,7.79-5.1,11.77-7.54A12.69,12.69,0,0,1,328.2,329.29Z" transform="translate(-9.33 -5.67)"/>
  <path class="cls-6" d="M163.16,23.47,164.67,22c7.41-.07,4.42,7.8,8.08,10.6L166,37.9l-2.87-1.47-3-2.87Z" transform="translate(-9.33 -5.67)"/>
  <path class="cls-1" d="M348.49,258l-1.44-8.68,1.95-5.51c1.7,1.42,4.5,2.59,4.9,4.32A73.13,73.13,0,0,1,355.49,263c0,1.49-1.75,3-2.7,4.54a30.69,30.69,0,0,1-2.77-4.25A37.55,37.55,0,0,1,348.49,258Z" transform="translate(-9.33 -5.67)"/>
  <path class="cls-3" d="M374.14,330l-5.29-6.73c1.78-.6,3.6-1.1,5.32-1.84,2.24-1,4.44-2,6.58-3.18a46.76,46.76,0,0,0,3.95-2.67c.17,1.72,1.14,4.2.36,5C382.16,323.67,378.69,326.19,374.14,330Z" transform="translate(-9.33 -5.67)"/>
  <path class="cls-1" d="M338.37,333.36l1.45,10.14c-2,1.2-4.07,3.33-6.08,3.3-1.68,0-3.31-2.6-5-4Z" transform="translate(-9.33 -5.67)"/>
  <path class="cls-1" d="M387.59,282.33a17.77,17.77,0,0,1-.59,2.86c-.79,2.29-1.73,4.52-2.6,6.78,1-4.27-8.51-4.52-3.92-10.26a7.34,7.34,0,0,0,1-3.28c.24-1.45.29-2.93.43-4.39a70.49,70.49,0,0,1,5.64,4.82C388,279.34,387.59,280.7,387.59,282.33Z" transform="translate(-9.33 -5.67)"/>
  <path class="cls-6" d="M236.71,72.87c-.56,1.54-.66,1.76-.73,2q-1.24,4.53-2.48,9.07c-.7-.54-1.75-.93-2-1.63-1.83-4.55-5.86-8.79-2.58-14.18.38-.63,2.54-1,3-.59A56.94,56.94,0,0,1,236.71,72.87Z" transform="translate(-9.33 -5.67)"/>
  <path class="cls-7" d="M306.83,110c-3.2,2.47-4.45,3.89-6,4.53a12.54,12.54,0,0,1-5,.49c-2.06-.06-4.1-.41-6.16-.63,2.3-2.69,4.14-6.46,7.05-7.71C298.78,105.77,302.29,108.34,306.83,110Z" transform="translate(-9.33 -5.67)"/>
  <path class="cls-7" d="M347,140.73l2.89,4.38c-.48,2.88-.65,5.86-1.62,8.56-.28.76-2.9.68-4.45,1,.25-1.22.84-2.49.68-3.65a47.08,47.08,0,0,0-1.51-5.67c-.38-1.42-.68-2.87-1-4.3Z" transform="translate(-9.33 -5.67)"/>
  <path class="cls-1" d="M293.46,347.86h-7.24c-.1-2.22-.94-6-.17-6.37,2.67-1.25,6.6-2.68,8.78-1.56C300.95,343.06,294.42,345.22,293.46,347.86Z" transform="translate(-9.33 -5.67)"/>
  <path class="cls-7" d="M267.39,62.52l1.45,0c.68,2.51-4.54,14.37-6.74,15-.41.11-1.72-1.16-1.62-1.4C262.36,71.37,260,64.41,267.39,62.52Z" transform="translate(-9.33 -5.67)"/>
  <path class="cls-4" d="M213.51,7.3l5.43,4.52L212,17.4c-1.15-1.57-3.46-3.41-3.18-4.66C209.24,10.89,211.51,9.47,213.51,7.3Z" transform="translate(-9.33 -5.67)"/>
  <path class="cls-7" d="M259,316q0-8.73,0-17.46C264.3,304.33,264.31,312.7,259,316Z" transform="translate(-9.33 -5.67)"/>
  <path class="cls-1" d="M393.75,267.17c-1.65-1.6-4.33-3.09-4.21-4.33.18-2,2.22-3.79,3.47-5.67l5.55,7.51Z" transform="translate(-9.33 -5.67)"/>
  <path class="cls-6" d="M222.51,45.11l4.32-2.87,2.89,2.9-4.06,7.12-3.16-4.2,2.24-1.14Z" transform="translate(-9.33 -5.67)"/>
  <path class="cls-1" d="M346.76,281.48l5.61,7.14c-1,.76-2.68,2.35-2.94,2.15a26.43,26.43,0,0,1-5.06-5.14C344.09,285.24,345.49,283.63,346.76,281.48Z" transform="translate(-9.33 -5.67)"/>
  <path class="cls-7" d="M396.3,358c.4,1,1.42,2.53,1.08,2.94a19.28,19.28,0,0,1-4.74,4.17c-.55.34-1.93-.7-2.93-1.1l3.71-4.58Z" transform="translate(-9.33 -5.67)"/>
  <path class="cls-7" d="M351.69,163.58c-3.35,1.79-4.63,3-5.94,3s-2.73-1.06-4.1-1.66c.91-.82,1.74-2.19,2.74-2.32C346,162.41,347.77,163,351.69,163.58Z" transform="translate(-9.33 -5.67)"/>
  <path class="cls-1" d="M377.48,182.72l1.45,1.46c0,.71,0,1.42,0,2.13,0,2.41.09,4.81.13,7.22-.49-.39-1.39-.77-1.4-1.17C377.6,189.14,371.73,186,377.48,182.72Z" transform="translate(-9.33 -5.67)"/>
  <path class="cls-1" d="M393.71,252.14c-.69-.91-1.69-1.8-1.53-2.1a20.6,20.6,0,0,1,3.21-4.75c.31-.32,1.91.61,2.92,1Z" transform="translate(-9.33 -5.67)"/>
  <path class="cls-1" d="M373.34,300.14c-1.48.45-2.91,1.39-3.63,1a9.51,9.51,0,0,1-3.47-3.54c-.19-.32,1.59-1.79,2.46-2.73Z" transform="translate(-9.33 -5.67)"/>
  <path class="cls-1" d="M377.45,219l-2.87-1.47,3.08-3.86c.8.73,2.41,1.8,2.27,2.14A14.22,14.22,0,0,1,377.45,219Z" transform="translate(-9.33 -5.67)"/>
  <path class="cls-7" d="M328.67,261c-2.25,1.17-3.53,2.11-5,2.46-.52.13-1.38-1.14-2.09-1.78a26,26,0,0,1,4-2C326.21,259.49,327.06,260.26,328.67,261Z" transform="translate(-9.33 -5.67)"/>
  <path class="cls-1" d="M376,178.4q0,.72,0,1.44l-3.88-3.24,2.56-1.92Z" transform="translate(-9.33 -5.67)"/>
  <path class="cls-7" d="M283.35,356.54,277.52,358l1.6-4Z" transform="translate(-9.33 -5.67)"/>
  <path class="cls-1" d="M430.06,243c-1.16.79-2.18,1.81-2.5,1.63a8.46,8.46,0,0,1-1.93-2.27c.7-.46,1.43-1.32,2.1-1.28S429,242.09,430.06,243Z" transform="translate(-9.33 -5.67)"/>
  <path class="cls-7" d="M259.08,334.89q.35-2.16.71-4.33l3,2.11Z" transform="translate(-9.33 -5.67)"/>
  <path class="cls-1" d="M401.84,302.41c.69,1.34,1.43,2.13,1.34,2.8s-1.38,1.52-1.72,1.37a3.07,3.07,0,0,1-1.61-2C399.78,304.14,400.83,303.48,401.84,302.41Z" transform="translate(-9.33 -5.67)"/>
  <path class="cls-1" d="M379.88,292c-1.81,1.12-2.5,1.79-2.77,1.66a10.21,10.21,0,0,1-2-1.69c.56-.48,1.13-1.38,1.67-1.36C377.63,290.64,378.44,291.3,379.88,292Z" transform="translate(-9.33 -5.67)"/>
  <path class="cls-1" d="M403.93,265.53l-2.24-1c.62-.63,1.17-1.61,1.89-1.78s1.43.68,2.16,1.08Z" transform="translate(-9.33 -5.67)"/>
  <path class="cls-7" d="M399.2,352.19l-2.9,4.36C394.3,353.12,395.7,352,399.2,352.19Z" transform="translate(-9.33 -5.67)"/>
  <path class="cls-1" d="M383.24,269.42c-.53-.8-1.24-1.46-1.11-1.77a6.49,6.49,0,0,1,1.51-1.67c.28.57.78,1.14.76,1.7S383.79,268.65,383.24,269.42Z" transform="translate(-9.33 -5.67)"/>
  <path class="cls-7" d="M286.22,350.75l3.64,1.78-3.63,1.11Q286.23,352.2,286.22,350.75Z" transform="translate(-9.33 -5.67)"/>
  <path class="cls-3" d="M229.73,45.14l-2.89-2.9Z" transform="translate(-9.33 -5.67)"/>
  <path class="cls-1" d="M406.6,256.34c-.58-.68-1.22-1.1-1.27-1.58s.39-1.18.62-1.77c.58.48,1.34.87,1.66,1.49C407.76,254.77,407.08,255.49,406.6,256.34Z" transform="translate(-9.33 -5.67)"/>
  <path class="cls-1" d="M388.54,296.79c-.18.4-.26,1-.55,1.15s-.78-.28-1.19-.45c.17-.4.26-1,.55-1.15S388.13,296.62,388.54,296.79Z" transform="translate(-9.33 -5.67)"/>
  <path class="cls-1" d="M282.24,347.34c-.4-.18-1-.26-1.15-.55s.28-.78.46-1.19c.4.17,1,.26,1.15.55S282.41,346.93,282.24,347.34Z" transform="translate(-9.33 -5.67)"/>
  <path class="cls-1" d="M306.1,345.56l1.21.52c-.17.4-.26,1-.55,1.15s-.79-.28-1.19-.46Z" transform="translate(-9.33 -5.67)"/>
  <path class="cls-3" d="M222.51,45.11l2.24,1.81-2.24,1.14Q222.51,46.59,222.51,45.11Z" transform="translate(-9.33 -5.67)"/>
  <path class="cls-1" d="M371.14,281.63c-.41.16-.92.54-1.21.41s-.35-.76-.51-1.17c.41-.16.92-.54,1.21-.41S371,281.22,371.14,281.63Z" transform="translate(-9.33 -5.67)"/>
  <path class="cls-1" d="M399.74,254.1c.18-.41.27-1,.56-1.15s.78.29,1.19.47c-.18.4-.27,1-.56,1.15S400.15,254.28,399.74,254.1Z" transform="translate(-9.33 -5.67)"/>
  <path class="cls-1" d="M281,45.53c.18-.41.27-1,.56-1.15s.78.29,1.19.47c-.18.41-.27,1-.56,1.15S281.37,45.71,281,45.53Z" transform="translate(-9.33 -5.67)"/>
  <path class="cls-2" d="M179,107.42c7.06-3.08,13-11.33,12.11-18.77-.61-5.17,2.21-4.37,5-4.34,4.65,0,9.32,0,13.93.53,1.73.18,4.53,1.5,4.72,2.64.38,2.35-.67,4.93-1.13,7.42A36.76,36.76,0,0,0,208.48,93c-3.31-.7-6.69-1.11-10-1.64.22,3.74.2,7.51.73,11.2.45,3.11,1.64,6.11,2.25,9.2.16.8-.5,2.51-1,2.58-11.75,1.71-6.61,13.08-10.77,19.19-2.22,3.26-2.89,5.91-7.68,4.59-1.66-.46-4,2-6.17,2.87s-5,2.83-6.77,2.17c-3.15-1.2-6.17-5.81-6.35,1.92-.89-.49-2.41-.83-2.56-1.49-.66-2.93-.54-6.09-1.5-8.88-.42-1.23-2.76-1.8-4.23-2.67L153,124.8h0c4.37-1.33,8.42-2.83,9,4.49.16,2,3.56,4.44,5.94,5.21,1.69.54,4.17-1.4,6.3-2.23-1-1.64-1.75-4.36-3.13-4.75-11.27-3.18-6.89-8.85-2.86-14.89,2.1-3.15,1.65-3,4.7-1.67,1,.46,3.07-1.32,4.65-2.08Z" transform="translate(-9.33 -5.67)"/>
  <path class="cls-3" d="M109.5,137.82l4.36,4.36c-5.44,1.12-10.89,2.15-16.31,3.37-8,1.81-11.38,7.78-9.62,16.1.24,1.13-1,3.64-1.92,3.79-8.92,1.57-9.85,9.33-12.69,15.68-1.58,3.54-3.43,6.95-5.2,10.4s-3.3,6.73-5.24,9.92c-.92,1.5-2.54,2.57-3.85,3.83-.36-1.62-1.24-3.34-1-4.84.64-3.49,2.06-6.84,2.7-10.33.21-1.15-.74-2.8-1.64-3.78A28.71,28.71,0,0,0,54.75,183c1.14-1.54,1.95-3.75,3.48-4.5,5.31-2.59,6.84-6.54,3.22-10.89-3.3-4-3.06-7.79.49-9.74,3.75-2.06,9.9-4,12.87-2.27,4.5,2.59,5.26,3.28,6-2.22.22-1.71,2.58-3.1,3.82-4.73,1.93-2.52,3.46-5.08-1.16-6.47q0-1.44,0-2.88l7.25,2.89L95,140.73Z" transform="translate(-9.33 -5.67)"/>
  <path class="cls-5" d="M87.76,234.89l1.47-7.27a9.19,9.19,0,0,1,1.83-2.12c9.41-5.72,6.88-14.92,6.83-23.37a7.32,7.32,0,0,0-.53-2.66c-8.3.38-2.73-6.79-5.22-9.5q0-2.9,0-5.79h0c5.85-.71,4-5.25,4.32-8.7,1,.74,2.43,1.28,2.91,2.27a82.69,82.69,0,0,1,2.92,7.88l7.26,5.77c3,1.43,5.85,3.43,9,4.1,2.6.55,5.55-.81,8.32-.68,1.85.09,3.64,1.31,5.45,2-1.12,1.09-2.06,2.75-3.39,3.16-4.35,1.34-8.61,2.28-3.76,7.93.62.72.55,2,.79,3.06a16,16,0,0,1-2.7.27c-9-.6-23.1,7.65-26.13,15.68-.59,1.56.13,3.65.37,5.47.21,1.55.61,3.08.92,4.62a34.66,34.66,0,0,1-5.41-.28A37.22,37.22,0,0,1,87.76,234.89Z" transform="translate(-9.33 -5.67)"/>
  <path class="cls-2" d="M115.34,256.61c5.23-9.69,6-10,17.11-7.6,1.63.35,3.38.09,5,.39,2.66.48,7.41.91,7.53,1.87.51,3.84.61,8.37-1,11.72-2.36,4.81-5.67,8.53,2.8,10,.67.12,1.61,4.21,1.12,4.55a35.62,35.62,0,0,1-9.55,5c-3.62,1.08-4.21-2.12-6.18-4.59-4.9-6.17-6.93-15.71-16.81-17Q115.35,258.76,115.34,256.61Z" transform="translate(-9.33 -5.67)"/>
  <path class="cls-7" d="M83.45,139.29q0,1.44,0,2.88c-5.06,1-10.12,2-15.2,2.82-.84.14-2.48-.24-2.61-.7-1.92-7-7.23-3.07-11.14-3.54l-2.92-5.81h0c1.42.07,3.21-.4,4.21.28,7.14,4.88,9-1,11.19-5.54.84-1.79.39-4.2.53-6.32,3.1,1.26,9.57.17,4.77,7-.49.69.32,2.24.39,3.4C73.18,141.6,79.94,137.28,83.45,139.29Z" transform="translate(-9.33 -5.67)"/>
  <path class="cls-3" d="M31.33,195.79c-.49-4-1.38-7.92-1.37-11.88,0-4.35.68-8.7,6.86-4.45,1.66,1.14,4,1.24,6.06,1.82-.08,6,2.53,12.52-2.94,17.66-.61.57-1.17,1.19-1.76,1.79-.28-.61-.89-1.28-.79-1.82C38.77,191.21,34.34,194.89,31.33,195.79Z" transform="translate(-9.33 -5.67)"/>
  <path class="cls-3" d="M153,124.8l1.46,7.23c1.67,4.32,3.64,8.53-4.46,6.15-3.11-.91-6.67-.27-10-.34h-4.36l-5.79-1.45-5-1.45c1.82-.8,3.75-2.46,5.44-2.24,3.55.46,7,2.24,9-2.58a1.36,1.36,0,0,1,1.23-.42c6.1,4.6,7.77-1,10.47-4.42C151.26,124.85,152.26,124.94,153,124.8Z" transform="translate(-9.33 -5.67)"/>
  <path class="cls-2" d="M210.91,129.21c-5.86-3.5-7.34-.33-7.13,4.86.24,6-2.11,8.14-7.57,6.55-.82-.24-2.17-1.08-2.11-1.44a4.07,4.07,0,0,1,1.56-2.65c4.54-2.58,8.26-5.06,1.74-9.69-.55-.39-.4-3.09.29-3.65,2-1.61,4.78-4.13,6.57-3.65,3.65,1,6.94,3.52,10.13,5.76.49.34-.35,2.56-.58,3.91Z" transform="translate(-9.33 -5.67)"/>
  <path class="cls-7" d="M35.7,220.42c-3.08-1.92-7.47-7.4-6.19,2.39.11.82-1.65,1.89-2.53,2.84-.92-.94-2.55-1.82-2.64-2.84-.54-6,.17-11.56,6.94-14,1.66.53,3.78,2,4.89,1.41,3-1.51,3.62-1.29,5.58,2C47.07,221,40.19,219.54,35.7,220.42Z" transform="translate(-9.33 -5.67)"/>
  <path class="cls-5" d="M136.65,212c1.19,3.21,3.38,6.45,3.25,9.61-.1,2.64-2.69,5.37-4.69,7.59-.45.5-3.33-.61-4.64-1.58-3.74-2.76-5.87-5.27.66-7.83,1.39-.55.88-5.61,1.51-8.53a27.89,27.89,0,0,1,1.87-4.64l4.33,4.09Z" transform="translate(-9.33 -5.67)"/>
  <path class="cls-3" d="M42.87,165.37c-1.44,1.66-2.84,3.36-4.34,5-1,1.08-2.16,2-3.25,3-.7-1.87-2.56-4.56-1.91-5.48a150,150,0,0,1,12.49-15.45c1.86-2,4.78-3,7.22-4.5,4.67,2.54,1.08,3.78-.68,5.74C49,157.41,46,161.45,42.87,165.37Z" transform="translate(-9.33 -5.67)"/>
  <path class="cls-5" d="M153,120.45c-6-5.18-5.82-12.22.7-16.27,1-.6,3.37,1.14,5.11,1.8-.16,3.72.15,7.56-.73,11.1C157.68,118.54,154.74,119.35,153,120.45Z" transform="translate(-9.33 -5.67)"/>
  <path class="cls-2" d="M222.44,94.56c.84,1.7,2.23,3.36,2.37,5.12s-.38,5-1.55,5.52a50.62,50.62,0,0,1-11.56,3.25c-.41.08-2.11-3.27-1.87-3.49,3.49-3,7.21-5.8,10.87-8.62Z" transform="translate(-9.33 -5.67)"/>
  <path class="cls-5" d="M116.76,150.87c1.43-1.79,2.91-3.53,4.26-5.38,1.1-1.49,2-3.1,3-4.66l5.76,4.26a119.16,119.16,0,0,1-8,9.89c-.94,1-3.3.53-5,.73Q116.76,153.29,116.76,150.87Z" transform="translate(-9.33 -5.67)"/>
  <path class="cls-3" d="M182,162.42c2.51-.74,5.21-1.12,7.48-2.31,3.66-1.92,6.15-2.23,5.43,2.95-.4,2.91-1.08,6.11-2.7,8.45-2.19,3.18-4.48,3-6-1.28-.67-1.89-2.81-3.27-4.28-4.88Z" transform="translate(-9.33 -5.67)"/>
  <path class="cls-7" d="M92.13,184.18q0,2.9,0,5.79c-4.44-.66-8.92-1.19-13.27-2.23-.34-.08.16-3.71.27-5.7a33.53,33.53,0,0,1,3.48.27C85.8,182.89,89,183.55,92.13,184.18Z" transform="translate(-9.33 -5.67)"/>
  <path class="cls-5" d="M182,162.42l0,2.93c-4.49.41-9,.91-13.46,1.14a4.42,4.42,0,0,1-3-1.45c-.43-.46-.34-2.28.06-2.5,2.77-1.53,3.64-8.89,9.12-2.84C176.21,161.41,179.48,161.56,182,162.42Z" transform="translate(-9.33 -5.67)"/>
  <path class="cls-5" d="M210.91,129.21h2.89l4.58,6L211,144.07C207.34,139.15,207.71,134.19,210.91,129.21Z" transform="translate(-9.33 -5.67)"/>
  <path class="cls-7" d="M109.53,191.4l-7.26-5.77c3.85-1.32,8.82-.19,10.92-5.49.29-.73,3.51-.29,5.37-.39-.7,1.72-1,3.75-2.17,5.09A81.54,81.54,0,0,1,109.53,191.4Z" transform="translate(-9.33 -5.67)"/>
  <path class="cls-2" d="M142.52,227.48c2.82-1.65,4.75-3.7,6.52-3.57s3.49,2.4,5.22,3.73l-7.33,5.66Z" transform="translate(-9.33 -5.67)"/>
  <path class="cls-7" d="M96.45,175.48c-.33,3.45,1.52,8-4.32,8.7a4.87,4.87,0,0,0-.23-1.37C88.45,175.7,88.44,175.71,96.45,175.48Z" transform="translate(-9.33 -5.67)"/>
  <path class="cls-2" d="M135.43,236.92l3.93,5c-1.69,1-3.28,2.32-5.11,2.9-.63.2-2.76-1.85-2.63-2.12A44.93,44.93,0,0,1,135.43,236.92Z" transform="translate(-9.33 -5.67)"/>
  <path class="cls-3" d="M179,107.42l-1.43,1.47c-4.15.35-4.79-2.25-4.23-5.4.19-1.09,1.4-2,2.14-3Z" transform="translate(-9.33 -5.67)"/>
  <path class="cls-3" d="M24.08,204.47l0-4.35,5.83-1.4,1.4,5.76Z" transform="translate(-9.33 -5.67)"/>
  <path class="cls-3" d="M102.21,148.9c.69,1.85,1.33,2.81,1.3,3.75,0,.68-.95,1.32-1.47,2-.74-.76-2-1.47-2.07-2.29S101,150.62,102.21,148.9Z" transform="translate(-9.33 -5.67)"/>
  <path class="cls-7" d="M438.3,340.61c5.7-3.59,3.5-9.5,2.18-13.38-2.82-8.31,5.76-7.45,8.06-11.42.24-.41,6,1,7.25,2.82,3.26,4.78,6.74,10.1,7.56,15.59.51,3.36-4.57,7.24-2.26,12-1,.23-2.1.85-3,.64-5.13-1.21-9.43-.94-12,4.71-.57,1.27-2.55,1.92-3.88,2.85a30,30,0,0,1-2.55-4.64,51.42,51.42,0,0,1-1.39-6.28Q438.3,342.06,438.3,340.61Z" transform="translate(-9.33 -5.67)"/>
  <path class="cls-1" d="M484.26,308.71l-3,6.6a40.54,40.54,0,0,1-5.07-2.55c-3.66-2.51-9.57-4.34-3.89-10.44,0-.05-1.38-2-1.82-1.9-1.34.34-2.46,1.46-3.79,1.92-2.51.85-5.1,1.45-7.66,2.15,1.12-2.54,1.57-6.05,3.51-7.41,3.07-2.14,7.1-3.09,10.86-3.85.46-.09,1.61,4.14,2.76,6.19a29.14,29.14,0,0,0,3.67,4.87C481.16,305.8,482.69,307.15,484.26,308.71Z" transform="translate(-9.33 -5.67)"/>
  <path class="cls-5" d="M423.26,367.34c-.46-9,6.75-6.92,10.38-9.1.51-.31,2.7,2.19,4.12,3.39l-13.09,8.85Z" transform="translate(-9.33 -5.67)"/>
  <path class="cls-7" d="M327.47,389.65c-3.71,2.84-6.15,5.87-7.43,5.44-2.81-.94-5-3.63-7.51-5.61,1.58-1.32,3.28-3.83,4.72-3.7C320.14,386.07,322.89,387.8,327.47,389.65Z" transform="translate(-9.33 -5.67)"/>
  <path class="cls-7" d="M339.08,386.95a80.61,80.61,0,0,1-6.28,5.42,16.42,16.42,0,0,1-2.8-3.08c1.86-2.19,4-4.13,6.09-6.13Z" transform="translate(-9.33 -5.67)"/>
  <path class="cls-7" d="M388.8,371.26c.54,1.59,1.95,3.58,1.43,4.68-.93,2-3,3.43-4.6,5.11-.61-1.23-1.95-2.66-1.68-3.66.57-2.22,2-4.22,3-6.32Z" transform="translate(-9.33 -5.67)"/>
  <path class="cls-7" d="M367.07,372.71a79.43,79.43,0,0,1,5.74,7.65c.28.48-1.34,2.08-2.08,3.16-2-2.37-4.12-4.68-6-7.18C364.55,376,365.77,374.71,367.07,372.71Z" transform="translate(-9.33 -5.67)"/>
  <path class="cls-7" d="M306.5,365.22c.25,5.47-4.16,4.94-7.47,5.63-.63.13-1.5-.85-2.26-1.33l4-4.3Z" transform="translate(-9.33 -5.67)"/>
  <path class="cls-5" d="M290.57,375.37c-3.7-.24-3-8.34-8.72-4.92-.2-.37-.6-1-.57-1.07a8.6,8.6,0,0,1,2.88-1.62c1.46-.24,3.83-.56,4.36.19,1.17,1.65,1.44,3.95,2.07,6Q290.57,374.66,290.57,375.37Z" transform="translate(-9.33 -5.67)"/>
  <path class="cls-5" d="M306.5,365.22h-5.79L304,361Z" transform="translate(-9.33 -5.67)"/>
  <path class="cls-7" d="M290.57,375.37q0-.72,0-1.44l3.57,4.9-3.27.66Z" transform="translate(-9.33 -5.67)"/>
  <path class="cls-5" d="M428.17,285.58l2.91-5.8,2.37,3.61Z" transform="translate(-9.33 -5.67)"/>
  <path class="cls-5" d="M273.18,371q0-.72,0-1.45l3.82,4.2-2,1.31Z" transform="translate(-9.33 -5.67)"/>
  <path class="cls-1" d="M417,393.2l-2.19,1.72c-.68-1.43-1.44-2.83-2-4.31-.11-.31.62-.92,1-1.4Z" transform="translate(-9.33 -5.67)"/>
  <path class="cls-7" d="M273.18,392.75l-2,2.1.57-5Z" transform="translate(-9.33 -5.67)"/>
  <path class="cls-7" d="M280.42,395.65,279,400h-2.87l1.47-4.38Z" transform="translate(-9.33 -5.67)"/>
  <path class="cls-7" d="M404,366.25l-1.63,2.49c-.53-.61-1.42-1.2-1.48-1.85s.62-1.55,1-2.33Z" transform="translate(-9.33 -5.67)"/>
  <path class="cls-5" d="M438.3,340.61q0,1.44,0,2.89l-4.07-2.56Z" transform="translate(-9.33 -5.67)"/>
  <path class="cls-7" d="M452.77,368.1l-2.89-1.39,1.81-2.2Z" transform="translate(-9.33 -5.67)"/>
  <path class="cls-7" d="M381.82,357l-1.11,1.77a7.42,7.42,0,0,1-1.48-1.69c-.1-.21.68-1.15,1.14-1.21S381.26,356.52,381.82,357Z" transform="translate(-9.33 -5.67)"/>
  <path class="cls-7" d="M445.88,359.43c-.41-.59-1.09-1.15-1-1.53s1.1-1.18,1.31-1.06a7.36,7.36,0,0,1,1.59,1.61Z" transform="translate(-9.33 -5.67)"/>
  <path class="cls-5" d="M399.74,345.36c.18-.4.27-1,.56-1.15s.78.29,1.18.46c-.18.4-.26,1-.56,1.15S400.15,345.53,399.74,345.36Z" transform="translate(-9.33 -5.67)"/>
  <path class="cls-7" d="M282.42,362.73c.18-.4.27-1,.56-1.15s.78.29,1.18.47c-.18.4-.26,1-.56,1.15S282.83,362.91,282.42,362.73Z" transform="translate(-9.33 -5.67)"/>
  <path class="cls-7" d="M283.32,394.2l-2.9,1.44Z" transform="translate(-9.33 -5.67)"/>
  <path class="cls-2" d="M189.24,413.07c3.44-3,6.85-6,10.34-8.85a35.53,35.53,0,0,1,3.86-2.46c-.3,1.49-.52,3-.92,4.47-1.85,6.66-9.3,11.6-6.12,19.83-6.65-2.62-9.38,4.52-14.47,5.8l-8.68-4.34-1.46-1.44,5.83-7.16Z" transform="translate(-9.33 -5.67)"/>
  <path class="cls-6" d="M177.62,418.91l-5.83,7.16c-5-3.16-9.83-4.81-14.08,1.35-.58.84-3,1.46-3.65,1a4.91,4.91,0,0,1-1.63-3.9c.58-4.28-.3-7.09-5.25-7.11.4-2,.31-4.42,1.36-6a5.56,5.56,0,0,1,4.66-2.08c1,.2,2.11,2.8,2.17,4.36.2,6.08,1.87,7.18,7.66,5.31,4.24-1.37,8.69-2.05,13.05-3Z" transform="translate(-9.33 -5.67)"/>
  <path class="cls-6" d="M195,466.63c-.92-3.79-2.36-7.54-2.6-11.37s.72-7.87,1.16-11.81h4.35l2.49,5.31c1.67-1.18,4-2,4.84-3.64,1.08-2.17,1-4.95,1.35-7.47l13.05-5.8,2.88,2.9c-.85,1-1.68,2-2.55,3s-1.75,1.94-2.63,2.91c1.1.83,2.44,2.55,3.27,2.33,4.86-1.29,8,1.2,11.22,4.11.64.57,2.61-.08,3.82-.56a2.57,2.57,0,0,0,.3-2.33c-2.45-2.29-5.07-4.39-7.64-6.55,2.77-8.2,8.79-1.56,13.07-2.87l1.41,4.34c.41,4.08,2,8.54.91,12.13-1.23,3.92-5,7-7.67,10.5-1.14,1.49-2.21,3-3.31,4.55-1-1.94-1.9-4-3.05-5.81a29.58,29.58,0,0,0-2.94-3.46,19.49,19.49,0,0,0-2.67,3.72c-1.17,2.84-2,5.82-3,8.75h-2.9l-.36-9.38c-3.4.64-6.88,1-10.19,2C203.31,463.38,199.17,465.11,195,466.63Z" transform="translate(-9.33 -5.67)"/>
  <path class="cls-6" d="M239.91,482.54c-3.14-3.27-9.67-3.16-11.29.83-1.95,4.82-4.28,4.23-7.59,2.09a13.5,13.5,0,0,1,0-1.44c1.1-9.8,5.26-13.92,14.64-14.11,1.06,0,2.21,1.35,3.22,2.2,1.34,1.13,2.58,2.39,3.86,3.59.33-2.25,1.72-5.15.81-6.62-3.8-6.09.54-8.58,4.3-11.47,3.08-2.37,6.25-4.62,9.38-6.93l4.33,0c4.33.88,8.64,1.92,13,2.57,2.17.32,4.44-.07,6.66-.13L279,459.37c-5.52,2.09-3.15,6.42-2.88,10.16-3.4,5.08-6.13,2.24-9.07-.63a34.61,34.61,0,0,0-5-3.45c-.7,1.86-1.47,3.7-2.07,5.59-.5,1.57-.4,3.52-1.32,4.73s-3.71,3.25-4.3,2.85c-5.28-3.52-5.77.91-7.18,3.94Z" transform="translate(-9.33 -5.67)"/>
  <path class="cls-7" d="M485,315.09c1.73-7.44,3.35-14.9,5-22.35-1.21.58-2.71.9-3.57,1.82a23.43,23.43,0,0,0-2.67,4.4c-1.42-2.48-3.84-4.88-4.05-7.46-.44-5.21.41-10.52.52-15.8,0-1.25-.79-2.52-1.22-3.79a30.41,30.41,0,0,0-3,2.8c-1.22,1.48-2,3.34-3.44,4.59-.72.65-3.32.57-3.35.43-1.76-7.71-4.07-3-6.65-.49-3.3,3.15-14.81,1.24-20.81-3.19-7.45-5.5-8.06-5.29-10.69,3.72l2.37,3.61-5.27,2.19-1.45,2.9c5.63,4.4,3,9.92,1.16,14.55-3.18,8-3.17,8.59,5.06,8.9a12.62,12.62,0,0,1,5.43,1.7,3.42,3.42,0,0,1,1.06,3,3.2,3.2,0,0,1-2.42,1.86c-3.48.06-7.08.27-10.41-.53-4.65-1.12-6.16.17-4.24,4.44,1.24,2.75,2.83,6.06,5.22,7.39,3.09,1.71,3.9,2.91,2.28,6s-3.35,4-6,1.23c-2.44-2.55-4.29-2.2-4.68,1.38s-.25,7-.29,10.48c0,2.1,0,4.21.08,6.32-1.4-.86-2.72-2.21-4.22-2.43s-3.32.54-4.94,1c-1.39.43-2.7,1.09-4,1.64-.22-4.25-2.26-9.89-.29-12.48,4.09-5.38,2.54-9.79,1.42-15.19-1.26-6.08-5-5.09-8.59-3.84a131.48,131.48,0,0,0-17,7.1c-2.15,1.1-5.13,5.4-4.88,5.68,4.24,4.73,8.92,9.06,13.56,13.43.18.17.89-.1,1.28-.32,5.05-2.83,5.05-2.83,8,2.34l-2.9,4.36q0,.72,0,1.44c.4,1,1.42,2.53,1.08,2.94a19.28,19.28,0,0,1-4.74,4.17c-.55.34-1.93-.7-2.93-1.1l3.71-4.58c-2.6-2.29-5.5-6.72-7.73-6.41-4,.56-4.28-1.48-6.33-3.46-2.52-2.42-6.75-3.22-10.38-4.2-.63-.17-2,2.18-3,3.37a28.68,28.68,0,0,0-.65-4.3,5.62,5.62,0,0,0-1.75-3.06c-4.55-2.88-9.24-5.52-13.88-8.26-1.23-.72-2.47-1.43-3.65-2.22-1.95-1.31-3.85-2.68-5.77-4l-2,6.51,1.45,10.14c1.84,1.84,7.84,1.81,4.3,6.11-4,4.82-4.7,8.85-1.89,14.35.59,1.15-2.15,4-3.35,6-1.66-1-4.17-1.69-4.81-3.16-1.12-2.59-.76-5.78-1.65-8.51-.71-2.17-2.14-5.58-3.61-5.77A208.3,208.3,0,0,0,306,351.09a4.73,4.73,0,0,0-3.5,2.82c-1.82,7.21-3.69,3.53-5.63.17-1.18-2-2.27-4.15-3.4-6.22h-7.24q0,1.45,0,2.89l3.64,1.78-3.63,1.11-2.88,2.9L277.52,358l-5.79,4.33,1.45,7.23,3.82,4.2-2,1.31L273.18,371h-4.33c-.08,1.11-.39,2.66-.52,3.88.13-1.21.44-2.76.52-3.88-.1-5.78-5.49-5.21-8.71-7.25-2.11,1-4.17,2.68-6.33,2.81-12.23.72-24.49,1-36.73,1.56-8.29.39-9-.3-9.16-10.18a31,31,0,0,0-5.67.78c-4.45,1.45-7.75.81-8.6-4.35-.66-4-2.27-4.19-5.32-2.11-5.31,3.63-10.84,6.95-16.12,10.63-1.32.92-2.76,2.78-2.72,4.16,0,1.18,2,2.92,3.35,3.22.84.19,2.16-1.88,3.29-2.9a20.77,20.77,0,0,1,4-3.29c.44-.23,2.62,1.63,2.52,1.86a41.55,41.55,0,0,1-2.57,3.84c-.93,1.56-2.13,3.14-2.43,4.86C176.21,383,166,391.08,157.46,392c-2.23.23-4,5.23-5.93,8,6.75-.2,6.64,5.66,8.71,9.69.64,1.24,2,2.12,3,3.17.91-1.15,2.12-2.18,2.68-3.48,1.66-3.88,3-7.92,4.66-11.79.35-.79,2.16-1.78,2.62-1.51a6.29,6.29,0,0,1,2.42,3,24.08,24.08,0,0,1,.9,4.61,20.3,20.3,0,0,1,2.63-3.79c1.18-1.09,3.25-2.77,4.09-2.38,2.16,1,3.86,3,5.75,4.6-1.26,1.21-2.5,2.42-3.77,3.62q-3.09,2.92-6.19,5.83c3.23,1.69,7.72-5.24,10.21,1.49,3.44-3,6.85-6,10.34-8.85a35.54,35.54,0,0,1,3.86-2.46c-.3,1.49-.52,3-.92,4.47-1.85,6.66-9.3,11.6-6.12,19.83,3.27,3.07,2.7,5.42-1.57,7.1-2,.79-3.85,1.94-5.79,2.88s-3.85,1.79-5.78,2.68l-1.34-6.86-8.68-4.34c-.81,2.89-1.48,5.84-2.5,8.66-.43,1.19-1.57,2.12-2.39,3.16,1.48.41,3,1.17,4.45,1.16,6.36-.06,8.79,2.49,6.25,8.72-3.6,4.35-2,8.74-.07,13.12q-.08,3.7-.16,7.4l4.33,4.37,4.34,2.9q0,1.32.06,2.64l1.41,3.12c1.15,2.29,2,4.81,3.53,6.82a92.57,92.57,0,0,0,6.87,7.41l3,2.63c11.11-1.19,22.6-1,33.23-3.93a80.39,80.39,0,0,1,36.14-2c12.36,2.15,24.51-1,36.12-5.63h0l4.28-1.46,3-1.3h0c6.38-2,13-3.38,19.09-6,20.6-8.82,41-18.16,61.51-27.12,16-7,28.59-17.69,37-33.14l-.41-.42h0l.41.42c1.64-.33,3.61-.18,4.87-1.05,10-6.88,18-15.73,24.94-25.57,2.84-4,5.05-8.49,7.55-12.75l-5.52-3.15,5.94-9.07,4.17,3.63,5.62-18.9L475,348.91l5.24-6.57,4.16,3.94c6.33-8.53.23-16.35-1.39-24.42C483.65,319.6,484.45,317.38,485,315.09ZM197.24,377.44c-.59,1-2.24,1.3-3.4,1.92-.58-1.17-1.52-2.3-1.68-3.53-.43-3.31,1.21-7.56-4.4-8.13-.43,0-1.21-1.83-1-2.23a6.61,6.61,0,0,1,2.17-1.61C193.84,364.06,199.45,373.79,197.24,377.44Zm265.3-80.36c3.07-2.14,7.1-3.09,10.86-3.85.46-.09,1.61,4.14,2.76,6.19a29.14,29.14,0,0,0,3.67,4.87c1.34,1.52,2.86,2.87,4.44,4.43l-3,6.6a40.54,40.54,0,0,1-5.07-2.55c-3.66-2.51-9.57-4.34-3.89-10.44,0-.05-1.38-2-1.82-1.9-1.34.34-2.46,1.46-3.79,1.92-2.51.85-5.1,1.45-7.66,2.15C460.15,301.94,460.59,298.43,462.54,297.07ZM438.3,340.61c5.7-3.59,3.5-9.5,2.18-13.38-2.82-8.31,5.76-7.45,8.06-11.42.24-.41,6,1,7.25,2.82,3.26,4.78,6.74,10.1,7.56,15.59.51,3.36-4.57,7.24-2.26,12-1,.23-2.1.85-3,.64-5.13-1.21-9.43-.94-12,4.71-.57,1.27-2.55,1.92-3.88,2.85a30,30,0,0,1-2.55-4.64,51.44,51.44,0,0,1-1.39-6.28l-4.07-2.56Zm9.48,17.84-1.89,1c-.41-.59-1.09-1.15-1-1.53s1.1-1.18,1.31-1.06A7.36,7.36,0,0,1,447.78,358.45Zm-14.13-.21c.51-.31,2.7,2.19,4.12,3.39l-13.09,8.85-1.41-3.14C422.81,358.38,430,360.42,433.64,358.24Zm-19.8,31,3.2,4-2.19,1.72c-.68-1.43-1.44-2.83-2-4.32C412.76,390.29,413.5,389.68,413.84,389.21Zm-9.88-23-1.63,2.49c-.53-.61-1.42-1.2-1.48-1.85s.62-1.55,1-2.33Zm-3.65-22c.29-.11.78.29,1.18.46-.18.4-.26,1-.56,1.15s-.78-.29-1.19-.46C399.92,345,400,344.33,400.3,344.21Zm-16.36,33.18c.57-2.22,2-4.22,3-6.32l1.85.19c.54,1.59,1.95,3.58,1.43,4.68-.93,2-3,3.43-4.6,5.11C385,379.82,383.68,378.39,383.94,377.39Zm-68,88.79a5.84,5.84,0,0,0-.77-5.31c-2-1.25-3.15-1.1-3.91.12.76-1.21,1.89-1.36,3.91-.12A5.84,5.84,0,0,1,315.94,466.18Zm0,.07a11.47,11.47,0,0,1-.72,1.66A11.47,11.47,0,0,0,315.91,466.25Zm-.74,1.71c-.19.37-.4.74-.61,1.1C314.77,468.7,315,468.33,315.17,468Zm-1,1.75-.35.61Zm-.87,1.57-.25.52Zm.43-46.67c1.85-2.19,3.64-4.29,5.69-5.28-2.05,1-3.84,3.09-5.69,5.28a13.38,13.38,0,0,0-3.76-1A13.38,13.38,0,0,1,313.74,424.61Zm8.67,20.26,1.48,0-1.48,0Zm45.13-53c.35-.57.69-1.15,1-1.73h0C368.23,390.76,367.88,391.33,367.54,391.91Zm-10.89,14.94c-.41-.18-.9-.58-1.19-.47.29-.11.78.29,1.19.46ZM345.58,429c3.07-.7,6.16-1.35,9.21-2.13-3.05.78-6.13,1.43-9.21,2.13Zm-8.66,13,1.43-11.57L336.92,442h0Zm43.44-86.15c.39-.05.89.66,1.46,1.13l-1.11,1.77a7.42,7.42,0,0,1-1.48-1.69C379.13,356.86,379.91,355.92,380.37,355.86Zm-13.3,16.86a79.44,79.44,0,0,1,5.74,7.65c.28.48-1.34,2.08-2.08,3.16-2-2.37-4.12-4.68-6-7.18C364.55,376,365.77,374.71,367.07,372.71Zm-31,10.44,3,3.79a80.62,80.62,0,0,1-6.28,5.42,16.42,16.42,0,0,1-2.8-3.08C331.86,387.1,334,385.15,336.09,383.15ZM334,414.5h0q0,2.17,0,4.33h0l-4-2.51,4,2.51Q334,416.66,334,414.5Zm-16.75-28.71c2.89.28,5.64,2,10.22,3.86-3.71,2.84-6.15,5.87-7.43,5.44-2.81-.94-5-3.63-7.51-5.61C314.11,388.17,315.81,385.65,317.25,385.79Zm-11.1,38.79a5.12,5.12,0,0,1,1.18-.64A5.12,5.12,0,0,0,306.15,424.58Zm-5.44-59.34L304,361l2.55,4.21c.25,5.47-4.16,4.94-7.47,5.63-.63.13-1.5-.85-2.26-1.33ZM283,361.59c.29-.11.78.29,1.18.47-.18.4-.26,1-.56,1.15s-.78-.29-1.19-.46C282.6,362.33,282.69,361.7,283,361.59Zm1.16,6.19c1.46-.24,3.83-.56,4.36.19,1.17,1.65,1.44,3.95,2.07,6l3.57,4.9-3.27.66-.31-4.12c-3.7-.24-3-8.34-8.72-4.92-.2-.37-.6-1-.57-1.07A8.6,8.6,0,0,1,284.15,367.77Zm-18,54c2.73-3.85,5.73-7.52,8.28-11.48.51-.8-.06-3.13-.89-3.77-1.67-1.29-3.86-1.9-5.84-2.79,2-.78,4-1.53,6-2.35a25.28,25.28,0,0,0,2.44-1.34l1.47-4.38-4.37-2.89-2,2.1.57-5,1.46,2.89,4.37,2.89h2.87l2.9-1.44-2.9,1.44h0L279,400c1.49,2.18,3.12,4.28,4.41,6.57.86,1.53,2.15,4.44,1.67,4.85-5.3,4.48-10.88,8.65-16.5,12.74-.88.64-2.38.42-3.6.59A13.33,13.33,0,0,1,266.11,421.76ZM216.2,383.69c2.91-2.56,6.51-4.33,9.38-6.16,2.48,1,4.84,1.44,4.84,1.93,0,1.94-.18,5.09-1.3,5.61-3.8,1.74,2.1,12-7.33,8.21-1.07-.43-2.36-.26-3.51-.53-2.37-.56-4.71-1.22-7.07-1.84C212.84,388.46,214.07,385.56,216.2,383.69ZM287.93,469c-1.44,1.35-3.22,2-6.08.53h-5.77c-3.4,5.08-6.13,2.24-9.07-.63a34.61,34.61,0,0,0-5-3.45c-.7,1.86-1.47,3.7-2.07,5.59-.5,1.57-.4,3.52-1.32,4.73s-3.71,3.25-4.3,2.85c-5.28-3.52-5.77.91-7.18,3.94l-5.23,5.25-2-5.28c-3.14-3.27-9.67-3.16-11.29.83-1.95,4.82-4.28,4.23-7.59,2.09-3.51-3.19-5.39-6.38-1.21-10.66,1.08-1.11.85-3.49,1.22-5.29h-2.9c-2.31,5.47-5.71,5.6-10.12,2.31-1-.75-2.65-.62-4-.9a27.89,27.89,0,0,1,1.89,3.39c1.43,3.65,2.86,7.32,3.92,11.09.1.34-2.47,1.43-3.79,2.18.18-1.21.93-2.76.44-3.57-1.78-2.95-3.71-7.76-6-8-7-.83-5.27-5.36-5.47-9.35-.92-3.79-2.36-7.54-2.6-11.37s.72-7.87,1.16-11.81L190.61,442c-.77,1.1-1.65,2.16-2.38,3.28.73-1.13,1.61-2.18,2.38-3.28,1.18-6.59,6.46-3.57,10.13-4.33l1.44,0L208,429c1.1-1.44,2-3.13,3.34-4.26,1.54-1.28,5.15-2.58,5-3a61,61,0,0,0-4-8.68c1.62,6.28-3.26,11.92-9.56,11-.59-.09-1.62-.79-1.57-.95a9,9,0,0,1,1.51-3.61c2.1-2.28,4.47-4.31,6.74-6.45.33-3.16-.46-7.94,1.24-9.12,3.29-2.27,7.95-2.8,12.13-3.26.61-.07,1.7,4.26,2.56,6.55,3.64,1,7.35,1.83,10.89,3.12,1.33.49,2.27,2.06,3.38,3.14-1.22.64-2.4,1.74-3.66,1.84-5,.37-10,.42-14.95.59,1.79,6.75,6.2,11,13.11,9.65,4.63-.88,7.08,1.08,10,3.43,4.25.45,4.31.57,4.42,8.66l2.91,4.36,1.44-1.45.58-.25-.58.25c4.35,2.14,10.38,2.85,8.67,10.16,4.33.88,8.64,1.92,13,2.57,2.17.32,4.44-.07,6.66-.13L279,459.37l2.89,10.16c2.86,1.5,4.63.82,6.08-.53a11.41,11.41,0,0,0,.85-.9A11.39,11.39,0,0,1,287.93,469Zm-49.31-48.12c-1.57.22-2.6.68-3.14.35s-.74-1.47-1.08-2.26c.75-.26,1.65-.9,2.21-.67S237.67,419.58,238.63,420.88Zm54.84,42.87c-2,.58-3.18,2.6-4.59,4.26,1.41-1.66,2.64-3.68,4.59-4.26.86-.71,1.7-1.43,2.55-2.15C295.17,462.32,294.32,463,293.46,463.75Zm12.12,15.76c1.22-.11,2.53.06,3.77,0l2.94-4.26a6.53,6.53,0,0,1,.57-3.08,6.53,6.53,0,0,0-.57,3.08l0,4.29,0-4.29-2.94,4.26C308.11,479.57,306.81,479.41,305.59,479.52Zm8.17.13,13-7.24,1.06-5-1.06,5Zm21.7-13-5.79,2.9,5.79-2.9,5.8-4.33Zm88.42-49.94q0-.35-.05-.75h0q0,.4.05.75c.22,2.22.84,3.15,1.68,3.41C424.72,419.83,424.09,418.9,423.88,416.68ZM446.93,367a6.64,6.64,0,0,0-1.4.25A6.64,6.64,0,0,1,446.93,367Zm2.95-.26h0l1.81-2.2,1.09,3.6ZM461,387.32c-.68,1.81-2.34,3.25-3.59,4.85-.4-1.11-1.28-2.31-1.09-3.31a38.49,38.49,0,0,1,2.08-5.93l1.57.15C460.36,384.52,461.42,386.2,461,387.32Z" transform="translate(-9.33 -5.67)"/>
  <path class="cls-7" d="M257.25,450.67c-3.13,2.3-6.3,4.56-9.38,6.93-3.76,2.89-8.1,5.38-4.3,11.47.92,1.47-.48,4.38-.81,6.62-1.28-1.2-2.52-2.45-3.86-3.59-1-.85-2.16-2.23-3.22-2.2-9.39.2-13.55,4.31-14.64,14.11a13.5,13.5,0,0,0,0,1.44c-3.51-3.19-5.39-6.38-1.21-10.66,1.08-1.11.85-3.49,1.22-5.29,1-2.92,1.82-5.9,3-8.75a19.49,19.49,0,0,1,2.67-3.72,29.58,29.58,0,0,1,2.94,3.46c1.15,1.85,2,3.86,3.05,5.81,1.1-1.52,2.18-3.06,3.31-4.55,2.65-3.48,6.44-6.59,7.67-10.5,1.13-3.6-.5-8.05-.91-12.13l5.8-1.46,2.91,4.36c.66,1.89,1,4,2.08,5.61C254.36,448.91,256,449.67,257.25,450.67Z" transform="translate(-9.33 -5.67)"/>
  <path class="cls-7" d="M195,466.63c4.2-1.52,8.35-3.25,12.63-4.51,3.31-1,6.79-1.35,10.19-2l.36,9.38c-2.31,5.47-5.71,5.6-10.12,2.31-1-.75-2.65-.62-4-.9a27.9,27.9,0,0,1,1.89,3.39c1.43,3.65,2.86,7.32,3.92,11.09.1.34-2.47,1.43-3.79,2.18.18-1.21.93-2.76.44-3.57-1.78-2.95-3.71-7.76-6-8C193.43,475.15,195.16,470.62,195,466.63Z" transform="translate(-9.33 -5.67)"/>
  <path class="cls-3" d="M279,459.37l2.89,10.16h-5.77C275.82,465.79,273.45,461.46,279,459.37Z" transform="translate(-9.33 -5.67)"/>
  <path class="cls-7" d="M197.88,443.45h-4.36L190.61,442c1.18-6.59,6.46-3.57,10.13-4.33Z" transform="translate(-9.33 -5.67)"/>
  <path class="cls-7" d="M239.91,482.54l7.2,0-5.23,5.25Z" transform="translate(-9.33 -5.67)"/>
  <path class="cls-3" d="M67.5,123.36c-.14,2.13.31,4.53-.53,6.32-2.15,4.57-4,10.41-11.19,5.54-1-.68-2.79-.22-4.21-.28,1.46-4.27,2.31-8.88,4.52-12.72,3.48-6,4.47-12.61,6.11-19.14.48-1.91,4.38-3,6.71-4.39l6.24.86-.39-5.17,3.39-.78a6.85,6.85,0,0,0-1-2.2c-1.54-1.49-3.24-2.81-4.88-4.19,2.6.15,5.2.25,7.79.49a6.59,6.59,0,0,1,2,.9c4.71,6.94-1.8,11.87-3.72,17.34-1.06,3-5.47,6.25-8.82,6.86-7.76,1.39-3,4.73-2,7.67Q67.5,121.91,67.5,123.36Z" transform="translate(-9.33 -5.67)"/>
  <path class="cls-3" d="M118.19,62.51c2.55,4.47,2.58,7-3.38,9.43-7,2.91-13,8.22-19.47,12.43a18.25,18.25,0,0,1-3.21,1.32c-.47-3.06-1.08-6.11-1.39-9.19-.79-7.72,3.54-12.73,11.41-13.34.69-.05,1.88.3,2,.05C108.44,54.43,113.43,60.73,118.19,62.51Z" transform="translate(-9.33 -5.67)"/>
  <path class="cls-7" d="M74.75,94.38l.39,5.17-6.24-.86C68.54,94.11,71.65,94.24,74.75,94.38Z" transform="translate(-9.33 -5.67)"/>
  <path class="cls-5" d="M160.16,33.56l3,2.87Z" transform="translate(-9.33 -5.67)"/>
  <path class="cls-4" d="M460,383.08c.39,1.43,1.46,3.11,1,4.24-.68,1.81-2.34,3.25-3.59,4.85-.4-1.11-1.28-2.31-1.09-3.31a38.49,38.49,0,0,1,2.08-5.93Z" transform="translate(-9.33 -5.67)"/>
  <path class="cls-6" d="M294.6,220.35c9.51-4.52,16.94,6.1,26.24,3.79a16.48,16.48,0,0,1,1.51,4.78,21.1,21.1,0,0,1-.62,4.91c-1-1-1.89-2.69-3.07-2.93a78.89,78.89,0,0,0-9.43-.94c-.12,1.88-.71,3.89-.26,5.62,1.46,5.66-4.27,22.87-9.56,25.38-1.75.83-5.07-1.51-7.61-2.55-2-.81-3.88-1.85-5.81-2.79a40,40,0,0,1,.9,5.66c.16,8.44.28,16.89.09,25.33,0,.82-2.25,1.59-3.45,2.38-.34-1.49-1.41-3.33-.89-4.4,3.13-6.44,1-7.67-5.39-6.66-2.32.37-5-1.7-7.55-2.66,1.06-1.47,2.49-2.79,3.09-4.42a67.52,67.52,0,0,0,2.78-10.24c.05-.26-2.59-1.68-3.77-1.46-4.44.83-8.79,2.12-13.17,3.23-.2-4.9-.6-9.81-.41-14.69,0-.93,2.39-2.49,3.72-2.54,7-.28,14-.14,21-.21,5.56-.06,9.67-1.15,9.43-8.47C292.16,231.14,293.78,225.74,294.6,220.35Z" transform="translate(-9.33 -5.67)"/>
  <path class="cls-6" d="M207.83,350.78c-1.16-.18-2.7.06-3.43-.6-5.62-5.08-11-4.54-17.87-1.71-3.54,1.47-8.82-1.26-13.32-2.09,1-1.26,2-2.47,2.82-3.81a9.84,9.84,0,0,0,.75-2.51c-9.89.21.37-8.25-4.41-10.25l5.22-6.57c1.25,5.26,2.05,10.69,3.91,15.72,1,2.71,3.42,4.06,6.81,1.23,3.59-3,4.7-5.74,2.29-9.75,2.13-.92,4.19-2.15,6.41-2.62,1.11-.24,2.54.87,3.79,1.44,1.92.86,3.83,1.77,5.74,2.66Z" transform="translate(-9.33 -5.67)"/>
  <path class="cls-6" d="M276.07,200a107.42,107.42,0,0,0,7.25-8.06c.73-1,.25-2.87.33-4.34-1.28.36-2.58.64-3.82,1.09-1.51.54-3,1.22-4.44,1.84.8-1.67,1.57-3.36,2.44-5,.2-.37.79-.52,1.18-.79,8.95-6.19,12.34-5.62,13.94,4.76,1.11,7.18,4.78,6.25,9.24,6.27,8.64,0,10.58,2.93,6.93,10.27-.31.63-1,1.74-1.18,1.67-6.62-2-8.46,4.92-12.91,6.89-.38-14.41-.38-14.41-14.66-14.49C278.91,200.11,277.49,200,276.07,200Z" transform="translate(-9.33 -5.67)"/>
  <path class="cls-7" d="M207.6,311.51c-1.86-.38-3.73-.74-5.59-1.15-1.58-.36-3.14-.79-4.71-1.18a32.6,32.6,0,0,0,4.53-2.08c1.08-.7,2.8-2.44,2.62-2.74a12.06,12.06,0,0,0-3.69-4c-4.39-2.72-9.23-4.8-13.31-7.89-1.42-1.08-1.15-4.4-1.66-6.69,1.69.47,3.4,1.36,5.07,1.3,1.46-.05,2.9-1.15,4.32-1.84,1.19-.58,2.68-2,3.41-1.68,1,.46,1.57,2.16,2.09,3.43.65,1.61,1.07,3.32,1.58,5a38.35,38.35,0,0,1,2.27-4.12c.33-.47,1.28-.52,2-.75Z" transform="translate(-9.33 -5.67)"/>
  <path class="cls-6" d="M263,200.07c2.89-3.58,5.78-7.18,8.7,0Z" transform="translate(-9.33 -5.67)"/>
  <path class="cls-6" d="M67.5,123.36q0-1.45,0-2.9c8.24-5.16,8.93-4.75,11.86,4.7.72,2.32,2.82,5.68,4.63,5.92,7.41,1,7,5.93,6.71,11.11l-7.25-2.89c-3.51-2-10.27,2.3-10.78-5.56-.08-1.16-.88-2.7-.39-3.4C77.07,123.53,70.61,124.62,67.5,123.36Z" transform="translate(-9.33 -5.67)"/>
  <path class="cls-5" d="M111.74,115.57c.36-4.81.42-10,1.32-15.14.27-1.55,2.84-2.7,4.36-4A32.28,32.28,0,0,1,119,100c.2.62-.37,1.86-.1,2,12.86,7.83-3,10.66-3,16.26,0,.54-2.4,1.07-3.68,1.6Z" transform="translate(-9.33 -5.67)"/>
  <path class="cls-5" d="M160.7,90.52c-.77,2.36-.92,3.64-1.56,4.59a55.94,55.94,0,0,1-3.77,4.6c-.33-2-1.58-4.46-.83-5.9,2.38-4.59.73-6.22-3.7-6.69-.95-.1-2.54-.1-2.7-.56-.92-2.51-1.49-5.16-2.18-7.75,1.92,0,4.73-.91,5.6,0C155,82.59,157.94,86.9,160.7,90.52Z" transform="translate(-9.33 -5.67)"/>
  <path class="cls-3" d="M93.58,133.49c.43-7.4,6.95-3.88,10.48-5.6s7.55-2.19,11.39-3.08a19.26,19.26,0,0,1,3.8-.13c-.68,1.35-1,3.25-2.12,3.95-2.33,1.47-5.06,2.31-7.62,3.41Z" transform="translate(-9.33 -5.67)"/>
  <path class="cls-6" d="M93.58,133.49,109.51,132q0,2.89,0,5.78L95,140.73Z" transform="translate(-9.33 -5.67)"/>
  <path class="cls-6" d="M129.79,136.39l5.79,1.45-3.25,2.77Z" transform="translate(-9.33 -5.67)"/>
  <path class="cls-5" d="M265.93,29.2,260.13,22l2.94-2.82,2.8-.17C271.72,25,271.74,27.29,265.93,29.2Z" transform="translate(-9.33 -5.67)"/>
  <path class="cls-5" d="M266,37.89c-.94-.84-2.77-1.93-2.62-2.47.34-1.25,1.65-2.24,2.57-3.34Q265.93,35,266,37.89Z" transform="translate(-9.33 -5.67)"/>
  <path class="cls-1" d="M490,282.74c-2.39-4.59-8.52-8.42-2.94-14.61q.28-1.42.56-2.83h-1.44c-3.85,0-6.78-.83-5.2-5.81.32-1,.55-2.84,0-3.25-7.66-5.84-.62-7.56,2.78-10.3-2.65-13.25-5.22-26.51-8-39.74-2.71-12.95-4.59-26.21-8.83-38.65-2.92-8.56-9.25-16-14.06-23.89l-4.63-7.2a15.61,15.61,0,0,0-1.23-3.24c-6.34-9.6-12.49-19.33-19.24-28.64-3.77-5.2-8.56-9.66-12.89-14.45h0l-1.61-2.82L408,82.53a1.72,1.72,0,0,0-.42-1.1c-6-10.67-16.27-16.55-25.9-23.16l-.22.24h0l.22-.24a148.21,148.21,0,0,0-59.4-29.92l-4.65-1.85L315,23.84l-4.17-1.56c-.8-.86-1.46-2.26-2.41-2.49-10.86-2.69-21.69-5.65-32.69-7.65C260.7,9.4,246,5.61,230.32,5.67c-13.83,0-26.58,3.55-39.66,6.49l-.56,5.28c-3.64-2.84-10.67,5.21-12.38-3.84l-7.56.32L164.67,22c7.41-.07,4.42,7.8,8.08,10.6L166,37.9c0,.23,0,.47,0,.7q.26,3.64.53,7.28l-6.34-2.18c.25,2.87-3.39,8.13,4,6.61a79.2,79.2,0,0,1,.16,9c-.09,1-1.54,2-2.37,3,7.79,6.23-.39,11.25-1.16,16.85-.12.88,1.23,2,1.91,2.95,5.69-4.28,5.11,1.68,5.78,4,.81,2.79.33,6,4.69,5.5.38-1,1.4-2.44,1-3.07-6.34-11.25-4.81-23.63-5.41-35.71-.23-4.54.82-7.79,5.81-9.43,2.15-.7,5.41-4,5.06-5.31-2-7.67,3.49-6.4,6.94-5.72,6.36,1.26,12.52,3.54,18.73,5.51.74.23,1.26,1.16,1.88,1.77a11.66,11.66,0,0,0-2.51.4c-1.77.68-4.4,1.11-5,2.41a7.53,7.53,0,0,0,.58,6c.46.79,3.39.18,5.2.14.46,0,.92-.35,1.39-.36,3.12,0,6.25,0,9.38,0-.7,5-.5,10.33-2.42,14.76-1.23,2.83-3.56,4.35.12,6.67.37.23.83.86.75,1.17-1.83,7.31.92,9.85,8.2,8.31.5-.1,2.18,2.5,2.27,3.92.48,7.5,4.45,8.22,10.34,5.76,1.77-.74,3.61-1.34,5.34-2.16,3.75-1.77,4.83,0,4.72,3.44,1.85.27,3.7.52,5.55.81s3.41.58,5.12.88a25,25,0,0,0-3.44,3.09c-.62.78-1.22,2.61-.87,2.94,1.51,1.41,3.34,3.36,5.13,3.44,7,.33,14.1.11,21.15,0,8.08-.18,5.37,7.33,7.64,11.13,1.38,2.32.31,6.08.35,9.2,5.88-.5,7.81,2.24,7.22,7.95-.43,4.18.06,8.46.14,12.7,6.81-1,2.75-7.29,5-10.55.88-1.28,1.17-3,1.72-4.48.93,1.2,1.89,2.38,2.78,3.6,3.34,4.58,6.59,7.47,11.59,1.47,2.77-3.32,5-.86,6.6,2,1.2,2.22,4.88,4.44-.18,6.61-.8.34-1.82,2.25-1.59,2.54,2,2.56,4.27,4.91,6.45,7.33.7-1.57,1.5-3.11,2.07-4.73s.86-3.24,1.27-4.87c1.81,2.23,5.61,5.52,5.09,6.51-2.3,4.33-5.78,8.05-9,11.87-1.53,1.82-3.88,3.09-4.94,5.1-.73,1.38.13,3.6.27,5.45.19,2.63.34,5.25.57,7.88a24.67,24.67,0,0,0,.52,2.67c1-.48,2.56-.73,2.82-1.46,2.86-8,6-7.82,10.17-.82,2.2,3.69,5.11,3.72,8.29.54,1.36-1.36,3.54-1.89,5.35-2.8a28.63,28.63,0,0,1,1.36,5.24c.23,3.26,3,8.11-4.08,7.67-.09,0-.67,2.58-.39,2.72a23.33,23.33,0,0,0,5.51,2c1.57.35,4.09-.42,4.71.42,2.21,3,4.55,6.27-2.54,6.27-3.7,0-7.46,1.64-3.77,6.84.84,1.19.27,3.29.66,4.9a19.52,19.52,0,0,0,1.66,3.59,13.34,13.34,0,0,1,2.66-1.79c1.51-.56,3.29-1.45,4.67-1.1,5.25,1.33,10.39,3.11,15.57,4.72l3.08-3.86c.8.73,2.41,1.8,2.27,2.14a14.22,14.22,0,0,1-2.48,3.19,39.22,39.22,0,0,1-2,5.22c-3.48,6.37-2.43,8.44,4.87,9.27-.08-1,0-2.15-.09-3.2.08,1,0,2.15.09,3.2q0,.71,0,1.41c-1.09,1.88-1.81,4.7-3.4,5.34-1.29.52-3.66-1.54-5.49-2.55-.36-.2-.41-1.07-.74-1.18-8.38-2.62-12.72-6.58-5.17-14.79.24-.26-.33-1.26-.52-1.92a10.52,10.52,0,0,0-3.09,1.07c-6.42,4.91-12.85,9.84-19.08,15-1.24,1-1.49,3.17-2.44,4.64a22.16,22.16,0,0,1-3.75,4.67c-.69.61-2.17.32-3.3.44.14-1.29-.14-2.85.48-3.84,3.18-5,1-5.32-3.37-4.12-1.36.37-3-.17-4.3.26a28,28,0,0,0-4.66,2.46,38.87,38.87,0,0,0,3.06,3.51c1,1,2.7,1.42,3.44,2.53a68.13,68.13,0,0,1,3.69,7.09c-2.28-.18-5-1.25-6.74-.37-4,2-7.57,5.1-11.39,7.62a23.45,23.45,0,0,1-5.07,2.58,19.39,19.39,0,0,1-4.28.53c1.19,1.36,2.25,3.76,3.58,3.91,5,.57,5.34,4.3,5.68,7.78.11,1.16-1.61,2.49-2.49,3.75-.62-1.21-1.23-2.42-1.86-3.63-.74-1.42-1.5-2.82-2.25-4.23-.36,1.38-.77,2.74-1.08,4.13s-.49,2.54-.72,3.81c-1.48-.43-3-.78-4.43-1.31-1.21-.45-2.33-1.1-3.5-1.67a19.16,19.16,0,0,0-.36,4.11c.79,6.25,2.34,12.7-6.92,14.2-.54.09-.34,3.51-.88,5.25a50.88,50.88,0,0,1-2.55,5.78c-3-2.51-9,2.54-10.25-3.66-.81-4.18-2.9-5-6.5-4.83-2.12.1-6,.05-6.11-.4-.63-4.07-1.16-8.33-.58-12.38.61-4.25,2.5-8.31,3.67-12.51a3.08,3.08,0,0,0-2.1-1.29,53,53,0,0,0-6,1.91q.17,13,.34,26c5.36,5.75,5.37,14.12,0,17.46l.81,14.53,3,2.11-3.74,2.22.93,7.24a40.07,40.07,0,0,1,5.73.05c1,.14,1.86,1.1,2.79,1.68-.95.59-1.91,1.15-2.84,1.77s-1.56,1.12-2.34,1.68c.87.64,1.64,1.61,2.61,1.88,9.15,2.63,10.52,5.66,5.77,13.14l5.79-4.33,1.6-4,4.22,2.58,2.88-2.9q0-1.44,0-2.89t0-2.89c-.1-2.22-.94-6-.17-6.37,2.67-1.25,6.6-2.68,8.78-1.56,6.11,3.12-.41,5.28-1.37,7.93,1.13,2.08,2.22,4.17,3.4,6.22,1.93,3.36,3.81,7,5.63-.17a4.73,4.73,0,0,1,3.5-2.82,208.3,208.3,0,0,1,22.82,1.47c1.47.2,2.9,3.6,3.61,5.77.89,2.73.53,5.92,1.65,8.51.64,1.47,3.14,2.14,4.81,3.16,1.2-2.06,3.94-4.9,3.35-6-2.81-5.5-2.08-9.52,1.89-14.35,3.55-4.3-2.46-4.27-4.3-6.11-2,1.2-4.07,3.33-6.08,3.3-1.68,0-3.31-2.6-5-4l9.59-9.4,2-6.51c1.92,1.35,3.82,2.72,5.77,4,1.18.79,2.43,1.5,3.65,2.22,4.64,2.73,9.33,5.38,13.88,8.26a5.62,5.62,0,0,1,1.75,3.06,28.68,28.68,0,0,1,.65,4.3c1-1.19,2.32-3.54,3-3.37,3.63,1,7.86,1.78,10.38,4.2,2,2,2.32,4,6.33,3.46,2.24-.31,5.13,4.12,7.73,6.41L396.3,358q0-.72,0-1.44c-2-3.43-.6-4.59,2.9-4.36-2.93-5.18-2.92-5.17-8-2.34-.38.21-1.1.48-1.28.32-4.63-4.37-9.32-8.7-13.56-13.43-.25-.28,2.73-4.58,4.88-5.68a131.48,131.48,0,0,1,17-7.1c3.63-1.25,7.33-2.24,8.59,3.84,1.12,5.4,2.66,9.81-1.42,15.19-2,2.59.07,8.22.29,12.48,1.35-.56,2.66-1.22,4-1.64,1.62-.5,3.38-1.27,4.94-1s2.82,1.57,4.22,2.43c0-2.11-.1-4.21-.08-6.32,0-3.5-.09-7,.29-10.48s2.24-3.93,4.68-1.38c2.68,2.8,4.42,1.81,6-1.23s.8-4.27-2.28-6c-2.39-1.33-4-4.64-5.22-7.39-1.92-4.26-.41-5.56,4.24-4.44,3.33.8,6.93.59,10.41.53a3.2,3.2,0,0,0,2.42-1.86,3.42,3.42,0,0,0-1.06-3,12.62,12.62,0,0,0-5.43-1.7c-8.23-.31-8.25-.85-5.06-8.9,1.83-4.62,4.47-10.15-1.16-14.55l1.45-2.9,2.91-5.8c2.63-9,3.24-9.22,10.69-3.72,6,4.43,17.51,6.34,20.81,3.19,2.58-2.47,4.89-7.22,6.65.49,0,.14,2.63.22,3.35-.43,1.39-1.25,2.22-3.11,3.44-4.59a30.41,30.41,0,0,1,3-2.8c.43,1.26,1.25,2.53,1.22,3.79-.1,5.27-1,10.59-.52,15.8.22,2.58,2.63,5,4.05,7.46a23.43,23.43,0,0,1,2.67-4.4c.86-.92,2.36-1.23,3.57-1.82Q490,287.74,490,282.74ZM212,17.4c-1.15-1.57-3.46-3.41-3.18-4.66.43-1.85,2.69-3.27,4.69-5.45l5.43,4.52Zm70.24,329.94c-.41-.17-1-.26-1.15-.55s.28-.78.46-1.19c.4.17,1,.26,1.15.55S282.41,346.93,282.24,347.34Zm24.52-.11c-.29.11-.79-.28-1.19-.46l.52-1.21,1.22.52C307.14,346.49,307.05,347.12,306.76,347.23Zm18.89-87.56c.55-.18,1.41.59,3,1.34-2.25,1.17-3.53,2.11-5,2.46-.52.13-1.38-1.14-2.09-1.78A26,26,0,0,1,325.65,259.67Zm3.15,75.44c-3.19,2-7.17,3.29-5.53,8.56.16.5-2.12,2.59-2.79,2.38-2.17-.66-4.61-1.65-6-3.3-.9-1.09-.89-4.51,0-5.23,3.64-2.87,7.79-5.1,11.77-7.54a12.69,12.69,0,0,1,1.9-.68c.75.72,2.32,1.53,2.46,2.53A4.27,4.27,0,0,1,328.81,335.11Zm20.63-44.34a26.44,26.44,0,0,1-5.06-5.14c-.28-.39,1.11-2,2.38-4.15l5.61,7.14C351.36,289.38,349.7,291,349.44,290.77Zm3.35-23.24a30.7,30.7,0,0,1-2.77-4.25,37.55,37.55,0,0,1-1.53-5.23c-2.4,2-4.9,4-7.16,6.18-.71.69-.8,2-1.17,3.08-.66-1-1.33-2.07-2-3.12a1.5,1.5,0,0,1-.18-.69c-.15-3-9.62-2.49-3.17-7.86,2.78-2.32,6.25-3.82,9.46-5.58a10.93,10.93,0,0,1,2.75-.68l1.95-5.51c1.7,1.42,4.5,2.59,4.9,4.32A73.13,73.13,0,0,1,355.49,263C355.52,264.48,353.74,266,352.79,267.53Zm47.3-64.34-7.63,7c-.26-.33-.52-.65-.8-1,.27.32.54.64.8,1Zm-.52-56.33h0l1.26,2Zm-1.25,99.41-4.6,5.87c-.69-.91-1.69-1.8-1.53-2.1a20.6,20.6,0,0,1,3.21-4.75C395.7,245,397.31,245.91,398.32,246.27ZM383.64,266c.28.57.78,1.14.76,1.7s-.62,1-1.16,1.74c-.53-.8-1.24-1.46-1.11-1.77A6.49,6.49,0,0,1,383.64,266Zm-1.12-97.29h0l7.42-3.11ZM358.9,56.57l-.25.46h0l.25-.46.52-1ZM344.15,74.12c.71.14,1.56.13,2.27.27-.71-.14-1.56-.13-2.26-.27Zm-1.57-10.24a2.12,2.12,0,0,0,0-.76,2.29,2.29,0,0,0-.18-.52,2.29,2.29,0,0,1,.18.52A2.12,2.12,0,0,1,342.58,63.88Zm-.34,1a3.44,3.44,0,0,0,.29-.74,3.44,3.44,0,0,1-.29.74c-.59,1.14-1.75,2.24-2.44,3.46h0C340.5,67.1,341.66,66,342.25,64.86ZM363,74.11l1.44-2.86h0ZM373.09,77l1.4,2.75L373.09,77Zm1.51,3h0c.47.11.93.26,1.4.38C375.52,80.18,375.06,80,374.59,79.93ZM395.75,136h0a8.41,8.41,0,0,0-.94-.46A8.6,8.6,0,0,1,395.75,136Zm-4.64-9.3a11,11,0,0,0,2.3-3.34l1-.73-1,.73A11,11,0,0,1,391.12,126.69Zm1.77,29.61h0a8.36,8.36,0,0,0-.94-.46A8.56,8.56,0,0,1,392.88,156.29Zm-2.39,10.53,2.2-1.92h0Zm7.25-14.52a10.76,10.76,0,0,0-.09,1.46,10.77,10.77,0,0,1,.09-1.46l1-3.11Zm-20.39-91.6a2.5,2.5,0,0,1,.3-.82,2.49,2.49,0,0,0-.3.82c-.36,1.88.87,4.53.06,6.19h0C378.23,65.23,377,62.58,377.35,60.71Zm-7.13,9.08-1.45,4.32-.63,3.62.63-3.62,1.45-4.32L368.78,64ZM282.72,44.85c-.18.41-.27,1-.56,1.15s-.79-.29-1.19-.47c.18-.41.27-1,.56-1.15S282.31,44.67,282.72,44.85Zm16.53,46.22c.43.31.86.61,1.3.9.17-1.23.32-2.46.48-3.7-.16,1.23-.31,2.47-.48,3.7-.44-.29-.87-.59-1.3-.9L298,90.15ZM280.43,17.61h0c-1-.34-1.91-.77-2.87-1.15C278.52,16.83,279.47,17.27,280.43,17.61ZM225.67,52.26l-3.16-4.2q0-1.47,0-2.95l4.32-2.87,2.89,2.9ZM236,74.86q-1.24,4.53-2.48,9.07c-.7-.54-1.75-.93-2-1.63-1.83-4.55-5.86-8.79-2.58-14.18.38-.63,2.54-1,3-.59a56.94,56.94,0,0,1,4.8,5.34C236.14,74.41,236,74.63,236,74.86Zm11.35-26.17c-1-1.19-2-2.35-2.95-3.59-.55-.75-.92-2.39-1.33-2.38-7.51.26-8.51-8.7-14.81-10.41-1.58-.43-2.39-3.71-3.55-5.69,3.22-.69,2.88-8.27,9.13-3.95,4,2.8,9.63,3.32,14.41,5.16,1,.39,2.45,2.48,2.17,3-2.11,4-5.75,7.84.17,11.69Zm11.64-14c1.6-3.17,1.3-9.36-5.62-9.93-1.06-.09-2-1.42-3-2.18l4-2c-3.24-3.57-6.36-6.85-12.15-5.12-1.54.46-3.91-1.81-5.89-2.83,1.87-.74,4-2.48,5.58-2.06,8.48,2.28,18.32-1.55,25.67,5.64L265.88,19c5.85,6,5.86,8.29.05,10.2l0,2.88q0,2.91.06,5.81l-1.48,5.79a7.94,7.94,0,0,0,.57.79,5.19,5.19,0,0,0,1.18,1.08A5.19,5.19,0,0,1,265,44.47a7.94,7.94,0,0,1-.57-.79C260.11,42.29,255.28,42,259,34.67Zm3.14,42.83c-.41.11-1.72-1.16-1.62-1.4,1.88-4.73-.51-11.69,6.91-13.58,0-2.34-3.08-5.93,2.62-6,.7,0,1.44-2.37,2-3.71.76-1.75,1.37-3.57,2-5.36,1.15,1.53,2.4,3,3.44,4.61,1.45,2.22,2.79,4.51,4.09,6.82,1,1.73,1.78,3.55,2.67,5.33-1.86-.18-3.72-.33-5.57-.53-3.28-.36-6.57-.75-9.85-1.13C269.52,65,264.3,76.91,262.1,77.51Zm25.07,12.64c.67-.87,1.3-2.16,2-3h0C288.48,88,287.85,89.27,287.18,90.14Zm13.63,24.37a12.54,12.54,0,0,1-5,.49c-2.06-.06-4.1-.41-6.16-.63,2.3-2.69,4.14-6.46,7.05-7.71,2-.87,5.54,1.69,10.09,3.33C303.63,112.45,302.38,113.87,300.81,114.51Zm44.94,52.1c-1.35,0-2.73-1.06-4.1-1.66.91-.82,1.74-2.19,2.74-2.32,1.64-.22,3.38.37,7.3.94C348.34,165.37,347.06,166.57,345.75,166.61Zm26.42,10,2.56-1.92L376,178.4q0,.72,0,1.44Zm5.49,15.75c-.05-3.21-5.93-6.35-.18-9.63l1.45,1.46h0c0,.71,0,1.42,0,2.13,0,2.41.09,4.81.13,7.22C378.57,193.13,377.66,192.74,377.66,192.35Zm-.91-46.55c-3.39-.92-7.76-.1-11.13,1.29-3.94,1.63-6.75,5.08-3.9,9.84,2.39,4,.32,6.66-2.72,8.3-.9.49-3.39-2-5.15-3.09-1.2-.76-3.13-1.34-3.39-2.35a5.82,5.82,0,0,1,1.09-4.49c1.29-1.59,3.26-2.63,4.94-3.91l-6.56-6.29c-.48,2.88-.65,5.86-1.62,8.55-.28.76-2.9.68-4.45,1,.25-1.22.84-2.49.68-3.65a47.08,47.08,0,0,0-1.51-5.67c-.38-1.42-.68-2.87-1-4.3l5-.28c2.68-3.38.53-11.19-4.12-14.28-1.31-.87-3-1.12-4.58-1.65-.62,1.26-1.74,2.52-1.73,3.77s1.13,2.57,1.77,3.86l-11.74,2c.14-1.65.29-3.29.4-4.94.08-1.07.1-2.15.15-3.23a10.66,10.66,0,0,0-3.1.39,16.54,16.54,0,0,1-15.51-.77,7,7,0,0,1-3.08-5c-.06-1.4,1.82-3.34,3.31-4.12.65-.34,2.47,1.68,3.81,2.54,1.09.7,2.86,2.08,3.27,1.76,1.42-1.08,3-2.64,3.33-4.27s-.94-3.69-.89-5.54c.05-1.68,1-3.33,1.49-5,1.32,1.07,3.55,2,3.78,3.25.69,3.74,8.46,7,1.11,11.51-.13.08.35,1.69.55,1.69,2.32,0,5.88.77,6.74-.41,2.78-3.8,5.17-1.2,7.75-.46,7.17-3.51,14.3-7.12,21.56-10.41,1.15-.52,3,.63,4.44.55a3.44,3.44,0,0,0,2.59-1.54,4.8,4.8,0,0,0-.3-3.36c-.16-.36-1.63-.21-2.5-.22a65.74,65.74,0,0,1-7.66-.17c-.2,0-.68-4,.06-4.46a22.29,22.29,0,0,1,8-3.41c2.71-.5,16,9.42,16.57,12.16a4.23,4.23,0,0,1-2,3.46c-4.46,2.12-12.22,2.46-11.16,8.34.81,4.49,7.16,8,11.07,11.91,1.71,1.71,3.5,3.34,5.25,5C382.46,141.2,382.85,147.45,376.75,145.8Zm3.72,135.91a7.34,7.34,0,0,0,1-3.28c.24-1.45.29-2.93.43-4.39a70.5,70.5,0,0,1,5.64,4.82c.48.49.07,1.85.07,3.48a17.77,17.77,0,0,1-.59,2.86c-.79,2.29-1.73,4.52-2.6,6.78C385.38,287.7,375.89,287.45,380.47,281.71Zm-3.67,8.9c.84,0,1.65.7,3.09,1.39-1.81,1.12-2.5,1.79-2.77,1.66a10.21,10.21,0,0,1-2-1.69C375.68,291.48,376.26,290.58,376.79,290.6Zm-6.16-10.14c.29.13.35.76.51,1.17-.41.16-.92.54-1.21.42s-.35-.76-.51-1.17C369.84,280.72,370.34,280.34,370.63,280.46Zm-4.39,17.13c-.19-.32,1.59-1.79,2.46-2.73l4.64,5.28c-1.48.45-2.91,1.39-3.63,1A9.51,9.51,0,0,1,366.24,297.6Zm18.82,23c-2.89,3.06-6.36,5.58-10.91,9.4l-5.29-6.73c1.78-.6,3.6-1.1,5.32-1.84,2.24-1,4.44-2,6.58-3.18a46.77,46.77,0,0,0,3.95-2.67C384.86,317.3,385.83,319.78,385.05,320.6ZM388,297.94c-.29.11-.78-.28-1.19-.45.17-.4.26-1,.55-1.15s.79.28,1.19.45C388.36,297.2,388.27,297.82,388,297.94Zm5.76-30.77c-1.65-1.6-4.33-3.09-4.21-4.33.18-2,2.22-3.79,3.47-5.67l5.55,7.51ZM400.31,253c.29-.12.78.29,1.19.47-.18.4-.27,1-.56,1.15s-.79-.29-1.19-.46C399.92,253.7,400,253.07,400.31,253Zm1.15,53.63a3.07,3.07,0,0,1-1.61-2c-.08-.48,1-1.14,2-2.21.69,1.34,1.43,2.13,1.34,2.8S401.79,306.73,401.46,306.58Zm2.47-41-2.24-1c.62-.63,1.17-1.61,1.89-1.78s1.43.68,2.16,1.08Zm2.67-9.19c-.58-.68-1.22-1.1-1.27-1.58s.39-1.18.62-1.77c.58.48,1.34.87,1.66,1.49C407.76,254.77,407.08,255.49,406.6,256.34ZM399.19,119h0l10.16,4.32Zm16,57.95a10.6,10.6,0,0,0-.48-3.3,10.6,10.6,0,0,1,.48,3.3Zm-1.75-33.45a7,7,0,0,0,1.76-4.23h0A7,7,0,0,1,413.39,143.5ZM417,166.2l-1.68-2.2,1.68,2.2Zm4-13.88-1.88-4.1,1.88,4.1Zm0,0h0l2.2,1.74Zm3.73,34.36-1.21-.52,1.21.52Zm-2.29-51.75h4.33l-1.45,7.25h0l1.44-7.25Zm5.18,109.71a8.46,8.46,0,0,1-1.93-2.27c.7-.46,1.43-1.32,2.1-1.28s1.27,1,2.33,1.92C428.89,243.81,427.88,244.83,427.56,244.65ZM460.39,199c-.12.37-.24.75-.37,1.11l4.32,4.47,7.55.89-7.55-.89c1.55,3.6.74,8.18,2.16,11.85a8.24,8.24,0,0,0,1.09,2,8.23,8.23,0,0,1-1.09-2c-1.42-3.67-.6-8.25-2.16-11.85L460,200.09h0C460.15,199.73,460.27,199.36,460.39,199Zm4,38.79h0c0,.2,0,.41,0,.63C464.4,238.18,464.39,238,464.37,237.77Zm-21.73-78.2c.17,1.36,1.69,2.42,3,3.53-1.29-1.11-2.81-2.16-3-3.53Zm-1.45-10.14c.39.16.77.32,1.13.49-.36-.17-.74-.33-1.13-.49l-2.89-2.89Zm-4.33,14.48.47.8-.47-.8Zm30,101.66c-2.15,1.41-3.74,3.65-5.77,5.29-1,.78-2.94,1.8-3.51,1.39-3.36-2.43-7.5.4-9.42-.38-5.38-2.19-10.29-6.28-14.31-10.61-1.25-1.35.95-5.88,1.56-9l-.42-6.48.42,6.48c4.06-3.09,8.05-6.28,12.2-9.25,6-4.31,9-3.32,11,3.47,2.2,7.41,4.18,8.13,15.86,5.78C475.61,258.82,471.76,262.37,466.88,265.56Z" transform="translate(-9.33 -5.67)"/>
  <path class="cls-5" d="M270.53,360.94c-1.32.53-2.2,1.22-2.75,1a2.74,2.74,0,0,1-1.47-1.92c-.05-.4,1.23-1.44,1.72-1.33C268.76,358.88,269.32,359.8,270.53,360.94Z" transform="translate(-9.33 -5.67)"/>
  <path class="cls-1" d="M263.08,19.17,260.13,22l-2.87-1.39Z" transform="translate(-9.33 -5.67)"/>
  <path class="cls-6" d="M150.06,355.1c-.56-7-6.66-13.8-.61-21.09.56-.68-.38-2.57-.56-3.91-.23-1.68-.4-3.37-.6-5.06,2.18-.19,4.6-1.1,6.5-.45,6.06,2.07,7.54,1.25,8.31-5.68,4.25,1.42,5,5.75.65,8-6.16,3.18-6.44,8.59-8,14C154.37,345.77,152,350.37,150.06,355.1Z" transform="translate(-9.33 -5.67)"/>
  <path class="cls-3" d="M190.62,330.45c2.41,4,1.29,6.76-2.29,9.75-3.39,2.83-5.81,1.48-6.81-1.23-1.86-5-2.67-10.46-3.91-15.72h0l4.38-1.54a68.43,68.43,0,0,0,4.31,5.38A36.45,36.45,0,0,0,190.62,330.45Z" transform="translate(-9.33 -5.67)"/>
  <path class="cls-6" d="M137,349.3c.42,1.06.57,2.77,1.32,3.09,8.41,3.64,2.24,8.39.6,12.33-.27.65-5-.57-7.7-.93,0-1.17.26-2.51-.2-3.49-3.55-7.75-3.59-7.73,5.28-10.92A3,3,0,0,1,137,349.3Z" transform="translate(-9.33 -5.67)"/>
  <path class="cls-6" d="M154.39,314.51c-2.72,8.32-7.87,10-13,4.35C143.11,309.63,148.8,312.21,154.39,314.51Z" transform="translate(-9.33 -5.67)"/>
  <path class="cls-6" d="M182,321.71l-4.38,1.54c-.38-2.11,3.89-7.11-3.22-5.12-.6.17-1.57-1-2.37-1.55,2.25-2,4.28-4.41,6.84-5.87,1.25-.71,3.5.31,5.3.55-.36,2.15-.67,4.31-1.1,6.44C182.78,319.05,182.34,320.37,182,321.71Z" transform="translate(-9.33 -5.67)"/>
  <path class="cls-6" d="M163.09,318.89l-4.34-4.36c3.62-2.38,7.18-4.85,10.91-7,.57-.33,1.95.74,3,1.16a39.56,39.56,0,0,1-3.5,4.92C167.28,315.51,165.12,317.14,163.09,318.89Z" transform="translate(-9.33 -5.67)"/>
  <path class="cls-5" d="M177.62,418.91l-1.54-3,2.95-4.33c3.23,1.69,7.72-5.24,10.21,1.49Z" transform="translate(-9.33 -5.67)"/>
  <path class="cls-6" d="M134.1,329l3,1.48-2.48,3.56Z" transform="translate(-9.33 -5.67)"/>
  <path class="cls-6" d="M142.81,347.85l.72,2.14-2.15-.71Z" transform="translate(-9.33 -5.67)"/>
  <path class="cls-6" d="M135.56,321.76l-1.46,2.92Z" transform="translate(-9.33 -5.67)"/>
  <path class="cls-6" d="M148.61,400h2.92l-1.12,2.26Z" transform="translate(-9.33 -5.67)"/>
  <path class="cls-5" d="M250.16,106.13a65.34,65.34,0,0,0-6.77-1.33,26.22,26.22,0,0,0,3.16-4.62c.31-.74-.94-2-1-3.07-.12-2.35.06-4.71.12-7.07.11-3.45-1-5.2-4.72-3.44-1.74.82-3.57,1.42-5.34,2.16-5.89,2.46-9.86,1.74-10.34-5.76-.09-1.41-1.78-4-2.27-3.92-7.28,1.53-10-1-8.2-8.31.08-.32-.38-.94-.75-1.17-3.68-2.32-1.35-3.83-.12-6.67,1.93-4.44,1.72-9.79,2.42-14.76-3.13,0-6.25,0-9.38,0-.46,0-.92.35-1.39.36-1.81,0-4.73.65-5.2-.14a7.53,7.53,0,0,1-.58-6c.58-1.3,3.21-1.72,5-2.41a11.66,11.66,0,0,1,2.51-.4c-.62-.61-1.14-1.53-1.88-1.77-6.21-2-12.37-4.25-18.73-5.51-3.45-.68-9-2-6.94,5.72.34,1.3-2.92,4.6-5.06,5.31-5,1.64-6,4.88-5.81,9.43.6,12.08-.93,24.47,5.41,35.71.35.63-.67,2-1,3.07-3.62,6-5.83,13.47-14.48,14.47-.16,3.72.15,7.56-.73,11.1-.36,1.45-3.31,2.26-5.08,3.37q0,2.18,0,4.36c4.37-1.33,8.42-2.83,9,4.49.16,2,3.56,4.44,5.94,5.21,1.69.54,4.17-1.4,6.3-2.23-1-1.64-1.75-4.36-3.13-4.75-11.27-3.18-6.89-8.85-2.86-14.89,2.1-3.15,1.65-3,4.7-1.67,1,.46,3.07-1.32,4.65-2.08-4.15.35-4.79-2.25-4.23-5.4.19-1.09,1.4-2,2.14-3l3.53,6.93c7.06-3.08,13-11.33,12.11-18.77-.61-5.17,2.21-4.37,5-4.34,4.65,0,9.32,0,13.93.53,1.73.18,4.53,1.5,4.72,2.64.38,2.35-.67,4.93-1.13,7.42A36.77,36.77,0,0,0,208.48,93c-3.31-.7-6.69-1.11-10-1.64.22,3.74.2,7.51.73,11.2.45,3.11,1.64,6.11,2.25,9.2.16.8-.5,2.51-1,2.58-11.75,1.71-6.61,13.08-10.77,19.19-2.22,3.26-2.89,5.91-7.68,4.59-1.66-.46-4,2-6.17,2.87s-5,2.83-6.77,2.17c-3.15-1.2-6.17-5.81-6.35,1.92-.89-.49-2.41-.83-2.56-1.49-.66-2.93-.54-6.09-1.5-8.88-.42-1.23-2.76-1.8-4.23-2.67,1.67,4.32,3.64,8.53-4.46,6.15-3.11-.91-6.67-.27-10-.34.64,9.51,6.52,15.54,13.54,21,1.93,1.5,2.9,4.24,4.3,6.41-3.82,1.74-7.62,3.53-11.52,5.08a4.54,4.54,0,0,1-1.76-2.73c.47-5.53-2-8.33-7.23-9.93-1.19-.37-1.79-4-1.9-6.12s.7-4.51,1.11-6.77l-6.68.29a119.25,119.25,0,0,1-8,9.89c-.94,1-3.3.53-5,.73q0-2.42,0-4.84l-2.9-8.68c-5.44,1.12-10.89,2.15-16.31,3.37-8,1.81-11.38,7.78-9.62,16.1.24,1.13-1,3.64-1.92,3.79-8.92,1.57-9.85,9.33-12.69,15.68-1.58,3.54-3.43,6.95-5.2,10.4s-3.3,6.73-5.24,9.92c-.92,1.5-2.54,2.57-3.85,3.83-.36-1.62-1.24-3.34-1-4.84.64-3.49,2.06-6.84,2.7-10.33.21-1.15-.74-2.8-1.64-3.78A28.71,28.71,0,0,0,54.75,183c1.14-1.54,1.95-3.75,3.48-4.5,5.31-2.59,6.84-6.54,3.22-10.89-3.3-4-3.06-7.79.49-9.74,3.75-2.06,9.9-4,12.87-2.27,4.5,2.59,5.26,3.28,6-2.22.22-1.71,2.58-3.1,3.82-4.73,1.93-2.52,3.46-5.08-1.16-6.47-5.06,1-10.12,2-15.2,2.82-.84.14-2.48-.24-2.61-.7-1.92-7-7.23-3.07-11.14-3.54l-1.42,4.33q0,1.43,0,2.86c4.67,2.54,1.08,3.79-.69,5.74-3.36,3.73-6.37,7.77-9.53,11.69q0,8,0,15.91c-.08,6,2.53,12.52-2.94,17.66-.61.57-1.17,1.19-1.76,1.79-.28-.61-.89-1.28-.79-1.82,1.38-7.71-3.05-4-6.06-3.13l-1.45,2.93,1.4,5.76q0,.72,0,1.44,0-.72,0-1.44h-7.2L20,210.39q-.71,7.21-1.43,14.42l-1.63,5.76-1.49,5.76c2.62,4.27,1.86,7.7-2.53,10.23q-.18,2.16-.37,4.31c-5.28,6.32-3.75,23.23,2.89,31.8l.45,2.85q0,2.23,0,4.46-.17,4.34-.34,8.68c-5.41,10.2-7.82,20.68-3,31.83h0c-.43,2.26-1.43,4.58-1.2,6.77.85,8.3,2.09,16.55,3.18,24.83-.15,2.88-.37,5.75-.45,8.63-.17,5.88,1.24,10.27,8.57,9.86,1.72-.1,3.51,1.15,5.27,1.78-2,4.48,1.93,10.44.85,12.29-3.89,6.65,1.26,7.89,4.31,10.7L41.39,413l3.08,13c1.52.16,3-.55,4.53-1.15-1.51.59-3,1.31-4.53,1.15l8.61,7.1a8.79,8.79,0,0,1,.27-1.32,8.79,8.79,0,0,0-.27,1.32c9.13,1.32,13.75,8.4,19,14.75a79.67,79.67,0,0,0,5.66,5.64,24.83,24.83,0,0,0,5.11.44c3.54-.41,7.12-1.93,10.54-1.57,3.94.41,7.1,1.58,9-3.51.51-1.38,4.21-2.62,6.14-2.26,8.12,1.51,16.12,3.64,24.16,5.55q0-2.89,0-5.78l-4.27-.08c-7.44.06-10.4-1-10.59-5,.19,4.08,3.15,5.09,10.59,5-.35-3.92,1.43-6.12,5.37-5.67a57.15,57.15,0,0,1,9.6,2.32,12.34,12.34,0,0,1-.73,3.49c-.79,1.95-1.81,3.8-2.74,5.69l4.45,2.72a5.93,5.93,0,0,0,1.38.21,34.09,34.09,0,0,1,4.39,2.09c3.84,2.52,6.7,3.3,8.34-2.5.58-2,3.19-3.52,4.88-5.25a38.25,38.25,0,0,1,3,5.59c2.12,6.26,5.45,10.12,12.71,7.37-1.95-4.39-3.53-8.77.07-13.12,2.54-6.23.11-8.78-6.25-8.72-1.48,0-3-.75-4.45-1.16.82-1,2-2,2.39-3.16,1-2.82,1.69-5.77,2.5-8.66l-1.46-1.44c-5-3.16-9.83-4.81-14.08,1.35-.58.84-3,1.46-3.65,1a4.91,4.91,0,0,1-1.63-3.9c.58-4.28-.3-7.09-5.25-7.11.4-2,.31-4.42,1.36-6a5.56,5.56,0,0,1,4.66-2.08c1,.2,2.11,2.8,2.17,4.36.2,6.08,1.87,7.18,7.66,5.31,4.24-1.37,8.69-2.05,13.05-3l2.95-4.33q3.1-2.91,6.19-5.83c1.26-1.2,2.51-2.41,3.77-3.62-1.89-1.6-3.59-3.6-5.75-4.6-.85-.39-2.91,1.29-4.09,2.38a20.3,20.3,0,0,0-2.63,3.79,24.08,24.08,0,0,0-.9-4.61,6.29,6.29,0,0,0-2.42-3c-.46-.27-2.27.72-2.62,1.51-1.69,3.87-3,7.91-4.66,11.79-.56,1.3-1.77,2.33-2.68,3.48-1-1-2.36-1.93-3-3.17-2.07-4-2-9.89-8.71-9.69h0l-1.12,2.26-1.8-2.25h2.92c2-2.81,3.7-7.8,5.93-8,8.52-.89,18.75-8.92,20.22-17.27.3-1.71,1.5-3.3,2.43-4.86a41.55,41.55,0,0,0,2.57-3.84c.1-.23-2.08-2.08-2.52-1.86a20.77,20.77,0,0,0-4,3.29c-1.14,1-2.45,3.09-3.29,2.9-1.36-.3-3.31-2-3.35-3.22,0-1.39,1.41-3.24,2.72-4.16,5.27-3.69,10.8-7,16.12-10.63,3.05-2.08,4.66-1.91,5.32,2.11.84,5.15,4.15,5.8,8.6,4.35a31,31,0,0,1,5.67-.78l-.09-7.2c-1.16-.18-2.7.06-3.43-.6-5.62-5.08-11-4.54-17.87-1.71-3.54,1.47-8.82-1.26-13.32-2.09-2.85-.41-4.41.27-5.19,1.72a4.87,4.87,0,0,0-.41,1.08,8.24,8.24,0,0,0-.22,1.29,8.24,8.24,0,0,1,.22-1.29,4.87,4.87,0,0,1,.41-1.08c.78-1.46,2.33-2.14,5.19-1.72,1-1.26,2-2.47,2.82-3.81a9.85,9.85,0,0,0,.75-2.51c-9.89.21.37-8.25-4.41-10.25l5.22-6.57h0c-.38-2.11,3.89-7.11-3.22-5.12-.6.17-1.57-1-2.37-1.55,2.25-2,4.28-4.41,6.84-5.87,1.25-.71,3.5.31,5.3.55-.36,2.15-.67,4.31-1.1,6.44-.27,1.35-.71,2.67-1.07,4a68.4,68.4,0,0,0,4.31,5.38,36.44,36.44,0,0,0,4.34,3.36c2.13-.92,4.19-2.15,6.41-2.62,1.11-.24,2.54.87,3.79,1.44,1.92.86,3.83,1.77,5.74,2.66l1-20.41c-1.86-.38-3.73-.74-5.59-1.15-1.58-.36-3.14-.79-4.71-1.18a32.61,32.61,0,0,0,4.53-2.08c1.08-.7,2.8-2.44,2.62-2.74a12.06,12.06,0,0,0-3.69-4c-4.39-2.72-9.23-4.8-13.31-7.89-1.42-1.08-1.15-4.4-1.66-6.69,1.69.47,3.4,1.36,5.07,1.3,1.46-.05,2.9-1.15,4.32-1.84,1.19-.58,2.68-2,3.41-1.68,1,.46,1.57,2.16,2.09,3.43.65,1.61,1.07,3.32,1.58,5a38.35,38.35,0,0,1,2.27-4.12c.33-.47,1.28-.52,2-.75,0-9.61.33-19.22,0-28.82-.37-11.31-.83-11.53-11.73-11.77a58,58,0,0,0-7.2-.07c-4.55.47-5.67-1.64-5.75-5.85-.19-10.52-1-21-1.13-31.55,0-2.48,1.75-5,2.7-7.47,5.31,0,10.62-.12,15.91.16,4.3.22,6.16-1.21,5.89-5.75-.32-5.29.27-10.64-.15-15.91-1-12.53,1.59-24.37,6-36-3.71-4.92-3.33-9.88-.13-14.86-5.86-3.5-7.34-.33-7.13,4.86.24,6-2.11,8.14-7.57,6.55-.82-.24-2.17-1.08-2.11-1.44a4.07,4.07,0,0,1,1.56-2.65c4.54-2.58,8.26-5.06,1.74-9.69-.55-.39-.4-3.09.29-3.65,2-1.61,4.78-4.13,6.57-3.65,3.65,1,6.94,3.52,10.13,5.76.49.34-.35,2.56-.58,3.92l4.58,6,24.41-12c-1-1.68-2.1-3.35-3.1-5.05-.88-1.5-2.73-3.62-2.28-4.45a7.65,7.65,0,0,1,4.69-3.25c2.52-.56,5.27,0,7.87-.3.92-.1,1.72-1.25,2.57-1.93C251.76,107.51,251.08,106.4,250.16,106.13ZM141.38,349.29l1.43-1.44.72,2.14-2.15-.71h0Zm-4.35,0c.42,1.06.57,2.77,1.32,3.09,8.41,3.64,2.24,8.39.6,12.33-.27.65-5-.57-7.7-.93h0c0-1.17.26-2.51-.2-3.49-3.55-7.75-3.59-7.73,5.28-10.92a3,3,0,0,1,.7-.08ZM31.32,274l1.42,10.12h0l-.53.08.53-.08Zm101.12-25c1.63.35,3.38.09,5,.39,2.66.48,7.41.91,7.53,1.87.51,3.84.61,8.37-1,11.72-2.36,4.81-5.67,8.53,2.8,10,.67.12,1.61,4.21,1.12,4.55a35.62,35.62,0,0,1-9.55,5c-3.62,1.08-4.21-2.12-6.18-4.59-4.9-6.17-6.93-15.71-16.81-17-.11.74-.06,1.73-.16,2.47.11-.74.05-1.73.16-2.47q0-2.15,0-4.31h0C120.56,246.92,121.3,246.62,132.45,249Zm-.82-6.35a44.94,44.94,0,0,1,3.8-5.74l3.93,5c-1.69,1-3.28,2.32-5.11,2.9C133.63,245,131.5,242.93,131.63,242.66ZM79.1,414.48a16.3,16.3,0,0,0-.3-2.85,6,6,0,0,0-.43-1.33,6,6,0,0,1,.43,1.33,16.3,16.3,0,0,1,.3,2.85l.78.35Zm-46.35-113L33,301c.32-.63.62-1.33.91-2-.3.69-.59,1.39-.91,2l-.25.46Zm4.51-17a4.91,4.91,0,0,0,1-1.16A4.91,4.91,0,0,1,37.26,284.53Zm-1.88.61a2.89,2.89,0,0,0,.53,0A2.89,2.89,0,0,1,35.37,285.14Zm67.35,59.74a15.17,15.17,0,0,1-.59-1.59,15.17,15.17,0,0,0,.59,1.59c1,2.26,2.69,3.83,6.79,3,1.68-1.57,3.61-3,4.7-4.84-1.09,1.79-3,3.27-4.7,4.84,0,.33-.09.66-.13,1,0-.33.09-.66.13-1C105.42,348.71,103.72,347.14,102.72,344.88Zm-38.21,59.7c.05-2.85,1.56-8.46,3.27-12.37C66.08,396.12,64.57,401.73,64.51,404.58Zm-6.74.89a4,4,0,0,1-.59-1A4,4,0,0,0,57.78,405.47Zm24-48.75a6.21,6.21,0,0,1,.68-1.23,6.21,6.21,0,0,0-.68,1.23,10.85,10.85,0,0,0-.51,1.54A10.85,10.85,0,0,1,81.78,356.72Zm4.12-9.59a1.36,1.36,0,0,1-.12-.29A1.36,1.36,0,0,0,85.9,347.13Zm.79.73-.16-.1ZM85.75,354a3.76,3.76,0,0,0-1.9.32A3.76,3.76,0,0,1,85.75,354Zm2.09,9.84,1.39-8.72h0l1.47-5.77h0l-1.47,5.77-1.39,8.72,4.28,2.86h0l-4.28-2.86ZM67.22,332.47h0l.49.42c.51.42,1.07.83,1.65,1.25-.58-.42-1.14-.83-1.65-1.25Zm-5.91,33.84a5,5,0,0,0-.94.42,4.75,4.75,0,0,0-.74.53A5.22,5.22,0,0,0,59,368a6.47,6.47,0,0,0-.59.91A6.47,6.47,0,0,1,59,368a5.22,5.22,0,0,1,.67-.71,4.75,4.75,0,0,1,.74-.53A5,5,0,0,1,61.31,366.31Zm.79-.21-.18,0Zm7.83-31.54,1.15.83Zm-2.87,49.29c-1.61,2.66-3.21,5.33-4.76,8C63.85,389.18,65.45,386.51,67.06,383.84ZM74,365.94c.88-.18,1.76-.38,2.61-.64C75.75,365.55,74.87,365.75,74,365.94Zm30.87-78.58c-1.33-.11-2.76-.11-4-.31l-3,7.19c.82,1,1.74,2,2.55,3.1-.81-1.05-1.73-2.05-2.55-3.1h0l3-7.19C102.1,287.25,103.53,287.24,104.86,287.35ZM66.07,314.53a29.34,29.34,0,0,0-4.85.12,29.35,29.35,0,0,1,4.85-.12Zm-9.53,3.56a5.27,5.27,0,0,1,.77-1.44A5.27,5.27,0,0,0,56.53,318.09Zm1.64,87.8c1.42,1.31,3.83,1.61,6.45-.14h0C62,407.51,59.59,407.21,58.17,405.89Zm28.17-37.74,1.44,4.32,5.81,8.68-5.81-8.68-1.44-4.32Zm26,27.65a4,4,0,0,1-.27,1.27A4,4,0,0,0,112.32,395.81ZM25.23,271.19a13.16,13.16,0,0,1-.28,1.39A13.16,13.16,0,0,0,25.23,271.19Zm-.47,2.11c-.14.48-.3,1-.46,1.44C24.46,274.25,24.62,273.77,24.76,273.3ZM24,275.46c-.22.62-.45,1.23-.66,1.85C23.59,276.7,23.82,276.08,24,275.46Zm-1.44,6.28q0,1.93,0,3.86h0Q22.61,283.67,22.6,281.74ZM79,417.31h0l-7.14,16h0Zm1.31-2.3,1.81.75Zm5.64,9.28a6.77,6.77,0,0,1-1-1.55A6.77,6.77,0,0,0,85.95,424.29ZM149,223.91c1.82.13,3.49,2.4,5.22,3.73l-7.33,5.66-4.42-5.81C145.34,225.82,147.28,223.78,149,223.91Zm-14.44-17.34,4.33,4.09L136.65,212c1.19,3.21,3.38,6.45,3.25,9.61-.1,2.64-2.69,5.37-4.69,7.59-.45.5-3.33-.61-4.64-1.58-3.74-2.76-5.87-5.27.66-7.83,1.39-.55.88-5.61,1.51-8.53A27.89,27.89,0,0,1,134.61,206.56ZM102.21,148.9c.69,1.85,1.33,2.81,1.3,3.75,0,.68-.95,1.32-1.47,2-.74-.76-2-1.47-2.07-2.29S101,150.62,102.21,148.9ZM79.14,182a33.52,33.52,0,0,1,3.48.27c3.18.57,6.34,1.23,9.51,1.86h0a4.87,4.87,0,0,0-.23-1.37c-3.46-7.11-3.46-7.11,4.55-7.34,1,.74,2.43,1.28,2.91,2.27a82.7,82.7,0,0,1,2.92,7.88c3.85-1.32,8.82-.19,10.92-5.49.29-.73,3.51-.29,5.37-.39-.7,1.72-1,3.75-2.17,5.09a81.53,81.53,0,0,1-6.86,6.55c3,1.43,5.85,3.43,9,4.1,2.6.55,5.55-.81,8.32-.68,1.85.09,3.64,1.31,5.45,2-1.12,1.09-2.06,2.75-3.39,3.16-4.35,1.34-8.61,2.28-3.76,7.93.62.72.55,2,.79,3.06a16,16,0,0,1-2.7.27c-9-.6-23.1,7.65-26.13,15.68-.59,1.56.13,3.65.37,5.47.21,1.55.61,3.08.92,4.62a34.67,34.67,0,0,1-5.41-.28,37.22,37.22,0,0,1-5.24-1.85l1.47-7.27c-1.28.19-2.56.45-3.84.67,1.28-.22,2.56-.48,3.84-.67a9.2,9.2,0,0,1,1.83-2.12c9.41-5.72,6.88-14.92,6.83-23.37a7.32,7.32,0,0,0-.53-2.66c-8.3.38-2.73-6.79-5.22-9.5-4.44-.66-8.92-1.19-13.27-2.23C78.53,187.66,79,184,79.14,182ZM31.27,208.79h0c1.66.53,3.78,2,4.89,1.41,3-1.51,3.62-1.29,5.58,2,5.33,8.82-1.54,7.39-6,8.26l0,4.29a20.17,20.17,0,0,0,8.78,2,20.18,20.18,0,0,1-8.78-2q0-2.15,0-4.3c-3.08-1.92-7.47-7.4-6.19,2.39.11.82-1.65,1.89-2.53,2.84-.92-.94-2.55-1.82-2.64-2.84C23.79,216.82,24.5,211.25,31.27,208.79Zm15.21,17.68a13.29,13.29,0,0,1-1.81.22A13.28,13.28,0,0,0,46.48,226.46Zm-6.4,156.08c.65-2.31,1.4-4.59,2-6.91-.61,2.32-1.36,4.6-2,6.91.28,1.88.51,3.77.81,5.64C40.59,386.31,40.36,384.43,40.08,382.55Zm3.64,21.06.7,5.16h0Zm2.65,1.49c.56-2.44-.54-4.66-3.35-6.65h0c-.61-2.79-1.28-5.57-1.81-8.38.52,2.81,1.2,5.59,1.81,8.38C45.82,400.43,46.92,402.65,46.37,405.09Zm3,19.62a7.47,7.47,0,0,1,2.55-.58A7.47,7.47,0,0,0,49.38,424.72ZM54,430.35a4,4,0,0,0-.49.89,4,4,0,0,1,.49-.89,2.79,2.79,0,0,1,.64-.62A2.79,2.79,0,0,0,54,430.35Zm18.85,3.45.61.29ZM74.76,447l1.08,2.83h0ZM89,426.63c1.45.83,3.06,1.53,4.55,2.33h0C92,428.16,90.44,427.46,89,426.63Zm66.47-48.78c-.76,1.52-2.59,2.5-3.38,3.19-7.29-2.23-6,.15-4.15,3.87.67,1.36-.19,4.35-1.39,5.51-1,1-3.52.31-5.37.37.17-1.66.37-3.32.52-5,.11-1.29.16-2.59.24-3.89-1.57.15-3.14.38-4.71.44-1.88.06-3.77,0-5.66,0,1-1.76,1.78-3.86,3.2-5.23,5.48-5.29,12.08-5.06,18.72-2.88C154.5,374.55,155.84,377.1,155.47,377.85Zm-6.58-47.75c-.23-1.68-.4-3.37-.6-5.06,2.18-.19,4.6-1.1,6.5-.45,6.06,2.07,7.54,1.25,8.31-5.68,4.25,1.42,5,5.75.65,8-6.16,3.18-6.44,8.59-8,14-1.4,4.88-3.77,9.48-5.71,14.2-.56-7-6.66-13.8-.61-21.09C150,333.33,149.07,331.43,148.89,330.09Zm20.23-16.51c-1.84,1.93-4,3.56-6,5.31l-4.34-4.36-4.36,0c-2.72,8.32-7.87,10-13,4.35l-5.81,2.9-1.46,2.92q0,2.17,0,4.34l3,1.48,5.15-.46-5.15.46-2.48,3.56-.47-5q0-2.17,0-4.34l1.46-2.92,5.81-2.9c1.74-9.23,7.42-6.66,13-4.35l4.36,0c3.62-2.38,7.18-4.85,10.91-7,.57-.33,1.95.74,3,1.16A39.56,39.56,0,0,1,169.12,313.58Zm25.76-150.52c-.4,2.91-1.08,6.11-2.7,8.45-2.19,3.18-4.48,3-6-1.28-.67-1.89-2.81-3.27-4.28-4.88-4.49.41-9,.91-13.46,1.14a4.42,4.42,0,0,1-3-1.45c-.43-.46-.34-2.28.06-2.5,2.77-1.53,3.64-8.89,9.12-2.84,1.55,1.71,4.82,1.86,7.31,2.72,2.51-.74,5.21-1.12,7.48-2.31C193.11,158.2,195.6,157.89,194.88,163.06Zm28.38-57.86a50.62,50.62,0,0,1-11.56,3.25c-.41.08-2.11-3.27-1.87-3.49,3.49-3,7.21-5.8,10.87-8.62l1.74-1.78c.84,1.7,2.23,3.36,2.37,5.12S224.43,104.66,223.26,105.2Z" transform="translate(-9.33 -5.67)"/>
  <path class="cls-2" d="M222.49,434.76l-2.88-2.9a30.48,30.48,0,0,0-5.27-2.32A40.55,40.55,0,0,0,208,429c1.1-1.44,2-3.13,3.34-4.26,1.54-1.28,5.15-2.58,5-3a61,61,0,0,0-4-8.68h-2.88c.33-3.16-.46-7.94,1.24-9.12,3.29-2.27,7.95-2.8,12.13-3.26.61-.07,1.7,4.26,2.56,6.55-2.57,2.34-12.22,1.14-4.33,8.69,1.79,6.75,6.2,11,13.11,9.65,4.63-.88,7.08,1.08,10,3.43l-2.79,5.78c-4.28,1.31-10.31-5.33-13.07,2.87Z" transform="translate(-9.33 -5.67)"/>
  <path class="cls-2" d="M276.08,400H279c1.49,2.18,3.12,4.28,4.41,6.57.86,1.53,2.15,4.44,1.67,4.85-5.3,4.48-10.88,8.65-16.5,12.74-.88.64-2.38.42-3.6.59a13.32,13.32,0,0,1,1.19-3c2.73-3.85,5.73-7.52,8.28-11.48.51-.8-.06-3.13-.89-3.77-1.67-1.29-3.86-1.9-5.84-2.79,2-.78,4-1.53,6-2.35A25.29,25.29,0,0,0,276.08,400Z" transform="translate(-9.33 -5.67)"/>
  <path class="cls-2" d="M225.58,377.53c2.48,1,4.84,1.44,4.84,1.93,0,1.94-.18,5.09-1.3,5.61-3.8,1.74,2.1,12-7.33,8.21-1.07-.43-2.36-.26-3.51-.53-2.37-.56-4.71-1.22-7.07-1.84,1.63-2.44,2.86-5.33,5-7.2C219.11,381.13,222.71,379.36,225.58,377.53Z" transform="translate(-9.33 -5.67)"/>
  <path class="cls-7" d="M181.93,431.86c5.09-1.28,7.82-8.43,14.47-5.8,3.27,3.07,2.7,5.42-1.57,7.1-2,.79-3.85,1.94-5.79,2.88s-3.85,1.79-5.78,2.68Z" transform="translate(-9.33 -5.67)"/>
  <path class="cls-1" d="M221,415.92c-7.89-7.55,1.76-6.35,4.33-8.69,3.64,1,7.35,1.83,10.89,3.12,1.33.49,2.27,2.06,3.38,3.14-1.22.64-2.4,1.74-3.66,1.84C231,415.69,226,415.75,221,415.92Z" transform="translate(-9.33 -5.67)"/>
  <path class="cls-7" d="M208,429a40.55,40.55,0,0,1,6.36.56,30.48,30.48,0,0,1,5.27,2.32l-13.05,5.8-4.38-.06Z" transform="translate(-9.33 -5.67)"/>
  <path class="cls-7" d="M189,363.85c4.87.22,10.49,9.95,8.28,13.59-.59,1-2.24,1.3-3.4,1.92-.58-1.17-1.52-2.3-1.68-3.53-.43-3.31,1.21-7.56-4.4-8.13-.43,0-1.21-1.83-1-2.23A6.61,6.61,0,0,1,189,363.85Z" transform="translate(-9.33 -5.67)"/>
  <path class="cls-5" d="M202.18,437.6l4.38.06c-.39,2.52-.27,5.29-1.35,7.47-.8,1.62-3.17,2.45-4.84,3.64l-2.49-5.31,2.86-5.8Z" transform="translate(-9.33 -5.67)"/>
  <path class="cls-7" d="M209.45,413h2.88c1.62,6.28-3.26,11.92-9.56,11-.59-.09-1.62-.79-1.57-.95a9.05,9.05,0,0,1,1.51-3.61C204.82,417.21,207.19,415.18,209.45,413Z" transform="translate(-9.33 -5.67)"/>
  <path class="cls-5" d="M257.25,450.67c-1.26-1-2.89-1.77-3.7-3.05-1-1.65-1.42-3.72-2.08-5.61l1.44-1.45c4.35,2.14,10.38,2.85,8.67,10.16Z" transform="translate(-9.33 -5.67)"/>
  <path class="cls-5" d="M241.35,434.78l2.79-5.78c4.25.45,4.31.57,4.42,8.66l-5.8,1.46Z" transform="translate(-9.33 -5.67)"/>
  <path class="cls-2" d="M238.63,420.88c-1.57.22-2.6.68-3.14.35s-.74-1.47-1.08-2.26c.75-.26,1.65-.9,2.21-.67S237.67,419.58,238.63,420.88Z" transform="translate(-9.33 -5.67)"/>
  <path class="cls-7" d="M222.49,434.76l5.79,2.9c2.57,2.16,5.2,4.26,7.64,6.55a2.57,2.57,0,0,1-.3,2.33c-1.21.47-3.18,1.13-3.82.56-3.25-2.91-6.36-5.4-11.22-4.11-.83.22-2.17-1.51-3.27-2.33.88-1,1.77-1.93,2.63-2.91S221.64,435.75,222.49,434.76Z" transform="translate(-9.33 -5.67)"/>
  <path class="cls-6" d="M152.08,381c-7.29-2.23-6,.15-4.15,3.87.67,1.36-.19,4.35-1.39,5.51-1,1-3.52.31-5.37.37.17-1.66.37-3.32.52-5,.11-1.29.16-2.59.24-3.89-1.57.15-3.14.38-4.71.44-1.88.06-3.77,0-5.66,0,1-1.76,1.78-3.86,3.2-5.23,5.48-5.29,12.08-5.06,18.72-2.88,1,.34,2.36,2.89,2,3.63C154.7,379.37,152.88,380.35,152.08,381Z" transform="translate(-9.33 -5.67)"/>
</svg>
