<?xml version="1.0" encoding="iso-8859-1"?>
<!-- Generator: Adobe Illustrator 21.1.0, SVG Export Plug-In . SVG Version: 6.00 Build 0)  -->
<svg version="1.1" id="Layer_1" xmlns="http://www.w3.org/2000/svg" xmlns:xlink="http://www.w3.org/1999/xlink" x="0px" y="0px"
	 viewBox="0 0 486.842 500" style="enable-background:new 0 0 486.842 500;" xml:space="preserve">
<title>facebookLogo</title>
<g>
	<g>
		<path style="fill:#CAC3E0;" d="M2.921,266c0-3.333,0-6.667,0-10c1.708-12.826,4.305-25.478,7.384-38.038
			c0.803-3.273,0.656-6.653,0.419-9.949c-1.121-15.599,1.258-30.465,8.445-44.497c3.369-6.579,3.749-14.115,6.181-21.019
			c0.747-2.12-0.086-4.276-0.455-6.4c-0.491-2.828,0.272-5.015,3.332-5.725c2.311-0.536,3.623-2.144,4.948-3.912
			c2.41-3.217,4.39-6.709,5.997-10.337c10.338-23.336,25.228-43.671,41.253-63.295c14.755-18.069,34.231-29.349,55.373-37.899
			c6.238-2.523,13.124-4.947,20.321-2.981c3.976,3.498,6.198,8.222,8.38,12.839c2.192,4.638-0.029,9.096-1.749,13.446
			c-0.452,1.144-1.969,2.54-0.432,3.507c1.549,0.975,2.894-0.575,3.662-1.755c2.31-3.548,5.08-6.455,8.775-8.668
			c5.895-3.531,12.408-3.371,17.337,1.515c4.931,4.889,9.073,10.509,15.092,14.352c2.932,1.872,3.853,5.374,3.372,8.922
			c-0.247,1.818-0.242,3.682-0.62,5.45c-1.75,8.187,3.267,12.619,9.078,16.562c1.646,1.117,3.481,1.972,4.947,3.35
			c1.829,1.718,3.876,2.191,6.406,1.975c5.332-0.456,10.401,0.58,14.175,4.714c5.845,6.402,12.602,9.489,21.608,8.934
			c9.11-0.561,16.689,7.496,16.771,16.265c0.03,3.203-0.746,5.957-3.991,7.399c-7.638,0.326-15.224,1.686-22.873,1.421
			c-11.07-0.383-20.834,3.055-31.107,7.184c-15.581,6.263-20.652,17.91-22.843,32.658c-1.479,9.954-0.698,19.932-0.987,29.897
			c-0.227,7.791-2.434,10.042-10.202,10.251c-2.33,0.063-4.659-0.007-6.99-0.076c-4.829-0.142-6.401,1.068-6.606,5.933
			c-0.251,5.97-0.614,11.963,0.476,17.924c0.6,3.283,0.338,6.644,0.391,9.969c0.062,3.934,1.987,5.755,5.869,5.805
			c2.995,0.039,6-0.057,8.983,0.246c5.763,0.586,8.435,3.63,9.062,9.323c1.242,11.28,1.23,22.592,0.966,33.892
			c-0.18,7.683,1.372,15.264,1.005,22.903c-0.463,9.631-1.084,19.243-1.005,28.9c0.037,4.518,1.07,8.919,0.99,13.415
			c-0.03,1.655,0.088,3.342-0.675,4.897c-3.188,4.12-7.384,2.906-11.409,1.975c-2.25-0.52-4.256-1.857-6.533-2.427
			c-7.153-1.788-14.381,3.471-13.064,10.609c2.199,11.915-5.007,17.772-13.163,23.355c-2.205,1.509-4.586,2.743-6.094,5.018
			c-1.547,2.334-1.554,4.823,0.315,6.915c1.983,2.22,4.191,1.347,6.225-0.164c2.136-1.588,4.359-3.041,6.637-4.416
			c2.952-1.782,5.946-2.264,8.819,0.025c2.841,2.264,3.934,5.291,3.229,8.88c-0.389,1.983-1.219,3.825-2.456,5.409
			c-3.9,4.994-5.249,11.029-7.122,16.875c-1.262,3.94,0.281,7.225,2.111,10.404c5.015,8.713,2.93,18.116,2.817,27.325
			c-0.012,0.978-0.71,1.846-1.5,2.518c-3.262,1.018-6.38,1.848-8.908,4.766c-2.509,2.896-5.938,1.526-6.616-2.062
			c-0.372-1.968,1.13-4.444-1.605-5.769c-2.651-1.285-5.43-1.48-8.285-1.017c-1.143,0.185-2.236,0.69-3.431,0.529
			c-3.124-0.422-4.553-2.681-5.263-5.336c-0.677-2.534-2.01-3.977-4.559-4.673c-9.145-2.498-18.413-4.468-27.654-6.543
			c-3.342-0.75-6.654-0.347-9.201,2.464c-0.439,0.484,0.204-0.005-0.369,0.331c-5.708,3.346-12.318,1.936-18.45,3.331
			c-6.656,1.513-11.592-2.95-15.267-8.324c-4.168-6.095-9.614-10.315-16.611-12.941c-6.073-2.279-10.083-6.762-11.294-13.505
			c-1.045-5.817-4.068-10.507-9.174-13.679c-4.478-2.781-7.071-6.35-5.96-12.006c0.583-2.965-0.725-5.905-0.995-8.882
			c-0.197-2.18-1.961-2.768-3.767-3.441c-7.633-2.844-8.833-4.704-9.027-12.889c-0.424-17.927-2.261-35.791-2.356-53.735
			c-0.033-6.214,0.768-12.276,2.901-18.108c1.735-4.746,1.817-9.408,0.02-14.135C4.367,276.833,4.095,271.318,2.921,266z"/>
		<path style="fill:#AFA8D2;" d="M279.946,118.952c2.572-12.113-2.294-19.661-14.631-19.657c-9.125,0.003-16.413-2.213-21.787-9.307
			c-6.173-8.15-16.528-2.131-24.274-8.532c-8.659-7.155-11.97-13.375-11.564-24.705c0.455-12.709-12.902-17.663-21.108-24.391
			c-6.654-5.456-12.955,1.579-17.798,7.489c-2.201,2.685-7.727,6.512-8.39,5.94c-3.365-2.909-0.984-6.551,0.936-9.673
			c5.881-9.56-3.222-15.55-5.447-23.174c0.13-2.482,2.007-2.891,3.851-2.961c15.973-0.611,31.413-5.281,47.356-6.207
			c2.582-0.15,5.321,0.394,7.83-0.772c5,0,10,0,15,0c7.54,1.063,15.164,1.101,22.728,1.953c20.639,2.324,40.572,7.284,59.559,15.747
			c11.706,5.217,23.474,10.301,35.115,15.656c14.875,6.843,28.77,15.224,40.988,26.342c23.992,21.831,43.351,47.232,59.205,75.416
			c0.982,1.745,1.971,3.516,3.248,5.031c12.094,14.358,15.884,31.867,19.27,49.633c3.979,20.879,7.592,41.854,13.887,62.222
			c0,1.333,0,2.667,0,4c-2.712,6.333-0.719,12.667,0,19c0,4,0,8,0,12c-3.436,3.313-8.204,2.3-10.837-2.301
			c-0.847-1.481-1.037-3.108-1.231-4.774c-0.517-4.459-3.539-6.913-7.852-5.872c-4.211,1.016-8.522,1.18-12.74,2.149
			c-6.233,1.433-11.846-2.209-13.705-8.364c1.087-3.412,3.428-4.28,6.9-4.086c6.299,0.353,11.578-2.23,16.031-6.64
			c2.623-2.598,2.368-5.137-0.439-7.126c-3.531-2.503-6.802-5.272-10.056-8.107c-3.074-2.677-6.434-3.155-9.91-0.406
			c-1.949,1.542-4.097,2.825-5.664,4.818c-3.878,4.931-3.755,6.453-0.545,11.957c1.691,2.9,5.578,5.182,3.554,9.535
			c-0.931,1.296-2.39,1.819-3.746,2.387c-6.396,2.678-9.039,7.666-8.542,14.302c0.507,6.767-1.729,13.445-0.033,20.307
			c0.847,3.428-1.772,6.644-3.062,9.857c-0.962,2.396-1.509,4.576-0.638,7.198c1.279,3.851,0.473,7.751-1.686,11.018
			c-2.471,3.74-4.849,7.54-7.319,11.28c-1.852,2.806-4.365,4.818-7.932,3.993c-3.859-0.892-5.604-3.898-6.362-7.56
			c-0.701-3.387,0.634-6.588,0.976-9.878c0.624-6-3.43-10.065-9.295-8.935c-3.929,0.757-7.82,1.603-11.852,1.389
			c-2.62-0.139-3.471,0.982-3.131,3.65c0.4,3.128,0.608,6.268,1.195,9.39c0.854,4.539-0.875,6.464-5.463,6.889
			c-4.949,0.458-9.08-1.552-13.107-4.023c-4.257-2.612-7.977-6.035-12.39-8.384c-2.468-1.314-4.902-4.356-8.044-1.642
			c-2.742,2.369-0.948,5.25-0.17,7.886c1.495,5.066,1.786,10.142,0.268,15.24c-1.842,6.185-8.262,8.025-12.137,2.853
			c-6.016-8.029-13.965-7.717-22.074-6.15c-4.965,0.959-9.552,1.012-14.16-0.749c-3.916-1.496-7.449-1.214-10.79,1.409
			c-2.035,1.598-4.327,2.482-6.988,1.917c-8.901-1.5-13.174-9.047-19.021-14.546c-1.258-3.002-1.223-6.172-1.236-9.334
			c-0.058-13.473,0.034-26.947-0.057-40.409c0.318-5.296,1.11-10.577,0.843-15.92c-0.069-1.373,0.202-2.818,1.674-3.326
			c1.599-0.552,2.923,0.343,4.003,1.452c2.005,2.058,2.977,4.703,2.166,7.356c-2.074,6.78,0.771,10.831,6.286,14.504
			c10.039,6.685,14.23,5.924,20.085-4.859c2.147-3.953,3.479-8.854,6.864-11.498c6.21-4.851,9.669-10.838,11.75-18.193
			c0.887-3.135,4.049-4.749,7.057-5.948c4.429-1.765,7.009-4.78,7.336-9.718c0.268-4.045,2.817-6.426,6.683-6.956
			c5.592-0.767,9.986-3.369,13.594-7.599c1.182-1.386,2.559-2.627,4.033-3.727c6.39-4.768,11.385-4.239,16.552,1.776
			c0.649,0.756,1.181,1.613,1.965,2.252c1.203,0.98,2.518,1.793,4.106,1.173c1.639-0.64,1.881-2.173,2.001-3.721
			c0.478-6.146-2.539-10.515-8.413-12.517c-4.353-1.483-9.208-1.316-13.058-4.554c-3.057-2.57-4.387-5.417-3.083-9.2
			c2.408-6.986-0.313-13.084-3.323-19.049c-1.171-2.32-3.6-3.386-6.213-3.73c-3.636-0.48-7.116-1.678-10.664-2.517
			c-8.153-1.931-11.925-10.064-6.84-16.616c5.597-7.212,5.232-12.775,0.117-19.897c-4.243-5.909-2.375-9.016,4.848-11.047
			c6.6-1.855,6.888-2.916,2.542-8.112c-1.53-1.829-3.323-3.317-5.296-4.498c-4.268-2.555-9.561-0.769-10.178,4.025
			c-1.363,10.592-10.453,12.997-17.51,17.504c-2.653,1.694-4.179-0.731-5.277-2.947c-0.176-0.467-0.374-0.957-0.334-1.445
			C285.378,127.266,284.204,122.546,279.946,118.952z"/>
		<path style="fill:#BAB2E0;" d="M437.92,269.996c6.092,10.841,15.412,6.525,24.103,5.123c6.866-1.107,12.253-0.93,12.132,8.623
			c-0.073,5.797,4.307,7.575,9.767,6.258c0,1,0,2,0,3c-1.504,8.639-1.985,17.42-3.663,26.04c-0.587,3.012,0.571,5.924,1.207,8.841
			c1.604,7.347,2.171,14.481-3.417,20.682c-1.702,1.889-2.259,4.431-2.902,6.842c-5.726,21.461-17.162,39.486-32.959,54.9
			c-2.276,2.221-4.711,4.516-7.575,5.596c-5.058,1.908-7.843,5.842-10.858,9.835c-8.675,11.488-19.363,20.514-32.752,26.125
			c-16.868,7.07-33.213,15.32-50.164,22.201c-18.805,7.634-37.796,14.713-57.589,19.43c-3.959,0.943-8.017,1.063-11.909,0.518
			c-17.529-2.456-34.802,0.101-52.092,2.274c-3.782,0.475-7.623-0.566-11.325,0.716c-4.333,0-8.667,0-13,0
			c-6.395-2.484-10.423-7.323-13.061-13.417c-1.978-4.569-4.097-8.973-8.025-12.267c-1.283-1.076-2.135-2.522-1.904-4.35
			c5.124-16.156-10.121-30.957-3.147-47.222c1.233-2.875,2.494-5.759,4.027-8.478c2.4-4.256,6.678-8.377,1.509-13.227
			c-5.126-4.81-7.993,1.299-11.418,3.171c-4.077,2.229-7.82,6.572-11.814,0.739c-4.168-6.087-0.48-10.674,4.569-13.621
			c9.596-5.602,15.767-11.68,14.819-24.681c-0.734-10.069,7.774-13.05,17.404-10.537c4.576,1.194,9.263,1.965,13.899,2.928
			c0.834,0.271,1.414,0.848,1.808,1.599c3.344,6.376,3.327,6.256,10.647,5.454c5.768-0.632,11.589-0.4,17.376-0.242
			c7.047,0.193,13.854-0.788,20.476-3.136c2.008-0.298,3.903,0.187,5.767,0.892c2.989,1.13,5.442-0.411,5.736-2.906
			c0.598-5.071,3.437-5.372,7.304-4.668c13.331-9.29,28.347-0.431,42.326-3.769c2.779-0.664,6.595,1.589,9.502,3.25
			c3.525,2.015,5.396,9.599,10.377,5.588c4.42-3.56,3.331-10.288,2.039-15.916c-0.982-4.277-4.694-8.727,0.635-12.669
			c5.192-3.84,8.249,1.377,11.923,3.146c3.547,1.707,6.591,4.458,9.864,6.738c4.901,3.415,10.907,7.144,15.829,3.491
			c2.022-1.501-0.102-9.516-1.391-14.283c-1.251-4.629-0.627-5.753,4.214-4.916c3.013,0.521,6.357,0.247,9.359-0.474
			c12.876-3.091,17.882,1.848,15.076,14.578c-1.081,4.904-1.077,9.772,3.895,11.478c4.973,1.706,6.222-3.781,8.207-6.993
			c10.691-17.296,9.078-36.903,10.049-55.931c0.519-10.174,5.565-15.081,15.129-16.346L437.92,269.996z"/>
		<path style="fill:#CAC3E0;" d="M252.828,288.099c-0.26-14.099-1.971-28.392-0.132-42.212c0.842-6.332,10.601-2.751,16.298-3.764
			c5.525-0.982,14.408,3.202,15.813-4.214c2.326-12.276,7.787-26.252,0.989-37.306c-4.357-7.084-16.541-1.311-25.081-2.673
			c-3.43-0.547-9.722,2.611-9.488-3.697c0.403-10.839-8.113-23.701,5.925-31.963c1.478-0.87,3.68-1.29,5.343-0.944
			c23.988,4.996,27.696-8.061,24.544-27.339c0.785,0.627,1.569,1.254,2.354,1.88c4.313-5.522,14.013-5.085,15.512-13.486
			c1.044-5.851,2.848-10.649,9.711-10.277c7.562,0.41,12.707,6.212,14.488,12.036c1.739,5.686-5.78,5.207-9.679,6.591
			c-7.933,2.816-1.861,7.012-0.258,9.109c4.845,6.335,4.83,11.088,0.156,18.116c-10.715,16.111,4.959,15.501,13.228,17.677
			c13.733,3.614,15.08,14.178,12.833,24.206c-1.838,8.207,2.367,9.166,7.119,11.047c3.517,1.392,7.58,1.495,10.978,3.078
			c5.885,2.742,6.463,8.555,6.257,14.122c-0.071,1.93-1.658,5.043-3.148,5.454c-4.937,1.36-7.135-2.809-9.829-6.018
			c-2.533-3.017-5.892-4.634-9.658-1.968c-7.674,5.432-17.937,9.962-23.006,15.355c-5.937,6.316-14.614,12.867-17.814,20.75
			c-5.469,13.472-17.188,21.922-23.325,34.492c-1.434,2.937-4.717,7.271-9.164,5.05c-6.836-3.415-14.986-5.998-17.49-14.368
			c-1.405-4.696,4.588-10.754-2.398-14.741C253.546,277.428,253.187,282.763,252.828,288.099z"/>
		<path style="fill:#CAC3E0;" d="M437.926,270.001c-3.665-5.338-10.937-9.495-8.093-17.238c2.411-6.562,8.072-12.834,14.88-12.191
			c8.39,0.792,17.918,7.928,19.026,14.549c1.783,10.65-9.508,12.441-18.263,13.862c-2.508,0.407-5.037,0.679-7.556,1.013
			C437.92,269.996,437.926,270.001,437.926,270.001z"/>
		<path style="fill:#CAC3E0;" d="M253.895,360.98c0.026-6.664,0.052-13.329,0.078-19.993c5.641,4.014,11.281,8.028,16.921,12.042
			C264.284,353.664,265.067,370.102,253.895,360.98z"/>
		<path style="fill:#CAC3E0;" d="M334.615,248.769c2.12,2.968,4.346,4.806,4.543,6.84c0.119,1.223-2.828,3.663-4.578,3.848
			c-1.319,0.139-4.236-2.569-4.111-3.768C330.685,253.616,332.708,251.731,334.615,248.769z"/>
	</g>
</g>
</svg>
