<svg xmlns="http://www.w3.org/2000/svg" viewBox="0 0 481.18 459.32"><title>instagramLogo</title><path d="M28,373.86,12.9,326c-1-2.59.78-3.58,2.59-4.44,10.58-5,18-12.75,21.43-24.13,1.75-5.74,5.53-9.34,11.91-9.43,5.44.26,10.8,2,16.31.82a2.5,2.5,0,0,1,3,1.16,2.77,2.77,0,0,1-.44,3.26c-2.33,2.83-4.06,6.08-6.32,9s-2.39,5.77.11,8.57,5.43,2.87,8.59,1.24a21.73,21.73,0,0,0,4.83-3.51,42.23,42.23,0,0,1,5-4.12C90,297.49,97,299,102.76,309.77c4.22,7.92,7.8,16.19,14.53,22.48,2,3.91,2.87,8.2,3.59,12.42,1.37,8,5.75,14.11,11.76,19.11,9.61,8,20.54,12.46,33.3,12.72,19.13.39,38.19-1.47,57.31-1.08,2.48.05,5-.22,7.42.52,2.24.93,1.43,2.2.31,3.43-1.57,1.72-3.45,3.15-4.86,5-2.87,3.76-1.64,8,2.87,9.51a12.56,12.56,0,0,0,11.43-1.5c3.44-2.31,6.27-5.47,10.15-7.17,7.25.66,14.33,2.47,21.64,2.86,3.27.18,6.14,2.38,8.76,4.47a82.55,82.55,0,0,0,8.4,6.21c6.35,3.84,12.14,1.62,14.28-5.54,1.26-4.21.81-8.55.61-12.86-.08-1.8-.69-3.63.41-5.34,4-2.49,8.11-2.13,12.23-.35,1.38,1.34,1.63,3.2,2.24,4.91,4.54,12.83,10.43,25,16.6,37.16,3,5.94,3.32,12.63,3.17,19.25-.06,4.48-1.69,8.16-5.77,10.29-3.31,1.74-3.25,4.68-3.32,7.71-.41,17.28-7.11,24.56-24.59,27-21.91,3-43.8-.24-65.7-.29a301.76,301.76,0,0,1-68.09-7.78c-25.91-6.07-52.83-8.76-76.73-22-21-11.66-36.54-29-50.29-48.25-.91-1.27-1-3.08-1.55-4.64,3.77-6.48,4.32-12.76-1.13-18.68-2.84-3.09-6.24-4.87-10.52-4.69C30.09,374.64,28.89,374.91,28,373.86Z" transform="translate(-3.36 -22.88)" style="fill:#fcdf9d"/><path d="M479.82,220.88c1.27,8.22,4,16,4.47,24.6,1.82,31.16-6.38,59.55-19.57,87.28-8.86,18.62-17,37.5-29.68,54-8.37,10.91-17.92,20.56-30.08,27.15-13.2,7.15-24.08,16.83-33.83,28.17-6.87,8-11.63,8.12-20.24,1.82-3.58-2.62-6.68-5.9-10-8.88-4.75-7.75-4.62-16.45.95-23.23a14.52,14.52,0,0,0,3.07-13.91,95.38,95.38,0,0,0-5-14.1,38.88,38.88,0,0,1-3.55-12.43c.24-2.54,2.37-3.49,4.12-4.67A51.91,51.91,0,0,0,360.05,342c.89-2.26,1.39-4.9,4-6,6.37-1.26,12.87-1.78,19.2-3.28,3.53-.84,7-1.93,7.53-6.12.33-2.47-4.05-5.35-8.33-6-4.66-.7-8.35,1.4-12.12,3.7-2.19,1.33-4.52,4.12-7.39.85a39,39,0,0,1-1.71-12.31c-.32-16.29.57-32.59-.86-48.88-1-11,.59-21.92,1.49-32.86.32-3.84.65-7.65-.82-11.33-1.72-4.32-4.87-6.74-9.3-5.85-15.69,3.17-31.53,1-47.28,1.67-1.66.07-3.33,0-5,.17-4.72.61-5.81,2.31-4.3,6.72.7,2.05,1.82,3.92,2.68,5.91,4.81,11.12,7.08,22.51,3.69,34.5-.68,2.4-1.19,4.88-3.3,6.56-4.41.88-8.88,3.86-13.18-.31-1.08-2.78-.38-5.57,0-8.37,3.44-25.94-10.75-47.71-35.81-53.27-17.45-3.87-33,.84-45.59,14-2.4,2.51-4.41,5.48-7.77,6.92-7.59-1.64-12.61-10.59-10.09-17.95,9.26-5.88,18.46-11.83,28.46-16.47,17.73-8.23,34.74-8.51,51.54,2.85,10.79,7.3,23.45,8.87,36.21,9.61,17,1,33.81-1.55,50.72-2.1,4.12-.13,6.37-2.11,6.81-6.37a90.73,90.73,0,0,0,.86-9.42c0-2.72.49-5.31,2.55-7.32,3-1.72,5,.47,7,2.07,8.71,7,8.69,7,15.7-1.33,5.85-7,13.12-9.9,22.17-7.82a17.75,17.75,0,0,1,7.57,7,80.13,80.13,0,0,0,6.74,9.31c3.8,4.39,8.22,7.17,14.47,5.67a11.08,11.08,0,0,1,11,3.36c8.47,9.43,18.94,15.61,30.6,20.1A6.07,6.07,0,0,1,479.82,220.88Z" transform="translate(-3.36 -22.88)" style="fill:#efc8dd"/><path d="M16.79,211.9C25.73,162.86,43.2,118,79.35,82a140.16,140.16,0,0,1,55.59-34,52.52,52.52,0,0,1,11.57,15.37,17.75,17.75,0,0,1,1.21,11.72c-.73,3.25-1.35,6.52-2.25,9.73-2.42,8.64-.3,16.5,4.24,23.85,2.92,4.74,4.39,5.07,9.48,2.94a11.12,11.12,0,0,0,1.36-.63c6.22-3.65,12-3.08,17.51,1.58,1.44,2.57.17,5.09-.19,7.6-.44,3.12.15,6.16.36,9.24.16,8.34-1.43,9.84-9.36,8.87-1.17-1.07-1.26-2.61-1.72-4s-.4-3.62-2.1-3.4c-2,.25-1.5,2.57-1.59,4.12-.14,2.46,0,4.94-.09,7.4-.08,1.79,0,3.67-1.58,5a19.13,19.13,0,0,1-9.66-.66c-2.09-1.2-2.52-3.36-3.15-5.43-.28-.93-.43-2.56-1.3-2.44-1.35.18-1.1,1.84-1.15,2.94-.17,4.15-.07,8.31-.08,12.47,0,4.5-.18,9-1.86,13.24-1.68,1.57-2.41-.06-2.92-1.09-2-4.13-4.11-8.3-3.73-13.11.31-3.87-1.19-6.67-4.68-8.39-2.84-1.22-4.39.72-5.87,2.52a34.13,34.13,0,0,0-5.26,9.61,84,84,0,0,0-5.73,29.26c-.06,5.64-.31,11.28-2.16,16.7-6.35,1.71-11.86,5-17.21,8.74-5.14,3.64-10.9,5.47-17.47,4C74,214.62,68.63,216,63.43,218c-3.88,1.5-7.74,3-11.77,4.14A23.42,23.42,0,0,1,36.95,222a96.11,96.11,0,0,0-16.24-5.71C18.61,215.72,15.87,215.34,16.79,211.9Z" transform="translate(-3.36 -22.88)" style="fill:#db9dc4"/><path d="M479.82,220.88c-10.93-2.8-20.78-7.58-28.48-16-4.79-5.27-9.71-8.5-17.64-7.1-8.61,1.52-12.53-6-16.69-11.79-2.79-3.9-5.25-8-9.11-11-5.3-2.62-10.7-3.88-16.75-2.72-4.85.93-9.54-.6-13.84-3.07A70,70,0,0,0,360.94,162a6.14,6.14,0,0,1-3-3.14c-3.85-8-9.68-14.6-15-21.53-4.1-5.29-10.3-7-16.37-8.66-3.83-1.08-7.84-1.23-11.74-2-1.76-.34-3.68-.25-5.09-1.68a14.92,14.92,0,0,1,1.56-10.13c2-4,4.89-4.82,7.84-1.57,4.52,5,9.7,5.86,15.79,4.16a36.22,36.22,0,0,1,6.39-1c5.46-.51,6.94-2.52,6-7.89a15.43,15.43,0,0,0-1.33-3.75c-1.27-2.79-.48-4.8,2.24-6.15,3-1.52,7-1.65,8.55-5.44,1.73-4.3.16-8.51-.67-12.72-.16-.81-.49-1.59-.66-2.4,1.9-5.76,6.74-6.92,11.91-7.57,2.35.29,3.73,2,5.17,3.58,5.88,6.25,12.9,6.62,20.48,4.08,2.63-.88,5.13-2.31,8-1.33,15.85,8,24.16,23.31,34.63,36.44,20,25.06,36,52.2,41.69,84.33C478.67,205.34,480.08,213,479.82,220.88Z" transform="translate(-3.36 -22.88)" style="fill:#a198c6"/><path d="M177.92,113c-7.55-4.75-14.63-2.42-21.68,1.33-2.17,1.15-3.84.66-5.5-1.53-6.57-8.67-10.22-18.25-6.48-28.79,4.31-12.17,2.55-22.29-6.86-31.17-1.23-1.16-1.66-3.17-2.46-4.79l34.95-17c8,4,16.91,3.74,25.44,5.18,3.11,6.45,6.83,12.67,7.43,20.08.3,3.72,3.39,5,6.07,6.65A34.11,34.11,0,0,0,213.89,65c8.42,3.93,17.3,7.88,23.71,14.22,5.79,5.73,12.41,7.48,19.28,9.89,2.64.93,5.34,1.85,7.45,3.87,2.5,2.62,5.21,5,7.52,7.85,3,4.49,7.58,6.8,12.05,9.33,5.6,3.16,11.74,5.5,15.94,10.76,1,1.23,2.55,1.41,4,1.74s3.17,0,3.3,2.21a2.81,2.81,0,0,1-1.21,1.05c-6.51,1.34-13.08.42-19.6.64-.32,0-.66-.07-1,0-8.47.84-15.09-1.15-20.07-9.18-3.4-5.49-9.54-8.26-16.62-5.31-3.08,1.28-6.25.83-8.29-1.63-8.45-10.2-20.2-15.4-31.45-21.43-2.35-1.26-4.58-2.73-7.27-3.18a7,7,0,0,0-7.09,2.69c-1.83,2.37-.87,4.74.57,6.93s2.94,4,4.18,6.21c2.3,4,1.92,6-2.12,8.14C191.16,112.89,184.64,113.65,177.92,113Z" transform="translate(-3.36 -22.88)" style="fill:#cca2c6"/><path d="M367,70.93c-1.27,3.23-5.31.66-7,3.43-.76,1.22-2.64,1.75-4,2.6-1.32,1.59-3.21,1.32-5,1.54a88.05,88.05,0,0,1-12.77-.24C333,77,328.15,74.73,323.11,73c-7.64-2.63-14-.86-19.58,4.82-4.66,4.76-9.27,9.57-14.86,13.31-6.77,4.53-10,4.22-15.69-1.63-2.8-2.86-4.86-6.37-8-8.89a21.7,21.7,0,0,0-13.65-6.36c-4.12-.37-8.06-1.83-12.15-2.48-5.43-.86-9.64-3.33-11.91-8.56-1.52-7.35.78-11.15,8-13.23,3.62-.25,6.75,1.48,10.05,2.55,5.29,1.71,8.92.53,12.18-4,2.63-3.63,2.38-7.68-.79-11.95-1.79-2.41-4.19-4.27-6-6.63-1-1.33-2-2.79-1.09-4.55.79-1.51,2.35-1,3.6-.94,2.3.07,4.64-.47,6.9.37A380.92,380.92,0,0,1,332,33.6a26,26,0,0,1,15.18,9.67c3.63,4.54,7.59,8.8,12.71,11.76,2.95,4.29,4.66,9.25,7.42,13.64A1.86,1.86,0,0,1,367,70.93Z" transform="translate(-3.36 -22.88)" style="fill:#8b81b6"/><path d="M48.91,289c-6.47.64-9.61,4.7-11.35,10.57C34.23,310.74,26.4,318,16.08,322.73c-1.61.74-3.07,1.2-3.17,3.24C9.38,313.21,8.43,300.06,7,287c2.84-3.3,4.76-7.28,7.76-10.47,4.93-.73,6.74-5.7,10.63-7.86C46.8,259.4,65.92,245,89.48,240.51c6.41-1.21,12.77-2.32,19.31-2,2.14.11,4.39-.12,6,1.82,2.72,7.26,2.44,14.57.37,21.89-1.28,1.92-3.32,2.12-5.32,2.07A16.7,16.7,0,0,0,95.5,271c-2.69,3.46-5.75,4.13-9.59,2-6.1-3.37-11.69-2.66-17,1.92C62.69,280.26,54.78,283.16,48.91,289Z" transform="translate(-3.36 -22.88)" style="fill:#f9dabd"/><path d="M24.94,270c-3.53,2.05-3.81,8.73-10,7a3.68,3.68,0,0,1-1-3.19c.48-9.94-.12-19.73-4-29.07a3.87,3.87,0,0,1-.07-3.78l6.91-29c1,3.82,4.55,2.53,7,3.52,4.41,1.8,9.4,2.23,13.17,5.54,3.84,6.21,7.54,12.47,8,20-.43,1.67-1.68,2.8-2.66,4.12-3.72,5-8,9.58-9.7,16C31.51,265,28.13,267.57,24.94,270Z" transform="translate(-3.36 -22.88)" style="fill:#eec7dc"/><path d="M234.93,51c-5.62,2.07-7.88,6.1-7,12-4.84.22-9.37,1.92-14,3-7.2-1.4-12.68-4.07-13.24-12.86-.25-4-1.05-8.56-5.25-11.34-2-1.33.06-3.17.52-4.76,3.05-3.33,7.27-3.1,11.22-3.69a19.53,19.53,0,0,1,.47,11.57c-.13.46-.6,1.33.38,1.43.36,0,.66-.78.59-1.23-.62-4.22,1.95-8,1.7-12.13A32.7,32.7,0,0,1,221,24.14c5.71.63,11.35-1.88,17.08-.34.25,7.35,1.32,14.68,0,22.06C237.69,48.12,237.08,49.95,234.93,51Z" transform="translate(-3.36 -22.88)" style="fill:#aba1cb"/><path d="M336.91,371c3.16,9,6.38,18,9.47,27,1.87,5.44,1.08,10.77-3.2,14.52-5.28,4.62-5.23,9.86-3.68,15.78.58,2.23.93,4.51,1.38,6.77l-2,1c-2-19.6-14.39-35.24-20.21-53.38-.7-2.17-1.15-4.43-1.71-6.64a3.77,3.77,0,0,1,2.68-2C325.44,373,331.11,371.61,336.91,371Z" transform="translate(-3.36 -22.88)" style="fill:#f6ddeb"/><path d="M234.93,51a35.72,35.72,0,0,0,2.17-16.11c-.27-3.63-1.45-7.61,1-11.09,7.3.69,14.7-.77,21.94,1.09-3.24.87-8.27-1.8-9.5,1.48-1.16,3.09,3.82,5.17,6,7.72,3.88,4.46,6.4,9.27,2.67,14.75s-8.9,8.15-15.81,4.57C240.89,52.07,237.79,51.77,234.93,51Z" transform="translate(-3.36 -22.88)" style="fill:#a198c6"/><path d="M207.86,33.87,195.94,37c-9-.83-18.6,1.37-26-6,14.56-8.8,30.57-8.77,46.75-7.64,1.48.1,2.94.48,4.41.73a37.82,37.82,0,0,1-10.12,8.81A2.75,2.75,0,0,1,207.86,33.87Z" transform="translate(-3.36 -22.88)" style="fill:#ddd2e7"/><path d="M367,70.93c-2.21-5.37-6.85-9.65-7.1-15.9L401,76.9C388.25,82.89,376.49,83.28,367,70.93Z" transform="translate(-3.36 -22.88)" style="fill:#c8b9d9"/><path d="M9.88,240.95a60.75,60.75,0,0,1,5.85,22.72A51.5,51.5,0,0,1,15,277c-2.11,3.77-3.1,8.44-8,10-5.25-5.68-3.41-12.79-2.77-19C5.13,258.84,7.9,249.94,9.88,240.95Z" transform="translate(-3.36 -22.88)" style="fill:#f6e0ed"/><path d="M28,373.86c8.28-2.38,13.85,1.51,17.43,8.36,2.9,5.54,3.59,11.35-2.54,15.74Z" transform="translate(-3.36 -22.88)" style="fill:#fdf0d7"/><path d="M113.95,263c1.27,23,2.15,46,2,69-6.76-4.49-9.37-11.86-12.79-18.62-7.22-14.27-15.2-15.62-26.69-4.37a23.86,23.86,0,0,1-7.73,5.25c-4.11,1.68-6.73-.36-9-3.18s-2.33-6.11,0-9.15,4.82-6.21,7.15-9.37a2.87,2.87,0,0,0,.57-2.17c-.31-1-1.15-.65-2-.36-5.59,1.84-11-.21-16.41-1,.59-3.1,3-4.6,5.37-6.17q8.43-5.7,16.88-11.36c5.23-3.49,10.45-2.44,15.44.45,3.07,1.78,5.21,1.91,7.46-1.4C98.85,263.44,106.11,262.28,113.95,263Z" transform="translate(-3.36 -22.88)" style="fill:#fce6b1"/><path d="M247.92,377c19,1.8,38,0,57-1,1.7,5,1.34,10.22.84,15.26-.79,8-9.49,16.59-17.94,8C277.09,388.3,263,389.27,250,386.06,246.54,383.66,245.49,380.71,247.92,377Z" transform="translate(-3.36 -22.88)" style="fill:#fdefcc"/><path d="M247.92,377a13.2,13.2,0,0,0,2.07,9.09c-5.36,5.05-10.26,11-18.86,9.82-3.41-.46-6.45-1.6-7.79-5.11s.1-6.36,2.92-8.68c1.9-1.57,3.64-3.33,5.45-5C237.11,377.63,242.52,378.67,247.92,377Z" transform="translate(-3.36 -22.88)" style="fill:#fcf5e5"/><path d="M107.77,344c3.71-.19,4.87,2.13,5,5s-1.41,4.08-4.36,4.06-4.57-1.09-4.52-4.35C103.92,345.81,104.48,343.72,107.77,344Z" transform="translate(-3.36 -22.88)" style="fill:#fdedc6"/><path d="M195.84,228a41,41,0,0,1-4.94,14c-3.87,2.11-7.46,1.29-10.91-1,1.12-4.67,2.18-9.31,2-14.22-.27-8.13-4.24-12.46-12.17-11.4-13.64,1.83-27.09,3.86-40.95,1-5.77-1.21-10.78,2.54-14,7.73,0,4.24-2.54,6-6.27,6.91s-7.42,1.83-11.26,1.61c-14.74-.87-28.6,2.56-42,8.44a21.67,21.67,0,0,1-7.2,1.76c-1.69.13-3.37.16-4.23-1.74-.24-7.4-6-12.88-7-20,9.24,2.39,17.48-.92,25.78-4.31a31.9,31.9,0,0,1,19.37-2c6.1,1.32,11.12-2.06,16-5.32s9.11-7.82,15.81-6.43c-.9,7.26,3,9.23,9.47,9.1,20.85-.43,41.7-.67,62.54-1C186.47,218.31,188.64,224.62,195.84,228Z" transform="translate(-3.36 -22.88)" style="fill:#f1b4cf"/><path d="M363.89,181c-1.86-4.24-.71-8.73-1-13.09-.14-2.53-.36-4.88-2-6.88,6,.55,11,3.35,16,6.39s10.62,4.72,16.2,3.36c6.11-1.5,10.69,0,14.84,4.23-11.32-1.79-19.19,3.59-24.9,12.58-2.65,4.18-5.06,3.87-8.4,1.26S367.47,183.59,363.89,181Z" transform="translate(-3.36 -22.88)" style="fill:#d9aacb"/><path d="M262.91,297c5.47-5.46,11.46-10.37,16.22-16.58a49.7,49.7,0,0,0,6.78-12.46c3.63,4.69,8.09-.69,12,1-1,15.09-10.39,24.64-21.71,32.84-3.21,2.32-6.81,4.11-10.23,6.14C263.87,304.57,261.54,301.28,262.91,297Z" transform="translate(-3.36 -22.88)" style="fill:#f5dae4"/><path d="M363.92,337c1.89-3.67.94-7.34,0-11,3.31-.45,5.53-2.89,8.18-4.52,5.43-3.34,11-3.68,16.38-.18,2,1.32,5.2,2.41,4.33,5.93a8.36,8.36,0,0,1-6.44,6.33C379,335,371.43,335.86,363.92,337Z" transform="translate(-3.36 -22.88)" style="fill:#f5ddeb"/><path d="M285,125a19.38,19.38,0,0,1-3.77.81c-26.75.44-53.5.57-80.23,1.37-7.67.23-15.52-.35-23.09,1.78q-.45.72-.92,0c-1.71-5.46-.4-10.74,1-16,5.81-2.68,12.57-.85,18.37-4.06,3.43-1.89,4.5-3.56,1.76-6.78-1.39-1.63-2.4-3.58-3.75-5.26-2.25-2.8-3.76-6-1.41-9.06s6.1-5.51,10-3.23c11.77,6.84,25.69,10.21,34.71,21.53,3.41,4.28,7.32,6.47,13.27,4,7.47-3.14,13.43,2,16.26,7.2C271.55,125.39,277.74,125.49,285,125Z" transform="translate(-3.36 -22.88)" style="fill:#dfa7ca"/><path d="M176.94,129l.92,0c0,15.78.06,31.56-.12,47.34,0,4.06,0,10.19-4.28,10.5-3.55.26-3.35-5.76-3.77-9.55-1.46-13.08-.43-26.2-.76-39.29C174.35,137.41,178.69,135.91,176.94,129Z" transform="translate(-3.36 -22.88)" style="fill:#e5adcf"/><path d="M161.8,146.94C159,159.37,160.24,172,160,184.55c-.05,2.48-1.51,4.73-3.58,4.65s-3.36-2.4-3.42-4.87q-.4-19.2-.86-38.4Z" transform="translate(-3.36 -22.88)" style="fill:#e3adcd"/><path d="M143.83,167.86c-3.32,3.85-1,7.78-.26,11.74.47,2.55,1.38,5.47-.77,7.55-1.64,1.59-4.23,1.33-6.13.39-2.76-1.37-3.09-4.32-2.65-7,2-12.23-1-24.43-.06-36.64,4.19,1.85,6.18,4.52,5.4,9.6S141.59,163.31,143.83,167.86Z" transform="translate(-3.36 -22.88)" style="fill:#e8bad7"/><path d="M310,124.81l-3,0q0-.4,0-.79c-1.7-7,1.12-12.46,5.62-17.42,3.23-1.41,5.63.36,7.37,2.57,5.57,7.08,12.43,6.34,19.78,3.83,3.43-1.18,4.23-3.32,2.94-6.58-1.73-4.37-4.27-8.2-9.12-9.06-8.91-1.58-18-4-26.15,2.72-7.37,3.92-14.73,2.13-21.59-.92-5.22-2.33-9.42-2.71-13.45,1.66a1.37,1.37,0,0,1-1.4.19l-7-7c-1.73-5-.51-9.62,2-14,3.06,3.24,6.25,6.36,9.14,9.74,3.68,4.31,7.37,4,11.76,1A65,65,0,0,0,300.31,79c7.57-9.09,16.51-10.84,27.08-6,3.15,1.43,6.38,2.67,9.57,4a28.14,28.14,0,0,0-1.5,8.27c-.21,4,.8,7.61,5,9.49a11,11,0,0,0,11.6-2c2.06-2.07,2.87-4.56,1.34-7.26A18.88,18.88,0,0,1,350.91,77l5-.05c6.25,10.07,3.73,18.64-7,22.8-2.93,1.14-3,2.37-1.72,4.78,4.54,8.72,2.24,12.75-7.37,13.49-2.78.22-5.5,1.11-8.27,1.55-4.43.71-8.67.35-11.76-3.38-1.37-1.66-2.46-4.24-4.8-3.66s-3,3.32-3.59,5.55S310.44,122.57,310,124.81Z" transform="translate(-3.36 -22.88)" style="fill:#a198c6"/><path d="M312.92,107a39.68,39.68,0,0,0-6,17c-9.53,1.43-12.8-8.53-20.31-11.23-6.05-2.18-12.78-4.79-15.68-11.77,3.57-5.51,7.7-7.15,14.11-3.77,6.8,3.58,14.28,5.24,21.9,1.76C309.24,101.4,311.58,103.82,312.92,107Z" transform="translate(-3.36 -22.88)" style="fill:#b59dc6"/><path d="M265.94,79.95l-2,14c-5.36-3.08-10.93-5.51-17.2-6-1.1-.09-2.64-.3-3.17-1-7.48-10.4-19.75-14-29.64-20.9,4.2-3.23,8.59-5.55,14-3,6,9,16.09,8.08,24.92,9.91C258.05,74,262.59,75.71,265.94,79.95Z" transform="translate(-3.36 -22.88)" style="fill:#b69cc7"/><path d="M350.91,77c1.65,3.64,4.46,7.22,4.69,10.95.38,6.09-5,8.13-9.92,9.06-4.34.81-8.71-1-10.36-5-2-4.94-2.74-10.47,1.63-15.06Z" transform="translate(-3.36 -22.88)" style="fill:#b0a6cf"/><path d="M43.92,241a17.31,17.31,0,0,0,11-1.46c12.26-5.35,24.88-9.13,38.47-8.55a44.57,44.57,0,0,0,15.73-1.79c2.91-.93,4.87-2.31,5.78-5.18-.27,5.33.68,10.73-.92,16-26.51-1.35-49.52,8.9-71.4,22.17-5.66,3.43-11.81,5.08-17.61,7.84C32.36,261,35,248.95,43.92,241Z" transform="translate(-3.36 -22.88)" style="fill:#f5c4cd"/><path d="M207.86,33.87l3.05-.93c1.06,5.12-1.65,9.87-1.55,14.92,0,.49-2,1.55-2.87,1.42-1.81-.26-1.06-2.07-.57-2.75C208.79,42.6,203.67,37.52,207.86,33.87Z" transform="translate(-3.36 -22.88)" style="fill:#8e84b8"/><path d="M262.91,297c.41,3.81,3.42,6.91,3,10.94-14.94,10.34-39.83,9.35-54.84-1-15.7-10.81-27.74-23.92-32.59-42.77-2-7.92-1.88-15.68,1.5-23.24l10.91,1c-2.15,10.08-.35,19.76,3.12,29.23,4,10.84,11.31,18.92,20.88,25.09,1.53,1,3.23,2.34,4.88,2.38C234.18,299.05,248.63,299.9,262.91,297Z" transform="translate(-3.36 -22.88)" style="fill:#fdefd5"/><path d="M337,152.91c2.16,9.25.41,18.7,1.34,28,.35,3.5-3.25,4.63-6,5.75a39.31,39.31,0,0,1-19.62,2.11c-12.09-1.47-17.91-10.5-15.41-23.12.58-2.92,1.18-5.83,1.77-8.75,2.49-1.82,4.78-.38,7,.54,3.55,1.46,6.6,3.82,9.78,5.92a25.79,25.79,0,0,0,15.13,4.06c3.13-.05,4.37-1.39,4.52-4.51C335.61,159.58,334.36,155.93,337,152.91Z" transform="translate(-3.36 -22.88)" style="fill:#eec7dc"/><path d="M337,152.91a14,14,0,0,1-.05,2c-.76,4.59,2.58,11.57-1.65,13.35-6.08,2.55-13.42,1-19.49-3-5.24-3.45-10.1-7.7-16.76-8.29,1.44-10.51,8.67-10.93,17-10.08,4.38.45,8.76,1,13.3.3C333.14,146.56,336.62,148,337,152.91Z" transform="translate(-3.36 -22.88)" style="fill:#e5b8d4"/><path d="M267.88,269c-9.45,20.2-25.28,21.15-44,15.25-14.72-4.65-21.86-23.41-17-41.25,6.13-2.83,12-.78,17.62,1.43,5.23,2.06,9.76,5.57,14.23,9,7.83,6,16,11.26,25.63,13.74A7.23,7.23,0,0,1,267.88,269Z" transform="translate(-3.36 -22.88)" style="fill:#f8e3de"/><path d="M230.94,219c19.75-5.58,41.47,9.91,42,29.94a1,1,0,0,1-.14,1.45c-8.83.53-17.71,1.65-26.5.39-5.47-.78-7.09-3.85-5.69-9.42,1.18-4.72.25-8.41-3.45-11.57a32.48,32.48,0,0,1-5.13-5.4C230.86,222.81,229.54,221.16,230.94,219Z" transform="translate(-3.36 -22.88)" style="fill:#eec7dc"/><path d="M272.9,249.94q0-.49,0-1c2.78,5.59-.82,9.94-2.82,14.61-.77,1.79-1.49,3.6-2.23,5.4-11.75-1.27-21.1-7.55-30-14.6-9.09-7.18-18.82-12.43-30.91-11.4,1.25-12.81,11.37-17.17,21-22,2.48,3.64-.19,6.22-1.9,8.94-.88,1.4-2.47,2.26-3.33,3.7-1.75,2.94-1.84,5.69,1.32,7.82,8,5.38,17.13,8,26,11.38,1.75.67,3.63.07,5.41-.38,2.29-.58,4.62-1,6.89-.19C266.32,253.62,269.75,252.56,272.9,249.94Z" transform="translate(-3.36 -22.88)" style="fill:#f3d5e6"/><path d="M272.9,249.94c-.69,3.75-4,4.76-6.71,4.74-15.24-.07-29.63-3.3-42.72-11.74-4.16-2.68-4.05-5.54-2.83-9.2a5.76,5.76,0,0,1,2.13-2.63,11.55,11.55,0,0,0,5.14-10.18l3-1.92c.76,4.92,4.87,7.39,8,10.35,3.59,3.34,5,6.77,3.16,11.42-2.8,7.06,1.57,9,7.16,9.09C257.17,250,265,248.7,272.9,249.94Z" transform="translate(-3.36 -22.88)" style="fill:#f3d4e6"/><path d="M312.92,107c-2.87-2-5.43-4.26-6-8,9.53-8.18,19.91-4.64,30-1.85,5,1.37,6.28,6.51,7.81,10.75,1,2.89-.15,5.13-3.7,6.3-8.73,2.88-16.81,4-23-4.83A5.63,5.63,0,0,0,312.92,107Z" transform="translate(-3.36 -22.88)" style="fill:#b0a6cf"/></svg>