<svg id="Layer_1" data-name="Layer 1" xmlns="http://www.w3.org/2000/svg" viewBox="0 0 494.91 475.7">
  <defs>
    <style>
      .cls-1 {
        opacity: 0.72;
      }

      .cls-2 {
        fill: #ffe095;
      }

      .cls-3 {
        fill: #fbd0a3;
      }

      .cls-4 {
        fill: #f8c4b2;
      }

      .cls-5 {
        fill: #f4afbb;
      }

      .cls-6 {
        fill: #ebb5d3;
      }

      .cls-7 {
        fill: #8175b3;
      }

      .cls-8 {
        fill: #b6a1cd;
      }

      .cls-9 {
        fill: #9688bf;
      }

      .cls-10 {
        fill: #f5d5e7;
      }

      .cls-11 {
        fill: #d2c4e1;
      }

      .cls-12 {
        fill: #ffedc9;
      }

      .cls-13 {
        fill: #fff4dc;
      }

      .cls-14 {
        fill: #ffebb9;
      }

      .cls-15 {
        fill: #ffe7ab;
      }

      .cls-16 {
        fill: #e0a0c7;
      }

      .cls-17 {
        fill: #f1c7df;
      }

      .cls-18 {
        fill: #63549f;
      }

      .cls-19 {
        fill: #d98dbb;
      }

      .cls-20 {
        fill: #d27bb0;
      }

      .cls-21 {
        fill: #9b7ab4;
      }

      .cls-22 {
        fill: #766cae;
      }

      .cls-23 {
        fill: #ad6ca9;
      }

      .cls-24 {
        fill: #ffd679;
      }

      .cls-25 {
        fill: #ef97bf;
      }

      .cls-26 {
        fill: #fbddd6;
      }

      .cls-27 {
        fill: #e7bdd9;
      }

      .cls-28 {
        fill: #bd83b7;
      }

      .cls-29 {
        fill: #c866a4;
      }
    </style>
  </defs>
  <title>instagramLogo</title>
  <g class="cls-1">
    <g>
      <path class="cls-2" d="M48.23,394.41l4.94.4c-.7,1.33-1.35,2.7-2.12,4-1,1.7-2.12,3.35-3.19,5,1.74.68,3.66,1.08,5.16,2.09a37.13,37.13,0,0,1,5.29,4.73c1.58,1.59,3,3.33,4.5,5,1.11-1.31,2.28-2.58,3.32-3.94.86-1.13,1.35-2.63,2.39-3.52,2.38-2,5-3.82,7.52-5.7.17,3.25-.49,6.84.7,9.66,1.78,4.22,4.85,7.89,7.37,11.8a27.18,27.18,0,0,0,3-4.95c.36-1-.42-2.38-.69-3.59,1.78.38,4.85.35,5.12,1.2,1.8,5.76,12,9.81,3.94,17.68a43,43,0,0,0,4,3.19c1.81,1.12,3.79,2,5.69,3a33.52,33.52,0,0,0-5,1.91c-1.05.59-2.62,2.45-2.48,2.64,1.46,1.93,3.66,5.39,4.81,5.1a31.37,31.37,0,0,0,11.15-5.32c3-2.31,5-6,7.58-8.83,7.65-8.4,15.65-6.79,20.14,3.48,1,2.26,4.07,4.14,6.6,5.06,3.35,1.21,7.51.5,10.59,2.07,4.28,2.17,7,8.28,13.26,4.21A50.83,50.83,0,0,1,173,458.3c0,1.72-.9,3.46-1.4,5.19,11.49,1.06,3.39,8.88,4.64,13.47a3.12,3.12,0,0,1,0,.72l-11.58-2.73,2.49-7-8.31,4.15c-23.74-2.53-47.29-6.26-67.07-20.87-15.54-11.48-33.11-20.94-42-39.77C47,405.72,42,401.06,38,395.91Z" transform="translate(-2.09 -12.37)"/>
      <path class="cls-3" d="M8.11,319.47q-.6-4.28-1.21-8.56c2.17-2.76,6.55-7.57,6.19-8-5.52-5.94,1-8.87,3.29-11.69,6.48-8.17,18.55-10.58,22.74-21.42a2.82,2.82,0,0,1,1.49-1.51q16-5.37,32-10.61c2.15-.71,6-.94,6.24-2.07,1.79-7.4,8-5.77,12.66-6.38,8.05-1.06,16.23-1.13,24.36-1.61q-.09,6.49-.17,13c-2.57.43-6,2.13-7.55,1.07-6.28-4.23-7.63.38-9.56,4.46l-17.31,3.07q-.69,0-1.38,0l-8.07-5.18-2,8.06L52.51,282.26l-4.34,0-5.69,2.89c-10.52-4.77-6.55,5-8.64,8.63L32.4,298l-2.95,5.79-4.3,11.49Z" transform="translate(-2.09 -12.37)"/>
      <path class="cls-4" d="M115.84,247.66c-8.13.48-16.31.55-24.36,1.61-4.61.61-10.86-1-12.66,6.38-.27,1.13-4.08,1.36-6.24,2.07q-16,5.27-32,10.61a2.82,2.82,0,0,0-1.49,1.51c-4.19,10.83-16.26,13.25-22.74,21.42C14.13,294.08,7.56,297,13.08,303c.37.39-4,5.2-6.19,8q-1.44-11.49-2.89-23c.47-.09,1.06,0,1.39-.29,8.8-7,16.15-15.35,27.76-19.33,7.65-2.63,12.82-11.82,20-16.82,4-2.8,9.72-3.24,14.75-4.42,15.93-3.72,31.89-7.27,47.84-10.89Q115.77,241.92,115.84,247.66Z" transform="translate(-2.09 -12.37)"/>
      <path class="cls-5" d="M115.71,236.17c-15.95,3.62-31.91,7.18-47.84,10.89-5,1.17-10.76,1.62-14.75,4.42-7.15,5-12.32,14.2-20,16.82-11.61,4-19,12.31-27.76,19.33-.33.26-.92.2-1.39.29L2.54,285c2.19-2.64,4.55-5.17,6.5-8,1-1.39,1.19-3.3,1.75-5l21.58-21.43C49,242.41,65,232.31,84,230.37c2.77-.28,5.81,2.1,8.59,1.84,7.7-.72,15.32-2.18,23-3.35Z" transform="translate(-2.09 -12.37)"/>
      <path class="cls-6" d="M32.38,250.63,10.8,272.07c0-2.61,0-5.22,0-7.83a70.4,70.4,0,0,0-.47-10.07c-.58-3.37-2.17-6.55-2.84-9.91a83.72,83.72,0,0,1-.84-9.52l1.69-7.21c5.66.38,8.23-2.15,8.48-7.92.07-1.71,2.23-4.34,3.86-4.71,2.27-.52,4.94.68,7.43,1.14l-1.42,2.88-2.22,4.83,3.65-1.89c6.38.28,9.34,3.52,8.62,9.95,1.44,5.76,4.89,12.49-4.14,14.75-3.42.86-7.51-.89-11.28-1.57-2.05-.37-4.06-1-6.09-1.5-.37,2.28-1.68,5.06-.82,6.67.7,1.29,4,1.59,6.21,1.56C24.51,251.64,28.44,251,32.38,250.63Z" transform="translate(-2.09 -12.37)"/>
      <path class="cls-7" d="M239.43,13.82l.38,2.11c8.71-2,10.85,6.8,16.41,10l7.67,3.3L261,42c-1.68.67-3.4,2-5,1.87a98,98,0,0,1-10.82-1.65c.48-2.34.48-4.93,1.53-7,4.39-8.49,3.25-12.23-7.06-8.95l-7.45-12Z" transform="translate(-2.09 -12.37)"/>
      <path class="cls-8" d="M368.84,47.89l.08-1.56c4.22,2.49,8.36,5.13,12.68,7.43,5.69,3,11.53,5.74,17.27,8.67,3.45,1.76,6.83,3.67,10.24,5.51l-2.66.23c-2.62,1.28-6.08,4.3-7.7,3.52-5.36-2.61-7.95.82-11.16,3.46l-7-11.71Z" transform="translate(-2.09 -12.37)"/>
      <path class="cls-9" d="M232.21,14.36l7.45,12-1.77,5.49c-6.76,0-14.27,5.23-19.87-2.84l5.45-13.72Z" transform="translate(-2.09 -12.37)"/>
      <path class="cls-10" d="M6.6,234.73a83.72,83.72,0,0,0,.84,9.52c.67,3.36,2.26,6.54,2.84,9.91a70.4,70.4,0,0,1,.47,10.07c.07,2.61,0,5.22,0,7.83-.56,1.68-.78,3.59-1.75,5-2,2.81-4.31,5.33-6.5,8-.12-5.42-.77-10.88-.25-16.24C3.4,257.4,5.13,246.08,6.6,234.73Z" transform="translate(-2.09 -12.37)"/>
      <path class="cls-11" d="M211.84,21.43,205.5,22.8,199,24.51H187.7l-15.29-2.1-.6-.64c1.07-1.22,2-3.33,3.23-3.52,14.37-2.15,28.78-4,43.19-5.89.24,0,.63,1,.95,1.58a1.22,1.22,0,0,1,.45,1.24Z" transform="translate(-2.09 -12.37)"/>
      <path class="cls-7" d="M406.46,68.17l2.66-.23q.58.17,1.16.29l11.9,11.06-1.4,5.8-12.86-1.31-6-4.58Z" transform="translate(-2.09 -12.37)"/>
      <path class="cls-12" d="M26.65,380l7.15-2.88,2.84.07,1.45,1.45c3.54,5.14-.15,14.93,10.11,15.75l0,0L38,395.91v0c-1.44-4.9,4.88-15.6-8.6-11.52Z" transform="translate(-2.09 -12.37)"/>
      <path class="cls-13" d="M29.44,384.36c13.48-4.08,7.15,6.62,8.6,11.52Z" transform="translate(-2.09 -12.37)"/>
      <path class="cls-11" d="M422.18,79.29l-11.9-11.06L428,79.31l-1,1Z" transform="translate(-2.09 -12.37)"/>
      <path class="cls-6" d="M13.74,208.94c-2.11,5.16,4.72,13.31-5.28,15.83Z" transform="translate(-2.09 -12.37)"/>
      <path class="cls-12" d="M158.86,472.1l8.31-4.15-2.49,7Z" transform="translate(-2.09 -12.37)"/>
      <path class="cls-10" d="M496.69,260.67l-2.53-3.08Z" transform="translate(-2.09 -12.37)"/>
      <path class="cls-14" d="M95.63,397.28c4.67-3.84,12-6.12,8.72-14.67,9.73-2.69,3.65-16.45,13.77-19.52,2.36-.72,3.37-5.9,5-9l17.16,18.7-.59,5.84,6.32-2.95,16,5.57c-.13,2.72.06,5.51-.48,8.15a8.37,8.37,0,0,1-4.33,5.8c-.24-2.45-.08-5-.85-7.32-.59-1.77-2.35-3.14-3.58-4.69a40.16,40.16,0,0,1-2.52,4.32c-1,1.38-3.07,3.79-3.44,3.59a39.89,39.89,0,0,1-7.72-5.71c-1.23-1.17-1.73-3.12-2.56-4.71a23.73,23.73,0,0,1-1.24,4.5c-.42.87-1.59,1.37-2.4,2.07s-1.57,1.47-2.36,2.21a17.77,17.77,0,0,0,2.58,2c4.34,2.22,8.55,4.86,13.13,6.37,4.26,1.4,10.28,3.71,13.15,1.89,8.06-5.11,7.1,1.6,7.72,5.1.51,2.88-.45,6.17-1.44,9-.23.68-3.16.45-4.85.63.26-12-11.51-8.13-17-12.56-4-3.22-9.89-4.07-14.34-6.91-2.31-1.47-3.47-4.89-4.88-7.58a38.36,38.36,0,0,1-2-5.61c-2.26,2.7-6.58,5.58-6.36,8.05.56,6.23-.7,7.76-6.83,6.34-1.85-.43-4.31,1.94-6.54,2.93C100,400.36,96.29,404.81,95.63,397.28Z" transform="translate(-2.09 -12.37)"/>
      <path class="cls-14" d="M180.3,417.73c4.38,4.24,8.84,8.52,13.23,12.87.46.45.44,1.36.83,1.92,1.11,1.58,1.52,13.56.26,14.6-.73.6-2.38,1.23-2.8.88-4.3-3.65-8.5-7.44-12.48-11.43-.27-.27,1.13-3.2,2.29-3.73,8.11-3.7,2.8-5-1-7.12-2-1.14-3.41-3.31-5.08-5Z" transform="translate(-2.09 -12.37)"/>
      <path class="cls-13" d="M246.68,392.94l-5.76,0-4.31,1.41-4.31,0-2.81-4.25-.07-5.77c2.42.08,5.38-.72,7.15.38,6.38,4,7,.13,7.22-4.69l2.83-.08C249.09,384.25,252.82,388.57,246.68,392.94Z" transform="translate(-2.09 -12.37)"/>
      <path class="cls-14" d="M230.84,400.11c1.12,2.85,2.37,5.65,3.29,8.56.35,1.12-.06,2.47-.13,3.72-1-.49-2.61-.73-3-1.51-3.17-7.25-5-3.63-6-.4-2.4-1.19-4.74-2-6.63-3.4a65.71,65.71,0,0,1-6.14-5.83l7.08-4C222.61,400.48,225.55,405,230.84,400.11Z" transform="translate(-2.09 -12.37)"/>
      <path class="cls-15" d="M230.84,400.11c-5.29,4.92-8.23.37-11.49-2.87q0-2.88,0-5.75l1.45-2.83,5.73-4.36h2.88q0,2.89.07,5.77l-2.8,3.17,4.14,2.61,0,4.26Z" transform="translate(-2.09 -12.37)"/>
      <path class="cls-14" d="M175.89,429.48c-5,.29-7,.92-8.58.37-2.16-.75-4-2.4-6-3.68s-4.21-2.76-6.31-4.14c2.79-.18,5.9-1.22,8.3-.33C166.87,423,169.93,425.67,175.89,429.48Z" transform="translate(-2.09 -12.37)"/>
      <path class="cls-14" d="M193.12,386.7c2.26,4.51,4.17,8.05,5.69,11.75.14.34-2.13,1.68-3.28,2.56-1.47-3.37-3.1-6.69-4.28-10.16C191,390,192.17,388.69,193.12,386.7Z" transform="translate(-2.09 -12.37)"/>
      <path class="cls-14" d="M179.18,406.48c-1.13-1.88-2.94-3.83-2.56-4.48,1.06-1.81,3-4.26,4.65-4.25s3.15,2.72,4.72,4.24Z" transform="translate(-2.09 -12.37)"/>
      <path class="cls-14" d="M230.84,400.11q0-2.13,0-4.26l1.47-1.53,4.31,0Z" transform="translate(-2.09 -12.37)"/>
      <path class="cls-14" d="M220.81,388.66l-1.45,2.83-3.46-5Z" transform="translate(-2.09 -12.37)"/>
      <path class="cls-13" d="M111,442.9c-.19.41-.29,1-.57,1.11s-.75-.27-1.14-.44c.17-.39.25-1,.52-1.1S110.54,442.73,111,442.9Z" transform="translate(-2.09 -12.37)"/>
      <path class="cls-14" d="M228,384.31h0Z" transform="translate(-2.09 -12.37)"/>
      <path class="cls-16" d="M372.07,230.33q-.11-9.45-.23-18.9l-2.93-6.89,1.44,0,1.43-1.21.26-1.69,8.73,12.34,5.49-3.79,4.26-1.3c4.48.46,11.74-5.1,11.69,5.37a19.19,19.19,0,0,0,2.68.36c-.33,1.62-.11,4.19-1.06,4.73-10.11,5.8-6.65,12.62-1.83,19.66h-2.86c-3.45-1.47-9.74-4.53-9.93-4.18-4.43,8-6,2.26-9-1.14C378.49,231.68,374.86,231.39,372.07,230.33Z" transform="translate(-2.09 -12.37)"/>
      <path class="cls-6" d="M372.07,230.33c2.79,1.05,6.42,1.35,8.17,3.32,3,3.39,4.54,9.09,9,1.14.19-.34,6.48,2.71,9.93,4.18-.19,3.73.83,8.23-.93,10.95-1.61,2.49-6.63,4.8-9.43,4.13-9.86-2.35-5.16,7.55-9.12,9.82.28.38.88,1,.79,1.12-2.37,3.84-4.81,7.64-7.23,11.44Z" transform="translate(-2.09 -12.37)"/>
      <path class="cls-10" d="M373.27,335.41q0-1.46.05-2.92c1.89-1.93,5.56-4.05,5.38-5.76-1.27-11.65,7.7-8.46,11.59-6.62,4.89,2.31,8.31,4.78,12.64,0l2,2.36-1.56,8.55Z" transform="translate(-2.09 -12.37)"/>
      <path class="cls-6" d="M399.27,286.08c-2.42,1.54-6,4.94-7.06,4.28-3.67-2.2-6.47-5.86-9.6-9l10.11-7.21Z" transform="translate(-2.09 -12.37)"/>
      <path class="cls-6" d="M373.27,303.75q.07-7.16.13-14.33l8.12,5.19Z" transform="translate(-2.09 -12.37)"/>
      <path class="cls-16" d="M405.8,300.26l-5.29,7.48c-1.66-3.68-3.49-7.29-4.78-11.09-.17-.49,3.25-3,3.61-2.73A60.2,60.2,0,0,1,405.8,300.26Z" transform="translate(-2.09 -12.37)"/>
      <path class="cls-10" d="M399.48,313.08c-4.24,1.54-7,3.28-9.69,3.26-2,0-3.94-2.36-5.91-3.67,3.08-1.85,6-4.15,9.34-5.26C394.22,307.09,396.33,310.13,399.48,313.08Z" transform="translate(-2.09 -12.37)"/>
      <path class="cls-10" d="M385.08,298.8c1.09,2.21,2.2,3.53,2.25,4.9,0,.84-1.55,1.74-2.41,2.62-.94-1.19-2.36-2.28-2.63-3.61C382.12,301.87,383.67,300.68,385.08,298.8Z" transform="translate(-2.09 -12.37)"/>
      <path class="cls-6" d="M373.41,310.9q0-1.4-.06-2.8c2.55.61,5.11,1.21,7.64,1.9a8.34,8.34,0,0,1-.3,1.67C378.26,311.49,375.83,311.19,373.41,310.9Z" transform="translate(-2.09 -12.37)"/>
      <path class="cls-10" d="M324.38,377.24l17.29-2.94L346,387.11c-9.78,3.14-8.34,8.77-3.43,15.24a5.5,5.5,0,0,1,.48,2.08q0,6.46,0,12.93c-2.87-4.61-5.86-9.16-8.55-13.87-1-1.76-1.2-4-2-5.89C329.86,390.79,327.11,384,324.38,377.24Z" transform="translate(-2.09 -12.37)"/>
      <path class="cls-17" d="M343.05,404.43a5.5,5.5,0,0,0-.48-2.08c-4.91-6.47-6.35-12.1,3.43-15.24l2.78.05,1.53,2.82c1,3.29,3.86,7.44,2.77,9.71-3.45,7.2-.33,10,5.77,11.93,0,.48.13,1-.07,1.42-1.78,3.17-3.63,6.31-5.46,9.46-1-3-1.54-6.29-3.11-9C348.27,410.23,345.48,407.44,343.05,404.43Z" transform="translate(-2.09 -12.37)"/>
      <path class="cls-6" d="M358.85,411.62c-6.09-1.94-9.22-4.73-5.77-11.93,1.09-2.27-1.74-6.42-2.77-9.71l5.51,1.39,1.61,5.86,1.49,5.8,1.33,7.16Z" transform="translate(-2.09 -12.37)"/>
      <path class="cls-17" d="M358.93,403l-1.49-5.8,18.69,7.2-5.75,4.32Z" transform="translate(-2.09 -12.37)"/>
      <path class="cls-10" d="M358.93,403l11.44,5.72-10.11,1.43Z" transform="translate(-2.09 -12.37)"/>
      <path class="cls-10" d="M378.77,410c1.87,2.66,3.36,4.09,3.84,5.81.17.63-2.35,2.93-3.13,2.71a7.77,7.77,0,0,1-4.37-3.4C374.77,414.49,376.9,412.53,378.77,410Z" transform="translate(-2.09 -12.37)"/>
      <path class="cls-16" d="M409.18,214.55l-2.89,0-2.84-11.4c5.29-8.45,3.47-15.62-4.39-17.28l-4.43-4.51,1.69-2.66,12.81-2.85,8.84-3.07,2.58.23q.11,2.85.21,5.7c-4.18,7.15-8.39,14.28-12.41,21.52-.2.36,1.87,2.54,2,2.46,3-1.89,6.41-3.54,8.65-6.16s3.07-6.08,4.53-9.18l7.21,1.34,2.86,11.58c-6.18,4.12-9.95,13.63-20.24,9C412.86,209,410.61,212.7,409.18,214.55Z" transform="translate(-2.09 -12.37)"/>
      <path class="cls-8" d="M446.88,192.37c-2.41,1.66-3.89,3.31-4.58,3a49.16,49.16,0,0,1-6.91-4.07c1.47-1.28,3.17-3.79,4.35-3.57C441.88,188.16,443.72,190.2,446.88,192.37Z" transform="translate(-2.09 -12.37)"/>
      <path class="cls-18" d="M426.55,86.81l-3-.23-2.82-1.49,1.4-5.8,4.8,1Q426.76,83.55,426.55,86.81Z" transform="translate(-2.09 -12.37)"/>
      <path class="cls-19" d="M36.68,231.79c.72-6.43-2.23-9.67-8.62-9.95l-1.43-2.94L28.06,216c13.54,1.13,13.55,1.13,10.11-12.89-.16-.65-.93-1.33-.8-1.84.21-.86.95-2.29,1.42-2.27,9.25.35,4.5-15.36,15.19-13.2l8.63,2.83,4.29.08,10,10q0,1.42,0,2.84c-3.72,1-7.51,1.84-11.11,3.18-1.24.46-2,2.23-3,3.4,1.08.72,2.61,2.3,3.18,2,4.24-2.15,8.28-4.68,12.39-7.08l2.82,0,4.3,2.81,1.44.1-5.71,9.87-21.68,5.84c-3.52,0-7.19.62-10.55-.13-7.75-1.74-9.45,2.37-9.48,8.67Zm10.5-34.48L44,201.45c4.36,1.28,8.71,2.64,13.12,3.71.47.11,1.36-1.5,2.06-2.32Z" transform="translate(-2.09 -12.37)"/>
      <path class="cls-20" d="M56.91,180.14l5.69,8.52L54,185.82Z" transform="translate(-2.09 -12.37)"/>
      <path class="cls-7" d="M304.18,85.1l3.16-12.84,4.1-2.82,7.12-4.34,8.68,4.22,13.24-1.09,1.15,5.44c.64,3.08.39,8.1,2.1,8.9,5.58,2.6,11.87,3.66,17.89,5.32l-1.42,7.45-2.89,2.19c3.33,1,6.62,2.3,10,2.74.9.12,2.15-2.45,3.23-3.79.39,2,1.39,4.08,1,5.92-.51,2.6-2,5-3.09,7.49l-13.93-1.73c-4.05-5.4-8.09-10.82-12.22-16.17-.16-.2-1.25,0-1.69.38C335,96.61,329,95,325.42,88.57c-.6-1.08-2.63-1.37-4-2a40.52,40.52,0,0,1,4.5-2.24c3.06-1.09,6.24-1.85,9.2-3.14.34-.15-.39-2.75-.62-4.22-4.56.88-9.29,1.29-13.58,2.9-1.37.51-1.55,4.18-2.28,6.4l-1.43,7.54L315.62,98c-12.24,1.26-23.89-.33-34.42-7.23l15.67-2.92c3.67,2.24,7.31,4.53,11.09,6.57a8,8,0,0,0,2.23-2.68C308.34,89.43,306.22,87.3,304.18,85.1Z" transform="translate(-2.09 -12.37)"/>
      <path class="cls-21" d="M281.2,90.81c10.53,6.9,22.18,8.48,34.43,7.23l.72,10.43c-8.49.35-3.65,7-5.11,10.73l-4.08.19c-4.59-3.15-9-6.54-13.83-9.37-3.33-2-7.12-3.19-10.7-4.75l-2.82-7.08Z" transform="translate(-2.09 -12.37)"/>
      <path class="cls-21" d="M269.47,70.87,264,75.21l-2.11-.63,2,1.91,1.47.36q.07,6.25.13,12.52l-14.36-5.62-5.88-5.87c-2.73-1.89-5.35-5.17-8.2-5.36-5.26-.37-8.12-1.71-7.74-7.33l.33-.32c2.09,1,4.14,2,6.28,2.9A41.63,41.63,0,0,0,240.46,69c-.17-1.32-1-3.13-.39-3.87,1.34-1.7,3.34-2.88,5.07-4.28l.14,2.64L252.18,75l3.43-7Z" transform="translate(-2.09 -12.37)"/>
      <path class="cls-7" d="M265.42,89.38q-.07-6.26-.13-12.52c11.74-.15,15,4.68,11,15.84-.68,1.92.31,4.43.52,6.67l-2.85,3.13-4.15-.11,1.39-4.34C274.66,91.58,272.49,88.86,265.42,89.38Z" transform="translate(-2.09 -12.37)"/>
      <path class="cls-7" d="M218,29c5.6,8.08,13.11,2.86,19.87,2.84l-2.94,13.48C232.9,37.73,213.28,45.84,218,29Z" transform="translate(-2.09 -12.37)"/>
      <path class="cls-22" d="M269.47,70.87,255.6,67.92l-10.32-4.39-.14-2.64a11.63,11.63,0,0,0,2.71-1.94,58.79,58.79,0,0,0,3.25-5.06c2.38,2.66,4.74,5.35,7.17,8a22.67,22.67,0,0,0,2.53,2.06Z" transform="translate(-2.09 -12.37)"/>
      <path class="cls-7" d="M207.9,49.31l8-8.07c3.24,3.94,12.09,3.62,9.23,12.18l-2.89,1.49-9.94-1.44Z" transform="translate(-2.09 -12.37)"/>
      <path class="cls-7" d="M201.86,44.85,199,41.68c-.13-1.72.18-4.78-.44-5-13.74-4.48-1.83-7.32.61-10.7l4.41,6Z" transform="translate(-2.09 -12.37)"/>
      <path class="cls-9" d="M304.18,85.1c2,2.2,4.16,4.33,6,6.69A8,8,0,0,1,308,94.46c-3.78-2-7.42-4.33-11.09-6.57Z" transform="translate(-2.09 -12.37)"/>
      <path class="cls-21" d="M222.21,54.91l2.89-1.49,1.45.19,2.87,5.61q.07,2.82.14,5.65l-.33.32-6.92-.11-3-1.6Z" transform="translate(-2.09 -12.37)"/>
      <path class="cls-22" d="M193.64,55l8.26-5.76,1.69.27q-.05,3.37-.1,6.75l-2.93,2.92-4.14,1.46Z" transform="translate(-2.09 -12.37)"/>
      <path class="cls-9" d="M203.6,32l-4.41-6L199,24.51l6.54-1.72C205.79,26.06,211.43,30.42,203.6,32Z" transform="translate(-2.09 -12.37)"/>
      <path class="cls-21" d="M203.49,56.24q.05-3.38.1-6.75l4.31-.17,4.37,4.16-1.46,4.3Z" transform="translate(-2.09 -12.37)"/>
      <path class="cls-23" d="M273.93,102.51l2.85-3.13,3-1.19,2.82,7.08Z" transform="translate(-2.09 -12.37)"/>
      <path class="cls-22" d="M229.42,59.22l-2.87-5.61L231.92,56Z" transform="translate(-2.09 -12.37)"/>
      <path class="cls-9" d="M211.84,21.43l7.79-6.24Z" transform="translate(-2.09 -12.37)"/>
      <path class="cls-7" d="M263.82,76.5l-2-1.91,2.11.63Q263.92,75.86,263.82,76.5Z" transform="translate(-2.09 -12.37)"/>
      <path class="cls-14" d="M304.24,407.3c-4.89-4.92-9.16-10.8-14.83-14.52-6.43-4.21-12.82-10.7-22.27-5.91-5.41,2.74-10-1.76-8.88-7.93h7l3.85,4.52,2-4.83H297c-3.32,12.84-.42,17.37,10.09,15.79l2.84,2.85Z" transform="translate(-2.09 -12.37)"/>
      <path class="cls-3" d="M309.91,397.27l-2.84-2.85,1.43-5.77,5.65,5.71Z" transform="translate(-2.09 -12.37)"/>
      <path class="cls-24" d="M108.62,324l-4.33.07-5.64-9.56L94,322l-14.06-5.36,0,0v-4.2l.05-2.83,2.53-1.89-2.52-2.59-1.5-4.26,2.43-8.17,3.3,2.47,1.43,4.28L87,303l1.43-3.56c5.25-2.56,5.49-3.78,1.43-7.12l-8.65-23.08,17.31-3.07c-.21,2.53-.54,5.06-.59,7.6a29,29,0,0,0,.59,4.52c1.27-.23,2.55-.41,3.81-.68,2.78-.59,5.54-1.55,8.32-1.6.6,0,2.31,3.93,1.71,4.75a53.27,53.27,0,0,1-8.1,8.55c-2.13,1.87-7,3.7-6.74,4.67.8,3.5,3.11,6.71,5.07,9.89s5.06,6,6.13,9.44C109.75,316.53,108.74,320.38,108.62,324Z" transform="translate(-2.09 -12.37)"/>
      <path class="cls-2" d="M108.62,324c.12-3.57,1.13-7.42.13-10.65-1.07-3.45-4.14-6.23-6.13-9.44s-4.27-6.38-5.07-9.89c-.22-1,4.61-2.8,6.74-4.67a53.27,53.27,0,0,0,8.1-8.55c.6-.82-1.11-4.76-1.71-4.75-2.78,0-5.54,1-8.32,1.6-1.26.27-2.54.46-3.81.68a29,29,0,0,1-.59-4.52c.05-2.53.38-5.06.59-7.6,1.94-4.08,3.28-8.69,9.56-4.46,1.57,1.05,5-.64,7.55-1.07q.7,33.76,1.41,67.53Z" transform="translate(-2.09 -12.37)"/>
      <path class="cls-2" d="M61.27,313.9c-7.54-8.25-6-12.25,6.13-15.82a35.1,35.1,0,0,0,4.35-1.93,27.4,27.4,0,0,1-3-2.73c-.65-.78-1.5-2.55-1.32-2.69a77.58,77.58,0,0,1,7.34-5.17,13.87,13.87,0,0,1,3.33-1.05A19.62,19.62,0,0,0,75.21,282c-8.8-5.15-11-3.78-15.35,9.42l-7.34-9.14,17.27-10.14,10.08-2.87q.69,0,1.38,0l8.65,23.08-5.71,2.83-3.3-2.47-2.43,8.17a34.19,34.19,0,0,0-4,.49C74.57,310.34,66.85,311,61.27,313.9Z" transform="translate(-2.09 -12.37)"/>
      <path class="cls-24" d="M79.86,269.25l-10.08,2.87,2-8.06Z" transform="translate(-2.09 -12.37)"/>
      <path class="cls-24" d="M42.49,285.12c1.15,6.92-3.18,8.34-8.64,8.63C35.94,290.08,32,280.35,42.49,285.12Z" transform="translate(-2.09 -12.37)"/>
      <path class="cls-25" d="M59.59,221.77l21.68-5.84c1.54.82,4.13,2.65,4.45,2.31,4-4.17,16.35,2.55,13.84-10.42-.13-.65,4.16-2.84,6.53-3.1,2.7-.3,5.55.76,8.33,1.22,1.53.83,3.06,2.39,4.58,2.38,15.24-.11,30.48-.47,45.72-.76l0,6.85c-12.18.43-24.44,1.9-36.52,1-11.3-.87-14.29,3.49-12.65,13.49-7.65,1.17-15.28,2.63-23,3.35-2.78.26-5.82-2.12-8.59-1.84-19,1.94-35,12-51.63,20.26-3.94.39-7.87,1-11.81,1.07-2.16,0-5.51-.27-6.21-1.56-.87-1.61.45-4.39.82-6.67,2,.51,4,1.13,6.09,1.5,3.76.68,7.86,2.43,11.28,1.57,9-2.26,5.57-9,4.14-14.75l2.88-1.48C42.79,233,56.71,227.08,59.59,221.77Z" transform="translate(-2.09 -12.37)"/>
      <path class="cls-12" d="M308.51,388.64l-1.43,5.77c-10.52,1.59-13.41-2.94-10.09-15.78l8.66,0Z" transform="translate(-2.09 -12.37)"/>
      <path class="cls-16" d="M26.64,218.9l1.43,2.94-3.65,1.9Z" transform="translate(-2.09 -12.37)"/>
      <path class="cls-16" d="M30.93,184.38l-8.76,5.23-1.54-1,5.74-8.2,4.56,4Z" transform="translate(-2.09 -12.37)"/>
      <path class="cls-7" d="M396.35,82.13,393.49,85h-3l-10,1.47-4.37,0-5.76-5.67c.77-2.42,1.87-4.79,2.24-7.27.43-2.85-4.62-8.18,3.57-7.1l5.38,9.2-1-12.21,7,11.71,8.67,4.32Z" transform="translate(-2.09 -12.37)"/>
      <path class="cls-22" d="M370.38,80.81l5.76,5.67L373.06,88a50.61,50.61,0,0,0-5.53,2.45c-2.53,1.48-4.9,3.24-7.34,4.88l1.42-7.45q.1-2.08.19-4.16l2.81-4.36Z" transform="translate(-2.09 -12.37)"/>
      <path class="cls-18" d="M380.55,63.43l1,12.21-5.38-9.2-1.67-5.67-2.32-3.29L370.7,56l-3.18-2.58-1.43-5.58,2.75.1Z" transform="translate(-2.09 -12.37)"/>
      <path class="cls-22" d="M366.09,47.78l1.43,5.58-.07,2.91L359,53.42Z" transform="translate(-2.09 -12.37)"/>
      <path class="cls-7" d="M364.61,79.37l-2.81,4.36L357.48,73.6,366,69.3Z" transform="translate(-2.09 -12.37)"/>
      <path class="cls-7" d="M366,69.29l-1.42-5.72,5.36.07Z" transform="translate(-2.09 -12.37)"/>
      <path class="cls-7" d="M372.2,57.48l2.32,3.29Z" transform="translate(-2.09 -12.37)"/>
      <path class="cls-7" d="M367.45,56.28l.07-2.91L370.7,56Z" transform="translate(-2.09 -12.37)"/>
      <path class="cls-22" d="M266.88,17.65l-4.48,7.69-1.29-3.6Z" transform="translate(-2.09 -12.37)"/>
      <path class="cls-7" d="M260,21.45l-3.44.14,1.3-2Z" transform="translate(-2.09 -12.37)"/>
      <path class="cls-9" d="M396.27,79.46l-8.67-4.32c3.21-2.64,5.8-6.07,11.16-3.46,1.61.78,5.08-2.24,7.7-3.52l-4.54,11Z" transform="translate(-2.09 -12.37)"/>
      <path class="cls-9" d="M420.78,85.09l2.82,1.49q0,3.34,0,6.68c-1.67-1.36-3.17-3.47-5.05-3.9-2.82-.65-6,.4-8.86-.23s-5.21-2.4-7.8-3.68l6-1.67Z" transform="translate(-2.09 -12.37)"/>
      <path class="cls-18" d="M407.91,83.78l-6,1.67-5.53-3.32-.09-2.66,5.65-.26Z" transform="translate(-2.09 -12.37)"/>
      <path class="cls-6" d="M304.45,230.13c5.71,13.07,5.33,26.1-.28,39.1-5.21-.14-7.49,9.42-14.2,4.29,8.25-20.49,6.31-39.63-8.49-56.47-14.57-16.57-44.34-26.33-73.49-3.6l-3.4-1.14.39,5.16-5.63,7.31c-1.21-2.24-1.86-5.48-3.73-6.53-5.45-3.06-5.6-6.45-2.14-10.9,2-1.17,4.27-2.07,6-3.56,14.93-12.76,32.09-18.86,51.68-16.5,13.33,1.61,26,5.24,34.59,17l-4.82,6.29c2,.44,4.57,1.8,6,1,1.17-.63,1-3.71,1.47-5.71l38.91-1.27c4.16,1.83,8.27,3.8,12.5,5.44a36.25,36.25,0,0,0,6.2,1.27c-13.65.15-27.3.61-40.93.33-7.5-.15-10.23,1.25-4.81,8.19a11.91,11.91,0,0,1,1.25,3.31l-8-1.17a46.94,46.94,0,0,1,4,6c.52,1.07.05,2.65-.06,4-.12,1.52-.34,3-.51,4.56,1.78-.38,4-.25,5.21-1.3S303.73,231.87,304.45,230.13Zm2.78,18.25c-1.05-.9-1.75-1.9-2.22-1.81a11,11,0,0,0-2.89,1.52c.54.74,1.15,2.14,1.62,2.09C304.74,250.09,305.67,249.24,307.23,248.37Z" transform="translate(-2.09 -12.37)"/>
      <path class="cls-12" d="M268.22,310.87c-15.83,6.46-31.69,6.22-47.59.24L228,300.9l37.3-1.73Z" transform="translate(-2.09 -12.37)"/>
      <path class="cls-12" d="M193.35,290.9l-12.93-27.33L192.34,259q.66,2.85,1.32,5.7l-2.83,6.82,5.69.41,7,13.06C203.87,293.46,196.26,288.11,193.35,290.9Z" transform="translate(-2.09 -12.37)"/>
      <path class="cls-25" d="M193.48,207.35c-3.46,4.45-3.31,7.85,2.14,10.9,1.88,1.05,2.52,4.29,3.73,6.53l-4.73,9.81-12.43-1.39a60.73,60.73,0,0,1,1.63-7.44c3.79-10.84,3.84-10.82-7.68-11.49q0-3.35,0-6.7Z" transform="translate(-2.09 -12.37)"/>
      <path class="cls-17" d="M290,273.51c6.71,5.12,9-4.43,14.2-4.29-.56,13.55-9.6,21.91-18.56,30.31l-5.91-11.68,5.4-5.79,5.86-1.9-2.77-2.43Z" transform="translate(-2.09 -12.37)"/>
      <path class="cls-26" d="M279.7,287.85l5.91,11.68-17.39,11.33-2.94-11.7Z" transform="translate(-2.09 -12.37)"/>
      <path class="cls-15" d="M193.35,290.9c2.91-2.8,10.53,2.56,10.18-5.88L218,296.53l-5.83,2.87-13.2-4Z" transform="translate(-2.09 -12.37)"/>
      <path class="cls-14" d="M212.21,299.4l5.83-2.87L228,300.9l-7.34,10.21-8.52-4.4Q212.16,303.05,212.21,299.4Z" transform="translate(-2.09 -12.37)"/>
      <path class="cls-5" d="M182.19,233.21l12.43,1.39L192,243.29l-11.62,1.59Z" transform="translate(-2.09 -12.37)"/>
      <path class="cls-3" d="M192.34,259l-11.93,4.54-1.18-10,12.7-1.46Z" transform="translate(-2.09 -12.37)"/>
      <path class="cls-19" d="M346,211.32a36.25,36.25,0,0,1-6.2-1.27c-4.23-1.64-8.34-3.61-12.5-5.44l8.49.12,6,.08,8.57-.46,2.76,5.82Z" transform="translate(-2.09 -12.37)"/>
      <path class="cls-16" d="M304.45,230.13c-.72,1.74-1,4-2.28,5.08s-3.43.91-5.21,1.3c.17-1.52.39-3,.51-4.56.11-1.34.57-2.92.06-4a46.94,46.94,0,0,0-4-6l8,1.17Z" transform="translate(-2.09 -12.37)"/>
      <path class="cls-26" d="M191.93,252.08l-12.7,1.46,1.14-8.66L192,243.29Q192,247.68,191.93,252.08Z" transform="translate(-2.09 -12.37)"/>
      <path class="cls-6" d="M348.79,387.16l-2.78-.05-4.33-12.81,5.63-2.79,7.26,9.88Z" transform="translate(-2.09 -12.37)"/>
      <path class="cls-19" d="M368.92,204.55l2.93,6.89-11.5-1.27q0-2.82,0-5.65Z" transform="translate(-2.09 -12.37)"/>
      <path class="cls-12" d="M212.21,299.4q0,3.65-.1,7.31L199,295.35Z" transform="translate(-2.09 -12.37)"/>
      <path class="cls-19" d="M176.16,207.58q0,3.35,0,6.7l-2.75-.08-2-2.28L169,214.41h-4.21q0-3.42,0-6.85Z" transform="translate(-2.09 -12.37)"/>
      <path class="cls-2" d="M120.5,348.25l-9,0q0-1.4,0-2.81l6-6Z" transform="translate(-2.09 -12.37)"/>
      <path class="cls-16" d="M360.3,204.52q0,2.82,0,5.65h-7.29l-2.76-5.82Z" transform="translate(-2.09 -12.37)"/>
      <path class="cls-2" d="M146,375.65l-6.32,2.95.59-5.84Z" transform="translate(-2.09 -12.37)"/>
      <path class="cls-12" d="M271.15,378.62l-2,4.83-3.85-4.52Z" transform="translate(-2.09 -12.37)"/>
      <path class="cls-25" d="M169,214.41l2.45-2.49,2,2.28Z" transform="translate(-2.09 -12.37)"/>
      <path class="cls-6" d="M353.07,368.31,350,371.14Z" transform="translate(-2.09 -12.37)"/>
      <path class="cls-14" d="M111.53,345.48q0,1.4,0,2.81-.12,4.16-.23,8.32l-7-4q0-1.42,0-2.84C103.8,343.51,106.78,343,111.53,345.48Z" transform="translate(-2.09 -12.37)"/>
      <path class="cls-2" d="M112.35,339.16c-2.1.68-3.44,1.6-4.14,1.24-1.31-.66-2.24-2.06-3.34-3.14.81-.58,1.73-1.74,2.4-1.61C108.34,335.86,109.25,336.93,112.35,339.16Z" transform="translate(-2.09 -12.37)"/>
      <path class="cls-2" d="M104.26,349.8q0,1.42,0,2.84l-4.87-1.42Z" transform="translate(-2.09 -12.37)"/>
      <path class="cls-12" d="M232.3,394.32l-1.47,1.53-4.14-2.61,2.8-3.17Z" transform="translate(-2.09 -12.37)"/>
      <path class="cls-17" d="M435.07,227.52l-2.85-4.31,10.87.82.22,1.82Z" transform="translate(-2.09 -12.37)"/>
      <path class="cls-19" d="M403.44,203.13l2.84,11.4q-.7,0-1.39.06a19.19,19.19,0,0,1-2.68-.36c.05-10.48-7.21-4.92-11.69-5.38l-4.16-4.24c-.6-4.83.55-7,5.83-4.41,2,1,4.56,1,6.86,1.47Z" transform="translate(-2.09 -12.37)"/>
      <path class="cls-19" d="M372,201.6l-.29-8.62,10.4,7.81c-5.91,7.41,1.47,4.44,4.07,5.21l0,4.15-5.49,3.79Z" transform="translate(-2.09 -12.37)"/>
      <path class="cls-20" d="M386.27,210.15q0-2.08,0-4.15,0-.7.14-1.38l4.16,4.24Z" transform="translate(-2.09 -12.37)"/>
      <path class="cls-19" d="M370.35,204.5l1.43-1.21Z" transform="translate(-2.09 -12.37)"/>
      <path class="cls-27" d="M403.48,355.57q0,1.42,0,2.84L393.38,357v-2.88l4.32-7.84Z" transform="translate(-2.09 -12.37)"/>
      <path class="cls-6" d="M369.79,364.89c.47,5.09,1,10.19,1.19,15.29a50.11,50.11,0,0,1-5.08.67V365.08Z" transform="translate(-2.09 -12.37)"/>
      <path class="cls-25" d="M348.79,387.16l5.78-5.78,1.37,7.21q-.05,1.39-.11,2.79L350.32,390Z" transform="translate(-2.09 -12.37)"/>
      <path class="cls-6" d="M494.18,256.25h0c3.88-11.24,4.15-22.3-1.68-33.05-2.23.53-6.31,1.8-6.44,1.49-3.7-9.25-11.38-9.07-19.27-8.55a39.8,39.8,0,0,0-3.1-5.56c-4.08-5.23-8-10.67-12.89-15.05-.71-.64-6,4.65-9.57,6-2.08.79-5.06-.78-7.64-1.28-6.18,4.12-9.95,13.63-20.24,9-.5-.22-2.74,3.44-4.17,5.3l-2.89,0q-.7,0-1.39.06c-.33,1.62-.11,4.19-1.06,4.73-10.11,5.8-6.65,12.62-1.83,19.66l8.4,2.53L402,239h-2.86c-.19,3.73.83,8.23-.93,10.95-1.61,2.49-6.63,4.8-9.43,4.13-9.86-2.35-5.16,7.55-9.12,9.82.28.38.88,1,.79,1.12-2.37,3.84-4.81,7.64-7.23,11.44l.18,13,8.12,5.19-8.25,9.14.09,4.36c2.55.61,5.11,1.21,7.64,1.9a8.35,8.35,0,0,1-.3,1.67c-2.43-.19-4.85-.49-7.28-.78l-.08,21.58c1.89-1.93,5.56-4.05,5.38-5.76-1.27-11.65,7.7-8.46,11.59-6.62,4.89,2.31,8.31,4.78,12.64,0l2,2.36h0l-1.56,8.55-30.11,4.36c-2.84,13.36-10.59,23.71-20.21,32.91L350,371.14l-2.69.37,7.26,9.88,1.37,7.21h0q-.05,1.4-.11,2.79l1.61,5.86,18.69,7.2,4.59,3-4.59-3-5.75,4.32-10.11,1.43-1.41,1.43c0,.48.13,1-.07,1.42-1.78,3.17-3.63,6.31-5.46,9.46-1-3-1.54-6.29-3.11-9-1.94-3.3-4.73-6.09-7.15-9.1q0,6.46,0,12.93c1.27,3.92,2.71,7.79,3.74,11.77a43.57,43.57,0,0,1,.68,7.06c4.31,3.85,8.29,8.19,13,11.39,3.46,2.33,9.81,5.61,11.6,4.23,6.35-4.91,11.13-11.81,16.85-17.61a62,62,0,0,1,11.28-9.26c10.71-6.62,24.06-9.48,30.55-22l17.31-18.63c1.72-2.09,3.82-4,5.09-6.32,4.72-8.68,9.5-17.36,13.62-26.33s7.6-18.55,11.36-27.84a82.89,82.89,0,0,0,14.43-43.14l4.1-20.06-2.53-3.08A7.09,7.09,0,0,0,494.18,256.25Zm-28.92,30.27,1.1,1.45-1.1-1.45-2.08-1.57Zm-25.85-11.57h-2.83c-.57-3.21-1.19-6.41-1.7-9.63.52,3.22,1.13,6.42,1.7,9.63h2.83l4,3Zm-5.8,8.68c1.5,2.11,2.79,4.73,4.21,7,.35.58.72,1.13,1.09,1.66-.38-.53-.74-1.08-1.09-1.66-1.42-2.31-2.7-4.92-4.21-7Zm-12.94-1.39,3.91,7.86-3.91-7.86-10.57-.53Zm-7.16,44.53h0Zm2.19,5.94.3.26ZM422,343.8q-.28,1.94-.54,3.88Q421.7,345.74,422,343.8Zm-2.72-17,2.61-5.62-2.61,5.62Zm27.59-49.41.9-1.74-.9,1.74,4,2L461,295.12l-10.1-15.78Zm17.9-47.12a19.74,19.74,0,0,1,2.55.07,19.72,19.72,0,0,0-2.55-.07c-1.73,0-3.51.22-5.22.18h0C461.23,230.48,463,230.3,464.75,230.26Zm-29,1.68,2.48.39Zm7.39-7.91.22,1.82-8.24,1.67q0,2.16,0,4.31h0q0-2.16,0-4.31l-2.85-4.31Zm-24.51-5.64c-.61.55-1.23,1.17-1.84,1.77C417.35,219.56,418,218.95,418.58,218.4ZM415.9,221c-.32.3-.64.58-1,.83h0C415.26,221.53,415.58,221.25,415.9,221ZM392.72,274.2l6.55,11.89c-2.42,1.54-6,4.94-7.06,4.28-3.67-2.2-6.47-5.86-9.6-9Zm-10.43,28.52c-.17-.84,1.38-2,2.79-3.91,1.09,2.21,2.2,3.53,2.25,4.9,0,.84-1.55,1.74-2.41,2.62C384,305.13,382.56,304,382.29,302.71Zm7.5,13.63c-2,0-3.94-2.36-5.91-3.67,3.08-1.85,6-4.15,9.34-5.26,1-.33,3.1,2.71,6.25,5.66C395.23,314.62,392.51,316.36,389.79,316.34Zm10.72-8.6c-1.66-3.68-3.49-7.29-4.78-11.09-.17-.49,3.25-3,3.61-2.73a60.2,60.2,0,0,1,6.46,6.35ZM412,329.61c.76.67,1.55,1.33,2.34,2-.79-.65-1.57-1.31-2.34-2Zm-18.66,24.48,4.32-7.84,5.78,9.32q0,1.42,0,2.84L393.38,357,390,359.46l-1.9-2.74Zm-27.49,11,3.9-.19c.47,5.09,1,10.19,1.19,15.29a50.12,50.12,0,0,1-5.08.67Zm-5.32,24.77-.17,0Zm4.29.74h0Zm14.61,27.93a7.77,7.77,0,0,1-4.37-3.4c-.34-.63,1.79-2.59,3.66-5.11,1.87,2.66,3.36,4.09,3.84,5.81C382.79,416.44,380.26,418.75,379.48,418.52Zm42.66-75.91h0c3.44.74,6.94,1.35,9.71,3.08C429.08,344,425.58,343.35,422.14,342.61Z" transform="translate(-2.09 -12.37)"/>
      <path class="cls-6" d="M393.38,354.09V357L390,359.46l-1.9-2.74Z" transform="translate(-2.09 -12.37)"/>
      <path class="cls-19" d="M371.89,181.47q-.54-7.82-1.08-15.63L389.41,176l5.22,5.34,4.43,4.51-7.18,5.72c-2.58.32-5.3,1.26-7.71.76-1.89-.39-5.07-3.05-4.83-3.85C381.65,180.7,376.55,181.43,371.89,181.47Z" transform="translate(-2.09 -12.37)"/>
      <path class="cls-28" d="M389.41,176l-18.6-10.16q-.23-3-.45-6c5.88-3.46,10.45-4.55,10.2,5,0,1.4,1.81,2.86,2.79,4.29.63-1.35,1.2-2.73,1.9-4a21.77,21.77,0,0,1,2.63-4.28c.45-.5,1.76-.24,2.68-.33-.39,1.64-1.51,3.56-1,4.85,1.07,2.69,3,5,4.56,7.53,2.26-1.76,4.54-3.5,6.78-5.29,1.85-1.48,3.66-3,5.49-4.53l1.35,5.56,1.37,7.31-12.81,2.85Z" transform="translate(-2.09 -12.37)"/>
      <path class="cls-28" d="M426.35,178.56l-2.83,8.78c-1.46,3.1-2.38,6.67-4.53,9.18s-5.64,4.26-8.65,6.16c-.13.08-2.2-2.1-2-2.46,4-7.24,8.23-14.37,12.41-21.52Z" transform="translate(-2.09 -12.37)"/>
      <path class="cls-27" d="M391.88,191.57l7.18-5.72c7.86,1.66,9.68,8.83,4.39,17.28l-4.4-1.45Q404.72,190.05,391.88,191.57Z" transform="translate(-2.09 -12.37)"/>
      <path class="cls-8" d="M409.13,175.83l-1.37-7.31c5.78-4.29,8.75-1.85,10.21,4.24Z" transform="translate(-2.09 -12.37)"/>
      <path class="cls-21" d="M426.35,178.56l-5.6.14q-.1-2.85-.21-5.7l7.4-.12Z" transform="translate(-2.09 -12.37)"/>
      <path class="cls-23" d="M389.41,176l6.9,2.69-1.69,2.66Z" transform="translate(-2.09 -12.37)"/>
      <path class="cls-7" d="M405,103.52c-3.05,4.43-6.47,8.66-9,13.38-1,1.88,0,4.83.12,7.3l-3,3.31a18.67,18.67,0,0,1-1.19-3.66c-.66-5.89-2.81-5.06-5.69-1.35l-2.95,4.37-2.87,1.42-4.5,3-5.71-.54-1.3-5.39,2.57-.11,5.59-.62-3.78-4.94,5.72-7.26,8.76,2.37-1.62-5.33,3-2.88,5.61.08.59.31-.58-.32L393.4,91,395,89.42Z" transform="translate(-2.09 -12.37)"/>
      <path class="cls-18" d="M395,89.42,393.4,91l-4.22-1.79L390.53,85h3Z" transform="translate(-2.09 -12.37)"/>
      <path class="cls-20" d="M184.79,122.29l-4.28.25c-1-1.28-2.53-2.41-3-3.87-2-6.39-6.65-9.61-11.91-5.88-3.19,2.26-3.6,8.46-5.19,12.91,0,.14.66.55,1,.84l1.3-2.47q.16,18.7.32,37.39l-2.76,2.81c-.3-1.26-1.25-2.87-.8-3.74,4.63-8.84-2.88-14.07-5.9-20.62-.13-3.23.39-6.68-.63-9.6-.68-1.94-3.55-3.11-5.44-4.62l-3.19-3c-4.83,8.43-7.33.62-10.69-1.49-.53-.33-1.39-.13-2.1-.18l-4.27-5.68V103.82c5.17-.48,7.8.25,9.27,6.88,1.93,8.76,8.66,4.25,13.75,1.74l6,8.81c3-13.26,9.49-21.38,24.16-11.7Z" transform="translate(-2.09 -12.37)"/>
      <path class="cls-29" d="M127.31,103.82q0,5.76,0,11.53l-1.37,7.13c-1,4.46-2.73,5.48-5.49,1.16s-5.23-8.17-8.8-.57c-.2.43-2.95-.33-4.51-.53l.11-2.82c6.83-3.67,16.1-4.67,16.54-15.37,0-.69,2.28-1.28,3.49-1.92Q127.3,103.12,127.31,103.82Z" transform="translate(-2.09 -12.37)"/>
      <path class="cls-20" d="M114.34,93.74c1-4.61.66-12,3.23-13.19,3.83-1.8,9.7.76,13.49,1.3L120.14,93.74l0,0Z" transform="translate(-2.09 -12.37)"/>
      <path class="cls-29" d="M114.34,93.74l5.76,0L116,97.65l-3-3.81Z" transform="translate(-2.09 -12.37)"/>
      <path class="cls-29" d="M131.57,121c.71,0,1.57-.15,2.1.18,3.36,2.11,5.86,9.91,10.69,1.49l3.19,3-3,8.35-8.46,1.44L134.89,133l-3.43-10.6Q131.55,121.74,131.57,121Z" transform="translate(-2.09 -12.37)"/>
      <path class="cls-19" d="M131.57,121q0,.71-.11,1.41l-5.52,0,1.37-7.13Z" transform="translate(-2.09 -12.37)"/>
      <path class="cls-20" d="M98.55,173c1.91,0,4.18-.68,5.65.13,3.54,1.94,6.7,4.57,10,6.93q.11,13,.22,25.94c-2.78-.47-5.63-1.52-8.33-1.22-2.37.26-6.65,2.45-6.53,3.1,2.5,13-9.85,6.25-13.84,10.42-.33.34-2.92-1.49-4.45-2.31L87,206.06l1.46-5.83,4.27-2.91,9.17,5-.51-8-3.23-12,5.68.79a40.45,40.45,0,0,0-1.89-5A61.25,61.25,0,0,0,98.55,173Z" transform="translate(-2.09 -12.37)"/>
      <path class="cls-20" d="M59.59,221.77c-2.88,5.31-16.8,11.24-20,8.54,0-6.3,1.73-10.41,9.48-8.67C52.4,222.39,56.07,221.77,59.59,221.77Z" transform="translate(-2.09 -12.37)"/>
      <path class="cls-20" d="M78.42,203.14c-4.11,2.41-8.15,4.93-12.39,7.08-.57.29-2.09-1.3-3.18-2,1-1.17,1.73-2.94,3-3.4,3.6-1.34,7.39-2.16,11.11-3.18Z" transform="translate(-2.09 -12.37)"/>
      <path class="cls-20" d="M47.18,197.3l12,5.54c-.7.81-1.59,2.43-2.06,2.32-4.42-1.07-8.76-2.43-13.12-3.71Z" transform="translate(-2.09 -12.37)"/>
      <path class="cls-29" d="M78.42,203.14l-1.49-1.51q0-1.42,0-2.84l4.43-1.55,7.1,3L87,206.06,85.54,206l-4.3-2.81Z" transform="translate(-2.09 -12.37)"/>
      <path class="cls-20" d="M81.24,203.16l4.3,2.81Z" transform="translate(-2.09 -12.37)"/>
      <path class="cls-8" d="M350.45,129.5c-11.74-8.51-25.37-9.81-39.21-10.3,1.46-3.69-3.39-10.39,5.11-10.73L315.62,98l1.6-4.25c4.94,2.55,16-.56,10.75,11.55a12.48,12.48,0,0,0,2.05,1.37l1.24,5.39c1.73-.67,4.15-.87,5-2.13,1.07-1.59.87-4,1.21-6.13l17.07,4.31,13.94,1.73L359,115.47c-1.92,1.64-4.43,3-5.6,5C351.83,123.18,351.37,126.47,350.45,129.5Zm-11-14.84c-.93,1.66-2.07,2.78-1.92,3.7s1.57,1.66,2.43,2.47c.84-.93,2.34-1.84,2.35-2.78S340.86,116.19,339.49,114.66Z" transform="translate(-2.09 -12.37)"/>
      <path class="cls-18" d="M359,115.47l9.52-5.59c1.08-2.48,2.58-4.89,3.09-7.48.36-1.84-.64-3.94-1-5.92L373.06,88l3.07-1.52,4.37,0q-.09,5-.18,9.91c1.66,1.47,3.38,4.26,5,4.18,5.5-.27,4.82,2.61,3.91,6l-3,2.88-7.14,3-5.72,7.26-1.8,5.56-2.57.11-2.87-.06C367.94,119,361.24,118.83,359,115.47Z" transform="translate(-2.09 -12.37)"/>
      <path class="cls-9" d="M354.55,108.15l-17.07-4.31L330,106.71a12.48,12.48,0,0,1-2.05-1.37c5.23-12.11-5.81-9-10.75-11.55l1.43-7.54,2.77.29c1.37.66,3.4.95,4,2,3.54,6.44,9.56,8,15.22,3.78.44-.33,1.53-.58,1.69-.38C346.45,97.33,350.49,102.74,354.55,108.15Z" transform="translate(-2.09 -12.37)"/>
      <path class="cls-9" d="M357.48,73.6l4.32,10.13q-.1,2.08-.19,4.16c-6-1.66-12.32-2.72-17.89-5.32-1.71-.8-1.45-5.81-2.1-8.9l2.89-.14h10l1.54-.05Z" transform="translate(-2.09 -12.37)"/>
      <path class="cls-18" d="M321.42,86.54l-2.77-.29c.73-2.23.91-5.89,2.28-6.41,4.29-1.61,9-2,13.58-2.9.23,1.47,1,4.07.62,4.22-3,1.28-6.15,2-9.2,3.14A40.52,40.52,0,0,0,321.42,86.54Z" transform="translate(-2.09 -12.37)"/>
      <path class="cls-9" d="M373.06,88l-2.52,8.48c-1.09,1.33-2.33,3.9-3.23,3.79-3.4-.44-6.69-1.75-10-2.74l2.89-2.19c2.44-1.64,4.81-3.4,7.34-4.88A50.61,50.61,0,0,1,373.06,88Z" transform="translate(-2.09 -12.37)"/>
      <path class="cls-18" d="M340.47,68.23,343,66.41l5.51,0-4,7.13-2.89.14Z" transform="translate(-2.09 -12.37)"/>
      <path class="cls-28" d="M281.29,120.63l-3,0-18.72-18.31,10.2,0,4.15.11,8.7,2.76c3.58,1.56,7.37,2.77,10.7,4.75,4.78,2.83,9.24,6.22,13.83,9.37l-17.3.29Z" transform="translate(-2.09 -12.37)"/>
      <path class="cls-28" d="M265.42,89.38c7.08-.52,9.24,2.2,5.75,8.68-1.36-.75-2.71-2.12-4.07-2.13a39.18,39.18,0,0,0-10,1.14c-.52.13-.24,3.44-.33,5.28-9,.71-.93,4.79-1.41,7.18L248,111.07l-1.33-.08-2.87-5.64,7.24-21.59Z" transform="translate(-2.09 -12.37)"/>
      <path class="cls-23" d="M251.06,83.76l-7.24,21.59-5.87-3c-.31-1.39-1.32-3.63-.82-4,11-9.07-.88-8.74-4.72-11.69a21.17,21.17,0,0,1-1.56-1.46L232.31,78l12.86-.11Z" transform="translate(-2.09 -12.37)"/>
      <path class="cls-28" d="M245.17,77.88,232.31,78l-8.46-1.33c-6.65-3,.05-7.87-1.54-11.58l6.92.11c-.38,5.62,2.48,7,7.74,7.33C239.82,72.72,242.45,76,245.17,77.88Z" transform="translate(-2.09 -12.37)"/>
      <path class="cls-18" d="M245.28,63.54l10.32,4.39-3.42,7Z" transform="translate(-2.09 -12.37)"/>
      <path class="cls-23" d="M256.79,102.34c.09-1.84-.19-5.14.33-5.28a39.18,39.18,0,0,1,10-1.14c1.36,0,2.71,1.38,4.07,2.13l-1.39,4.34-10.2,0Z" transform="translate(-2.09 -12.37)"/>
      <path class="cls-18" d="M376.19,66.45l-1.67-5.67-2.32-3.29-1.49-1.53-3.25.33L359,53.42l7.05-5.64,2.75.1.08-1.56c-3.73-2.62-9.31-4.46-10.81-8-3.2-7.6-8.86-8.22-15.35-8.56l.29,2.17c1.33.78,2.75,1.46,4,2.28-1.3-.82-2.71-1.5-4-2.28l-.29-2.17-2.83-.51c-.56-2.11-.77-5.86-1.72-6.06a163.39,163.39,0,0,0-18.55-2.5c-13.28-1.23-26.15-4.94-39.8-4.43-13.43.5-27-1.52-40.43-2.43l.38,2.11c8.71-2,10.85,6.8,16.4,10l.31-4.32,1.3-2,2.15,1.9a4.11,4.11,0,0,1,1.15.29l5.77-4.09-4.48,7.69-1.29-3.6a4.07,4.07,0,0,0-1.15-.29l-3.44.14q-.16,2.16-.31,4.32l7.67,3.3L261,42c-1.68.67-3.4,2-5,1.87a98,98,0,0,1-10.82-1.65c.48-2.34.48-4.93,1.53-7,4.39-8.49,3.25-12.23-7.06-8.95l-1.77,5.48-2.94,13.48c-2-7.59-21.66.52-16.93-16.33l5.45-13.72L219.18,14a1.23,1.23,0,0,1,.46,1.25l-7.79,6.23L205.5,22.8c.29,3.26,5.94,7.62-1.9,9.19l-1.73,12.85,0,4.37,1.69.27,4.31-.18,8-8.07c3.24,3.94,12.09,3.62,9.23,12.18l1.45.19L231.92,56l-2.5,3.26q.07,2.82.14,5.65c2.09,1,4.14,2,6.28,2.9A41.63,41.63,0,0,0,240.46,69c-.17-1.32-1-3.13-.39-3.87,1.34-1.7,3.34-2.88,5.07-4.27a11.67,11.67,0,0,0,2.71-1.95,58.78,58.78,0,0,0,3.25-5.06c2.38,2.66,4.74,5.35,7.17,8a22.68,22.68,0,0,0,2.53,2.06l8.67,7L264,75.22q0,.65-.15,1.28l1.47.37c11.74-.16,15,4.67,11,15.84-.68,1.92.31,4.43.52,6.67l3-1.19,1.39-7.37,15.67-2.92,7.32-2.79,3.16-12.84c-1.76,1.23-4.27,2.13-5.43,3.61,1.15-1.49,3.67-2.39,5.43-3.61l4.1-2.82,7.12-4.34h0l8.68,4.22h0l13.24-1.09L343,66.41h0l5.51,0-4,7.13h10l.74-1.75.8,1.71,1.44.14L366,69.3l-1.41,10.07,5.76,1.45c.77-2.42,1.87-4.79,2.24-7.27C373,70.69,368,65.37,376.19,66.45ZM356.47,41c-.21-.25-.45-.48-.64-.73h0C356,40.49,356.26,40.73,356.47,41ZM345.75,58.84A5.15,5.15,0,0,0,343,56.26h0A5.15,5.15,0,0,1,345.75,58.84ZM298.59,26l4.26,2.86h0L298.59,26q0-.66,0-1.33Q298.57,25.38,298.59,26Zm-4.31,31.52c-1-2.79-1.92-5.58-2.9-8.37,1,2.78,1.94,5.58,2.9,8.37,3,.35,6.55-.06,7.11,3.1C300.83,57.5,297.23,57.91,294.28,57.56Zm27.33-27.37-.1.32-11.73,1.89h0l11.73-1.89Zm17,14.57h0l.81.81-.81-.81h0Zm7.51-2.87a9,9,0,0,1,1.19-1.2,9,9,0,0,0-1.19,1.2c-1.1,1.31-2,2.92-3,4.33a89.44,89.44,0,0,1,7.33,5.92,89.14,89.14,0,0,0-7.33-5.92C344.15,44.81,345,43.2,346.1,41.89Zm-7.51,2.87h0l-5.45-4.09h0q0-2.28,0-4.57l0,4.57ZM311.36,27.64l2.16-4.32-2.16,4.32-.1,4.14Zm11.46,27.48q-.87-3.65-1.74-7.31h0l1.74,7.31,4.39,2.69h0l-.47.4.47-.4ZM339.95,52h0l.28-5.6h0q-.14,2.8-.28,5.6.1,1.49.2,3Q340,53.48,339.95,52Zm18,13h0ZM366,69.29l-1.42-5.72,5.36.07Z" transform="translate(-2.09 -12.37)"/>
      <path class="cls-18" d="M219.36,63.48l-8.55-5.7,1.46-4.3,9.94,1.44Z" transform="translate(-2.09 -12.37)"/>
      <path class="cls-28" d="M200.56,59.16l7.65,6.15,6.1,4.87c-2.6.66-5.17,1.76-7.79,1.9-8,.43-8.81-5.78-10.09-11.45Z" transform="translate(-2.09 -12.37)"/>
      <path class="cls-2" d="M301.34,420.25,294.07,426C294.32,421.32,294.43,416.48,301.34,420.25Z" transform="translate(-2.09 -12.37)"/>
      <path class="cls-14" d="M255.67,413.06c.74,1.56,1.59,2.74,1.75,4,.06.44-1.68,1.67-2.39,1.53-1.12-.23-2.06-1.32-3.08-2Z" transform="translate(-2.09 -12.37)"/>
      <path class="cls-2" d="M346.77,429.13c-1-4-2.47-7.85-3.74-11.77-2.87-4.61-5.86-9.16-8.55-13.87-1-1.76-1.2-4-2-5.89-2.67-6.8-5.43-13.57-8.15-20.36l-18.74,1.34,2.87,10.06,5.65,5.71c2.83,5,7.73,10.15,9.73,15-2-4.87-6.9-10.06-9.73-15l-4.24,2.91-5.67,10c-4.89-4.92-9.16-10.8-14.83-14.52-6.43-4.21-12.82-10.7-22.27-5.91-5.41,2.74-10-1.76-8.88-7.92l-11.63,1c2.46,4.33,6.19,8.66.05,13l-5.76,0,4,6.74-4-6.74-4.31,1.41-5.76,5.78h0c1.12,2.85,2.37,5.65,3.29,8.56.35,1.12-.06,2.47-.13,3.72-1-.49-2.61-.73-3-1.51-3.17-7.25-5-3.63-6-.4-2.4-1.19-4.74-2-6.63-3.4a65.7,65.7,0,0,1-6.14-5.83l7.08-4v-5.75l-3.46-5,4.91,2.16,5.73-4.36h2.88c2.42.08,5.38-.72,7.15.38,6.38,4,7,.13,7.22-4.69L162,381.22c-.13,2.72.06,5.51-.48,8.15a8.37,8.37,0,0,1-4.33,5.8c-.24-2.45-.08-5-.84-7.32-.59-1.77-2.35-3.14-3.58-4.69a40.16,40.16,0,0,1-2.52,4.32c-1,1.38-3.07,3.79-3.44,3.59a39.89,39.89,0,0,1-7.72-5.71c-1.23-1.17-1.73-3.12-2.56-4.71a23.73,23.73,0,0,1-1.24,4.5c-.42.87-1.59,1.37-2.4,2.07s-1.57,1.47-2.36,2.21a17.77,17.77,0,0,0,2.58,2c4.34,2.22,8.55,4.86,13.13,6.37,4.26,1.4,10.28,3.71,13.15,1.89,8.06-5.11,7.1,1.6,7.72,5.1.51,2.88-.45,6.17-1.44,9-.23.68-3.16.45-4.85.63.26-12-11.51-8.13-17-12.56-4-3.22-9.89-4.07-14.34-6.91-2.31-1.47-3.47-4.89-4.88-7.58a38.37,38.37,0,0,1-2-5.61c-2.26,2.7-6.58,5.58-6.36,8.05.56,6.23-.7,7.76-6.83,6.34-1.85-.43-4.31,1.94-6.54,2.93-2.85,1.27-6.58,5.72-7.23-1.82l-5.75-11.52c-7.4,2.05-14.71,4.79-22.25,5.86-3.85.55-8.22-1.64-12.19-3.06-2.44-.87-4.56-2.63-6.82-4-.16,2.31-.34,4.62-.47,6.93-.05,1,0,1.91,0,2.86l0,0,4.94.4c-.7,1.33-1.35,2.7-2.12,4-1,1.7-2.12,3.35-3.19,5,1.74.68,3.66,1.08,5.16,2.09a37.14,37.14,0,0,1,5.29,4.73c1.58,1.59,3,3.33,4.5,5,1.11-1.31,2.28-2.58,3.32-3.94.86-1.13,1.35-2.63,2.39-3.52,2.38-2,5-3.82,7.52-5.7.17,3.25-.49,6.84.7,9.66,1.78,4.22,4.85,7.89,7.37,11.8a27.18,27.18,0,0,0,3-4.95c.36-1-.42-2.38-.69-3.59,1.78.38,4.85.35,5.12,1.2,1.8,5.76,12,9.81,3.94,17.68a43,43,0,0,0,4,3.19c1.81,1.12,3.79,2,5.69,3a33.52,33.52,0,0,0-5,1.91c-1.05.59-2.62,2.45-2.48,2.64,1.46,1.93,3.66,5.39,4.81,5.1a31.37,31.37,0,0,0,11.15-5.32c3-2.31,5-6,7.58-8.83,7.65-8.4,15.65-6.79,20.14,3.48,1,2.26,4.07,4.14,6.6,5.06,3.35,1.21,7.51.5,10.59,2.07,4.28,2.17,7,8.28,13.26,4.21A50.83,50.83,0,0,1,173,458.3c0,1.72-.9,3.46-1.4,5.19,11.49,1.06,3.39,8.88,4.64,13.47a3.12,3.12,0,0,1,0,.72l8.53,1.44,17.36,2.82,17.24,1.42h0l5.68,0,4.28,1.47L228,480.67,216.5,472h0l11.5,8.67,1.35,4.18,5.86.05.31-.92-.31.92,14.28,1.4-4.3-12.86h0l4.3,12.86c13.8.51,27.59,1.11,41.4,1.49,5.07.14,10.42.78,15.16-.56,8.29-2.34,16.26-5.86,24.21-9.26,2-.87,4.86-3,5-4.75.67-8,.51-16.1.65-24.15,10.78,1.91,8-8.34,11.53-12.89A43.57,43.57,0,0,0,346.77,429.13ZM110.4,444c-.28.11-.75-.27-1.14-.44.17-.39.25-1,.52-1.1s.76.25,1.18.42C110.78,443.31,110.68,443.91,110.4,444Zm203.89,2.12c1.32-1.43,2.65-2.84,3.94-4.29-1.29,1.45-2.62,2.86-3.94,4.29Zm-27.42,23-3.2-2,3.2,2ZM255,418.6c-1.12-.23-2.06-1.32-3.08-2l3.71-3.49c.74,1.56,1.59,2.74,1.75,4C257.48,417.51,255.74,418.75,255,418.6Zm39,7.39c.25-4.66.36-9.51,7.27-5.73L294.07,426c-1.37,1.92-2.84,3.78-4.15,5.73C291.23,429.77,292.7,427.91,294.07,426ZM193.12,386.7c2.26,4.51,4.17,8.05,5.69,11.75.14.34-2.13,1.68-3.28,2.56-1.47-3.37-3.1-6.69-4.28-10.16C191,390,192.17,388.69,193.12,386.7ZM176.62,402c1.06-1.81,3-4.26,4.65-4.25s3.15,2.72,4.72,4.24l-6.81,4.49C178.05,404.59,176.24,402.65,176.62,402Zm-9.31,27.85c-2.16-.75-4-2.4-6-3.68s-4.21-2.76-6.31-4.14c2.79-.18,5.9-1.22,8.3-.33,3.56,1.31,6.62,4,12.58,7.78C170.93,429.76,168.92,430.4,167.31,429.85Zm14.32,3c8.11-3.7,2.8-5-1-7.12-2-1.14-3.41-3.31-5.08-5l4.72-3c4.38,4.24,8.84,8.52,13.23,12.87.46.45.44,1.36.83,1.92,1.11,1.58,1.52,13.56.26,14.6-.73.6-2.38,1.23-2.8.88-4.3-3.65-8.5-7.44-12.48-11.43C179.08,436.31,180.48,433.38,181.63,432.85Z" transform="translate(-2.09 -12.37)"/>
      <path class="cls-15" d="M84.17,295.14l5.71-2.83c4.06,3.34,3.82,4.56-1.43,7.12H85.61Z" transform="translate(-2.09 -12.37)"/>
      <path class="cls-2" d="M79.89,316.62l-3.64-1.26,3.63-2.94Q79.89,314.52,79.89,316.62Z" transform="translate(-2.09 -12.37)"/>
      <path class="cls-2" d="M85.61,299.43h2.85L87,303Z" transform="translate(-2.09 -12.37)"/>
      <path class="cls-2" d="M79.93,309.59q0-2.24,0-4.48l2.52,2.59Z" transform="translate(-2.09 -12.37)"/>
      <path class="cls-19" d="M184.79,122.29l-4.27-12.73h2.86l4.33-1.48h2.8l8.73,0,4.31-2.83c2-.39,4.06-.67,6-1.2a7.12,7.12,0,0,0,3.07-1.64c.33-.33-.33-2.28-.36-2.28-6.42.95-4-2.86-3.55-6,.13-.92-1.71-3.08-2.56-3-8.42.39-9.81-5.69-11.28-11.78l5.69-1.25c1.83,3.56.11,12.63,8.73,5.59l4.31,1.49c-.23,14.07,6.42,3,10.09,2.75h2.79c2,2,4,3.93,5.93,5.93a24.36,24.36,0,0,1,1.65,2.09l-3.24.76-7.18,5.23c1.47,1.82,3,3.58,4.37,5.49a5.21,5.21,0,0,1,1.09,3c-.24,3.56-.75,7.09-1.16,10.64Z" transform="translate(-2.09 -12.37)"/>
      <path class="cls-20" d="M187.71,108.07l-4.33,1.48,2.4-3.74Z" transform="translate(-2.09 -12.37)"/>
      <path class="cls-28" d="M230.86,96.66l3.24-.76a24.36,24.36,0,0,0-1.65-2.09c-2-2-3.95-4-5.93-5.93q0-1.38,0-2.75h4.31a21.17,21.17,0,0,0,1.56,1.46c3.83,2.94,15.69,2.61,4.72,11.69-.5.41.51,2.66.82,4Z" transform="translate(-2.09 -12.37)"/>
      <path class="cls-28" d="M223.73,87.9c-3.67.2-10.31,11.31-10.09-2.75l4.75-5.35Z" transform="translate(-2.09 -12.37)"/>
      <path class="cls-19" d="M230.85,85.13h-4.31l-2.71-8.48L232.31,78Z" transform="translate(-2.09 -12.37)"/>
      <path class="cls-20" d="M209.33,83.65c-8.62,7-6.9-2-8.73-5.59C204.17,78.88,211.07,74.52,209.33,83.65Z" transform="translate(-2.09 -12.37)"/>
      <g>
        <path class="cls-28" d="M223.84,76.66c-6.65-3,.05-7.86-1.54-11.58l-2.95-1.6-8.55-5.7-7.32-1.54-2.93,2.92,7.65,6.15,6.1,4.87c-2.6.66-5.17,1.76-7.79,1.9-8,.43-8.81-5.78-10.09-11.45L193.64,55l-8.84-3h0l8.84,3,8.27-5.76q0-2.18,0-4.37L199,41.68c-.13-1.73.18-4.78-.44-5-13.74-4.48-1.83-7.32.61-10.7L199,24.51H187.7l-15.29-2.1-.6-.64-13,6.26-4.08,2.87-14.58,6h0l-6,2.37L129,42.38l4.12,5.36,5.76-2.93,2.81,0,1.57,8.64h0l2.93,7.15c-3.44,4.88-3.5,9.46,1.09,13.74.35.33,0,1.35,0,2.05-2.86,1.54-5.76,3-8.57,4.63-3.09,1.79-5.67,3.26-.22,6,2.48,1.24,4,4.64,5.62,7.3,1.81,3,3.19,6.33,4.76,9.51l1.46,8.61,6,8.81c3-13.26,9.49-21.38,24.16-11.7h2.86l2.4-3.74,1.93,2.26h2.8l8.73,0a4.83,4.83,0,0,1-.33-.63q-1.53-4.31-3.05-8.63c2,1.76,3.92,3.55,5.91,5.28a14.12,14.12,0,0,0,1.78,1.15c2-.39,4.06-.67,6-1.2a7.12,7.12,0,0,0,3.07-1.64c.33-.33-.33-2.28-.36-2.28-6.42.95-4-2.86-3.55-6,.13-.92-1.71-3.08-2.56-3-8.42.39-9.81-5.69-11.28-11.78l5.69-1.25c3.58.82,10.47-3.54,8.73,5.59l4.32,1.49,4.75-5.35,5.34,8.11h2.79l0-2.75ZM182.42,41a3.71,3.71,0,0,1,.7,1,3.71,3.71,0,0,0-.7-1,3.27,3.27,0,0,0-.63-.47A3.27,3.27,0,0,1,182.42,41Zm-1.83-.93a6.14,6.14,0,0,0-1.32-.11A6.14,6.14,0,0,1,180.59,40.06Zm4,11.51c0,.12.09.23.14.34C184.71,51.79,184.66,51.68,184.61,51.56ZM183.52,43q.11.38.18.78Q183.62,43.37,183.52,43Zm-24.59-8.12,5.86-4.47h0l-5.86,4.47c3.07,3.67,6.19,7.31,9.19,11-3-3.73-6.12-7.37-9.19-11l-.1-5.35Zm0,21.48L160.41,65h0l-1.46-8.65c-1.31-5.35-5-7.45-9.68-6.1C154,48.91,157.64,51,158.95,56.35Zm-7.29,2.86-3.44-4.93,3.44,4.94q.05,1.45.11,2.89ZM160.41,65h0l7.15-2.88Zm13.41,14.06c.66,2.06,3.34,2.78,6.7,3.13,2.69-3.3,5.31-6.65,8.07-9.89-2.76,3.24-5.38,6.59-8.07,9.89C177.16,81.85,174.48,81.13,173.82,79.07ZM189.6,93.92l.58-1.18-.58,1.18c-2.08,4.24-3.74,8.51.1,13.23C185.87,102.42,187.52,98.16,189.6,93.92Zm.88-1.77c.19-.39.39-.79.57-1.18C190.87,91.36,190.67,91.76,190.48,92.15Z" transform="translate(-2.09 -12.37)"/>
        <path class="cls-28" d="M139.7,73.4c-.77-.72-1.9-2.17-2.24-2A6.24,6.24,0,0,0,134.82,74c-.2.39.93,1.47,1.62,2.48Z" transform="translate(-2.09 -12.37)"/>
      </g>
      <path class="cls-24" d="M120.5,348.25l-9,0-.23,8.32-7-4-4.87-1.42,4.86-1.42c-.47-6.29,2.52-6.79,7.26-4.33l6-6q-.25-5.65-.49-11.29L108.62,324l-4.33.07c-3.19,5.54-6.47,11-9.48,16.65,3-5.63,6.29-11.12,9.48-16.65l-5.64-9.56L94,322l-14.06-5.36c-.85,1.07-1.54,2.45-2.45,3.38.91-.93,1.6-2.31,2.45-3.38l0,0-3.64-1.26,3.63-2.94q0-1.41.05-2.83,0-2.24,0-4.48l-1.5-4.26a34.2,34.2,0,0,0-4,.49c.14,9-7.58,9.67-13.16,12.56l1.18,5.57c-6.23,2-9.14,5.84-8.54,10.68-.6-4.84,2.31-8.63,8.54-10.68l-1.18-5.57c-7.53-8.25-6-12.25,6.13-15.82a35.11,35.11,0,0,0,4.35-1.93,27.4,27.4,0,0,1-3-2.73c-.65-.78-1.5-2.55-1.32-2.69a77.57,77.57,0,0,1,7.34-5.17,13.87,13.87,0,0,1,3.33-1.05A19.62,19.62,0,0,0,75.21,282c-8.8-5.15-11-3.78-15.35,9.42l-7.34-9.14-4.34,0-5.69,2.89c1.16,6.92-3.18,8.34-8.64,8.63L32.4,298l-2.95,5.79-4.3,11.49L8.11,319.47c.9,5.65,1.64,11.33,2.78,16.94.53,2.62,1.85,5.08,2.82,7.61l8.73,24.41L26.65,380l7.15-2.88h0l2.84.07,2.21-7-2.2,7,1.45,1.45c3.54,5.14-.15,14.93,10.11,15.75,0-1-.08-1.91,0-2.86.13-2.31.31-4.62.47-6.93,2.26,1.36,4.39,3.11,6.82,4,4,1.42,8.33,3.61,12.19,3.06,7.54-1.08,14.85-3.81,22.25-5.86l5.75,11.52c4.67-3.84,12-6.12,8.72-14.67,9.73-2.69,3.65-16.45,13.77-19.52,2.36-.72,3.37-5.9,5-9Zm-13.23-12.59c1.07.21,2,1.27,5.08,3.51-2.1.68-3.44,1.6-4.14,1.24-1.31-.66-2.24-2.06-3.34-3.14C105.68,336.68,106.6,335.52,107.27,335.65ZM48.12,348.36l.11,0-.11,0Zm8.6,14.35h0l-1.45-7.11-2.86-4.28,2.86,4.28,1.45,7.11,5.88,0h0Zm6.44-32.76c-.58,7.9-4.32,14.25-13.54,17.86C58.84,344.2,62.57,337.85,63.16,329.95Zm-16.4-7.5c0-.46-.08-.93-.14-1.4.06.47.11.94.14,1.4l1.5,5.75h0l-1.5-5.75h0ZM35.58,345.86c.78.38,1.8.63,2.57,1h0C37.38,346.49,36.36,346.24,35.58,345.86ZM65.4,387.21c-2.09-3.83-3.94-7.83-6.15-11.58,2.21,3.75,4.06,7.75,6.15,11.58Z" transform="translate(-2.09 -12.37)"/>
      <path class="cls-22" d="M380.32,96.43q.09-5,.18-9.91l10-1.47-1.34,4.16c-.85,1.06-2.61,2.37-2.4,3.13C389.2,101.15,383.54,96.82,380.32,96.43Z" transform="translate(-2.09 -12.37)"/>
      <path class="cls-7" d="M356,73.46l-1.54.05.74-1.76Z" transform="translate(-2.09 -12.37)"/>
      <path class="cls-19" d="M285.76,204.26l2.6,1.63c-.44,2-.29,5.08-1.47,5.71-1.39.75-3.92-.61-6-1Z" transform="translate(-2.09 -12.37)"/>
      <path class="cls-16" d="M307.23,248.37c-1.56.87-2.48,1.72-3.48,1.81-.47,0-1.08-1.35-1.62-2.09a11,11,0,0,1,2.89-1.52C305.48,246.47,306.17,247.47,307.23,248.37Z" transform="translate(-2.09 -12.37)"/>
      <path class="cls-17" d="M208,213.44l-3,4-.39-5.16Z" transform="translate(-2.09 -12.37)"/>
      <path class="cls-15" d="M193.66,264.74l2.87,7.23-5.69-.41Z" transform="translate(-2.09 -12.37)"/>
      <path class="cls-6" d="M285.1,282.07l3.09-4.33,2.77,2.43Z" transform="translate(-2.09 -12.37)"/>
      <path class="cls-6" d="M335.76,204.74l6,.08Z" transform="translate(-2.09 -12.37)"/>
      <path class="cls-6" d="M345.85,167.13l.05,2.87q0,1.43,0,2.86c1.58,9.07-3,12.05-11.31,11.72-6.9-.27-13.81-.15-20.72-.09-6.52.06-9.64-3.23-9.68-9.59,0-6,0-11.91,0-17.86L315,153.79c-2.73,7.94,1.32,11.88,12.24,11.91,5.73-.69,10.13,9.3,16.67,2.09l0,0Z" transform="translate(-2.09 -12.37)"/>
      <path class="cls-16" d="M327.21,165.7c-10.92,0-15-4-12.24-11.91L304.24,157c-.4-12.49,1-14,13.23-14.52,4.22-.19,8.42-.77,12.63-1.17l15.73,11.42q0,7.17,0,14.35l-2,.68,0-.07c-3.21-1.52-6.3-3.66-9.68-4.32C332.1,163,329.55,164.86,327.21,165.7Z" transform="translate(-2.09 -12.37)"/>
      <path class="cls-19" d="M256.79,102.34h2.79l18.72,18.31-38.84.24,7.22-9.92,1.33.08,7.29,3,2.12.53-.46-2.14-1.59-2.92C255.86,107.13,247.77,103.06,256.79,102.34Z" transform="translate(-2.09 -12.37)"/>
      <path class="cls-9" d="M366.06,125.36l2.87.06,1.3,5.39-2.8,1.78-2.53,4.06,4-1.18,7-4.13,4.5-3c-1.94,3.07,11,4.55.9,8.48.4.47.8.94,1.18,1.42l3.35,4.12c-1.91.11-4.42,1.06-5.61.19-6.56-4.8-10.87.34-15.76,3.06L352.9,131.29C358,130.91,358.81,121,366.06,125.36Z" transform="translate(-2.09 -12.37)"/>
      <path class="cls-29" d="M162.76,124.05l-1.3,2.47c-.36-.28-1.07-.7-1-.84,1.59-4.45,2-10.65,5.19-12.91,5.26-3.73,9.94-.51,11.91,5.88.45,1.46,2,2.59,3,3.87q-.12,8.58-.24,17.17L171,134C168.18,130.75,176.09,118.69,162.76,124.05Z" transform="translate(-2.09 -12.37)"/>
      <path class="cls-16" d="M391.88,191.57q12.83-1.5,7.17,10.11c-2.3-.46-4.83-.46-6.86-1.47-5.27-2.6-6.43-.42-5.83,4.41q-.1.69-.14,1.38c-2.6-.76-10,2.2-4.07-5.21L371.76,193q.07-5.76.14-11.52c4.65,0,9.76-.76,7.44,7-.24.8,2.95,3.47,4.83,3.85C386.58,192.82,389.29,191.89,391.88,191.57Z" transform="translate(-2.09 -12.37)"/>
      <path class="cls-20" d="M246.69,111l-7.22,9.92L228,121c.41-3.55.92-7.08,1.16-10.64a5.21,5.21,0,0,0-1.09-3c-1.35-1.91-2.9-3.67-4.37-5.49l7.18-5.23,7.09,5.66,5.87,3Zm-9.57-1.18c-1-1.12-1.55-2.43-2.34-2.56s-2.27,1.28-2.19,1.77c.2,1.12,1.19,2.09,1.86,3.13Z" transform="translate(-2.09 -12.37)"/>
      <path class="cls-19" d="M153.62,139.89c3,6.55,10.54,11.78,5.9,20.62-.46.87.5,2.48.8,3.74l-1.52,12.92c-2.43,4.72-2.29,8.19,4.18,8.57-5.68,2.66-8.69,1.86-8.65-5.41C154.42,166.85,153.89,153.37,153.62,139.89Z" transform="translate(-2.09 -12.37)"/>
      <path class="cls-16" d="M144.73,170.69c.42,3.88,1.33,7.8,1.05,11.63-.12,1.68-3,4.69-4,4.46-2.09-.45-5.24-2.59-5.4-4.28-.61-6.55-.22-13.2-.2-19.81l4.05.18h0Z" transform="translate(-2.09 -12.37)"/>
      <path class="cls-20" d="M136.06,135.46l8.46-1.44q.07,2.81.14,5.63,0,11.57-.09,23.15l-4.4.07h0c-.41-4.17,5.06-10.38-4-11.54Z" transform="translate(-2.09 -12.37)"/>
      <path class="cls-19" d="M171,134l9.32,5.66q0,10.85.05,21.7H172q0-5.8,0-11.6l5.11-2.57-5.69-6.45Z" transform="translate(-2.09 -12.37)"/>
      <path class="cls-19" d="M180.25,165.65c.13,5.19.62,10.41.19,15.55-.14,1.67-2.7,3.13-4.15,4.68-1.47-1.54-4-2.94-4.19-4.64-.57-4.16-.08-8.46,0-12.71l4.46,2.89Z" transform="translate(-2.09 -12.37)"/>
      <path class="cls-7" d="M366.06,125.36c-7.26-4.38-8.06,5.55-13.17,5.94l-2.45-1.79c.92-3,1.38-6.33,2.91-9,1.17-2.07,3.69-3.38,5.6-5C361.24,118.83,367.94,119,366.06,125.36Z" transform="translate(-2.09 -12.37)"/>
      <path class="cls-27" d="M345.81,152.78l-15.73-11.42C343.46,141.17,345.76,142.84,345.81,152.78Z" transform="translate(-2.09 -12.37)"/>
      <path class="cls-20" d="M180.25,165.65l-3.73,5.77-4.46-2.89q0-3.57-.09-7.14h8.35Q180.29,163.53,180.25,165.65Z" transform="translate(-2.09 -12.37)"/>
      <path class="cls-29" d="M136.18,151.34c9.07,1.16,3.6,7.37,4,11.54l-4.05-.18Q136.16,157,136.18,151.34Z" transform="translate(-2.09 -12.37)"/>
      <path class="cls-20" d="M163,185.74c-6.47-.38-6.61-3.85-4.18-8.57h4.45Z" transform="translate(-2.09 -12.37)"/>
      <path class="cls-29" d="M163.26,177.18h-4.45l1.52-12.92,2.76-2.81Z" transform="translate(-2.09 -12.37)"/>
      <path class="cls-16" d="M144.57,162.79q0-11.57.09-23.15l1,23.32Q145.12,162.9,144.57,162.79Z" transform="translate(-2.09 -12.37)"/>
      <path class="cls-29" d="M171.44,140.77l5.69,6.45L172,149.79l0-.07-.58-3.29Z" transform="translate(-2.09 -12.37)"/>
      <path class="cls-29" d="M144.57,162.79q.54.11,1.09.17-.46,3.86-.93,7.73l-4.56-7.83Z" transform="translate(-2.09 -12.37)"/>
      <path class="cls-28" d="M367.19,151.57l5.22.51L369,155.65Z" transform="translate(-2.09 -12.37)"/>
      <path class="cls-19" d="M281.29,120.63l8.57-1Z" transform="translate(-2.09 -12.37)"/>
      <path class="cls-19" d="M345.9,172.86q0-1.43,0-2.86Q345.9,171.43,345.9,172.86Z" transform="translate(-2.09 -12.37)"/>
      <path class="cls-19" d="M171.39,146.44l.58,3.29Z" transform="translate(-2.09 -12.37)"/>
      <path class="cls-7" d="M400.6,135.45q0,2.84.05,5.68l1.28,7.17-3.65,10.75c-.69-3.62-1.31-7.27-2.1-10.87-.38-1.74-1.11-3.41.21-6.35l-4.22-3.16Z" transform="translate(-2.09 -12.37)"/>
      <path class="cls-9" d="M401.93,148.3l-1.28-7.17,5.79-1.18q-.05,4.23-.11,8.46Z" transform="translate(-2.09 -12.37)"/>
      <g>
        <path class="cls-9" d="M491.26,215.54c.8-16.08-1.68-31.48-8.56-46.13-5.87-12.5-11.39-25.16-17.41-37.58a71.21,71.21,0,0,0-8.3-13c-3.59-4.54-8.36-8.18-11.69-12.87-6.13-8.64-11.59-17.76-17.33-26.68l-1,1-.43,6.52-3-.23q0,3.34,0,6.68c-1.67-1.36-3.17-3.47-5.05-3.9-2.82-.65-6,.4-8.86-.23s-5.21-2.4-7.8-3.68l-5.53-3.32L393.49,85,395,89.42l10,14.1c-3.05,4.43-6.47,8.66-9,13.38-1,1.88,0,4.83.12,7.3l4.39,7.69h0l.08,3.56h0l8.69,2.93L406.44,140l-.11,8.46-4.4-.11-3.65,10.75c-.69-3.62-1.31-7.27-2.1-10.87-.38-1.74-1.11-3.41.21-6.35l-4.22-3.16,8.42-3.22-.08-3.56-4.39-7.69-3,3.3a18.67,18.67,0,0,1-1.19-3.66c-.66-5.89-2.81-5.06-5.69-1.35l1,5.77-4-1.4-2.87,1.42c-1.94,3.07,11,4.55.9,8.48.4.47.8.94,1.18,1.42l3.35,4.12c-1.91.11-4.42,1.06-5.61.19-6.56-4.8-10.87.34-15.76,3.06l2.69,6,5.22.51L369,155.65l1.41,4.15c5.88-3.46,10.45-4.55,10.2,5,0,1.4,1.81,2.86,2.79,4.29.63-1.35,1.2-2.73,1.9-4a21.77,21.77,0,0,1,2.63-4.28c.45-.5,1.76-.24,2.68-.33-.39,1.64-1.51,3.56-1,4.85,1.07,2.69,3,5,4.56,7.53,2.26-1.76,4.54-3.5,6.78-5.29,1.85-1.48,3.66-3,5.49-4.53l1.35,5.56c5.78-4.29,8.75-1.85,10.21,4.24l2.58.23,7.4-.12,11.27-8.76h0l-11.27,8.76-1.59,5.68-2.83,8.78,7.21,1.34,2.86,11.58c2.57.51,5.55,2.07,7.64,1.28,3.6-1.37,8.86-6.66,9.57-6,4.87,4.38,8.82,9.82,12.89,15.05a39.8,39.8,0,0,1,3.1,5.56c7.89-.53,15.57-.71,19.27,8.55.13.31,4.2-1,6.44-1.49C492.06,220.64,491.13,218.07,491.26,215.54Zm-73.1-85.87h0l2.58-14.36Zm-2-29.78-5.65,4.38h0Zm-11.86,28.52h0l5.72-.55Zm19.08,16.77,4.37,9h0l-4.37-9L415,142.76Zm4.31,11.68h0A6.14,6.14,0,0,0,429,160,6.14,6.14,0,0,1,427.73,156.86ZM442.3,195.4a49.16,49.16,0,0,1-6.91-4.07c1.47-1.28,3.17-3.79,4.35-3.57,2.15.41,4,2.44,7.15,4.61C444.46,194,443,195.68,442.3,195.4Z" transform="translate(-2.09 -12.37)"/>
        <path class="cls-9" d="M406.44,140l2.85-1.55-8.69-2.93.05,5.66Z" transform="translate(-2.09 -12.37)"/>
      </g>
      <path class="cls-9" d="M383.31,126.87l2.95-4.37,1,5.77Z" transform="translate(-2.09 -12.37)"/>
      <path class="cls-9" d="M380.32,96.43c3.22.38,8.88,4.72,6.46-4.09-.21-.77,1.56-2.08,2.4-3.13L393.4,91l1.42,15.71h0l-5.61-.08c.91-3.42,1.59-6.29-3.91-6C383.7,100.69,382,97.91,380.32,96.43Z" transform="translate(-2.09 -12.37)"/>
      <path class="cls-9" d="M379,112.47l7.14-3,1.62,5.33Z" transform="translate(-2.09 -12.37)"/>
      <path class="cls-8" d="M371.51,125.3l1.8-5.56,3.78,4.94Z" transform="translate(-2.09 -12.37)"/>
      <path class="cls-18" d="M367.44,132.59l2.8-1.78,5.71.53-7,4.13Z" transform="translate(-2.09 -12.37)"/>
      <path class="cls-9" d="M394.82,106.71l.58.32-.59-.31Z" transform="translate(-2.09 -12.37)"/>
      <path class="cls-20" d="M148.88,103.84c-1.57-3.18-2.94-6.48-4.76-9.51-1.58-2.65-3.14-6.06-5.62-7.3-5.45-2.71-2.87-4.19.22-6,2.81-1.63,5.71-3.09,8.57-4.63,0-.7.31-1.73,0-2.05-4.59-4.29-4.53-8.86-1.09-13.74l-2.93-7.15-1.57-8.64-2.81,0-5.76,2.93L129,42.38c-5.37,1.84-11.13,3-16,5.7-6.53,3.6-12.4,8.4-18.55,12.68l-3,3L85.47,69.2h0L62.91,93.84l-16.08,23c1.32.94,2.69,1.81,3.94,2.83-1.25-1-2.62-1.89-3.94-2.83-2.16,2-5.36,3.67-6.31,6.16-4.51,11.83-8.77,23.79-12.44,35.9-4.59,15.13-8.52,30.47-12.74,45.71l-1.59,4.38c-2.11,5.16,4.72,13.31-5.28,15.83q-.08,1.37-.17,2.74c5.66.38,8.23-2.15,8.48-7.92.07-1.71,2.23-4.34,3.86-4.71,2.27-.52,4.94.68,7.43,1.14,13.54,1.13,13.55,1.13,10.11-12.89-.16-.65-.93-1.33-.8-1.84.21-.86.95-2.29,1.42-2.27,9.25.35,4.5-15.36,15.19-13.2l2.93-5.68,5.69,8.52,4.29.08h0l10,10,4.43-1.55c-.33-14.06,6.8-1.2,9.94-2.75l.07-2.9c-.69-.74-1.38-1.47-2.08-2.2.7.73,1.39,1.46,2.08,2.2l10,2.72-3.23-12,5.68.79a40.46,40.46,0,0,0-1.89-5A61.22,61.22,0,0,0,98.55,173c1.91,0,4.18-.68,5.65.13,3.54,1.94,6.7,4.57,10,6.93q0-3.56,0-7.11l-10.91-16,10.91,16,8.9-28.59,2.86-4.05,8.92-7.21-3.43-10.6-5.52,0c-1,4.46-2.73,5.48-5.49,1.16s-5.23-8.17-8.8-.57c-.2.43-2.95-.33-4.51-.53h0l.11-2.82c6.83-3.67,16.1-4.67,16.54-15.37,0-.69,2.28-1.28,3.49-1.92h0q0,.7,0,1.4c5.17-.48,7.8.25,9.27,6.88,1.93,8.76,8.66,4.25,13.75,1.74ZM126.47,64.55c-.21.78-.44,1.56-.7,2.31C126,66.11,126.26,65.34,126.47,64.55Zm-7.79,10.5A13,13,0,0,0,122,72.86a13,13,0,0,1-3.34,2.19c-.86-.55-1.7-1.16-2.55-1.73C117,73.89,117.81,74.5,118.67,75.05Zm5.38-4.65a12.25,12.25,0,0,1-2,2.44A12.25,12.25,0,0,0,124.06,70.41ZM83.48,151.65l-2.17-1.82q0-1.39,0-2.78l0,2.78Zm-4.2-33.06L78.4,118ZM84,121l.09-4.23c-1.44-.72-2.92-1.37-4.34-2.12,1.42.76,2.9,1.4,4.34,2.12Q84.07,118.89,84,121ZM78,117.76c-2-1.17-4-1.58-5.52,1.35C74,116.19,75.93,116.59,78,117.76Zm-6.63,4.3a15.08,15.08,0,0,1,1.08-2.9A15.08,15.08,0,0,0,71.33,122.06Zm-.12.44c-1.86,1.43-3.65,3-5.52,4.4,1.87-1.42,3.66-3,5.52-4.4Zm0,34.57,4.27-8.59.06-4.38h0q0,2.19-.06,4.37l-4.27,8.59ZM88.46,113.9h0c3.29-1.31,6.62-2.56,9.91-3.88C95.08,111.33,91.75,112.58,88.46,113.9ZM26.37,180.38l4.56,4h0l-8.76,5.23-1.54-1Zm20.58-10c.73,3.3,2.81,6.69,8.5,5.29h0C49.76,177.1,47.67,173.71,46.95,170.42Zm22.72,8.24a6.39,6.39,0,0,1,.35,1.81A6.39,6.39,0,0,0,69.67,178.65Zm50.47-84.91,0,0L116,97.65l-3-3.81h0l1.35-.1c1-4.61.66-12,3.23-13.19,3.83-1.8,9.7.76,13.49,1.3ZM134.82,74a6.24,6.24,0,0,1,2.63-2.62c.34-.17,1.47,1.29,2.24,2l-3.26,3.08C135.75,75.48,134.62,74.39,134.82,74Z" transform="translate(-2.09 -12.37)"/>
      <path class="cls-29" d="M91.35,191.57l10,2.72.51,8-9.17-5-1.43-2.85Z" transform="translate(-2.09 -12.37)"/>
      <path class="cls-19" d="M91.28,194.48l1.43,2.85-4.28,2.91-7.1-3C81,183.17,88.14,196,91.28,194.48Z" transform="translate(-2.09 -12.37)"/>
      <path class="cls-18" d="M330,106.71l7.45-2.87c-.34,2.08-.13,4.54-1.21,6.13-.85,1.26-3.28,1.46-5,2.13Z" transform="translate(-2.09 -12.37)"/>
      <path class="cls-9" d="M339.49,114.66c1.37,1.53,2.86,2.47,2.85,3.39s-1.5,1.85-2.35,2.78c-.86-.82-2.28-1.54-2.43-2.47S338.56,116.32,339.49,114.66Z" transform="translate(-2.09 -12.37)"/>
      <path class="cls-29" d="M255.3,114.05l-7.29-3,7.37-1.55,1.59,2.92Z" transform="translate(-2.09 -12.37)"/>
      <path class="cls-29" d="M199.24,108.11a4.82,4.82,0,0,1-.33-.63q-1.53-4.31-3.05-8.63c2,1.76,3.92,3.55,5.91,5.28a14.12,14.12,0,0,0,1.78,1.15Z" transform="translate(-2.09 -12.37)"/>
      <path class="cls-6" d="M227.66,220.2c9.86-10.57,35.36-3.78,42,5.16,6.82,9.18,12,18.87,10,30.9-5.62-2.43-11.23-4.89-16.87-7.28a22.61,22.61,0,0,0-3.23-.85c-.33,1.48-.65,3-1,4.45-.46,2-.93,4-1.4,6-4.11-3.85-7.24-9.24-14.65-7.17-1.36.38-4.29-3.33-5.84-5.6-2.07-3-3.5-6.53-5.21-9.82,2.86.53,5.74,1,8.58,1.62.89.19,2.13,1.38,2.46,1.13,2-1.5,4.59-3,5.29-5.09.49-1.44-2.13-5.61-2.69-5.49C237.2,229.82,232.26,225.49,227.66,220.2Z" transform="translate(-2.09 -12.37)"/>
      <path class="cls-17" d="M227.66,220.2c4.6,5.29,9.53,9.63,17.47,7.91.56-.12,3.18,4,2.69,5.49-.71,2.08-3.31,3.59-5.29,5.09-.33.25-1.57-.93-2.46-1.13-2.84-.62-5.71-1.09-8.58-1.62,1.7,3.3,3.13,6.78,5.21,9.82,1.55,2.27,4.48,6,5.84,5.6,7.42-2.06,10.54,3.32,14.65,7.17.47-2,.94-4,1.4-6,.34-1.48.66-3,1-4.45a22.61,22.61,0,0,1,3.23.85c5.64,2.39,11.25,4.84,16.87,7.28l-8.37,16-13.17-5.95L251,260.64c-7.16-4-16.34-6.36-20.91-12.3-4.74-6.15-8.86-3.26-13.47-3.53-2.5-.15-5-.12-7.51-.17C209.56,232.15,217.6,225.4,227.66,220.2Z" transform="translate(-2.09 -12.37)"/>
      <path class="cls-26" d="M209.08,244.64c2.5.05,5,0,7.51.17,4.61.27,8.74-2.63,13.47,3.53,4.57,5.94,13.75,8.35,20.91,12.3q0,3.61,0,7.22L245.4,287.6l-7.29-1.08a28.35,28.35,0,0,0-27.39-20.15,3.06,3.06,0,0,1-.1-1l-1.74-4.67Z" transform="translate(-2.09 -12.37)"/>
      <path class="cls-14" d="M210.73,266.37a28.35,28.35,0,0,1,27.39,20.15C225.08,285.12,216.32,277.89,210.73,266.37Z" transform="translate(-2.09 -12.37)"/>
      <path class="cls-26" d="M258.14,266.35l13.17,5.95c-4,8.83-11.61,12.26-20.44,14l4.31-18.33Z" transform="translate(-2.09 -12.37)"/>
      <path class="cls-4" d="M255.18,267.95l-4.31,18.33-5.47,1.33L251,267.86Z" transform="translate(-2.09 -12.37)"/>
      <path class="cls-14" d="M208.88,260.69l1.74,4.67Z" transform="translate(-2.09 -12.37)"/>
      <path class="cls-19" d="M327.21,165.7c2.35-.84,4.89-2.68,7-2.27,3.38.65,6.47,2.8,9.68,4.31,0,0,0,.05,0,.05C337.33,175,332.94,165,327.21,165.7Z" transform="translate(-2.09 -12.37)"/>
      <path class="cls-28" d="M255.3,114.05l1.66-1.61.46,2.14Z" transform="translate(-2.09 -12.37)"/>
      <path class="cls-7" d="M367.44,132.59l1.49,2.88-4,1.18Z" transform="translate(-2.09 -12.37)"/>
      <path class="cls-19" d="M237.12,109.82l-2.66,2.35c-.67-1-1.66-2-1.86-3.13-.09-.5,1.52-1.88,2.19-1.77S236.16,108.69,237.12,109.82Z" transform="translate(-2.09 -12.37)"/>
      <path class="cls-5" d="M255.18,267.95l-4.15-.09q0-3.61,0-7.22l7.16,5.71Z" transform="translate(-2.09 -12.37)"/>
    </g>
  </g>
</svg>
