<?xml version="1.0" encoding="utf-8"?>
<!-- Generator: Adobe Illustrator 21.1.0, SVG Export Plug-In . SVG Version: 6.00 Build 0)  -->
<svg version="1.1" id="Layer_1" xmlns="http://www.w3.org/2000/svg" xmlns:xlink="http://www.w3.org/1999/xlink" x="0px" y="0px"
	 viewBox="0 0 358.7 84.5" style="enable-background:new 0 0 358.7 84.5;" xml:space="preserve">
<title>leftCurl</title>
<path d="M356.8,46.8c-0.1-0.1-0.2-0.3-0.3-0.4c0-0.6-0.1-1.3-0.8-2l-0.3-0.3H355c-0.2,0-0.6-0.5-0.9-0.8c-0.1-0.1-0.2-0.2-0.2-0.2
	c0-0.1,0-0.4,0-0.7c0-0.9-0.3-1.4-1.1-1.5c-0.4-0.3-0.7-0.4-1-0.5c-0.2-0.1-0.3-0.3-0.5-0.4c-0.2-0.1-0.4-0.3-0.5-0.4
	c-0.1-0.4-0.3-0.9-0.7-1.1l-0.3-1c-0.1-0.7-0.6-1.1-0.9-1.3c-0.1-0.1-0.3-0.2-0.4-0.3l-0.4-0.4l-1.5-2.4l-1.6-3.1
	c-0.3-0.7-0.8-1.1-1.2-1.6c-0.3-0.3-0.6-0.6-0.8-0.9c-0.1-0.7-0.7-1.3-0.8-1.4c-0.2-0.2-0.2-0.4-0.2-0.9v-0.4l-0.3-0.3
	c-0.3-0.3-0.7-0.7-0.8-0.9v-0.4l-0.3-0.3c-0.1-0.1-0.3-0.3-0.4-0.5c-0.4-0.5-0.9-1.1-1.6-1.6c-0.5-1.5-1.2-2.6-2.7-3.7l-0.5-1
	l-0.1-0.1c-0.1-0.1-0.3-0.3-0.4-0.5c-0.4-0.5-0.8-1.1-1.5-1.5c-0.2-0.6-0.8-1.2-1.2-1.6c-0.1-0.1-0.3-0.3-0.4-0.5
	c-0.4-0.5-0.9-1.2-1.8-1.7c-0.9-0.9-1.6-1.5-2.2-1.7l-0.2-0.2c-0.6-1.1-1.2-1.7-2.2-2.3c-0.8-1-1.8-1.8-2.8-2.5
	c-0.5-0.4-1-0.8-1.4-1.1l-0.5-0.5c-0.6-0.6-1.7-1.2-2.9-1.8l-0.2-0.1h-1l-0.2,0.1c-0.3,0.1-0.6,0.2-1.2,0.2c-0.6,0-1.4,0-2.3,0.3
	L313,1l-2.2,1.7l-1.7,1.7l1.5,2.2l0.1,0.2c0.2,0.2,0.4,0.5,0.7,0.9c0.3,0.4,0.6,0.9,0.9,1.2l0.3,0.3h0.4c1,1.4,2,2.4,3.1,2.9
	c0.3,0.3,0.5,0.6,0.8,0.9c0.5,0.7,1.1,1.3,2,1.8l0.2,0.1h0.2l0.1,0.1v0.4l0.3,0.3c0.4,0.4,0.9,0.9,1.4,1.1c0.1,0.2,0.1,0.3,0.2,0.4
	c0.1,0.1,0.1,0.3,0.2,0.3v0.4l1.3,1.3c1,1,2,2,2.4,2.9c0.5,1.1,1.5,2.1,2.5,3.1v0.1c0,0.9,0.7,2.2,1.3,2.8l0.3,0.3h0.4
	c0,0,0.1,0.1,0.1,0c0,0.9,0.7,1.6,0.8,1.8l0.1,0.1l0.1,0.1c0.5,0.2,0.5,0.3,0.5,0.7v0.3l1.8,2.4l0.1,0.1c0.2,0.2,0.2,0.4,0.2,0.9
	v0.2l0.5,1.1c0.1,0.5,0.4,1,1,1.2c0.2,0.2,0.5,0.5,0.5,0.6v0.2l0.1,0.2c0.6,1.1,1.2,1.7,1.7,2.3l1,1.5l0.1,0.2
	c0.3,0.3,0.7,0.7,0.8,0.9v0.2l0.1,0.2c0.1,0.1,0.1,0.3,0.2,0.4c-0.1,0.1-0.3,0.1-0.4,0.2c-0.1,0.1-0.3,0.2-0.4,0.2l-0.2-0.2h-2.7
	l-0.2,0.1c-1.4,0.5-2.2,0.5-3.5,0l-0.2-0.1h-1.1l-0.3,0.3c-0.2,0.2-0.4,0.2-0.9,0.2H328c-1.2-0.5-2.2-0.1-2.9-0.4l-0.2-0.1h-6.2
	c-0.5-0.3-1-0.3-1.5,0h-7.2c-0.3,0-0.4,0-0.6-0.3v-0.7l-2.1-2.1c-0.1-0.8-0.6-1.3-1-1.8c-0.2-0.3-0.5-0.5-0.6-0.8l-0.1-0.1l-0.1-0.1
	c-0.3-0.3-0.7-0.7-0.8-0.9v-0.4l-0.3-0.3c-0.5-0.5-1.5-1.5-1.9-2.4l-0.1-0.1l-0.1-0.1c-0.1-0.1-0.3-0.3-0.4-0.5
	c-0.4-0.5-0.9-1.2-1.7-1.6l-2-2.9l-3.3-3.8L293,23c-0.1-0.1-0.4-0.4-0.8-0.6c-0.1-0.2-0.2-0.4-0.5-0.7c-0.2-1-0.9-1.6-1.6-2.2
	c-0.2-0.2-0.5-0.4-0.8-0.7l-0.8-0.8v-0.7l-0.6-0.3c-0.5-0.3-0.9-0.7-1.3-1.2c-0.1-0.2-0.2-0.3-0.3-0.4c-0.1-0.3-0.3-0.6-0.5-0.7V14
	h-1c-0.3,0-0.6-0.3-0.9-0.8c-0.1-0.1-0.2-0.3-0.3-0.4l-1-2.1l-0.1-0.1c-0.3-0.3-0.6-0.5-1-0.8c-0.5-0.3-1-0.7-1.6-1.3
	c-0.8-0.8-2.2-1.4-3.5-0.8H276l-1.7,0.6l-0.1,0.1c-0.9,0.4-1.5,1.2-1.6,2c-0.1,0.7,0.1,1.4,0.6,2c0.1,0.4,0.3,0.8,0.6,1.2
	c0.1,0.2,0.3,0.5,0.4,0.8c0.1,0.4,0.3,0.7,0.5,0.9v0.8h1h0.1l0.1,0.1l1.5,3c0.6,1.2,1.7,1.8,2.7,2.3c0.1,0.2,0.2,0.4,0.4,0.5v1.4
	h0.8c0.1,0.1,0.2,0.4,0.2,0.6v1h0.6l0.2,0.2c1.2,1.2,2.1,2.4,3.2,3.9c0.3,0.4,0.6,0.8,0.9,1.2c0.3,0.6,0.8,1.1,1.2,1.5
	s0.7,0.7,0.9,1l0.3,0.5h0.3c0.6,1.2,1.2,1.8,1.7,2.3c0.2,0.2,0.4,0.4,0.7,0.6c0.4,0.3,0.9,0.7,1.1,1.1c0.1,0.3,0.2,0.9,0.8,1.4
	l1.3,1.3c0.2,0.5,0.5,0.8,1,1c0.2,0.2,0.5,0.5,0.5,0.6V42l1,0.5v0.1c-0.2,0.1-0.4,0.1-0.6,0.2c-0.3,0.1-0.5,0.2-0.8,0.2
	c-0.9-0.4-1.5-0.2-2.1-0.1c-0.3,0.1-0.5,0.1-0.7,0.1h-1.2c-0.4-0.3-0.7-0.4-1.1-0.4c-0.4,0-0.8,0.1-1.1,0.4c-0.7,0-0.8,0-1-0.2
	l-0.3-0.3h-0.9c-0.7,0-1.2,0.2-1.6,0.3c-0.3,0.1-0.5,0.2-0.8,0.2c-0.9-0.4-2-0.2-2.9-0.1c-0.4,0.1-0.7,0.1-1,0.1h-1.6
	c-0.4,0-0.6-0.1-1-0.2c-0.4-0.1-0.9-0.3-1.6-0.3h-0.4l-0.3,0.3c-0.1,0.1-0.4,0.2-1.4,0.2h-1c-0.9,0-1.6,0.1-2.3,0.3
	c-0.6,0.1-1.2,0.2-1.9,0.2c-0.6,0-1.6,0-2.4,0.5h-21.7c-0.9-0.6-1.8-0.4-2.7,0h-2c-0.8-0.5-2-0.5-2.8,0h-0.7c-1.5,0-3.3,0-5,1h-84.3
	c-0.3,0-0.5,0.1-0.8,0.1c-0.2,0-0.5,0.1-0.6,0.1l-0.2-0.2h-1.2l-0.2,0.1c-0.8,0.4-1.5,0.4-2.2,0l-0.2-0.1h-14.2
	c-37.2-0.3-55.8-0.3-65.9-0.3c-9.2,0-10.4,0-11.1-0.2l-0.2-0.1h-2.1h-2.1H22.2L22,44.5c-0.8,0.3-1.5,0.2-2.2,0.1
	c-0.4-0.1-0.8-0.1-1.2-0.1c-1.6,0-3.2,0-4.9,0.5h-3l-4.2,0.5H3.2c-0.8,0-2,0.3-2,2.6v0.4l0.3,0.3C2,49.3,2.6,49.8,3.3,50
	c0.7,0.6,1.5,0.6,2,0.6h0.4l0.3-0.3c0.2-0.2,0.4-0.2,0.9-0.2h1c0.5,0,0.9-0.2,1.2-0.4c0.1-0.1,0.3-0.1,0.3-0.2l2.2-0.5h1.4
	c0.5,0,0.9-0.2,1.2-0.4c0.1-0.1,0.3-0.1,0.3-0.2h5.7c0.5,0,1.2,0,1.9-0.5h0.7c0.2,0,0.3,0,0.5,0c1.3,0.1,5,0.5,24.4,0.5L48,49
	l0.7-0.7c0.1-0.1,0.4-0.2,1.3-0.2c0,0,0.2,0,0.4,0.2l0.3,0.3h0.4c1.1,0,2.2,0,3.4-0.6c3.1,0.3,16,0.6,74.4,0.6c1.4,0,2.9,0,3.7,0.4
	l0.2,0.1h0.2c0.5,0,0.9-0.1,1.2-0.1c0.5-0.1,0.6-0.1,1,0l0.2,0.1h1.8h0.4l0.2-0.2h0.1c0.2,0.1,0.5,0.2,0.8,0.2h11.6l0.2-0.1
	c0.4-0.2,0.5-0.1,0.9,0c0.2,0.1,0.5,0.1,0.8,0.1l77.3-0.5h4.6l0.3-0.3c0.2-0.2,0.4-0.2,0.3-0.2h2.6c0.6,0,0.9-0.1,1.3-0.4
	c0,0,0,0,0.1,0c0.3,0.2,0.7,0.4,1.2,0.4h3.6v-0.3c1.4,0.3,4.7,0.3,18.2,0.3c0.1,0,0.2,0.1,0.4,0.2c0.3,0.2,0.7,0.4,1.2,0.4h0.3
	l1.4-1c0.1,0,0.1,0.1,0.2,0.1l0.3,0.3h0.4c0.6,0,1.6,0,2.4-0.5h1.6c1.2,0.4,2.2,0.2,3,0.1c0.3-0.1,0.6-0.1,0.9-0.1h0.4
	c1.2,0.4,2.1,0.2,3,0.1c0.5-0.1,0.9-0.1,1.4-0.1h2.8c0.7,0.4,1.4,0.2,1.7,0.1c0.1,0,0.2-0.1,0.2-0.1h2.3c0.8,0.5,1.9,0.5,2.4,0.5
	c0.5,0,0.6,0,0.9,0.2l0.3,0.3h0.4c0.1,0,0.8,0,1.4-0.5c1.9,0,3.3,0,5.1,0.5h2.2l0.3-0.3c0.1-0.1,0.3-0.2,0.5-0.3
	c0.1,0,0.1-0.1,0.2-0.1l0.2,0.2h0.4v0.1l0.6,0.3c0.2,0.1,0.3,0.2,0.3,0.3c0.1,0.2,0,0.6-0.2,1l-0.1,0.2v0.3l-1.9,1.9l-0.1,0.1
	c-0.1,0.2-0.2,0.4-0.3,0.6c-0.1,0.2-0.2,0.4-0.2,0.4s-0.1,0-0.2,0H297l-1.3,1.3c-0.1,0.1-0.2,0.2-0.2,0.2h-0.1
	c-0.9,0-1.6,0.7-2.3,1.3l-0.3,0.3v0.2c-0.2,0.1-0.4,0.2-0.6,0.4l-1.5,0.7v0.2c-0.5,0.2-0.8,0.6-1,0.9c-0.1,0.1-0.1,0.2-0.2,0.3
	l-2.5,1.5l-0.2,0.2c-0.5,0.5-0.9,0.9-1.8,1.4l-0.3,0.1l-0.1,0.3c-0.3,0.5-0.7,0.9-1.2,1.3c-0.3,0.2-0.5,0.4-0.7,0.6
	c-0.1,0.1-0.2,0.2-0.2,0.2h-0.1c-1,0-1.9,0.6-2.6,1.1c-0.3,0.2-0.6,0.4-0.9,0.6l-0.6,0.3v0.6c0,0.1-0.1,0.2-0.2,0.4
	c-0.1,0.2-0.2,0.5-0.3,0.8l-2.2,2.2c-0.3,0.1-0.5,0.3-0.7,0.5h-0.3l-0.8,0.8c-0.3,0.3-0.7,0.7-0.9,0.8h-0.4l-0.3,0.3
	c-0.5,0.5-1,1-1.2,1.6c-0.8,0.5-1.4,1-2.1,1.8h-1.6v1c0,0.3,0,0.5,0.1,0.7c0,0,0,0-0.1,0c-0.2,0.1-0.5,0.3-0.6,0.3h-0.2l-1.9,0.6
	l-0.2,0.2c-0.7,0.7-0.8,1.4-0.8,1.9c-0.3,0.5-0.3,1,0,1.5v0.3l0.3,0.3c0.8,0.8,1.9,1.2,2.9,1.2c0.7,0,1.4-0.2,2-0.4l0.6-0.3v-0.1
	h0.5v-0.9c0.1,0,0.2-0.1,0.6-0.1h0.4l0.8-0.8c0.6-0.6,0.8-0.8,0.8-1.4l1.3-1.8c0.5-0.5,0.7-0.7,0.7-1.2c0,0,0,0,0.1,0
	c0.7,0,1.2-0.4,1.4-0.9c0.7-0.5,1.2-1.1,1.5-1.6c0.1-0.1,0.1-0.1,0.1-0.2h1.1v-1c0-0.4,0.1-0.5,0.9-0.9c0.4-0.2,0.8-0.5,1.3-0.8
	c1.5-0.5,2.7-1.1,3.8-2.3c1-1,1.5-1.5,2.4-1.9l1-0.5l0.8-0.5c1.3-0.8,2.3-1.5,3.3-3l0.2-0.2v-0.3l0.1-0.1h1v-0.5
	c1.1-0.1,1.8-0.8,2.6-1.6c0.6-0.1,1.3-0.5,1.7-1c0.9,0,2.1-0.7,2.7-1.3c0.1-0.1,0.2-0.2,0.2-0.2h0.1h0.3l2.3-1.5v-0.5
	c0.1,0,0.2-0.1,0.6-0.1h0.4l1.9-1.9c0.2-0.2,0.4-0.2,0.9-0.2c0.5,0,0.9-0.2,1.2-0.4c0.1-0.1,0.3-0.1,0.3-0.2h0.6l0.3-0.6
	c0.1-0.3,0.3-0.5,0.4-0.7c0.4-0.6,0.7-1.3,0.8-2.2l0.4-1.7c0-0.1,0.1-0.1,0.1-0.2h0.1l0.4,0.2h0.2c0.1,0,0.8,0,1.4-0.5h6.8
	c1.6,0.5,4.2,1,5.9,1h3.7c0.5,0,0.8-0.2,1.1-0.4c1,0.4,1.8,0.4,2.8-0.1h3.1c0.8,0.5,2,0.5,3.2,0c0.2,0,0.4,0,0.4,0
	c0.1,0.1,0.1,0.1,0.3,0.2l0.8,0.8h0.4c0.4,0,0.7,0.1,1,0.3c0.1,0.1,0.3,0.1,0.4,0.2c0.1,0.2,0.3,0.2,0.4,0.3c0.3,0.1,0.5,0.1,0.8,0
	l2.1,1.2l-0.7,1c-0.8,0.4-1.1,0.9-1.3,1.3c-0.1,0.1-0.2,0.2-0.3,0.4l-0.5,0.5c-0.5,0.5-1.1,1.1-1.3,1.8l-0.3,0.3
	c-0.3,0.3-0.7,0.6-1,0.9c-0.6,0.5-1.3,1-1.7,1.8c-0.5,0.5-1,0.9-1.5,1.2c-0.3,0.2-0.6,0.4-0.9,0.7c-0.5,0.3-1.6,0.9-1.9,1.9
	c-0.4,0.4-0.8,0.8-1.6,1.2l-0.1,0.1l-0.1,0.1c-0.3,0.3-0.7,0.7-1.1,1c-0.8,0.7-1.7,1.4-2.1,2.2c-0.3,0.3-0.6,0.6-0.8,0.6h-0.4
	l-3.8,3.1v0.3c-0.2,0.2-0.4,0.4-0.5,0.9c-0.4,0.6-1,0.9-1.1,0.9h-0.2l-0.2,0.1c-1.2,0.6-1.4,0.8-1.9,1.8c-0.2,0.1-0.5,0.2-1.3,0.2
	h-0.1l-0.2-0.2c-0.6-0.6-1.1-0.7-1.5-0.8c-1-0.5-2.1-0.7-3.1,0.3l-0.5,0.5c-0.9,0.9-0.9,2.1,0,3l0.3,0.3c0.2,1.9,1.5,3.7,3.6,3.7
	c0.6,0,1.6,0,2.4-0.5h1.1l0.3-0.3h0.1c0.3-0.1,0.9-0.2,1.4-0.8c0.1,0,0.2,0,0.2-0.1h0.1l1.6,1.6v-2l0.2-0.2c0.2-0.2,0.4-0.4,0.8-0.6
	c0.5-0.4,1.2-0.8,1.9-1.5c0.5-0.5,1.1-1.1,1.3-1.8l0.3-0.3c0.3-0.3,0.5-0.6,0.6-0.9c0.1-0.1,0.2-0.3,0.3-0.4h1v-1
	c0-0.3,0.3-0.6,0.8-0.9c0.2-0.2,0.4-0.3,0.5-0.4l0.1-0.1l0.1-0.1c0.2-0.4,0.5-0.7,0.9-1c0.3-0.3,0.6-0.6,0.9-1h0.5l0.3-0.4
	c0.9-1.4,2.4-2.4,3.9-3.4l0.2-0.1l0.1-0.2c0.6-0.9,1.2-1.4,1.9-2c0.3-0.2,0.6-0.5,0.9-0.8c0.7-0.2,1.2-0.7,1.7-1.2
	c0.9-0.5,1.4-0.9,1.9-1.4h0.7l0.3-0.6c0.4-0.9,0.8-1.2,1.6-1.6l0.3-0.1l0.1-0.3c0.4-0.8,1.2-1.5,1.7-1.5h0.4l1.1-1.1v-0.3
	c0.2-0.2,0.4-0.4,0.7-0.8c0.5-0.2,0.8-0.7,0.8-1.5c0.2-0.2,0.5-0.5,0.6-0.5c1.1,0,2.4-0.5,2.6-2.7C358,48.4,357.2,47.3,356.8,46.8z"
	/>
</svg>
