<svg id="Layer_1" data-name="Layer 1" xmlns="http://www.w3.org/2000/svg" viewBox="0 0 348.44 446.85">
  <title>LogoBM</title>
  <g>
    <g>
      <path d="M315.18,325l18.67-10.81a.25.25,0,0,0-.23-.44l-19.47,9.31a3.06,3.06,0,0,1-1.49.3L316,310.88a.25.25,0,0,0-.48-.15l-4.3,12.19a3.06,3.06,0,0,1-1.07-1.09l-10.81-18.67a.25.25,0,0,0-.44.23l9.31,19.46a3.06,3.06,0,0,1,.3,1.49L296,321a.25.25,0,0,0-.15.48l12.19,4.3a3.07,3.07,0,0,1-1.09,1.07l-18.67,10.81a.25.25,0,0,0,.23.44L308,328.81a3,3,0,0,1,1.49-.3L306.15,341a.25.25,0,0,0,.48.15l4.3-12.19a3.06,3.06,0,0,1,1.07,1.09l10.81,18.67a.25.25,0,0,0,.22.13l.12,0a.25.25,0,0,0,.11-.33L313.94,329a3.07,3.07,0,0,1-.3-1.49l12.49,3.33a.25.25,0,0,0,.15-.48l-12.19-4.3A3.06,3.06,0,0,1,315.18,325Z"/>
      <path d="M248.62,437.74,235.2,426.49a2.45,2.45,0,0,1-.69-.93l10.29-1.73a.25.25,0,0,0-.06-.49l-10.4.92a2.44,2.44,0,0,1,.43-1.08l10.16-14.27a.25.25,0,0,0-.4-.3L233.29,422a2.46,2.46,0,0,1-.93.69l-1.73-10.29a.25.25,0,0,0-.49.06l.92,10.4a2.45,2.45,0,0,1-1.08-.43L215.7,412.29a.25.25,0,0,0-.3.4l13.42,11.25a2.46,2.46,0,0,1,.69.93l-10.29,1.73a.25.25,0,0,0,.06.5l10.4-.92a2.44,2.44,0,0,1-.43,1.08l-10.16,14.27a.25.25,0,0,0,.2.39.24.24,0,0,0,.19-.09l11.25-13.42a2.45,2.45,0,0,1,.93-.69L233.39,438a.25.25,0,0,0,.49-.06l-.92-10.4A2.44,2.44,0,0,1,234,428l14.27,10.16a.25.25,0,0,0,.31-.4Z"/>
      <path d="M147.8,178.76a.25.25,0,0,0,0-.34.25.25,0,0,0-.34-.05l-6.83,4.87a1,1,0,0,1-.29.15l.42-4.8a.25.25,0,0,0-.22-.27.24.24,0,0,0-.28.21l-.8,4.75a1,1,0,0,1-.25-.21l-5.39-6.43a.25.25,0,0,0-.4.31l4.87,6.83a1.06,1.06,0,0,1,.15.29l-4.8-.42a.25.25,0,0,0-.27.22.25.25,0,0,0,.21.28l4.75.8a1.08,1.08,0,0,1-.22.25l-6.43,5.39a.25.25,0,0,0,.3.39l6.83-4.87a1,1,0,0,1,.29-.15l-.42,4.8a.25.25,0,0,0,.49.06l.8-4.75a1,1,0,0,1,.25.21l5.39,6.43a.25.25,0,0,0,.19.09.25.25,0,0,0,.2-.4l-4.87-6.83a1.08,1.08,0,0,1-.15-.29l4.8.42a.25.25,0,0,0,.06-.49l-4.75-.8a1.06,1.06,0,0,1,.22-.25Z"/>
      <path d="M203.7,217.22l-7.55-4.67a1.12,1.12,0,0,1-.28-.25l4.88-1.56a.25.25,0,0,0,.16-.3.24.24,0,0,0-.3-.18l-5,1.17a1.14,1.14,0,0,1,.11-.35l4.06-7.89a.25.25,0,0,0-.44-.25l-4.67,7.55a1.1,1.1,0,0,1-.25.28l-1.56-4.88a.25.25,0,0,0-.3-.16.25.25,0,0,0-.18.3l1.17,5a1.1,1.1,0,0,1-.35-.11l-7.89-4.06a.25.25,0,0,0-.25.43l7.55,4.67a1.12,1.12,0,0,1,.28.25L188,213.74a.25.25,0,0,0-.16.3.25.25,0,0,0,.3.18l5-1.17a1.12,1.12,0,0,1-.11.36L189,221.3a.25.25,0,0,0,.44.24l4.67-7.55a1.12,1.12,0,0,1,.25-.28l1.56,4.88a.25.25,0,0,0,.3.16.25.25,0,0,0,.18-.3l-1.17-5a1.1,1.1,0,0,1,.35.11l7.89,4.06a.25.25,0,0,0,.33-.1A.25.25,0,0,0,203.7,217.22Z"/>
      <path d="M165.76,427.61l8.1-4a.25.25,0,0,0,.13-.3.25.25,0,0,0-.28-.17l-8.87,1.76a2.12,2.12,0,0,1-2.31-1.14l-4-8.1a.25.25,0,0,0-.3-.12.25.25,0,0,0-.16.29l1.76,8.87a2.12,2.12,0,0,1-1.14,2.31l-8.1,4a.25.25,0,0,0,.16.47l8.87-1.76a2.12,2.12,0,0,1,2.31,1.14l4,8.1a.25.25,0,0,0,.22.14h.08a.25.25,0,0,0,.16-.29l-1.76-8.87A2.13,2.13,0,0,1,165.76,427.61Z"/>
      <path d="M139.66,216.25l5.81-4.12a.25.25,0,0,0-.23-.44l-6.69,2.46a1.62,1.62,0,0,1-1.88-.58l-4.13-5.81a.25.25,0,0,0-.44.23l2.46,6.69a1.62,1.62,0,0,1-.58,1.88l-5.81,4.13a.25.25,0,0,0,.23.44l6.69-2.46a1.62,1.62,0,0,1,1.88.58L141.1,225a.25.25,0,0,0,.2.1.24.24,0,0,0,.12,0,.25.25,0,0,0,.12-.31l-2.46-6.69A1.62,1.62,0,0,1,139.66,216.25Z"/>
      <path d="M205.06,176.21a.25.25,0,0,0,0-.33.25.25,0,0,0-.32-.08L199,178.65a1.43,1.43,0,0,1-1.71-.33l-4.26-4.8a.25.25,0,0,0-.33,0,.25.25,0,0,0-.08.32l2.85,5.75a1.44,1.44,0,0,1-.33,1.71l-4.8,4.26a.25.25,0,0,0,.28.41l5.75-2.85a1.44,1.44,0,0,1,1.71.33l4.26,4.8a.25.25,0,0,0,.33,0,.25.25,0,0,0,.08-.32l-2.85-5.75a1.44,1.44,0,0,1,.33-1.71Z"/>
      <path d="M253.48,149.76l14.32-9.2a.25.25,0,0,0,.09-.32.25.25,0,0,0-.3-.13l-16.23,5.13a4.22,4.22,0,0,1-4.82-1.74l-9.2-14.32a.25.25,0,0,0-.45.21L242,145.62a4.22,4.22,0,0,1-1.74,4.82L226,159.64a.25.25,0,0,0,.21.45L242.41,155a4.22,4.22,0,0,1,4.82,1.74l9.2,14.32a.25.25,0,0,0,.21.12l.11,0a.25.25,0,0,0,.13-.3l-5.14-16.23A4.22,4.22,0,0,1,253.48,149.76Z"/>
      <path d="M80.05,50.41a.25.25,0,0,0-.3-.4l-7.91,4.44a2.13,2.13,0,0,1-2.56-.36l-6.36-6.47a.25.25,0,0,0-.33,0,.25.25,0,0,0-.07.32L67,55.83a2.13,2.13,0,0,1-.36,2.56l-6.47,6.36a.25.25,0,0,0,.3.4l7.91-4.44a2.13,2.13,0,0,1,2.56.36l6.36,6.47a.25.25,0,0,0,.33,0,.25.25,0,0,0,.07-.32l-4.44-7.91a2.13,2.13,0,0,1,.36-2.56Z"/>
      <path d="M247.16,203a.25.25,0,0,0-.3-.4l-7.22,4.05a1.93,1.93,0,0,1-2.31-.33l-5.8-5.91a.25.25,0,0,0-.4.3l4.06,7.22a1.93,1.93,0,0,1-.33,2.31l-5.91,5.8a.25.25,0,0,0,.3.4l7.22-4.05a1.93,1.93,0,0,1,2.31.33l5.8,5.91a.25.25,0,0,0,.33,0,.25.25,0,0,0,.07-.32l-4.05-7.22a1.93,1.93,0,0,1,.33-2.31Z"/>
      <path d="M247.82,38.3l-16.37,3.17a2.34,2.34,0,0,1-1.08,0l4.89-8.63a.25.25,0,0,0-.42-.26l-5.56,8.22a2.3,2.3,0,0,1-.52-.95l-4.45-16.07a.25.25,0,0,0-.49.11L227,40.21a2.33,2.33,0,0,1,0,1.08l-8.64-4.89a.25.25,0,0,0-.26.42l8.22,5.56a2.33,2.33,0,0,1-.95.52l-16.07,4.44a.25.25,0,0,0-.18.3.25.25,0,0,0,.29.19l16.37-3.17a2.3,2.3,0,0,1,1.08,0l-4.89,8.63a.25.25,0,0,0,.42.26l5.56-8.22a2.31,2.31,0,0,1,.52.95l4.44,16.07a.25.25,0,0,0,.24.18h.06a.25.25,0,0,0,.19-.29l-3.17-16.37a2.33,2.33,0,0,1,0-1.08l8.63,4.89a.25.25,0,0,0,.26-.42l-8.22-5.56a2.32,2.32,0,0,1,.95-.52l16.07-4.44a.25.25,0,0,0-.11-.49Z"/>
      <path d="M105.62,14.64a.25.25,0,0,0-.22-.45L94.93,19a1.51,1.51,0,0,1-.6.14l1.86-6.48a.25.25,0,0,0-.47-.16l-2.36,6.31a1.51,1.51,0,0,1-.4-.47L87.38,8.25a.25.25,0,0,0-.45.22L91.7,18.94a1.51,1.51,0,0,1,.14.6l-6.48-1.86a.24.24,0,0,0-.31.16.25.25,0,0,0,.15.31l6.31,2.36a1.51,1.51,0,0,1-.47.4L81,26.49a.25.25,0,0,0,.22.45l10.47-4.76a1.51,1.51,0,0,1,.6-.14l-1.86,6.48a.25.25,0,0,0,.16.31.25.25,0,0,0,.31-.15l2.36-6.31a1.51,1.51,0,0,1,.4.47l5.57,10.06a.25.25,0,0,0,.22.13l.11,0a.25.25,0,0,0,.11-.33L94.91,22.19a1.52,1.52,0,0,1-.14-.6l6.48,1.86a.25.25,0,0,0,.16-.47l-6.31-2.36a1.53,1.53,0,0,1,.47-.4Z"/>
      <path d="M317.81,399.25a.25.25,0,0,0-.24-.44l-23.78,9.41a4.11,4.11,0,0,1-3.45-1l-6.9-6.4a.25.25,0,0,0-.42.23l1.57,9.27a4.1,4.1,0,0,1-1,3.42l-21,14.76a.25.25,0,0,0,.14.45l.09,0,23.78-9.41a4.11,4.11,0,0,1,3.45,1l6.9,6.4a.25.25,0,0,0,.42-.23l-1.57-9.27a4.1,4.1,0,0,1,1-3.43Zm-24.13,17.13,1.35,6.37-4.58-4.63h0a3.23,3.23,0,0,0-2.77-.8l-16.87,7L286,414.07a3.24,3.24,0,0,0,.81-2.73L285.43,405,290,409.6a3.23,3.23,0,0,0,2.78.8l16.87-7-15.18,10.28A3.24,3.24,0,0,0,293.67,416.38Z"/>
      <path d="M98,416.62l-5.79-12.71a2.13,2.13,0,0,1,.44-1.82l3.3-3.95a.25.25,0,0,0-.25-.4l-5,1.11a2.13,2.13,0,0,1-1.78-.41l-8.65-11a.25.25,0,0,0-.43.26l5.79,12.71a2.13,2.13,0,0,1-.44,1.82l-3.3,3.95a.25.25,0,0,0,.25.4l5-1.11a2.12,2.12,0,0,1,1.78.41l8.65,11a.25.25,0,0,0,.43-.26ZM88,403.94a2,2,0,0,0-.42,0l-3.07.82,2.15-2.36a1.87,1.87,0,0,0,.38-1.66l-3.83-8,5.38,7.13a1.87,1.87,0,0,0,1.62.39l3.07-.82-2.15,2.36a1.89,1.89,0,0,0-.37,1.66l3.82,8-5.34-7.08,0,0A1.85,1.85,0,0,0,88,403.94Z"/>
      <path d="M328.7,288.8l-8.23-16.52a2.89,2.89,0,0,1,.52-2.49l4.18-5.36a.25.25,0,0,0,0-.29.25.25,0,0,0-.27-.11l-6.58,1.7a2.88,2.88,0,0,1-2.45-.48L304,251.09a.25.25,0,0,0-.41.27l8.24,16.55a2.9,2.9,0,0,1-.52,2.46l-4.18,5.36a.25.25,0,0,0,.26.4l6.58-1.7a2.89,2.89,0,0,1,2.45.48l11.91,14.17a.25.25,0,0,0,.19.09.25.25,0,0,0,.22-.36Zm-15.16-20.39-5.78-11.1,7.91,9.77a2.4,2.4,0,0,0,2.07.43h0l4.28-1.3-2.9,3.41a2.41,2.41,0,0,0-.41,2.12l5.78,11.1-7.91-9.76a2.41,2.41,0,0,0-2.08-.43l-4.28,1.3,2.9-3.41A2.42,2.42,0,0,0,313.54,268.42Z"/>
      <path d="M255.24,78.57,249,72.78a3.69,3.69,0,0,1-1.17-3l6.88-22.22a.25.25,0,0,0-.45-.2L242.35,67.32a3.71,3.71,0,0,1-3,1.17l-8.5-.77a.26.26,0,0,0-.25.15.25.25,0,0,0,.06.29l6.27,5.8a3.7,3.7,0,0,1,1.17,3l-6.88,22.22a.25.25,0,0,0,.14.3l.1,0a.25.25,0,0,0,.22-.12L243.52,79.4a3.69,3.69,0,0,1,3-1.17l8.5.77a.25.25,0,0,0,.25-.15A.26.26,0,0,0,255.24,78.57ZM240,75.87a3,3,0,0,0-.94-2.43l-4.45-3.78,5.79.77a3,3,0,0,0,2.42-.93l0,0L251,55.25l-5.14,15.6a3,3,0,0,0,.94,2.43l4.45,3.78-5.79-.78a3,3,0,0,0-2.46,1l-8.11,14.21Z"/>
      <path d="M131.66,185.3a.25.25,0,0,0-.23-.44l-8.36,3.27a1.29,1.29,0,0,1-1-.33l-2.41-2.26a.25.25,0,0,0-.42.22l.54,3.26a1.28,1.28,0,0,1-.29,1l-7.38,5.15a.25.25,0,0,0,.14.46l.09,0,8.33-3.26a1.27,1.27,0,0,1,1.07.33l2.41,2.26a.25.25,0,0,0,.42-.22l-.54-3.26a1.28,1.28,0,0,1,.28-1Zm-8.42,4.78a1.3,1.3,0,0,0-.33,1.1l.35,1.7L122,191.63a1.3,1.3,0,0,0-1.15-.32l-4.45,1.84,4-2.72a1.31,1.31,0,0,0,.33-1.1l-.35-1.7,1.22,1.24a1.29,1.29,0,0,0,1.15.32l4.44-1.83-4,2.68Z"/>
      <path d="M222.87,210.28l-9.27-8.05a1.84,1.84,0,0,1-.29-1.57l1.2-4.35a.25.25,0,0,0-.39-.27l-3.6,2.72a1.84,1.84,0,0,1-1.54.32L198,193.42a.25.25,0,0,0-.28.41l9.26,8a1.84,1.84,0,0,1,.3,1.59l-1.2,4.35a.25.25,0,0,0,.39.27l3.61-2.72a1.85,1.85,0,0,1,1.54-.32l10.93,5.66.11,0a.25.25,0,0,0,.16-.44Zm-11.92-6.64a1.7,1.7,0,0,0-1,.34l-2.07,1.71.82-2.57a1.69,1.69,0,0,0-.32-1.49l-5.74-4.81,6.64,3.59a1.68,1.68,0,0,0,1.46-.29l2.07-1.71L212,201a1.69,1.69,0,0,0,.32,1.49l5.74,4.8-6.58-3.56-.05,0A1.64,1.64,0,0,0,210.95,203.64Z"/>
      <path d="M176.75,29.29,162.28,18.16a2.86,2.86,0,0,1-.62-2.43l1.4-6.57a.25.25,0,0,0-.41-.24l-5.12,4.36a2.86,2.86,0,0,1-2.41.62l-16.7-7.44a.25.25,0,0,0-.25.43L152.65,18a2.86,2.86,0,0,1,.61,2.43L151.86,27a.25.25,0,0,0,.41.24l5.12-4.36a2.85,2.85,0,0,1,2.39-.63l16.73,7.45.1,0a.25.25,0,0,0,.22-.12A.25.25,0,0,0,176.75,29.29ZM155,19.78a2.38,2.38,0,0,0-.55-2.07l-9.92-7.35,11.24,5.25a2.39,2.39,0,0,0,2-.52l3.23-3-1.1,4.27h0a2.38,2.38,0,0,0,.55,2.07l9.92,7.35-11.24-5.25a2.34,2.34,0,0,0-.48-.05,2.4,2.4,0,0,0-1.55.57l-3.23,3Z"/>
      <path d="M74.4,95l2.3-1.71a.25.25,0,0,0-.15-.45l-2.87,0a1.08,1.08,0,0,1-.81-.39L69.6,85.24a.25.25,0,0,0-.47.15L70.63,93a1.08,1.08,0,0,1-.43.84l-2.3,1.71A.25.25,0,0,0,68,96l2.87,0a1.08,1.08,0,0,1,.81.39L75,103.58a.25.25,0,0,0,.23.15h.08a.25.25,0,0,0,.17-.29L74,95.8A1.08,1.08,0,0,1,74.4,95ZM73,95.41l.81,3.78-1.57-3.59a1.16,1.16,0,0,0-.92-.46l-1.4,0,1.16-.79a1.17,1.17,0,0,0,.46-1l-.81-3.78,1.57,3.59a1.16,1.16,0,0,0,.92.46l1.4,0-1.16.79A1.16,1.16,0,0,0,73,95.41Z"/>
      <path d="M76.23,382.05,75,381.68a6.47,6.47,0,0,1-4.46-5.21l-.18-1.25a.25.25,0,0,0-.23-.21.24.24,0,0,0-.26.17l-.38,1.21a6.47,6.47,0,0,1-5.21,4.46l-1.25.19a.25.25,0,0,0,0,.49l1.21.38a6.47,6.47,0,0,1,4.46,5.21l.18,1.25a.25.25,0,0,0,.23.21h0a.25.25,0,0,0,.24-.18l.38-1.21a6.48,6.48,0,0,1,5.21-4.46l1.25-.18a.25.25,0,0,0,0-.49Z"/>
      <path d="M213.51,437.73l-2.6-1.9a16.84,16.84,0,0,1-6.56-16.58l.59-3.16a.25.25,0,0,0-.45-.19l-1.9,2.6A16.84,16.84,0,0,1,186,425l-3.16-.59a.25.25,0,0,0-.28.15.25.25,0,0,0,.08.3l2.59,1.9a16.84,16.84,0,0,1,6.56,16.58l-.59,3.16a.25.25,0,0,0,.15.27l.1,0a.25.25,0,0,0,.2-.1l1.9-2.6a16.84,16.84,0,0,1,16.58-6.56l3.16.59a.24.24,0,0,0,.28-.15A.25.25,0,0,0,213.51,437.73Z"/>
      <path d="M339.23,393.1l-9.31-11h0a3.54,3.54,0,0,1-.21-4.29l8.19-11.86a.25.25,0,0,0-.37-.33l-11,9.31a3.54,3.54,0,0,1-4.28.21l-11.86-8.19a.25.25,0,0,0-.33.37l9.31,11a3.54,3.54,0,0,1,.21,4.29l-8.19,11.86a.25.25,0,0,0,.37.33l11-9.31a3.54,3.54,0,0,1,4.28-.21l11.86,8.19a.25.25,0,0,0,.33,0A.25.25,0,0,0,339.23,393.1Z"/>
      <path d="M314.24,355.34a.25.25,0,0,0-.29-.1L310,356.61a21.93,21.93,0,0,1-22.64-5.23l-2.95-3a.25.25,0,0,0-.41.26l1.37,3.95a21.94,21.94,0,0,1-5.22,22.64l-3,2.95a.25.25,0,0,0,.26.42l3.95-1.37A21.94,21.94,0,0,1,304,382.48l2.95,3a.25.25,0,0,0,.31,0,.25.25,0,0,0,.1-.29L306,381.24a21.93,21.93,0,0,1,5.23-22.64l3-2.95A.25.25,0,0,0,314.24,355.34Z"/>
      <path d="M165.36,222.24l-1.28-1.12a8.77,8.77,0,0,1-2.67-8.9l.45-1.64a.25.25,0,0,0-.43-.23l-1.12,1.28a8.77,8.77,0,0,1-8.9,2.67l-1.64-.45a.25.25,0,0,0-.23.43l1.28,1.12a8.77,8.77,0,0,1,2.67,8.9l-.45,1.64a.25.25,0,0,0,.43.23l1.12-1.28a8.78,8.78,0,0,1,8.9-2.67l1.64.45a.25.25,0,0,0,.29-.12A.25.25,0,0,0,165.36,222.24Z"/>
      <path d="M265.82,215.35l-1.15,0a5.88,5.88,0,0,1-5.4-3.09l-.54-1a.25.25,0,0,0-.47.13l0,1.15a5.87,5.87,0,0,1-3.09,5.4l-1,.54a.25.25,0,0,0,.12.47h0l1.15,0a5.86,5.86,0,0,1,5.4,3.09l.54,1a.25.25,0,0,0,.22.13h.07a.25.25,0,0,0,.18-.25l0-1.15a5.87,5.87,0,0,1,3.09-5.4l1-.54a.25.25,0,0,0,.12-.29A.24.24,0,0,0,265.82,215.35Z"/>
      <path d="M180.67,183.23l-.93-1.25a8,8,0,0,1-.66-8.47l.72-1.38a.25.25,0,0,0-.06-.31.25.25,0,0,0-.31,0l-1.25.93a8,8,0,0,1-8.47.67l-1.38-.72a.25.25,0,0,0-.32.37l.93,1.25a8,8,0,0,1,.66,8.47l-.72,1.38a.25.25,0,0,0,.06.31.25.25,0,0,0,.16.06.26.26,0,0,0,.15,0l1.25-.93a8,8,0,0,1,8.47-.67l1.38.72a.25.25,0,0,0,.31-.06A.25.25,0,0,0,180.67,183.23Z"/>
      <path d="M295.9,241.13l-.82-1a6.58,6.58,0,0,1-.89-6.91l.54-1.17a.25.25,0,0,0-.39-.3l-1,.82a6.58,6.58,0,0,1-6.91.89l-1.17-.54a.25.25,0,0,0-.3.39l.82,1a6.58,6.58,0,0,1,.89,6.91l-.54,1.17a.25.25,0,0,0,.38.3l1-.82a6.58,6.58,0,0,1,6.91-.89l1.17.54a.25.25,0,0,0,.3-.39Z"/>
      <path d="M86.61,40.32l-2-1a11.43,11.43,0,0,1-6.42-10.26v-2.2a.25.25,0,0,0-.47-.11l-1,2a11.43,11.43,0,0,1-10.24,6.42H64.32a.25.25,0,0,0-.11.47l2,1a11.43,11.43,0,0,1,6.42,10.26v2.2a.25.25,0,0,0,.19.24h.06a.25.25,0,0,0,.22-.14l1-2a11.44,11.44,0,0,1,10.24-6.42h2.22a.25.25,0,0,0,.11-.47Z"/>
      <path d="M272.73,132.81l-.85-.41a4.79,4.79,0,0,1-2.69-4.3v-.95a.25.25,0,0,0-.47-.11l-.41.85a4.79,4.79,0,0,1-4.29,2.69h-1a.25.25,0,0,0-.11.48l.85.41a4.79,4.79,0,0,1,2.69,4.3v.95a.25.25,0,0,0,.19.24h.06a.25.25,0,0,0,.23-.14l.41-.85a4.79,4.79,0,0,1,4.29-2.69h1a.25.25,0,0,0,.24-.19A.25.25,0,0,0,272.73,132.81Z"/>
      <path d="M147.87,413.18a.25.25,0,0,0-.28-.4l-4.8,2.12a2.14,2.14,0,0,1-3-1.93l0-2.45a.25.25,0,0,0-.48-.09l-.88,2.28a2.14,2.14,0,0,1-3.49.77l-3.77-3.65a.25.25,0,0,0-.32,0,.25.25,0,0,0-.09.31l2.12,4.8a2.14,2.14,0,0,1-1.93,3l-2.45,0a.25.25,0,0,0-.09.48l2.28.88a2.14,2.14,0,0,1,.76,3.49l-3.65,3.77a.25.25,0,0,0,.28.4l4.8-2.12a2.14,2.14,0,0,1,3,1.92l0,2.45a.25.25,0,0,0,.21.24.25.25,0,0,0,.28-.16l.88-2.28a2.14,2.14,0,0,1,3.49-.77l3.77,3.65a.25.25,0,0,0,.17.07.25.25,0,0,0,.23-.35l-2.12-4.8a2.14,2.14,0,0,1,1.93-3l2.45,0a.25.25,0,0,0,.09-.48l-2.28-.88a2.14,2.14,0,0,1-.76-3.49Z"/>
      <path d="M302.2,279l-7.21.35a3,3,0,0,1-2.6-1.24,3,3,0,0,1-.41-2.85l1.16-3.16a.25.25,0,0,0-.42-.25l-2.27,2.5a3,3,0,0,1-5-.77l-3-6.55a.25.25,0,0,0-.29-.14.25.25,0,0,0-.19.26l.35,7.21a3,3,0,0,1-4.09,3L275,276.19a.25.25,0,0,0-.25.42l2.49,2.27a3,3,0,0,1-.77,5l-6.55,3a.25.25,0,0,0-.14.29.25.25,0,0,0,.26.19l7.21-.35a3,3,0,0,1,3,4.09l-1.16,3.17a.25.25,0,0,0,.1.3.25.25,0,0,0,.31,0l2.27-2.49a3,3,0,0,1,5,.77l3,6.55a.25.25,0,0,0,.23.14h.06a.25.25,0,0,0,.19-.26l-.34-7.21a3,3,0,0,1,4.09-3l3.16,1.16a.25.25,0,0,0,.25-.42L295,287.54a3,3,0,0,1,.77-5l6.55-3a.25.25,0,0,0,.14-.29A.27.27,0,0,0,302.2,279Z"/>
      <path d="M249.56,177.36l-1.93-1.11a11.54,11.54,0,0,1-5.74-10.8l.16-2.22a.25.25,0,0,0-.47-.14l-1.1,1.93a11.55,11.55,0,0,1-10.8,5.74l-2.22-.16a.24.24,0,0,0-.26.18.25.25,0,0,0,.11.29l1.93,1.11A11.55,11.55,0,0,1,235,183l-.16,2.22a.25.25,0,0,0,.18.26h.07a.25.25,0,0,0,.22-.12l1.11-1.93a11.55,11.55,0,0,1,10.8-5.74l2.22.16a.24.24,0,0,0,.26-.18A.25.25,0,0,0,249.56,177.36Z"/>
      <path d="M267.34,96.29a.25.25,0,0,0-.3-.39L259,100a3.85,3.85,0,0,1-5.58-3.17l-.29-4.19a.25.25,0,0,0-.22-.23.24.24,0,0,0-.27.17l-1.31,4a3.85,3.85,0,0,1-6.19,1.71l-6.78-5.9a.25.25,0,0,0-.39.3l4.06,8a3.85,3.85,0,0,1-3.17,5.58l-4.19.29a.25.25,0,0,0-.06.49l4,1.31a3.85,3.85,0,0,1,1.7,6.19l-5.9,6.77a.25.25,0,0,0,.3.39l8-4.06a3.85,3.85,0,0,1,5.58,3.17l.29,4.19a.25.25,0,0,0,.22.23.25.25,0,0,0,.27-.17l1.31-4a3.85,3.85,0,0,1,6.19-1.7l6.78,5.9a.25.25,0,0,0,.39-.3l-4.06-8a3.85,3.85,0,0,1,3.17-5.58l4.19-.29a.25.25,0,0,0,.23-.22.25.25,0,0,0-.17-.27l-4-1.31a3.85,3.85,0,0,1-1.7-6.19Z"/>
      <path d="M181.59,214.3l2.36-2.14a.25.25,0,0,0-.25-.42l-3,1.1a1.2,1.2,0,0,1-1.62-1.19l.07-1.49a.25.25,0,0,0-.19-.26.25.25,0,0,0-.29.14l-.63,1.35a1.2,1.2,0,0,1-2,.3l-2.14-2.36a.25.25,0,0,0-.42.25l1.1,3a1.2,1.2,0,0,1-1.19,1.62l-1.48-.07a.24.24,0,0,0-.26.19.25.25,0,0,0,.14.29l1.35.63a1.2,1.2,0,0,1,.3,2l-2.36,2.14a.25.25,0,0,0,.25.42l3-1.1a1.2,1.2,0,0,1,1.62,1.19l-.07,1.49a.25.25,0,0,0,.48.12l.63-1.35a1.2,1.2,0,0,1,2-.3l2.14,2.36a.25.25,0,0,0,.19.08.26.26,0,0,0,.13,0,.25.25,0,0,0,.1-.3l-1.1-3a1.19,1.19,0,0,1,.16-1.13,1.17,1.17,0,0,1,1-.49l1.48.07a.24.24,0,0,0,.26-.19.25.25,0,0,0-.14-.29l-1.35-.62a1.2,1.2,0,0,1-.63-1.49A1.16,1.16,0,0,1,181.59,214.3Z"/>
      <path d="M161.77,174a.25.25,0,0,0-.27-.41l-3.23,1.29a1.34,1.34,0,0,1-1.84-1.27l0-1.62a.25.25,0,0,0-.48-.1l-.64,1.49a1.34,1.34,0,0,1-2.19.4l-2.41-2.51a.25.25,0,0,0-.41.27l1.29,3.23a1.31,1.31,0,0,1-.14,1.26,1.36,1.36,0,0,1-1.12.58l-1.62,0h0a.25.25,0,0,0-.1.48l1.49.64a1.34,1.34,0,0,1,.4,2.19L148,182.29a.25.25,0,0,0,.27.41l3.23-1.29a1.34,1.34,0,0,1,1.84,1.27l0,1.62a.25.25,0,0,0,.2.25.25.25,0,0,0,.28-.15l.64-1.49a1.34,1.34,0,0,1,2.19-.4L159,185a.25.25,0,0,0,.41-.27l-1.29-3.23a1.34,1.34,0,0,1,1.27-1.83l1.62,0a.28.28,0,0,0,.25-.2.25.25,0,0,0-.15-.28l-1.49-.64a1.34,1.34,0,0,1-.4-2.19Z"/>
      <path d="M139,13.92,132.66,13a2.66,2.66,0,0,1-1.89-4l1.54-2.55a.25.25,0,0,0,0-.31.25.25,0,0,0-.32,0l-2.39,1.78a2.66,2.66,0,0,1-4.18-1.5L123.86.19a.24.24,0,0,0-.26-.19.25.25,0,0,0-.23.21l-.92,6.31a2.66,2.66,0,0,1-4,1.89l-2.55-1.54a.25.25,0,0,0-.33.36l1.78,2.39a2.66,2.66,0,0,1-1.5,4.18l-6.2,1.52a.25.25,0,0,0-.19.25.25.25,0,0,0,.21.24l6.31.92a2.66,2.66,0,0,1,1.89,4l-1.54,2.55a.25.25,0,0,0,0,.31.25.25,0,0,0,.32,0l2.39-1.78a2.66,2.66,0,0,1,4.18,1.5l1.52,6.2a.25.25,0,0,0,.24.19h0a.25.25,0,0,0,.23-.21l.92-6.31a2.66,2.66,0,0,1,4-1.89l2.55,1.54a.25.25,0,0,0,.33-.36l-1.78-2.39a2.66,2.66,0,0,1,1.5-4.18l6.2-1.52a.25.25,0,0,0,0-.49Z"/>
      <path d="M185.95,13.25l-2.6-.38a.95.95,0,0,1-.67-1.43l.64-1a.25.25,0,0,0-.36-.33l-1,.73a.95.95,0,0,1-1.49-.53l-.62-2.55a.24.24,0,0,0-.26-.19.25.25,0,0,0-.23.21l-.38,2.6a.95.95,0,0,1-1.43.67l-1-.63a.25.25,0,0,0-.33.36l.73,1a.95.95,0,0,1-.53,1.49l-2.55.63a.25.25,0,0,0-.19.25.25.25,0,0,0,.21.24l2.6.38a.95.95,0,0,1,.67,1.43l-.64,1a.25.25,0,0,0,.36.33l1-.73a.95.95,0,0,1,1.49.53l.63,2.55a.25.25,0,0,0,.24.19h0a.25.25,0,0,0,.23-.21l.38-2.6a.95.95,0,0,1,1.43-.67l1,.63a.25.25,0,0,0,.33-.36l-.73-1a.95.95,0,0,1,.53-1.49l2.55-.62a.25.25,0,0,0,0-.49Z"/>
      <path d="M276.26,404l-7.95-.71a1.25,1.25,0,0,1-1.13-1.39l.2-1.76a.25.25,0,0,0-.08-.21.26.26,0,0,0-.22-.06l-1.74.36a1.25,1.25,0,0,1-1.49-1l-1.42-7.85a.25.25,0,0,0-.26-.2.25.25,0,0,0-.24.23l-.71,7.95a1.24,1.24,0,0,1-.46.86,1.26,1.26,0,0,1-.93.27l-1.76-.2a.25.25,0,0,0-.27.3l.36,1.74a1.25,1.25,0,0,1-1,1.49l-7.85,1.42a.25.25,0,0,0,0,.49l7.95.71a1.25,1.25,0,0,1,1.13,1.39l-.2,1.76a.25.25,0,0,0,.08.21.26.26,0,0,0,.22.06l1.74-.36a1.25,1.25,0,0,1,1.49,1l1.42,7.85a.25.25,0,0,0,.25.2h0a.25.25,0,0,0,.24-.23l.71-7.95a1.24,1.24,0,0,1,.46-.86,1.27,1.27,0,0,1,.93-.27l1.76.2a.25.25,0,0,0,.27-.3l-.36-1.74a1.25,1.25,0,0,1,1-1.49l7.85-1.42a.25.25,0,0,0,0-.49Z"/>
      <path d="M348.33,349.09l-5-3.33a.89.89,0,0,1-.24-1.25l.77-1.1a.25.25,0,0,0-.13-.38l-1.28-.39a.89.89,0,0,1-.59-1.12l1.88-5.73a.25.25,0,0,0-.13-.3.25.25,0,0,0-.32.09l-3.33,5a.89.89,0,0,1-.57.38.9.9,0,0,1-.67-.14l-1.1-.77a.26.26,0,0,0-.23,0,.25.25,0,0,0-.16.16l-.39,1.29a.89.89,0,0,1-1.12.59L330,340.18a.25.25,0,0,0-.22.44l5,3.33a.89.89,0,0,1,.24,1.25l-.77,1.1a.25.25,0,0,0,.13.38l1.28.39a.89.89,0,0,1,.59,1.13l-1.88,5.73a.25.25,0,0,0,.13.3l.11,0a.25.25,0,0,0,.21-.11l3.33-5a.88.88,0,0,1,.58-.38.87.87,0,0,1,.67.14l1.1.77a.25.25,0,0,0,.23,0,.25.25,0,0,0,.16-.16l.39-1.28a.88.88,0,0,1,.44-.53.89.89,0,0,1,.69-.06l5.73,1.88a.25.25,0,0,0,.22-.45Z"/>
      <path d="M122.75,418.26,117,413.13a1.21,1.21,0,0,1-.08-1.73l1.17-1.26a.25.25,0,0,0,.06-.22.25.25,0,0,0-.14-.18l-1.56-.72a1.21,1.21,0,0,1-.58-1.63l3.41-6.94a.25.25,0,0,0-.09-.32.25.25,0,0,0-.33,0L113.7,406a1.19,1.19,0,0,1-.84.4,1.17,1.17,0,0,1-.88-.32l-1.26-1.17a.25.25,0,0,0-.4.08l-.72,1.56a1.2,1.2,0,0,1-1.63.58L101,403.69a.25.25,0,0,0-.28.41l5.79,5.13a1.21,1.21,0,0,1,.08,1.73h0l-1.17,1.26a.25.25,0,0,0-.06.22.25.25,0,0,0,.14.18l1.56.72a1.21,1.21,0,0,1,.58,1.63l-3.41,6.94a.25.25,0,0,0,.09.32.26.26,0,0,0,.14,0,.25.25,0,0,0,.19-.08l5.13-5.79a1.21,1.21,0,0,1,1.73-.08l1.26,1.17a.25.25,0,0,0,.22.06.25.25,0,0,0,.18-.14l.72-1.56a1.2,1.2,0,0,1,1.63-.58l6.94,3.41a.25.25,0,0,0,.32-.08A.25.25,0,0,0,122.75,418.26Z"/>
      <path d="M336.7,300.29a.25.25,0,0,0-.24-.44l-3.75,1.41a.51.51,0,0,1-.66-.31l-.29-.84a.25.25,0,0,0-.16-.16.25.25,0,0,0-.22,0l-.71.54a.51.51,0,0,1-.72-.1l-2.35-3.25a.25.25,0,0,0-.44.23l1.41,3.75a.5.5,0,0,1,0,.39.5.5,0,0,1-.29.26l-.84.29a.25.25,0,0,0-.16.16.25.25,0,0,0,0,.22l.54.71a.51.51,0,0,1-.1.72l-3.25,2.35a.25.25,0,0,0-.07.32.25.25,0,0,0,.31.12l3.75-1.41a.51.51,0,0,1,.66.31l.29.84a.25.25,0,0,0,.16.16.25.25,0,0,0,.22,0l.71-.54a.51.51,0,0,1,.72.11l2.35,3.25a.25.25,0,0,0,.2.1l.12,0a.25.25,0,0,0,.12-.31l-1.41-3.75a.5.5,0,0,1,0-.39.5.5,0,0,1,.29-.26l.84-.29a.25.25,0,0,0,.16-.16.25.25,0,0,0,0-.22l-.54-.71a.51.51,0,0,1,.1-.72Z"/>
      <path d="M127.81,211.59l-3-3.56a.62.62,0,0,1,.09-.89l.81-.64a.25.25,0,0,0,0-.4l-.86-.57a.62.62,0,0,1-.17-.87l2.65-3.8a.25.25,0,0,0-.36-.33l-3.56,3a.62.62,0,0,1-.89-.09l-.64-.81a.26.26,0,0,0-.21-.1.25.25,0,0,0-.2.11l-.57.86a.62.62,0,0,1-.4.27.62.62,0,0,1-.47-.1l-3.8-2.65a.25.25,0,0,0-.34.36l3,3.56a.62.62,0,0,1-.09.89l-.81.64a.25.25,0,0,0,0,.4l.86.57a.62.62,0,0,1,.17.88l-2.65,3.8a.25.25,0,0,0,.36.33l3.56-3a.61.61,0,0,1,.46-.14.62.62,0,0,1,.42.23l.64.81a.26.26,0,0,0,.21.1.25.25,0,0,0,.2-.11l.57-.86a.62.62,0,0,1,.88-.17l3.8,2.65a.25.25,0,0,0,.33,0A.25.25,0,0,0,127.81,211.59Z"/>
      <path d="M285,256.69l-8.38-10.07a2.22,2.22,0,0,1,.33-3.16l2.28-1.81a.25.25,0,0,0,0-.4l-2.43-1.61a2.22,2.22,0,0,1-.6-3.12l7.49-10.74a.25.25,0,0,0-.36-.33l-10.07,8.38a2.22,2.22,0,0,1-3.16-.33l-1.81-2.29a.26.26,0,0,0-.21-.1.25.25,0,0,0-.2.11l-1.61,2.43a2.22,2.22,0,0,1-3.12.6l-10.74-7.49a.25.25,0,0,0-.34.36l8.38,10.07a2.22,2.22,0,0,1-.33,3.16l-2.28,1.81a.25.25,0,0,0,0,.4l2.43,1.61a2.22,2.22,0,0,1,.6,3.12L253.38,258a.25.25,0,0,0,.36.33L263.81,250a2.22,2.22,0,0,1,3.16.33l1.81,2.29a.26.26,0,0,0,.21.1.25.25,0,0,0,.2-.11l1.61-2.43a2.22,2.22,0,0,1,3.12-.6l10.74,7.49a.25.25,0,0,0,.34-.37Z"/>
      <path d="M228.56,184.25l-5.58.82a.79.79,0,0,1-.61-.16.81.81,0,0,1-.31-.55l-.15-1.24a.25.25,0,0,0-.36-.2l-1.14.53a.81.81,0,0,1-1.09-.41l-2.27-5.16a.25.25,0,0,0-.48.14l.82,5.58a.81.81,0,0,1-.71.92l-1.24.15a.25.25,0,0,0-.2.35l.53,1.14a.81.81,0,0,1-.41,1.09l-5.16,2.26a.25.25,0,0,0,.14.48l5.58-.82a.81.81,0,0,1,.92.71l.15,1.24a.25.25,0,0,0,.13.19.25.25,0,0,0,.23,0l1.14-.53a.8.8,0,0,1,.63,0,.81.81,0,0,1,.46.43l2.27,5.16a.25.25,0,0,0,.23.15h.07a.25.25,0,0,0,.18-.28l-.82-5.58a.81.81,0,0,1,.71-.92l1.24-.15a.25.25,0,0,0,.2-.35l-.53-1.14a.81.81,0,0,1,.41-1.09l5.16-2.26a.25.25,0,0,0,.14-.3A.26.26,0,0,0,228.56,184.25Z"/>
      <path d="M218.81,26.55h0l-11.1.11h0a1.84,1.84,0,0,1-1.84-1.87l0-2.47a.25.25,0,0,0-.1-.2.26.26,0,0,0-.22,0l-2.36.74a1.84,1.84,0,0,1-2.32-1.25l-3-10.68a.25.25,0,0,0-.28-.18.25.25,0,0,0-.21.25l.11,11.11a1.83,1.83,0,0,1-.54,1.32,1.85,1.85,0,0,1-1.33.54l-2.47,0h0a.25.25,0,0,0-.24.33l.74,2.36a1.85,1.85,0,0,1-1.25,2.32l-10.68,3a.25.25,0,0,0-.18.28.22.22,0,0,0,.25.21l11.11-.11h0a1.84,1.84,0,0,1,1.84,1.87l0,2.47a.25.25,0,0,0,.33.24l2.36-.74a1.84,1.84,0,0,1,2.32,1.25l3,10.68a.25.25,0,0,0,.24.18h0a.25.25,0,0,0,.21-.25l-.11-11.11a1.82,1.82,0,0,1,.54-1.32,1.85,1.85,0,0,1,1.33-.54l2.47,0h0a.25.25,0,0,0,.24-.33L207,32.41a1.84,1.84,0,0,1,1.25-2.32l10.68-3a.25.25,0,0,0,.18-.28A.25.25,0,0,0,218.81,26.55Z"/>
      <path d="M72.64,76.85l-3.75-.73a.47.47,0,0,1-.37-.56l.18-.83a.25.25,0,0,0-.06-.22.25.25,0,0,0-.21-.08l-.84.09a.48.48,0,0,1-.35-.11.47.47,0,0,1-.17-.32l-.29-3.81a.25.25,0,0,0-.23-.23.24.24,0,0,0-.26.2L65.56,74a.46.46,0,0,1-.2.3.47.47,0,0,1-.36.07l-.83-.18a.25.25,0,0,0-.3.27l.09.85a.46.46,0,0,1-.11.35.46.46,0,0,1-.32.17l-3.81.29a.25.25,0,0,0,0,.5l3.75.73a.47.47,0,0,1,.37.56l-.18.83a.25.25,0,0,0,.06.22.24.24,0,0,0,.21.08l.85-.08a.49.49,0,0,1,.35.11.47.47,0,0,1,.17.32l.29,3.81a.25.25,0,0,0,.23.23h0a.25.25,0,0,0,.24-.2l.73-3.75a.47.47,0,0,1,.2-.3.47.47,0,0,1,.36-.07l.83.18a.24.24,0,0,0,.22-.06.25.25,0,0,0,.08-.21l-.09-.85a.47.47,0,0,1,.43-.51l3.81-.29a.25.25,0,0,0,0-.49Z"/>
      <path d="M272.91,84.25l-3.75-.73a.47.47,0,0,1-.37-.56l.18-.83a.25.25,0,0,0-.06-.22.25.25,0,0,0-.21-.08l-.84.09a.47.47,0,0,1-.35-.11.47.47,0,0,1-.17-.32l-.29-3.81a.25.25,0,0,0-.23-.23.24.24,0,0,0-.26.2l-.73,3.75a.47.47,0,0,1-.56.37l-.83-.18a.25.25,0,0,0-.3.27l.09.85a.46.46,0,0,1-.11.35.47.47,0,0,1-.32.17l-3.81.29a.25.25,0,0,0,0,.5l3.75.73a.47.47,0,0,1,.37.56l-.18.83a.25.25,0,0,0,.27.3l.85-.09a.48.48,0,0,1,.35.11.47.47,0,0,1,.17.32l.29,3.81a.25.25,0,0,0,.23.23h0a.25.25,0,0,0,.24-.2l.73-3.75a.47.47,0,0,1,.56-.37l.83.18a.25.25,0,0,0,.3-.27l-.09-.85a.46.46,0,0,1,.11-.35.47.47,0,0,1,.32-.17l3.81-.29a.25.25,0,0,0,0-.49Z"/>
    </g>
    <path d="M160.83,98.07,142.1,86.54l9-10.36a.13.13,0,0,0,0-.14A.12.12,0,0,0,151,76l-13.61,1.69.87-22a.13.13,0,0,0-.09-.12.13.13,0,0,0-.14.05L126.47,74.34l-10.36-9a.13.13,0,0,0-.14,0,.12.12,0,0,0-.07.13l1.69,13.61-22-.87a.14.14,0,0,0-.12.09.12.12,0,0,0,.05.14L114.28,90l-9,10.36a.13.13,0,0,0,0,.14.12.12,0,0,0,.13.07L119,98.85l-.33,8.42c-1,10.55-7,24.67-18.07,43.16a5.09,5.09,0,0,0-.3.43,5.3,5.3,0,0,0-.71,3.62,5,5,0,0,0,.63,1.73,5.25,5.25,0,0,0,.52.73,3.29,3.29,0,0,0,.32.34,3,3,0,0,0,.31.27l.05,0a4.09,4.09,0,0,0,3.48.71,3.79,3.79,0,0,0,1.54-.81,3,3,0,0,0,1-1.43,2.92,2.92,0,0,0,0-1.63,2.67,2.67,0,0,0-.81-1.3.13.13,0,0,0-.17,0,.12.12,0,0,0,0,.14v0a2.41,2.41,0,0,1,.3.92,2.19,2.19,0,0,1-.31,1.41,2,2,0,0,1-.35.41,2,2,0,0,1-.44.3,2.33,2.33,0,0,1-1,.28,2.16,2.16,0,0,1-2-1.07,2.87,2.87,0,0,1-.22-.43,2.71,2.71,0,0,1-.2-.93,2.75,2.75,0,0,1,.53-1.72,2.66,2.66,0,0,1,.66-.61,3.2,3.2,0,0,1,.86-.43,3.45,3.45,0,0,1,3.51.79,4.46,4.46,0,0,1,.62.78l.14.22.07.13,0,.09,0,.1.06.13,0,.06.07.2a5,5,0,0,1,.24,1c0,.07,0,.14,0,.21s0,.21,0,.31,0,.14,0,.22a1.9,1.9,0,0,1,0,.32,5,5,0,0,1-.63,2l-.12.19a5.71,5.71,0,0,1-1.38,1.43,6.85,6.85,0,0,1-4.16,1.36h-.35a7.62,7.62,0,0,1-2.49-.55,7.08,7.08,0,0,1-1.18-.6l-.2-.13c-.12-.08-.25-.16-.36-.24l-.56-.44a.13.13,0,0,0-.14,0h0a.12.12,0,0,0-.06.12c.07.69,1.36,17.36-21.58,60.93l-.14.26-.15.3a9.22,9.22,0,0,0-.83,2.64,31.48,31.48,0,0,0-.32,5.68c0,9.88,0,26.41-26.65,70.65-.1.14-.19.27-.27.41a7.59,7.59,0,0,0-1,5.2,7.11,7.11,0,0,0,.9,2.48,7.43,7.43,0,0,0,.75,1.05,4.46,4.46,0,0,0,.46.48,4.31,4.31,0,0,0,.45.39l.07.05a5.85,5.85,0,0,0,5,1l.17,0,.11,0,.11,0h0l.13,0,.15-.06.11,0,.16-.08.09,0,.17-.09.07,0,.19-.11a5.49,5.49,0,0,0,.7-.52,4.34,4.34,0,0,0,1.37-2,4.18,4.18,0,0,0,.05-2.33,3.8,3.8,0,0,0-1.16-1.85.12.12,0,0,0-.16,0l0,0a.13.13,0,0,0,0,.14,3.38,3.38,0,0,1,0,3.43,3,3,0,0,1-1.17,1.05,3.43,3.43,0,0,1-1.49.41,3.34,3.34,0,0,1-2.06-.57,3,3,0,0,1-.51-.44,3.24,3.24,0,0,1-.41-.55,4.15,4.15,0,0,1-.33-.64,4,4,0,0,1,.49-3.89,4,4,0,0,1,1-.89,4.73,4.73,0,0,1,1.26-.63,5.06,5.06,0,0,1,5.14,1.16,6.52,6.52,0,0,1,.91,1.15l.2.32c0,.07.07.13.1.2l.06.13.07.14.09.2,0,.1.1.26a7.17,7.17,0,0,1,.36,1.45c0,.1,0,.2,0,.31s0,.31,0,.45,0,.21,0,.31a2.84,2.84,0,0,1,0,.46,7.34,7.34,0,0,1-.92,2.92l-.17.27a8.3,8.3,0,0,1-2,2.09,10,10,0,0,1-6.58,2,11.14,11.14,0,0,1-3.62-.79,10.22,10.22,0,0,1-1.71-.87l-.29-.19c-.18-.11-.36-.23-.53-.36l-.8-.63a.09.09,0,0,0-.07,0h-.08a.13.13,0,0,0-.06.12c.09.9,1.81,22.67-26.45,78.89C14,396.44,6.74,410,1.46,414.91a3.62,3.62,0,0,0-1.39,3.48c1,4.58,11.92,8.54,14.1,9.29a2.57,2.57,0,0,0,.38.13,24.84,24.84,0,0,0,6,.69c5.64,0,11.46-1.6,13.91-4.18a3.81,3.81,0,0,0,1.06-3.94c-1.83-5.94.26-30.82.35-31.88,6.7-48.84,17.3-62.92,23.63-71.33a30.09,30.09,0,0,0,4.29-6.8l0-.05c.06-.16.12-.32.17-.47l0-.1v0a11.47,11.47,0,0,0,.43-1.78c0-.21.06-.41.08-.61,9.43-57.92,22.69-73.12,23.23-73.72a.12.12,0,0,0,.06-.14l0-.05a.13.13,0,0,0-.1,0h0l-.85,0-.53,0-.29,0a8.46,8.46,0,0,1-1.58-.28,9.25,9.25,0,0,1-2.79-1.28,8.34,8.34,0,0,1-3.38-4.58,6.76,6.76,0,0,1-.27-2.65l0-.18a6,6,0,0,1,.82-2.23,2.37,2.37,0,0,1,.21-.31l.15-.21c.08-.1.16-.2.25-.29l.16-.18a5.92,5.92,0,0,1,1-.79l.22-.14,0,0,.16-.09.11-.06.11-.06.16-.08.3-.12a5.3,5.3,0,0,1,1.17-.31,4.19,4.19,0,0,1,4,1.79,3.87,3.87,0,0,1,.52,1,3.23,3.23,0,0,1,.2,1.07,3.31,3.31,0,0,1-1.6,2.8,3.46,3.46,0,0,1-.55.26,2.59,2.59,0,0,1-.54.16A2.71,2.71,0,0,1,82.7,226a2.84,2.84,0,0,1-.78-1,2.4,2.4,0,0,1-.25-1.26,2.79,2.79,0,0,1,1.69-2.27.12.12,0,0,0,.08-.12.13.13,0,0,0,0,0,.12.12,0,0,0-.13-.1,3.18,3.18,0,0,0-1.71.65,3.5,3.5,0,0,0-1.14,1.58,3.63,3.63,0,0,0-.11,2.05c0,.09,0,.18.07.27a4.56,4.56,0,0,0,.15.46l0,.1,0,.11.06.14,0,.07.1.18a4.34,4.34,0,0,0,.38.57,4.89,4.89,0,0,0,3.83,1.83h.09a3.48,3.48,0,0,0,.48,0,3.58,3.58,0,0,0,.55-.09,6.09,6.09,0,0,0,1-.32,5.89,5.89,0,0,0,1.33-.77l.23-.19,0,0,.25-.22A6.3,6.3,0,0,0,91,223.87c0-.1,0-.21,0-.31s0-.12,0-.17c4.43-43,12.73-54,17.69-60.61a20.9,20.9,0,0,0,3-4.7l0,0,.12-.33,0-.07v0a8.05,8.05,0,0,0,.3-1.23c0-.17,0-.35.06-.51,4.42-27.14,10.14-40.66,13.15-46.3l4.56-7.4,10.36,9a.12.12,0,0,0,.21-.11l-1.69-13.61,22,.87a.11.11,0,0,0,.12-.09A.12.12,0,0,0,160.83,98.07Z"/>
  </g>
</svg>
