<svg id="Layer_1" data-name="Layer 1" xmlns="http://www.w3.org/2000/svg" viewBox="0 0 491.26 486.3"><defs><style>.cls-1{fill:#e3d3fd;}.cls-2{fill:#cdb0fc;}.cls-3{fill:#d2b6fd;}.cls-4{fill:#decafd;}.cls-5{fill:#e4d3fd;}.cls-6{fill:#f3ebfe;}.cls-7{fill:#e4d8fd;}.cls-8{fill:#b88cfc;}.cls-9{fill:#e8dbfd;}.cls-10{fill:#dcc4fd;}.cls-11{fill:#d4bafc;}.cls-12{fill:#c29ffc;}.cls-13{fill:#caacff;}.cls-14{fill:#d3b8fd;}.cls-15{fill:#d4b8fd;}.cls-16{fill:#fdfcff;}.cls-17{fill:#dcc5fd;}.cls-18{fill:#d5bbfd;}.cls-19{fill:#d5bcfc;}.cls-20{fill:#ddc5fd;}.cls-21{fill:#b98dfc;}.cls-22{fill:#decbfd;}.cls-23{fill:#e8dcfd;}.cls-24{fill:#c3a0fc;}.cls-25{fill:#c5a4fc;}.cls-26{fill:#e1d4fe;}.cls-27{fill:#e3d2fd;}.cls-28{fill:#dac2fd;}.cls-29{fill:#c4a2fc;}</style></defs><title>phoneLogo</title><path class="cls-1" d="M493.9,266.11v5c-.52,3.25-.25,6.54-.35,9.81-.24,8.08-.88,16.13-1.39,24.19a3.71,3.71,0,0,1-.54,2,3,3,0,0,1-1.75,1,9.38,9.38,0,0,0-4.1,2.07c-1-.69-.9-1.93-1.34-2.9s-.82-1.16-1.74-.9A62.2,62.2,0,0,0,472.24,310c-1.42.7-2.57,3.54-2.17,5,.44,1.62,2.73,2.18,4.5.93,2.47-1.75,5.11-3.23,7.68-4.81a10.43,10.43,0,0,1,1.25-.71c.62-.28,1.26-.62,1.9,0,.42,1.18-.28,2.14-.66,3.15-1.11,3-1.38,5.86.21,8.77a5.07,5.07,0,0,1-.06,4.59,25.23,25.23,0,0,0-1.08,2.68,4.77,4.77,0,0,0,1.49,5.41,7.86,7.86,0,0,1,1.87,1.91c.63,2.44-.41,4.75-.55,7.13-.07,1.16-.32,2.31-.43,3.48a10.75,10.75,0,0,1-2.56,6.18c-7.17,8.44-14.12,17.08-21.24,25.57a42.31,42.31,0,0,1-5.25,5c-6.65,5.63-11.91,12.56-17.85,18.87-2.59,2.75-5,5.66-8.14,7.86a14.19,14.19,0,0,0-7.6,6.66c-1.21,2.17-2.37,4.36-3.41,6.61a22.28,22.28,0,0,1-5.27,6.82,4.45,4.45,0,0,1-5.13,1,25.31,25.31,0,0,1-6.72-4.39,2.63,2.63,0,0,1-.63-3.38,20.84,20.84,0,0,1,2.29-3.92,45,45,0,0,0,6.73-13.64c1.4-4.25,2.87-8.48,4.17-12.77a4.39,4.39,0,0,0-.65-4.26c-.82-1.1-1.56-2.27-2.29-3.44a3.88,3.88,0,0,1-.7-2.33c.2-3.34,4.5-7.29,7.87-7.26,2.07,0,4.12.21,6.18.36.53,0,1.25.06,1.52-.44.35-.65-.3-1.14-.68-1.59-3.38-3.94-7.59-4.76-12-1.93-3.21,2.08-6.63,3.87-9.13,7-1.85,2.31-3.76,1.83-5.07-.89-.27-.56-.45-1.16-.71-1.72s-.63-1.69-1.45-1.51c-1,.22-.64,1.34-.68,2.12a5.56,5.56,0,0,0,.15,1.23c.57,3.4,1.25,6.77,1.82,10.17a3.21,3.21,0,0,0,2,2.61c1.51.66,3.06,1.26,4.54,2a2,2,0,0,1,1.19,2.68,53.52,53.52,0,0,0-1.66,7.24,9.55,9.55,0,0,1-2.32,5,5.44,5.44,0,0,0-1.77,4.92c.29,2.6-1,4.46-3.46,5.54a3.69,3.69,0,0,1-3.35,0c-2.31-1.11-2.83-.91-4,1.39a41.65,41.65,0,0,1-5.66,8.6c-1.41.94-3.11,1-4.67,1.56-5.06,1.69-6.31,3.82-5.19,9,1,4.8-1,7.68-6,8.26a3.26,3.26,0,0,1-3-1.77c-.88-1.48-1.94-2.84-2.76-4.36a9.55,9.55,0,0,1-1.27-6.94,3.08,3.08,0,0,0,.09-1.23,1.93,1.93,0,0,0-1.47-1.79c-.79-.14-1.14.64-1.52,1.2a4.14,4.14,0,0,0-.41,3c.46,3.41,1.08,6.8,1.63,10.19a15.71,15.71,0,0,1,.18,3.91c-.25,2.8-2.56,4-5.05,2.67a8.72,8.72,0,0,1-1.45-1.15c-.61-.53-1.22-1.41-2.08-1.07s-.82,1.5-.86,2.37a20.54,20.54,0,0,1-.61,4.08,9.3,9.3,0,0,1-1.1,2.88,2.37,2.37,0,0,1-.44.47,4.51,4.51,0,0,1-1.14.6,29.86,29.86,0,0,1-4.53,1c-.41,0-.82.07-1.24.07a1.78,1.78,0,0,1-.59-.17c-1-.66-1.43-1.82-2.11-2.76a8.71,8.71,0,0,0-1.79-2c-.49-.37-1.08-.91-1.66-.61-.75.38-.12,1.08,0,1.63.51,3.31.34,6.44-2.14,9-1,1.06-1.39,2.52-2.3,3.66-1.5,1.89-3.61,2.53-5.18,1-2-1.92-3.88-2-6.12-.92a2.55,2.55,0,0,1-1.27-.19c-3-2.48-4.7-5.87-6.53-9.18-.17-.3-.2-.87-.45-.87-.48,0-.45.6-.59,1a34.31,34.31,0,0,0-1.41,5.18,2.82,2.82,0,0,1-3.12,2.58c-4.38,0-4.51-.07-4.59-4.41-.11-5.72.26-11.42.63-17.13a9.84,9.84,0,0,0-.54-3.86c-.72-2.07-2.28-2.82-5.23-2.64-1.94.12-2.73.89-3.29,3.06a1.84,1.84,0,0,0,.61,2.2,4.22,4.22,0,0,1,1.52,5c-2.38,7.19-4.12,14.58-6.79,21.68a56.35,56.35,0,0,1-6.84,7.13,3.56,3.56,0,0,1-2.24.53c-5.7-.78-11.34-2-17-2.91-1.81-.3-3.29-.31-4.53,1.39a3.77,3.77,0,0,1-4.09,1.26A29.38,29.38,0,0,1,251,480a3.83,3.83,0,0,1-1.95-2.71c-.25-.85-.43-1.71-.67-2.56-.53-1.92-.53-1.92-1.92-.63a3.64,3.64,0,0,1-1.86,1.18A7.49,7.49,0,0,1,241,473.7a60.93,60.93,0,0,0-9.8-5.85c-2.65-1.57-5.46-2.84-8.13-4.4a9.64,9.64,0,0,0-.89-.51l.77.44c1.13.65,2.32,1.18,3.39,1.93s2.64,1.52,3,3.19c-.5.87-1.33.53-2,.5a12.24,12.24,0,0,0-10.49,4.62,5,5,0,0,0-1.38,3.55c.06,1.12.56,1.52,1.59.84.17-.11.32-.25.49-.38,4.28-3.22,9.47-2.16,12.23,2.5.72,1.48,1.23,3,1.81,4.57.27.72.74,1.56-.23,2.2-2.94.92-5.89,0-8.8-.16-5-.29-10-.54-15-1.11a4.17,4.17,0,0,1-2.16-.58c-.6-.65-.21-1.33.07-1.92a8.08,8.08,0,0,0-.2-7.35c-.77-1.62-1.53-3.24-2.31-4.85-.46-1-1-1.3-2.11-.81-4.07,1.75-4.93,1.15-4.91-3.39a17.68,17.68,0,0,0-.83-5.9,6.44,6.44,0,0,0-4.83-4.36c-1-.26-1.47-.22-1.16,1a19.73,19.73,0,0,1,.46,3.27c.24,2.92-.81,3.78-3.64,3.17-.58-.13-1.37-1-1.8,0s.15,1.6.88,2.12c1.91,1.36,4.07,2.33,6,3.62s2.33,2.47,1.7,4.25c-3.14-.06-6.27-.35-9.42-.33s-6,.61-8,3.35a2.49,2.49,0,0,1-1.73,1,10.1,10.1,0,0,1-3.95-1c-4.17-1.53-8.54-2.46-12.54-4.45a7.36,7.36,0,0,1-1.91-2.9,25.73,25.73,0,0,0-1.56-3.14,5.47,5.47,0,0,0-6-3,3.51,3.51,0,0,1-3.55-1.13,6.93,6.93,0,0,0-3.86-2.22c-4.16-1.13-8.08-2.74-11.28-5.75a2.48,2.48,0,0,0-2.87-.31c-3.11,1.12-6.2,2.28-9.33,3.32a8.69,8.69,0,0,1-2.8.66,9,9,0,0,1-3.31-1.62c-3-1.77-5.93-3.51-8.86-5.33-1.1-.68-2.32-1.27-2.88-2.58-.42-1.46-1.11-2.81-1.65-4.22a5.1,5.1,0,0,1,1.22-5.86c1.71-1.73,1.86-2.78.67-4.93a23.52,23.52,0,0,0-3.48-4.85,6.93,6.93,0,0,0-6.61-2,12.66,12.66,0,0,1-6.29-.7,6.16,6.16,0,0,1-3.29-2.37,7.17,7.17,0,0,0-7.93-3.06,8.49,8.49,0,0,1-3.46.37,11.56,11.56,0,0,1-4.53-6c.22-1.07,1.08-1.53,1.92-2,2.5-1.45,5-2.82,7.56-4.23s3.4-3.24,2.65-6.19a18.74,18.74,0,0,0-2.38-5.68c-1.65-2.55-3.73-4.39-6.95-4.53a7.46,7.46,0,0,1-1.62-.29c-2.56-.7-3.23-2.37-1.9-4.68,2.12-3.67,2-4-2.1-5.32-2.75-.88-5.53-1.66-8.29-2.5a5,5,0,0,1-3.85-4.34c-.36-2.17-.86-4.31-1.27-6.47a3.26,3.26,0,0,1,.23-2.78c1-.37,1,.64,1.45,1.07,1.94,2,4.09,3.44,7.05,3.21,1-.08,1.41-.42,1.09-1.42-1.43-4.5-1.87-9.33-4.44-13.46a5.15,5.15,0,0,1-.35-.75c-1.33-3.18.14-5.24,3.57-4.81a6.46,6.46,0,0,0,5.4-1.28c1.84-1.55,1.91-1.75.49-3.64a42.81,42.81,0,0,1-6-10.54,5.62,5.62,0,0,1-.12-1.64c.58-3.43.14-6.86,0-10.28a9.62,9.62,0,0,1,1.2-5.36,6.41,6.41,0,0,0,.56-1.33c.68-2.24.06-3.28-2.25-3.61a8.46,8.46,0,0,1-3.72-1.1c-1.76-1.19-1.86-2.24-.19-3.53A48.4,48.4,0,0,0,56,303c.31-.31.92-.6.6-1.16-.21-.36-.75-.27-1.15-.25a16.67,16.67,0,0,1-7.94-2,7.37,7.37,0,0,1-4.61-7.77c.35-6,1.31-7,7.24-6.48a61.67,61.67,0,0,1,9,1.19c2.54.6,2.83.3,2.79-2.39,0-1.72-.39-3.41-.43-5.14-.09-4.56.77-9,1.1-13.57a6.34,6.34,0,0,0-.64-4.18c-1.07-1.65-1.68-1.83-3.37-.82-1.47.89-2.87,1.89-4.3,2.85-1.18.79-2.17.86-2.8-.66a3.43,3.43,0,0,1-.21-.7,75.31,75.31,0,0,1-.14-8.83,72.54,72.54,0,0,0-.82-11.46c-.36-2.39.14-3.06,2.49-3.12,1.76,0,3.58-.31,5.21.69a5.93,5.93,0,0,0,3.49,2.36c1.92.55,3.73,1.43,5.65,2,3.17.9,4.26.13,4.31-3.12,0-2.34-.05-4.69,0-7,.18-5.17,2.38-8.95,7.48-10.74,2-.72,3.5-2.53,3.09-3.62s-2.67-1.64-4.48-1.35a16.5,16.5,0,0,1-4.28.61c-1.41-.12-1.84-1.1-1.87-2.28a59.58,59.58,0,0,1,.1-8.42,12.18,12.18,0,0,1,.94-2.91c.8-2.69-1-4.77-3.78-4.11a7.51,7.51,0,0,0-5.22,4c-1.12,2.24-.36,3.7,2.1,4.17,1,.19,2.1,0,2.85.9,1.13,2.89,1.25,5.95,1.47,9a14.12,14.12,0,0,0,.07,1.62c-.08,3.55-.66,7-1.06,10.56a3.09,3.09,0,0,1-.9,2,40.12,40.12,0,0,1-11.28,2.14c-1.44.09-2.89,0-4.33,0-3.38.11-4.9,1.26-5.73,4.53-1.43,5.6-2.58,11.26-4,16.86-.13.53-.22,1.08-.37,1.61-.8,2.89-2.09,3.45-4.66,2-1.69-.95-2.64-.81-3.58.85a53.31,53.31,0,0,0-4.38,9.55c-.56,1.71.46,3.42-.16,5.1a4.57,4.57,0,0,1-2.37,1.84c-2.19,1.12-4.36,2.27-6.59,3.28A4.72,4.72,0,0,0,17.64,284c-.25,1-.35,2.19-1.34,2.9a5.33,5.33,0,0,1-4.64-2.63c-4-6.05-7.35-12.43-8.5-19.73-.26-1.68-.06-3.41-.52-5.07v-4.14c.85-7.65,2.5-15.19,3.05-22.88.69-9.7,3.44-19,6.16-28.22,2-6.74,4.14-13.43,6.19-20.15.28-.9.1-2.35,1.74-2.31a10,10,0,0,1,1.8,6A75.15,75.15,0,0,1,21.11,200a39.83,39.83,0,0,0,1,15.55c.1,1.55-1.05,2.09-2.15,2.69a28.53,28.53,0,0,0-8.82,7.3,7.57,7.57,0,0,0-1.06,1.76c-.5,1.2-.27,2.15,1.17,2.15,2.3,0,3.07,1.21,3.3,3.31.21,1.92.6,2,2.46,1.36a10.22,10.22,0,0,1,3-.88,27.61,27.61,0,0,1,6.25.08,11.17,11.17,0,0,1,4.63,3.33A5.86,5.86,0,0,1,32.39,242c-.16.85-.27,2.16.8,2.24s1.7-1.09,1.72-2.2a17.18,17.18,0,0,0-.7-4.47,22.78,22.78,0,0,1-.75-7.36,5.11,5.11,0,0,1,2.7-4.55c2.6-1.39,3.64-3.81,4-6.59a4.49,4.49,0,0,0,.05-2.77A1.56,1.56,0,0,1,40.7,215a6.11,6.11,0,0,1,4-.32,6.11,6.11,0,0,1,2.43,1.83c1.54,1.48,1.81,1.41,2.54-.65.21-.58.35-1.18.5-1.78a2.93,2.93,0,0,0,.18-.8c-.31-2.9.38-5,3.81-5.27C55.25,208,55.5,207,55.3,206c-.16-.81-.55-1.56-.7-2.37a8,8,0,0,1-.06-2.28c0-2.67,0-2.67-2.71-2.74a4.4,4.4,0,0,1-2.35-.42c-.77-1.23.19-2.1.75-2.95,1.59-2.45,2.92-5,3-8a5.34,5.34,0,0,0-.69-3.37c-.5-.72-1-.74-1.24.2a17.09,17.09,0,0,1-1.19,3.51c-.61,1.23-1.43,1.36-2.48.54a9.63,9.63,0,0,1-1.21-1.12,10.21,10.21,0,0,0-4.81-3c-3-.9-3.94-3.1-2-5.54a11,11,0,0,0,2.17-8.6,9.69,9.69,0,0,1,4.14-9c3.93-3,6.23-6.86,7.85-11.34A64.77,64.77,0,0,1,57,141a3,3,0,0,0,.11-2.38,10.32,10.32,0,0,1,.53-5.25c.8-2.55.63-4.85-1.37-6.81a2,2,0,0,1,.2-1.78c7-13.24,13-27.09,21.8-39.33,6.2-8.6,13-16.78,19-25.51a96.82,96.82,0,0,1,20.28-21,57.22,57.22,0,0,0,7.48-6.79A13.31,13.31,0,0,1,132,27.94a134.79,134.79,0,0,1,18.14-2.77c.25.11-.05-.07.2,0,4.42,2.08,4.47,2.13,7.73-1.64,1.19-1.37,2.68-2.55,3.28-4.38,3.62-1.91,7.33-3.37,11.47-1.73,2.23.88,4.29,2.15,6.57,2.93a9.36,9.36,0,0,0,7.94-.56c3.09-1.7,4.15-1.38,6.13,1.66a1.76,1.76,0,0,1-.15.79c-1.9,4.6-1.21,6.75,3,9.38.23.14.46.29.68.46,1.38,1.73,1.42,2.52.15,3.84-.08.09-.27,0-.4,0a.9.9,0,0,0,.48.21,7.65,7.65,0,0,0,2.65-.26c3-.67,4.39-.11,5.7,2.63a9.67,9.67,0,0,0,4,4.51c2.21,1.28,2.26,4.06.28,5.76a21.73,21.73,0,0,1-5.43,2.93,6,6,0,0,0-3.71,4.62,5,5,0,0,0,1.45,4.52,79.52,79.52,0,0,1,5.79,6.72c4.36,5.87,4.92,12,1.62,18.61-2.44,4.86-4.34,10-6.54,14.93a7.3,7.3,0,0,1-1.2,2.15,7.3,7.3,0,0,1-7-1.75c-1.08-1.26-1-2.41.5-3.46,1.3-.9,1-1.56,0-2.36-1.95-1.53-4-3-5.78-4.67-.65-.62-1.18-.62-1.62.23a3.9,3.9,0,0,1-2,2c-1.29.49-1,1-.14,1.65a52.29,52.29,0,0,1,7.87,7.56c2.59,3.1,2.94,5.49.92,9a4.74,4.74,0,0,0-.44,4,2.57,2.57,0,0,1-1.54,3.53c-1.68.75-1.66,1.75-.63,3a9.42,9.42,0,0,1,1.26,2.13c.25.58.55,1.3,0,1.75-1.3,1.17-1.67,2.82-2.43,4.26a4.26,4.26,0,0,1-2.4,1.88,12.73,12.73,0,0,0-6.33,4.74,3.08,3.08,0,0,1-1.28,1c-1.46.51-3,.13-4.49.4-.67.12-1.5.19-1.69.95s.58,1.13,1.2,1.41,1.24.63,1.19,1.48a1.7,1.7,0,0,1-.88,1.32c-1.89,1-1.92,2.61-1.76,4.38.08.92.5,1.88-.21,2.75-2.07,1.14-4.42.71-6.61,1.2-1-.32-1-1.22-1-2a35,35,0,0,1,0-3.92,6.49,6.49,0,0,0-1.53-4.95,2.55,2.55,0,0,1,.52-4.11c2.72-1.82,5.38-3.86,8.83-4.18a35.53,35.53,0,0,0,8.81-2,8,8,0,0,0,5.29-7.21c0-.54.24-1.25-.23-1.55s-.91.38-1.33.67c-1.73,1.2-3.05,3-5.12,3.72-2-.69-3.47-2.44-5.61-2.93a13.24,13.24,0,0,1-1.73-.68c-3.68-1.42-3.67-1.4-6,1.75a36.71,36.71,0,0,1-6.46,6.07c-2.68,2.19-4.82,4.75-5.53,8.23-.36,1.77-1.77,2.53-3,3.49-3.63,2.81-3.62,2.81.42,5,1.28.68,2.56,1.35,3.81,2.08,2.33,1.36,2.39,1.88.42,3.78-4.41,1-8.71,2.53-13.24,3-1.41.14-2.76,1-4.24.46a2.07,2.07,0,0,0-2-.92,44,44,0,0,1-4.62,0,9.81,9.81,0,0,0-1,0c-2.14.14-2.23.28-1.63,2.37a1.08,1.08,0,0,1-.07,1c-3.3,1.87-6.94,2.94-10.37,4.51-7.55,3.47-14.64,7.57-20.48,13.6-10,10.34-13.32,22.49-9.74,36.44a92.8,92.8,0,0,0,2.56,9.13,20.38,20.38,0,0,0,5,8.2,4.44,4.44,0,0,1,1.36,1.79c-.38,2-2.09,2.59-3.56,3.36-.91.48-1.15-.43-1.28-1.1a13.39,13.39,0,0,0-.57-2.82,3.15,3.15,0,0,0-2.52-1.9c-1-.17-1.33.78-1.85,1.39-2.82,3.28-3,6.92-1.46,10.79a32,32,0,0,0,5.19,9.08A11.93,11.93,0,0,0,97.36,255c1.46.86,2.44.65,3.28-.79.69-1.2,1.61-2.22,2.4-3.35s1-2.24,0-3c-2.94-2.16-2.24-4.67-1-7.32a1.85,1.85,0,0,0,.13-.39,3.59,3.59,0,0,1,.16-.55c.09-.27.19-.54.29-.81.72-1.25.48-2.91,1.72-3.93,3.47.5,6.75,1.87,10.25,2.27a1.38,1.38,0,0,1,1.09.87c0,.91-.75,1.25-1.31,1.73a8.77,8.77,0,0,0-2.4,10.31,4,4,0,0,0,3.66,2.58c1.58.08,3.17-.06,4.75.12,3.17.36,4.38,1.83,4.07,5a11.14,11.14,0,0,1-1.41,4.71,5,5,0,0,1-2,1.35,14.43,14.43,0,0,0-7.22,8.41c-1.21,3.4.62,5.42,4.2,4.76,1.2-.22,2.38-.81,3.62-.13a3.43,3.43,0,0,1,1.52,1.64,49,49,0,0,1,2.47,9.14c.52,3.32-.39,5-3.41,6.5-1.67.82-3.47,1.32-5.18,2.05-3.6,1.54-5.64,7.44-3.82,10.88.49.93,1.57,1.93.67,3s-2.3.56-3.49.21a5.14,5.14,0,0,1-3-2.35,19.63,19.63,0,0,1-.88-1.86c-.49-1-.38-2.8-2.1-2.6s-1.24,1.86-1.36,3a10.39,10.39,0,0,1-1.51,4.87c-1.28,1.9-2.69,2.1-4.15.37-1.12-1.33-1.8-.82-2.56.19-1.16,1.54-2.38,3-3.62,4.5a4.5,4.5,0,0,1-2.2,1.78c-1.23.09-2-.78-2.89-1.38-3.9-2.65-6.13-2.23-8.74,1.69a28.09,28.09,0,0,0-1.49,2.47c-1,1.92-.78,2.9,1,4.18,1.28.92,2.35.7,3.76-.79.38-.4.69-.85,1.11-1.22,1.72-1.49,3.41-1.33,4.74.51a10.53,10.53,0,0,0,2.85,3.19c.79.48,1.17.66,1.7-.32a13.79,13.79,0,0,0,1.15-2.61,48.81,48.81,0,0,1,10.65-11.43c2.45-1.87,5-2.13,7.66-.38a5.18,5.18,0,0,0,4.11.87,2.57,2.57,0,0,1,2.91,1.43,12.74,12.74,0,0,1,1.76,4.38c.29,1.5.67,3.05-1.09,4a4.13,4.13,0,0,1-5.14-.66,25.36,25.36,0,0,1-3.1-4.37c-1.56-2.45-3.1-2.57-4.92-.26s-3.11,5.35-4.61,8.06c-.66,1.88-1.17,3.81-2,5.63-.48,1-1.12,2.26-.2,3.3s2.08.62,3.13.34a4.54,4.54,0,0,1,4.29.7,2.79,2.79,0,0,1,1.25,2.66,65.44,65.44,0,0,1-1.57,10c-.7,2.42-2.23,3.73-4.31,3.81-1.78.07-3.21-1.11-4.15-3.45-.41-1-.76-2.07-1.12-3.11-1-2.94-3.47-4.34-6-5.71-.61-.34-1-.23-1.16.56-.39,2.52-.47,5,1.42,7a18.9,18.9,0,0,1,4.52,8.42c1.12,4.35,5.78,5.84,9.58,3.43,2-1.26,3.68-2.91,5.69-4.11,2.46-1.46,3.14-1.42,5.39.24.26.19.49.64.84.43s.17-.64.17-1c0-1.72,0-3.44,0-5.17a4.68,4.68,0,0,1,.61-2.78,20.75,20.75,0,0,1,5.46-4c1.31-.19,2.3.86,3.55.93a8.65,8.65,0,0,1,3.75.55,3.4,3.4,0,0,1,1.65,2.26,37,37,0,0,0,8.47,13,3.23,3.23,0,0,1,1,1.55,9.12,9.12,0,0,1,0,1.18c.11,1.51.8,1.77,2,1a3,3,0,0,1,1.74,1c6.49,6,14.35,9,22.89,10.47a5.14,5.14,0,0,1,2.89.93c1,4.9,1.57,5.29,6.82,4.87a13.53,13.53,0,0,0,4.2-1c1.44-.61,2.21-.06,2.55,1.38a20.65,20.65,0,0,1,.29,2.66c.37,3.64,1.84,6.6,5.29,8.28a19.51,19.51,0,0,1,2.56,1.73c2.57,1.8,4.06,1.56,5.77-1.21a53,53,0,0,1,4.57-6.61c.58-.68,1.15-1.37,1.78-2s1.08-.9,1.8-.32c.91,1.25,1.12,2.77,1.63,4.18.36,1,.85,1.14,1.66.51a16,16,0,0,0,3.48-3.15c2-2.77,4.12-5.46,6.07-8.27a7.83,7.83,0,0,1,1.18-1.16,6.09,6.09,0,0,1,3-.47c32.18,0,64.37-.09,96.55.09,4.71,0,9.27,0,13.9-1.12,16.41-4,27.1-14.27,33.24-29.68a41.52,41.52,0,0,0,3-17.37c1.67-1.89,3.79-1.59,5.66-.71s2.7.64,3.77-1.09c2-3.29,4.63-3.31,6.76,0a23,23,0,0,0,6.71,6.82c3.95,2.6,4.23,4.8,1.12,8.25-2.17,2.41-4,4.85-4.57,8.12a1.49,1.49,0,0,1-.83,1.12c-1.19,0-1.29-1.07-1.75-1.78a13.75,13.75,0,0,0-9.71-6.68,5.75,5.75,0,0,0-5.1,1.63,2.86,2.86,0,0,0-1,2.38,26.7,26.7,0,0,0,1.5,6.2c.31.93.84.66,1.41.24,1.34-1,2.34-2.36,3.72-3.26,1-.68,2.09-2.16,3.4-1.26s.56,2.41.37,3.68c-.1.68-.27,1.35-.4,2a4.25,4.25,0,0,0,3.42,5,2.91,2.91,0,0,0,2.46-.78c.54-.43.94-1.31,1.9-.8a4.84,4.84,0,0,1,1,2,4.86,4.86,0,0,0,1.31,2.07c.63.53,1.38,1.3,2.14.9.57-.31,0-1.26-.09-1.89a27.21,27.21,0,0,1,0-9.24c.49-2.88,1.06-3.51,3.88-4,4-.63,4-.63,4-4.76a14.56,14.56,0,0,1,0-1.86,14,14,0,0,0-4.17-12.38c-1.91-1.93-1.62-3.21.26-5.16a7,7,0,0,1,3.92-2.15c4-.64,8-2,11.84.33a4.55,4.55,0,0,0,1.39.38c1.92.4,2.12.25,1.81-1.64-.59-3.6-1.09-7.22-1.84-10.79-.88-4.17.2-8.21.61-12.3a1.06,1.06,0,0,1,.73-.92,1.94,1.94,0,0,0,3,0c2.64-2.33,5.62-2.58,8.88-1.44a53.46,53.46,0,0,0,10,2.39,16.1,16.1,0,0,0,12.6-3.35,89.66,89.66,0,0,0,9-8.49c.47-.48,1.11-1,.87-1.76s-1.17-.86-1.9-1a45.87,45.87,0,0,0-9.27-.46c-2.44.07-3.47,1-3.8,3.47,0,.27,0-.07,0,.21-.11,1.46-.11,3.22-1.86,3.52s-2.49-1.43-3.1-2.79c-1-2.33-2-4.7-3.12-7a6.68,6.68,0,0,0-4-3.3c-1.07-.38-1.57-.13-1.56,1a12.56,12.56,0,0,0,.71,5.27c.85,1.91,0,3.36-1.91,2.7-3.61-1.26-6,1-8.76,2.26-1,.46-1.94,1-2.9,1.58-.65.36-1.34.81-2.09.16-.8-1.38-.29-2.8-.14-4.21a14.07,14.07,0,0,1,.75-3.81c1.17-2.91.53-5.77-.07-8.65a2,2,0,0,1,1.34-1.86c2-.81,3.78-2.11,5.79-2.93,5.44-.37,10.39.84,14.4,4.73a4.33,4.33,0,0,0,4.05,1.4,8.15,8.15,0,0,1,6,.89c.91.59,1.54.27,2-.61.13-.24.28-.48.43-.71,2.38-3.68,4.84-3.77,7.25,0A21.28,21.28,0,0,0,463.9,278c4.11,2.76,4.45,5.49,1,9.11-4.49,4.63-5.07,10.14-4.09,16.08a5.16,5.16,0,0,0,2.34,3.74c.39.24.84.64,1.31.31s.12-.76.07-1.15a53.86,53.86,0,0,1-.15-8.45c.1-4.12.8-4.84,4.84-5.48,1.22-.19,2.45-.48,3.63.17,1.12,1.51,1,3.39,1.42,5.09a9.87,9.87,0,0,0,1.08,3.3c.49.69,1,1.76,2.06,1.17a2.23,2.23,0,0,0,1.07-2.83,9.73,9.73,0,0,0-.89-1.62,12.65,12.65,0,0,1-1.59-6.52c0-1.69.58-2,2.23-1.68,4,.88,6.91,2.91,8.06,7,.13.48.11,1.34.7,1.31.39,0,.43-.93.59-1.44a13.07,13.07,0,0,0,.37-2c.26-4.42.77-8.82.88-13.26a10.51,10.51,0,0,0-.25-3.65c-1-2.93-.85-5.93-.67-8.94-.49-3.48-1-7-1.8-10.37a37.93,37.93,0,0,1-.22-14.54c.63-4.43,1-8.89,1.6-13.33a25.67,25.67,0,0,1,2.17-8.12c1.41-.12,1.22,1.08,1.35,1.81,1.06,6,2.71,11.89,2.75,18a.73.73,0,0,0,.18.36v2.07a17.28,17.28,0,0,1-2.95,5.12c-2.34,3.32-2.21,6.63-.25,10C492,261.51,493.61,263.49,493.9,266.11Z" transform="translate(-2.64 -2.7)"/><path class="cls-2" d="M271,488.58l-.4,0c-1.34.55-2.81-.17-4.15.4H245.79c-1.41-3-3.93-3.73-7-3.46a4.38,4.38,0,0,1-3-.49c-.95-1.35-.52-3-.94-4.45a1,1,0,0,1,.51-.75c2.34-1.73,3.66-4.36,5.6-6.45l.26-.12,3.31,1.67c.94.3,1.31,1.14,1.72,1.9.78,1.45,1.67,2.62,3.58,2.26a1.3,1.3,0,0,1,.91.38c1.42-.13,2.64.65,4,.9,2,.38,3.26.1,4.16-1.65.76-1.48,1.87-1.45,3.09-1.27,2.43.36,4.84.83,7.26,1.25l11.28,2c.33,1-.38,1.67-.94,2.27-1,1.08-1.31,2,.19,2.87a.89.89,0,0,1,.37.68,43.88,43.88,0,0,1-7.47,1.64C272.18,488.59,271.5,488.14,271,488.58Z" transform="translate(-2.64 -2.7)"/><path class="cls-3" d="M493.9,266.11c-1.1-2.36-2.65-4.45-3.91-6.71-1.88-3.35-2.13-6.74.2-10.06a47.21,47.21,0,0,1,3.72-5.15Z" transform="translate(-2.64 -2.7)"/><path class="cls-4" d="M235.88,484.88c1.92,0,3.84-.07,5.76,0,2.58.09,4,1.51,4.15,4.12h-1.24a9.53,9.53,0,0,0-3.81-1.22,39.25,39.25,0,0,1-4.88-1.27A1.11,1.11,0,0,1,235.88,484.88Z" transform="translate(-2.64 -2.7)"/><path class="cls-5" d="M232.11,3.08q0-.19,0-.38h9.51a.52.52,0,0,1-.2.69C238.31,4,235.18,4.54,232.11,3.08Z" transform="translate(-2.64 -2.7)"/><path class="cls-6" d="M241.67,3.09q0-.2,0-.39h6.2q0,.19,0,.38a1.37,1.37,0,0,1-.6.48C245.36,3.82,243.43,4.42,241.67,3.09Z" transform="translate(-2.64 -2.7)"/><path class="cls-7" d="M266.46,489c1.32-.81,2.76-.27,4.14-.4q0,.2,0,.4Z" transform="translate(-2.64 -2.7)"/><path class="cls-3" d="M369.46,325.65a29,29,0,0,0-2.65-5.79,23.71,23.71,0,0,1-2-4.06,51.13,51.13,0,0,0-2.31-5.28c-3.86-7.52-7.34-15.22-10.71-23-.63-1.45-1.25-2.95-2.68-3.81a1.76,1.76,0,0,1-.89-2.56,4.33,4.33,0,0,0,.13-1.42c3-5.56,5.82-11.25,8.54-17,1.38-2.9,1.75-6.21,2.61-9.33,1.28-4.64,2.22-9.38,3.64-14a3.35,3.35,0,0,1,.89-1.82,67.81,67.81,0,0,0,15.42.68,46.42,46.42,0,0,0,10.25-2.21c1.05-.31,2.11-.61,3.15-1a2.89,2.89,0,0,0,2.15-2c.12-.52.34-.94,1-.67,1,.42,1.67-.17,2.35-.81a24.31,24.31,0,0,0,6.57-11.5c.75-2.64,1.4-5.31,2.23-7.93a13.51,13.51,0,0,0,.7-3.63c.15-5.15.17-10.29-1.09-15.37A35.24,35.24,0,0,0,394,173.75a90.71,90.71,0,0,0-20.65-11.95,7.51,7.51,0,0,0-1-.28.6.6,0,0,1-.85,0l-.44-.75c-1.4-1.25-1.73-3.09-2.53-4.67a5.55,5.55,0,0,0-6.39-3.16,13.07,13.07,0,0,0-6.36,3.18c-3.69-.81-7.37-1.65-11.06-2.44a85.61,85.61,0,0,1-8.43-1.9,31.58,31.58,0,0,0-5.27-.93c-4.41-.64-8.88-.86-13.27-1.67a10.72,10.72,0,0,0-2.48-.05,13.09,13.09,0,0,1-4.69-.54,11.77,11.77,0,0,0-4.7-.39c-2.93.29-5.77-.21-8.64-.41-5.76-.41-11.52-.78-17.3-.71-2.27,0-4.56.32-6.78.25-4.06-.13-8.07.36-12.08.43-14.33.23-28.66.17-43,0-3.22,0-6.45-.24-9.68-.31a45.11,45.11,0,0,0-8.61.73,14.24,14.24,0,0,1-2.88.11,48.3,48.3,0,0,0-7.6.55c-1.28.15-2.54-.08-3.85.08-3.27.4-6.53.85-9.78,1.39a8.76,8.76,0,0,1-1.44,0,11.06,11.06,0,0,1-.44-5.23c.2-.94.43-1.7,1.56-1.84a1.93,1.93,0,0,0,1.35-1.17,8.4,8.4,0,0,1,4.13-4.56c.72-.92,1.41-1.86,2.17-2.74a6.18,6.18,0,0,1,3.33-2.32,12,12,0,0,0,1.31-.6,4.88,4.88,0,0,0,3.52-3.91,2.2,2.2,0,0,1,1.32-2c.83-.27.63-.78.33-1.28-.74-1.24-1.46-2.5-2.3-3.67-.59-.83-.54-1.35.38-1.77.31-.14.62-.31.92-.47,2.12-1.12,2.06-1.11,1.59-3.38a5,5,0,0,1,.8-4.45c1.92-2.46,1.3-5.32-1-8a73.74,73.74,0,0,0-9-8.47c-1-.83-1-1,.29-1.22a4.2,4.2,0,0,0,3.15-2.94c.5-1.22.65-1.26,1.47-.43a53.31,53.31,0,0,0,6.53,5.34,6.53,6.53,0,0,1,1.05,1c.82.94.76,1.24-.33,1.89-.12.07-.25.12-.37.19-2,1.12-2.07,2.36-.09,3.58a10.47,10.47,0,0,0,5.53,1.34c2.16-.81,3.09-.27,3.25,2a5.23,5.23,0,0,0,1.3,3.39,1.49,1.49,0,0,0,2.06.2c.93-.59.3-1.19-.08-1.72-1.32-1.84-1.09-3.75-.27-5.68.88-2.1,2.3-3.9,3.27-6,.76-1.6,3.14-1.39,4.27.28a41.69,41.69,0,0,1,2.39,4.57c.59,1.17,1.22,1.43,2.08.26a5.52,5.52,0,0,1,4.89-2.11c3.1,0,6.2-.09,9.19.9a2.9,2.9,0,0,0,3.16-.91c4.94-4.83,10.91-6.11,17.51-4.85A8.18,8.18,0,0,0,260,93a8.63,8.63,0,0,1,2.54-.84c4.08-1.77,8.11-3.67,12.63-4a13.45,13.45,0,0,1,2.28.5c5.14,1.35,10.44,1.55,15.67,2.25,1.56.21,3.13.39,4.7.56,1.41.16,1.5-.48,1.14-1.57-.67-2.08-2.39-3.22-5.39-3.31-4.4-.14-8.74-.81-13.11-1.3-3.13.41-6.23,1.06-9.39,1.23a9.93,9.93,0,0,1-3.44-.2,18.15,18.15,0,0,1-5.67-8.19c-.71-1.93.2-3.79,1.17-5.5.46-.82,1.22-.78,2-.53a12.18,12.18,0,0,1,4.9,3,35.66,35.66,0,0,0,2.68,2.58,2.69,2.69,0,0,0,3.88-.29c1.16-1.21.77-2.39-.14-3.51a15.53,15.53,0,0,0-2.87-2.66c-2.22-1.63-4.3-3.44-6.44-5.18-2.36-1.92-4.07-6-1.6-9,1.59-1.94,1.25-4.12-.29-6.08A66.46,66.46,0,0,0,253.71,40a3.55,3.55,0,0,0-1.72-.64c-3.07-.46-3.07-.47-3.77-3.58a5.18,5.18,0,0,1-.15-1.25,3.34,3.34,0,0,0-1.52-2.35q-7.38-5.83-14.84-11.55a4.11,4.11,0,0,0-4.06-.73,166.24,166.24,0,0,1-17.11,4.75,8.35,8.35,0,0,0-6.19,5c-.84,2-2.34,2.2-4.18,2.15s-2.49-1.19-2.94-2.67-1-2.86-1.52-4.28c-.32-.87-.52-1.75.46-2.39,1.18-1.55,2.9-2.51,4.27-3.86,1-1,1.8-1.91,1.25-3.56a4,4,0,0,1,1-3.83c1-1.23,2-2.42,2.92-3.72a3.65,3.65,0,0,1,4-1.55A16.75,16.75,0,0,1,217,9.24c1.46,1.25,3,2.37,4.58,3.5.86.62,1.06.53,1-.49,0-2.27.16-4.52.34-6.78.08-1,.27-1.45,1.36-1.6a52.06,52.06,0,0,1,7.76-.79h9.56l5.79.07c.19,1.25-.84,1.8-1.5,2.53-1.28,1.42-2.87,2.59-3.73,4.37-.72,1.48-.53,1.8,1.07,1.92,4.4.34,4.81.85,4.15,5.34-.18,1.22-.21,2.47-.49,3.68-.06.25-.25.59,0,.75s.47-.18.7-.29c2.52-1.18,4.57-.9,6.36,1a90.89,90.89,0,0,1,7.95,10c.41,1.12,1.47,2,1.29,3.34a1.24,1.24,0,0,1-.88.43c-.39,0-.82.12-1-.42,0,.49.53.55.8.82a11.27,11.27,0,0,0,1.33,1.23c2.36,1.89,4.6,3.95,7.56,4.88-.21,1.34-1.77,1.08-2.34,2-.65.54-1.81.75-1.72,1.82s1.22,1.52,2.18,1.9a24,24,0,0,0,5.22.94,2.44,2.44,0,0,1,2.21,2.73,5.38,5.38,0,0,0,2,3.93,44.6,44.6,0,0,0,5.22,4c.91.65,2,1.06,3,.1.63-.62-.26-2.81-1.35-3.3a33.86,33.86,0,0,1-3.22-1.36c-3-1.71-4.16-4.18-2.8-7.28s3.21-5.8,3.48-9.22c1.18.53,2,1.75,3.38,1.89,1.33,1.84,2.07,4,3.14,6,.56,1,1.17,1.36,2,.37,1.68-2,3.88-2.29,6.31-2.24,2,0,4,.39,5.89-.27,2.77,1.79,3.33,1.74,5.71-.46,7.82-7.23,21.18-6.13,28,2.32a9.49,9.49,0,0,1,1,1.32c.9,1.63,1.81,2.69,4,1.65,1.52-.72,2.84.4,3.74,2.39.44,1,.32,2.77,1.31,2.78s.88-1.79,1.33-2.76c.55-1.19,1-2.4,1.67-3.54a1.86,1.86,0,0,1,2.92-.81,19.4,19.4,0,0,1,3,1.82,2.08,2.08,0,0,1,.38.5,1.63,1.63,0,0,1,.17.59c0,1.09-.33,2.15-.39,3.23-.09,1.77.71,2.61,2.47,2.32a39.72,39.72,0,0,0,4.77-1c2.36-.8,4.44-2.3,6.92-2.79l1.25.47c-1.07,3.35.26,5.22,4,5.58.2,0,.47.14.59,0s-.08-.48-.23-.67c-.72-.92-1.48-1.81-2.25-2.69-.54-.62-1.12-1.29-.46-2.18,4.32,1.53,8.65,3,12.86,4.87.59.66.29,1.44.25,2.17a16.82,16.82,0,0,0,1.41,7.81c.84,1.92,1.74,2,3.21.54s2.14-3.51,3.84-4.75a28.78,28.78,0,0,1,4.48,2.9c6.65,4.41,13.22,8.95,20,13.21a12.38,12.38,0,0,0,4.21,1.64,10.33,10.33,0,0,1,7.3,5.55l1.29,2.34c-.49.44-1,.25-1.56.13-2.9-.68-5.75.05-8.61.32-.68.06-1.08.24-.5,1,1.18,1.52,2.34,3.06,3.6,4.51a4.16,4.16,0,0,0,2.39,1.05,6.62,6.62,0,0,1,4.9,4.25c-.39,1.76-1.88,2.67-3,3.79a4.92,4.92,0,0,0-1.68,4.55c.62,5.18-1,8.07-5.74,10.2-2,.9-1.29,2.31-1.09,3.65.37,2.42.62,2.52,2.65,1.21a22.34,22.34,0,0,1,5.23-2.88c2.23-.71,4.45-.94,6.46.69,1.36,2.6,3.81,4.16,6,5.94,2.85,2.37,5.45,4.83,6.6,8.47.08.26,0-.06.09.19,2.25,4.52,3.54,4.87,7.81,2.2.88-.55,1.69-1.55,2.95-.83a45.59,45.59,0,0,0,5.83,8.21,6.69,6.69,0,0,1,1.1,2c1.41,3.21,2.76,6.44,4.18,9.64a5.63,5.63,0,0,1,.47,3.76c-1,4.09-.06,8.06,1.06,12,.83,2.9,1.48,6,3.26,8.42a25.88,25.88,0,0,1,4,9c1.14,4.26,3,8.27,4.49,12.39,1.85,5,3.73,9.9,5.58,14.86a19.13,19.13,0,0,1,1.08,4.18,8.8,8.8,0,0,1-.63,3.63c-1,2.81-1,5.78-1.44,8.68s-.84,6.09-1.14,9.15c-.24,2.52-.58,5-.86,7.53a13.19,13.19,0,0,0,.52,3.64c.74,4.1,1.51,8.2,2.24,12.31a8.62,8.62,0,0,1,0,1.44c-2,.79-3.8-.4-5.67-.82a4.6,4.6,0,0,0-4.38-1,25.84,25.84,0,0,1-3.87.42,8,8,0,0,0-5.48,2.47,2,2,0,0,0-.14,3.05c1.19,1.41,2.3,2.89,3.48,4.31a3.76,3.76,0,0,1,1.16,2.13c0,3.66,0,7.31,0,11,0,1,.12,2.1-.77,2.89a20.44,20.44,0,0,0-5.32.49,2.18,2.18,0,0,0-2.21,2.2c-.36,4.11-.8,8.2.32,12.26.25.92.05,1.05-.93.84a5.64,5.64,0,0,1-4.53-4.57A20.82,20.82,0,0,1,462,289.43a7.73,7.73,0,0,1,1.75-2,13.34,13.34,0,0,0,2.33-2.88,3.32,3.32,0,0,0-.57-4.47,13.92,13.92,0,0,0-2.63-2,14,14,0,0,1-5.13-5.24,8.12,8.12,0,0,0-1.59-2.14c-1.75-1.67-2.94-1.6-4.39.4-.56.77-1,1.66-1.48,2.48-.69,1.12-1,1.22-2.06.37a7.08,7.08,0,0,0-6.1-1.06,3.91,3.91,0,0,1-4.47-1.56,9.28,9.28,0,0,0-4.56-3.09,24.69,24.69,0,0,0-9.47-1.72c-2.1-.36-2.56-.87-2.66-2.92a14.27,14.27,0,0,0-.23-3.68c-.14-.53-.26-1.07-.4-1.6-1.05-4.15-.76-5,2.77-7.42.42-.29.9-.5.42-1.09s-1-.77-1.61-.26c-1.1.94-2.19,1.89-3.27,2.84a29.49,29.49,0,0,1-4.92,3.75,1.65,1.65,0,0,0-.78,2.39c.8,2.13,1.66,4.23,2.47,6.36.67,1.88,1.58,3.7,1.59,5.77a14,14,0,0,1,.1,9.71,20.94,20.94,0,0,0-.92,7.24,10,10,0,0,1-.83,7c-.82,1.44-.41,3.07-.74,4.6-.88,4-.3,8,.54,12,.64,3.08,1.06,6.21,1.61,9.31.15.85-.17,1-.88.81-2-.57-4.26-.49-5.95-2a1.43,1.43,0,0,0-1.38-.21c-2.13.63-4.36.3-6.53.73a8.84,8.84,0,0,0-5.63,3.08c-.91,1.16-1,1.47-.08,2.69,1.22,1.65,2.49,3.27,3.81,4.85a5.09,5.09,0,0,1,1.16,3.43c0,3.44,0,6.88,0,10.33,0,1.69-.36,2.07-2,2.11a30.7,30.7,0,0,0-3.88.4,1.73,1.73,0,0,0-1.64,1.54,24.64,24.64,0,0,0-.52,9c.23,1.39.08,2.88.9,4.2.39.62-.09.79-.72.66-2.59-.55-4.37-1.92-4.9-4.64-.11-.54-.27-1.06-.41-1.59a6.52,6.52,0,0,1,0-6.62c.56-1.26.61-2.66,1.08-4a9,9,0,0,1,2.48-4,13.86,13.86,0,0,0,2.53-3c1.53-2.33,1-3.43-.43-4.73a14.32,14.32,0,0,0-3.13-2.32,9,9,0,0,1-3.83-3.61,23,23,0,0,0-2.08-3.07c-1.59-2-3.41-1.9-4.86.17-.51.73-.9,1.54-1.39,2.29-.7,1.08-1,1.09-2.1.34a5.49,5.49,0,0,0-4.83-1,7.1,7.1,0,0,1-1.64.09h0C369.59,326.26,369.68,325.88,369.46,325.65Z" transform="translate(-2.64 -2.7)"/><path class="cls-8" d="M115.54,238a59.29,59.29,0,0,0,7.6.64,34.94,34.94,0,0,0,6.17-.28,98.43,98.43,0,0,0,24.56-6.09,51.83,51.83,0,0,0,16.75-10.39c5.59-5,8.13-11.49,8.13-18.92a6.7,6.7,0,0,1,2-5.2,17.42,17.42,0,0,0,1.3-1.6,7.46,7.46,0,0,1,3.42-2.52c1.74-.61,3.32-1.68,5.05-2.33a81.64,81.64,0,0,1,17.62-4.21l11.23-1.55.41-.05c3.28-.39,4.05.29,4.08,3.64,0,1.86,0,3.72,0,5.58.08,4.89.61,9.74,1.09,14.6,0,.41.08.82.09,1.23a.81.81,0,0,1-.84.95c-.69,0-1.38.09-2.06.09-2.76,0-5.51,0-8.27,0A104.71,104.71,0,0,0,196.66,213c-4.88.87-9.59,2.05-13.81,4.61-12.39,7.5-20.93,17.9-23.94,32.37a46.21,46.21,0,0,1-1.19,5.22,12.2,12.2,0,0,0-.45,4.09,7.83,7.83,0,0,1-.91,3.77c-1.5,2.94-3,5.9-4.46,8.86-1.4,1.37-2.27,0-3-.75a5.09,5.09,0,0,0-4.91-1.33,5.68,5.68,0,0,0-4.46,3.55c-1.62,3.65-2.42,7.57-3.64,11.35a1.88,1.88,0,0,0,1.2,2.5,2.84,2.84,0,0,1,1.53,1,15.86,15.86,0,0,1-1.07,8.49,1.17,1.17,0,0,1-1.18.09,4.74,4.74,0,0,0-4.67.79,3.33,3.33,0,0,1-2.09.78c-1-.07-2-.17-2.42-1.24a2.56,2.56,0,0,1,.59-2.68,7.48,7.48,0,0,1,1.84-1.32c3-2,3.5-5.36,1.14-8.14a18.6,18.6,0,0,0-5.56-4.21,6.84,6.84,0,0,1-2.62-2.26,3.58,3.58,0,0,0-1.23-1.25c-1-1.44-.27-2.44.83-3.33s2.38-1.39,3.45-2.27c1.34-1.09,1.45-2,.39-3.36-.88-1.15-2-2.06-3-3.14-.73-.82-1.22-1.69-.51-2.78.5-1.85,1.3-3.62,1.3-5.58,0-2.17-.44-2.8-2.56-3.31a19.31,19.31,0,0,0-5.33-.14,4.89,4.89,0,0,1-4.36-2.24,6.29,6.29,0,0,1-.72-2.55c-1-4.54.62-8.38,4.4-10.27A1.52,1.52,0,0,0,115.54,238Z" transform="translate(-2.64 -2.7)"/><path class="cls-4" d="M262.74,92.84a9.8,9.8,0,0,0-3.67,1.26,5.16,5.16,0,0,1-3.59.26c-5-1.41-9.75-.58-14.37,1.62a13.66,13.66,0,0,0-3.95,3.25,2.59,2.59,0,0,1-3.13.8c-3.5-1.35-7.17-.95-10.8-1a3.47,3.47,0,0,0-2.64,1.43c-.22.26-.38.57-.58.85-1.28,1.71-1.59,1.68-2.56-.25-.84-1.66-1.64-3.33-2.5-5A2.21,2.21,0,0,0,212.2,95a.83.83,0,0,0-.69.66c-.33,1.68-1.43,2.94-2.3,4.34a13.72,13.72,0,0,0-1.05,2.23,4.34,4.34,0,0,0,1.1,5.25c1,1,1,1.07-.23,1.73-2.27,1.24-3.47.82-4.44-1.6a5.51,5.51,0,0,1-.56-2.39c.09-1.51,0-1.65-1.47-1.94a6.84,6.84,0,0,0-1-.05c1.08-3.26,2.62-6.34,3.94-9.5s2.66-6,4-9c2.73-5.94,1.75-11.54-2.1-16.65a75,75,0,0,0-5.64-6.53A6.27,6.27,0,0,1,204,51.18,35,35,0,0,0,208.59,49c1.13-.64,2.21-1.48,2-3.06a2.75,2.75,0,0,0-1.9-2.67A5.06,5.06,0,0,1,205.51,40a10.21,10.21,0,0,0-.76-1.68c-1.46-2.25-2.24-2.59-4.81-1.75-1.16.38-2.25.67-3.32-.14-.2-.15-.75-.18-.15-.64,1.32-1,1.31-1.74.11-3.29a1.63,1.63,0,0,1,1.45-1c2.63.21,5.28-.56,7.9.27s5,1.47,7.39,2.4a4.26,4.26,0,0,1,1.91,1.14c.46,1.58-.93,1.81-1.8,2.22-1.43.67-1.54,1.26-.3,2.25a4.72,4.72,0,0,1,1.8,2.43,56.4,56.4,0,0,1,.15,7.78c.24,2.37,1.24,4.63,1.08,7.06-.5,2-1.86,3.65-2.72,5.52-.49,1.06-.38,1.62.74,2a7.09,7.09,0,0,0,4.63.27c2.72-.79,5.25-2,7.87-3.06.74-.29,1.47-.82,2.34-.35a26.83,26.83,0,0,1,2.77,8.46A3.18,3.18,0,0,1,230,72c-3,1.75-4.59,4.63-6,7.63a2.32,2.32,0,0,1-.63,1A41.13,41.13,0,0,0,216,83.39c-1.17.56-1.35,1.07-.46,2.13,2.07,2.47,4.3,3.94,7.67,2.45a35.16,35.16,0,0,1,4.39-1.08,8.74,8.74,0,0,1,5.64.22c3.33,1.22,4.88.34,5.75-3.06a20,20,0,0,0,.43-8.37,4.86,4.86,0,0,0-2.86-5.09c-3.56-2-4.74-5.14-3.75-9.08.54-2.16.94-4.47,3.08-5.82A10.45,10.45,0,0,1,243,57.51c-.91,1.36-1.71,2.79-2.49,4.24-1.24,2.28-1.28,2.3,1.44,2.31a9,9,0,0,1,6.79,3A11.92,11.92,0,0,1,252,78.26c-.46,2.09-.77,4.19-1.14,6.29a6.61,6.61,0,0,0-.18,1.64c.07,1-.38,2.3,1,2.62s1.71-.8,2.17-1.78c1.09-2.31,2.61-2.74,4.84-1.41a6.57,6.57,0,0,1,1.91,1.56c.81,1.41,1.29,3,2.24,4.35A1,1,0,0,1,262.74,92.84Z" transform="translate(-2.64 -2.7)"/><path class="cls-3" d="M431,410.43a3.34,3.34,0,0,1,0,.4l-.36.45a9.92,9.92,0,0,1-1.06,2.45c-3.07,6.46-6.39,12.8-8.91,19.51-1.55,4.12-3.06,8.25-5,12.22a46.25,46.25,0,0,1-9.82,13.9,9.48,9.48,0,0,1-3.41,1.88,40.12,40.12,0,0,1-6.56,1.73c-1,.51-1.6-.14-2.05-.82a16.53,16.53,0,0,0-4.15-4.24c-1.19-.87-1.14-1.76.06-2.61a24.37,24.37,0,0,1,4.57-2.78,13.7,13.7,0,0,0,5.93-4.94c1.39-2,2.83-3.88,4-6a4.62,4.62,0,0,0-.24-5.4,26.12,26.12,0,0,0-4.53-4.77c-1.38-1.18-2.88-1-4.46-.41-1.85.65-3.6,1.81-5.72,1.28-1.47-1-3.27-1.57-4.19-3.26a83.45,83.45,0,0,0,5.72-9.31c1-2,2-2.41,3.76-1.18,1.53,1.07,2.69.77,4.13,0a4.34,4.34,0,0,0,2.48-3.76,6.77,6.77,0,0,0-.22-2.86,1.52,1.52,0,0,1,.68-1.94,9.28,9.28,0,0,0,3.48-5.66c.68-2.79.79-5.72,2.05-8.37.32-.67-.14-1-.71-1.22-1.9-.8-3.76-1.7-5.69-2.42a2.33,2.33,0,0,1-1.58-2c-.7-3.84-1.41-7.68-2-11.54a6.24,6.24,0,0,1,.19-3.26c.4-1.07.66-1.18,1.62-.53a3.57,3.57,0,0,1,1.55,2.11,9.52,9.52,0,0,0,1.31,3c.68,1,1.25,1.09,2.28.5a5.75,5.75,0,0,0,2-2,4.76,4.76,0,0,1,1.51-1.67c3-1.75,5.55-4.07,8.69-5.52a8,8,0,0,1,8.56,1c1.39,1,2.94,2.06,3.53,3.91.22.71.15.94-.64,1.06a10.7,10.7,0,0,1-3.85.11,24.85,24.85,0,0,0-5.13-.24,4,4,0,0,0-2.79,1.18,15.25,15.25,0,0,0-3.23,4.25,2.68,2.68,0,0,0,.21,3.07c1.09,1.5,2,3.1,3.1,4.62a2.59,2.59,0,0,1,.42,2.48c-2.13,6.83-4.37,13.62-6.91,20.31a30.31,30.31,0,0,1-2.94,5.19c-1.2,1.93-2.48,3.8-3.61,5.76-1,1.72-.83,2.35.74,3.48a32.55,32.55,0,0,0,5.51,3.61c2.55,1.14,3.34.94,5.35-.92A22.88,22.88,0,0,0,420,423a48.9,48.9,0,0,1,4.53-8.09A12.67,12.67,0,0,1,431,410.43Z" transform="translate(-2.64 -2.7)"/><path class="cls-2" d="M30.72,160.62a105.54,105.54,0,0,1,5.4-10.73c3.94,3.73,8.3,1.66,12.48.73,1.64-.37,2.35-2,2.44-3.74a13,13,0,0,0-.2-1.85c-.27-3,.68-4.37,3.61-5a6.35,6.35,0,0,0,3.19-1.3,1.91,1.91,0,0,1,.06,2.31c-1.76,3.44-2.73,7.18-4.19,10.74a25.4,25.4,0,0,1-4.1,6.87A17.57,17.57,0,0,1,46.59,161a10.62,10.62,0,0,0-4.06,6,11.89,11.89,0,0,0,0,5.52,4,4,0,0,1-1.09,4.13,8.3,8.3,0,0,0-2,3.1A2.37,2.37,0,0,0,40.74,183a3,3,0,0,0,1,.36,8.13,8.13,0,0,1,4.88,2.82c2.63,2.73,2.7,2.69,3.78-1.06.23-.79.38-1.59.55-2.4s.62-.76,1.18-.41a3.6,3.6,0,0,1,1.76,3.11c0,2.59,0,5.19-1.55,7.49-1.09,1.57-2,3.3-2.93,5,.13.95-.51,1.53-1,2.14-3.56,4-6.34,8.47-7,14a2.17,2.17,0,0,1-.62,1.27v1.23a3.45,3.45,0,0,1,0,2.48c-.05,3.21-1.33,5.79-4.23,7.22a4.21,4.21,0,0,0-2.37,4,18,18,0,0,0,.54,6.32c.46,1.59.64,3.22,1,4.82a4.38,4.38,0,0,1-2.32,4.2c-.41.17-.61-.08-.83-.36a3.38,3.38,0,0,1-.81-3.26c.77-2.26-.27-3.8-1.69-5.33-1-1.07-2.31-1.71-3.36-2.7-.88-1-.52-2.09-.32-3.15,1.29-7,2.59-14.09,3.83-21.15a37.23,37.23,0,0,0,.75-7,11.21,11.21,0,0,0-4.19-9.06,5.4,5.4,0,0,1-2.11-5c.24-3.71.12-7.42.45-11.14a17.16,17.16,0,0,1,2.86-8.51c1.3-1.86,2.34-3.69,2.21-6.05A4.34,4.34,0,0,1,30.72,160.62Z" transform="translate(-2.64 -2.7)"/><path class="cls-3" d="M122.57,278.51c3,1.81,6.21,3.25,8.62,5.92a6.71,6.71,0,0,1,1.7,3.88c.31,2.79-1.18,4.52-3.48,5.75-1.52.81-2.25,2.06-1.77,3s2.38.87,3.67,0a10.6,10.6,0,0,1,1-.69c1.62-.8,3.23-1.22,4.71.29,1.23.08,1.55,1.34,2.43,1.87a.59.59,0,0,1,.42.2c0,.77.26,1.59-.72,2.13-.4.22-.58.91-.76,1.42a64.85,64.85,0,0,1-3.2,7.12c-1.51,3.07-2.93,6.2-4.44,9.27-.75,1.54-1.72,3-2.41,4.53a30.36,30.36,0,0,0-1.68,7,2.44,2.44,0,0,1-2.32.49c-1.15-.19-2.32-.29-3.47-.5a6.12,6.12,0,0,0-6.15,1.87c-2,2.17-3.47,2.19-5.74.32a39.92,39.92,0,0,0-7.91-5.2c-.75-.36-1.72-.74-1.27-2a49.46,49.46,0,0,1,4.92-8.78,4.58,4.58,0,0,1,2-1.4c1.32-.56,2.28-.1,3,1.17,1,1.65,2,3.3,3.12,4.86a3.69,3.69,0,0,0,5.3.93,1.41,1.41,0,0,0,.61-1.42,12.86,12.86,0,0,0-2.51-6.87c-.46-.65-1.07-.4-1.68-.25a4.46,4.46,0,0,1-4.1-.63c-3.24-2.52-5.82-1.36-8.33.7a57.73,57.73,0,0,0-9.33,10.1,2.14,2.14,0,0,1-.49.36,2.3,2.3,0,0,1-2.89,1.92c-1.61-.24-2.8-1.09-3-2.69-.24-2.11.2-4.11,2.15-5.43,2.19-1.72,3.68-4,5.36-6.21a10.51,10.51,0,0,1,1.52-1.67,1,1,0,0,1,1.7.33c.07.12.07.27.13.39,1.23,2.24,2.41,2.29,3.68.13a9.33,9.33,0,0,0,1.26-4.52c0-.55,0-1.11,0-1.65.2-1.83.74-2.22,2.53-2.11,1,.06,1.28.61,1.56,1.37a17.71,17.71,0,0,0,1.52,3.81c1.21,1.87,3,2.26,5,2.25.83,0,.89-.49.56-1.11-.56-1-1.14-2-1.71-3.06a2.35,2.35,0,0,1-.21-2c.41-1.24.73-2.51,1.12-3.75a6.75,6.75,0,0,1,5-5,19.53,19.53,0,0,0,3.68-1.34c3.42-1.63,4.11-2.6,3.47-6.46C124.35,284.28,123.34,281.42,122.57,278.51Z" transform="translate(-2.64 -2.7)"/><path class="cls-9" d="M63.84,415a77.55,77.55,0,0,1-7.37-5.6,39.39,39.39,0,0,1-6.78-8.26c-3.48-5.5-5.12-11.61-6.2-18A134.84,134.84,0,0,0,38.4,363.2a171.92,171.92,0,0,0-7.54-18.74,13.86,13.86,0,0,1-1.34-6.81,3.84,3.84,0,0,1,4.32,3c1.18,4.78,2.26,5.66,7.13,5.82,1,0,2.08-.13,2.88.73.75,1.57.46,3.21.33,4.84a19.13,19.13,0,0,0-.68,5.09c-.11,2.7,1.79,4.34,3.6,6a2.21,2.21,0,0,1,.5.37,2.06,2.06,0,0,1,.49.81,1.38,1.38,0,0,1-.37,1.47c-.05,2.92,1,5.66,1.39,8.51.05.41.21.8.25,1.21A3.35,3.35,0,0,0,52,378.57l6.7,2.06c1.45.44,2.91.83,4.33,1.34,2.31.83,2.72,2.29,1.27,4.27-.37.5-.73,1-1.05,1.53-1.1,1.8-.48,3.26,1.65,3.56a29.24,29.24,0,0,0,3,.49,5.43,5.43,0,0,1,3.64,1.72,18.09,18.09,0,0,1,5,9.73c.52,2.57-.59,4.5-2.95,5.78-2.84,1.54-5.66,3.11-8.5,4.66A3,3,0,0,0,63.84,415Z" transform="translate(-2.64 -2.7)"/><path class="cls-3" d="M47.71,365.76v-1.64c-.14-.14-.26-.29-.41-.42h0c-2-3.47-4.32-6.83-3.73-11.17v-5.36a2.64,2.64,0,0,1-1.22-1.32c-1.4-4.39-4.76-7.2-8.06-10.07A3.16,3.16,0,0,1,33,334.23a6.52,6.52,0,0,0-.73-5.27c-1.14-2-.18-3.92,2-4.77a18.39,18.39,0,0,1,3.61-.83c3.62-.59,5.14-4.16,2.4-7-3.16-3.27-2.87-6.59.33-9.51,3.65,0,5,.88,6.12,4.22a63,63,0,0,1,2,8.82,4.38,4.38,0,0,1-1.39,4.29c-.2.19-.38.39-.57.59-2.6,2.68-2.23,4.59,1.26,6.13a49.77,49.77,0,0,0,6.2,2.24,3.65,3.65,0,0,1,2.09,1.21,87.1,87.1,0,0,0,4.5,8.09,18.63,18.63,0,0,0,2.53,3.22c.75.77.53,1.2-.11,1.84a26,26,0,0,1-3.05,2.43c-1.08.8-2.37.52-3.6.48a9.16,9.16,0,0,1-1-.25c-2.53-.39-3.79,1.13-3,3.5.6,1.76,1.92,3.16,2.4,5,1,3.65,2,7.27,3,10.9.24.82,0,1.05-.81,1.18-3.35.52-6-.92-8.51-2.84C48.05,367.32,48.36,366.33,47.71,365.76Z" transform="translate(-2.64 -2.7)"/><path class="cls-10" d="M56.39,334.35a58.19,58.19,0,0,1-8.77-2.88,6.93,6.93,0,0,1-3.34-3.2,1.66,1.66,0,0,1,.37-2.23c.84-.81,1.63-1.67,2.48-2.47a3.21,3.21,0,0,0,1.07-3.27,70.08,70.08,0,0,0-2.33-10A3.28,3.28,0,0,0,43,307.75a14.71,14.71,0,0,1-2.35-.7,2.65,2.65,0,0,1-1-1.93,99.71,99.71,0,0,1-2.05-12.17c-.38-4,1.77-7.07,3.9-10.13,2.54-2.29,5.68-3.58,8.7-5,1.94-.91,2.82-2.12,2.66-4.29-.24-3.18.53-6.47-1.29-9.44a1.3,1.3,0,0,1,.28-1.69c.84,1.17.83,1.15,1.88.42,1.76-1.21,3.52-2.41,5.31-3.56,1.25-.8,1.7-.7,2.66.41,1.26,1.46,2.17,3.13,1.67,5.09s-.35,4.23-.68,6.34a41.07,41.07,0,0,0-.51,9,44.73,44.73,0,0,1,.43,5.33c-.11,2.17-.47,2.54-2.61,2-1.34-.31-2.66-.63-4-.8a59.79,59.79,0,0,0-9.42-.73c-1.79.05-2.2.29-2.46,2.07a28.4,28.4,0,0,0-.54,5.32A5.38,5.38,0,0,0,46,297.89a16.36,16.36,0,0,0,10.1,3c.7,0,1.74-.43,2.08.35s-.69,1.23-1.19,1.73c-1.92,1.87-3.58,4-6,5.36-.7.39-.61.81-.1,1.29a5.52,5.52,0,0,0,3.28,1.58c.34,0,.69,0,1,0,3,.21,4.1,2,2.92,4.81a2.23,2.23,0,0,1-.18.37c-2,3.05-1.75,6.37-1.22,9.76a9,9,0,0,1,0,3.29A24.67,24.67,0,0,0,56.39,334.35Z" transform="translate(-2.64 -2.7)"/><path class="cls-3" d="M51.84,262.39a3.1,3.1,0,0,0,.58,2.12,5.94,5.94,0,0,1,1.09,3.88c-.08,2.2-.09,4.4,0,6.59a2.52,2.52,0,0,1-1.64,2.72,80.26,80.26,0,0,0-8.4,4.37l-1.56,1a8.75,8.75,0,0,1-1.84-.17A2,2,0,0,0,37.85,284a51.75,51.75,0,0,0-3.41,6.58,6.58,6.58,0,0,0-.13,5c1.44,3.67.25,6.7-2.11,9.5-.53.63-1,1.29-1.54,1.93a4.39,4.39,0,0,0-.34,5.51,7.7,7.7,0,0,1-1.17,8.72c-1.23,0-1.55-.95-2-1.78a22.31,22.31,0,0,1-1.3-4.3c-.56-2.16-1.51-4-3.87-4.58a2.05,2.05,0,0,1-1.21-1A18.87,18.87,0,0,1,19.57,305a4.54,4.54,0,0,1-.09-2.81,6.78,6.78,0,0,0-1.58-6.47,11,11,0,0,1-1.2-1.9l0-1.22c-.51-1.63.15-3.35-.37-5l0-.8a38.49,38.49,0,0,0,1.15-4.16,2.64,2.64,0,0,1,1.73-2.07c3.33-1.63,6.64-3.31,10-5a2.74,2.74,0,0,1,2.51-.49c2,.32,4,.6,6,1.1,1-.09,2.05,0,3.08,0,3.5,0,4.29-.63,5.24-4,1.18-2.36,2.39-4.62,2.1-7.49-.21-2.07,1.75-3.09,3.78-2.34Z" transform="translate(-2.64 -2.7)"/><path class="cls-10" d="M99.81,325.24a1.22,1.22,0,0,0,.87,1,38.72,38.72,0,0,1,9.47,6.16,2.34,2.34,0,0,0,3.48-.15,4.22,4.22,0,0,0,.73-.73c1.71-2.58,4.22-2.41,6.82-2a32.15,32.15,0,0,0,5.5.66,31.71,31.71,0,0,0,1.23,8.69,5,5,0,0,0-1.85,3.7,2.19,2.19,0,0,1-.6,1.67c-1.21-.11-2.09-1.12-3.31-1.23a5.28,5.28,0,0,1-2.05-1.31c-1-.84-1.64-.79-1.89.67a16.8,16.8,0,0,1-1,4.37,4.39,4.39,0,0,0-.42,2.41q0,3.62,0,7.23c0,.25.09.59-.24.7s-.5-.15-.69-.33c-.4-.38-.78-.78-1.17-1.16-1.59-1.53-2.07-1.54-4-.54a43.68,43.68,0,0,0-4,2.85c-.74.5-1.45,1-2.16,1.58a6.85,6.85,0,0,1-10.89-4.24A13.79,13.79,0,0,0,89.71,348c-1.61-1.75-2.7-3.79-2-6.37a10.24,10.24,0,0,0,.09-2.47c0-.69.28-1.1,1-.72,3.47,1.77,6.83,3.62,7.87,7.87A8.24,8.24,0,0,0,98.33,350a3.45,3.45,0,0,0,5.88-1,21.61,21.61,0,0,0,1.33-6.22c.14-1.5.45-3,.58-4.48.08-1,.17-1.77-.71-2.33s-1.86-1.48-3.18-.89a6.54,6.54,0,0,1-3,.45c-1.78-.08-2.48-.91-2.22-2.65a3.89,3.89,0,0,1,.23-.79Q98.49,328.69,99.81,325.24Z" transform="translate(-2.64 -2.7)"/><path class="cls-9" d="M96.61,394.71c-4.47-.36-8.86-1-12.72-3.58-3.26-2.18-3.58-5.31-1.8-8.62a28,28,0,0,1,2.44-3.31c.37-.49.77-1,1.1-1.49.84-1.34.66-2.26-.76-2.77-4-1.44-7.18-4-10.36-6.62a2.63,2.63,0,0,1-1.16-1.86c-.13-1.62.15-1.9,1.71-2.46,2.23-.8,4,.34,5.93,1.06,2.5,1,5,2,7.43,3.06a11.22,11.22,0,0,0,7.43.27,15,15,0,0,1,4.69-.55,2.44,2.44,0,0,1,2.6,2.56c.18,2.71-.51,5.32-1,7.95-.59,3.46-1.11,6.9-.35,10.41a11.91,11.91,0,0,1,.06,2.68,3.12,3.12,0,0,1-3,3.26C98.13,394.76,97.36,394.71,96.61,394.71Z" transform="translate(-2.64 -2.7)"/><path class="cls-9" d="M415.32,294.63a28.72,28.72,0,0,1,.83-7c3.27-1.72,6.57-3.39,9.81-5.18.83-.46,1.31-.69,2.08.15s2.07.52,3.13.32a.6.6,0,0,0,.28-1c-1.73-2.24-1.18-4.86-1.22-7.36,0-1.28.14-1.35,1.3-1,2.66.78,4.86,2,6,4.84.81,2.1,1.85,4.13,2.66,6.24a4.09,4.09,0,0,0,1,1.76c.44.37.73,1.21,1.45.89a2,2,0,0,0,1.21-1.78c0-.62,0-1.24,0-1.86a3.8,3.8,0,0,1,4.2-3.84,55.62,55.62,0,0,1,9.66.42,9.44,9.44,0,0,1,1,.2c2.28.65,2.54,1.55.84,3.27a96.3,96.3,0,0,1-9.25,8.81,17,17,0,0,1-13.69,3.62,78.68,78.68,0,0,1-11-2.71,6.73,6.73,0,0,0-6.57,1.21,10.31,10.31,0,0,1-2.36,1.64c-1.18.48-1.25.47-1.39-.78C415.3,295.18,415.32,294.91,415.32,294.63Z" transform="translate(-2.64 -2.7)"/><path class="cls-10" d="M51.84,262.39a4.38,4.38,0,0,0-1.62.2c-1.26.51-2,1.29-1.63,2.51.76,2.66-.58,4.63-1.8,6.69-.1.18-.22.35-.33.52-2.31.25-4.33-1.22-6.62-1.08a4.85,4.85,0,0,1-.82-.11c-2-.22-2.08-.06-1.64,2,.27,1.22,1.17,2.4.39,3.74-2.91-.34-5.74-1.22-8.69-1.24a4.45,4.45,0,0,0,0-1.44c-1.07-2.91.37-5.38,1.42-7.88.82-2,1.91-3.82,2.82-5.75a3.82,3.82,0,0,1,1.85-1.84c.92-.47,1.68-.54,2.38.32a2.76,2.76,0,0,0,.45.43c1.82,1.43,3,1.06,3.52-1.21,1.4-5.94,2.75-11.9,4.15-17.84,1.21-5.13,2.54-6.25,7.85-6.1a50.88,50.88,0,0,0,12.42-1.51,7.63,7.63,0,0,1,1.63-.18,5,5,0,0,1-2.09,5.48A10.46,10.46,0,0,1,58,239.65c-2.08-.65-4.22-.36-6.34-.4-.64,0-1.12.22-1,1C52.39,247.55,51.7,255,51.84,262.39Z" transform="translate(-2.64 -2.7)"/><path class="cls-11" d="M288.8,473.71c2-5.71,3.66-11.53,5.35-17.34a21.09,21.09,0,0,1,.93-2.73,7.53,7.53,0,0,0,.75-3.39,2.78,2.78,0,0,0-1.69-2.81c-1.14-.46-1.25-1.16-.89-2.3,1.31-4.07,1.36-4.16,5.61-4.11,2.8,0,4.34,1.53,4.83,4.33s0,5.47-.13,8.18c-.16,3-.3,6-.31,9,0,.9-.05,1.8,0,2.69.09,1.21-.61,2.88.39,3.53,1.36.88,3.2.35,4.84.26.75,0,.85-.73,1-1.37a34.8,34.8,0,0,1,2.43-8.07c.08-.16.21-.39.35-.42s.36.19.41.39c1.16,4.39,4.13,7.69,6.73,11.21.26,2.47-.55,4.76-1.28,7-.47,1.47-1.59,1-2.45.24a35.86,35.86,0,0,1-5.41-5.93,6.09,6.09,0,0,0-6.63-1.68,2.62,2.62,0,0,0-1.15,1.41c-.43.94-.77,1.91-1.18,2.86-1.36,3.17-3.48,5.26-7.22,5a5,5,0,0,1-2.25-.31A13.1,13.1,0,0,1,288.8,473.71Z" transform="translate(-2.64 -2.7)"/><path class="cls-10" d="M30.72,160.62c0,1.17,0,2.34,0,3.51a5.88,5.88,0,0,1-1.58,4.12,17,17,0,0,0-3.45,8.87c-.56,4.31,0,8.65-.57,12.94a2.28,2.28,0,0,0,1.16,2.25c5,3.39,5.9,8.44,5.11,13.85-1,6.77-2.37,13.48-3.6,20.21a55.47,55.47,0,0,0-1.22,7.49h-7c-.79-1-.15-1.83.25-2.67,1.12-2.35,2.31-4.68,3.48-7s1.53-4.57-.73-6.52c-.49-.42-.56-1.09-.92-1.59a30.73,30.73,0,0,1-1.61-12.56c.21-2.51.56-5.05.64-7.55.15-4.35.9-8.8-.91-13a5.43,5.43,0,0,1-.22-1.21A47.3,47.3,0,0,1,20.9,174a4.3,4.3,0,0,1,1-1.75c3-3.39,5.41-7.26,8.08-10.92A7.26,7.26,0,0,1,30.72,160.62Z" transform="translate(-2.64 -2.7)"/><path class="cls-11" d="M296.24,411.31c0-2.48,0-5,0-7.44s.75-3,3.16-3a7.2,7.2,0,0,1,2.77.73c.84.37,1,.09,1.13-.74a38.79,38.79,0,0,1,.9-5.47c.09-.31.18-.73.57-.76s.5.4.66.7a4.38,4.38,0,0,1,.72,2.33c-.11,2.17,1.09,3.62,2.74,4.78,1,.67,2,1.19,2.94,1.9a11.88,11.88,0,0,1,2.92,3.71q1.86,3.21,3.58,6.5c.57,1.09.4,1.38-.87,1.19a30.22,30.22,0,0,0-5.54-.38c-1.59,0-1.6.06-1.31,1.64.36,2,.71,3.91,1.14,5.86a11.59,11.59,0,0,1,.13,3.7c-.23,2.24-3,4.1-5.44,3.64a15.48,15.48,0,0,1-9-5.12,4.07,4.07,0,0,1-.87-2.26,81.69,81.69,0,0,1-.39-10.91Q296.24,411.62,296.24,411.31Z" transform="translate(-2.64 -2.7)"/><path class="cls-10" d="M215.19,35.78a37.92,37.92,0,0,0-7.87-2.89,21.05,21.05,0,0,0-6.81-1.32c-1.44,0-2.57.86-3.93.91a9.16,9.16,0,0,1-3.63-2.61,6.09,6.09,0,0,1,.34-8.16c1,.1,1.76,1,2.86.8a2.15,2.15,0,0,0,0,2c.63,1.75,1.33,3.47,1.87,5.25.34,1.11.92,1.64,2.08,1.51a2.44,2.44,0,0,1,.62,0,2.39,2.39,0,0,0,3-1.75c1.52-3.79,4.83-5.34,8.56-6a92.49,92.49,0,0,0,13.11-3.57l.78-.27c3.78-1.22,3.79-1.24,6.93,1.19,4.88,3.78,9.74,7.6,14.63,11.36a2.44,2.44,0,0,1,1,2.34,10.18,10.18,0,0,1-8,.53,2.79,2.79,0,0,1-2.07-3.17c0-.21,0-.41,0-.62.16-3.16-1-4.18-4-3.07-4.25,1.6-8.6,3-12.58,5.22-1.44.82-2.93,1.54-4.43,2.24C216.89,36,216.05,36.52,215.19,35.78Z" transform="translate(-2.64 -2.7)"/><path class="cls-10" d="M167.61,151.56c0,.23.18.74,0,.65-3-1.41-5.91-.22-8.85.17a4.82,4.82,0,0,1-.62,0,3.79,3.79,0,0,1,.48-.67c.75-.68.55-1.09-.29-1.51-2.82-1.43-5.5-3.11-8.41-4.34-.9-.38-.83-.74-.27-1.32a28,28,0,0,1,4.45-3.64,3.54,3.54,0,0,0,1.73-2.37c.74-3.67,3-6.34,5.85-8.67,3-2.45,6.24-4.79,7.87-8.56.31-.72.82-.75,1.52-.53,2.7.83,5.28,2,7.91,3,1.13.44,1.67,1.63,2.72,2.17.06,1.27-1.11,1.59-1.79,2.27-1.69,1.65-3.88,2.75-5.23,4.77-.82.77-2,.23-2.9.8-1.91,1.19-3.93,2.21-5.84,3.39-1.4.87-1.61,2.33-.35,3.39a4.79,4.79,0,0,1,1.67,4.35c-.09,1.64,0,3.28,0,4.92C167.23,150.43,167.1,151.07,167.61,151.56Z" transform="translate(-2.64 -2.7)"/><path class="cls-10" d="M174.49,55.18a4.4,4.4,0,0,0-3.77,2,6.37,6.37,0,0,1-1.1,1.48,3.11,3.11,0,0,1-3.92.18c-1.07-.74-2.09-1.55-3.12-2.34-.55-.42-.63-.85-.09-1.35s.76-.8,1.17-1.16c2.42-2.15,4.24-4.87,6.63-7,.73-.67.53-1.12-.28-1.54-1-.5-1.88-1.14-2.87-1.61a4,4,0,0,1-2.36-3.59c-.08-1.72,1.13-2.75,2.43-3.57a17.71,17.71,0,0,1,2.65-1.13,1.81,1.81,0,0,1,1.56.28,21.68,21.68,0,0,0,7.19,2.33,24,24,0,0,1,4.48.51c.46.14,1.05.06,1.26.55.87,2,2.7,2.85,4.31,4,.71.49.85.82,0,1.32a16.64,16.64,0,0,1-1.66,1.2,6.16,6.16,0,0,0-3.12,3.92,38,38,0,0,1-2.1,4.48c-1,1.88-1.58,2.1-3.63,1.7C177,55.55,175.77,55.39,174.49,55.18Z" transform="translate(-2.64 -2.7)"/><path class="cls-3" d="M170.12,375.71l2.07,0c4,.38,8.09.1,12.14.15a3.7,3.7,0,0,1,3.15,1.14,3.19,3.19,0,0,0,2.25.87c2.86.32,5.55.85,7.14,3.75.68,1.24,1.57.35,2.07-.39a5.93,5.93,0,0,0,.85-3.56c0-1.26.45-2,1.83-1.8,1.22.13,2.46-.19,3.67.2l14.44,0a1.63,1.63,0,0,1-.81.82c-3.27.66-6.57.21-9.85.31-3,.09-3.1.12-3.05,3.14,0,1.06.51,2.19-.36,3.16-.31-.13-.68-.35-.94,0-2.08,2.71-4.55,5.15-6.07,8.27a8.23,8.23,0,0,1-1.69,2.31c-1.84,1.79-2.45,1.64-4.37.58a55.81,55.81,0,0,1-5.16-3.3,10,10,0,0,1-4.08-8,14.77,14.77,0,0,0-.33-2.85c-.22-.88-.48-1.23-1.36-.75-2.51,1.38-5.3,1.34-8,1.3C170.6,381.09,169.11,378.65,170.12,375.71Z" transform="translate(-2.64 -2.7)"/><path class="cls-9" d="M99.38,448.5c-1.79-.67-2.89-2.24-4.31-3.39-3.24-2.62-6.34-5.42-9.45-8.19-1.69-1.5-3.3-3.08-5-4.59-3.46-3.11-6.79-6.38-10.11-9.65-.83-.81-2-1.21-2.56-2.33a17.06,17.06,0,0,0,3.83-.66,7.43,7.43,0,0,1,8,3.24,5.07,5.07,0,0,0,3,2.31,13.1,13.1,0,0,0,6.24.64,7.33,7.33,0,0,1,7.77,3.07c.89,1.22,1.74,2.46,2.6,3.7a6.84,6.84,0,0,1,1.17,3.26,2.3,2.3,0,0,1-1.08,2.44c-2,1.34-2.83,3.29-1.56,6.11A10.79,10.79,0,0,1,99.38,448.5Z" transform="translate(-2.64 -2.7)"/><path class="cls-2" d="M294.16,479.08c3.35.2,4.8-.88,6.55-4.54.56-1.18,1-2.42,1.47-3.63a2,2,0,0,1,2.05-1.37c4.85-.2,4.84-.22,7.71,3.72a43.68,43.68,0,0,0,4.57,4.76c.63.64,1,.46,1.2-.49.53-2.25.69-4.6,1.68-6.73h1.23a3.08,3.08,0,0,1,1.21,2.07c.72,2.44,1.4,4.89,2.11,7.33-.08,1.35,1,2.29,1.22,3.55a40.52,40.52,0,0,1-5.86,1.56c-2-.15-3.06-1.9-4.57-2.88-1-.65-1.8-.93-2.59.25-.89,1.34-.67,1.94,1,2.51.43.15,1,.19.88.88h-21.5a.59.59,0,0,1,.35-.66c2.24-1.16,2.22-1.15,1.7-3.72C294.39,480.82,293.87,480,294.16,479.08Z" transform="translate(-2.64 -2.7)"/><path class="cls-11" d="M205.22,484.5a111.17,111.17,0,0,1-12.38-4.17,6.68,6.68,0,0,1,0-6.63,4.92,4.92,0,0,0-3-4.1,47.45,47.45,0,0,1-5-2.88,3.21,3.21,0,0,1-1.52-3.84c.17-.67.62-.46.94-.26a10.8,10.8,0,0,0,3.13.94c.76.2,1.05,0,1.34-.75.64-1.74-.2-3.37-.2-5.06a3.94,3.94,0,0,0-.22-.79c-.4-1.74-.32-1.81,1.49-1.31,4.48,1.24,6.61,4,6.73,8.86,0,1.37,0,2.75,0,4.12.07,1.85.77,2.32,2.5,1.67a6.29,6.29,0,0,0,2.33-1.28c.77-.77,1.13-.35,1.5.4a54.8,54.8,0,0,1,3.86,8.64A6.8,6.8,0,0,1,205.22,484.5Z" transform="translate(-2.64 -2.7)"/><path class="cls-9" d="M157.29,472l-18.89-5.69c-3.48-1.05-7-2.08-10.41-3.2A105.94,105.94,0,0,1,117.25,459a14.82,14.82,0,0,1-3.38-1.45c4.11-1.16,8.1-2.68,12.07-4.23a2.94,2.94,0,0,1,3.76.75c2.61,2.69,6.07,3.95,9.55,5.08,1,.32,2,.58,3,.88a3.08,3.08,0,0,1,2,1.4,2.84,2.84,0,0,0,3.53,1.34,6.09,6.09,0,0,1,6.15,2.69C155.26,467.55,155.73,470.08,157.29,472Z" transform="translate(-2.64 -2.7)"/><path class="cls-12" d="M57.66,138.72c.11,1.2-.34,1.77-1.64,1.72a8.41,8.41,0,0,0-2.42.44,2.54,2.54,0,0,0-2.15,2.65,4.78,4.78,0,0,0,.19,2.25c.8,1.85-.69,4.3-2.14,5.4a1.55,1.55,0,0,1-.74.34c-2.33.21-4.57.93-6.87,1.26a5.19,5.19,0,0,1-5.77-2.87,36.2,36.2,0,0,1,7.42-10.53c3.88-3.78,7.55-7.78,11.32-11.67.48-.49,1-.94,1.5-1.41,2.23,1.33,3,3.07,2.32,5.76C58.17,134.24,57.36,136.4,57.66,138.72Z" transform="translate(-2.64 -2.7)"/><path class="cls-10" d="M340.9,410.42c-2.49-.24-4.92.36-7.39.46-1.88.08-2.33.55-2.72,2.43a43.16,43.16,0,0,0-.56,6.13,68.75,68.75,0,0,0-.54,7.39c0,1.17-.69,1.7-1.84,1.78a1.62,1.62,0,0,1-1.68-.9c-2-3.5-4.15-7-6.22-10.46-.36-.6-.35-1,.53-1.06a6,6,0,0,0,1.42-.22,4.08,4.08,0,0,0,3.19-5.14,9.61,9.61,0,0,1-.3-2.65,3.07,3.07,0,0,1,3.53-3.12c1.7.17,3.36.63,5,1a9.14,9.14,0,0,0,1,.22,2.76,2.76,0,0,0,3.16-3.61,7.77,7.77,0,0,0-.54-1.34c-.25-.58-.23-1.17.35-1.44,2.4-1.11,4.51-3,7.44-2.7a12.15,12.15,0,0,1,2,.37c1.42.4,2,1.29,1.42,2.54s-1,2.61-2.34,3.31c-3,.63-4.54,2.37-4.44,5.49A2.43,2.43,0,0,1,340.9,410.42Z" transform="translate(-2.64 -2.7)"/><path class="cls-3" d="M349.18,460.48a19.26,19.26,0,0,0,1.65-7.8,1.64,1.64,0,0,1,0-.41c.2-.86.15-1.95,1-2.34s1.78.41,2.48,1.07c.45.42.89.86,1.32,1.31a3.16,3.16,0,0,0,3.47.54c1-.32,1.12-1.43,1.19-2.43.18-2.92-.65-5.71-1-8.55-.3-2.1-.68-4.19-1-6.28s1-3.18,2.21-4.4a.62.62,0,0,1,.74-.13c1.2.52,2.35,2.45,2,3.7-1,3.07.12,5.66,1.7,8.17.73,1.16,1.59,2.26,2.21,3.48a2.13,2.13,0,0,0,2.33,1.28c-2.09,1.92-2.62,4.69-3.83,7.09-.78,1-2,1.38-3,2-4.18,1.7-6.67,4.69-7.16,9.24a10.22,10.22,0,0,0-.14,4,1.42,1.42,0,0,1-.21.62c-2.1,1.39-4.49,1.55-6.89,1.64-1-.7-.38-1.45,0-2.14a19.11,19.11,0,0,1,2.23-2.93c1.62-2.07,1.58-3.07-.13-5C349.78,461.67,349.21,461.24,349.18,460.48Z" transform="translate(-2.64 -2.7)"/><path class="cls-12" d="M349.18,460.48c.37.3.75.59,1.11.9,2.74,2.4,2.6,3.88.12,6.72a9.65,9.65,0,0,0-2.49,3.93c-.82,1.29-2.33,1.5-3.51,2.23a7.69,7.69,0,0,0-1.87,1.17c-1.58,1.81-3,3.72-4.61,5.54-1.27,1.47-2.61,2.86-4.77,2.86a51.36,51.36,0,0,0-6.28.18,1.6,1.6,0,0,1-1.68-.41c-2-.35-1.66-1.9-1.66-3.27,1.3-3,3.31-4.27,6.35-4.06,2.39.17,3.18-.39,3.86-2.76a24,24,0,0,1,1-3.16,3.83,3.83,0,0,1,3.4-2.63c2-.09,2.8-1.17,3-3a3.13,3.13,0,0,1,1.06-2.58h.41c.23-.24.61-.14.85-.38,1.7,0,3.24-.91,4.94-.86.23-.23.62-.14.84-.39Z" transform="translate(-2.64 -2.7)"/><path class="cls-2" d="M472.8,292.59q0-6,0-12.1a4.36,4.36,0,0,1,.42-2.39,2.79,2.79,0,0,1,2.19-1.34c2.16-.41,4.11-1.92,6.48-1.31.71,1-.08,1.83-.52,2.63a10.83,10.83,0,0,0-1.6,3.77c-.24,2,.61,2.74,2.51,2.09,1-.34,1.9-.81,2.91-1.06,2.47-.6,3.88.92,3.59,3.44-.32,2.74-1.42,5.49-.27,8.29-.06,1.55-.83,2.89-1.24,4.34-.06.2-.16.39-.41.38s-.33-.2-.4-.39c-.58-1.61-1.15-3.23-1.87-4.8a5.45,5.45,0,0,0-3.17-3q-1.93-.72-3.87-1.41c-.65-.23-1.07-.11-1,.71.1,2.56.36,5.05,1.88,7.26s1.21,3.55-.74,5.15c-.41.34-.81.56-1.26.14-.86-.79-1.9-1.49-2.18-2.69A42.36,42.36,0,0,1,472.8,292.59Z" transform="translate(-2.64 -2.7)"/><path class="cls-2" d="M58,239.65a20.35,20.35,0,0,1,4.6-1,6.79,6.79,0,0,0,4.93-6,3.65,3.65,0,0,0,.68-2.5c.22-3.32,1-6.58,1-9.91a2.8,2.8,0,0,1,3.4-2.29,1.31,1.31,0,0,0,1.14-.19c1.62-.29,3.24-.57,4.85-.88s2.9,1,4.36,1.53c.35.12.23.6.09.93-.78,1.78-1.56,3.43-3.79,4-4.64,1.15-7,5.09-7.16,9.9-.06,2.48,0,5,0,7.44a12.4,12.4,0,0,1,0,1.45,2.53,2.53,0,0,1-2.87,2.54,5.79,5.79,0,0,1-2-.34c-2.66-.95-5.3-1.92-8-2.78A1.53,1.53,0,0,1,58,239.65Z" transform="translate(-2.64 -2.7)"/><path class="cls-2" d="M99.42,232.66c1.66.54,2.9,1.85,4.53,2.45a1.53,1.53,0,0,1,.09,1.51c-.37.85-.62,1.75-.92,2.63-.14.13-.27.28-.4.42h0a2.41,2.41,0,0,1-.24.33c-3.68,3.12-7,6.5-8.47,11.29a.6.6,0,0,1-.82.39c-1.1-.59-1.54-1.74-2.16-2.7a28.5,28.5,0,0,1-4.33-10.39,6.78,6.78,0,0,1,.57-4.22,43.28,43.28,0,0,1,3.11-4.85.83.83,0,0,1,1.07-.4c1.56.77,3.43,1.17,3.64,3.47.08.81.15,1.63.2,2.45,0,.61.33.7.77.33A28.78,28.78,0,0,0,99.42,232.66Z" transform="translate(-2.64 -2.7)"/><path class="cls-12" d="M365.29,454.68c.27-2.18,1.53-4,2.26-6,.3-.84,1.4-.38,1.88-1a6.08,6.08,0,0,0,4.13-1.59,4.51,4.51,0,0,0,1.45-5,14.07,14.07,0,0,1-.64-4.65,5.27,5.27,0,0,1,2.84-4.66,27.89,27.89,0,0,1,6.36-2.24c.52-.14,1-.31,1.57-.46a16.41,16.41,0,0,1,4.14,2.9c.3,1.05-.48,1.68-1,2.34-4.76,6-9.52,12-14.39,17.83-1.88,2.27-4,3.73-7.11,3.17C366.23,455.18,365.66,455.18,365.29,454.68Z" transform="translate(-2.64 -2.7)"/><path class="cls-11" d="M235.86,480.31H235c-.82.83-1.79.45-2.73.32a12.11,12.11,0,0,0-3.06-.33c-1.71-3-6.23-4.77-9.17-3.65a6.79,6.79,0,0,0-2.31,1.68c-.59.58-1.29,1.29-2.13,1s-.81-1.45-.87-2.34a4.41,4.41,0,0,1,1-3.08c3.13-4,7.16-6.1,12.36-5.45.4.05.78.28,1.14-.09a1.64,1.64,0,0,1,2-.88c1.78,0,3,1.32,4.4,2.06a23.51,23.51,0,0,1,5.58,3.76v0c-3.26.72-5,2.64-4.93,6.09A1.66,1.66,0,0,1,235.86,480.31Z" transform="translate(-2.64 -2.7)"/><path class="cls-10" d="M388,349.23q0,3.31,0,6.62c-2,2.73-3.77,3.69-7.29.39a2.93,2.93,0,0,1-1-3.24,17.34,17.34,0,0,0,.84-4.85c0-1.4-.18-1.47-1.38-.74a12.32,12.32,0,0,0-3.24,2.52,41.59,41.59,0,0,1-3.26,2.83c-.41.4-.65.33-.86-.23a37.69,37.69,0,0,1-2-7.14c-.37-2.4,2-5.13,4.67-5.22a12.54,12.54,0,0,1,9.09,3.19A18.06,18.06,0,0,1,388,349.23Z" transform="translate(-2.64 -2.7)"/><path class="cls-3" d="M269.61,422.42c-.27,0-.55,0-.82,0-1-.08-2.16.38-2.74-.87s-1.19-2.59-.43-4.12a80.15,80.15,0,0,1,4.83-8.38c1.18-1.8,2.42-1.86,4.14-.65a12,12,0,0,1,4.23,5.67c.92,2.3,2.38,3.81,5,3.83.94,0,1.27.74,1.5,1.47s-.3,1.28-.89,1.67a3.16,3.16,0,0,1-1.74.56c-1.44,0-2.87.25-4.29.31Q274,422.11,269.61,422.42Z" transform="translate(-2.64 -2.7)"/><path class="cls-9" d="M491,307.06c0,3.83-.43,7.63-.74,11.43-.2,2.44-.31,4.9-.52,7.35-.22,2.65-.54,5.29-.68,7.94a4.21,4.21,0,0,1-2.2,3.46c-.57-.49-1.11-1-1.7-1.48-3.11-2.43-2.7-4.72-1.67-7.48.26-.7.71-1.34,1-2a4.08,4.08,0,0,0-.14-3.75c-1.74-2.82-1.45-5.75-.42-8.7.41-1.16.86-2.3,1.29-3.46-.08-.35.06-.49.41-.4a3.11,3.11,0,0,1,2.62-2.17C489.18,307.61,490.09,307.3,491,307.06Z" transform="translate(-2.64 -2.7)"/><path class="cls-4" d="M21.66,216.07c.46.4,1,.77,1.39,1.19,2.24,2.21,2.51,3.62,1.11,6.58-1.23,2.59-2.55,5.14-3.83,7.7a4.32,4.32,0,0,0-.74,2.3c-1.21.47-2.44.91-3.64,1.4-.89.36-1.5.15-1.69-.82a15.61,15.61,0,0,1-.48-2.63c0-1.44-.28-1.59-1.75-1.68-.27,0-.55,0-.83,0-2-.08-2.76-1.23-1.82-3a16.57,16.57,0,0,1,4.27-5.23c2.31-1.84,4.54-3.77,7.32-4.9A1.08,1.08,0,0,0,21.66,216.07Z" transform="translate(-2.64 -2.7)"/><path class="cls-11" d="M342.14,462.12c-.08,1.16-.34,2.29-.5,3.43-.23,1.67-1.08,3-3.14,2.77-1.75-.18-2.68.81-3.24,2.26a29.73,29.73,0,0,0-.91,3.15c-.76,2.93-2,3.88-4.87,3.15a3.2,3.2,0,0,0-3.55,1.2,11.37,11.37,0,0,1-2.4,2.23c-1-1.24-.95-2.81-1.44-4.21-.61-1.73-1-3.53-1.46-5.31l1.11-.54a3.15,3.15,0,0,1,4.35.76c2,2.22,3.88,1.94,5.5-.6,1-1.61,2.17-3.14,3.19-4.72a8.93,8.93,0,0,0,.9-6.95c-.11-.47-.34-.91-.44-1.37s-.52-.95,0-1.32.91-.1,1.39,0a5.61,5.61,0,0,1,3.35,2.57C340.74,459.74,341.41,461,342.14,462.12Z" transform="translate(-2.64 -2.7)"/><path class="cls-9" d="M143.14,404.27a23.36,23.36,0,0,1-1.41,3.77,32.82,32.82,0,0,1-6.44,8.48,35,35,0,0,1-4.66,3,.6.6,0,0,1-1-.32q-1.23-2.83-2.41-5.68c-.25-.61.14-1.05.49-1.48,1.53-1.93,3.09-3.83,4.6-5.78a51.15,51.15,0,0,1,4-4.42,2.46,2.46,0,0,1,2.79-.7,16.83,16.83,0,0,1,3.43,1.85A1.24,1.24,0,0,1,143.14,404.27Z" transform="translate(-2.64 -2.7)"/><path class="cls-10" d="M84.09,267.26c.19,4.37-1,8.11-1.82,11.92a1.91,1.91,0,0,1-3.33.89c-2.1-2.33-4.34-4.58-5.8-7.41a9.24,9.24,0,0,1-.47-1.36.8.8,0,0,1,.37-1.06c3.78-1.94,4.84-5.55,5.73-9.28a9.68,9.68,0,0,1,.74-2.13c.75-1.48,1.7-1.58,2.89-.45a3.87,3.87,0,0,1,1.25,2.74C83.68,263.32,84.49,265.45,84.09,267.26Z" transform="translate(-2.64 -2.7)"/><path class="cls-10" d="M40.69,215.25A20.15,20.15,0,0,1,44,204.63a53.37,53.37,0,0,1,5.33-6.75c1.62,0,3.25,0,4.87,0,1.22,0,1.42.3,1.14,1.5a7.78,7.78,0,0,0-.24,1.8c-1.3,1.48-1.3,1.91,0,2.47a8,8,0,0,1,1,2.68,1.81,1.81,0,0,1-1.34,2.34,7.81,7.81,0,0,1-2.2.4A1.58,1.58,0,0,0,51,210.84c0,1.19.42,2.46-.38,3.58-.85-.75-.52-1.77-.65-2.69-.06-.45.08-1-.53-1.21s-.89.28-1.2.64a18.72,18.72,0,0,0-1.62,2.37c-.39.63-.62,1.39-1.39,1.72Z" transform="translate(-2.64 -2.7)"/><path class="cls-3" d="M122.52,262.38a3,3,0,0,0,1.08,2.53c.92.82,1.78,1.71,2.63,2.61,1.88,2,1.75,3.33-.46,4.84a26,26,0,0,1-2.78,1.74,2.7,2.7,0,0,0-1.65,3.17,2.25,2.25,0,0,0-2.16,0,6.66,6.66,0,0,1-2.82.47,3.62,3.62,0,0,1-3.59-4.74,15.72,15.72,0,0,1,2.35-5A14.17,14.17,0,0,1,122.52,262.38Z" transform="translate(-2.64 -2.7)"/><path class="cls-8" d="M488.51,294.63a4.67,4.67,0,0,1-.91-4.59,25.85,25.85,0,0,0,.75-3.81c.34-2.25-1-3.39-3.18-2.67-1,.35-2,.83-3,1.24-1.85.76-3.1-.07-3.13-2.07a7,7,0,0,1,1.15-3.88,16.59,16.59,0,0,0,1.77-3.21c0-2.23.09-4.45.1-6.67a2.38,2.38,0,0,1,.71-2c2,.14,3.83.92,5.76,1.27,0,.82,0,1.64,0,2.46a16.15,16.15,0,0,0,.79,6.46,3.76,3.76,0,0,1,.42,2.19c-.51,2.16-.27,4.36-.46,6.53Q488.88,290.25,488.51,294.63Z" transform="translate(-2.64 -2.7)"/><path class="cls-11" d="M435.58,346.36c1.84.91,2.64-.74,3.61-1.91a23,23,0,0,0,2.23-3.93c.38-.71.81-.86,1.37-.1.9,1.21,1.84,2.38,2.79,3.55a3.33,3.33,0,0,1,.61,3.08c-.81,3.5-2.41,6.71-3.64,10-.28.76-.77.86-1.44.37a31.27,31.27,0,0,1-7.69-7.34l-.12-.17c-.51-.86-.94-1.79-.32-2.7A2.7,2.7,0,0,1,435.58,346.36Z" transform="translate(-2.64 -2.7)"/><path class="cls-2" d="M370,373.69a1.26,1.26,0,0,1,1.07.51,55.38,55.38,0,0,1,4.25,4.47c1.11,1.48,2.47,2.75,3.64,4.18q3,3.66,6.23,7.1c1.39,1.47,1.14,2.9.42,4.5-.31.69-.75.76-1.29.38a24.36,24.36,0,0,1-3.17-2.28c-2.2-2.15-4.16-4.58-7.06-5.91a2.52,2.52,0,0,1-1-1.26,93.49,93.49,0,0,1-4-9.67C368.58,374.67,369.08,373.77,370,373.69Z" transform="translate(-2.64 -2.7)"/><path class="cls-11" d="M88.65,317.81c-.49,1.13-1,2.23-1.45,3.39-.87,2.49.66,4.41,3.27,4.23,1-.07,1.33-.86,1.9-1.42.19,1.46-.81,2.4-1.52,3.47-.3.45-.66.41-1.06.2-1.26-.68-2.61-1.27-3.18-2.75a3.1,3.1,0,0,0-.31-.53c-1.57-2.44-3.25-2.55-4.93-.19A6,6,0,0,1,79,326.13a1.78,1.78,0,0,1-1.94-.05,8.13,8.13,0,0,1-2.57-2.62,1.37,1.37,0,0,1-.09-1.54,48.93,48.93,0,0,1,3.26-5.22c1.95-2.39,3.68-3.09,6.64-1.69C85.93,315.75,87.18,316.94,88.65,317.81Z" transform="translate(-2.64 -2.7)"/><path class="cls-13" d="M205.67,383.56a23.49,23.49,0,0,1-.41-5.73c0-.82.29-1.31,1.19-1.3,3.92,0,7.84,0,11.77,0,.24,0,.47.24.71.37a79.35,79.35,0,0,1-6.87,9.42,20.14,20.14,0,0,1-3.84,3c-.46.35-.76.12-.9-.36A34.9,34.9,0,0,1,205.67,383.56Z" transform="translate(-2.64 -2.7)"/><path class="cls-2" d="M485.61,309.94l-.41.4c-2.19.69-3.91,2.23-5.91,3.28a36,36,0,0,0-4.79,3.18,3.11,3.11,0,0,1-3.3.31c-1.83-.8-2-1.4-1.73-3.51a5.36,5.36,0,0,1,3.79-4.81c3.22-1.21,6.47-2.27,9.73-3.31,1-.32,1.52-.14,1.82.9S485.87,308.63,485.61,309.94Z" transform="translate(-2.64 -2.7)"/><path class="cls-9" d="M192.85,473.7q0,3.32,0,6.63c-2.63.09-5.17-.6-7.75-.9-3.6-.41-7.18-1.06-10.76-1.6a1.42,1.42,0,0,1-.91-.41,2,2,0,0,0,1.6-1.14,6.89,6.89,0,0,1,6-3.34c3.54-.12,7.12-.41,10.64.37A11,11,0,0,1,192.85,473.7Z" transform="translate(-2.64 -2.7)"/><path class="cls-14" d="M98.16,280.18a24.47,24.47,0,0,1,.87-6.84,6.53,6.53,0,0,1,2.18-3.88,8,8,0,0,0,2.41-3.77,22.78,22.78,0,0,1,2.83-5,1.16,1.16,0,0,1,1.57-.46,31.91,31.91,0,0,1,4.24,2.08c.73.36.74.74.38,1.27-.51.73-1.07,1.42-1.65,2.1-1.29,1.51-2.45,3.13-3.88,4.53a2.68,2.68,0,0,1-2.92,1c-.75-.23-1.67-.3-2,.85-.63,2.32-1.36,4.6-1.94,6.93s0,4.74.6,7c.07.26.26.59,0,.77s-.58-.14-.82-.34a4.58,4.58,0,0,1-1.92-4.31A17.63,17.63,0,0,0,98.16,280.18Z" transform="translate(-2.64 -2.7)"/><path class="cls-8" d="M294.16,479.08c.33.41.81.7.85,1.34s.31,1.06.31,1.59c0,1.09.9,2.16.34,3.17s-1.91.22-2.81.66a2.86,2.86,0,0,0-.34.23l-12.36.5c-2.94-1.52-2.93-1.51-.9-4,.47-.57.85-1.22,1.27-1.84a3.6,3.6,0,0,0,2.05-.44c2.94-1.14,5.92-1.94,9.11-1.23Z" transform="translate(-2.64 -2.7)"/><path class="cls-3" d="M93.18,251.65c.78-.91.88-2.12,1.35-3.18a18.24,18.24,0,0,1,8.18-8.83,8.14,8.14,0,0,1-.85,2.94c-.78,2-.59,2.73,1,4.05,1.88,1.58,2,2.75.58,4.75-.92,1.26-2.08,2.32-2.54,3.92-.25.87-2.29,1.2-3.33.54C95.83,254.75,94,253.67,93.18,251.65Z" transform="translate(-2.64 -2.7)"/><path class="cls-3" d="M68,209.46a10.48,10.48,0,0,1-3.87-.39,2.68,2.68,0,0,1-1.82-3.42c.58-2.6,4.16-5.76,6.77-6a3.81,3.81,0,0,1,4,5.44c-.26.63-.61,1.23-.91,1.85C70.94,208.15,69.89,209.53,68,209.46Z" transform="translate(-2.64 -2.7)"/><path class="cls-3" d="M174.67,133c-.27,0-.6,0-.78-.14-.34-.28,0-.45.22-.61l7.58-6.29,5.87-4.84c.31-.25.57-.76,1-.56s.49.66.52,1.07c.34,3.82-1,7.5-5,9.3A22.23,22.23,0,0,1,174.67,133Z" transform="translate(-2.64 -2.7)"/><path class="cls-3" d="M422.36,308.67q0,4.85,0,9.7c0,.2,0,.52-.11.56-.35.16-.44-.21-.57-.42-1.11-1.81-2.25-3.61-3.32-5.45-1.66-2.89-2.21-5.93-.66-9a30.57,30.57,0,0,1,4-5.72c.12-.15.24-.4.46-.28s.16.33.17.51c0,.48,0,1,0,1.44Q422.36,304.34,422.36,308.67Z" transform="translate(-2.64 -2.7)"/><path class="cls-3" d="M103.14,299.18a13.2,13.2,0,0,1-4.69-2c-1.16-.71-2.16-1.73-3.65-1.76a.75.75,0,0,1-.74-.83c0-.8-.31-1.78.57-2.26,2.05-1.11,4.16-2.13,6.26-3.15.49-.24.79.1.93.52.94,2.8,1.89,5.6,2.77,8.42C104.85,298.93,104.47,299.21,103.14,299.18Z" transform="translate(-2.64 -2.7)"/><path class="cls-3" d="M160,112.29a1.66,1.66,0,0,1-2-1.15c-.39-1.26-.72-2.6.26-3.7,1.59-1.79,3.41-3.36,4.88-5.27.58-.75,1.06-.63,1.25.27.47,2.27.82,4.56,1.18,6.84a1.24,1.24,0,0,1-.6,1.42A9.75,9.75,0,0,1,160,112.29Z" transform="translate(-2.64 -2.7)"/><path class="cls-10" d="M68,209.46c1.41-.78,2.55-2,4.13-2.49,0,3,0,6.1,0,9.15,0,1.39,0,1.39,1.65,1.61a1.21,1.21,0,0,1-.88.4,4.82,4.82,0,0,0-3.67,2.08C69.31,216.57,68.42,213,68,209.46Z" transform="translate(-2.64 -2.7)"/><path class="cls-12" d="M229.24,480.32c.2-1,.87-.81,1.58-.67a17,17,0,0,0,4.21.67,2.18,2.18,0,0,1,.85,1.94c-.07.87,0,1.75,0,2.63q0,.81,0,1.63h-4.14Z" transform="translate(-2.64 -2.7)"/><path class="cls-11" d="M45.23,215.25c.41-1.94,1.74-3.37,2.79-4.95a2.38,2.38,0,0,1,1.21-.71c.85-.28,1.3,0,1.35.94.07,1.29,0,2.59,0,3.89a9.21,9.21,0,0,1-1.12,3.47c-.37.78-.77,1.13-1.48.34A25.51,25.51,0,0,1,45.23,215.25Z" transform="translate(-2.64 -2.7)"/><path class="cls-4" d="M150.27,25.46q5-2.7,10-5.4a8.33,8.33,0,0,1,1.16-.42c.43.34.33.69,0,1-2,2.11-3.81,4.43-6,6.43a1.51,1.51,0,0,1-2.14.29C152.32,26.72,151,26.58,150.27,25.46Z" transform="translate(-2.64 -2.7)"/><path class="cls-10" d="M421.13,259.49c.73.9.36,2,.38,2.94.05,2.63,0,2.63,2.09,4.09a20.32,20.32,0,0,1-5.17,2.9c-.64.24-1.35.39-1.45,1.25a26,26,0,0,1-2.06-5.79c.54-1.22,1.63-1.06,2.63-1,2.67.19,2.67.21,2.91-2.56A2.24,2.24,0,0,1,421.13,259.49Z" transform="translate(-2.64 -2.7)"/><path class="cls-11" d="M340.9,410.42c-.13-1.85-.22-3.68.82-5.35a3.76,3.76,0,0,1,4.14-1.66,11.26,11.26,0,0,0-.43,3.84c0,2.91-.83,3.6-3.72,3.21A7.6,7.6,0,0,0,340.9,410.42Z" transform="translate(-2.64 -2.7)"/><path class="cls-2" d="M291.69,479.07a62.22,62.22,0,0,1-9.11,1.23c1.35-1.75,3.07-3.15,4.57-4.76.56-.6,1.1-1.22,1.66-1.83A15.21,15.21,0,0,1,291.69,479.07Z" transform="translate(-2.64 -2.7)"/><path class="cls-11" d="M250.76,479.48a13.25,13.25,0,0,0-1.41.14c-1.81.36-2,.31-2.9-1.31-.64-1.12-1.26-2.24-1.9-3.36a21.94,21.94,0,0,0,2.85-2.65c.49-.45.78-.45,1,.26.36,1.39.79,2.76,1.15,4.14A7,7,0,0,0,250.76,479.48Z" transform="translate(-2.64 -2.7)"/><path class="cls-4" d="M56.71,173c-.17-.59.19-.9,1-.66a10.16,10.16,0,0,1,1.92.72,2.14,2.14,0,0,1,1.07,2.58c-.3,1.57-1.56,2.55-2.23,3.9a.43.43,0,0,1-.49.27c-.24,0-.29-.26-.33-.46-.09-.47-.19-.94-.26-1.41C57.18,176.4,57,174.85,56.71,173Z" transform="translate(-2.64 -2.7)"/><path class="cls-10" d="M180.86,137.5l-4.13,4.56a.87.87,0,0,0-1-.82,1.94,1.94,0,0,1-1.6-.76c-.93-1.13-.74-1.95.62-2.53a7,7,0,0,1,3-.45C178.81,137.53,179.84,137.5,180.86,137.5Z" transform="translate(-2.64 -2.7)"/><path class="cls-3" d="M117.18,346.75c-.39-2.26.52-4.35.91-6.5a.4.4,0,0,1,.63-.27c1.14,1,2.75,1.51,3.42,3.05A51.66,51.66,0,0,1,117.18,346.75Z" transform="translate(-2.64 -2.7)"/><path class="cls-3" d="M125.45,344.26c0-1.61-.13-3.23.88-4.64.39-.55.73-1.2,1.58-.73.34,1.53,1.11,2.94,1.29,4.52l.35.45,0,.81A15.85,15.85,0,0,0,125.45,344.26Z" transform="translate(-2.64 -2.7)"/><path class="cls-15" d="M140.33,156.08l-7.43,1.73c-.75-1.27,0-2.12.83-2.94,2.1,0,4.19,0,6.29,0,.44,0,1.11-.22,1.26.33S140.54,155.66,140.33,156.08Z" transform="translate(-2.64 -2.7)"/><path class="cls-10" d="M341.15,418.6a.75.75,0,0,1-.34.71,10,10,0,0,0-1.15.86,1.25,1.25,0,0,1-1.83.07c-.34-.23-.63-.53-1-.78-1.42-1.12-1.42-1.14.17-2.16s3-.73,4,.94A3.75,3.75,0,0,1,341.15,418.6Z" transform="translate(-2.64 -2.7)"/><path class="cls-16" d="M231.26,467.47a6.5,6.5,0,0,1-2,.88,38.94,38.94,0,0,0-7.93-5.45c-.23-.13-.52-.28-.33-.59.06-.1.4-.13.55-.06,3.19,1.58,6.46,3,9.51,4.87C231.16,467.18,231.2,467.35,231.26,467.47Z" transform="translate(-2.64 -2.7)"/><path class="cls-17" d="M157.67,65.48c-.52-.05-.82-.31-.69-.68a11,11,0,0,1,3.15-4.23c.52-.5,1,.31,1.28.68.94,1.08.87,1.46-.31,2.19-.93.58-1.87,1.15-2.82,1.71C158.07,65.29,157.82,65.41,157.67,65.48Z" transform="translate(-2.64 -2.7)"/><path class="cls-10" d="M133.73,154.88l-.83,2.94a10.49,10.49,0,0,1-.55,1c-.5.71-.82.3-1.11-.2s-.53-.8-.78-1.2c-.82-1.32-.36-2.31,1.22-2.52A16.77,16.77,0,0,1,133.73,154.88Z" transform="translate(-2.64 -2.7)"/><path class="cls-18" d="M140.35,361.21a8.84,8.84,0,0,1,2.06,2.08,1.55,1.55,0,0,1-.49,1.08c-.7.65-1.35.58-1.47-.32S139.37,362.17,140.35,361.21Z" transform="translate(-2.64 -2.7)"/><path class="cls-19" d="M55.15,203.67a6.52,6.52,0,0,0-2.61.36c-.24.09-.58.1-.72-.17s.14-.5.32-.68a6.43,6.43,0,0,1,3-2Q55.15,202.43,55.15,203.67Z" transform="translate(-2.64 -2.7)"/><path class="cls-20" d="M352.21,405.7a1.12,1.12,0,0,1-1.1.73c-.57,0-1.4-1-1.26-1.63a1,1,0,0,1,1-.84C351.2,404,352.22,405.32,352.21,405.7Z" transform="translate(-2.64 -2.7)"/><path class="cls-15" d="M142.28,370.75c-.11.49-.24,1-.78,1.12s-1.38-.88-1.29-1.36a.94.94,0,0,1,1-.85A1.25,1.25,0,0,1,142.28,370.75Z" transform="translate(-2.64 -2.7)"/><path class="cls-10" d="M40.69,219q0-1.24,0-2.48A1.94,1.94,0,0,1,40.69,219Z" transform="translate(-2.64 -2.7)"/><path class="cls-11" d="M343.39,461.73a.94.94,0,0,1-.85.38A.93.93,0,0,1,343.39,461.73Z" transform="translate(-2.64 -2.7)"/><path class="cls-3" d="M349.17,460.47a.91.91,0,0,1-.84.39A1,1,0,0,1,349.17,460.47Z" transform="translate(-2.64 -2.7)"/><path class="cls-3" d="M102.71,239.65l.4-.42Z" transform="translate(-2.64 -2.7)"/><path class="cls-8" d="M370.67,52.32a2,2,0,0,1-1.22,1l-5.4,2.31a3.13,3.13,0,0,1-3.66-.94c-1.3-1.45-3.08-2.49-3.8-4.43h0a4.15,4.15,0,0,0-.42-.41,27.82,27.82,0,0,1-3.43-1.9c-.68-.51-1.21-.44-1.62.42a34.1,34.1,0,0,0-2.45,5.89c-.18.68-.12,1.79-1,1.86-1.12.08-1.22-1.09-1.53-1.91a21.54,21.54,0,0,0-.82-2.55c-.93-1.74-1.93-2.13-3.7-1.32a7.59,7.59,0,0,0-.87.55c-.69.44-1.1.46-1.57-.44a18.89,18.89,0,0,0-13.2-10,19.49,19.49,0,0,0-13.17,2,16.24,16.24,0,0,0-4.54,3.86c-1,1.14-2.06.28-3.06.12-.77-.13-1.71-.33-1.55-1.52-.33-1.15.27-2.14.56-3.18,1.15-4,.34-5.42-3.7-6.25-.74-.15-1.48-.26-2.22-.43a4.31,4.31,0,0,1-3.91-3.41,9.81,9.81,0,0,0-1.1-2.22c-1.18-1.9-2.27-2.26-4.33-1.46-3.4,1.32-4.16,1.12-6.55-1.75a8.17,8.17,0,0,0-2.59-2.32,3.07,3.07,0,0,0-3.47.21c-2.22,1.6-3.59,1.51-5.69-.38a7.3,7.3,0,0,0-4.77-2.15c-2.09-.07-2.27,0-1.64,2a18,18,0,0,1,.7,6.74c-.13,2.06-1.36,3-3.44,2.6-2.51-3.51-5.23-6.85-8-10.13a4.38,4.38,0,0,0-5.78-.64c-.33.24-.63.53-1,.76s-.49.33-.71.08,0-.38,0-.57a46.6,46.6,0,0,0,1-7.51c.05-2.06-.15-2.21-2.22-2.25-1,0-1.92,0-2.88,0s-1.26-.47-.94-1.34a9.59,9.59,0,0,1,2.19-3.68c1.47-1.43,2.87-2.95,4.3-4.42l.4-.08c9.62,2.9,19.25,5.76,28.86,8.71a569.5,569.5,0,0,1,53.92,19c8.07,3.39,15.88,7.32,23.78,11.08,2.36,1.12,4.78,2.13,7.05,3.44A65.52,65.52,0,0,1,370.67,52.32Z" transform="translate(-2.64 -2.7)"/><path class="cls-10" d="M458.74,137.51a4.49,4.49,0,0,0-2,.94,21.83,21.83,0,0,1-2.64,1.58c-2.83,1.34-4.22.91-5.72-1.86a34.11,34.11,0,0,1-2.48-5.19,2.83,2.83,0,0,0-1.09-1.71c-1.46-.82-2.45-2.17-3.78-3.15-1.75-1.29-3.28-2.9-4.91-4.36a2.23,2.23,0,0,1-.92-2,33.06,33.06,0,0,0-3.7-7.66c-1.27-1.93-.41-3.73,2-4.69A16.66,16.66,0,0,0,438.1,107c2.51-1.83,2.58-2.47.86-5.16-.84-1.32-2.1-2.62-.9-4.39a13.5,13.5,0,0,1,4.31,2.76,6.62,6.62,0,0,1,1.91,4.63,15.08,15.08,0,0,1-.32,4.3c-.39,1.37.19,2.73.36,4.07a33.9,33.9,0,0,0,1.58,7.83,67.16,67.16,0,0,0,1.21,6.85c2,7.16,5,8.27,10.81,7.62A2.33,2.33,0,0,1,458.74,137.51Z" transform="translate(-2.64 -2.7)"/><path class="cls-8" d="M438.06,97.41a5.4,5.4,0,0,0,1.31,3.95c.12.16.28.3.4.46,1.46,2,2,3.94-1.28,5.52a1,1,0,0,1-1.12-.26c-1.83-2.16-4-4.11-5.07-6.8A13.43,13.43,0,0,0,429,97.16a2.22,2.22,0,0,0-1.91-.53,1.74,1.74,0,0,1-2-.75c-1.71-1.88-3.17-4-4.72-6-.37-.48-.24-.7.34-.78a48.05,48.05,0,0,1,8.37-.84,12.69,12.69,0,0,1,3.19.79C434.43,91.73,436.15,94.64,438.06,97.41Z" transform="translate(-2.64 -2.7)"/><path class="cls-3" d="M457.91,135.47a.84.84,0,0,1-.61.74,8.44,8.44,0,0,1-9.06-3.69,18.18,18.18,0,0,1-2.27-6.75,15.3,15.3,0,0,1-.43-2.41c0-.79-.29-1.65.34-2.36Z" transform="translate(-2.64 -2.7)"/><path class="cls-8" d="M395.11,63.44a17.25,17.25,0,0,1-4.31,6.13c-.92.89-1.8.72-2.59-.28a3.83,3.83,0,0,1-.57-.85c-1.44-3.47-2.27-7-1.25-10.77A62.89,62.89,0,0,1,395.11,63.44Z" transform="translate(-2.64 -2.7)"/><path class="cls-21" d="M373.53,52.81a2.89,2.89,0,0,0,1.12,2.09c1,1.09,2,2.23,3,3.36.35.41.53,1.11-.19,1-2.17-.38-4.5-.44-6.14-2.33-.73-.84-.56-1.76-.63-2.7s.77-1,1.25-1.42Z" transform="translate(-2.64 -2.7)"/><path class="cls-12" d="M29.1,321.11c.5-1.56,1-3.12,1.49-4.69a3.77,3.77,0,0,0-.6-3.31c-1.85-2.89-1.7-3.91.27-6.67,1-1.39,2.3-2.5,3.09-4.08a6.94,6.94,0,0,0,.48-6.1,8,8,0,0,1,.58-7.3q1.64-3,3.2-6c.4-.77.82-1.19,1.77-.84s2-.22,2.54.94c-1.13,2.19-2.65,4.17-3.39,6.57a9.19,9.19,0,0,0-.23,3.87c.54,4.56,1.54,9,2.38,13.54l-.93,1.84c-1.41,2.77-1.9,3.91,1.2,7.33A4.76,4.76,0,0,1,42.32,318a4.37,4.37,0,0,1-2.83,5.6,24.18,24.18,0,0,1-3.59.82,12.09,12.09,0,0,0-1.39.35c-2.06.73-2.67,2.31-1.65,4.24a1.21,1.21,0,0,0,.22.35c1.8,1.61,1.12,3.28.16,5a6.07,6.07,0,0,1-5.73.38,80.55,80.55,0,0,1-2.15-9C25.84,323.53,27.44,322.29,29.1,321.11Z" transform="translate(-2.64 -2.7)"/><path class="cls-4" d="M27.5,334.71a36.71,36.71,0,0,1,5.73-.38,37.4,37.4,0,0,1,7.35,6.77,15.88,15.88,0,0,1,2.11,4c.31.68.59,1.39.88,2.08-1.9-.15-3.82.21-5.72-.31-2.62-.72-4.38-2.27-4.49-4.91a3.72,3.72,0,0,0-2.55-3.73c-.43-.18-.77-.57-1.29-.57Z" transform="translate(-2.64 -2.7)"/><path class="cls-4" d="M29.1,321.11c-.9,1.8-2.58,3-3.75,4.56-.94-3.2-1.94-6.39-2.79-9.61a63.13,63.13,0,0,1-1.74-6.52,2.15,2.15,0,0,0,.56.25c3.11.39,4.54,2.41,5.19,5.25A35.38,35.38,0,0,0,27.66,319,3.39,3.39,0,0,0,29.1,321.11Z" transform="translate(-2.64 -2.7)"/><path class="cls-22" d="M16.71,293.82c2.26,1.72,3.93,3.76,3.72,6.84a3.44,3.44,0,0,1-.31,1.59,5,5,0,0,0-.54,2.76C18.56,301.29,17.42,297.61,16.71,293.82Z" transform="translate(-2.64 -2.7)"/><path class="cls-1" d="M16.3,287.61c.79,1.61.24,3.32.37,5C15.9,291,16.42,289.27,16.3,287.61Z" transform="translate(-2.64 -2.7)"/><path class="cls-4" d="M365.29,454.68h1.45c4.14,0,4.29-.05,6.83-3.15s5-6,7.43-9.09c2.79-3.48,5.53-7,8.29-10.51,1.65.16,3.09-.58,4.58-1.07.59-.19,1.15-.44,1.73-.68a3.8,3.8,0,0,1,4.23.64,24.28,24.28,0,0,1,5.34,6,4.23,4.23,0,0,1,.12,4.33,52.67,52.67,0,0,1-6.36,9.09,8.55,8.55,0,0,1-3.15,2.27,34.18,34.18,0,0,0-6,3.56c-.59.41-.78.68,0,1.16a12.62,12.62,0,0,1,4.71,4.79,1.75,1.75,0,0,0,1.49,1l-10.79,7.39c-.58-.75-.11-1.45.13-2.13a5.39,5.39,0,0,0,.05-3.24c-.92-3.59-2.6-4.59-6.22-3.76-1,.23-1,.57-.6,1.41.79,1.62,2.44,2.87,2.18,4.95a3.87,3.87,0,0,1-4.43-.25c-4.43-3-8.61-6.3-12.87-9.51a2,2,0,0,1-1-1.49A13.56,13.56,0,0,1,365.29,454.68Z" transform="translate(-2.64 -2.7)"/><path class="cls-9" d="M362.39,456.32c4.62,3.44,9.26,6.85,13.84,10.35,1.37,1,2.86.76,4.35.84,1.52,1,1.73,2.6,2.09,4.15-10.41,5-20.76,10-31.5,14.27a12,12,0,0,1-7.64.66c-2.64-.69-5.34-1.16-8-1.73a4.93,4.93,0,0,0-.43-.39l-.39,0a3.85,3.85,0,0,0-.44-.39h-.39q-.38-.2,0-.39c3.42-2,5.32-5.42,7.84-8.26.14-.15.28-.29.43-.44a6,6,0,0,1,3.82,0,16,16,0,0,0,5.51.44c2.37-.32,3-1,3.18-3.4a6.55,6.55,0,0,1,.3-1.61q0-.2,0-.4a9.1,9.1,0,0,1,0-4.14A10.19,10.19,0,0,1,362.39,456.32Z" transform="translate(-2.64 -2.7)"/><path class="cls-2" d="M382.67,471.65c-.92-.38-.85-1.35-1.22-2.06s-.58-1.39-.87-2.09c-.84-1.89-2.06-3.55-3.07-5.34-.38-.69-.57-1.12.56-1.39a16.47,16.47,0,0,1,4.7-.24,2.57,2.57,0,0,1,2.19,1.63c1.37,2.72,1.72,5.43.15,8.19Z" transform="translate(-2.64 -2.7)"/><path class="cls-12" d="M314,486.07c-.64-.6-1.44-.34-2.17-.38-.92,0-1.26-.49-1-1.34a9.74,9.74,0,0,1,.81-2.11c.93-1.62,1.56-1.65,3.11-.6s2.54,2.53,4.24,3.22a.87.87,0,0,1,0,1.23Z" transform="translate(-2.64 -2.7)"/><path class="cls-23" d="M319,486.09l0-1.23c2-.52,4-1.55,6.2-1.27l8.68,0q0,.2,0,.39c-4.71-.45-9.18.92-13.7,1.88C319.77,486,319.36,486,319,486.09Z" transform="translate(-2.64 -2.7)"/><path class="cls-7" d="M271,488.58c.47-.53,1.09-.39,1.68-.37C272.21,488.71,271.59,488.58,271,488.58Z" transform="translate(-2.64 -2.7)"/><path class="cls-1" d="M430.65,411.29l.36-.45Z" transform="translate(-2.64 -2.7)"/><path class="cls-23" d="M334.25,484l.44.4Z" transform="translate(-2.64 -2.7)"/><path class="cls-23" d="M335.08,484.46l.43.39Z" transform="translate(-2.64 -2.7)"/><path class="cls-24" d="M235.86,480.31c0-.76,0-1.51,0-2.27-.12-3.21,1.8-5.14,4.75-4.76.2,0,.41,0,.62,0-.09,1.44-1.25,2.22-2,3.2C238.12,477.82,237.36,479.39,235.86,480.31Z" transform="translate(-2.64 -2.7)"/><path class="cls-12" d="M364,237.66c-.36,3.14-1.48,6.1-2.19,9.15-1.13,4.86-2.5,9.67-3.68,14.53a16.88,16.88,0,0,1-1.56,3.54q-3.44,6.91-6.93,13.8c-.26.5-.24,1.53-1.33,1.07-2.21-4.67-4.5-9.3-6.38-14.11a77.1,77.1,0,0,1-4-16.19,38.21,38.21,0,0,0-10.48-20.89c-3.28-3.43-6.52-6.92-10.6-9.47a53.77,53.77,0,0,0-28.35-7.39c-3.92.14-7.84.11-11.76.21-.83,0-1.65,0-2.48,0a1.53,1.53,0,0,1-1.79-1.52,21.72,21.72,0,0,1-.29-3.08c0-6.06,0-12.13-.05-18.19,0-3,.94-4,3.84-3.61,7.84.92,15.73,1.58,23.39,3.64a55.32,55.32,0,0,1,14.27,5.88c2.73,1.64,4.52,3.95,4.43,7.2-.28,10.17,4.78,17.38,12.63,23a64.91,64.91,0,0,0,21.5,10.25,85.16,85.16,0,0,0,8.5,1.64Z" transform="translate(-2.64 -2.7)"/><path class="cls-11" d="M138.25,288a4.26,4.26,0,0,1-1.81-.3,2,2,0,0,1-1.37-2.65c.32-1.33.76-2.63,1.18-3.94.91-2.81,1.48-5.73,2.83-8.39a7.38,7.38,0,0,1,8.17-3.69c1,.28,1.48,1.2,2.21,1.81s1.25,1.58,2.44,1c.09,1.32-.74,2.33-1.22,3.45-1.82,4.21-3.71,8.39-5.39,12.66a6.68,6.68,0,0,1-1.19,2.15A32.79,32.79,0,0,1,138.25,288Z" transform="translate(-2.64 -2.7)"/><path class="cls-8" d="M244.89,286.78a2.61,2.61,0,0,1,1.42-2.3c.75-.49,1.54-.92,2.31-1.38a6.33,6.33,0,0,0,1.83-1.66c1-1.37.8-2.53-.7-3.44a10.08,10.08,0,0,0-1.3-.62c-.38-.16-.78-.27-1.16-.43-4.55-1.88-5.09-4.92-2.67-8.93a1.84,1.84,0,0,1,2.26-1c1.26.33,2.55.58,3.82.89a5.57,5.57,0,0,0,5.23-1.12,3.23,3.23,0,0,1,.84-.59,1.54,1.54,0,0,1,1.72.32,1.39,1.39,0,0,1,.24,1.53,2.5,2.5,0,0,1-1.28,1.54,10.54,10.54,0,0,1-5.74,1.4,6.46,6.46,0,0,0-3.81.65c-.27.17-.7.28-.6.72s.42.28.67.34c1.21.27,2.42.52,3.62.82a10.85,10.85,0,0,1,4.21,2.13,2.48,2.48,0,0,1,1.1,2.32,13.79,13.79,0,0,1-8.51,11.32A2.53,2.53,0,0,1,244.89,286.78Z" transform="translate(-2.64 -2.7)"/><path class="cls-8" d="M216.41,321.22a9.51,9.51,0,0,1,1.51-4.22c1-1.65,2-3.28,3-4.92a16.13,16.13,0,0,0,.76-1.46c.81-1.71.72-1.89-1.13-1.86a13.11,13.11,0,0,1-8.28-2.64,5.55,5.55,0,0,1-1-.77c-.45-.53-.89-1.13-.43-1.85s1.07-.51,1.68-.38a9.76,9.76,0,0,1,1.79.46,16.11,16.11,0,0,0,10.51.42,13.94,13.94,0,0,1,3.69-.3c1.42,0,1.52.2,1,1.61-.35.89-.78,1.76-1.19,2.62a8.49,8.49,0,0,0-.67,1.27,34,34,0,0,1-4.18,8.66,35.87,35.87,0,0,0-2.8,6.86c-.27.77-.55,1.49-1.54,1.22-.85-.23-2,0-2-1.5C217.06,323.34,216.37,322.35,216.41,321.22Z" transform="translate(-2.64 -2.7)"/><path class="cls-8" d="M279.08,230.57a11,11,0,0,1,6.35,1.4,6.72,6.72,0,0,1,3.27,6.47,35.44,35.44,0,0,1-1.57,8.49,2.53,2.53,0,0,1-.82,1.4,34.28,34.28,0,0,1-5.44,3.72,9.55,9.55,0,0,1-2.33.8c-1.68.3-2.28-.49-1.78-2.15a4.37,4.37,0,0,1,1.3-1.82c1-1,2.05-2,3.11-3,.65-.6.68-1.1,0-1.7a32.46,32.46,0,0,1-2.52-2.44c-.72-.8-.62-1.28.32-1.8s1.9-.82,2.8-1.32c1.68-.93,1.75-2.22.15-3.34a14,14,0,0,0-3.69-1.82,4.66,4.66,0,0,1-2.34-1.61c-.52-.69-.32-1.18.52-1.23S278.18,230.57,279.08,230.57Z" transform="translate(-2.64 -2.7)"/><path class="cls-8" d="M248.31,252c-.55,0-1.1,0-1.65,0-1.5-.07-2.05-.78-1.82-2.28a5.64,5.64,0,0,1,1-2.22c1.18-1.78,2.57-3.41,3.58-5.3,1.31-2.44,1.07-3.4-1.28-5-.74-.5-1.52-.94-2.29-1.39a3.31,3.31,0,0,1-1.49-1.9c-.44-1.29.28-2.28,1.62-2.06a12.35,12.35,0,0,1,3.13,1c2.43,1.14,4.8,2.4,7.21,3.56a1.57,1.57,0,0,1,.89,2.19,8.73,8.73,0,0,1-2.21,3.9c-1.54,1.48-3,3-4.49,4.56-.33.34-.75.71-.51,1.25s.8.41,1.27.4,1.1-.05,1.65-.07a1.2,1.2,0,0,1,1.31,1.05,1.17,1.17,0,0,1-.75,1.33,9.73,9.73,0,0,1-4.39,1h-.83Z" transform="translate(-2.64 -2.7)"/><path class="cls-8" d="M224.2,231.71a39.2,39.2,0,0,1-1,4.83,47.74,47.74,0,0,0-1.54,6.6,6.59,6.59,0,0,0-.09,1.82,5,5,0,0,1-.8,3.33,1.63,1.63,0,0,1-3.06-.78c0-1.51.06-3,.06-4.53,0-2.28-.47-2.85-2.69-3.45l-.39-.12c-2.59-.59-2.85-1.11-1.66-3.58a7.82,7.82,0,0,1,2.88-3.42c2-1.22,4-2.46,6-3.65.91-.54,1.35-.38,1.81.56A5.57,5.57,0,0,1,224.2,231.71Z" transform="translate(-2.64 -2.7)"/><path class="cls-10" d="M205.29,376.09c-1.17,0-2.33,0-3.5,0-1.43,0-1.49.15-1.3,1.58a5.1,5.1,0,0,1-2.66,5.45c-.69.31-1.27.33-1.45-.47-.79-3.48-3.67-3.75-6.38-4-1.59-.16-3-.27-3.73-1.94-.35-.79-1.17-.58-1.83-.59-3.36,0-6.73,0-10.09,0-.73,0-1.52.22-2.17-.37l31.55,0A1.88,1.88,0,0,1,205.29,376.09Z" transform="translate(-2.64 -2.7)"/><path class="cls-12" d="M355.79,156.08a4,4,0,0,1,2.78-2.75,26.36,26.36,0,0,1,4.11-1.21c1.91-.36,3.54.73,5.25,1.34a.81.81,0,0,1,.36.48c.81,2.31,2.22,4.38,2.76,6.8-2.33-.78-4.65-1.58-7-2.34A72.83,72.83,0,0,0,355.79,156.08Z" transform="translate(-2.64 -2.7)"/><path class="cls-21" d="M220.56,345.58c.17.1.35.19.51.3a1.37,1.37,0,0,1,.29.29c2.86,3.78,3.5,4.16-1.32,6.41a3.38,3.38,0,0,1-4.94-1.87,1.75,1.75,0,0,1,0-1.77c1-1.5,2.13-2.88,4.13-2.88C219.81,346.07,220.1,345.7,220.56,345.58Z" transform="translate(-2.64 -2.7)"/><path class="cls-2" d="M138.25,288a7.64,7.64,0,0,1,5.85,2.11,1.08,1.08,0,0,1-.43.81c-2.22,2.16-3.08,5-4.16,7.81,0,.26,0,.64-.13.76-.45.38-.57-.14-.64-.39A6.42,6.42,0,0,0,137,296.7c.75-.78.48-1.84.64-2.74C138,292,138.08,290,138.25,288Z" transform="translate(-2.64 -2.7)"/><path class="cls-25" d="M139.51,298.77c0-3.21,1.69-5.61,3.64-7.91.14-.17.37-.08.52.1l-3.79,7.81Z" transform="translate(-2.64 -2.7)"/><path class="cls-26" d="M371.51,161.48l.85,0c-.05.31.06.83-.29.85C371.56,162.41,371.55,161.88,371.51,161.48Z" transform="translate(-2.64 -2.7)"/><path class="cls-1" d="M369.46,325.65a1,1,0,0,1,.39.83A.83.83,0,0,1,369.46,325.65Z" transform="translate(-2.64 -2.7)"/><path class="cls-1" d="M129.55,343.87l-.35-.45Z" transform="translate(-2.64 -2.7)"/><path class="cls-10" d="M260.26,87.47c-.8-.53-1.57-1.12-2.4-1.59-1.73-1-3-.58-3.44,1.35a3.06,3.06,0,0,1-2.94,2.58c-.71.11-1-.13-1.22-.73A7.09,7.09,0,0,1,250,85.4a54.32,54.32,0,0,1,1.19-6.46,11.64,11.64,0,0,0-2.3-10.83,8.23,8.23,0,0,0-6.75-3.39c-1,0-2.07,0-3.1,0s-.91-.48-.53-1a21.46,21.46,0,0,0,2.85-5.23c.24-.71.91-.76,1.55-.75,1.35-.8,2.38.11,3.41.7,2.15,1.24,4.08,2.82,6.15,4.18,1.47,1,1.7.85,1.75-.9.09-3.16.08-6.33.22-9.5.18-4.07-3.65-6.37-7.33-4.53a14.45,14.45,0,0,1-5.41,1.88c-2.05.14-2.82-.58-2.65-2.63a5.62,5.62,0,0,1,2.2-4.27,19.5,19.5,0,0,1,2.22-1.52c2.28-1.27,4.56-2.52,5.24-5.35a1.74,1.74,0,0,1,.4,1.54c0,.95.36,1.47,1.33,1.35,2.09-.26,3.53.71,5.14,2A113.39,113.39,0,0,1,264,48.44a17.17,17.17,0,0,1,2.29,2.91,5,5,0,0,1-.05,5.81c-.78,1.2-1.78,2.27-1.4,3.91A8.81,8.81,0,0,0,268,66c2.78,2.33,5.84,4.32,8.42,6.9a7,7,0,0,1,1.17,1.42,2.63,2.63,0,0,1-.82,3.79c-1.77,1.12-2.74,2-5-.38-.72-.74-1.47-1.45-2.18-2.19a9.88,9.88,0,0,0-1.92-1.55c-1.21-.75-2.52-1.76-3.88-1.35-1.1.33-1.76,4.62-1.14,6a26.69,26.69,0,0,0,3.55,5.53,9,9,0,0,1,1.09,1.74.56.56,0,0,1-.3.68C264.8,87.17,262.63,88.06,260.26,87.47Z" transform="translate(-2.64 -2.7)"/><path class="cls-1" d="M248.69,35.77a11.79,11.79,0,0,0,0,1.24,2.5,2.5,0,0,1-1.52,2.65c-1.8,1-3.52,2.15-5.26,3.24s-2.26,2.82-2.32,4.76c0,1,.39,1.52,1.34,1.32,1.51-.33,3.12-.21,4.51-1.18a8.21,8.21,0,0,1,2.94-1.4c3.56-.78,7.33,2.28,6.83,5.94-.38,2.76-.2,5.49-.32,8.22,0,1,0,1.93-.09,2.88s-.51,1.12-1.36.56q-3.43-2.28-6.8-4.65a9.67,9.67,0,0,0-3.74-1.65,34.85,34.85,0,0,0-7-1.66c-1.53-1.09-2.26-2.8-3.3-4.26-.16-.38-.22-.8-.36-1.19-.77-2.11-2.33-2.66-4.23-1.48a18,18,0,0,1-2.75,1.82c-1.93.76-3.77,0-3.86-2-.17-3.91-2.08-5.94-5.81-6.54a2.45,2.45,0,0,1-1.19-.79c-1.21-.68-1.9-2-3.12-2.65-.67-.38-.27-.78.2-1.06,1.23-.73,2.65-1.11,3.75-2.08a4,4,0,0,0,2.13-.66c2.2-1.11,4.46-2.11,6.6-3.34,3.19-1.83,6.83-2.48,10.08-4.13a6,6,0,0,1,1.37-.45c3-.68,4.62.95,4,4-.47,2.43-.22,2.8,2.16,3.52a7.6,7.6,0,0,0,3.87.11,16.83,16.83,0,0,1,3.26-.28Z" transform="translate(-2.64 -2.7)"/><path class="cls-12" d="M261.52,32.87a4.07,4.07,0,0,0,1.36-.46A2.21,2.21,0,0,0,264.43,30a18.38,18.38,0,0,0-1-6.89,5.74,5.74,0,0,1-.2-.59c-.47-1.81-.47-1.8,1.38-1.69.48,0,1,0,1.45,0a6.18,6.18,0,0,1,4.62,1.93,7.88,7.88,0,0,0,1.55,1.34,2.7,2.7,0,0,0,3.41-.27c1.9-1.62,3.52-1.68,5.44-.11a9.48,9.48,0,0,1,2,2.11,9.13,9.13,0,0,0,1.36,1.54,2.28,2.28,0,0,0,2.82.52c.55-.28,1.14-.48,1.7-.74a3.32,3.32,0,0,1,4.74,1.43,20.59,20.59,0,0,1,1.68,3.54c.44,1.23,1,2.09,2.45,2,.16,0,.34.21.51.32a7.64,7.64,0,0,0-3.61,3.1c-.52,1-1.41,1.11-2.46.52-3-1.7-3.37-1.56-4.86,1.56-.26.55-.44,1.17-1.07,1.44h-1c-1.52,0-1.52,0-2-1.57a2,2,0,0,0-.33-.5c-.73-.56-.72-1.46-.95-2.23a7.85,7.85,0,0,0-4.69-5.17c-3.44-1.46-7.19-1.8-10.75-2.86-.83-.25-1.11.19-1.15,1a3.92,3.92,0,0,0,1.14,3c1.77,1.93,3.47,3.91,5.08,6a5.48,5.48,0,0,1,1.18,2.16c.31,1.39-.25,2-1.86,1.94a4.78,4.78,0,0,1-4.24-1.58c-1.11-1.12-2.62-1.73-3.61-3a1.85,1.85,0,0,1,0-2.47Z" transform="translate(-2.64 -2.7)"/><path class="cls-11" d="M271,42.82c1.76-.81,1.82-1,1-2.53A21.58,21.58,0,0,0,269.52,37a48.09,48.09,0,0,0-3.84-4.29c-1.4-1.41-.76-3.09-.78-4.68a.44.44,0,0,1,.63-.33c4,1.54,8.37,1.65,12.27,3.42A8.16,8.16,0,0,1,283,39.08c0,.69,0,1.38.07,2.06a4.79,4.79,0,0,1-.86,3.5c-.56.78-1,1.61-1.6,2.4-1.11,1.59-1,3.39-.84,5.16.09.86.91,1.36,1.51,1.9A7.16,7.16,0,0,0,285.1,56a2.2,2.2,0,0,1,2.14,1.84c.06.27.19.51.28.78.72,2.2,0,3-2.31,2.8a2.33,2.33,0,0,1-1.36-.43c-2.25-2-5.06-3.27-6.88-5.78a3.68,3.68,0,0,1-1-2.83c.26-1.45-.49-2.11-1.68-2.54-1.09-1.62-2.87-2.47-4.23-3.78-.54-.52-1.27-.84-1.56-1.6C268.77,43,270.26,43.49,271,42.82Z" transform="translate(-2.64 -2.7)"/><path class="cls-2" d="M432.3,100.28a50.21,50.21,0,0,1,4.47,5.33,7.08,7.08,0,0,0,1.72,1.74,7.81,7.81,0,0,1-4.35,2.47,2.51,2.51,0,0,0-.76.29c-2,1-2.38,2.31-1.27,4.17a7.88,7.88,0,0,0,1.11,1.47c1.66,1.7,2,3.81,2,6.05-3.29-1.67-6.26-.67-9.12,1.11-1.28.8-2.5,1.7-3.81,2.44-1.06.6-1.31.44-1.53-.69-.28-1.41-.52-2.82-.79-4.23a1.47,1.47,0,0,1,1.15-1.87,11,11,0,0,0,1.94-.67,7.63,7.63,0,0,0,4.29-7,8.68,8.68,0,0,0-.23-3.27,2.43,2.43,0,0,1,.8-2.76A43.89,43.89,0,0,0,432.3,100.28Z" transform="translate(-2.64 -2.7)"/><path class="cls-11" d="M286.31,41.15a10.78,10.78,0,0,1,1.22-3.23c1.15-2,2.6-2.25,4.37-.86s1.88,1.43,2.86-.58a3.05,3.05,0,0,1,3.55-1.94,14.63,14.63,0,0,1,4.8.88,3.1,3.1,0,0,1,2.27,3.25,13.61,13.61,0,0,1-1.7,6.23,1.74,1.74,0,0,1-2,1,40.7,40.7,0,0,0-6.75-.12c-1.18,0-1.92.94-2.7,1.72-2.08,2.08-2.09,2.08-3.39-.53-.64-1.28-1.28-2.57-1.93-3.85A3.69,3.69,0,0,1,286.31,41.15Z" transform="translate(-2.64 -2.7)"/><path class="cls-11" d="M309.17,69.69A2,2,0,0,1,307,68.54c-1.37-2.52-3.11-4.82-4.26-7.47a18,18,0,0,0-1.41-2.26c-.43-.69-.52-1.19.46-1.56a33,33,0,0,0,5.67-2.9A18.27,18.27,0,0,1,314.69,52a2.62,2.62,0,0,1,2.71,3.38c-1.39,3.65-2.86,7.26-4.3,10.89-.1.25-.22.5-.3.76C312.13,69.13,311.38,69.69,309.17,69.69Z" transform="translate(-2.64 -2.7)"/><path class="cls-4" d="M482.73,266.94q0,3.37,0,6.74c0,.76,0,1.52-.79,2-2.26.31-4.34,1.27-6.53,1.81-.73.18-1.45.44-2.17.66-1.59-.95-2.36-2.64-3.58-3.93-.7-.74-1.23-1.64-1.89-2.42a1.39,1.39,0,0,1,0-2,8.5,8.5,0,0,1,6.87-3.6,23,23,0,0,0,5.09-.59A2.49,2.49,0,0,1,482.73,266.94Z" transform="translate(-2.64 -2.7)"/><path class="cls-11" d="M280.52,84.58c3.19.39,6.37.81,9.56,1.15a27.61,27.61,0,0,0,3.5.08,8.49,8.49,0,0,1,3.41.67c2.3.94,2.77,3.06,3.17,5.19.11.57-.25.72-.71.74a3.41,3.41,0,0,1-.62,0c-3.93-.52-7.84-1.18-11.78-1.53a76.67,76.67,0,0,1-9.12-1.34,2.93,2.93,0,0,1-.71-.37C278.9,88,279.06,85.84,280.52,84.58Z" transform="translate(-2.64 -2.7)"/><path class="cls-1" d="M421.13,259.49c0,1.51,0,3,0,4.53,0,1.16-.19,1.24-1.39,1-1.59-.32-3.17-1-4.8-.14-1.38-2.39-2-5.09-3.13-7.6-.24-.54,0-.86.54-1.11,3.5-1.62,6.09-4.42,8.9-6.92,1.41-1.26,1.36-1.31,2.7,0l.73.74c.55.57.43,1.06-.32,1.16a4.89,4.89,0,0,0-3,1.7,3.6,3.6,0,0,0-.94,3.43C420.63,257.35,420.88,258.42,421.13,259.49Z" transform="translate(-2.64 -2.7)"/><path class="cls-2" d="M324.57,92.86q-.6,4.26-1.2,8.52a6.28,6.28,0,0,0,.76,4.13,3.63,3.63,0,0,0,2.85,1.82c.36,0,.72.16.79.54s-.25.61-.52.82c-.87.67-1.72,1.36-2.62,2-1.17.81-1.46.79-2.46-.17a9.74,9.74,0,0,1-3.29-6.82,23.44,23.44,0,0,0-.62-5.28,1.35,1.35,0,0,1,.15-1.38c1.17-1.14,1.29-2.7,1.7-4.13.64-2.27.6-2.29,2.92-1.65a6,6,0,0,1,1.34.51C324.8,92,324.72,92.47,324.57,92.86Z" transform="translate(-2.64 -2.7)"/><path class="cls-10" d="M379.81,118.5a11.21,11.21,0,0,1-4-1c-1.68-.61-3.31-1.34-4.95-2-1-.44-1.08-.74-.22-1.34,1.86-1.3,3.75-2.54,5.63-3.81.74-.5,1.46-.51,1.93.32,1.23,2.14,2.41,4.32,3.61,6.48a.52.52,0,0,1-.27.83A7.15,7.15,0,0,1,379.81,118.5Z" transform="translate(-2.64 -2.7)"/><path class="cls-11" d="M260.26,87.47a36.64,36.64,0,0,1,5.93-1.23,1.54,1.54,0,0,0,1.1-.42H271a13.29,13.29,0,0,1,3.37,1.66c.38.33,1,.54.77,1.24A19,19,0,0,0,269,90.23a31.2,31.2,0,0,0-6.25,2.62,1.9,1.9,0,0,0-.6-1.23A9.26,9.26,0,0,1,260.26,87.47Z" transform="translate(-2.64 -2.7)"/><path class="cls-2" d="M414.9,144.7c0,1.28-.87,2.13-1.48,3.09a11.19,11.19,0,0,1-1.4,1.49c-.4.43-.84.52-1.2,0a27.71,27.71,0,0,1-3.06-4.6,1.79,1.79,0,0,1,.35-2.24c1-1,2-2,3.06-3,.29-.28.71-.68,1-.16a23.55,23.55,0,0,1,2.69,5.05A2,2,0,0,1,414.9,144.7Z" transform="translate(-2.64 -2.7)"/><path class="cls-10" d="M268.53,44.46c1.11.11,1.78,1,2.53,1.61,1.26,1,2.5,2.08,3.82,3,.2.14.56.32.21.6-.18.14-.51.1-.78.14a12.93,12.93,0,0,1-5.2-.72c-.25-.09-.53-.13-.78-.24-1.07-.49-2.24-1-2.22-2.37S267.38,44.75,268.53,44.46Z" transform="translate(-2.64 -2.7)"/><path class="cls-10" d="M275.15,88.71c-1-.65-2-1.33-3.1-2a2.22,2.22,0,0,1-1-.94l7.89-1,1.62-.19c-.49,1-.56,2.23-1.19,3.24a2.19,2.19,0,0,1-2.11,1.31C276.48,89.22,275.85,88.77,275.15,88.71Z" transform="translate(-2.64 -2.7)"/><path class="cls-12" d="M356.6,50.26a30.55,30.55,0,0,1,4.24,4.06,3.52,3.52,0,0,0,3.21,1.31,52.24,52.24,0,0,1-5.48,1.19c-2,.23-2.89-.77-2.76-2.81A12.8,12.8,0,0,1,356.6,50.26Z" transform="translate(-2.64 -2.7)"/><path class="cls-27" d="M410.82,247.38a6.9,6.9,0,0,1-.24,1.27c-.21.57-.46,1.24-1.21,1.23s-.73-.75-.88-1.22c-.88-2.67-1.71-5.35-2.55-8a.69.69,0,0,1,.06-.57c.14-.16.38,0,.52.11a19.38,19.38,0,0,1,4.16,6A5.09,5.09,0,0,1,410.82,247.38Z" transform="translate(-2.64 -2.7)"/><path class="cls-2" d="M314,91.14a2.41,2.41,0,0,1-2.09-.58c-1.13-1-1.15-1.26.09-2.05s2.43-1.52,3.65-2.26c.28-.17.63-.39.95-.18s.19.59.12.93c-.42,1.89-.42,1.89,1.23,2.69.23.11.61.18.54.5,0,.13-.46.15-.7.24C316.44,90.94,315,90.71,314,91.14Z" transform="translate(-2.64 -2.7)"/><path class="cls-28" d="M263.13,35.79l0,2.47a5.77,5.77,0,0,1-.81-.62c-.46-.49-1.43-1-1.22-1.51C261.42,35.34,262.44,35.94,263.13,35.79Z" transform="translate(-2.64 -2.7)"/><path class="cls-12" d="M356.18,49.85l.42.41Z" transform="translate(-2.64 -2.7)"/><path class="cls-9" d="M214.36,41.57a19.5,19.5,0,0,1,4.54,1.18c1.92.84,2.52,2.39,2.88,4.19a3,3,0,0,1,0,.62c0,1.12,0,2.33,1.09,2.91,1.28.66,2.37-.11,3.39-.85a9,9,0,0,0,.91-.83A3.45,3.45,0,0,1,231,48a3.23,3.23,0,0,1,2,3.33c0,.21,0,.41,0,.62.28,1.47-.56,2.65-1.15,3.83-1,1.91-1.18,4.22-3,5.68a65.62,65.62,0,0,1-10.89,4.28c-2.09.54-3.72-.55-5.48-1.18-.61-.22-.27-.83-.06-1.25a63.74,63.74,0,0,1,3.2-6c.22-.2.15-.52.29-.75,1.53-2.6.92-4.66-1.53-6.29Z" transform="translate(-2.64 -2.7)"/><path class="cls-11" d="M240,75.89c.88,3,.17,6-.45,8.89a5,5,0,0,1-.35,1c-1.1,2.5-2.84,3.44-5.32,2.29a9.41,9.41,0,0,0-7.18-.23c-1.89.59-3.88.87-5.78,1.44a3.15,3.15,0,0,1-3.22-.75c-1.23-1.11-2.38-2.29-3.51-3.5-.79-.84-.7-1.17.37-1.64,1.57-.7,3.16-1.35,4.72-2.07a8.25,8.25,0,0,1,4.19-.85c1.33-.57,2.4.29,3.51.7,5.21,1.94,5.74,1.59,5.73-4,0-.69,0-1.38,0-2.06.27-3.77.67-4,3.92-2.05C237.89,73.82,239.36,74.37,240,75.89Z" transform="translate(-2.64 -2.7)"/><path class="cls-10" d="M240,75.89c-1.69-1-3.36-2.09-5.06-3.11-1.24-.75-1.49-.6-1.56.85,0,.48,0,1,0,1.44-.8.08-.92-.57-.94-1.06a13.38,13.38,0,0,0-1.12-3.9C231.06,68,230,66,229.49,64a8.64,8.64,0,0,1-.66-2.58A97.74,97.74,0,0,1,233,51.91a9.67,9.67,0,0,1,2.9,4.14,14.2,14.2,0,0,0-2.76,7.59,6.47,6.47,0,0,0,2.83,5.83A14.64,14.64,0,0,0,238.58,71,2.16,2.16,0,0,1,240,73.43C239.94,74.25,240,75.07,240,75.89Z" transform="translate(-2.64 -2.7)"/><path class="cls-1" d="M231.31,70.1A3,3,0,0,1,233,73.33a1.85,1.85,0,0,0,.4,1.73c0,1.85,0,3.7,0,5.54s-.71,2.42-2.57,2.3a10.25,10.25,0,0,1-3-.72c-1.47-.56-2.92-1.17-4.37-1.75-.49-.92.14-1.61.56-2.26a22.23,22.23,0,0,0,1.5-2.7,6.09,6.09,0,0,1,2-2.3A21.62,21.62,0,0,0,231.31,70.1Z" transform="translate(-2.64 -2.7)"/><path class="cls-1" d="M214.36,50.25a4.75,4.75,0,0,1,1.15.4c2.25,1.51,2.46,2.51,1.49,4.62a7.15,7.15,0,0,1-1.4,2A45.5,45.5,0,0,0,214.36,50.25Z" transform="translate(-2.64 -2.7)"/><path class="cls-10" d="M34,192.74a1.74,1.74,0,0,1-.47-.22q-2.58-2.18-5.14-4.37a.68.68,0,0,1-.12-.92c.68-1.19,1.33-2.39,2.08-3.53.4-.62.85-.7,1.45,0,1.4,1.6,2.63,3.32,3.87,5C36.44,189.81,35.29,192.54,34,192.74Z" transform="translate(-2.64 -2.7)"/><path class="cls-4" d="M43.57,352.53c-.3,2.35,1.17,4.16,1.86,6.2.57,1.67,1.68,3.14,1.86,5a7.15,7.15,0,0,1-4.25-8C43.28,354.63,42.76,353.47,43.57,352.53Z" transform="translate(-2.64 -2.7)"/><path class="cls-4" d="M47.3,363.7l.41.42Z" transform="translate(-2.64 -2.7)"/><path class="cls-4" d="M53.91,271.59c0-1.24,0-2.47,0-3.71A1.66,1.66,0,0,1,55.34,266a6.79,6.79,0,0,1,1.61-.28c1.43,0,2.1.44,2.27,1.82A19.25,19.25,0,0,1,58,276.38c-.44,1.25-1.57.9-2.48.85s-1.59-.45-1.58-1.52c0-1.37,0-2.75,0-4.12Z" transform="translate(-2.64 -2.7)"/><path class="cls-4" d="M37.79,276.86c-.48-1.65-1-3.29-1.43-4.94-.37-1.34-.13-1.79,1.17-1.64,3,.36,6.18.42,8.94,2-.23,3.16-1.66,4.52-4.8,4.55C40.38,276.87,39.08,276.86,37.79,276.86Z" transform="translate(-2.64 -2.7)"/><path class="cls-29" d="M307.75,477.09c.36.1.67.26.6.68s-.27.8-.77.78-.55-.33-.55-.71S307.24,477.07,307.75,477.09Z" transform="translate(-2.64 -2.7)"/><path class="cls-4" d="M354.95,470.39a1.15,1.15,0,0,1,.08.19c1,4,.07,5.07-3.83,5.58-2.68.36-5.26-.53-7.86-1-.4-.07-.8-.13-1.21-.19a25.46,25.46,0,0,1,5.77-2.91,48.67,48.67,0,0,1,5.7-1.21A5.41,5.41,0,0,0,354.95,470.39Z" transform="translate(-2.64 -2.7)"/><path class="cls-4" d="M354.95,465.84q0,2.07,0,4.14A4.77,4.77,0,0,1,354.95,465.84Z" transform="translate(-2.64 -2.7)"/><path class="cls-8" d="M259.42,309c-.11-1.73.26-3.11-1.41-3.61s-3.42-1.06-5.13-1.58a1.93,1.93,0,0,0-1.42,0c-1.89,1-3.75.55-5.6-.06a2.88,2.88,0,0,0-3,.66c-1.5,1.34-1.76,2.21-1,4.19a42,42,0,0,1,2.79,9.48,10.48,10.48,0,0,0,1.48,4,5.91,5.91,0,0,0,5.84,2.71c1.56-.24,2.51-1.35,3.49-2.41,2.46-2.64,2.53-2.65,1.82-6.14a4.8,4.8,0,0,1,1.13-4.59A3.58,3.58,0,0,0,259.42,309Zm-12,3a2,2,0,0,1,.09-2.12,1.87,1.87,0,0,1,2.08-.93c.66.15,1.33.29,2,.48,1.5.44,1.82,1.21,1.1,2.58a3,3,0,0,1-2.45,1.48C249.06,313.28,247.95,313.2,247.39,312Zm4,10.71c-1.11.17-2.06-.87-2.07-2.37a7.09,7.09,0,0,1,.27-1.33,2,2,0,0,1,1.78-1.5,2.18,2.18,0,0,1,2.05,1.47A3.09,3.09,0,0,1,251.4,322.72Z" transform="translate(-2.64 -2.7)"/><path class="cls-8" d="M262.41,344.48c-.59-2.14-.6-2.41-2.81-2.6-3.7-.31-7.36-1.05-11.2-.9a18.11,18.11,0,0,0-6.43.64,3.37,3.37,0,0,0-2.63,4.06c1.14,5,4.16,8.9,7.85,12.32a1.67,1.67,0,0,0,1.48.6,26.91,26.91,0,0,1,5.35-.25,1.84,1.84,0,0,0,1.5-.56c1.92-2.42,4.3-4.49,5.86-7.19A7.72,7.72,0,0,0,262.41,344.48Zm-5.15,5.92a8.76,8.76,0,0,1-2.38,4,5.13,5.13,0,0,1-8.3-1.63,13,13,0,0,1-1.12-4,2.33,2.33,0,0,1,2.26-2.86,12.7,12.7,0,0,1,1.65,0h1.45a13.82,13.82,0,0,1,4.3.34C257.24,347,257.95,348.28,257.26,350.4Z" transform="translate(-2.64 -2.7)"/><path class="cls-8" d="M289.09,305.71a10.37,10.37,0,0,0-6.8-1.55c-2.12-.25-4.26.47-6.47.51a2,2,0,0,0-1.89,1.06,8,8,0,0,0-1,5.54c.66,3.11,2.82,4.93,5.37,6.44s2.52,1.48,1.36,4a1.75,1.75,0,0,0,.3,2.26,2,2,0,0,0,2.31.22,4,4,0,0,0,1.45-1.43c2.72-3.68,4.31-8,6.48-11.95a6,6,0,0,0,.41-1.38C291.11,307.36,290.93,306.92,289.09,305.71Zm-4.38,6.41c-.21.17-.39.39-.6.57-2.69,2.4-2.62,2.7-5.53-.41-.29-.31-.54-.63-.12-1a10.4,10.4,0,0,1,4.42-1.74,2.2,2.2,0,0,1,1.79.71C285.24,310.83,285.53,311.46,284.7,312.12Z" transform="translate(-2.64 -2.7)"/><path class="cls-8" d="M286.09,276.52c-.24-.13-.5-.23-.74-.37-.81-.47-2.13-.64-2.14-1.69s1.21-1.55,2.1-2.06l.19-.09c1.23-.41,1-.84.43-1.88a1.43,1.43,0,0,0-1.61-.63,12.67,12.67,0,0,0-5.23,1.78,7.88,7.88,0,0,0-4,5.95,16.58,16.58,0,0,0,1.15,8.47,3.39,3.39,0,0,0,3.63,2.5,14.17,14.17,0,0,0,6.78-2.22A5.62,5.62,0,0,0,286.09,276.52Zm-4.78,7.11c-1.17,0-2.1-1.29-2.11-2.86,0-1.37.7-2.24,1.85-2.29a2.32,2.32,0,0,1,2.3,2.41C283.38,282.14,282.25,283.65,281.31,283.63Z" transform="translate(-2.64 -2.7)"/><path class="cls-8" d="M227.31,270.13c.41-1.66-.31-2.32-1.94-1.8a8,8,0,0,0-2.44,1.51c-.49.38-.91.85-1.43,1.18-3.69,2.34-6.59,5.57-9.68,8.59a3,3,0,0,0,1.61,5,12.32,12.32,0,0,0,2.47.1,3.63,3.63,0,0,1,3.44,1.4c.61.84,1.37.77,2.14.15,1.12-.91,2.26-1.79,3.37-2.7a2.74,2.74,0,0,0,1-3.44,6.62,6.62,0,0,1-.12-4.25C226.29,274,226.83,272.06,227.31,270.13Zm-6.52,10.35a1.61,1.61,0,0,1-1.8-.68,1.49,1.49,0,0,1,0-1.91c.51-.75,1.21-1.69,2.05-1.46s.68,1.5,1,2.15C221.92,279.56,221.63,280.22,220.78,280.48Z" transform="translate(-2.64 -2.7)"/><path class="cls-8" d="M287.11,345.91c0-1.31.06-2.61,0-3.92,0-.77,0-2-.91-2s-1.41,1-1.73,1.83a9,9,0,0,0-.22,1.21c-.1.47-.22.93-.37,1.39a.93.93,0,0,1-1.11.69,1,1,0,0,1-.95-.94c-.06-.68,0-1.37,0-2.05s-.12-1.87-1-2-1.09.9-1.39,1.56a30.09,30.09,0,0,0-2.45,11.2,30.51,30.51,0,0,0,.59,5.3c.05.37.08.91.63.91s.68-.43.81-.82c.3-.91.53-1.85.85-2.75a1.6,1.6,0,0,1,1.7-1.23c1,.1,1.1.88,1.1,1.68,0,.62,0,1.24,0,1.86,0,.41,0,.87.47,1.05s.74-.22,1-.55.43-.71.63-1.07A20.12,20.12,0,0,0,287.11,345.91Zm-5.29,5.72a1.63,1.63,0,0,1-1.31-1.78,2.06,2.06,0,0,1,1.94-2.19,1.51,1.51,0,0,1,1.35,1.52C283.83,350.37,282.76,351.7,281.82,351.62Z" transform="translate(-2.64 -2.7)"/></svg>