<svg xmlns="http://www.w3.org/2000/svg" viewBox="0 0 478.84 471.9"><title>phoneLogo</title><path d="M4.08,263.91v-8.78c1.05-7,.91-14.16,2-21.17,4.6-30.4,13.21-59.21,33.6-83.24,10.36-12.21,18.1-26.1,25.89-40C78.87,87,94.16,64.68,113.74,45.67c9.56-9.28,21.11-15.1,35.13-13.82,4.74,1.67,4.74,1.67,8.71-5,4.61-4.18,9.87-4.59,15.32-2.18a18.22,18.22,0,0,0,11.74,1.49,8.56,8.56,0,0,1,8.73,3c-2,7,2.08,10.57,7.36,13.74,2.19,1.32,3.86,3.46,5.56,5.42,4,4.59,3.53,8.31-1.45,11.79-5.45,3.81-5.69,4.62-1.29,9.76,7.1,8.32,5.95,17.69,3.88,27.22a26.25,26.25,0,0,1-5,11.47c-3.3,4-6.94,3.92-10.51,0-1.93-1.58-1.07-4.38-2.68-6.1-.33-.35-.94-.87-1.19-.62-.41.39.18.85.51,1.09,2,1.43,1.72,4.18,3.45,5.75,3.16,3.21,2.66,7.17,2,11-.76,4.46-2.15,8.79-2.81,13.3-.52,3.59-3,6-6,7.84-3.34,2-6.56,4.16-8.35,7.89-1.11,2.32-.94,3.63,1.9,4,1.84.25,4.05.28,3.92,3.13-3.56,3.58-8.08,1.43-12.13,2.06-6.09-1.09-8.49-3.71-9.21-10-.55-4.87,1.71-8.36,6.92-10.46,3.31-1.34,6.87-2,10.19-3.3.5-.2,1.4-.13,1.29-.95,0-.31-.85-.32-1.32-.4a18.63,18.63,0,0,1-3.65-1.33c-4.49-1.69-7.79-.89-10.87,2.85s-5.67,7.45-9.32,10.56c-2.35,2-2.67,4.81.1,7.15,2,1.67,3.47,3.49,2.23,6.3-4,3.91-9.27,4.35-14.3,5.28-13.91,2.56-27.06,6.78-37.82,16.48-17.48,15.75-17.7,36.55-4.41,53.45,1.61,2,4.09,2.44,6.42,3.17,2.72.85,5.91.66,7.92,3.25,1.23,2.19.08,4-.85,5.91-1.95,4.07-1.17,5.76,3.13,7.38a9.51,9.51,0,0,0,2.3.78c5.61.56,7.48,7.15,3.46,12.14-1.43,1.78-3.43,3-5,4.66-2.72,3-2.46,4.67,1.32,5.91,6.25,2.06,6.73,7.25,7.24,12.5.47,4.85-2.25,7.5-6.37,9.19-3.91,1.6-5.64,4.39-5.46,8.75.21,4.87-1.66,6.35-6.24,4.7-2.88-1-4.7-.31-7,1.23-5.11,3.44-10.52,6.37-16.92,6.62a10.19,10.19,0,0,0-2.41.3c-1,.27-2,.66-1.75,1.88.23,1,1.28.77,2,.65a13.8,13.8,0,0,1,6.27.22c2,.61,3.09-.63,3.91-2.09,2.35-4.2,6.61-6,10.38-8.41,2.53-1.6,13,.09,15,2.33,2.21,2.54,3.08,5.42,1,8.44-1.69,2.5-5,2.65-8.28.58-4.52-2.89-4.53-2.9-7.23,2-.62,1.14-1.53,2.1-2,3.31-1.11,2.44-.07,3.8,2.08,5.11,5.34,3.25,5.88,13.76,1,17.72-3.23,2.65-7.11,1.87-9.47-1.91-.69-1.1-1.07-2.36-1.73-3.48-.25-.43-.69-.92-1.14-.69s-.24.88-.05,1.32c.78,1.78,1.48,3.6,2.31,5.36,2.8,5.93,5.55,6.7,10.95,3.05a19.16,19.16,0,0,1,5.17-2.64,4.45,4.45,0,0,0,2.92-2.94c3.21-7.62,6.74-9.22,14.9-7,2.4,1.31,3.78,3.55,4.91,5.86,6.08,12.53,16.46,19.54,29.5,23.18a18.69,18.69,0,0,1,5.86,2.21c1.74,2.6,3.8,4,7.28,3.43,3.84-.65,6.56,1.32,7.71,5.12a19.43,19.43,0,0,0,1.58,4.06,7.28,7.28,0,0,0,5.9,3.79c2.62.22,3.37-2.08,4.27-4,3.46-7.27,8.39-12.65,17-13.34,32.63-.35,65.25,0,97.87-.21,9.78-.07,19.47-1.23,28.2-6.2,13-7.39,19.59-18.95,21.48-33.48.25-1.92.12-3.92,1.41-5.57,4.57-4.92,11.18-6.7,16.73-4.5,5.17,2,8.26,7.45,8.64,14,.27,4.61-1.22,8.56-3.3,12.44a3.5,3.5,0,0,0-.3.92c.36-.22.33-.63.42-1,.8-2.88,3-4.49,5.3-6.09,2.65-1.87,3.08-4.4,1.91-7.31-.91-2.26-2.17-4.35-3.14-6.58-2.27-5.2-.35-9.28,5-11.06a20,20,0,0,1,8.15-1c3.13.28,3.82-1,3.49-4-.49-4.45-1.82-8.92-.3-13.48a10.83,10.83,0,0,1,2-4.33,19.42,19.42,0,0,1,16.72-1.76c7.29,2.38,14,1.22,19.86-4.06,1.05-1,2.81-2,2-3.47-.88-1.73-3-1.62-4.76-1.42a3.28,3.28,0,0,0-1.3.62c-6.89,4.33-7,4.37-11.34-1.89-1.49-2.12-1.94-1.75-3.14.29-2.23,3.77-12.08,6.61-16.31,5a5.85,5.85,0,0,1-1.63-5.4c.93-4.16.3-8.41,1-12.56a10.11,10.11,0,0,1,5.65-3.88c5.92-2.68,11.06-.07,16.1,2.56,4.49,2.34,8.76,4,13.63.7,2.47-1.68,5.08-.57,7,1.46,2.45,2.57,4.89,5.14,7.36,7.68,3.08,3.16,3,6.77.28,10.6-1.7,2.37-3.7,4.53-4.22,7.54a3,3,0,0,0,0,1.11,5.86,5.86,0,0,1,.14-1,7.75,7.75,0,0,1,5.48-5.68c3-1,3.92-3,3.3-6a8,8,0,0,1,.94-6.1c4.11-2.81,8.57-5.26,10.31-10.42,2-1.56,1.73-3.61,1.33-5.76-2.26-12.19-.75-24.14,2.45-36,.42-1.56.57-3.23,2.15-4.19,2.58-.21,2.5,1.86,3,3.47,1,3.06.07,6.33,1.08,9.38v59.49c-1,4-.12,8.21-1,12.25-.65,2.56-2.81,4.2-3.92,6.54-3.56,7.5-3.7,14.81.49,22.08,2.23,9.09-1.46,16.58-6.74,23.42-6,7.71-13.35,14.17-19.49,21.7-8.73,10.7-19.73,19.27-27.86,30.53A78.7,78.7,0,0,0,414,432.36a78.13,78.13,0,0,1-9.54,19.08,29.34,29.34,0,0,1-10.62,9.08q-18.33,9.6-37.32,17.86c-10.9,4.76-22.33,5.5-33.87,4.8-14.62-.88-29.19.09-43.77.43-4.79.11-9.69-.62-14.44.7h-40c-7.52-.83-15.12-.84-22.63-1.68-13.23-1.47-26.1-4.77-38.82-8.56-12.26-3.65-24.27-8.1-36.62-11.48C111,458.38,98.26,449.83,86.78,439c-6.47-6.12-13.16-12-19.35-18.44-1.67-1.74-3.62-3.32-3.94-6,0-3.59,2.49-5.45,5.19-7.08,5.87-3.54,5.79-9.78-.2-13.25a30.38,30.38,0,0,0-3.53-1.65c-1.56-.65-3.36-1.78-3.22-3.34.51-5.83-3.68-6.59-7.66-8.1-4.42-1.68-6.95-5.24-7.66-9.93-.35-2.32-.27-4.62,2.43-5.71a3.7,3.7,0,0,1,1.92,0c3.87,1.35,3.73-.75,3-3.43-.51-1.89-1.49-3.59-2-5.49-1.19-4.74-.22-7.17,4.42-8.67,3.16-1,3.42-2.5,2-5-4.09-7.15-4.09-14.93-3.17-22.73.34-2.92-.15-5-2.49-6.81-1.87-1.41-2.73-3.34-1.68-5.56,1.18-2.5-.08-3.47-2.12-4.41a11.08,11.08,0,0,1-5.14-4.34c-1.93-3.3-2.29-6.8-.47-10.22s5-3.73,8.43-3.59c8.88.35,8.88.33,8.91-8.77q0-1.7,0-3.41c0-5.9,0-5.91-5.77-6.21A4.64,4.64,0,0,1,50,262.27a104,104,0,0,1,0-17c.34-4.08,3.1-5.89,7.19-5.21,2.43.4,4.58,1.61,6.86,2.46,1.59.59,3.2.81,4.42-.77a2.47,2.47,0,0,0,.4-2.31c-.33-1-1.23-1.06-2-.81-3.95,1.35-8,1-12.06.94-3.54,0-5,2.49-6.31,5.22-1.47,3.14-1.43,6.64-2.36,9.91-1.1,3.89-2.89,7.36-6.21,9.62-5.52,3.76-9.27,8.88-12.71,14.47-2.49,4.06-4.49,8.79-9.55,10.64-5.26-.55-9.81-5.56-11.63-12.62C5,272.55,5,268.15,4.08,263.91Z" transform="translate(-4.08 -12.41)" style="fill:#c1a2fd"/><path d="M356.34,240.71c19.29,2.28,37.28.64,42.36-22.36,5.41-24.51-6.78-40.23-28.75-49.62-2.37-1-4.63-2.29-6.94-3.45-3.94-6-10.06-4.58-15.74-4.67-54.53-11.71-109.61-8.2-164.64-5.84l-10.19-1.54c2.16-3.66,3.43-8.85,6.64-10.73,14.21-8.31,12.93-21.45,12.25-34.65h0c3.21,1.08,6.85,4.07,9.36-.53,5.73-10.52,10.09-22,3-33-4.84-7.52-7.35-10.76,1.53-18.3,6.55-5.56-5.1-9.54-9.07-13.75-3.55-3.77-9.75-6.27-2.93-12.28,4-1,4.83-4.32,5.7-7.69s1.93-7,6.24-7.85c33.71-6.58,64.52,3.56,95.59,15.1,41.67,15.47,78.87,39.33,117.83,59.9,1.67.88,2.58,3.19,3.84,4.84.29.68,0,1.16-.43,1.71-1,1.42-4,.52-3.8,2.93.17,1.69,2.42,1.87,3.66,2.83,1.72,1.34,3,2.9,2.87,5.24-2.71,5.27-3.25,11.37-6.22,16.53-.86,1.49-.81,2.14,1,1.49,2.39-.83,4.74-.29,7.12,0,3.83,1.2,6.09,4.21,7.88,7.44,2.92,5.29,6.1,9.87,13.1,9.41a3.42,3.42,0,0,1,2.09,1.11c14.68,25.15,15.89,55.21,29.42,80.78-2.43,14.6-5.71,29.14-2.2,44.08.54,2.29-.6,4.33-3.71,2.83-2.23.61-4.51,0-6.75.27-3.89.51-4.63,1.75-3.12,5.32.58,1.36,1.28,2.65.2,4.07,6,12-13.19,15-9.39,26.22-.66-.1-1.76,0-1.9-.34-2.19-5.08-2.63-10.64,1.09-14.7,5.19-5.67,4.67-9.37-1.55-13.54-11.65-7.81-25.76-4.87-38.15-9.22-3.06-1.76-3.29-4.9-3.84-7.88-.11-.61.06-1.65-.53-1.7-1-.09-1,1-1.13,1.76a11.53,11.53,0,0,0,.33,5.23c.49,1.58.67,3.15-.61,4.51l.83,18.43c1.43,2.77.59,5-1.71,6.82-.39,4.44-1.46,8.94-1,13.29.67,6.68,3,12.51-8.41,10.71-7.36-1.16-12.9,3.23-6.59,11.51,9.48,12.45-10.66,16.5-7.27,27-.64-.36-1.81-.68-1.84-1.08-.23-3.06-1.31-6.66-.11-9.11,3.61-7.35,4.67-14.45-1-20.77-5.5-6.09-11.88-2.71-17.89-.14-7-15.66-17.72-29.64-21.21-46.88.18-1.42.06-2.9.8-4.22,4.92-8.79,7.43-18.43,10-28.06C353.19,245.5,353.54,242.43,356.34,240.71Z" transform="translate(-4.08 -12.41)" style="fill:#a793e6"/><path d="M114.19,240.74c33.67,2.64,50.49-7.21,62.81-36.79,3.31-7.95,36.09-19.48,40.91-13.12,3.87,5.11,3.25,14.26,3.05,21.58-.14,5.13-5.54,3.82-9.1,3.7-33.57-1.2-49.23,14-57.47,46.51-5.95,23.43-18.77,45.11-28.52,67.57-2,2.73-5.19,2.32-7.92,2.81a35.49,35.49,0,0,1-12,0,7.58,7.58,0,0,1-6.27-4.69c3.41-3.84,2.5-17.42,12.94-5.68.62.69,3.32-.47,5.05-.77-.83-2.39-.95-5.91-2.62-7-6.09-3.89-13.93-3.44-16.89,2.51-4.56,9.14-11.77,7.39-18.83,7.82-.91.06-1.91-1.5-2.87-2.31,1.57-1.77,2.91-4.72,4.76-5.09,8.19-1.64,17.25-1,21.68-10.4a.94.94,0,0,1,.32-.34c15.64,10.65,6.9-17.07,18.95-12,.68-2,2-4,1.89-5.9-.29-3.68.37-8.06-4.18-10.1-2.26-1-6.82.51-6.23-3.55.45-3.07,3.39-5.75,5.12-8.66,1.48-2.48,3.37-4.95,3.87-7.64.16-.83-3.51-2.9-5.68-3.55C106.14,252.38,111.07,246.43,114.19,240.74Z" transform="translate(-4.08 -12.41)" style="fill:#d2b8fa"/><path d="M30.46,338c-5.66-16.17-11.27-32.35-12.77-49.6C25.34,271.9,43.54,262.8,47.37,243c2-10.57,16.91-1.73,23.1-9.19.3,2,1,4,.82,5.91-.74,9.29-6.13,5-10.77,3.75-2.54-.7-5.35-.45-8-.63-.07,7.09-1,14.34.16,21.21.58,3.36,4.27-.13,6.34-1,3-1.34,3.93.68,3.47,2.63C60.36,274.6,70.7,292,48,287.57c-1-.2-3.39,2.11-3.72,3.57-.85,3.8-.41,7.93,3.83,9.5,9.66,3.56,5.14,13.46,9.06,19.55.6.93-.92,3.13-.38,4.21,7.07,14.17-3.67,28.24-.18,42.37.21.84-.7,2-1.1,3l-6.67-3.46c-4.82-2.38-6.23-6.85-6.76-11.62-.36-3.25-1.28-6.06-3.82-8.12A47.34,47.34,0,0,1,30.46,338Z" transform="translate(-4.08 -12.41)" style="fill:#d2b8fa"/><path d="M30.46,338c13.46,4.66,13,18.4,18.42,28.28-1.84,4.09-.55,9.73,2.34,10.21,10.34,1.72,12.77,11.76,19.59,17.08,12.6,9.83-.87,14.59-6.32,20.56-10.21-5.34-15.45-14.35-18.61-25C40.79,372.06,35.61,355,30.46,338Z" transform="translate(-4.08 -12.41)" style="fill:#e6d9fb"/><path d="M99.68,328.29c8.42,5,17.4,2,26.19,1.91l2,13.74c-12.69-4.28-11.82,13-21.76,13.74-3.06.24-6.44,5.09-9.28,1-3.5-5-5.68-10.9-8.32-16.47-.08-.17,1.49-1.41,1.58-1.33,1.92,1.63,4.09,3.13,5.47,5.17,1.52,2.24,1.41,6.72,5.41,5.18,2.06-.79,4.09-4.17,4.31-6.56.29-3.11,2.52-7.81-3.35-9.07C96.88,334.57,96.95,331.79,99.68,328.29Z" transform="translate(-4.08 -12.41)" style="fill:#dac2fb"/><path d="M407,295.93l1.71-6.82c4.23-4.35,15-.46,14.19-11.28,0,0,1.8-.39,1.94-.14,4,7.14,8.65,11.09,16.93,5.15,1.33-1,4.84,1.16,7.35,1.85-1.89,2.37-3.61,4.91-5.7,7.09C432.47,303.21,418.85,291.79,407,295.93Z" transform="translate(-4.08 -12.41)" style="fill:#e6d9fb"/><path d="M169,155.76l-12.82,1.75c-1.34-4.54-10.66-8-3.85-13.32,7.74-6,10.87-22.77,26.65-13.29,1.5.9,4.21-.21,6.36-.38-1.25,4.82-5.64,5.2-9.31,6.69-4.92,2-12.42,1-12.7,8.78C163.18,149.63,163.16,154.83,169,155.76Z" transform="translate(-4.08 -12.41)" style="fill:#dac2fb"/><path d="M167.88,375.22h43c-7.76.73-11.12,6.46-13.77,12.61-2.32,5.39-7.42,8-10,3.2C182.59,382.62,174.22,380.46,167.88,375.22Z" transform="translate(-4.08 -12.41)" style="fill:#dac2fb"/><path d="M480.89,308.69,477.09,337C470,326.47,472,317.12,480.89,308.69Z" transform="translate(-4.08 -12.41)" style="fill:#e6d9fb"/><path d="M368.7,341.57c6.23.85,9.59,3.77,10.63,8.52.47,2.14-.67,6.59-1.63,6.75-5.88,1-3.5-4.64-5.13-7.23-2-3.22-3.4.38-5.11.65-.85.13-2.44.14-2.5-.09-.44-1.84-1.37-4.17-.63-5.52C365.22,343.05,367.62,342.28,368.7,341.57Z" transform="translate(-4.08 -12.41)" style="fill:#d9c1fb"/><path d="M463.58,280.34c.1-3.44-8-4.84-2.64-9.37,3.7-3.12,8.12-3.66,12.3-.29C473.72,277.61,468.88,279.21,463.58,280.34Z" transform="translate(-4.08 -12.41)" style="fill:#dcc8fb"/><path d="M407.89,270.68c-2.64-6.38-4.18-12.56,3.26-17l2.52,15.09Z" transform="translate(-4.08 -12.41)" style="fill:#dfcffb"/><path d="M191.33,107.87c-2.18-3-7.79-3.26-7.08-8.53.05-.38,2.39-.93,3.43-.61,4.88,1.48,5.33,4.94,3.65,9.14Z" transform="translate(-4.08 -12.41)" style="fill:#a793e6"/><path d="M149.31,33.57l8.86-4.7C156.17,32.25,154.64,36.5,149.31,33.57Z" transform="translate(-4.08 -12.41)" style="fill:#dbc8fb"/><path d="M449.73,143c-15.18,4.94-14.85-12.1-23.41-16.53-5.59-4.33-5.28-9.62.78-13.73,2.1-.72,3.24-1.7,1.89-4.17-.8-1.46-1.38-3.29.41-4.71,4,1.43,6.35,4.51,5.63,8.51C432.55,126.27,444,133.22,449.73,143Z" transform="translate(-4.08 -12.41)" style="fill:#d8c0fb"/><path d="M429.4,103.86c-.54,3.26,6,6.57-.07,9.79-3.55-.86-5.18-3.39-5.88-6.73,4.26-4.58-23.72-6.5-1-12.59Z" transform="translate(-4.08 -12.41)" style="fill:#b68cfa"/><path d="M356.34,240.71c-3.32,13.85-5.49,28.12-14.71,39.79-6.26-8.28-8.12-18.23-10.62-27.95-6.46-25.12-22.77-37.09-48.62-36.49-5.24.12-11.63,1.26-14.18-4.81s-3.83-13.45.66-19.09c4.13-5.18,10.19-1.39,15.51-.89,16.75,1.58,26.39,9,31.64,26.53C321.4,235.67,341,236.23,356.34,240.71Z" transform="translate(-4.08 -12.41)" style="fill:#dcc8fb"/><path d="M347.28,160.62c6.16-1.53,13.29-6.34,15.74,4.67Z" transform="translate(-4.08 -12.41)" style="fill:#c1a0f9"/><path d="M423.45,106.91l5.88,6.73c-7.11,2.84-5,7.86-3,12.83-3.83-3.37-11,6.8-11.62-1.19C414.26,119.41,420.3,113.06,423.45,106.91Z" transform="translate(-4.08 -12.41)" style="fill:#caaefa"/><path d="M214.77,61.18l-1.71,2a19.59,19.59,0,0,1-1.59-3.07c-.1-.31.7-.93,1.08-1.41Z" transform="translate(-4.08 -12.41)" style="fill:#d4c2f6"/><path d="M240.28,287.77a2.55,2.55,0,0,1,1.38-2.24c.73-.48,1.5-.9,2.25-1.35a6.17,6.17,0,0,0,1.78-1.62c1-1.34.78-2.47-.68-3.35a9.83,9.83,0,0,0-1.27-.6c-.37-.16-.76-.26-1.13-.42-4.44-1.83-5-4.8-2.6-8.71a1.79,1.79,0,0,1,2.2-1c1.23.32,2.49.57,3.73.87a5.43,5.43,0,0,0,5.1-1.09,3.15,3.15,0,0,1,.82-.58,1.5,1.5,0,0,1,1.68.31,1.36,1.36,0,0,1,.23,1.49,2.44,2.44,0,0,1-1.25,1.5,10.28,10.28,0,0,1-5.6,1.37,6.3,6.3,0,0,0-3.72.63c-.26.17-.68.27-.59.7s.41.27.65.33c1.18.26,2.36.51,3.53.8a10.58,10.58,0,0,1,4.11,2.08,2.42,2.42,0,0,1,1.07,2.26,13.45,13.45,0,0,1-8.3,11,2.47,2.47,0,0,1-3.41-2.45Z" transform="translate(-4.08 -12.41)" style="fill:#a995e8"/><path d="M212.51,321.36a9.27,9.27,0,0,1,1.47-4.12l2.93-4.8a15.73,15.73,0,0,0,.74-1.42c.79-1.67.7-1.84-1.1-1.81a12.79,12.79,0,0,1-8.07-2.57,5.41,5.41,0,0,1-1-.75c-.44-.52-.87-1.1-.42-1.8s1-.5,1.64-.37a9.52,9.52,0,0,1,1.75.45,15.71,15.71,0,0,0,10.25.41,13.59,13.59,0,0,1,3.6-.29c1.38,0,1.48.2,1,1.57-.34.87-.76,1.72-1.16,2.56a8.28,8.28,0,0,0-.65,1.24,33.16,33.16,0,0,1-4.08,8.45,35,35,0,0,0-2.73,6.69c-.26.75-.54,1.45-1.5,1.19s-2,0-2-1.46C213.14,323.42,212.47,322.46,212.51,321.36Z" transform="translate(-4.08 -12.41)" style="fill:#a995e8"/><path d="M273.63,233a10.73,10.73,0,0,1,6.19,1.37,6.55,6.55,0,0,1,3.19,6.31,34.56,34.56,0,0,1-1.53,8.28,2.47,2.47,0,0,1-.8,1.37,33.43,33.43,0,0,1-5.31,3.63,9.31,9.31,0,0,1-2.27.78c-1.64.29-2.22-.48-1.74-2.1a4.26,4.26,0,0,1,1.27-1.77c1-1,2-2,3-2.93.63-.59.66-1.07,0-1.66a31.66,31.66,0,0,1-2.46-2.38c-.7-.78-.6-1.25.31-1.76s1.85-.8,2.73-1.29c1.64-.91,1.71-2.17.15-3.26a13.65,13.65,0,0,0-3.6-1.77,4.54,4.54,0,0,1-2.28-1.57c-.51-.67-.31-1.15.51-1.2S272.75,233,273.63,233Z" transform="translate(-4.08 -12.41)" style="fill:#a995e8"/><path d="M243.62,253.85H242c-1.46-.07-2-.76-1.77-2.22a5.5,5.5,0,0,1,1-2.17c1.15-1.74,2.51-3.33,3.49-5.17,1.28-2.38,1-3.32-1.25-4.88-.72-.49-1.48-.92-2.23-1.36a3.23,3.23,0,0,1-1.45-1.85c-.43-1.26.27-2.22,1.58-2a12,12,0,0,1,3.05,1c2.37,1.11,4.68,2.34,7,3.47a1.53,1.53,0,0,1,.87,2.14,8.51,8.51,0,0,1-2.16,3.8c-1.5,1.44-2.93,2.93-4.38,4.45-.32.33-.73.69-.5,1.22s.78.4,1.24.39l1.61-.07a1.17,1.17,0,0,1,1.28,1,1.14,1.14,0,0,1-.73,1.3,9.49,9.49,0,0,1-4.28,1h-.81Z" transform="translate(-4.08 -12.41)" style="fill:#a995e8"/><path d="M220.1,234.06a38.23,38.23,0,0,1-1,4.71,46.56,46.56,0,0,0-1.5,6.44,6.43,6.43,0,0,0-.09,1.77,4.88,4.88,0,0,1-.78,3.25,1.59,1.59,0,0,1-3-.76c0-1.47.06-2.93.06-4.42,0-2.22-.46-2.78-2.62-3.36l-.38-.12c-2.53-.58-2.78-1.08-1.62-3.49a7.63,7.63,0,0,1,2.81-3.34c2-1.19,3.9-2.4,5.85-3.56.89-.53,1.32-.37,1.77.55A5.43,5.43,0,0,1,220.1,234.06Z" transform="translate(-4.08 -12.41)" style="fill:#a995e8"/><path d="M216.55,345.11c.17.1.34.19.5.29a1.34,1.34,0,0,1,.28.28c2.79,3.69,3.41,4.06-1.29,6.25a3.3,3.3,0,0,1-4.82-1.82,1.71,1.71,0,0,1,0-1.73c1-1.46,2.08-2.81,4-2.81C215.82,345.59,216.11,345.23,216.55,345.11Z" transform="translate(-4.08 -12.41)" style="fill:#a995e8"/><path d="M254.45,309.44c-.11-1.69.25-3-1.38-3.52s-3.34-1-5-1.54a1.88,1.88,0,0,0-1.38,0c-1.84,1-3.66.54-5.46-.06a2.81,2.81,0,0,0-2.93.64c-1.46,1.31-1.72,2.16-1,4.09a41,41,0,0,1,2.72,9.25,10.22,10.22,0,0,0,1.44,3.9,5.76,5.76,0,0,0,5.7,2.64c1.52-.23,2.45-1.32,3.4-2.35,2.4-2.57,2.47-2.58,1.77-6a4.68,4.68,0,0,1,1.1-4.48A3.49,3.49,0,0,0,254.45,309.44Zm-11.7,2.93a2,2,0,0,1,.09-2.07,1.82,1.82,0,0,1,2-.91c.64.15,1.3.28,2,.47,1.46.43,1.77,1.18,1.07,2.52a2.93,2.93,0,0,1-2.39,1.44c-1.15-.2-2.23-.28-2.78-1.45Zm3.9,10.44c-1.08.17-2-.85-2-2.31a6.91,6.91,0,0,1,.26-1.3,2,2,0,0,1,1.74-1.46,2.13,2.13,0,0,1,2,1.43,3,3,0,0,1-2,3.65Z" transform="translate(-4.08 -12.41)" style="fill:#a995e8"/><path d="M257.37,344c-.58-2.09-.59-2.35-2.74-2.54-3.61-.3-7.18-1-10.92-.88a17.66,17.66,0,0,0-6.27.62,3.29,3.29,0,0,0-2.59,3.86l0,.1c1.11,4.88,4.06,8.68,7.66,12a1.63,1.63,0,0,0,1.44.59,26.24,26.24,0,0,1,5.22-.24,1.79,1.79,0,0,0,1.46-.55c1.87-2.36,4.19-4.38,5.71-7A7.53,7.53,0,0,0,257.37,344Zm-5,5.77a8.54,8.54,0,0,1-2.32,3.9,5,5,0,0,1-8.09-1.59,12.68,12.68,0,0,1-1.09-3.9,2.27,2.27,0,0,1,2.2-2.79,12.39,12.39,0,0,1,1.61,0h1.41a13.48,13.48,0,0,1,4.19.33c2.07.73,2.76,2,2.09,4Z" transform="translate(-4.08 -12.41)" style="fill:#a995e8"/><path d="M283.39,306.23a10.11,10.11,0,0,0-6.63-1.51c-2.07-.24-4.15.46-6.31.5a2,2,0,0,0-1.84,1,7.8,7.8,0,0,0-1,5.4c.64,3,2.75,4.81,5.24,6.28s2.46,1.44,1.33,3.9a1.71,1.71,0,0,0,.29,2.2,2,2,0,0,0,2.25.21,3.9,3.9,0,0,0,1.41-1.39c2.65-3.59,4.2-7.8,6.32-11.65a5.85,5.85,0,0,0,.4-1.35C285.36,307.84,285.18,307.41,283.39,306.23Zm-4.27,6.25c-.2.17-.38.38-.59.56-2.62,2.34-2.56,2.63-5.39-.4-.28-.3-.53-.61-.12-1a10.14,10.14,0,0,1,4.31-1.7,2.15,2.15,0,0,1,1.75.69c.56.57.84,1.18,0,1.82Z" transform="translate(-4.08 -12.41)" style="fill:#a995e8"/><path d="M280.46,277.76c-.23-.13-.49-.22-.72-.36-.79-.46-2.08-.62-2.09-1.65s1.18-1.51,2-2l.19-.09c1.2-.4,1-.82.42-1.83a1.39,1.39,0,0,0-1.57-.61,12.36,12.36,0,0,0-5.1,1.74,7.68,7.68,0,0,0-3.9,5.8,16.17,16.17,0,0,0,1.12,8.26,3.31,3.31,0,0,0,3.54,2.44,13.82,13.82,0,0,0,6.61-2.17,5.48,5.48,0,0,0-.55-9.52Zm-4.66,6.93c-1.14,0-2-1.26-2.06-2.79,0-1.34.68-2.18,1.8-2.23a2.26,2.26,0,0,1,2.24,2.28s0,0,0,.07c0,1.22-1.07,2.69-2,2.67Z" transform="translate(-4.08 -12.41)" style="fill:#a995e8"/><path d="M223.14,271.53c.4-1.62-.3-2.26-1.89-1.76a7.8,7.8,0,0,0-2.38,1.47c-.48.37-.89.83-1.39,1.15-3.6,2.28-6.43,5.43-9.44,8.38a2.93,2.93,0,0,0,1.57,4.88,12,12,0,0,0,2.41.1,3.54,3.54,0,0,1,3.35,1.37c.59.82,1.34.75,2.09.15,1.09-.89,2.2-1.75,3.29-2.63a2.67,2.67,0,0,0,1-3.35,6.46,6.46,0,0,1-.12-4.14C222.14,275.31,222.67,273.41,223.14,271.53Zm-6.36,10.09A1.57,1.57,0,0,1,215,281a1.45,1.45,0,0,1,0-1.86c.5-.73,1.18-1.65,2-1.42s.66,1.46,1,2.1c-.12,1-.4,1.6-1.23,1.85Z" transform="translate(-4.08 -12.41)" style="fill:#a995e8"/><path d="M281.46,345.44c0-1.28.06-2.55,0-3.82,0-.75,0-2-.89-2s-1.38,1-1.69,1.78a8.78,8.78,0,0,0-.21,1.18,13.23,13.23,0,0,1-.36,1.36.91.91,0,0,1-1.08.67,1,1,0,0,1-.93-.92c-.06-.66,0-1.34,0-2s-.12-1.82-1-2-1.06.88-1.36,1.52a29.34,29.34,0,0,0-2.39,10.92,29.75,29.75,0,0,0,.58,5.17c0,.36.08.89.61.89s.66-.42.79-.8c.29-.89.52-1.8.83-2.68a1.56,1.56,0,0,1,1.66-1.2c1,.1,1.07.86,1.07,1.64v1.81c0,.4,0,.85.46,1s.72-.21,1-.54a7.5,7.5,0,0,0,.61-1A19.62,19.62,0,0,0,281.46,345.44ZM276.3,351a1.59,1.59,0,0,1-1.28-1.74,2,2,0,0,1,1.87-2.13h0a1.47,1.47,0,0,1,1.32,1.48c0,1.16-1,2.46-1.93,2.38Z" transform="translate(-4.08 -12.41)" style="fill:#a995e8"/></svg>