<svg id="Layer_1" data-name="Layer 1" xmlns="http://www.w3.org/2000/svg" viewBox="0 0 496.33 491.35">
  <defs>
    <style>
      .cls-1 {
        fill: #f197a7;
      }

      .cls-2 {
        fill: #f6bdc7;
      }

      .cls-3 {
        fill: #f5b8c3;
      }

      .cls-4 {
        fill: #f9d7dd;
      }

      .cls-5 {
        fill: #fadfe4;
      }

      .cls-6 {
        fill: #f8cfd6;
      }

      .cls-7 {
        fill: #f8cad1;
      }

      .cls-8 {
        fill: #f3a8b6;
      }

      .cls-9 {
        fill: #f6c1ca;
      }
    </style>
  </defs>
  <title>pinterestLogo</title>
  <path class="cls-1" d="M249.17,5.2c32.35,9.58,64.79,18.91,95.5,33.19l3,1.53,15.85,7.53L367.57,50,374,55.25l-7.53,3.32-1.38-.1-5.81-5.73-4.88-2.82c-.82,1.76-1.71,3.48-2.42,5.28a38.26,38.26,0,0,0-1.12,3.88c-.42-.12-1.05-.12-1.21-.39-1.65-2.84-1.15-9.15-7.34-4.39a7,7,0,0,0-.45-1.34c-5.51-9.54-16.12-12.93-26.38-8.13-2.2,1-3.87,3.2-5.79,4.84l-4-1.3c3.94-9.29,2.94-10.87-7.32-11.56a39.81,39.81,0,0,0-2.93-6.31c-.59-.88-2.69-1.73-3.46-1.33-4.71,2.4-4.46,2.38-8.06-2.31-1-1.31-4.83-2.4-5.08-2-2.9,4.24-4.48,2-7.1-.44-1.53-1.4-4.68-1-7.1-1.46l1.79,6.61.06,4.37-3,1.53c-2.87-3.6-5.62-7.31-8.7-10.72-.77-.85-2.73-1.16-4-.9s-2.34,1.52-3.5,2.35c.34-1.57.79-3.14,1-4.73a43.22,43.22,0,0,0,.25-6.27,13,13,0,0,0-2.87-.26c-1.19,0-2.38.09-3.57.14.45-1.28.62-2.78,1.42-3.79C245.24,9.1,247.27,7.2,249.17,5.2Z" transform="translate(-2.12 -5)"/>
  <path class="cls-2" d="M388.23,435.6c1.52-2.37,3.21-4.64,4.51-7.12,1.48-2.83,2.26-6.36,6.49-2.53.45.41,4-1.36,4.7-2.8.87-1.72.27-4.19.3-6.34,5.89-3.53,3.76-10.56,6.7-15.38l-8.15-3.48c-.85-4.7-1.81-9.38-2.5-14.1-.18-1.23.44-2.57.7-3.87.93.9,2.41,1.66,2.7,2.74,1.43,5.27,3.13,5.73,6.42,1.12,1.29-1.8,4-2.56,5.75-4.08,5.42-4.61,10.73-4.29,15.52,1.21a10.52,10.52,0,0,1,1.2,2.45,18.31,18.31,0,0,1-3,.42c-2.88-.06-6.08-1.08-8.54-.12-2.26.88-4.37,3.59-5.24,6-.46,1.27,1.87,3.53,2.89,5.38.61,1.09,1.83,2.46,1.56,3.33C418,405.65,415.73,412.91,413,420c-1.14,3-3.42,5.52-5.08,8.32-.92,1.55-2.59,4.43-2.31,4.65,2.91,2.27,6,4.82,9.39,5.76,1.45.4,4.28-2.53,5.8-4.47,4.58-5.88,5.22-14.9,14-17.42-3.91,8.49-8.43,16.76-11.56,25.53-3.19,8.94-7.11,17.36-13.88,23.86-2.58,2.48-7.24,2.8-11,4.1a27.35,27.35,0,0,0-2.7-3.88,28.48,28.48,0,0,0-3.85-2.87c1.64-1.08,3.24-2.24,4.93-3.23,1.27-.75,2.9-1,3.94-2a27.67,27.67,0,0,0,4.66-5.47c1.58-2.5,4.39-5.86,3.7-7.78-1.21-3.36-4.31-6.47-7.39-8.52-1.32-.88-4.57,1.21-7,1.86a9.43,9.43,0,0,1-2.16.09Z" transform="translate(-2.12 -5)"/>
  <path class="cls-3" d="M30,164.42l5.25-10.36c4,4.54,8.88,1.13,13.29,1.18,1,0,3.23-3.6,2.84-4.94-1.89-6.39,2.09-6.18,6.17-6.21-3.19,6.72-4.72,15.63-10,19.59-6.21,4.67-6.55,8.56-5.17,14.61.17.74-1.12,1.86-1.79,2.75-2.57,3.42-3.28,6,2.35,6.75,1.07.13,2,1.57,3,2.43s1.72,1.58,2.58,2.38A32.23,32.23,0,0,0,50,188.91a23.2,23.2,0,0,0,.5-3.52c1,.93,2.6,1.74,2.79,2.81.39,2.16,0,4.46-.07,6.7l-4.37,7.24c-4.39,5.06-8.59,10.21-8.7,17.4.27,4.9.37,9.5-5.48,11.89-1.1.45-1.35,4.15-1.18,6.29.25,3.28,1.49,6.5,1.68,9.78.06,1.05-1.87,2.22-2.89,3.33-.54-1.15-1.8-2.55-1.5-3.41,1.75-5.11-2.22-6.71-5.1-9,1.27-6.95,2.59-13.89,3.79-20.85,1.32-7.67,4-15.65-4.33-21.4a2.35,2.35,0,0,1-.76-1.93c1.3-7.68-1.59-16.17,4.8-23C30.46,169.9,29.77,166.74,30,164.42Zm-2.71,27.36,6.19,5.37c.78-1.14,2.49-2.82,2.2-3.33a66.12,66.12,0,0,0-5.31-7.06Z" transform="translate(-2.12 -5)"/>
  <path class="cls-4" d="M15.51,292.08c-1.47-1-3.45-1.77-4.34-3.19C4.51,278.23,0,267.27,3.15,254c2.28-9.56,2-19.72,4.26-29.29,3.05-13,7.41-25.73,11.21-38.58a20,20,0,0,1,1.47,4.29C21.16,200.59,16.95,211,21.32,221c-1.85,1-3.92,1.69-5.49,3-2.62,2.2-5.63,4.42-7.15,7.32-1.65,3.16.8,4.05,3.78,3.33a2.56,2.56,0,0,1,.76,1.53c0,4.74-.06,4.74,5.18,2.24h1.44C24,247.1,29,255.65,22.92,265.51c-.43.7-.12,1.88-.14,2.83-.12,6.57,1.62,13.74-5.77,18Z" transform="translate(-2.12 -5)"/>
  <path class="cls-5" d="M47.44,373.28c.67,3.37,1.24,6.76,2.08,10.08.14.57,1.34,1,2.13,1.27,4.23,1.33,8.52,2.47,12.68,4,.5.18.9,2.75.38,3.31-4.88,5.23-1.14,5.68,3.14,6,4.9.41,10.51,10.91,8.24,15.49a5,5,0,0,1-2,1.75c-3.54,2-7.12,4-10.69,6a41.17,41.17,0,0,1-19.85-28.87A156,156,0,0,0,30,349.76c-1-2-1-4.6-1.43-6.92,1.4,1,4,2.06,4,3.12.14,7.69,5.51,7,10.5,7L43,360.24c-2.09,4.92,1,7.63,4.38,10.18Z" transform="translate(-2.12 -5)"/>
  <path class="cls-2" d="M249.17,5.2c-1.9,2-3.93,3.9-5.64,6.05-.8,1-1,2.51-1.42,3.79,1.19-.05,2.38-.16,3.57-.14a13,13,0,0,1,2.87.26,43.22,43.22,0,0,1-.25,6.27c-.18,1.59-.64,3.15-1,4.73,1.16-.82,2.23-2.09,3.5-2.35s3.2.05,4,.9c3.09,3.41,5.83,7.12,8.7,10.72l1.43,2.86-2.85,0c-3.32-1.32-7.08-3.74-7.26,2.87h-4.31l0-4.34c-.07-.47,0-1.17-.24-1.38-6.07-4.77-12.13-9.55-18.34-14.14-.66-.49-2.27.12-3.37.43-4.75,1.34-9.4,3.3-14.23,4-5.28.78-8.71,3-10.23,8.14l-4.35,0-2.93-8.72c2.27-2.21,6.85-5.32,6.4-6.46-1.93-4.92,2.81-6.29,3.79-9.44l2.92-1.35c2.18.72,4.58,1.08,6.49,2.24a83.78,83.78,0,0,1,7.8,6l.11-9.93c3.47-.4,6.94-1,10.42-1.16C239.54,4.9,244.36,5.13,249.17,5.2Z" transform="translate(-2.12 -5)"/>
  <path class="cls-6" d="M392.61,438.54a9.42,9.42,0,0,0,2.16-.09c2.4-.65,5.65-2.74,7-1.86,3.08,2.05,6.18,5.16,7.39,8.52.69,1.92-2.12,5.28-3.7,7.78a27.67,27.67,0,0,1-4.66,5.47c-1,1-2.67,1.24-3.94,2-1.69,1-3.29,2.15-4.93,3.23a28.48,28.48,0,0,1,3.85,2.87,27.35,27.35,0,0,1,2.7,3.88l-10.23,7.19c.43-1.37,1.39-2.83,1.16-4.08-.35-2-1-4.87-2.4-5.51-1.94-.9-4.67-.08-7.06,0l3.3,5.67c.24.41.47.83.7,1.25-1.4-.24-3.1,0-4.16-.78-5-3.48-9.8-7.22-14.67-10.87l3-1.52c2.13-.18,5.22.49,6.24-.67C380.65,453.75,386.55,446.08,392.61,438.54Z" transform="translate(-2.12 -5)"/>
  <path class="cls-2" d="M15.51,292.08,17,286.31l11.55-5.87,8.73,1.47c3.45-.34,8,1.51,8.69-4.34.87-2,2.82-4.34,2.39-6.06-.91-3.67.5-4.21,3.42-4.09q0,.72,0,1.44l1.43,2.91v10.15l-11.55,5.83c-1.46-.18-4-.88-4.21-.46-2,4.22-6.16,9.84-4.78,12.72,2.66,5.56-.15,8.38-2.7,11.36s-2.48,4.73-.15,7.9c1.05,1.43-.81,5-1.34,7.59-3.75-3.21-.91-11.16-8.4-11.67l-1.6-5.74c2.42-4.24,1.17-7.56-2.6-10.22Z" transform="translate(-2.12 -5)"/>
  <path class="cls-5" d="M365.07,463.2c4.87,3.65,9.68,7.38,14.67,10.87,1.05.74,2.75.54,4.16.78l1.46,4.2c-11,5-21.88,10.61-33.24,14.79-3.71,1.36-8.75-.9-13.18-1.5q0-1.53,0-3.07l5.83-7.25c2.89.48,5.79,1.42,8.66,1.31,3.11-.11,6.2-1.19,4.4-5.61C357,471.28,358.43,465.93,365.07,463.2Z" transform="translate(-2.12 -5)"/>
  <path class="cls-7" d="M19.86,238.43H18.41l4.09-8.21c1.66-3.33,3.35-6.66-1.18-9.2-4.37-10-.17-20.41-1.23-30.57a20,20,0,0,0-1.47-4.29q.77-4.3,1.53-8.59l2.58-3L30,164.42c-.21,2.32.48,5.48-.78,6.82-6.39,6.81-3.5,15.29-4.8,23a2.35,2.35,0,0,0,.76,1.93c8.36,5.76,5.65,13.74,4.33,21.4-1.2,7-2.52,13.9-3.79,20.85Z" transform="translate(-2.12 -5)"/>
  <path class="cls-8" d="M28.5,326.86c.54-2.6,2.39-6.16,1.34-7.59-2.33-3.17-2.47-4.85.15-7.9s5.36-5.8,2.7-11.36c-1.37-2.88,2.79-8.5,4.78-12.72.2-.42,2.75.28,4.21.46-1.4,2.88-4,5.77-3.93,8.65,0,5.32,1.57,10.64,2.48,16-1.63,3.2-3.79,5.75.47,9.46,2.42,2.1,2,7.16-3.35,7.88-4.72.63-7.93,1.59-3.71,7,.45.57-.44,2.18-.7,3.31l-6.15.44-2.21-9.11Z" transform="translate(-2.12 -5)"/>
  <path class="cls-3" d="M243.24,480.61l2.9,1.48a50.17,50.17,0,0,0,3.18,5.17c.19.24,1.72-.54,2.62-.84,3.22.12,7.15,3.86,9.29-1.85.1-.27,1.66-.09,2.52.05,6.23,1.07,12.44,2.18,18.66,3.28.08,2-6.21,4.2.21,6-3.67.7-7.31,1.83-11,2-8,.41-16,.34-23.95.46-1.43-6.29-6.57-3.4-10.24-4.12q0-2.18,0-4.36h0l5.78-7.2Z" transform="translate(-2.12 -5)"/>
  <path class="cls-5" d="M114.17,464.66,127.35,460c.45-.16,1.21-.56,1.32-.43,3.81,4.5,9.06,6.08,14.47,7.54,1.34.36,2.61,3.18,3.41,3,8-2.12,8.74,4.42,11.12,9-10.07-3.08-20.17-6-30.19-9.28C123,468.38,118.6,466.4,114.17,464.66Z" transform="translate(-2.12 -5)"/>
  <path class="cls-5" d="M67.71,427c4.61-.79,9-2.45,12.5,3.22,1.16,1.9,5.84,2.8,8.6,2.32,6.6-1.13,8.57,3.7,11.27,7.58.78,1.12.94,4.15.32,4.52-5.95,3.54-1.06,7.49-.7,11.22-4.52-3.91-9.11-7.74-13.53-11.75C79.94,438.47,73.85,432.7,67.71,427Z" transform="translate(-2.12 -5)"/>
  <path class="cls-9" d="M193.9,480.64c-.45-1-.63-2.34-1.39-2.85-2.53-1.72-5.43-2.93-7.82-4.79-.75-.59-.37-2.63-.51-4a15.35,15.35,0,0,0,2.78,1.41,13.16,13.16,0,0,0,2.95.18,34.78,34.78,0,0,0,0-4.55,28.09,28.09,0,0,0-1.13-4.06c2.18.82,4.9,1.1,6.37,2.61a10,10,0,0,1,2.42,6.48c0,4.71-1.07,9.71,5.95,4.33,1.64,3.46,3.7,6.79,4.75,10.42.52,1.8-.81,4.14-1.31,6.23L194,487.77Q194,484.21,193.9,480.64Z" transform="translate(-2.12 -5)"/>
  <path class="cls-7" d="M462.58,140.82c-8.08,5.65-9.11,5.24-13.38-5.41l-10.14-8.71q0-.71,0-1.42c-.43-1.83-.27-4.23-1.39-5.39-3.95-4.07-3.27-6.23,2.14-7.42.82-.18,1.46-1.13,2.19-1.73,6.81-3.41-1.51-6.65-.11-10,4.95,1.8,6.89,4.81,6,10.47-.62,4,.82,8.39,1.34,12.61.79,12.76,4.54,17.27,13.17,15.83Q462.47,140.24,462.58,140.82Z" transform="translate(-2.12 -5)"/>
  <path class="cls-8" d="M57.53,144.09c-4.07,0-8.06-.18-6.17,6.21.4,1.34-1.84,4.95-2.84,4.94-4.42,0-9.3,3.37-13.29-1.18L37.46,150l2.84-4.18.13-.13,2.74-2.74,12.9-13.37c5.54,3.79-.32,8.89,1.51,13.11Q57.55,143.38,57.53,144.09Z" transform="translate(-2.12 -5)"/>
  <path class="cls-3" d="M321.56,477.72l1.43,0,2.93,10.17q0,1.45,0,2.89l-4.48,1.5c-3-.84-6.89-9.34-8.51,1l-5.85,0-4.48-3.45-1.38,3.56-3-.26-1.32-6.72c6.48-.36,5.74-6.89,8.76-10.22l5.78,0a45.88,45.88,0,0,0,2.84,4c1.75,2,3.65,3.88,5.49,5.81Zm-11.23,8.19c.17-.41.57-.9.45-1.2s-.75-.38-1.15-.55c-.17.41-.57.9-.46,1.19S309.92,485.73,310.33,485.91Z" transform="translate(-2.12 -5)"/>
  <path class="cls-6" d="M207,9.28c-1,3.15-5.72,4.52-3.79,9.44.45,1.14-4.14,4.25-6.4,6.46L194,23.74c-1.11-.86-3-2.62-3.21-2.45-7.41,6.62-13.5,0-20-1.85,2.46-.58,5-1,7.36-1.77,5.72-1.92,11.31-4.24,17.08-6C199,10.51,203,10.05,207,9.28Z" transform="translate(-2.12 -5)"/>
  <path class="cls-8" d="M325.92,490.76v-2.89c1.62-1.47,3.85-4.5,4.77-4.15,5.71,2.23,6-1.66,6.92-5.25.3-1.13,1.45-3,2-2.94,5.63.82,4.61-3.44,5.2-6.48l7.18-1.59c7.46,4.86-.47,7.85-1.42,11.68L344.75,482l-5.83,7.25L336.05,491l-4.18.15Z" transform="translate(-2.12 -5)"/>
  <path class="cls-1" d="M441.83,100.75c-1.4,3.35,6.92,6.59.11,10l-5.79-7.29a35.5,35.5,0,0,0-4.08-3.61c-.61-.41-2.25.46-2.63,0-2.16-2.4-4.08-5-6.09-7.55,2.81-.37,5.61-.88,8.43-1.06A18.63,18.63,0,0,1,436,92Z" transform="translate(-2.12 -5)"/>
  <path class="cls-5" d="M491.21,342.83c-4-2.21-5.4-5.19-3.19-9.57.7-1.4,1.58-3.74.94-4.61-3.56-4.85-.94-9,.85-13.37q0-.7.07-1.41l5.61-1.55c-.74,9.55-1.44,19.11-2.3,28.65C493.12,341.65,491.89,342.21,491.21,342.83Z" transform="translate(-2.12 -5)"/>
  <path class="cls-1" d="M296.86,486.45l1.32,6.72-15.56.7c-6.42-1.77-.13-4-.21-6l1.38-.1L294,486.34Z" transform="translate(-2.12 -5)"/>
  <path class="cls-5" d="M193.9,480.64q.05,3.56.11,7.13L175.07,485c2.47-5.83,7.87-4.85,12.56-5.21C189.69,479.62,191.81,480.33,193.9,480.64Z" transform="translate(-2.12 -5)"/>
  <path class="cls-6" d="M26.78,340.38l6.15-.44c2.38,2.2,5,4.18,7.07,6.67,1.45,1.78,2.08,4.23,3.08,6.38-5-.06-10.36.67-10.5-7,0-1.07-2.61-2.08-4-3.12Z" transform="translate(-2.12 -5)"/>
  <path class="cls-1" d="M398.34,66.06c-.11.46-.08,1-.36,1.37-1.72,2.06-3.44,5.65-5.28,5.72-2.55.09-4.72-10.19-3.08-12.9Z" transform="translate(-2.12 -5)"/>
  <path class="cls-6" d="M224.31,6.21l-.11,9.93a83.78,83.78,0,0,0-7.8-6c-1.91-1.16-4.31-1.52-6.49-2.24Z" transform="translate(-2.12 -5)"/>
  <path class="cls-6" d="M28.5,326.86l-3.94,4.41L20.1,315.2C27.59,315.71,24.75,323.66,28.5,326.86Z" transform="translate(-2.12 -5)"/>
  <path class="cls-3" d="M385.36,479l-1.46-4.2c-.23-.42-.46-.83-.7-1.25l-3.3-5.67c2.39-.08,5.12-.9,7.06,0,1.39.64,2.05,3.52,2.4,5.51.22,1.25-.74,2.71-1.16,4.08Z" transform="translate(-2.12 -5)"/>
  <path class="cls-6" d="M163.55,21.12c-2.6,3.11-5,6.44-8,9.14-.59.53-3.39-1.37-5.16-2.15Z" transform="translate(-2.12 -5)"/>
  <path class="cls-8" d="M237.43,487.86q0,2.18,0,4.36l0,1.67h-4.34l-2.93-7.46Z" transform="translate(-2.12 -5)"/>
  <path class="cls-1" d="M376.72,55.48c.07.46,0,1.07.23,1.36,1.56,1.69,3.2,3.31,4.81,5a10.87,10.87,0,0,1-2.41,0c-3.35-.75-6.88-1.44-5.42-6.34Z" transform="translate(-2.12 -5)"/>
  <path class="cls-6" d="M237.47,493.9l0-1.67c3.68.72,8.81-2.17,10.24,4.12Z" transform="translate(-2.12 -5)"/>
  <path class="cls-8" d="M312.93,493.29c1.62-10.37,5.53-1.87,8.51-1a4.4,4.4,0,0,1-.09,1.22Z" transform="translate(-2.12 -5)"/>
  <path class="cls-6" d="M15.9,299.23c3.77,2.67,5,6,2.6,10.22Z" transform="translate(-2.12 -5)"/>
  <path class="cls-5" d="M321.35,493.48a4.4,4.4,0,0,0,.09-1.22l4.48-1.5,6,.36Z" transform="translate(-2.12 -5)"/>
  <path class="cls-9" d="M301.22,493.43l1.38-3.56,4.48,3.45Z" transform="translate(-2.12 -5)"/>
  <path class="cls-8" d="M367.57,50l-4.09-2.55Z" transform="translate(-2.12 -5)"/>
  <path class="cls-3" d="M40.3,145.82,37.46,150Z" transform="translate(-2.12 -5)"/>
  <path class="cls-3" d="M43.17,142.94l-2.74,2.74Z" transform="translate(-2.12 -5)"/>
  <path class="cls-6" d="M336.05,491l2.87-1.71q0,1.53,0,3.06Z" transform="translate(-2.12 -5)"/>
  <path class="cls-4" d="M22.73,174.51l-2.58,3Z" transform="translate(-2.12 -5)"/>
  <path class="cls-2" d="M114.17,315.26c-.89-1.93-2.82-4.1-2.45-5.75.7-3.06,2.09-7.59,4.33-8.4,10.53-3.84,10.67-3.47,7.75-14.27-.31-1.16-.64-2.31-1-3.46,3.28,2.3,7.57,4,9.53,7.07,1.82,2.9,1.79,7.56-3.45,9.2-.64.2-.84,1.84-1.24,2.82,1.06.22,2.59,1,3.11.58,5.36-4.49,7.69-1.34,9.44,3.53.46,1.72,1,5,1.38,4.94,8.1-.31,3.47,5.42,4.06,8.48.33,1.73-.84,4.36,0,5.26,2.77,2.85,2.23,4.57-.75,6.57-.64.43-.56,2-.81,3,.88-.11,1.94,0,2.61-.4a35.11,35.11,0,0,0,3.7-3.17l4.35,4.35a23.59,23.59,0,0,0-2.1,4.76,50.3,50.3,0,0,0-.52,6.83h5.52c1.79,1.37,3.74,4,5.33,3.83,2.67-.33,5.11-2.49,7.64-3.88l-7.57-7.88a50.82,50.82,0,0,1-2.62,5.26,15.92,15.92,0,0,1-2.78,2.67q0-5.8,0-11.59c-1.64-2.69,5.64-8.36-2.93-8.72l0-4.34c4.13-2.61,8.31-5.15,12.35-7.89a3.91,3.91,0,0,0,1.61-2.85c-.35-5.48.11-11.47-6.65-13.92V295l4.31-2.85c3.95-2.06,8-4,11.78-6.27,1.23-.75,1.74-2.6,2.75-3.8a41.18,41.18,0,0,1,3.21-3.12l8.36,4.47c-1,1.37-1.73,3.35-3.07,3.92s-3.07-.52-4.64-.87c.22,1.95,0,4.09.74,5.8,2.86,6.53,1.2,11.61-4.32,16.24-2,1.64-3.06,5.42-2.93,8.14.16,3.43,1.76,6.87,3.15,10.14,1.71,4,.8,6-3.73,5.91-1.2,0-2.64-.39-3.57.13a27.53,27.53,0,0,0-4.25,3.55,33.57,33.57,0,0,0,4.76,2.42c1.89.63,4.69.12,5.77,1.31,5.55,6.1,5.45,10.85.57,17.95-.9,1.3-1.16,3-1.72,4.56,2-.39,4.64-.14,5.92-1.33,1.57-1.46,2.08-4.11,3-6.27s1-5.22,2.53-6.29c3.87-2.67,5.87-4.65,1.59-8.78-.89-.86.24-3.81.43-5.79a29.69,29.69,0,0,0,4.24,2.08c2.86.9,5.8,1.55,8.7,2.3q.55,25.33,1.1,50.66c-1.57,1.87-3.18,3.7-4.68,5.62-2.77,3.55-4,10.88-10.78,4.27a1.39,1.39,0,0,0-.62-.36c-3.28-.75-6-5-6.13-9.39a36.63,36.63,0,0,0-.47-3.83c-1.3.52-2.57,1.38-3.9,1.49-2.62.22-6.23,1.1-7.72-.22-2.7-2.38-3-6,2.25-6.11,4.1-.11,6.56-1.3,6.19-5.84l4-3.37-4.18-3.66-2.67,5.5c-1.46-2.14-3.67-4.1-4.25-6.45-1.62-6.65-2.34-13.69-12.2-11.2-.56.14-1.28-.59-2-.66-1.8-.19-3.61-.25-5.42-.37.27,2,0,4.27.89,6,2.4,4.85,5.29,9.45,7.85,14.22a14.47,14.47,0,0,1,.87,3.66c-1.24-.58-2.83-.86-3.67-1.8-3.25-3.65-6.26-7.52-9.37-11.29-2.51-3-4.43-5-5,1.26-.15,1.7-2.89,3.17-4.44,4.75-.36-2-1.38-4.19-1-6,2.2-9.61-3.07-15.26-14.61-15.26-1-5.73,3.86-6.91,7-9.6,1.36-1.16,1.71-3.5,2.52-5.3-2.11.16-4.22.33-6.34.46a32.51,32.51,0,0,1-3.5.09c-3-.14-7.41-1.71-8.85-.28-4.49,4.47-4,4.76-9.24.29-2.23-1.92-5.14-3-7.74-4.5a90.85,90.85,0,0,1,5.06-9.16,5.49,5.49,0,0,1,4.26-2c.86.07,1.48,2.35,2.34,3.54,1.13,1.57,2.12,3.54,3.69,4.38,1,.55,4.24-.61,4.24-1a14.2,14.2,0,0,0-1.29-5.81A50.21,50.21,0,0,0,114.17,315.26Zm76.4,62.34a12.4,12.4,0,0,0-3.62,2.95c-.46.66.79,3.67,1.67,3.88,3.69.88,8.41-.43,9.06,5.45,1.08-.65,2.66-1,3.15-2C203.59,382.49,199.67,377.83,190.57,377.61Z" transform="translate(-2.12 -5)"/>
  <path class="cls-4" d="M200.73,458.61c-32.9-17.19-32.46-19.33-31.38-21.06,2.61-4.17,5.67-8.13,1.47-13,1-.79,2.57-2.43,2.82-2.25,4.88,3.6,9.56,2.87,14.86.66,3.4-1.42,6.6-.12,7,4.69.13,1.63,1.61,3.15,2.48,4.73,1.14-1.15,2.28-2.29,3.41-3.46.16-.16.19-.57.33-.6,5.53-1.05,11.11-1.87,16.58-3.18a56.31,56.31,0,0,0,8.71-3.41,23.68,23.68,0,0,0,2.85-1.69,14.86,14.86,0,0,1,.65,3.57c-.51,8.25-1.82,16-10.25,20.54-.91.49-.61,5.36.6,7.27,3.78,6,8.34,11.42,12.4,17.22.88,1.26.89,3.14,1.3,4.73-1.36-.45-3-.53-4-1.4-6-5.22-12.34-1.39-18.56-1.08-1.5.07-3.7.05-4.43-.86-4.26-5.25-8.18-10.78-12.23-16.2-.79-1.06-1.71-2-2.56-3-.74,1.1-1.46,2.22-2.24,3.3-1,1.4-2,2.76-3.06,4.14a38.61,38.61,0,0,0-3-5,3.81,3.81,0,0,0-3-1.39c-4.65,1.07-14.37-4.53,19.33,6.74Q251.44,480.75,200.73,458.61Z" transform="translate(-2.12 -5)"/>
  <path class="cls-4" d="M350.44,287.65l10.25-20.24c7.12,1.34,12.74,3.12,10.78,12.94-.81,4.05,3.28,7.89,8.77,7.36,4.2-.4,7.12.43,8.93,5.16.88,2.31,5.06,3.19,7.36,5.16,1.79,1.53,3,3.76,4.44,5.68-1.92-.3-3.85-.58-5.76-.9s-4.07-.72-6.11-1.08c.71,1.66,1.79,3.28,2,5,.28,1.93.14,5.59-.37,5.69a68,68,0,0,1-10.24.68c.48-1.88.67-3.91,1.5-5.62,2.45-5,.05-9.26-5.49-8.74s-8-.66-6.14-6.73c.18-.57-3.79-3.19-4-3C360.44,294.92,355.4,292,350.44,287.65Z" transform="translate(-2.12 -5)"/>
  <path class="cls-2" d="M43.07,353c-1-2.15-1.63-4.6-3.08-6.38-2-2.49-4.68-4.47-7.07-6.67.27-1.13,1.15-2.74.7-3.31-4.22-5.37-1-6.32,3.71-7,5.35-.72,5.77-5.78,3.35-7.88-4.27-3.7-2.1-6.25-.47-9.46,1.67.65,4.43.92,4.83,2A70.57,70.57,0,0,1,48,326.82c.14.86-1.08,2-1.81,2.92-.91,1.14-3,2.48-2.75,3.18a6.93,6.93,0,0,0,3.27,3.94A78.71,78.71,0,0,0,56.1,340c1.6,2.84,3.1,5.74,4.83,8.5a34.57,34.57,0,0,0,3.31,3.92c-1.89,1.35-3.82,3.87-5.67,3.81-4.84-.16-9-1.26-4.77,5.92,1.73,2.94,2.11,6.67,3.1,10l1.35,4.61c-1.79,0-3.73.39-5.33-.16-2-.69-3.67-2.17-5.49-3.32q0-1.43-.05-2.86L43,360.24Z" transform="translate(-2.12 -5)"/>
  <path class="cls-7" d="M56.1,340a78.71,78.71,0,0,1-9.44-3.08,6.93,6.93,0,0,1-3.27-3.94c-.22-.71,1.84-2,2.75-3.18.73-.91,2-2.07,1.81-2.92a70.57,70.57,0,0,0-2.91-12.44c-.4-1.11-3.15-1.38-4.83-2-.91-5.32-2.45-10.63-2.48-16,0-2.87,2.54-5.76,3.93-8.65l11.55-5.83c1.42.18,4,.8,4.09.47A27.54,27.54,0,0,0,59,275.52c.55-4.84-1.4-6.22-5.75-3.76l-1.43-2.91c1.56-1.1,3.07-2.25,4.68-3.27,1.31-.83,3.34-2.43,4-2,1.33.88,2.77,2.85,2.73,4.33-.14,5.16-1,10.29-1.34,15.44-.13,1.95.56,3.94.67,5.92a23.57,23.57,0,0,1-.39,3.83,19,19,0,0,1-4-.71c-1.21-.48-14-1.68-14.12-1-.38,3.3-1.43,7.14-.17,9.81,1.06,2.25,4.83,3.55,7.65,4.52,2.17.74,4.74.29,7.13.36-1.87,2-3.67,4.16-5.66,6.08a16,16,0,0,1-3.26,1.93c1.14.79,2.26,2.24,3.41,2.26,6.7.11,6.17,2.66,3.57,7.55-1.29,2.42-.14,6.11-.2,9.22C56.45,335.4,56.24,337.68,56.1,340Z" transform="translate(-2.12 -5)"/>
  <path class="cls-7" d="M99.64,331.24c2.6,1.48,5.52,2.59,7.74,4.5,5.19,4.47,4.75,4.19,9.24-.29,1.43-1.43,5.81.14,8.85.28a32.51,32.51,0,0,0,3.5-.09c2.11-.13,4.22-.3,6.34-.46-.81,1.8-1.16,4.14-2.52,5.3-3.17,2.69-8.07,3.87-7,9.6l-2.9-1.44-4.46-3.35L117.06,353c.07,1.44.19,2.88.21,4.32,0,2.18,0,4.36,0,6.54-1.16-1.26-2.13-2.93-3.57-3.61-.84-.4-2.53.62-3.65,1.3-3,1.81-5.85,5.25-8.82,5.32-3.78.09-7.35-2.14-7.82-7.6-.25-2.85-4.14-5.2-5.33-8.2-.87-2.18,0-5,.07-7.61,2.37,1.57,5.28,2.7,7,4.81,2.54,3.14,1.91,11,7.82,8.27,2.84-1.32,2.77-9.11,3.68-14,.08-.45-2.52-2.2-3.45-1.92-7.13,2.14-7.19-.73-4.57-5.94A20.21,20.21,0,0,0,99.64,331.24Z" transform="translate(-2.12 -5)"/>
  <path class="cls-3" d="M229.88,370.15c3.08-9.51,6.42-18.94,9.18-28.55,3.1-10.8,5.66-21.75,8.49-32.62.52-2,1.26-3.93,1.89-5.9,1.43,1.52,2.89,3,4.29,4.57a15.27,15.27,0,0,1,1.21,1.78c.81,4.59.78,9.55,2.62,13.67,2.8,6.28.16,9.49-5.11,10.81-6.63,1.65-4.73,5.77-4.25,10.06a17.68,17.68,0,0,1-.71,8.19c-2.16,5.44-5,10.62-7.57,15.89-1.23,2.51-2.51,5-3.77,7.5Z" transform="translate(-2.12 -5)"/>
  <path class="cls-5" d="M95.62,401.22a68,68,0,0,1-7-1.48c-8.6-2.75-10.21-7.7-4.31-14.26,2.66-3,2.79-3.59-1.22-5.11-3.64-1.38-6.71-4.39-9.83-6.92-.53-.43-.39-2.89,0-3,1.39-.52,3.17-1,4.48-.56,4.22,1.43,8.21,3.59,12.47,4.84,2,.58,4.42-.09,6.57-.56,4.76-1.06,7.51-.49,6.38,5.53-.94,5-2.25,10.39-1.33,15.2C103.08,401.33,100,401.19,95.62,401.22Z" transform="translate(-2.12 -5)"/>
  <path class="cls-5" d="M431.64,288.29l3.84-.35c-.59-1.25-1.55-2.46-1.69-3.75a39,39,0,0,1,.23-6.11c2,1,4.62,1.45,5.72,3,2,2.88,3,6.44,4.56,9.65a8.87,8.87,0,0,0,1.88,2c.5-.7,1.49-1.44,1.43-2.09-.67-7.38,4.61-5.73,8.68-5.74a41.19,41.19,0,0,1,6.29.6c.78.12,2.05.63,2.1,1.08a3.17,3.17,0,0,1-1.06,2.31c-4.68,4.12-8.87,9.56-14.35,11.77-4.55,1.83-10.89.68-16-.74-4.11-1.15-7.43-3.08-11.18.43-1.23,1.15-3.06,1.65-4.61,2.45-.36-2.68-1.94-7-.88-7.78,4.37-3.32,9.54-5.58,14.41-8.23Z" transform="translate(-2.12 -5)"/>
  <path class="cls-7" d="M37.28,281.91l-8.73-1.47c-.14-1.77-.85-3.73-.32-5.26a71.22,71.22,0,0,1,4.84-10.58c.46-.84,2.8-1.71,3.13-1.39,5.16,5,4.67-.73,5.3-2.94,1.55-5.4,2.59-10.95,3.94-16.41,1-4.22,3.49-5.26,8-4.9s9.49-1.26,14.24-2c-.88,1.85-1.3,4.44-2.76,5.36-2,1.29-4.88,1.33-7.38,1.9l-7.33-.31a38.63,38.63,0,0,1,1.07,5.63c.26,6,.33,11.92.47,17.88-2.92-.12-4.33.42-3.42,4.09.43,1.71-1.52,4-2.39,6.06A13.08,13.08,0,0,0,42.79,276c-2.45-.46-5-.61-7.43-.88Z" transform="translate(-2.12 -5)"/>
  <path class="cls-9" d="M321.56,422.61c-1.19-.14-2.38-.3-3.58-.4-1.82-.15-3.65-.26-5.48-.38.36,1.75.76,3.5,1.07,5.26.65,3.67,2.59,7.89-2.63,9.77-3.61,1.3-12-3.48-12.24-7-.4-7.1-.3-14.24-.19-21.35,0-.5,1.88-1.42,2.82-1.34a16.71,16.71,0,0,1,4.18,1.46c.12-1.52.16-3.06.39-4.57.2-1.3.63-2.56,1-3.83.55,1.15,1.58,2.32,1.56,3.45-.09,3.57,1.54,4.54,4.64,6.48,3.91,2.45,5.77,8.17,8.51,12.48Z" transform="translate(-2.12 -5)"/>
  <path class="cls-9" d="M296.86,486.45l-2.84-.11-3-5.79c1.83-6.05,3.77-12.07,5.45-18.16.85-3.09,4-6.85-1.71-8.75.85-2,1.42-5.43,2.6-5.65,7.35-1.38,9.35,1.31,8.64,9.18-.57,6.32-.3,12.71-.4,19.07C302.6,479.56,303.34,486.09,296.86,486.45Z" transform="translate(-2.12 -5)"/>
  <path class="cls-7" d="M339,406.66l5.81-2.91c3.82.16,9.85-1.33,4.35,5.81-5.22-.21-5.6,3.46-5.81,7.26-2.77.28-5.55.5-8.3.87-.58.08-1.52.61-1.56,1-.49,4.69-.82,9.4-1.23,14.1-.07.83-.08,2.07-.57,2.36-.69.41-2.38.46-2.64,0-2.6-4.12-5-8.37-7.44-12.58h0c4.13.5,6.37-.94,5.81-5.48-.66-5.32,1.27-6.53,6.51-5C337.58,413.25,342.37,413.2,339,406.66Z" transform="translate(-2.12 -5)"/>
  <path class="cls-4" d="M152.87,424c.3-8.17,3.89-13.26,11.36-15.3,1.22-.33,2.84.83,4.28,1.31-.7,1-1.2,2.34-2.13,3.08-5.24,4.12-5.84,10.24-2.14,15.92,1.4,2.15,1.61,5.24,1.72,7.93,0,.6-3.66,2.17-3.95,1.84C158.18,434.37,152.31,431.06,152.87,424Z" transform="translate(-2.12 -5)"/>
  <path class="cls-2" d="M350.54,479.14c.95-3.84,8.87-6.83,1.42-11.68.49-1.85,1.31-3.67,1.42-5.54.25-4.39.28-8.31,5.33-2.48.59.68,3.06.66,3.8,0s.89-2.59.71-3.89c-.64-4.81-1.74-9.57-2.15-14.39-.1-1.21,1.73-2.59,2.68-3.89.92,1.14,2.84,2.64,2.59,3.37-2.14,6,2.3,9.6,4.61,14L368,461.68l-3,1.52c-6.64,2.73-8.05,8.08-7.27,14.53Z" transform="translate(-2.12 -5)"/>
  <path class="cls-3" d="M476.75,297.87q0-7.24,0-14.48l9.9-3a40,40,0,0,0-3.12,5.13,7.36,7.36,0,0,0-.29,4c.07.41,1.84,1.07,2.39.77,8.58-4.55,7.35.37,6,5.95-.33,1.41.67,3.14,1.06,4.72l-1.57,4.85a44.73,44.73,0,0,0-1.5-4.33c-.68-1.5-1.27-3.39-2.5-4.2-2-1.3-4.44-1.86-6.69-2.73a48.19,48.19,0,0,0,1,6.58c.43,1.49,2.19,2.78,2.21,4.17,0,1.23-1.56,2.47-2.43,3.71-1-.89-2.43-1.62-2.77-2.7A75.4,75.4,0,0,1,476.75,297.87Z" transform="translate(-2.12 -5)"/>
  <path class="cls-8" d="M368,461.68l2.89-7.07c4.67-.05,8.27-2.63,7-7-3-10.12,4.51-10.07,10.31-12l4.38,2.94c-6.06,7.54-12,15.2-18.33,22.47C373.27,462.17,370.18,461.5,368,461.68Z" transform="translate(-2.12 -5)"/>
  <path class="cls-9" d="M237.43,487.86l-7.23-1.43c-3.67-2.48-7.3-5.08-11.39-.62a7.45,7.45,0,0,1-2.29,1.15c-.21-1.13-.75-2.3-.58-3.37.81-5.16,8.78-9.4,13.9-8,1.28.34,3.11-1.4,4.69-2.19h0l8.71,7.23,0,.07c-6.38-1.18-5.62,3.38-5.78,7.2Z" transform="translate(-2.12 -5)"/>
  <path class="cls-2" d="M406.93,314c-1.14,8.74-9,16.68-15.65,16.66-1.41,0-4.23-4.68-4-4.94A159,159,0,0,1,402,311.64C402.7,311.1,405.69,313.38,406.93,314Z" transform="translate(-2.12 -5)"/>
  <path class="cls-3" d="M57.57,244.21c2.5-.57,5.33-.61,7.38-1.9,1.47-.92,1.88-3.51,2.76-5.36l1.46-13,2.92-1.47L79.33,221l4.11,1.95c-1,1.55-1.71,4.15-3,4.47-8.74,2.14-8.82,8.41-8.45,15.51s-1.07,7.85-7.84,5.17c-2.17-.86-4.39-1.59-6.59-2.38Q57.57,244.95,57.57,244.21Z" transform="translate(-2.12 -5)"/>
  <path class="cls-4" d="M156.36,445.5c-1.33.64-2.34,1.58-3.07,1.39-3.92-1-8-1.78-11.55-3.57-1.51-.76-3-4.05-2.56-5.69.93-3.56,3.1-6.79,4.76-10.16,1.7,1.54,3.82,2.81,5,4.68C151.57,436.26,153.72,440.66,156.36,445.5Z" transform="translate(-2.12 -5)"/>
  <path class="cls-5" d="M127.35,419.3c3.23-3.92,6.49-8.34,10.35-12.14.61-.6,4.16,1.23,5.83,2.58.51.41-.44,3.14-1.22,4.52a38.51,38.51,0,0,1-5.26,7.75c-1.82,1.91-4.43,3.08-6.68,4.57Z" transform="translate(-2.12 -5)"/>
  <path class="cls-2" d="M287.93,426.7c-.83.5-1.62,1.35-2.47,1.42-5.66.48-11.32.89-17,.95-.47,0-1.73-3.11-1.29-4.26,1.15-3,3-5.68,4.64-8.49,2.45-4.29,4.63-1.69,6.76.31,2.69,2.54,2.09,8.54,8.1,7.68C286.91,424.29,287.32,425.51,287.93,426.7Z" transform="translate(-2.12 -5)"/>
  <path class="cls-7" d="M84.32,274.27c-.74,3.73-1.41,7.46-2.33,11.14-.08.33-2.29.7-2.71.27a69,69,0,0,1-5.94-7.09,7.16,7.16,0,0,1-1-3.12c5.34-2.25,5.34-7.49,6.91-11.87.22-.63,1.86-1.43,2.16-1.21a4.88,4.88,0,0,1,2,2.7C84,268.15,84.07,271.27,84.32,274.27Z" transform="translate(-2.12 -5)"/>
  <path class="cls-9" d="M92.38,330.94l-1.88,2.87c-1.25-.89-3-1.52-3.65-2.73-2-4-3.77-3.82-6.22-.41-.62.87-2.73,1.76-3.28,1.37-1.46-1-3.72-3.38-3.38-4,1.55-3,3.34-6.55,6.06-8C83.78,318,92.43,325.26,92.38,330.94Z" transform="translate(-2.12 -5)"/>
  <path class="cls-9" d="M344.77,469c-.59,3,.43,7.29-5.2,6.48-.53-.08-1.68,1.82-2,2.94-1,3.58-1.2,7.48-6.92,5.25-.91-.36-3.14,2.68-4.77,4.15L323,477.7c1.41-.39,3.73-1.5,4.08-1.05,3.76,4.77,6.1,3.46,8.18-1.38.53-1.23,2.17-2,2.54-3.25a17,17,0,0,0,.54-5.81,14.3,14.3,0,0,0-1.3-3.77c1.41.45,3.19.53,4.16,1.45C342.68,465.3,343.61,467.3,344.77,469Z" transform="translate(-2.12 -5)"/>
  <path class="cls-1" d="M492.72,300.88c-.39-1.58-1.39-3.31-1.06-4.72,1.32-5.58,2.55-10.49-6-5.95-.55.29-2.32-.37-2.39-.77a7.36,7.36,0,0,1,.29-4,39.62,39.62,0,0,1,3.12-5.13q.05-4.3.1-8.6l6,1.47L492.7,279,494,283.5Z" transform="translate(-2.12 -5)"/>
  <path class="cls-9" d="M450.39,351.18c-.54,2-.75,3.22-1.16,4.33-1.11,2.95-2.3,5.87-3.46,8.8-2.6-2.16-5.44-4.11-7.6-6.64-.43-.51-5.58-6.47,2.25-5.25.78.12,2-1.61,2.77-2.69a48.75,48.75,0,0,0,2.56-4.68Z" transform="translate(-2.12 -5)"/>
  <path class="cls-4" d="M152.48,394.23l6.05-6.38,7.39,9.57c-2.14,1.52-5,4.73-6.28,4.2C157.09,400.58,155.39,397.45,152.48,394.23Z" transform="translate(-2.12 -5)"/>
  <path class="cls-3" d="M489.87,313.87q0,.7-.07,1.41c-2.91,1.77-5.84,3.52-8.74,5.3-1.4.86-2.72,2.43-4.15,2.51-1.26.08-3.75-1.53-3.71-2.28.11-2,.76-5,2.16-5.7,4.1-2.11,8.67-3.34,13.11-4.72C488.57,310.37,489.39,312.66,489.87,313.87Z" transform="translate(-2.12 -5)"/>
  <path class="cls-9" d="M321.56,477.72l-1.83,8.36c-1.84-1.93-3.74-3.8-5.49-5.81a45.87,45.87,0,0,1-2.84-4c.48-2.06.89-4.15,1.48-6.18.48-1.63,1.18-3.19,1.79-4.78a21.87,21.87,0,0,0,1.53,4.56C317.82,472.56,319.75,475.1,321.56,477.72Z" transform="translate(-2.12 -5)"/>
  <path class="cls-9" d="M102.54,273.22c1.42-2.81,2.45-6,4.52-8.19.57-.61,4.25,1.7,6.5,2.66a97.8,97.8,0,0,1-6.83,8.27c-.72.72-2.74.14-4.17.15Z" transform="translate(-2.12 -5)"/>
  <path class="cls-7" d="M373.64,259.16c-1.93-2.68-4.12-4.41-3.91-5.77.27-1.69,2.51-3.07,3.9-4.59l5.45,5Z" transform="translate(-2.12 -5)"/>
  <path class="cls-7" d="M424.55,270.31l2.89,1.46c-3,1.36-5.83,3.38-8.91,3.77-1.45.18-3.29-2.77-5-4.31a35,35,0,0,1,6.11-1.76C421.25,269.31,422.92,270,424.55,270.31Z" transform="translate(-2.12 -5)"/>
  <path class="cls-3" d="M291,480.55l3,5.79-10.23,1.45Z" transform="translate(-2.12 -5)"/>
  <path class="cls-2" d="M117.06,353l1.34-7.72,4.46,3.35Z" transform="translate(-2.12 -5)"/>
  <path class="cls-8" d="M178,373.27l2.67-5.5,4.18,3.66-4,3.37Z" transform="translate(-2.12 -5)"/>
  <path class="cls-9" d="M251.94,486.41c-.91.31-2.44,1.09-2.62.84a50.17,50.17,0,0,1-3.18-5.17l3.59-3.53Z" transform="translate(-2.12 -5)"/>
  <path class="cls-9" d="M343.31,416.81c.21-3.8.59-7.46,5.81-7.26C346.53,411.45,351,419,343.31,416.81Z" transform="translate(-2.12 -5)"/>
  <path class="cls-7" d="M341.25,427.51l-3.15-2.42c1.07-.77,2.16-2.15,3.21-2.12s1.91,1.56,2.86,2.43Z" transform="translate(-2.12 -5)"/>
  <path class="cls-7" d="M355.31,412.31c-.63.32-1.45,1-1.7.82a3.46,3.46,0,0,1-1.21-1.86c-.06-.21.86-.69,1.33-1.05Z" transform="translate(-2.12 -5)"/>
  <path class="cls-2" d="M143.16,376.63l-1.11,1.78a7.4,7.4,0,0,1-1.49-1.69c-.1-.21.68-1.15,1.14-1.21S142.6,376.16,143.16,376.63Z" transform="translate(-2.12 -5)"/>
  <path class="cls-3" d="M494,283.5,492.7,279Z" transform="translate(-2.12 -5)"/>
  <path class="cls-9" d="M336.07,367.49h-1.46l3-2.85Z" transform="translate(-2.12 -5)"/>
  <polygon class="cls-2" points="449.98 379.9 449.37 379.56 449.65 379.28 449.98 379.9"/>
  <path class="cls-4" d="M173.84,171.71l-16.18-1.48-1.45-2.9c.18-5.09,2-7.2,7.26-4.52a4.84,4.84,0,0,0,4.55-1.06c1-1.31,1.81-4.28,1.05-5.22-3.12-3.92,2-10.14-3.84-13.1-.06,0,.4-2,1-2.39,4.18-2.51,8.52-4.75,12.69-7.25a34.53,34.53,0,0,0,4.26-3.55c-1.15-1-2.13-2.41-3.47-3-2.91-1.35-6-2.31-9-3.43l-4.38-10.11q0-.72,0-1.44c2.83-2,7.62-3.6,8.13-6.07,1.45-7.15,5.64-9.33,12-10.1,1-.12,2.64-2.93,2.29-3.62-.69-1.34-2.87-3.14-3.94-2.86-7.57,2-14.86,6.35-22.89,1.57-9.08,6.47-11-1.76-13.73-7.07-6.1-11.92-4.42-14.41,9.47-15.39l5.53-3.28L161.07,63l-3.41,4.23-13-4.35c-4.09-4.82,2.3-6.64,2.9-10.12,4.92-.63,9.95-.86,14.7-2.12,1.72-.45,2.78-3.37,4.15-5.17l5.59,3.21c-2,2.14-3.94,4.3-6,6.41-1.09,1.14-2.26,2.19-3.4,3.29,1.58,1.31,3,2.92,4.81,3.8.78.38,2.9-.41,3.38-1.26,2.8-5,6.4-2.33,10.24-2.23,1.64,0,3.44-6,5.19-9.31.09-.17.43-.2.62-.33l3.87-2.64a43.25,43.25,0,0,1-4.21-2.89,7.79,7.79,0,0,1-1.3-2.4l4.37-2.9h4.35l2.9,0,2.9,1.45c7.19-4.34,6,5.59,10.42,6.19a3.34,3.34,0,0,1,2,2.53,4,4,0,0,1-1.74,2.89,34,34,0,0,1-5.75,2.83c-3.59,1.48-4.73,7-2.18,9.73,6.52,6.85,13.29,13.61,8,24.49-3.21,6.57-5.76,13.46-8.87,20.08-1.77,3.76-4.59,7.08-6,10.94-1,2.89-.56,6.33-.76,9.53a80,80,0,0,1,7.75-2.58,36.91,36.91,0,0,1,6.16-.42c0,2,0,4-.05,6-.08,2.62-.22,5.25-.34,7.87L189.7,153c-.57-1.81-1.07-3.64-1.71-5.43-2-5.44-6.11-7-11.43-6.23-.78.11-2,.79-2.08,1.38s.75,2.16,1.21,2.17c6.58.09,9.56,4.78,12.54,9.52Zm22.26-33.76-3.48-3.32c-.52.92-1.62,2-1.42,2.74.35,1.28,1.5,2.34,2.32,3.5Z" transform="translate(-2.12 -5)"/>
  <path class="cls-9" d="M285.3,43.93c-.22.93-.17,2.05-.69,2.76C280.38,52.46,279.46,57,288.29,59c1,.24,1.4,3.28,2.07,5-1.6-.06-3.88.53-4.69-.3-3.12-3.19-9.07-4.61-7.62-11l-7.26-5.81q0-.7,0-1.39c2.42-.18,5.44,0,2.49-3.71-2.17-2.72-4.51-5.3-6.78-7.94q0-2.19-.06-4.37C273.3,33.56,285.87,30.14,285.3,43.93Z" transform="translate(-2.12 -5)"/>
  <path class="cls-8" d="M285.3,43.93c.57-13.8-12-10.38-18.88-14.41l-1.79-6.61c2.42.43,5.57.06,7.1,1.46,2.63,2.4,4.21,4.68,7.1.44.25-.37,4.07.73,5.08,2,3.59,4.69,3.34,4.71,8.06,2.31.77-.39,2.86.46,3.46,1.33a39.81,39.81,0,0,1,2.93,6.31l-2.7,4.34c-4.82-5.29-6.1-1.09-7.48,2.8Z" transform="translate(-2.12 -5)"/>
  <path class="cls-9" d="M288.18,43.94c1.38-3.89,2.66-8.09,7.48-2.8l2.7-4.34c10.26.69,11.26,2.27,7.32,11.56-2.4-.13-4.79-.33-7.19-.36a5,5,0,0,0-2.93.6,26.62,26.62,0,0,0-3.25,3.61Z" transform="translate(-2.12 -5)"/>
  <path class="cls-8" d="M266.48,33.9c2.27,2.64,4.61,5.23,6.78,7.94,2.94,3.68-.08,3.53-2.49,3.71l-5.7-4.44q-.07-1.41-.13-2.83l-1.43-2.86Z" transform="translate(-2.12 -5)"/>
  <path class="cls-8" d="M365.12,58.47c-7.05,3.27-7.08-.58-5.81-5.73Z" transform="translate(-2.12 -5)"/>
  <path class="cls-7" d="M48.88,202.15l6.51.13L54.7,205l-3.75,3.18,3.76-.28c3.18,5.41-.68,5.54-4.36,5.81-.94.25-2.25.19-2.75.8a40.21,40.21,0,0,0-3.08,5H40.18C40.28,212.35,44.49,207.2,48.88,202.15Z" transform="translate(-2.12 -5)"/>
  <path class="cls-7" d="M27.27,191.78l3.07-5a66.12,66.12,0,0,1,5.31,7.06c.3.51-1.41,2.19-2.2,3.33Z" transform="translate(-2.12 -5)"/>
  <path class="cls-6" d="M21.32,221c4.53,2.54,2.84,5.87,1.18,9.2l-4.09,8.21c-5.25,2.51-5.22,2.51-5.18-2.24a2.56,2.56,0,0,0-.76-1.53c-3,.72-5.43-.17-3.78-3.33,1.51-2.9,4.53-5.12,7.15-7.32C17.4,222.69,19.48,222,21.32,221Z" transform="translate(-2.12 -5)"/>
  <path class="cls-6" d="M208.37,139.74c.12-2.62.26-5.24.34-7.87.06-2,0-4,.05-6a36.91,36.91,0,0,0-6.16.42,80,80,0,0,0-7.75,2.58c.2-3.2-.29-6.64.76-9.53,1.39-3.86,4.21-7.18,6-10.94,3.11-6.62,5.67-13.51,8.87-20.08,5.31-10.88-1.47-17.64-8-24.49-2.55-2.68-1.41-8.24,2.18-9.73a34,34,0,0,0,5.75-2.83,4,4,0,0,0,1.74-2.89,3.34,3.34,0,0,0-2-2.53c-4.41-.6-3.24-10.53-10.42-6.19l-1.47-1.46,0-2.89,1.46-1.45,4.35,0c2.62.84,5.24,1.66,7.85,2.53,1.75.58,3.47,1.22,5.21,1.84l-5.31,2.54,3.84,3.27v8.7L217.15,60a22.89,22.89,0,0,0-1.62,2.34c-.84,1.58-1.57,3.23-2.35,4.85,1.95.51,4.08,1.79,5.8,1.36,3.85-.95,7.48-2.75,11.2-4.2l2.89,8.7-5.8,4.36-1.37-6.36c-.48,2.3-1.1,4.59-1.36,6.91-.08.73.82,1.56,1.28,2.35l-1.43,2.87a30.74,30.74,0,0,0-3.42,1c-2.18.88-4.3,1.89-6.45,2.85,1.82,1.8,3.37,4.13,5.54,5.2,1.39.68,3.69-.56,5.59-.84,2.79-.42,6.19-1.94,8.27-.89,5.61,2.84,6.75-.48,7.57-4.48.47-2.3.21-4.75.28-7.14-.14-1.49.16-4.05-.48-4.32-8.86-3.62-7.54-9.48-3.86-16L243.23,60a13.34,13.34,0,0,1-.81,2.71c-.87,1.61-1.93,3.13-2.91,4.69,1.68,0,3.37.07,5.05.15,5.12.25,9.93,7.38,8.67,12.58a96.82,96.82,0,0,0-1.79,10c-.12.93.52,2,.82,2.94,1.22-.44,3.4-.72,3.51-1.35,1.09-6.31,3.93-2.48,6.33-1.24,1,4,2.7,6.65,7.51,5,6.64-2.3,4.72,6.28,8.93,7.13l-2.12,7.57a20.31,20.31,0,0,0-4.11-1.6,2.85,2.85,0,0,0-2.27,1.26c-2.48,4.38-6.76,8.16-5,14.06-10.2,1.83-20.59,3-30.54,5.7C225.51,132,217,136.28,208.37,139.74Z" transform="translate(-2.12 -5)"/>
  <path class="cls-7" d="M185.2,41.14a7.79,7.79,0,0,0,1.3,2.4,43.25,43.25,0,0,0,4.21,2.89l-3.87,2.64c-.2.13-.53.16-.62.33-1.75,3.28-3.55,9.35-5.19,9.31-3.84-.1-7.44-2.76-10.24,2.23-.47.84-2.6,1.64-3.38,1.26-1.8-.88-3.23-2.49-4.81-3.8,1.14-1.09,2.31-2.15,3.4-3.29,2-2.11,4-4.27,6-6.41l-5.59-3.21c-2.75-4.78,1.08-6.45,4.21-7.4,1.62-.49,3.88,1.65,6,2.08A87,87,0,0,0,185.2,41.14Z" transform="translate(-2.12 -5)"/>
  <path class="cls-7" d="M199.72,33.9l-1.46,1.45c-5.39-2.41-7.34-6.08-4.3-11.61l2.83,1.44Z" transform="translate(-2.12 -5)"/>
  <path class="cls-7" d="M193.92,38.23h0Z" transform="translate(-2.12 -5)"/>
  <path class="cls-7" d="M198.25,38.24l1.47,1.46-2.9-1.45Z" transform="translate(-2.12 -5)"/>
  <path class="cls-6" d="M43,360.24l4.38,10.18C44,367.87,40.92,365.16,43,360.24Z" transform="translate(-2.12 -5)"/>
  <path class="cls-7" d="M262.11,90.47c-2.4-1.24-5.24-5.07-6.33,1.24-.11.63-2.29.91-3.51,1.35-.29-1-.94-2-.82-2.94a96.82,96.82,0,0,1,1.79-10c1.26-5.2-3.55-12.34-8.67-12.58-1.68-.08-3.37-.1-5.05-.15,1-1.56,2-3.07,2.91-4.69a13.35,13.35,0,0,0,.81-2.71,13.28,13.28,0,0,1,3.38,1c3.3,2.09,6.5,4.36,9.73,6.57.16-4.34.31-8.67.5-13a5.65,5.65,0,0,0-7.51-5.44c-1.31.51-2.41,1.62-3.74,2a24.11,24.11,0,0,1-4.64.46c.4-1.76.22-4.18,1.32-5.16,2.4-2.16,5.46-3.59,8.24-5.32h4.31c3.46,3,7.29,5.66,10.29,9.06,2.66,3,6.28,6.34,2,11.16-.83.93-.18,4.48,1,5.63,3.41,3.4,7.54,6.08,11.11,9.34.82.74,1.21,3.32.63,3.93-1.08,1.12-3.5,2.36-4.51,1.85-2-1-3.37-3.35-5.24-4.82a22,22,0,0,0-4.5-2.14c-.53,1.91-2,4.18-1.41,5.66,1.15,3,3.41,5.49,5.21,8.2Z" transform="translate(-2.12 -5)"/>
  <path class="cls-4" d="M250.51,41.15c-2.79,1.73-5.84,3.17-8.24,5.32-1.1,1-.92,3.4-1.32,5.16a24.11,24.11,0,0,0,4.64-.46c1.33-.38,2.43-1.5,3.74-2a5.65,5.65,0,0,1,7.51,5.44c-.19,4.33-.33,8.67-.5,13-3.23-2.2-6.43-4.48-9.73-6.57a13.28,13.28,0,0,0-3.38-1l-5.79-1.45-2.91-4.33c-.66-4.92-3.4-4.9-6.4-2.26-2.65,2.34-4.84,2.12-4.89-1.21-.08-5.56-3.87-5.83-7.57-6.71l-3.84-3.27,5.31-2.54c5-2.35,9.8-5.34,15-6.82,3-.84,10.42-6.33,8.55,4.32-.06.37,2.13,1.56,3.3,1.62a43.09,43.09,0,0,0,6.46-.56Z" transform="translate(-2.12 -5)"/>
  <path class="cls-7" d="M250.48,36.8a43.09,43.09,0,0,1-6.46.56c-1.18-.06-3.37-1.26-3.3-1.62,1.88-10.66-5.58-5.16-8.55-4.32-5.24,1.48-10,4.46-15,6.82-1.74-.61-3.46-1.26-5.21-1.84-2.61-.87-5.24-1.69-7.85-2.53,1.52-5.1,4.95-7.35,10.23-8.14,4.84-.72,9.48-2.67,14.23-4,1.11-.31,2.71-.92,3.37-.43,6.21,4.58,12.27,9.36,18.34,14.14C250.52,35.64,250.41,36.33,250.48,36.8Z" transform="translate(-2.12 -5)"/>
  <path class="cls-7" d="M264.93,38.28q.06,1.42.13,2.83l-3-2.85Z" transform="translate(-2.12 -5)"/>
  <path class="cls-3" d="M439,125.29c-6.13-2.91-9.91,2.06-14.49,4.33l-1.38-7.29c7.49-1.52,8.69-6.51,7.21-13h0l5.8-5.87,5.79,7.29c-.72.59-1.37,1.55-2.19,1.73-5.41,1.19-6.09,3.35-2.14,7.42C438.74,121.06,438.58,123.46,439,125.29Z" transform="translate(-2.12 -5)"/>
  <path class="cls-6" d="M37.28,281.91l-1.92-6.77c2.48.28,5,.43,7.43.88A13.08,13.08,0,0,1,46,277.56C45.28,283.42,40.73,281.57,37.28,281.91Z" transform="translate(-2.12 -5)"/>
  <path class="cls-6" d="M53.22,271.77c4.35-2.46,6.29-1.08,5.75,3.76a27.54,27.54,0,0,1-1.65,6.87c-.13.32-2.67-.29-4.09-.47q0-1.45,0-2.9t0-2.9Z" transform="translate(-2.12 -5)"/>
  <path class="cls-7" d="M53.23,276.12q0,1.45,0,2.9Q53.24,277.57,53.23,276.12Z" transform="translate(-2.12 -5)"/>
  <path class="cls-6" d="M350.54,479.14l7.27-1.42c1.8,4.42-1.29,5.49-4.4,5.61-2.87.11-5.77-.83-8.66-1.31Z" transform="translate(-2.12 -5)"/>
  <path class="cls-8" d="M237.42,487.88c.16-3.82-.59-8.37,5.78-7.2Z" transform="translate(-2.12 -5)"/>
  <path class="cls-8" d="M310.32,485.91c-.41-.18-1-.27-1.15-.56s.28-.79.46-1.19c.4.18,1,.26,1.15.55S310.5,485.5,310.32,485.91Z" transform="translate(-2.12 -5)"/>
  <path class="cls-7" d="M271.14,210.92q-.12-4.4-.23-8.81c2-2.25,4.53-4.23,5.88-6.83,1.07-2.07.34-5,1.06-7.33,1.42-4.59,4.89-9.24-2.2-12.38-1-.44-1.79-2.4-1.82-3.67-.15-7-2.08-9.88-9-5.08-1.35.93-4.08-.14-6.17-.28,1.16-1.76,2.29-3.55,3.47-5.29,1.9-2.78,3.84-5.54,5.76-8.31,31.34-1.23,52.42,13,60,41.76,5,18.86,1.25,37.62-3.43,56.1a67.12,67.12,0,0,1-20.79,34c-13.82,12.49-41.12,9.15-44.84-11.19-.7-3.85.23-8,.41-12,2.81-.65,6-.7,8.35-2.1,2.75-1.64,4.72-4.53,7.14-6.76a51.76,51.76,0,0,1,4.23-3.2c-1.67-1.21-3.25-3.26-5-3.48-5.74-.69-7.89-3.76-7.48-9.18l0,0c4.11.85,8.84,3.37,12.18,2.13,4.72-1.74,7.61-1,10.82,2a95.36,95.36,0,0,0,8.89,7.91c1.08.79,4.35.69,4.72,0,2.51-4.74,10-6.14,9-13.24-.09-.68.9-1.88,1.66-2.24,6-2.85,3.55-6.15.63-9.53l-2-7c-1.31,2.18-2.67,4.32-3.9,6.54A26.7,26.7,0,0,0,307,226.8l-1.48,4.35,0,1.46c-.44.86-.66,2-1.35,2.51a32.09,32.09,0,0,1-4.32,2.4L295.56,228a21.14,21.14,0,0,0,4.27-1.5c1.75-1.06,4.75-2.7,4.61-3.74-.4-3-2.12-5.81-3.32-8.69-1.55,1.27-3.08,2.55-4.65,3.79-2.2,1.74-4.42,3.46-6.64,5.18-1.08-2.77-2.68-5.46-3.12-8.32-.69-4.51-1.65-7.5-7.22-5.45C276.87,210.28,273.94,210.41,271.14,210.92Zm21-28.9c.6-1.39,2.11-3.35,2.18-5.36.35-9.32-10.7-5.79-13.62-11.67-.35-.7-1.55-1-2.38-1.41-.16-.08-.67.13-.66.15.36,2.65.15,5.63,1.35,7.83.93,1.71,3.52,2.76,5.59,3.49.74.26,2.11-1.24,3.19-1.94-.21,1.34,0,3-.71,4C283.54,181.74,286.92,181.65,292.1,182Z" transform="translate(-2.12 -5)"/>
  <path class="cls-2" d="M267.86,152.95c-1.92,2.77-3.86,5.53-5.76,8.31-1.19,1.74-2.32,3.52-3.47,5.29,2.09.15,4.82,1.21,6.17.28,7-4.81,8.88-1.9,9,5.08,0,1.27.83,3.23,1.82,3.67,7.09,3.15,3.62,7.79,2.2,12.38-.72,2.34,0,5.26-1.06,7.33-1.35,2.59-3.87,4.58-5.88,6.83-8.71-21.24-26.54-23.7-42.44-5.87-4.24.56-9.21-6-12.84,1.43-.52,1.06-2.43,1.43-3.7,2.12,1.53,1.7,2.78,4,4.69,4.94,1.74.86,4.21.25,6.35.29l-3.09,24.68-5.66,0c-.55-1.29-1.07-2.6-1.64-3.88-4.89-11.1-8.91-22.19-4.7-34.69,1.25-3.71.45-8.1.59-12.17l7.2-7.38c1.13,3.6,1.67,7.56,3.58,10.69,1.29,2.13,4.48,3.1,6.83,4.58.84-1.37,2.51-2.81,2.39-4.08-.56-5.87,1.61-12.53-4.27-17.09L236,158.53c.25,2.84-4,7.83,1.56,8,6.9.27,2.55,1.9,1.65,4.35-1.21,3.28-1.31,7-1.89,10.48,3.45-1.18,7.55-1.61,10.1-3.83,1.44-1.26,1.45-7.26.2-8-9.69-5.9.25-6.88,2.25-7.29,5.53-1.15,7.81-4.08,7.92-9.34Z" transform="translate(-2.12 -5)"/>
  <path class="cls-3" d="M140.22,306.58c-1.75-4.87-4.08-8-9.44-3.53-.51.43-2-.36-3.11-.58.4-1,.59-2.62,1.24-2.82,5.24-1.63,5.27-6.29,3.45-9.2-2-3.12-6.25-4.78-9.53-7.07l-1.44-1.45c.22-.67.23-1.68.69-2,7.73-4.67,7.72-4.64,1.38-10.58-.44-.42-.43-1.32-.63-2,2.93-8.59,1.9-9.77-7-9.1-1.42.11-4-1.57-4.33-2.87-2.07-8,.25-11,7.83-14.46,3.23-1.48,5.3-5.49,7.9-8.36,6,1,3.91,4.32,2.78,8-.56,1.81.23,5.72,1.17,6,3,.85,10.35-9.76,9.41-12.91a16.77,16.77,0,0,1-.28-3.6c1.53.5,4.06.64,4.41,1.58,1,2.55,1,5.45,1.38,8.21-5.37,1-4.89,4.34-3.18,8,1.58,3.41,2.91,6.41-.87,9.63-.89.76-.07,5.69,1,6.1,2,.76,6.75-.47,6.74-.72-.21-5.25,8-11.07-1-16-1.66-.9-1.79-4.65-2.63-7.08,2.34-1.55,6.9-3.68,6.67-4.57-1.76-6.8,2.74-5.5,6.34-5.58l9,32.77c-4.29,3.23-4.36,7.55-3.13,12.19-1.66.16-4-.32-4.88.58-4.21,4.13-7.31,3.91-11.25-.68-1-1.18-7-.39-8.09,1.26-2.41,3.52-3.09,8.21-4.6,12.37-1.4,3.85-.56,5.42,3.86,4.87,1.46-.18,3.11,1.22,4.67,1.9-1.37,2-3.11,3.8-4,6C139.93,302.59,140.31,304.68,140.22,306.58Z" transform="translate(-2.12 -5)"/>
  <path class="cls-8" d="M205.58,338.51c-2.9-.75-5.84-1.4-8.7-2.3a29.69,29.69,0,0,1-4.24-2.08c-.2,2-1.32,4.94-.43,5.79,4.28,4.12,2.28,6.11-1.59,8.78-1.55,1.07-1.67,4.16-2.53,6.29s-1.38,4.81-3,6.27c-1.28,1.19-3.9.94-5.92,1.33.56-1.53.83-3.26,1.72-4.56,4.89-7.09,5-11.84-.57-17.95-1.08-1.19-3.88-.68-5.77-1.31a33.57,33.57,0,0,1-4.76-2.42,27.53,27.53,0,0,1,4.25-3.55c.93-.52,2.36-.15,3.57-.13,4.53.09,5.44-1.86,3.73-5.91-1.38-3.27-3-6.71-3.15-10.14-.13-2.73,1-6.5,2.93-8.14,5.52-4.63,7.18-9.71,4.32-16.24-.75-1.71-.52-3.86-.74-5.8,1.57.35,3.44,1.38,4.64.87s2.07-2.55,3.07-3.92c6.8,1,7.72-4.67,9.93-8.86,5.24,1.17,2.09,4,1.39,6.52a61.64,61.64,0,0,0-2,8.54c-.18,1.33.57,2.78.9,4.18-1.53-.1-3.07-.14-4.59-.34-.92-.12-2.5-.85-2.59-.68-.7,1.34-2,3.48-1.47,4.16a78,78,0,0,0,8.63,9.47c.44.42,3.29-.52,3.47-1.22.94-3.72,2-7.58,1.87-11.35-.25-8.4-.09-8.83,9.12-9Z" transform="translate(-2.12 -5)"/>
  <path class="cls-3" d="M217.17,284.82c-9.2.17-9.37.6-9.12,9,.11,3.78-.93,7.64-1.87,11.35-.18.7-3,1.64-3.47,1.22a78,78,0,0,1-8.63-9.47c-.51-.68.77-2.82,1.47-4.16.09-.17,1.67.56,2.59.68,1.52.2,3.06.23,4.59.34-.33-1.4-1.08-2.85-.9-4.18a61.64,61.64,0,0,1,2-8.54c.71-2.48,3.85-5.34-1.39-6.52,4.16-10-1.24-17.87-5.83-25.92a45.9,45.9,0,0,1,5.74.44,16.68,16.68,0,0,1,3.63,1.64,29.34,29.34,0,0,1,.53-4.59c.43-1.58,1.53-4.42,1.86-4.35,6,1.22,5.69-1.84,4.8-6.13-.38-1.82.68-3.95,1.08-5.94l5.66,0c.19,2.13-.23,4.58.67,6.35C229.18,253,221.36,268.79,217.17,284.82Z" transform="translate(-2.12 -5)"/>
  <path class="cls-7" d="M214.21,229.69c-.41,2-1.47,4.11-1.08,5.94.89,4.28,1.21,7.35-4.8,6.13-.33-.07-1.43,2.78-1.86,4.35a29.34,29.34,0,0,0-.53,4.59,16.68,16.68,0,0,0-3.63-1.64,45.9,45.9,0,0,0-5.74-.44c-1.75-3.87-4.58-7.61-5.05-11.63-2.43-20.57,1.22-39.78,14.64-56.33a11.47,11.47,0,0,1,2.3-1.71c-.14,4.08.65,8.47-.59,12.17-4.2,12.5-.19,23.59,4.7,34.69C213.14,227.1,213.67,228.4,214.21,229.69Z" transform="translate(-2.12 -5)"/>
  <path class="cls-2" d="M271.14,210.92c2.8-.51,5.73-.64,8.36-1.6,5.58-2,6.53.94,7.22,5.45.44,2.87,2,5.55,3.12,8.32,2.21-1.73,4.44-3.44,6.64-5.18,1.57-1.24,3.1-2.53,4.65-3.79,1.2,2.88,2.91,5.7,3.32,8.69.14,1-2.86,2.68-4.61,3.74a21.14,21.14,0,0,1-4.27,1.5l4.36,9.49a32.09,32.09,0,0,0,4.32-2.4c.69-.52.92-1.65,1.35-2.51,3.27,1.78,5.12,1.12,5.88-2.82.4-2.06,1.8-3.93,2.75-5.89,2.92,3.38,5.36,6.68-.63,9.53-.77.37-1.76,1.57-1.66,2.24,1,7.1-6.47,8.5-9,13.24-.37.7-3.64.79-4.72,0a95.36,95.36,0,0,1-8.89-7.91c-3.22-3-6.1-3.73-10.82-2-3.34,1.23-8.07-1.29-12.18-2.13Z" transform="translate(-2.12 -5)"/>
  <path class="cls-9" d="M262.11,90.47,269.34,89h2.9c3.52.47,8,7.86,10.17-1.44,3.82.39,7.64,1.13,11.45,1.09,4.65-.05,7.79,1.15,8.35,6.32.08.76,1.43,2.11,1.7,2,6.1-2.51,8.68,4,13.3,5.1l-2.92,4.34c-3.58.06-9.64-1.05-10.32.38-2.87,6-6.83,7.86-13.15,7.56-4.26-.2-8.71,1.92-12.86,1.38-6.22-.82-9.84,2-8.62,8.06l-4.34.06c-1.72-5.89,2.56-9.67,5-14.06a2.85,2.85,0,0,1,2.27-1.26,20.31,20.31,0,0,1,4.11,1.6l2.12-7.57c-4.2-.85-2.29-9.44-8.93-7.13C264.81,97.12,263.06,94.46,262.11,90.47Z" transform="translate(-2.12 -5)"/>
  <path class="cls-6" d="M257.78,152.93c-.11,5.26-2.39,8.19-7.92,9.34-2,.41-11.93,1.39-2.25,7.29,1.24.76,1.24,6.76-.2,8-2.55,2.22-6.65,2.65-10.1,3.83.58-3.51.68-7.2,1.89-10.48.9-2.45,5.25-4.08-1.65-4.35-5.59-.22-1.31-5.2-1.56-8Z" transform="translate(-2.12 -5)"/>
  <path class="cls-8" d="M164.9,274.67c-1.23-4.65-1.16-9,3.13-12.19l16.07,16.45a41.53,41.53,0,0,0-3.21,3.12c-1,1.2-1.52,3.06-2.75,3.8-3.8,2.3-7.84,4.21-11.78,6.27-5.81-4.31.87-5.2,2-7.65a51,51,0,0,0,1.92-5.52l-4,0Z" transform="translate(-2.12 -5)"/>
  <path class="cls-2" d="M266.39,236.88c-.41,5.43,1.74,8.49,7.48,9.18,1.79.22,3.37,2.27,5,3.48a51.76,51.76,0,0,0-4.23,3.2c-2.42,2.23-4.4,5.12-7.14,6.76-2.36,1.41-5.53,1.46-8.35,2.1Z" transform="translate(-2.12 -5)"/>
  <path class="cls-6" d="M224.18,165.68c5.88,4.55,3.71,11.21,4.27,17.09.12,1.27-1.55,2.72-2.39,4.08-2.34-1.49-5.53-2.46-6.83-4.58-1.9-3.13-2.45-7.09-3.58-10.69Z" transform="translate(-2.12 -5)"/>
  <path class="cls-6" d="M223,205c-2.15,0-4.61.56-6.35-.29-1.91-.94-3.15-3.24-4.69-4.94,1.27-.69,3.18-1.07,3.7-2.12,3.63-7.38,8.6-.87,12.84-1.43Z" transform="translate(-2.12 -5)"/>
  <path class="cls-7" d="M188.24,154.38c-3-4.74-6-9.42-12.54-9.52-.46,0-1.33-1.51-1.21-2.17s1.29-1.26,2.08-1.38c5.31-.76,9.47.79,11.43,6.23.64,1.78,1.15,3.62,1.71,5.43Z" transform="translate(-2.12 -5)"/>
  <path class="cls-2" d="M392.85,203.1l-4.36,6.14c-1.52-1.68-3.08-3.34-4.54-5.08-.25-.3.06-1-.17-1.39-2.27-3.46-3.06-6.91.06-10.29a1.52,1.52,0,0,1,1.46,0C387.74,195.79,390.09,199.18,392.85,203.1Z" transform="translate(-2.12 -5)"/>
  <path class="cls-3" d="M415.28,142c1.67,3.25,3.46,5.11,3.21,6.63-.32,1.86-2.35,3.42-3.64,5.11-1.43-2-3.38-3.89-4.05-6.14C410.5,146.65,412.87,144.9,415.28,142Z" transform="translate(-2.12 -5)"/>
  <path class="cls-3" d="M90.89,233.12c2.1,1.3,3.53,1.68,3.86,2.49a20.26,20.26,0,0,1,.73,4.88c2.76-2.44,6.54-4.38,8-7.44,2.19-4.48,5.2-6.72,9.77-7,.74-.05,2.42,2.24,2.29,3.27-.18,1.48-1.45,3.86-2.57,4-8.15,1.37-8.56,8.61-11.13,14.16-.41.88-.35,2.86.18,3.18,6.47,3.88-1.31,6.47-.93,9.76,0,.09-2.32,1-3.11.57-5.91-3-12.53-14.87-11.26-20.83C87.28,237.76,89.33,235.67,90.89,233.12Z" transform="translate(-2.12 -5)"/>
  <path class="cls-2" d="M122.84,267.39c.2.68.19,1.58.63,2,6.34,5.95,6.35,5.91-1.38,10.58-.46.28-.47,1.29-.69,2-1.83.37-3.71,1.16-5.48,1a4.16,4.16,0,0,1-3-2.61C112.32,275.44,118,268.28,122.84,267.39Z" transform="translate(-2.12 -5)"/>
  <path class="cls-8" d="M140.22,306.58c.09-1.89-.3-4,.38-5.63.9-2.17,2.63-4,4-6l4.37,6.73c1.26-2.06,2.47-4.15,3.81-6.15a14.55,14.55,0,0,1,2-2l7.29,1.45q0,1.45,0,2.89c-9.62,3.93-13.1,15.68-7.3,24.66q0,2.17,0,4.34l-4.31,4.36a35.13,35.13,0,0,1-3.7,3.17c-.67.44-1.72.28-2.61.4.25-1,.17-2.53.81-3,3-2,3.52-3.72.75-6.57-.87-.9.3-3.53,0-5.26-.58-3.06,4-8.79-4.06-8.48C141.2,311.54,140.68,308.3,140.22,306.58Z" transform="translate(-2.12 -5)"/>
  <path class="cls-3" d="M154.74,322.53c-5.8-9-2.32-20.73,7.3-24.66,6.76,2.45,6.31,8.43,6.65,13.92a3.91,3.91,0,0,1-1.61,2.85C163.05,317.38,158.87,319.92,154.74,322.53Z" transform="translate(-2.12 -5)"/>
  <path class="cls-3" d="M162.06,295l-7.29-1.45c1.44-2.69,4.15-5.42,4.07-8.06-.18-6,2.6-7.07,7.47-6.48l4,0a51,51,0,0,1-1.92,5.52c-1.16,2.45-7.84,3.34-2,7.65Z" transform="translate(-2.12 -5)"/>
  <path class="cls-7" d="M190.57,377.61c9.1.22,13,4.88,10.26,10.29-.48.95-2.07,1.34-3.15,2-.64-5.88-5.37-4.57-9.06-5.45-.88-.21-2.13-3.22-1.67-3.88A12.4,12.4,0,0,1,190.57,377.61Z" transform="translate(-2.12 -5)"/>
  <path class="cls-7" d="M157.66,347.18a15.92,15.92,0,0,0,2.78-2.67,50.82,50.82,0,0,0,2.62-5.26l7.57,7.88c-2.53,1.39-5,3.54-7.64,3.88-1.59.2-3.54-2.46-5.33-3.83Z" transform="translate(-2.12 -5)"/>
  <path class="cls-8" d="M157.66,335.59q0,5.8,0,11.59h-5.52a50.3,50.3,0,0,1,.52-6.83,23.59,23.59,0,0,1,2.1-4.76Z" transform="translate(-2.12 -5)"/>
  <path class="cls-3" d="M157.66,335.59h-2.89l-4.35-4.35,4.31-4.36C163.3,327.23,156,332.91,157.66,335.59Z" transform="translate(-2.12 -5)"/>
  <path class="cls-3" d="M389.74,397.94l-1.25,3.91a23.85,23.85,0,0,1-3.12-2c-2.1-1.84-4-3.86-6.15-5.69-.89-.78-2.54-1-3-1.93-1.79-3.74-3.27-7.63-4.72-11.53a5.42,5.42,0,0,1,1.91-1.29c2.61,2.73,5.14,5.54,7.62,8.39,2.92,3.35,5.78,6.75,8.67,10.13Z" transform="translate(-2.12 -5)"/>
  <g>
    <path class="cls-4" d="M221.71,469.33q.68-.06,1.37-.07c-5.57-2.73-12.81-6.19-22.35-10.65C210.58,463.36,217.23,466.82,221.71,469.33Z" transform="translate(-2.12 -5)"/>
    <path class="cls-4" d="M494.12,254.66c1.27-2.13,2.87-4.07,4.32-6.1l-4.25-21.81-1.59,5.94L489.88,256l2.87,17.25q0,2.9-.05,5.81L494,283.5l-1.29,17.38-1.57,4.85a44.73,44.73,0,0,0-1.5-4.33c-.68-1.5-1.27-3.39-2.5-4.2-2-1.3-4.44-1.86-6.69-2.73a48.19,48.19,0,0,0,1,6.58c.43,1.49,2.19,2.78,2.21,4.17,0,1.23-1.56,2.47-2.43,3.71-1-.89-2.43-1.62-2.77-2.7a75.41,75.41,0,0,1-1.74-8.35c-2.54.44-6.95.31-7.29,1.42-1.07,3.48-.72,7.44-.67,11.2,0,1.34.78,2.68,1.21,4-1.56-.69-3.54-1-4.59-2.13-3.31-3.6-2.16-15.61,1.55-19.06,5.17-4.8,5-6.9-.94-10.42a9.6,9.6,0,0,1-3.26-2.79c-2.74-4.37-5.21-9.26-9.08-.83a1.94,1.94,0,0,1-1.18.61c-3-4.08-9-.26-10.56-2.38-3.18-4.43-7.38-4.64-11.59-5.76h-2.9c-3,1.36-5.83,3.38-8.91,3.77-1.45.18-3.29-2.77-5-4.31a35,35,0,0,1,6.11-1.76c1.57-.17,3.24.52,4.87.83-.06-2.36.44-4.91-.29-7.05-1.59-4.7.4-6.63,4.62-7.44L426,252.91c-2.15,1.91-4.24,3.9-6.49,5.7-1.25,1-2.71,2.33-4.15,2.43-12.09.83-12.9,2.67-8.15,14.06,1.16,2.78-.91,6.94-1.75,10.41-.05.21-2.38-.13-3.65-.22,1.74-4.9-1.78-4.41-4.79-5.25-1.66-.46-2.76-2.91-4.11-4.45a37.45,37.45,0,0,0,3.71-2.42c1.09-.89,3-2.51,2.77-3a23.53,23.53,0,0,0-4.55-7c-1.41-1.37-5.4-1.52-5.52-2.54-.37-3,.58-6.21,1.11-9.32,0-.28.91-.74,1.09-.63.77.48,1.83,1,2,1.75.51,1.77.29,3.8,1,5.47.48,1.15,2,1.86,3.07,2.76,1.8-7.72,8.15-1.94,12.25-3.82,6.8-3.11,4.59-6.34,1.92-9.8-2.51-3.25-6-5.77-9-8.61l-4.33-1.45c-1.58,7-2.77,7.09-9,4.08-2.79-1.36-7-.34-10.41.2-4.21.66-8.31,2-12.46,3l-5.93,23.21c7.12,1.34,12.74,3.12,10.78,12.94-.81,4.05,3.28,7.89,8.77,7.36,4.2-.4,7.12.43,8.93,5.16.88,2.31,5.06,3.19,7.36,5.16,1.79,1.53,3,3.76,4.44,5.68-1.92-.3-3.85-.58-5.76-.9s-4.07-.72-6.11-1.08c.71,1.66,1.79,3.28,2,5,.28,1.93.14,5.59-.37,5.69a68,68,0,0,1-10.24.68c.48-1.88.67-3.91,1.5-5.62,2.45-5,.05-9.26-5.49-8.74s-8-.66-6.14-6.73c.18-.57-3.79-3.19-4-3-6,5.89-11,3-16-1.38-7,6.41-13.5,13.68-21.26,19.06-19.88,13.8-41.72,17-64.76,8.9-3.45-1.22-6.33-4.07-9.48-6.17.81,4.59.78,9.55,2.62,13.67,2.8,6.28.16,9.49-5.11,10.81-6.63,1.65-4.73,5.77-4.25,10.06a17.69,17.69,0,0,1-.71,8.19c-2.16,5.44-5,10.62-7.57,15.89-1.23,2.51-2.51,5-3.77,7.5l-6.28-5.41c-5.16,7.19-10.21,14.46-15.53,21.52-1.39,1.84-3.61,3.06-5.45,4.56l-2.21-7.07c-1.56,1.87-3.18,3.7-4.68,5.62-2.77,3.55-4,10.88-10.78,4.27a1.39,1.39,0,0,0-.62-.36c-3.28-.75-6-5-6.13-9.39a36.63,36.63,0,0,0-.47-3.83c-1.3.52-2.57,1.38-3.9,1.49-2.62.22-6.23,1.1-7.72-.22-2.7-2.38-3-6,2.25-6.11,4.1-.11,6.56-1.3,6.19-5.84L178,373.27c-1.46-2.14-3.67-4.1-4.25-6.45-1.62-6.65-2.34-13.69-12.2-11.2-.56.14-1.28-.59-2-.66-1.8-.2-3.61-.25-5.42-.37.27,2,0,4.27.89,6,2.4,4.85,5.29,9.45,7.85,14.22a14.47,14.47,0,0,1,.87,3.66c-1.24-.58-2.83-.86-3.67-1.8-3.25-3.65-6.26-7.52-9.37-11.29-2.51-3-4.43-5-5,1.26-.15,1.7-2.89,3.17-4.44,4.75-.36-2-1.38-4.19-1-6,2.2-9.61-3.07-15.26-14.61-15.26l-2.9-1.44-5.8,4.37c.07,1.44.19,2.88.21,4.32,0,2.18,0,4.36,0,6.54-1.16-1.26-2.13-2.93-3.57-3.61-.84-.4-2.53.62-3.65,1.3-3,1.81-5.85,5.25-8.82,5.32-3.78.09-7.35-2.14-7.82-7.6-.25-2.85-4.14-5.2-5.33-8.2-.87-2.18,0-5,.07-7.61,2.37,1.57,5.28,2.7,7,4.81,2.54,3.14,1.91,11,7.82,8.27,2.84-1.32,2.77-9.11,3.68-14,.08-.45-2.52-2.2-3.45-1.92-7.13,2.14-7.19-.73-4.57-5.94a20.21,20.21,0,0,0,1-3.41,90.85,90.85,0,0,1,5.06-9.16,5.49,5.49,0,0,1,4.26-2c.86.07,1.48,2.35,2.34,3.54,1.13,1.57,2.12,3.54,3.69,4.38,1,.55,4.24-.61,4.24-1a14.2,14.2,0,0,0-1.29-5.81,50.22,50.22,0,0,0-3.77-6c-4,.53-6.17-1-7.28-5-2.06-7.49-5.22-14.73-6.67-22.31-.7-3.65,1.46-7.84,2.33-11.79v-2.89c-2.41,2.4-4.78,4.85-7.26,7.18-1.48,1.39-3.14,2.58-4.72,3.86-.84-2-2-4-2.4-6.12a8.69,8.69,0,0,1,.84-4.83c3.53-7.76,2.75-14.4-4.59-16.05-6.31-1.42-12.72-5.62-19.09-4-8.11,2-8.3-1.83-7.75-7.54v-1.48l-7.33-.31a38.62,38.62,0,0,1,1.07,5.63c.26,6,.33,11.92.47,17.88q0,.72,0,1.44c1.56-1.1,3.07-2.25,4.68-3.27,1.31-.83,3.34-2.43,4-2,1.33.88,2.77,2.85,2.73,4.33-.14,5.16-1,10.29-1.34,15.44-.13,1.95.56,3.94.67,5.92a23.57,23.57,0,0,1-.39,3.83,19,19,0,0,1-4-.71c-1.21-.48-14-1.68-14.12-1-.38,3.3-1.43,7.14-.17,9.81,1.06,2.25,4.83,3.55,7.65,4.52,2.17.74,4.74.29,7.13.36-1.87,2-3.67,4.16-5.66,6.08a16,16,0,0,1-3.26,1.93c1.14.79,2.26,2.24,3.41,2.26,6.7.11,6.17,2.66,3.57,7.55-1.29,2.42-.14,6.11-.2,9.22,0,2.28-.25,4.55-.39,6.82,1.6,2.84,3.1,5.74,4.83,8.5a34.57,34.57,0,0,0,3.31,3.92c-1.89,1.35-3.82,3.87-5.67,3.81-4.84-.16-9-1.26-4.77,5.92,1.73,2.94,2.11,6.67,3.1,10l1.35,4.61c-1.79,0-3.73.39-5.33-.16-2-.69-3.67-2.17-5.49-3.32.67,3.37,1.24,6.76,2.08,10.08.14.57,1.34,1,2.13,1.27,4.23,1.33,8.52,2.47,12.68,4,.5.18.9,2.75.38,3.31-4.88,5.23-1.14,5.68,3.14,6,4.9.41,10.51,10.91,8.24,15.49a5,5,0,0,1-2,1.75c-3.54,2-7.12,4-10.69,6L67.71,427c4.61-.79,9-2.45,12.5,3.22,1.16,1.9,5.84,2.8,8.6,2.32,6.6-1.13,8.57,3.7,11.27,7.58.78,1.12.94,4.15.32,4.52-5.95,3.54-1.06,7.49-.7,11.22l14.47,8.8L127.35,460c.45-.16,1.21-.56,1.32-.43,3.81,4.5,9.06,6.08,14.47,7.54,1.34.36,2.61,3.18,3.41,3,8-2.12,8.74,4.42,11.12,9L175.07,485c2.47-5.83,7.87-4.85,12.56-5.21,2.06-.16,4.18.55,6.27.87-.45-1-.63-2.34-1.39-2.85-2.53-1.72-5.43-2.93-7.82-4.79-.75-.59-.37-2.63-.51-4a15.35,15.35,0,0,0,2.78,1.41,13.16,13.16,0,0,0,2.95.18,34.78,34.78,0,0,0,0-4.55,28.09,28.09,0,0,0-1.13-4.06c2.18.82,4.9,1.1,6.37,2.61a10,10,0,0,1,2.42,6.48c0,4.71-1.07,9.71,5.95,4.33,1.64,3.46,3.7,6.79,4.75,10.42.52,1.8-.81,4.14-1.31,6.23l26.21,1.87-2.93-7.46c-3.67-2.48-7.3-5.08-11.39-.62a7.45,7.45,0,0,1-2.29,1.15c-.21-1.13-.75-2.3-.58-3.37.81-5.16,8.78-9.4,13.9-8,.89.24,2-.54-8.14-6.24-3.25.29-6.53,1.4-9.77,1.56-1.5.07-3.7.05-4.43-.86-3.24-4-6.27-8.13-9.32-12.27l2.54.84L197.59,457q-1.16-1.57-2.32-3.13c-.79-1.06-1.71-2-2.56-3-.59.87-1.17,1.75-1.76,2.61-23-12.46-22.56-14.32-21.6-15.86,2.61-4.17,5.67-8.13,1.47-13,1-.79,2.57-2.43,2.82-2.25,4.88,3.6,9.56,2.87,14.86.66,3.4-1.42,6.6-.12,7,4.69.13,1.63,1.61,3.15,2.48,4.73,1.14-1.15,2.28-2.29,3.41-3.46.16-.16.19-.57.33-.6,5.53-1.05,11.11-1.87,16.58-3.18a56.32,56.32,0,0,0,8.71-3.41,23.67,23.67,0,0,0,2.85-1.69,14.86,14.86,0,0,1,.65,3.57c-.51,8.25-1.82,16-10.25,20.54-.91.49-.61,5.36.6,7.27,3.78,6,8.34,11.42,12.4,17.22.88,1.26.89,3.14,1.3,4.73-1.36-.45-3-.53-4-1.4a10.58,10.58,0,0,0-7.42-2.71c15.85,7.77,18,9.56,20.16,11.34l2.9,1.48,3.59-3.53,2.21,7.85c3.22.12,7.15,3.86,9.29-1.85.1-.27,1.66-.09,2.52.05,6.23,1.07,12.44,2.18,18.66,3.28l1.38-.1,7.24-7.24c1.83-6.05,3.77-12.07,5.45-18.16.85-3.09,4-6.85-1.71-8.75.85-2,1.42-5.43,2.6-5.65,7.35-1.38,9.35,1.31,8.64,9.18-.57,6.32-.3,12.71-.4,19.07l5.78,0c.48-2.06.89-4.15,1.48-6.18.48-1.63,1.18-3.19,1.79-4.78a21.88,21.88,0,0,0,1.53,4.56c1.62,2.72,3.55,5.26,5.36,7.88l1.43,0c1.41-.39,3.73-1.5,4.08-1.05,3.76,4.77,6.1,3.46,8.18-1.38.53-1.23,2.17-2,2.54-3.25a17,17,0,0,0,.54-5.81,14.3,14.3,0,0,0-1.3-3.77c1.41.45,3.19.53,4.16,1.45,1.49,1.41,2.42,3.41,3.58,5.16l7.18-1.59c.49-1.85,1.31-3.67,1.42-5.54.25-4.39.28-8.31,5.33-2.48.59.68,3.06.66,3.8,0s.89-2.59.71-3.89c-.64-4.81-1.74-9.57-2.15-14.39-.1-1.21,1.73-2.59,2.68-3.89.92,1.14,2.84,2.64,2.59,3.37-2.14,6,2.3,9.6,4.61,14,4.67-.06,8.27-2.63,7-7-3-10.12,4.51-10.07,10.31-12,1.52-2.37,3.21-4.64,4.51-7.12,1.48-2.83,2.26-6.36,6.49-2.53.45.41,4-1.36,4.7-2.8.87-1.72.27-4.19.3-6.34h0c5.89-3.53,3.76-10.56,6.7-15.38l-8.15-3.48c-.85-4.7-1.81-9.38-2.5-14.1-.18-1.23.44-2.57.7-3.87.93.9,2.41,1.66,2.7,2.74,1.43,5.27,3.13,5.73,6.42,1.12,1.29-1.8,4-2.56,5.75-4.08,5.42-4.61,10.73-4.29,15.52,1.21a10.52,10.52,0,0,1,1.2,2.45,18.32,18.32,0,0,1-3,.42c-2.88-.06-6.08-1.08-8.54-.12-2.26.88-4.37,3.59-5.24,6-.46,1.27,1.87,3.53,2.89,5.38.61,1.09,1.83,2.46,1.56,3.33C418,405.65,415.73,412.91,413,420c-1.14,3-3.42,5.52-5.08,8.32-.92,1.55-2.59,4.43-2.31,4.65,2.91,2.27,6,4.82,9.39,5.76,1.45.4,4.28-2.53,5.8-4.47,4.58-5.88,5.22-14.9,14-17.42l7.2-7.23h0c4.76-5.25,9.41-10.6,14.3-15.72,2.86-3,6.33-5.42,9.1-8.47,3.94-4.34,7.5-9,11.22-13.57,4.05-4.81,8.21-9.53,12.07-14.49.9-1.16.83-3.11,1.09-4.72.51-3.26.94-6.53,1.41-9.79-4-2.21-5.4-5.19-3.19-9.57.7-1.4,1.58-3.74.94-4.61-3.56-4.85-.94-9,.85-13.37-2.91,1.77-5.84,3.52-8.74,5.3-1.4.86-2.72,2.43-4.15,2.51-1.26.08-3.75-1.53-3.71-2.28.11-2,.76-5,2.16-5.7,4.1-2.11,8.67-3.34,13.11-4.72.1,0,.92,2.26,1.4,3.47l5.61-1.55q1.48-20.29,3-40.57C496.69,266.12,489.91,261.74,494.12,254.66Zm-120.48,4.5c-1.93-2.68-4.12-4.41-3.91-5.77.27-1.69,2.51-3.07,3.9-4.59l5.45,5ZM92.38,330.94l-1.88,2.87c-1.25-.89-3-1.52-3.65-2.73-2-4-3.77-3.82-6.22-.41-.62.87-2.73,1.76-3.28,1.37-1.46-1-3.72-3.38-3.38-4,1.55-3,3.34-6.55,6.06-8C83.78,318,92.43,325.26,92.38,330.94Zm-20-55.46c5.34-2.25,5.34-7.49,6.91-11.87.22-.63,1.86-1.43,2.16-1.21a4.88,4.88,0,0,1,2,2.7c.48,3.06.6,6.18.85,9.18-.74,3.73-1.41,7.46-2.33,11.14-.08.33-2.29.7-2.71.27a69,69,0,0,1-5.94-7.09A7.16,7.16,0,0,1,72.37,275.48Zm30.8,104.18c-.94,5-2.25,10.39-1.33,15.2,1.24,6.47-1.84,6.32-6.21,6.35a68,68,0,0,1-7-1.48c-8.6-2.75-10.21-7.7-4.31-14.26,2.66-3,2.79-3.59-1.22-5.11-3.64-1.38-6.71-4.39-9.83-6.92-.53-.43-.39-2.89,0-3,1.39-.52,3.17-1,4.48-.56,4.22,1.43,8.21,3.59,12.47,4.84,2,.58,4.42-.09,6.57-.56C101.54,373.07,104.29,373.64,103.16,379.66Zm84.25,78.58a42.55,42.55,0,0,0-2.91-4.8c1.5.44,3.25,1,5.28,1.61C189,456.12,188.2,457.18,187.41,458.24ZM179.34,452c-2.66-.16-4.9-1.25,0,0Zm-20.81-64.15,7.39,9.57c-2.14,1.52-5,4.73-6.28,4.2-2.55-1-4.25-4.17-7.16-7.39ZM141.7,375.5c.39-.05.89.66,1.46,1.13l-1.11,1.78a7.4,7.4,0,0,1-1.48-1.69C140.47,376.5,141.25,375.56,141.7,375.5Zm-11.32,51.09-3-7.28c3.23-3.92,6.49-8.34,10.35-12.14.61-.6,4.16,1.23,5.83,2.58.51.41-.44,3.14-1.22,4.52a38.52,38.52,0,0,1-5.26,7.75C135.24,423.92,132.64,425.09,130.38,426.58Zm22.91,20.31c-3.92-1-8-1.78-11.55-3.57-1.51-.76-3-4.05-2.56-5.69.93-3.56,3.1-6.79,4.76-10.16,1.7,1.54,3.82,2.81,5,4.68,2.62,4.1,4.77,8.5,7.41,13.34C155,446.14,154,447.08,153.29,446.9Zm13.08-33.8c-5.24,4.12-5.84,10.24-2.14,15.92,1.4,2.15,1.61,5.24,1.72,7.93,0,.6-3.66,2.17-3.95,1.84-3.83-4.42-9.7-7.74-9.14-14.78.3-8.17,3.89-13.26,11.36-15.3,1.22-.33,2.84.83,4.28,1.31C167.81,411.06,167.31,412.36,166.37,413.1Zm119.09,15c-5.66.48-11.32.89-17,.95-.47,0-1.73-3.11-1.29-4.26,1.15-3,3-5.68,4.64-8.49,2.45-4.29,4.63-1.69,6.76.31,2.69,2.54,2.09,8.54,8.1,7.68.23,0,.64,1.19,1.25,2.38C287.11,427.2,286.32,428.05,285.46,428.13Zm103-26.27a23.84,23.84,0,0,1-3.12-2c-2.1-1.84-4-3.86-6.15-5.69-.89-.78-2.54-1-3-1.93-1.79-3.74-3.27-7.63-4.72-11.53a5.42,5.42,0,0,1,1.91-1.29c2.61,2.73,5.14,5.54,7.62,8.39,2.92,3.35,5.78,6.75,8.67,10.13.08-.4.15-.82.21-1.23-.06.41-.13.83-.21,1.23h0ZM339,373.34a6.44,6.44,0,0,1-2.82-.88,6.44,6.44,0,0,0,2.82.88l2.9-1.5,2.9-2.86,1.45,0-1.45,0-2.9,2.86-2.9,1.5-6.16,2.72Zm33.92-23.94c.1-1.61,3.49-3,4.28-3.63,9.71,0,16.17,8.38,13.82,16-.35,1.15-2.46,2.75-3.39,2.54a9.13,9.13,0,0,1-4.79-3.16c-.59-.76.34-2.67.54-4.07.23-1.65.42-3.31.63-5a43.54,43.54,0,0,0-4,2.7c-1.72,1.44-3.28,3.07-4.91,4.62C374.23,356.11,372.68,352.7,372.89,349.4Zm12,27.37a21.62,21.62,0,0,0-.92-2A21.6,21.6,0,0,1,384.88,376.77Zm-1.52-2.84c-.61-.92-1.21-2-1.81-3C382.15,372,382.74,373,383.36,373.93Zm-45.79-9.29,4.24-.13-4.24.13-1.5,2.85h-1.46Zm3.68,62.87-3.15-2.42c1.07-.77,2.16-2.15,3.21-2.12s1.91,1.56,2.86,2.43Zm7.87-18c-2.59,1.9,1.93,9.48-5.81,7.26-2.77.28-5.55.5-8.3.87-.58.08-1.52.61-1.56,1-.49,4.69-.82,9.4-1.23,14.1-.07.83-.08,2.07-.57,2.36-.69.41-2.38.46-2.64,0-2.6-4.12-5-8.37-7.44-12.58-1.19-.14-2.38-.3-3.58-.4-1.82-.15-3.65-.26-5.48-.38.36,1.75.76,3.5,1.07,5.26.65,3.67,2.59,7.89-2.63,9.77-3.61,1.3-12-3.48-12.24-7-.4-7.1-.3-14.24-.19-21.35,0-.5,1.88-1.42,2.82-1.34a16.71,16.71,0,0,1,4.18,1.46c.12-1.52.16-3.06.39-4.57.2-1.3.63-2.56,1-3.83.55,1.15,1.58,2.32,1.56,3.45-.09,3.57,1.54,4.54,4.64,6.48,3.91,2.45,5.77,8.17,8.51,12.48,4.13.5,6.37-.94,5.81-5.48-.66-5.32,1.27-6.53,6.51-5,3.71,1.1,8.5,1.05,5.09-5.49l5.81-2.91-4.05-9.67,4.05,9.67C348.59,403.91,354.61,402.42,349.11,409.55Zm4.49,3.57a3.46,3.46,0,0,1-1.21-1.86c-.06-.21.86-.69,1.33-1.05l1.58,2.1C354.68,412.63,353.86,413.3,353.61,413.13Zm37.68-82.46c-1.41,0-4.23-4.68-4-4.94A159,159,0,0,1,402,311.64c.66-.54,3.64,1.74,4.89,2.37C405.79,322.75,397.9,330.69,391.29,330.66Zm42-30.76c-4.11-1.15-7.43-3.08-11.18.43-1.23,1.15-3.06,1.65-4.61,2.45-.36-2.68-1.94-7-.88-7.78,4.37-3.32,9.54-5.58,14.41-8.23l.62,1.52,3.84-.35c-.59-1.25-1.55-2.46-1.69-3.75a39,39,0,0,1,.23-6.11c2,1,4.62,1.45,5.72,3,2,2.88,3,6.44,4.56,9.65a8.87,8.87,0,0,0,1.88,2c.5-.7,1.49-1.44,1.43-2.09-.67-7.38,4.61-5.73,8.68-5.74a41.19,41.19,0,0,1,6.29.6c.78.12,2.05.63,2.1,1.08a3.17,3.17,0,0,1-1.06,2.31c-4.68,4.12-8.87,9.56-14.35,11.77C444.71,302.48,438.38,301.33,433.28,299.9Zm4.88,57.76c-.43-.51-5.58-6.47,2.25-5.25.78.12,2-1.61,2.77-2.69a48.75,48.75,0,0,0,2.56-4.68l4.64,6.12c-.54,2-.75,3.22-1.16,4.33-1.11,2.95-2.3,5.87-3.46,8.8C443.16,362.15,440.32,360.19,438.16,357.66Zm13.32,26.9.28-.27.33.61Z" transform="translate(-2.12 -5)"/>
  </g>
  <path class="cls-7" d="M377.17,345.77c9.71,0,16.17,8.38,13.82,16-.35,1.15-2.46,2.75-3.39,2.54a9.13,9.13,0,0,1-4.79-3.16c-.59-.76.34-2.67.54-4.07.23-1.65.42-3.31.63-5a43.53,43.53,0,0,0-4,2.7c-1.72,1.44-3.28,3.07-4.91,4.62-.83-3.37-2.38-6.78-2.17-10.08C373,347.79,376.38,346.39,377.17,345.77Z" transform="translate(-2.12 -5)"/>
  <path class="cls-6" d="M471,276.13c3-6.47,9.53-4.15,14.47-5.79l1.33,1.4q-.05,4.3-.11,8.6l-9.9,3Z" transform="translate(-2.12 -5)"/>
  <path class="cls-7" d="M69.17,223.9l-1.44-10.15,4.37-2.88q0,5.78,0,11.56Z" transform="translate(-2.12 -5)"/>
  <path class="cls-7" d="M156.21,167.33c-5.58,1-11.28,1.6-16.71,3.14-5,1.43-6.45-.18-6.65-5-.07-1.84-1.79-3.62-2.76-5.42l1.45-1.45c7.8,0,15.61.24,23.39-.18,1.84-.1,3.55-2.39,5.32-3.67-1.94-1.12-3.84-2.31-5.82-3.34-1.69-.88-3.47-1.57-5.21-2.35,1.5-1.28,3-2.57,4.5-3.85.91-.77,2.54-1.44,2.64-2.29,1.06-9.25,11.83-11.12,14.36-19.16,3,1.12,6.1,2.08,9,3.43,1.34.62,2.33,2,3.47,3a34.53,34.53,0,0,1-4.26,3.55c-4.18,2.5-8.52,4.74-12.69,7.25-.63.38-1.1,2.35-1,2.39,5.86,3,.72,9.18,3.84,13.1.75.95,0,3.91-1.05,5.22a4.84,4.84,0,0,1-4.55,1.06C158.2,160.13,156.39,162.24,156.21,167.33Z" transform="translate(-2.12 -5)"/>
  <path class="cls-2" d="M166.36,113.67a25.31,25.31,0,0,1-4.51,2.1c-.94.24-2.67-.07-3-.7a7,7,0,0,1-.4-3.87c0-.54.93-1,1.42-1.51l5.19-5.4,1.36,7.94Q166.36,112.95,166.36,113.67Z" transform="translate(-2.12 -5)"/>
  <path class="cls-7" d="M157.67,68.7q0-.72,0-1.44L161.07,63l2.13,2.39Z" transform="translate(-2.12 -5)"/>
  <path class="cls-6" d="M196.1,137.95l-2.59,2.91c-.82-1.15-2-2.22-2.32-3.5-.2-.73.91-1.81,1.42-2.74Z" transform="translate(-2.12 -5)"/>
  <path class="cls-3" d="M327.36,94.81c-.39,2.33-.76,4.66-1.17,7-1,5.55-.24,9.74,6.93,9-2,2.16-4,4.41-6.13,6.41-.43.39-1.7-.13-2.59-.23,1.28-8-7.78-5.4-10-9.83a2.74,2.74,0,0,1-.14-.71l2.92-4.34c3.51-3.33,3.21-4.25-1.54-7.18-1.6-1-4.09-3.53-3.81-4a18.57,18.57,0,0,1,5.39-6c1-.68,3.14.31,4.76.54a12.14,12.14,0,0,0-2.35,2.8c-.51,1.22-.91,3.72-.57,3.87A78.75,78.75,0,0,0,327.36,94.81Z" transform="translate(-2.12 -5)"/>
  <path class="cls-9" d="M320.17,57.34c-2,5-3.78,9.71-5.61,14.37a.83.83,0,0,1-.51.48c-1.37.16-3.63.84-4,.29-2.56-3.88-4.72-8-7-12.08,1.4-.62,2.83-1.18,4.2-1.86a59.27,59.27,0,0,1,6-3.12,12.66,12.66,0,0,1,5.39-.69C319.28,54.79,319.75,56.56,320.17,57.34Z" transform="translate(-2.12 -5)"/>
  <g>
    <path class="cls-2" d="M494.12,254.66c-4.21,7.08,2.57,11.47,4.32,17.09q0-11.59,0-23.19C497,250.59,495.39,252.53,494.12,254.66Z" transform="translate(-2.12 -5)"/>
    <path class="cls-2" d="M462.35,139.66l-13.17-15.83C450,136.59,453.73,141.1,462.35,139.66Z" transform="translate(-2.12 -5)"/>
    <path class="cls-2" d="M492.62,232.69l1.59-5.94c-.49-1.8-.84-3.66-1.49-5.4-2.95-7.86-6-15.68-9-23.52h0l-2.61-8.74-3-4.33c-2.61-7-5.43-14-3.42-21.69l-5.64-13-3.86-4.71-2.65-4.56c-8.08,5.65-9.11,5.24-13.38-5.41l-.14.17.14-.17-10.14-8.71c-.43,3-.68,6.09-2.58,6.93a2.85,2.85,0,0,1-1.35.21,2.85,2.85,0,0,0,1.35-.21c1.89-.84,2.14-3.94,2.58-6.93q0-.71,0-1.42c-6.13-2.91-9.91,2.06-14.49,4.33l0,4.35,0-4.35-1.38-7.29c7.49-1.52,8.69-6.51,7.21-13h0l-7.26-8.71c-.31-.32-.63-.71-1-1.12l-1-1.27,1,1.27c.33.41.66.8,1,1.12l7.26,8.71,5.8-5.86a35.42,35.42,0,0,0-4.08-3.61c-.61-.41-2.25.46-2.63,0-2.16-2.4-4.08-5-6.09-7.55,2.81-.37,5.61-.88,8.43-1.06A18.63,18.63,0,0,1,436,92c-1.45-2.07-2.49-4.74-4.45-6.07-2.45-1.67-5.93-1.78-8.46-3.38-8.38-5.29-16.52-10.94-24.76-16.45-.11.46-.08,1-.36,1.37-1.72,2.06-3.44,5.65-5.28,5.72-2.55.09-4.72-10.19-3.08-12.9l-12.91-4.77c.07.46,0,1.07.23,1.36,1.56,1.69,3.2,3.31,4.81,5a10.87,10.87,0,0,1-2.41,0c-3.35-.75-6.88-1.44-5.42-6.34l.11-.2-7.53,3.32h0l-1.38-.1c-7.05,3.27-7.08-.58-5.81-5.73l-4.88-2.82c-.82,1.76-1.71,3.48-2.43,5.28a38.26,38.26,0,0,0-1.12,3.88c-.42-.12-1.05-.12-1.21-.39-1.65-2.84-1.15-9.15-7.34-4.39a7,7,0,0,0-.45-1.34c-5.51-9.54-16.12-12.93-26.38-8.13-2.2,1-3.87,3.2-5.79,4.84l-4-1.3c-2.4-.13-4.79-.33-7.19-.36a5,5,0,0,0-2.93.6,26.63,26.63,0,0,0-3.25,3.61l-4.13-8.27H285.3c-.22.93-.17,2.05-.69,2.76C280.38,52.46,279.46,57,288.29,59c1,.24,1.4,3.28,2.07,5-1.6-.06-3.88.53-4.69-.3-3.12-3.19-9.07-4.61-7.62-11-2.71-.42-5.72-.25-8.07-1.41-3.09-1.52-2.7-3.51.81-4.4q0-.7,0-1.39l-5.7-4.44-3-2.85c-3.32-1.32-7.08-3.74-7.26,2.87,3.47,3,7.29,5.66,10.29,9.06,2.66,3,6.28,6.34,2,11.16-.83.93-.18,4.48,1,5.63,3.41,3.4,7.54,6.08,11.11,9.34.82.74,1.21,3.32.63,3.93-1.08,1.12-3.5,2.36-4.51,1.85-2-1-3.37-3.35-5.24-4.82a22,22,0,0,0-4.5-2.14c-.53,1.91-2,4.18-1.41,5.66,1.15,3,3.41,5.49,5.21,8.2h2.9l10.17-1.44c3.82.39,7.64,1.13,11.45,1.09,4.65-.05,7.79,1.15,8.35,6.32.08.76,1.43,2.11,1.7,2,6.1-2.51,8.68,4,13.3,5.1,3.51-3.33,3.21-4.25-1.54-7.18-1.6-1-4.09-3.53-3.81-4a18.57,18.57,0,0,1,5.39-6c1-.68,3.14.31,4.76.54a12.13,12.13,0,0,0-2.35,2.8c-.51,1.22-.91,3.72-.57,3.87a78.75,78.75,0,0,0,8.28,2.71c-.39,2.33-.76,4.66-1.17,7-1,5.55-.24,9.74,6.93,9h0c-2,2.16-4,4.41-6.13,6.41-.43.39-1.7-.13-2.59-.23,1.28-8-7.78-5.4-10-9.83a2.74,2.74,0,0,1-.14-.71c-3.58.06-9.64-1.05-10.32.38-2.87,6-6.83,7.86-13.15,7.56-4.26-.2-8.71,1.92-12.86,1.38-6.22-.82-9.84,2-8.62,8.06,17.22-.42,33.38,4.28,49.29,10.19,2.31,1.64,4.74,3.12,6.89,4.94,8.93,7.54,19,14.19,26.34,23,8.74,10.49,13.56,23.6,16.25,37.2.41,8.37,1.29,16.76,1.08,25.12-.17,6.64-1.67,13.25-2.58,19.88,4.15-1,8.25-2.32,12.46-3,3.45-.54,7.61-1.56,10.41-.2,6.19,3,7.38,2.94,9-4.08l4.33,1.45c3,2.84,6.48,5.36,9,8.61,2.67,3.45,4.88,6.69-1.92,9.8-4.1,1.88-10.45-3.91-12.25,3.82-1.06-.91-2.58-1.61-3.07-2.76-.7-1.66-.47-3.69-1-5.47-.21-.73-1.27-1.28-2-1.75-.18-.11-1,.35-1.09.63-.52,3.11-1.48,6.3-1.11,9.32.12,1,4.11,1.17,5.52,2.54a23.53,23.53,0,0,1,4.55,7c.22.48-1.68,2.1-2.77,3a37.45,37.45,0,0,1-3.71,2.42c1.35,1.55,2.45,4,4.11,4.45,3,.85,6.53.35,4.79,5.25,1.27.09,3.6.43,3.65.22.84-3.46,2.91-7.63,1.75-10.41-4.75-11.38-3.93-13.23,8.15-14.06,1.44-.1,2.9-1.42,4.15-2.43,2.24-1.8,4.33-3.79,6.49-5.7l2.89,2.91c-4.22.82-6.21,2.74-4.62,7.44.72,2.14.23,4.69.29,7.05l2.89,1.46h2.9c4.22,1.12,8.41,1.32,11.59,5.76,1.52,2.12,7.55-1.7,10.56,2.38a1.94,1.94,0,0,0,1.18-.61c3.87-8.42,6.34-3.54,9.08.83a9.6,9.6,0,0,0,3.26,2.79c5.89,3.52,6.11,5.62.94,10.42-3.71,3.44-4.86,15.46-1.55,19.06,1.05,1.15,3,1.44,4.59,2.13-.42-1.34-1.19-2.67-1.21-4-.06-3.77-.4-7.72.67-11.2.34-1.11,4.74-1,7.29-1.42q0-7.24,0-14.48l-5.8-7.26c3-6.47,9.53-4.15,14.47-5.79h0l1.33,1.4,6,1.47L489.88,256ZM348.45,116.25q-1.37-2.26-5.14-2.6h0q3.77.34,5.14,2.6a5,5,0,0,1,.49,1.1A5,5,0,0,0,348.45,116.25Zm-5.1-6.19c0-4.36-.24-7.09-1.22-9C343.11,103,343.35,105.7,343.35,110.06Zm-1.77-9.82a5.69,5.69,0,0,0-.69-.74A5.7,5.7,0,0,1,341.58,100.24Zm11.89,26.45,8.69,2.94h0l-8.69-2.94-4.34-5.76Zm61.36,27.07c-1.43-2-3.38-3.89-4.05-6.14-.29-1,2.08-2.72,4.49-5.6,1.67,3.25,3.46,5.11,3.21,6.63C418.17,150.5,416.13,152.07,414.84,153.76Zm-36.92,2.67a2.24,2.24,0,0,1-.11.56A2.24,2.24,0,0,0,377.92,156.43Zm3.64-34.64c-3-1-6-2.38-8.95-3.61l8-5.39,4.74,8.32C383.82,121.41,382.53,122.1,381.56,121.79Zm-19.39,6.38c.08-.53.15-1.06.21-1.59-.07.53-.14,1.06-.21,1.59,1.64-.35,3.28-.78,4.92-1.15.82-.18,1.64-.35,2.45-.47-.81.13-1.63.29-2.45.47C365.46,127.38,363.81,127.82,362.17,128.17Zm6.06,6.41a38.75,38.75,0,0,1,4.14,1.82l-3,2.68a36.45,36.45,0,0,1-2.35-3.26C367,135.67,368,134.5,368.23,134.58Zm9.19,23a1.26,1.26,0,0,1-.2.14A1.26,1.26,0,0,0,377.42,157.58Zm.5,16.3-1.24-3.64,2.63,2.48Zm91.55,6.53q.76,5.24,1.52,10.48-.75-5.24-1.52-10.48l-6.63-2.89Zm-25.24,74.75-.63,1.32Zm23.82-3.7h0Zm10-13c.35.76.7,1.52,1.08,2.27C478.79,240,478.43,239.25,478.08,238.49Zm.78-38.75q-4.84.78-6.85-4.59Q474,200.52,478.86,199.74ZM449,135.65l-.6.64Zm-28.7-13,.48-.3Zm2.75-1.69h0l-1.42-13.08ZM382.11,76.47c-.38.17-.78.31-1.19.45C381.33,76.78,381.74,76.64,382.11,76.47Zm-67.56-4.76a.83.83,0,0,1-.51.48c-1.37.16-3.63.84-4,.29-2.56-3.88-4.72-8-7-12.08,1.4-.62,2.83-1.18,4.2-1.86a59.28,59.28,0,0,1,6-3.12,12.66,12.66,0,0,1,5.39-.69c.63.06,1.09,1.83,1.52,2.61C318.21,62.38,316.39,67,314.56,71.71Zm44,87.87c0-.77,1.52-1.87,2.55-2.32a42.68,42.68,0,0,1,5.45-1.61l4.38,1.47h0c1.13,2.55,2.28,5.09,3.39,7.64.79,1.82,1.55,3.65,2.33,5.47a40.25,40.25,0,0,0-4.32.23C363.1,171.94,358.8,168.65,358.58,159.58Zm29.91,49.66c-1.52-1.68-3.08-3.34-4.54-5.08-.25-.3.06-1-.17-1.39-2.27-3.46-3.06-6.91.06-10.29a1.52,1.52,0,0,1,1.46,0c2.44,3.32,4.79,6.71,7.55,10.63Zm52.08,50.08,1.38.84h0ZM487,250q.23-6.21.45-12.41-.23,6.21-.45,12.41l-.07,4.34Q486.93,252.19,487,250Z" transform="translate(-2.12 -5)"/>
  </g>
  <path class="cls-7" d="M270.79,46.95,278,52.75c-2.71-.42-5.72-.25-8.07-1.41C266.88,49.82,267.27,47.83,270.79,46.95Z" transform="translate(-2.12 -5)"/>
  <path class="cls-7" d="M282.41,87.58c-2.14,9.3-6.65,1.91-10.17,1.44Z" transform="translate(-2.12 -5)"/>
  <g>
    <path class="cls-4" d="M194,23.74c-1.11-.86-3-2.62-3.21-2.45-7.41,6.62-13.5,0-20-1.85l-7.18,1.68c-2.6,3.11-5,6.44-8,9.14-.59.53-3.39-1.37-5.16-2.15-6.49,1-13.15,1.45-19.39,3.31-3.12.93-5.47,4.47-8.17,6.83L105.57,52.8a9.14,9.14,0,0,0,1.23.57,9.15,9.15,0,0,1-1.23-.57l-3,4.33C94.38,68,86,78.79,78,89.86c-3.78,5.23-6.76,11-10.11,16.6l-4.36,8.71h0l-1.41,2.92-6,11.48c5.54,3.79-.32,8.89,1.51,13.11q0,.7-.05,1.41c-3.19,6.72-4.72,15.63-10,19.59-6.21,4.67-6.55,8.56-5.17,14.61.17.74-1.12,1.86-1.79,2.75-2.57,3.42-3.28,6,2.35,6.75,1.07.13,2,1.57,3,2.43s1.72,1.58,2.58,2.38A32.24,32.24,0,0,0,50,188.91a23.2,23.2,0,0,0,.5-3.52c1,.93,2.6,1.74,2.79,2.81.39,2.16,0,4.46-.07,6.7l-4.37,7.24,6.51.13L54.7,205v2.9c3.18,5.41-.68,5.54-4.36,5.81a27,27,0,0,1-.09,5,30.24,30.24,0,0,1-1.81,4.88l-3.93-4.08H40.18c.27,4.9.37,9.5-5.48,11.89-1.1.45-1.35,4.15-1.18,6.29.25,3.28,1.49,6.5,1.68,9.78.06,1.05-1.87,2.22-2.89,3.33-.54-1.15-1.8-2.55-1.5-3.41,1.75-5.11-2.22-6.71-5.1-9l-5.84,0C24,247.1,29,255.65,22.92,265.51c-.43.7-.12,1.88-.14,2.83-.12,6.57,1.62,13.74-5.77,18l11.55-5.87c-.14-1.77-.85-3.73-.32-5.26a71.22,71.22,0,0,1,4.84-10.58c.46-.84,2.8-1.71,3.13-1.39,5.16,5,4.67-.73,5.3-2.94,1.55-5.4,2.59-10.95,3.94-16.41,1-4.22,3.49-5.26,8-4.9s9.49-1.26,14.24-2l1.46-13-1.44-10.15c-3.36.2-7.06-.23-5.47-4.6.86-2.35,4.47-5.17,6.82-5.15,3.64,0,5.58,3,3,6.88v11.56L79.33,221l4.11,1.95c-1,1.55-1.71,4.15-3,4.47-8.74,2.14-8.82,8.41-8.45,15.51s-1.07,7.85-7.84,5.17c-2.17-.86-4.39-1.59-6.59-2.38-.55,5.71-.37,9.55,7.75,7.54,6.37-1.58,12.78,2.61,19.09,4,7.34,1.65,8.12,8.3,4.59,16.05a8.69,8.69,0,0,0-.84,4.83c.39,2.12,1.56,4.09,2.4,6.12,1.58-1.28,3.24-2.47,4.72-3.86,2.48-2.33,4.85-4.78,7.26-7.18,1.42-2.81,2.45-6,4.52-8.19.57-.61,4.25,1.7,6.5,2.66a97.8,97.8,0,0,1-6.83,8.27c-.72.72-2.74.14-4.17.15-.87,3.95-3,8.14-2.33,11.79,1.45,7.58,4.61,14.82,6.67,22.31,1.11,4,3.32,5.57,7.28,5-.89-1.93-2.82-4.1-2.45-5.75.7-3.06,2.09-7.59,4.33-8.4,10.53-3.84,10.67-3.47,7.75-14.27-.31-1.16-.64-2.31-1-3.46l-1.44-1.45c-1.83.37-3.71,1.16-5.48,1a4.16,4.16,0,0,1-3-2.61c-.61-4.85,5.09-12,9.9-12.9,2.93-8.59,1.9-9.77-7-9.1-1.42.11-4-1.57-4.33-2.87-2.07-8,.25-11,7.83-14.46,3.23-1.48,5.3-5.49,7.9-8.36a17.27,17.27,0,0,0-.4-1.74,17.27,17.27,0,0,1,.4,1.74c6,1,3.91,4.32,2.78,8-.56,1.81.23,5.72,1.17,6,3,.84,10.35-9.76,9.41-12.91a16.77,16.77,0,0,1-.28-3.6c1.53.5,4.06.64,4.41,1.58,1,2.55,1,5.45,1.38,8.21,2.34-1.55,6.9-3.68,6.67-4.57-1.76-6.8,2.74-5.5,6.35-5.58q.11-9.41.22-18.82l14.54-39.18-16.18-1.48-1.45-2.9c-5.58,1-11.28,1.6-16.71,3.14-5,1.43-6.45-.18-6.65-5-.07-1.84-1.79-3.62-2.76-5.42a14.51,14.51,0,0,0-3.37,2.25,8.09,8.09,0,0,0-.88,1,8.1,8.1,0,0,1,.88-1,14.51,14.51,0,0,1,3.37-2.25l1.45-1.45h0c7.8,0,15.61.24,23.39-.18,1.84-.1,3.55-2.39,5.32-3.67-1.94-1.12-3.84-2.31-5.82-3.34-1.69-.88-3.47-1.57-5.21-2.35,1.5-1.28,3-2.57,4.5-3.85.91-.77,2.54-1.44,2.64-2.29,1.06-9.25,11.83-11.12,14.36-19.16l-4.38-10.11a25.31,25.31,0,0,1-4.51,2.1c-.94.24-2.67-.07-3-.7a7,7,0,0,1-.4-3.87c0-.54.93-1,1.42-1.51l5.19-5.4,1.36,7.94c2.83-2,7.62-3.6,8.13-6.07,1.45-7.15,5.64-9.33,12-10.1,1-.12,2.64-2.93,2.29-3.62-.69-1.34-2.87-3.14-3.94-2.86-7.57,2-14.86,6.35-22.89,1.57-9.08,6.47-11-1.76-13.73-7.07-6.1-11.92-4.42-14.41,9.47-15.39q0-.72,0-1.44l-13-4.35c-4.09-4.82,2.3-6.64,2.9-10.12.87-1.36,1.77-2.7,2.6-4.08-.83,1.38-1.73,2.72-2.6,4.08,4.92-.63,9.95-.86,14.7-2.12,1.72-.45,2.78-3.37,4.15-5.17-2.75-4.78,1.08-6.45,4.21-7.4,1.62-.49,3.88,1.65,6,2.08a87,87,0,0,0,8.67,1l4.37-2.9h4.35l2.9,0h1.42l0-2.89C192.88,32.94,190.93,29.26,194,23.74Zm-136.38,161L56.17,176C64.48,177.65,58.48,181.61,57.59,184.74Zm10.2-43.5-.06-4.36c-.54-.73-1.13-1.44-1.7-2.16.57.72,1.16,1.43,1.7,2.16ZM59,151.8l1.51,8.28h0Zm10.74-36.35a8.06,8.06,0,0,1,5.8,3.69A8.06,8.06,0,0,0,69.73,115.45Zm6.69,5.44h0c2.39-1.48,5.59-1.47,8.31-2.35C82,119.42,78.81,119.41,76.41,120.89Zm49.34-36.23a9.93,9.93,0,0,0-2.5.38,9.93,9.93,0,0,1,2.5-.38c2.19-1.73,4.42-3.42,6.6-5.16C130.17,81.23,127.94,82.93,125.75,84.66ZM114.44,141l.06.1Zm-.42-.68.1.14Zm-.41-.57.08.1Zm-2.37-2.86c-1.12-1.4-2.22-2.82-3.43-4.15,1.2,1.33,2.3,2.75,3.43,4.15Zm-1.81-38.69c-.33-1.49-.85-3.47-1.13-4.81h0C108.58,94.72,109.1,96.69,109.43,98.18ZM121.76,86a1.77,1.77,0,0,0-.23.83A1.77,1.77,0,0,1,121.76,86Zm5.47-23.14q0,.72,0,1.45l-1.4,1.48,1.4-1.48q0-.72,0-1.45c2.67-2.35,4.08-3.68,4.24-4.74.1-.67-.32-1.24-1.22-1.89.9.65,1.32,1.22,1.22,1.89C131.31,59.23,129.9,60.57,127.23,62.91Zm-21,31-.72.21Zm5,42.93h0c5.73,2.91,9.67.58,13.43-2.28C120.92,137.46,117,139.79,111.25,136.88Zm18.42-6c-1.71,1.06-3.31,2.4-5,3.65C126.36,133.33,128,132,129.67,130.93Zm1.93-1-.61.29Zm-.68.32q-.57.29-1.12.63Q130.35,130.51,130.92,130.22ZM81.38,176.42l5.83-8.61,6.44,6-3.44,1.89-.49-.93ZM113,233.33c-8.15,1.37-8.56,8.61-11.13,14.16-.41.88-.35,2.86.18,3.18,6.47,3.88-1.31,6.47-.93,9.76,0,.09-2.32,1-3.11.57-5.91-3-12.53-14.87-11.26-20.83.52-2.41,2.57-4.49,4.12-7,2.1,1.3,3.53,1.68,3.86,2.49a20.26,20.26,0,0,1,.73,4.88c2.76-2.44,6.54-4.38,8-7.44,2.19-4.48,5.2-6.72,9.77-7,.75-.05,2.42,2.24,2.29,3.27C115.39,230.78,114.11,233.15,113,233.33Zm15.38-80.42a4.72,4.72,0,0,1,1.16.28A4.72,4.72,0,0,0,128.39,152.91Zm2.06.81a3.07,3.07,0,0,1,.88,1.3A3.08,3.08,0,0,0,130.45,153.72Z" transform="translate(-2.12 -5)"/>
    <polygon class="cls-4" points="143.94 234.86 143.94 234.86 143.94 234.86 143.94 234.86"/>
  </g>
  <path class="cls-2" d="M72.1,210.87l-4.37,2.88c-3.36.2-7.06-.23-5.47-4.6.86-2.35,4.47-5.17,6.82-5.15C72.72,204,74.66,207,72.1,210.87Z" transform="translate(-2.12 -5)"/>
  <path class="cls-4" d="M89.72,174.8l-8.34,1.62,5.83-8.61,6.44,6-3.44,1.89Z" transform="translate(-2.12 -5)"/>
  <path class="cls-9" d="M44.53,219.55a40.21,40.21,0,0,1,3.08-5c.49-.61,1.81-.55,2.75-.8a27,27,0,0,1-.09,5,30.25,30.25,0,0,1-1.81,4.88Z" transform="translate(-2.12 -5)"/>
  <path class="cls-9" d="M54.71,207.94l-3.76.28L54.7,205Q54.7,206.49,54.71,207.94Z" transform="translate(-2.12 -5)"/>
  <path class="cls-6" d="M56.17,176c8.31,1.64,2.31,5.6,1.42,8.73Z" transform="translate(-2.12 -5)"/>
  <path class="cls-5" d="M215.67,44.05c3.7.87,7.49,1.14,7.57,6.71,0,3.32,2.23,3.54,4.89,1.21,3-2.65,5.74-2.66,6.4,2.26l-4.35,10.14c-3.72,1.45-7.36,3.25-11.2,4.2-1.72.42-3.85-.86-5.8-1.36.78-1.62,1.51-3.26,2.35-4.85A22.92,22.92,0,0,1,217.15,60c2-2.91,3-5.65-1.46-7.26Z" transform="translate(-2.12 -5)"/>
  <path class="cls-9" d="M241.79,78.86c-.07,2.38.19,4.84-.28,7.14-.82,4-2,7.31-7.57,4.48-2.08-1.05-5.48.47-8.27.89-1.9.28-4.2,1.53-5.59.84-2.18-1.07-3.73-3.41-5.54-5.2,2.15-1,4.27-2,6.45-2.85a30.69,30.69,0,0,1,3.42-1c11.08,4.65,11.4,4.42,10.16-7.24a12.73,12.73,0,0,1,0-1.43Z" transform="translate(-2.12 -5)"/>
  <path class="cls-7" d="M241.79,78.86l-7.22-4.35-1.48-1.45-2.89-8.7,4.35-10.14,2.91,4.33c-3.68,6.51-5,12.37,3.86,16C241.95,74.81,241.65,77.37,241.79,78.86Z" transform="translate(-2.12 -5)"/>
  <path class="cls-4" d="M233.08,73.06l1.48,1.45a12.81,12.81,0,0,0,0,1.43c1.24,11.67.92,11.89-10.16,7.24l1.43-2.87,1.45-2.9Z" transform="translate(-2.12 -5)"/>
  <path class="cls-7" d="M227.29,77.42l-1.45,2.9c-.45-.79-1.36-1.62-1.28-2.35.26-2.33.88-4.61,1.36-6.91Z" transform="translate(-2.12 -5)"/>
  <path class="cls-4" d="M215.68,52.75c4.51,1.61,3.43,4.34,1.46,7.26Z" transform="translate(-2.12 -5)"/>
  <path class="cls-8" d="M366.57,155.65l4.38,1.47c1.13,2.55,2.28,5.09,3.4,7.64.8,1.82,1.55,3.65,2.33,5.48h0a40.34,40.34,0,0,0-4.32.24c-9.25,1.47-13.55-1.82-13.78-10.89,0-.77,1.52-1.87,2.55-2.32A42.69,42.69,0,0,1,366.57,155.65Z" transform="translate(-2.12 -5)"/>
  <path class="cls-7" d="M385.32,121.11c-1.49.3-2.79,1-3.75.68-3-1-6-2.38-8.95-3.61l8-5.39Z" transform="translate(-2.12 -5)"/>
  <path class="cls-8" d="M376.67,170.24l2.63,2.49-1.39,1.16-1.24-3.65Z" transform="translate(-2.12 -5)"/>
  <path class="cls-9" d="M292.1,182c-5.17-.37-8.55-.28-5.06-4.92.72-1,.5-2.63.71-4-1.08.7-2.45,2.2-3.19,1.94-2.07-.74-4.66-1.78-5.59-3.49-1.2-2.21-1-5.18-1.35-7.83,0,0,.5-.24.66-.15.83.42,2,.71,2.38,1.41,2.93,5.88,14,2.35,13.62,11.67C294.2,178.67,292.69,180.62,292.1,182Z" transform="translate(-2.12 -5)"/>
  <path class="cls-8" d="M314.23,223.9c-1,2-2.36,3.83-2.75,5.89-.76,3.94-2.61,4.6-5.88,2.82q0-.73,0-1.46L307,226.8a26.69,26.69,0,0,1,1.32-3.34c1.23-2.22,2.59-4.36,3.9-6.54Z" transform="translate(-2.12 -5)"/>
  <path class="cls-2" d="M307,226.8l-1.48,4.35Z" transform="translate(-2.12 -5)"/>
  <path class="cls-9" d="M166.3,279c-4.87-.59-7.65.51-7.47,6.48.08,2.64-2.63,5.37-4.07,8.06a14.56,14.56,0,0,0-2,2c-1.34,2-2.55,4.1-3.81,6.15L144.61,295c-1.56-.68-3.21-2.08-4.67-1.9-4.41.55-5.26-1-3.86-4.87,1.52-4.16,2.19-8.85,4.6-12.37,1.13-1.64,7.08-2.44,8.09-1.26,3.94,4.6,7,4.81,11.25.68.93-.91,3.22-.43,4.88-.58Z" transform="translate(-2.12 -5)"/>
  <path class="cls-1" d="M146.06,239.86c.84,2.43,1,6.18,2.63,7.08,9.07,4.88.82,10.71,1,16,0,.25-4.78,1.48-6.74.72-1-.41-1.87-5.34-1-6.1,3.78-3.22,2.45-6.21.87-9.63-1.71-3.69-2.19-7.07,3.18-8Z" transform="translate(-2.12 -5)"/>
  <path class="cls-3" d="M372.37,136.4l-3,2.68a36.45,36.45,0,0,1-2.35-3.26c-.09-.15.91-1.32,1.16-1.24A38.75,38.75,0,0,1,372.37,136.4Z" transform="translate(-2.12 -5)"/>
</svg>
