<svg xmlns="http://www.w3.org/2000/svg" viewBox="0 0 478.53 473"><title>pinterestLogo</title><path d="M228.53,10h9.26c1.45.46,3,.11,4.46.63.75.78.09,1.27-.41,1.7a11.88,11.88,0,0,0-2.13,2.72,3.43,3.43,0,0,0,0,4.09c1.56,2.4,2.25,5.23,3.54,7.77a7.85,7.85,0,0,0,5.39,4.31,8.06,8.06,0,0,1,6.25,7.16,3.42,3.42,0,0,1-2.17,3.9c-2.94,1.33-3.28,2.73-1.35,5.35s4.79,4.3,7.78,5.61c1.17.52,2.24,0,3.33-.45s2-1.3,3.25-.73a1.85,1.85,0,0,1,0,2.37c-6.63,4.83-6.25,15.42.75,20.76a12.84,12.84,0,0,1,3.18,2.66c.74,1.08,1.23,2.25.23,3.39s-2.1.81-3.19.26A12,12,0,0,0,263.27,80a3.6,3.6,0,0,0-4.51,3.86c0,4.37,4.76,8.25,9.07,7.47a3.84,3.84,0,0,0,1.77-1c1.87-1.53,3.45-1.61,5.47-.2a3.65,3.65,0,0,0,2.35.79c2.94-.16,5.84.53,8.76.48,3.76-.06,6.29,2,8.28,4.76,3.11,4.28,7.86,5.16,12.42,6.48a2.76,2.76,0,0,0,2.53-4.49,10,10,0,0,1-2.18-3c-.45-1.34-.53-2.69.83-3.5s2.52-.09,3.33,1.11A11.57,11.57,0,0,0,314.64,96a6.31,6.31,0,0,1,2.86,5.51c0,3.54-.23,7.11,1.76,10.34a1.81,1.81,0,0,1-.47,2.5,1.94,1.94,0,0,1-2.55-.33c-3.27-3.05-7.47-4.3-11.48-5.82-3.19-1.21-6.65-.84-9,1.78-5,5.52-11.68,6.07-18.41,6.54-2.76.19-5.54-.21-8.3.39-4.21.92-5.25,2.35-4.51,6.56a1.78,1.78,0,0,1-.11.91c-3.31,2.41-7.16,3.42-11.09,4.16-7.71,1.45-15.5,2.51-23.1,4.56-18.44,5-34.56,13.85-47.47,28.11A86,86,0,0,0,165.21,192a101.59,101.59,0,0,0-4.53,19.78c-.5,4-.52,8-1.09,12a20.87,20.87,0,0,1-1.13,4.71,6,6,0,0,0-.08,4.27c2.09,6.53,3.59,13.25,6.22,19.61,3.44,8.33,8,15.83,15.92,20.71a42.09,42.09,0,0,0,10,4.25,2.74,2.74,0,0,0,2.91-.84c5.68-5.28,7.1-11.66,4.94-19a24.6,24.6,0,0,0-2.52-5.95,3.52,3.52,0,0,1-.55-3.3c1-1.92,2.93-2.91,4.62-4.09,2.52-1.76,5.19-3.29,7.32-5.59,2.93-3.16,3.95-6.72,2.51-10.84-1.74-5-4.23-9.73-5.38-15a70.54,70.54,0,0,1-1-21.33,105.16,105.16,0,0,1,2.29-13.62,3.36,3.36,0,0,1,1.14-2.2c8.5-9.35,19-15.49,31-19.23a103.05,103.05,0,0,1,14.87-3.14,10.66,10.66,0,0,1,3.45,0c2,1,2.35,1.92,1.49,3.82a12.31,12.31,0,0,0-1.11,2.53A4.23,4.23,0,0,0,258,164a16.86,16.86,0,0,0,4.44,2.45,20.14,20.14,0,0,1,4.86,2.63,6.56,6.56,0,0,1,2.77,4.13c.86,5.23,2,10.43,1.58,15.8-.31,4-4,8.44-7.53,8.74-1.43-.07-2.11-1.11-2.77-2.16a34.7,34.7,0,0,0-6.29-7.31,19.91,19.91,0,0,0-8.83-4.27,2.82,2.82,0,0,0-3.48,0c-5.62.85-10.18,3.82-14.56,7.18a12.81,12.81,0,0,1-3.43,2.31c-3.07.15-6.08-.74-9.16-.54a6,6,0,0,0-6,4.81c-.81,3,.24,4.86,3.19,5.84.74.24,1.5.3,2.25.47,1.19.27,2.43.54,2.93,1.92.07,3.24-.44,6.44-.63,9.67a113.3,113.3,0,0,0,.29,12.89c.32,5.67.85,11.35,1.35,17a13.88,13.88,0,0,0,.25,5.67,35,35,0,0,1,0,4.15,13.33,13.33,0,0,0-.27,4.78,59.62,59.62,0,0,1-6.11,22.6c-1.83,3.6-2.05,7.72-2.9,11.62q-3.7,17.05-7.27,34.13a42,42,0,0,0-.39,12.21c.55,6.63.27,13.25.34,19.87.06,6.16.8,12.31.48,18.48a12.06,12.06,0,0,1-.3,3.44c-.14.27-.26.61-.53.74-3.13,1.55-5.26,4.11-7.35,6.82-1.63,2.1-4.15,2.06-6.38,1.09-2.9-1.28-5.19-3.32-6-6.61a18,18,0,0,0-.7-2.2,5.79,5.79,0,0,0-5.37-4.06,11.41,11.41,0,0,1-2.75-.28c-2.46-.78-2.94-2.73-1.11-4.52,1-1,2.2-1.67,3-2.89a4.17,4.17,0,0,0-.06-5.16,32.71,32.71,0,0,1-4.64-9c-2.36-6.44-8.3-10-14.23-8.7-3,.66-4.27,2.58-3.66,5.63.52,2.61,2.06,4.8,3.07,7.21a8.64,8.64,0,0,1,.67,1.46c.19.86.31,1.78-.57,2.28s-1.5,0-2.09-.56a18.38,18.38,0,0,1-2.67-2.87c-1.72-2.37-3.87-3.57-7-2.82-2.66.63-4.35-.71-4.86-3.59a19.41,19.41,0,0,0-1.4-4.63c-2.22-4.89-6.64-6.07-11.35-6.75-.46-.07-.93,0-1.39-.09-5.81-.57-7.74.67-9.55,6.2a6.82,6.82,0,0,1-4,4.54c-2.44,1-4.74,2.23-7.1,3.37a13.74,13.74,0,0,1-2.37.91c-3.81,1-6.37,0-8-3.52a41.09,41.09,0,0,0-4.37-8.09,2.75,2.75,0,0,1,.4-4.12c1.35-1,3.25-.58,4.45,1.06.82,1.11,1.45,2.37,2.24,3.51,2.25,3.23,5.55,3.1,7.62-.27A8.37,8.37,0,0,0,102,334.85c-3-1.79-3.81-3.78-2.74-7a53.09,53.09,0,0,1,1.86-5.71,9.29,9.29,0,0,1,3.1-4c2.2-1.51,4.08-1.38,6.09.38a17.92,17.92,0,0,0,2.07,1.84,3.55,3.55,0,0,0,4.13.16c1.32-.92,1.31-2.32.92-3.77-.91-3.34-3.38-5.48-5.91-7.49a14.79,14.79,0,0,1-4.3-5.63c-3.81-8.35-6.64-16.91-6.18-26.29.18-3.58-1.27-4.66-4.58-3.31-4.49,1.83-6.93.75-6.94-5.15,0-1.08-.06-2.16,0-3.24.46-8.29-5.26-14.07-12.58-16.11a14.37,14.37,0,0,0-4.12-.52c-2,0-4-.13-6,0-4,.33-6.47-1.25-7.78-5a3.69,3.69,0,0,0-4.28-2.73c-2.05.32-2.72,1.85-3,3.62-.81,5,.16,10,1.07,14.87.36,2,1.76,2.89,3.84,3,4.94.3,6.11,1.62,6.13,6.64,0,3.4.08,6.79,0,10.19-.15,4.71-2.91,7.31-7.6,7.41-1.95,0-3.82-.5-5.75-.45-2.54.06-3.61.91-4.26,3.37-1.09,4.1.06,7.23,3.54,9.66.57.4,1.16.76,1.76,1.11,2.63,1.56,3.4,3,2.85,5.92a5,5,0,0,0,1.56,5c2.35,2.09,2.59,4.63,2,7.59-1.18,6.48-1.15,12.89,2.25,18.88.57,1,1.34,1.88,1.89,2.91,1.57,3,1.18,4.84-1.55,6.76q-1.23.86-2.49,1.69a4.69,4.69,0,0,0-2.19,5.16,28.73,28.73,0,0,0,1.48,5.1,10.51,10.51,0,0,1,.86,5A3.58,3.58,0,0,1,53.78,368c-1.82.15-2.86-.59-3.22-2.81-1-6.17-3.48-11.94-4.39-18.17s-4.88-10.49-10.45-13.31c-1.93-1-4-.13-5.9-.53-1.4-.51-1.54-1.74-1.33-2.86.39-2.06.2-4.15.58-6.2a2.54,2.54,0,0,0-.35-2.21c-3.59-4.23-4.78-9.61-6.93-14.52-4.41-10.08-9-20.1-13.32-30.21C6.89,273.57,5.31,270,5,266a3.11,3.11,0,0,0-.6-1.73v-9.73c.94-2.19.87-4.56.85-6.82,0-7.14,1.28-14.11,2.44-21.08a232.62,232.62,0,0,1,9.67-39c2.93-8.37,5.9-16.74,10.81-24.23a167.16,167.16,0,0,1,12.1-15.76c8.36-10,15.19-21,21.8-32.11C71.26,100,80.7,84.53,91.87,70.2a240.14,240.14,0,0,1,26.88-29.28,33.36,33.36,0,0,1,21.88-9.3c4.48-.16,8.42-2.37,12.46-4.08a252.73,252.73,0,0,1,43.63-13.67,7.65,7.65,0,0,1,4.75.52,3.52,3.52,0,0,0,2.46.28C212,12.38,220.07,10.19,228.53,10Z" transform="translate(-4.35 -10)" style="fill:#f2b6c0"/><path d="M242.43,11c11.47-1.52,21.47,4,31.91,7C327,33.14,375.51,57.17,420.2,88.84c5,3.52,9.66,7.82,10.39,14.63.5.78,1.12,1.47,1.63,2.24a3.91,3.91,0,0,1,.29,4.36,3.86,3.86,0,0,1-4,1.81,18.88,18.88,0,0,1-2.95-.57,2.6,2.6,0,0,0-3.49,2.07A56.39,56.39,0,0,1,420.6,119a13,13,0,0,1-2.63,4.32c-.26.26-.67.59-.44,1s.71.14,1.07,0a14.33,14.33,0,0,1,6.65-.11c3.19.67,5.52,2.68,7.5,5.11s4.17,4.95,6,7.59c2.12,3,4.82,4.94,8.73,4.5a3.2,3.2,0,0,1,2,.6c8.68,4.12,10.19,12.71,11.57,20.57,3.74,21.33,15.78,40,19.7,61,4.93,26.43-.54,53.42,1.76,79.83,3.67,42.16-20.14,68.56-47.46,94.27-11.13,10.48-18.33,23.73-22.56,38.49-2.47,8.62-7,16.22-14.7,20.64-18.09,10.36-35.49,25.79-56.92,24.66-36.1-1.9-71.94,3-107.91,1.12-9.14-.47-19,1-27.22-2-10.27-3.74-20.62-6.84-31.18-7.34-20.28-1-35.66-15.57-55-18.22-7.8-1.07-15.72-2.3-20.33-8.94C92.59,436.64,84,429,75,422.75c-26.42-18.4-32.12-46.84-39.23-75-1.31-5.16-3.95-10-6-15,5.37-3.35,15.35,4.42,17.4,13.53,1.45,6.45,2.86,12.9,4.46,19.31A2.82,2.82,0,0,0,54,367a2.34,2.34,0,0,0,2.21-3.31c-2.41-7-5.07-14,4.37-18.27.37-.17.14-3-.61-4.06-5.24-7.12-4-15-4.35-23.16-.25-5.71-1.3-13.06-6.92-17.19-4.48-3.29-6-7.19-4.29-12.2,1.56-4.59,5.45-3.23,8.84-2.79,6.06.77,9.2-2,8.51-8-.66-5.77,4.19-14.31-7.76-15-3.95-.24-5.06-19.5-1.38-22,2.74-1.84,6-1.25,7,1.78,1.55,5,4.72,5.4,9,5.32,15.74-.31,21.52,5.31,21.88,20.94.09,3.85.86,6.19,5.55,4,4-1.84,6.07-.34,6.07,4.26,0,13.65,3.45,25.9,14.22,35.35,2.44,2.14,4.14,5.75,1,8.55-2.86,2.56-5.43.32-7.77-1.88-.83-.78-2.72-1.44-3.59-1-4.77,2.26-5,7.27-6.07,11.55-.27,1.06,1.22,3.26,2.44,3.86,4.23,2.09,5.13,5.58,4.64,9.65-.39,3.2-1.79,6.19-5.32,6.8-4.54.78-5.53-3.34-7.36-6.12-.83-1.27-1.82-2.06-3.23-1.26-1.68,1-.57,2.09-.1,3.33,4,10.63,10.26,14.33,20.3,6.81,1.13-.85,2.74-1.68,3.11-2.84,1.55-4.81,3.54-8.9,9.56-8.44,8.29.64,15.5,2.73,16.74,12.77.13,1,1.75,2.84,2.12,2.71,5.84-2.06,8.63,1.92,11.67,5.54a6.1,6.1,0,0,0,1.6,1,18.05,18.05,0,0,0-.44-1.93c-1.62-4.78-8.1-10.53-.7-14.22,7.75-3.87,13.77.9,17.05,8.61,1.83,4.3,6.42,10.81,5,12.52-5.58,6.94-2.76,8.35,3.77,10.66,2.3.81,2.74,5.95,4.87,8.37,3.3,3.76,6.94,5,10.37-.58,1.19-1.93,4-2.88,6-4.28a5.4,5.4,0,0,1,2.46-.48,5.58,5.58,0,0,0,5.39-2.9c2.9-4.55,6.41-8.66,9.54-13,1.26-1.76,2.75-3.38,5.21-3.43a18.64,18.64,0,0,0,4.14-.28,3.51,3.51,0,0,0,3-2.33c2.27-5.57,5-10.94,7.22-16.51a20.71,20.71,0,0,0,1-9.34c-.26-3.8,1.42-6.33,4.49-8.2.13-.08.25-.18.38-.27,5.42-3.44,5.53-3.72,3.92-9.89-.27-1-.65-2.05-.88-3.11-.87-3.87-.19-5.6,3.14-7.8a8.39,8.39,0,0,1,6,.76c7.8,3.46,15.9,5.8,24.51,5.86,11.71.09,22.41-3.43,32.46-9.23,7.87-4.54,14.55-10.56,21-16.86,1.65-1.62,3.46-2.84,5.93-2.48a13.12,13.12,0,0,1,7.16,1.3,4.19,4.19,0,0,0,2.94.14,21.24,21.24,0,0,1,4.79-.65,6.22,6.22,0,0,1,6.06,3.48c1.18,2.31,3,3.31,5.37,3.94,5.36,1.47,6.65,3,7.27,8.66a1.89,1.89,0,0,0,.05.46c.36,1,0,2.51,1.36,2.66s1.41-1.4,1.65-2.35a8.87,8.87,0,0,1,2.93-4.6c1.27-1.12,1.19-2.17.09-3.35-3.3-3.6-6.94-6.48-12.05-7.08a11.69,11.69,0,0,1-6-2.27c-2.68-2.12-3.43-5.12-3.43-8.24,0-4.23-1.57-7.28-5.47-9-1.24-.56-1.89-1.78-2.83-2.68a6.09,6.09,0,0,1-.67-5.31,171.86,171.86,0,0,0,5.31-23.88c1.16-8.24,2.12-16.52,1.67-24.84a83,83,0,0,0-8.36-33.14,74.92,74.92,0,0,0-15.23-20.79c-14.86-14.16-32.22-23.62-52.67-27-3.34-.55-6.73-.71-10.1-1a16.41,16.41,0,0,1-4.87-1.35c-.87-.37-1.66-.87-1.75-2-3.61-7.21,1.79-8.48,6.52-8.63,9.66-.31,18.33-1.41,26.74-7.7,6.24-4.66,13.13,1.17,19,4.9a13.2,13.2,0,0,0,2.09.87,7.36,7.36,0,0,0-.45-2.07c-3.11-5.62.7-14-7.12-17.77-.92-.44-1-2.8-2.57-1.59-.51.39-.23,2.69.43,3.52,1.58,2,3.64,3.59,1.56,6.36s-4.55,1.73-6.66.57c-9.59-5.28-18.42-12.41-30.07-12.52-2.5,0-5,1.85-7.51,2-3.72.18-6.41-2.15-7.84-5.46-1-2.26-1.45-4.81.89-6.79,3-2.53,5.55-.78,8.2.74.5.29,1.35,0,2-.09-.65-1.18-1-2.82-2-3.45-7.14-4.55-8.54-11.08-6.78-18.74A5.53,5.53,0,0,1,265.58,54c1.11-1.2,2.27-.57,3.36,0,2.77,1.35,4.36,3.8,5.77,6.38.15.27.16-.14.16.17l0,0a8.44,8.44,0,0,1-.62-1,5.78,5.78,0,0,1-.71-5.89c.55-1.6,1.39-3.07,1.84-4.72a8.12,8.12,0,0,0-7.61-10.1c-2.06,0-2.41.45-1.43,2.26,1.26,2.33,2.41,4.67,2,7.42-.23,1.7-.57,3.41-2.77,3.65-5.34,3.63-14.92.06-16.36-6.29a4.85,4.85,0,0,1,1.64-3.89c1.29-1,3.86-.77,3.06-3.56s-1.9-5.49-5.39-6.21c-7.84-1.62-7.67-9.37-10.42-14.64C236.92,15.25,239.69,12.38,242.43,11Z" transform="translate(-4.35 -10)" style="fill:#ee94a4"/><path d="M255.84,154c24.86-7.91,51.65,5.84,61.19,34.16,10.43,30.94,4.33,60.72-15.6,86.24-11.57,14.82-25.31,16.62-37.76,9.22-11.25-6.68-12.73-14.74-7.07-34.85,4.75-16.87,10.39-33.67,7.1-51.66,3.93-.89,6.71-3.85,6.73-7.29.06-9.37,1.91-19.83-10.92-23.73-4.58-1.39-5.77-5.22-2.86-9.61C257.31,155.52,257.84,154.29,255.84,154Z" transform="translate(-4.35 -10)" style="fill:#f5c7ce"/><path d="M195.62,248.54c-13.66-18.24-7.38-60.07,10.65-70.92-1.95,12.71-4.93,25.76.18,38.05C215.08,236.43,212.55,236.54,195.62,248.54Z" transform="translate(-4.35 -10)" style="fill:#f5c7ce"/><path d="M265.58,52.13c3-3.17,2.08-6.42.31-9.77a29,29,0,0,1-1.41-3.92c1.62-.18,3.41-.89,4.84-.44,7,2.22,9,7,6.08,13.68-1.33,3.07-2.24,5.91.17,8.83.75.9,1.42,1.87,2.12,2.81a22.8,22.8,0,0,1-3.08-2.46c-2.58-2.88-4.52-6.55-9-6.89Z" transform="translate(-4.35 -10)" style="fill:#f3bdc6"/><path d="M224.71,192.91l-7.35,12.57c-4.06-.81-10-.38-8.87-6.62C210.3,188.56,218.35,192.42,224.71,192.91Z" transform="translate(-4.35 -10)" style="fill:#f5c7ce"/><path d="M217.89,245.73l.39,5.57Z" transform="translate(-4.35 -10)" style="fill:#f5c7ce"/><path d="M246.12,183.17h0Z" transform="translate(-4.35 -10)" style="fill:#f5c7ce"/><path d="M218.28,255.5l-.4,4.63Z" transform="translate(-4.35 -10)" style="fill:#f5c7ce"/><path d="M449.48,142c-9.9,2.54-12.24-6.47-16.91-11.47-4.43-4.74-8.88-7.15-15.24-4.72-.52.2-1.22-.1-1.84-.17.13-.55.08-1.32.43-1.61,3.29-2.79,4.33-6.59,5.07-10.6.36-2,1.46-3.9,3.68-3.24,7.1,2.1,9,0,5.92-6.7,4.69,2.77,5,7.4,5,12.06,0,5-.19,10,3.73,14a4.75,4.75,0,0,1,.68,3.28c-.29,3.3,1.21,5.06,4.52,5.4.93.1,1.78.46,2.7.57Z" transform="translate(-4.35 -10)" style="fill:#f5c7ce"/><path d="M447.16,138.75c-8.45,1.88-8.71-3.23-7.89-9.25Z" transform="translate(-4.35 -10)" style="fill:#ee99a9"/><path d="M224.34,363.85c4.49-6.87,5.14-15.07,7.68-22.62,3.47-10.35,6.44-20.87,9.34-31.4,1.69-6.13,3.57-10.42,9.88-3.73-4.42,2.83-2.16,6.52-1.45,10.12.44,2.26,1.23,6.19.33,6.71-14.1,8.19-7.94,25.37-16.3,36.23C230.9,362.95,228.5,364.26,224.34,363.85Z" transform="translate(-4.35 -10)" style="fill:#f2b5c0"/><path d="M341,284.14l10.69-20.78c6.44,3.45,8.74,9,9.24,16.11.29,4.21,4.73,5.09,8.38,5.56,5.65.74,9.41,4.31,12.88,8.3a3.71,3.71,0,0,1,.06,2.83c-4.5,1.21-1.92,8.55-6.87,8.45-2.54-.05-1.48-3.69-1.93-5.75-.18-.82-.22-2.21-.66-2.37-7.62-2.65-11.35-12.76-21.53-10.85C348.09,286.24,344.48,284.7,341,284.14Z" transform="translate(-4.35 -10)" style="fill:#f6d4da"/><path d="M369.49,250c-2.06,1.75-3.57,4-5.15,4.08-1.36,0-4.14-2.74-3.92-3.78.46-2.23,2.45-4.15,3.81-6.2Z" transform="translate(-4.35 -10)" style="fill:#f5c5cd"/><path d="M57.4,379.44l5.47,3.09c-.18.23-.48.69-.54.67q-2.56-1.3-5.07-2.71C57.18,380.44,57.32,380,57.4,379.44Z" transform="translate(-4.35 -10)" style="fill:#fcf4f5"/></svg>