<?xml version="1.0" encoding="utf-8"?>
<!-- Generator: Adobe Illustrator 21.1.0, SVG Export Plug-In . SVG Version: 6.00 Build 0)  -->
<svg version="1.1" id="Layer_1" xmlns="http://www.w3.org/2000/svg" xmlns:xlink="http://www.w3.org/1999/xlink" x="0px" y="0px"
	 viewBox="0 0 581.6 87.4" style="enable-background:new 0 0 581.6 87.4;" xml:space="preserve">
<title>leftCurl</title>
<path d="M2.2,48.1c0.1-0.1,0.2-0.3,0.3-0.4c0-0.6,0.1-1.3,0.8-2l0.3-0.3H4c0.2,0,0.6-0.5,0.9-0.8C5,44.5,5,44.4,5.1,44.4
	c0-0.1,0-0.4,0-0.7c0-0.9,0.3-1.4,1.1-1.5c0.4-0.3,0.7-0.4,1-0.5c0.2-0.1,0.3-0.3,0.5-0.4c0.2-0.1,0.4-0.3,0.5-0.4
	c0.1-0.4,0.3-0.9,0.7-1.1l0.3-1c0.1-0.7,0.6-1.1,0.9-1.3c0.1-0.1,0.3-0.2,0.4-0.3l0.4-0.4l1.5-2.4l1.6-3.1c0.3-0.7,0.8-1.1,1.2-1.6
	c0.3-0.3,0.6-0.6,0.8-0.9c0.1-0.7,0.7-1.3,0.8-1.4c0.2-0.2,0.2-0.4,0.2-0.9l0-0.4l0.3-0.3c0.3-0.3,0.7-0.7,0.8-0.9v-0.4l0.3-0.3
	c0.1-0.1,0.3-0.3,0.4-0.5c0.4-0.5,0.9-1.1,1.6-1.6c0.5-1.5,1.2-2.6,2.7-3.7l0.5-1l0.1-0.1c0.1-0.1,0.3-0.3,0.4-0.5
	c0.4-0.5,0.8-1.1,1.5-1.5c0.2-0.6,0.8-1.2,1.2-1.6c0.1-0.1,0.3-0.3,0.4-0.5c0.4-0.5,0.9-1.2,1.8-1.7c0.9-0.9,1.6-1.5,2.2-1.7
	l0.2-0.2c0.6-1.1,1.2-1.7,2.2-2.3c0.8-1,1.8-1.8,2.8-2.5c0.5-0.4,1-0.8,1.4-1.1l0.5-0.5c0.6-0.6,1.7-1.2,2.9-1.8l0.2-0.1h1l0.2,0.1
	c0.3,0.1,0.6,0.2,1.2,0.2c0.6,0,1.4,0,2.3,0.3l0.2,0.1l2.2,1.7l1.7,1.7l-1.5,2.2l-0.1,0.2c-0.2,0.2-0.4,0.5-0.7,0.9
	C47.6,9.2,47.3,9.7,47,10l-0.3,0.3h-0.4c-1,1.4-2,2.4-3.1,2.9c-0.3,0.3-0.5,0.6-0.8,0.9c-0.5,0.7-1.1,1.3-2,1.8L40.3,16h-0.2
	c0,0-0.1,0.1-0.1,0.1l0,0.4l-0.3,0.3c-0.4,0.4-0.9,0.9-1.4,1.1c-0.1,0.2-0.1,0.3-0.2,0.4c-0.1,0.1-0.1,0.3-0.2,0.3v0.4l-1.3,1.3
	c-1,1-2,2-2.4,2.9c-0.5,1.1-1.5,2.1-2.5,3.1v0.1c0,0.9-0.7,2.2-1.3,2.8L30,29.6h-0.4c0,0-0.1,0.1-0.1,0c0,0.9-0.7,1.6-0.8,1.8
	l-0.1,0.1l-0.1,0.1C28,31.8,28,31.9,28,32.3v0.3L26.2,35l-0.1,0.1c-0.2,0.2-0.2,0.4-0.2,0.9v0.2l-0.5,1.1c-0.1,0.5-0.4,1-1,1.2
	c-0.2,0.2-0.5,0.5-0.5,0.6v0.2l-0.1,0.2c-0.6,1.1-1.2,1.7-1.7,2.3l-1,1.5l-0.1,0.2c-0.3,0.3-0.7,0.7-0.8,0.9v0.2L20,44.7
	c-0.1,0.1-0.1,0.3-0.2,0.4c0.1,0.1,0.3,0.1,0.4,0.2c0.1,0.1,0.3,0.2,0.4,0.2l0.2-0.2h2.7l0.2,0.1c1.4,0.5,2.2,0.5,3.5,0l0.2-0.1h1.1
	l0.3,0.3c0.2,0.2,0.4,0.2,0.9,0.2h1.4c1.2-0.5,2.2-0.1,2.9-0.4l0.2-0.1h6.2c0.5-0.3,1-0.3,1.5,0h7.2c0.3,0,0.4,0,0.6-0.3v-0.7
	l2.1-2.1c0.1-0.8,0.6-1.3,1-1.8c0.2-0.3,0.5-0.5,0.6-0.8l0.1-0.1l0.1-0.1c0.3-0.3,0.7-0.7,0.8-0.9v-0.4l0.3-0.3
	c0.5-0.5,1.5-1.5,1.9-2.4l0.1-0.1l0.1-0.1c0.1-0.1,0.3-0.3,0.4-0.5c0.4-0.5,0.9-1.2,1.7-1.6l2-2.9l3.3-3.8l2.1-2.1
	c0.1-0.1,0.4-0.4,0.8-0.6c0.1-0.2,0.2-0.4,0.5-0.7c0.2-1,0.9-1.6,1.6-2.2c0.2-0.2,0.5-0.4,0.8-0.7l0.8-0.8v-0.7l0.6-0.3
	c0.5-0.3,0.9-0.7,1.3-1.2c0.1-0.2,0.2-0.3,0.3-0.4c0.1-0.3,0.3-0.6,0.5-0.7v-0.8h1c0.3,0,0.6-0.3,0.9-0.8c0.1-0.1,0.2-0.3,0.3-0.4
	l1-2.1l0.1-0.1c0.3-0.3,0.6-0.5,1-0.8c0.5-0.3,1-0.7,1.6-1.3c0.8-0.8,2.2-1.4,3.5-0.8H83l1.7,0.6l0.1,0.1c0.9,0.4,1.5,1.2,1.6,2
	c0.1,0.7-0.1,1.4-0.6,2c-0.1,0.4-0.3,0.8-0.6,1.2c-0.1,0.2-0.3,0.5-0.4,0.8c-0.1,0.4-0.3,0.7-0.5,0.9v0.8h-1c0,0-0.1,0-0.1,0
	c0,0-0.1,0.1-0.1,0.1l-1.5,3C81.1,21.4,80,22,79,22.5c-0.1,0.2-0.2,0.4-0.4,0.5v1.4h-0.8c-0.1,0.1-0.2,0.4-0.2,0.6v1H77l-0.2,0.2
	c-1.2,1.2-2.1,2.4-3.2,3.9c-0.3,0.4-0.6,0.8-0.9,1.2c-0.3,0.6-0.8,1.1-1.2,1.5c-0.4,0.4-0.7,0.7-0.9,1l-0.3,0.5l-0.3,0
	c-0.6,1.2-1.2,1.8-1.7,2.3c-0.2,0.2-0.4,0.4-0.7,0.6c-0.4,0.3-0.9,0.7-1.1,1.1c-0.1,0.3-0.2,0.9-0.8,1.4l-1.3,1.3
	c-0.2,0.5-0.5,0.8-1,1c-0.2,0.2-0.5,0.5-0.5,0.6v0.6l-1,0.5v0.1c0.2,0.1,0.4,0.1,0.6,0.2c0.3,0.1,0.5,0.2,0.8,0.2
	c0.9-0.4,1.5-0.2,2.1-0.1c0.3,0.1,0.5,0.1,0.7,0.1h1.2c0.4-0.3,0.7-0.4,1.1-0.4h0c0.4,0,0.8,0.1,1.1,0.4c0.7,0,0.8,0,1-0.2l0.3-0.3
	h0.9c0.7,0,1.2,0.2,1.6,0.3c0.3,0.1,0.5,0.2,0.8,0.2c0.9-0.4,2-0.2,2.9-0.1c0.4,0.1,0.7,0.1,1,0.1h1.6c0.4,0,0.6-0.1,1-0.2
	c0.4-0.1,0.9-0.3,1.6-0.3h0.4l0.3,0.3c0.1,0.1,0.4,0.2,1.4,0.2h1c0.9,0,1.6,0.1,2.3,0.3c0.6,0.1,1.2,0.2,1.9,0.2
	c0.6,0,1.6,0,2.4,0.5h21.8c0.9-0.6,1.8-0.4,2.7,0h2c0.8-0.5,2-0.5,2.8,0h0.7c1.5,0,3.3,0,5,1h84.9c0.3,0,0.5,0.1,0.8,0.1
	c0.2,0,0.5,0.1,0.6,0.1l0.2-0.2h1.2l0.2,0.1c0.8,0.4,1.5,0.4,2.2,0l0.2-0.1h14.3c37.4-0.3,56.2-0.3,66.3-0.3c9.3,0,10.5,0,11.2-0.2
	l0.2-0.1h4.3c0.3,0,0.5,0,0.8-0.1c0.5-0.1,1.2-0.3,2.1,0.1h1.4c0.6,0,1.7,0,1.9-0.2l0.2-0.2l5.1-0.6l2,0c0.9-0.4,1.8-0.2,2.5-0.1
	c0.3,0.1,0.6,0.1,0.9,0.1h0.4c1.6-0.5,2.8-0.5,3.8-0.5h0.9l2.8-0.6l0.3,0.2c0.7,0.4,0.9,0.4,2.4-0.1l0.2-0.1h1.6l0.1,0.1
	c2.7,0.2,24.1,0.2,57.8-0.1c0.8,0,1.2,0,1.3,0h2.2c0.7-0.5,1.6-0.5,2.3,0c0.7,0,1.1-0.1,1.8-0.4l0.2-0.1h1.5l0.2,0.1
	c0.6,0.3,0.8,0.3,0.8,0.3c0,0,0,0,0.1-0.1l0.3-0.3h3.6c0.1,0,0.9,0,2.3,0c42,0.4,51.2,0.2,52.7,0c0.7-0.5,1.5-0.2,1.8-0.1
	c0.1,0,0.2,0.1,0.2,0.1h1.3c1.1-0.5,1.8-0.5,2.8-0.5h43.4c0,0,0.1,0,0.1,0c0.1-0.1,0.1-0.1,0.2-0.2l0.4-0.4l0.6,0.2
	c0.8,0.3,1.7,0.2,2.8,0.1c0.6-0.1,1.4-0.1,2.1-0.1h3.7c0.4,0,0.9,0.2,1.4,0.3c0.1,0,0.3,0.1,0.4,0.1l0.4-0.4h27.2l0.2,0.1
	c0.8,0.3,1.5,0.2,2.2,0.1c0.4-0.1,0.8-0.1,1.2-0.1c1.6,0,3.2,0,4.9,0.5h3l4.2,0.5h3.6c0.8,0,2,0.3,2,2.6v0.4l-0.3,0.3
	c-0.5,0.5-1.1,1.1-1.8,1.3c-0.7,0.6-1.5,0.6-2,0.6h-0.4l-0.3-0.3c-0.2-0.2-0.4-0.2-0.9-0.2h-1c-0.5,0-0.9-0.2-1.2-0.4
	c-0.1-0.1-0.3-0.1-0.3-0.2l-2.2-0.5h-1.4c-0.5,0-0.9-0.2-1.2-0.4c-0.1-0.1-0.3-0.1-0.3-0.2h-5.7c-0.5,0-1.2,0-1.9-0.5h-0.7
	c-0.2,0-0.3,0-0.5,0c-1.3,0.1-5.1,0.5-25.1,0.5h-2.5l-0.4-0.4c-1,0.2-1.8,0-2.4,0.3l-0.2,0.1h-6.7c-0.3,0.2-0.8,0.5-1.4,0.5
	l-0.3,0.1l-0.3-0.3c-0.1,0-0.3,0-0.4,0c-0.4,0-0.9,0-1.4-0.3h-39c-0.7,0.5-1.5,0.5-2.3,0c-0.7,0.1-1.5,0.5-2.4,0.9l-0.2,0.1H470
	v-0.1c-5-0.3-33.1-0.4-52.1-0.4c-1.1,0.5-1.8,0.5-2.8,0.5h-2.4c-1.2,0.5-2.4,0.5-3.2,0H408c-1,0.5-2.3,1.1-3.6,0.5h-0.3
	c-0.1,0-0.2,0-0.4,0.1c-0.5,0.1-1.4,0.3-2-0.1h-0.2c-1.4,0.2-6.9,0.3-30.3,0.3c-13.3,0-28.3,0-30,0.2l-0.3,0c-1,0-1.8-0.2-2.4-0.3
	c-0.5-0.1-0.9-0.2-1.3-0.2v0.5h-4.7c-1,0-1.3,0.1-1.4,0.2l-0.5,0.5l-0.6-0.3c-0.8-0.4-1.6-0.4-2.8-0.4c-0.3,0.2-0.8,0.5-1.4,0.5h-1
	v-0.6c-0.1,0-0.3-0.1-0.4-0.1c0,0-0.1,0-0.1,0l-1.9,1.3H319c-0.4,0-0.8-0.1-1.2-0.1c-0.7-0.1-1.1-0.2-1.5,0l-0.2,0.1h-0.2
	c-0.3,0-0.6-0.1-0.8-0.2c0,0-0.1,0-0.1,0l-0.2,0.2h-0.4c-0.5,0-0.6,0-0.9,0.2l-0.7,0.7l-0.7-0.7c-0.1-0.1-0.4-0.2-1.3-0.2
	c0,0-0.2,0-0.4,0.2L310,50h-0.4c-1.1,0-2.2,0-3.4-0.6c-3.1,0.3-16.1,0.6-74.9,0.6c-1.4,0-2.9,0-3.7,0.4l-0.2,0.1H227
	c-0.5,0-0.9-0.1-1.2-0.1c-0.5-0.1-0.6-0.1-1,0l-0.2,0.1h-1.8l-0.4,0l-0.2-0.2c0,0-0.1,0-0.1,0c-0.2,0.1-0.5,0.2-0.8,0.2h-11.7
	l-0.2-0.1c-0.4-0.2-0.5-0.1-0.9,0c-0.2,0.1-0.5,0.1-0.8,0.1L129.9,50h-4.6l-0.3-0.3c-0.2-0.2-0.4-0.2-0.3-0.2H122
	c-0.6,0-0.9-0.1-1.3-0.4c0,0,0,0-0.1,0c-0.3,0.2-0.7,0.4-1.2,0.4h-3.6v-0.3c-1.4,0.3-4.7,0.3-18.3,0.3c-0.1,0-0.2,0.1-0.4,0.2
	c-0.3,0.2-0.7,0.4-1.2,0.4h-0.3l-1.4-1c-0.1,0-0.1,0.1-0.2,0.1l-0.3,0.3h-0.4c-0.6,0-1.6,0-2.4-0.5h-1.6c-1.2,0.4-2.2,0.2-3,0.1
	c-0.3-0.1-0.6-0.1-0.9-0.1h-0.4c-1.2,0.4-2.1,0.2-3,0.1c-0.5-0.1-0.9-0.1-1.4-0.1H78c-0.7,0.4-1.4,0.2-1.7,0.1
	c-0.1,0-0.2-0.1-0.2-0.1h-2.3c-0.8,0.5-1.9,0.5-2.4,0.5c-0.5,0-0.6,0-0.9,0.2L70.2,50h-0.4c-0.1,0-0.8,0-1.4-0.5
	c-1.9,0-3.3,0-5.1,0.5L61,50l-0.3-0.3c-0.1-0.1-0.3-0.2-0.5-0.3c-0.1,0-0.1-0.1-0.2-0.1l-0.2,0.2h-0.4c0,0,0,0,0,0v0.1l-0.6,0.3
	c-0.2,0.1-0.3,0.2-0.3,0.3c-0.1,0.2,0,0.6,0.2,1l0.1,0.2v0.3l1.9,1.9l0.1,0.1c0.1,0.2,0.2,0.4,0.3,0.6c0.1,0.2,0.2,0.4,0.2,0.4
	c0,0,0.1,0,0.2,0h0.4l1.3,1.3c0.1,0.1,0.2,0.2,0.2,0.2c0,0,0.1,0,0.1,0c0.9,0,1.6,0.7,2.3,1.3l0.3,0.3v0.2l0,0
	c0.2,0.1,0.4,0.2,0.6,0.4l1.5,0.7v0.2c0.5,0.2,0.8,0.6,1,0.9c0.1,0.1,0.1,0.2,0.2,0.3l2.5,1.5l0.2,0.2c0.5,0.5,0.9,0.9,1.8,1.4
	l0.3,0.1l0.1,0.3c0.3,0.5,0.7,0.9,1.2,1.3c0.3,0.2,0.5,0.4,0.7,0.6c0.1,0.1,0.2,0.2,0.2,0.2c0,0,0.1,0,0.1,0c1,0,1.9,0.6,2.6,1.1
	c0.3,0.2,0.6,0.4,0.9,0.6l0.6,0.3v0.6c0,0.1,0.1,0.2,0.2,0.4c0.1,0.2,0.2,0.5,0.3,0.8l2.2,2.2c0.3,0.1,0.5,0.3,0.7,0.5h0.3l0.8,0.8
	c0.3,0.3,0.7,0.7,0.9,0.8h0.4l0.3,0.3c0.5,0.5,1,1,1.2,1.6c0.8,0.5,1.4,1,2.1,1.8h1.6v1c0,0.3,0,0.5-0.1,0.7c0,0,0,0,0.1,0
	c0.2,0.1,0.5,0.3,0.6,0.3h0.2l1.9,0.6l0.2,0.2c0.7,0.7,0.8,1.4,0.8,1.9c0.3,0.5,0.3,1,0,1.5v0.3l-0.3,0.3c-0.8,0.8-1.9,1.2-2.9,1.2
	c-0.7,0-1.4-0.2-2-0.4l-0.6-0.3V85h-0.5v-0.9c-0.1,0-0.2-0.1-0.6-0.1h-0.4l-0.8-0.8c-0.6-0.6-0.8-0.8-0.8-1.4l-1.3-1.8
	c-0.5-0.5-0.7-0.7-0.7-1.2c0,0,0,0-0.1,0c-0.7,0-1.2-0.4-1.4-0.9c-0.7-0.5-1.2-1.1-1.5-1.6c-0.1-0.1-0.1-0.1-0.1-0.2h-1.1v-1
	c0-0.4-0.1-0.5-0.9-0.9c-0.4-0.2-0.8-0.5-1.3-0.8c-1.5-0.5-2.7-1.1-3.8-2.3c-1-1-1.5-1.5-2.4-1.9l-1-0.5l-0.8-0.5
	c-1.3-0.8-2.3-1.5-3.3-3L66.7,65v-0.3c0,0-0.1-0.1-0.1-0.1l-1,0l0-0.5c-1.1-0.1-1.8-0.8-2.6-1.6c-0.6-0.1-1.3-0.5-1.7-1
	c-0.9,0-2.1-0.7-2.7-1.3c-0.1-0.1-0.2-0.2-0.2-0.2c0,0-0.1,0-0.1,0H58l-2.3-1.5v-0.5c-0.1,0-0.2-0.1-0.6-0.1h-0.4L52.9,56
	c-0.2-0.2-0.4-0.2-0.9-0.2c-0.5,0-0.9-0.2-1.2-0.4c-0.1-0.1-0.3-0.1-0.3-0.2h-0.6l-0.3-0.6c-0.1-0.3-0.3-0.5-0.4-0.7
	c-0.4-0.6-0.7-1.3-0.8-2.2L48,50c0-0.1-0.1-0.1-0.1-0.2c0,0-0.1,0-0.1,0L47.6,50h-0.2c-0.1,0-0.8,0-1.4-0.5h-6.8
	c-1.6,0.5-4.2,1-5.9,1h-3.7c-0.5,0-0.8-0.2-1.1-0.4c-1,0.4-1.8,0.4-2.8-0.1h-3.1c-0.8,0.5-2,0.5-3.2,0c-0.2,0-0.4,0-0.4,0
	c-0.1,0.1-0.1,0.1-0.3,0.2L18,51h-0.4c-0.4,0-0.7,0.1-1,0.3c-0.1,0.1-0.3,0.1-0.4,0.2c-0.1,0.2-0.3,0.2-0.4,0.3
	c-0.3,0.1-0.5,0.1-0.8,0L12.9,53l0.7,1c0.8,0.4,1.1,0.9,1.3,1.3c0.1,0.1,0.2,0.2,0.3,0.4l0.5,0.5c0.5,0.5,1.1,1.1,1.3,1.8l0.3,0.3
	c0.3,0.3,0.7,0.6,1,0.9c0.6,0.5,1.3,1,1.7,1.8c0.5,0.5,1,0.9,1.5,1.2c0.3,0.2,0.6,0.4,0.9,0.7c0.5,0.3,1.6,0.9,1.9,1.9
	c0.4,0.4,0.8,0.8,1.6,1.2l0.1,0.1l0.1,0.1c0.3,0.3,0.7,0.7,1.1,1c0.8,0.7,1.7,1.4,2.1,2.2c0.3,0.3,0.6,0.6,0.8,0.6h0.4l3.8,3.1v0.3
	c0.2,0.2,0.4,0.4,0.5,0.9c0.4,0.6,1,0.9,1.1,0.9h0.2l0.2,0.1c1.2,0.6,1.4,0.8,1.9,1.8c0.2,0.1,0.5,0.2,1.3,0.2c0,0,0.1,0,0.1,0
	l0.2-0.2c0.6-0.6,1.1-0.7,1.5-0.8c1-0.5,2.1-0.7,3.1,0.3l0.5,0.5c0.9,0.9,0.9,2.1,0,3l-0.3,0.3c-0.2,1.9-1.5,3.7-3.6,3.7
	c-0.6,0-1.6,0-2.4-0.5l-1.1,0l-0.3-0.3c0,0-0.1,0-0.1,0c-0.3-0.1-0.9-0.2-1.4-0.8c-0.1,0-0.2,0-0.2-0.1c0,0-0.1,0-0.1,0l-1.6,1.6v-2
	l-0.2-0.2c-0.2-0.2-0.4-0.4-0.8-0.6c-0.5-0.4-1.2-0.8-1.9-1.5c-0.5-0.5-1.1-1.1-1.3-1.8l-0.3-0.3c-0.3-0.3-0.5-0.6-0.6-0.9
	c-0.1-0.1-0.2-0.3-0.3-0.4h-1v-1c0-0.3-0.3-0.6-0.8-0.9c-0.2-0.2-0.4-0.3-0.5-0.4l-0.1-0.1l-0.1-0.1c-0.2-0.4-0.5-0.7-0.9-1
	c-0.3-0.3-0.6-0.6-0.9-1h-0.5L23.5,71c-0.9-1.4-2.4-2.4-3.9-3.4l-0.2-0.1l-0.1-0.2c-0.6-0.9-1.2-1.4-1.9-2c-0.3-0.2-0.6-0.5-0.9-0.8
	c-0.7-0.2-1.2-0.7-1.7-1.2C14,62.9,13.4,62.5,13,62h-0.7L12,61.5c-0.4-0.9-0.8-1.2-1.6-1.6L10,59.7l-0.1-0.3
	c-0.4-0.8-1.2-1.5-1.7-1.5H7.8l-1.1-1.1v-0.3c0,0,0,0,0,0c-0.2-0.2-0.4-0.4-0.7-0.8c-0.5-0.2-0.8-0.7-0.8-1.5
	c-0.2-0.2-0.5-0.5-0.6-0.5c-1.1,0-2.4-0.5-2.6-2.7C1,49.7,1.8,48.6,2.2,48.1z"/>
</svg>
