<?xml version="1.0" encoding="utf-8"?>
<!-- Generator: Adobe Illustrator 21.1.0, SVG Export Plug-In . SVG Version: 6.00 Build 0)  -->
<svg version="1.1" id="Layer_1" xmlns="http://www.w3.org/2000/svg" xmlns:xlink="http://www.w3.org/1999/xlink" x="0px" y="0px"
	 viewBox="0 0 358.7 84.5" style="enable-background:new 0 0 358.7 84.5;" xml:space="preserve">
<title>leftCurl</title>
<path d="M1.9,46.8c0.1-0.1,0.2-0.3,0.3-0.4c0-0.6,0.1-1.3,0.8-2l0.3-0.3h0.4c0.2,0,0.6-0.5,0.9-0.8c0.1-0.1,0.2-0.2,0.2-0.2
	c0-0.1,0-0.4,0-0.7c0-0.9,0.3-1.4,1.1-1.5c0.4-0.3,0.7-0.4,1-0.5c0.2-0.1,0.3-0.3,0.5-0.4c0.2-0.1,0.4-0.3,0.5-0.4
	c0.1-0.4,0.3-0.9,0.7-1.1l0.3-1c0.1-0.7,0.6-1.1,0.9-1.3c0.1-0.1,0.3-0.2,0.4-0.3l0.4-0.4l1.5-2.4l1.6-3.1c0.3-0.7,0.8-1.1,1.2-1.6
	c0.3-0.3,0.6-0.6,0.8-0.9c0.1-0.7,0.7-1.3,0.8-1.4c0.2-0.2,0.2-0.4,0.2-0.9v-0.4l0.3-0.3c0.3-0.3,0.7-0.7,0.8-0.9v-0.4L18,23
	c0.1-0.1,0.3-0.3,0.4-0.5c0.4-0.5,0.9-1.1,1.6-1.6c0.5-1.5,1.2-2.6,2.7-3.7l0.5-1l0.1-0.1c0.1-0.1,0.3-0.3,0.4-0.5
	c0.4-0.5,0.8-1.1,1.5-1.5c0.2-0.6,0.8-1.2,1.2-1.6c0.1-0.1,0.3-0.3,0.4-0.5c0.4-0.5,0.9-1.2,1.8-1.7c0.9-0.9,1.6-1.5,2.2-1.7L31,8.5
	c0.6-1.1,1.2-1.7,2.2-2.3c0.8-1,1.8-1.8,2.8-2.5c0.5-0.4,1-0.8,1.4-1.1l0.5-0.5c0.6-0.6,1.7-1.2,2.9-1.8l0.2-0.1h1l0.2,0.1
	c0.3,0.1,0.6,0.2,1.2,0.2c0.6,0,1.4,0,2.3,0.3L45.8,1l2.2,1.7l1.7,1.7l-1.5,2.2L48,6.7c-0.2,0.2-0.4,0.5-0.7,0.9s-0.6,0.9-0.9,1.2
	l-0.3,0.3h-0.4c-1,1.4-2,2.4-3.1,2.9c-0.3,0.3-0.5,0.6-0.8,0.9c-0.5,0.7-1.1,1.3-2,1.8l-0.2,0.1h-0.2l-0.1,0.1v0.4l-0.3,0.3
	c-0.4,0.4-0.9,0.9-1.4,1.1c-0.1,0.2-0.1,0.3-0.2,0.4c-0.1,0.1-0.1,0.3-0.2,0.3v0.4L36,19.1c-1,1-2,2-2.4,2.9
	C33.1,23,32.1,24,31.2,25v0.1c0,0.9-0.7,2.2-1.3,2.8l-0.3,0.3h-0.4c0,0-0.1,0.1-0.1,0c0,0.9-0.7,1.6-0.8,1.8l-0.1,0.1l-0.1,0.1
	c-0.5,0.2-0.5,0.3-0.5,0.7v0.3l-1.8,2.4l-0.1,0.1c-0.2,0.2-0.2,0.4-0.2,0.9v0.2L25,35.8c-0.1,0.5-0.4,1-1,1.2
	c-0.2,0.2-0.5,0.5-0.5,0.6v0.2L23.4,38c-0.6,1.1-1.2,1.7-1.7,2.3l-1,1.5L20.6,42c-0.3,0.3-0.7,0.7-0.8,0.9v0.2l-0.1,0.2
	c-0.1,0.1-0.1,0.3-0.2,0.4c0.1,0.1,0.3,0.1,0.4,0.2c0.1,0.1,0.3,0.2,0.4,0.2l0.2-0.2h2.7l0.2,0.1c1.4,0.5,2.2,0.5,3.5,0l0.2-0.1h1.1
	l0.3,0.3c0.2,0.2,0.4,0.2,0.9,0.2h1.4c1.2-0.5,2.2-0.1,2.9-0.4l0.2-0.1H40c0.5-0.3,1-0.3,1.5,0h7.2c0.3,0,0.4,0,0.6-0.3v-0.7
	l2.1-2.1c0.1-0.8,0.6-1.3,1-1.8c0.2-0.3,0.5-0.5,0.6-0.8l0.1-0.1l0.1-0.1c0.3-0.3,0.7-0.7,0.8-0.9v-0.4l0.3-0.3
	c0.5-0.5,1.5-1.5,1.9-2.4l0.1-0.1l0.1-0.1c0.1-0.1,0.3-0.3,0.4-0.5c0.4-0.5,0.9-1.2,1.7-1.6l2-2.9l3.3-3.8l2.1-2.1
	c0.1-0.1,0.4-0.4,0.8-0.6c0.1-0.2,0.2-0.4,0.5-0.7c0.2-1,0.9-1.6,1.6-2.2c0.2-0.2,0.5-0.4,0.8-0.7l0.8-0.8v-0.7l0.6-0.3
	c0.5-0.3,0.9-0.7,1.3-1.2c0.1-0.2,0.2-0.3,0.3-0.4c0.1-0.3,0.3-0.6,0.5-0.7V14h1c0.3,0,0.6-0.3,0.9-0.8c0.1-0.1,0.2-0.3,0.3-0.4
	l1-2.1l0.1-0.1c0.3-0.3,0.6-0.5,1-0.8c0.5-0.3,1-0.7,1.6-1.3c0.8-0.8,2.2-1.4,3.5-0.8h0.5l1.7,0.6l0.1,0.1c0.9,0.4,1.5,1.2,1.6,2
	c0.1,0.7-0.1,1.4-0.6,2c-0.1,0.4-0.3,0.8-0.6,1.2c-0.1,0.2-0.3,0.5-0.4,0.8c-0.1,0.4-0.3,0.7-0.5,0.9v0.8h-1h-0.1l-0.1,0.1l-1.5,3
	c-0.6,1.2-1.7,1.8-2.7,2.3c-0.1,0.2-0.2,0.4-0.4,0.5v1.4h-0.8c-0.1,0.1-0.2,0.4-0.2,0.6v1h-0.6l-0.2,0.2c-1.2,1.2-2.1,2.4-3.2,3.9
	c-0.3,0.4-0.6,0.8-0.9,1.2c-0.3,0.6-0.8,1.1-1.2,1.5s-0.7,0.7-0.9,1L70,33.2h-0.3c-0.6,1.2-1.2,1.8-1.7,2.3
	c-0.2,0.2-0.4,0.4-0.7,0.6c-0.4,0.3-0.9,0.7-1.1,1.1c-0.1,0.3-0.2,0.9-0.8,1.4l-1.3,1.3c-0.2,0.5-0.5,0.8-1,1
	c-0.2,0.2-0.5,0.5-0.5,0.6V42l-1,0.5v0.1c0.2,0.1,0.4,0.1,0.6,0.2c0.3,0.1,0.5,0.2,0.8,0.2c0.9-0.4,1.5-0.2,2.1-0.1
	c0.3,0.1,0.5,0.1,0.7,0.1H67c0.4-0.3,0.7-0.4,1.1-0.4c0.4,0,0.8,0.1,1.1,0.4c0.7,0,0.8,0,1-0.2l0.3-0.3h0.9c0.7,0,1.2,0.2,1.6,0.3
	c0.3,0.1,0.5,0.2,0.8,0.2c0.9-0.4,2-0.2,2.9-0.1c0.4,0.1,0.7,0.1,1,0.1h1.6c0.4,0,0.6-0.1,1-0.2c0.4-0.1,0.9-0.3,1.6-0.3h0.4
	l0.3,0.3c0.1,0.1,0.4,0.2,1.4,0.2h1c0.9,0,1.6,0.1,2.3,0.3c0.6,0.1,1.2,0.2,1.9,0.2c0.6,0,1.6,0,2.4,0.5h21.7c0.9-0.6,1.8-0.4,2.7,0
	h2c0.8-0.5,2-0.5,2.8,0h0.7c1.5,0,3.3,0,5,1h84.3c0.3,0,0.5,0.1,0.8,0.1c0.2,0,0.5,0.1,0.6,0.1l0.2-0.2h1.2l0.2,0.1
	c0.8,0.4,1.5,0.4,2.2,0l0.2-0.1h14.2c37.2-0.3,55.8-0.3,65.9-0.3c9.2,0,10.4,0,11.1-0.2l0.2-0.1h2.1h2.1h24.9l0.2,0.1
	c0.8,0.3,1.5,0.2,2.2,0.1c0.4-0.1,0.8-0.1,1.2-0.1c1.6,0,3.2,0,4.9,0.5h3l4.2,0.5h3.5c0.8,0,2,0.3,2,2.6v0.4l-0.3,0.3
	c-0.5,0.5-1.1,1.1-1.8,1.3c-0.7,0.6-1.5,0.6-2,0.6h-0.4l-0.3-0.3c-0.2-0.2-0.4-0.2-0.9-0.2h-1c-0.5,0-0.9-0.2-1.2-0.4
	c-0.1-0.1-0.3-0.1-0.3-0.2l-2.2-0.5h-1.4c-0.5,0-0.9-0.2-1.2-0.4c-0.1-0.1-0.3-0.1-0.3-0.2h-5.7c-0.5,0-1.2,0-1.9-0.5h-0.7
	c-0.2,0-0.3,0-0.5,0c-1.3,0.1-5,0.5-24.4,0.5l-0.5,0.5l-0.7-0.7c-0.1-0.1-0.4-0.2-1.3-0.2c0,0-0.2,0-0.4,0.2l-0.3,0.3h-0.4
	c-1.1,0-2.2,0-3.4-0.6c-3.1,0.3-16,0.6-74.4,0.6c-1.4,0-2.9,0-3.7,0.4l-0.2,0.1h-0.2c-0.5,0-0.9-0.1-1.2-0.1c-0.5-0.1-0.6-0.1-1,0
	l-0.2,0.1h-1.8h-0.4l-0.2-0.2h-0.1c-0.2,0.1-0.5,0.2-0.8,0.2h-11.6l-0.2-0.1c-0.4-0.2-0.5-0.1-0.9,0c-0.2,0.1-0.5,0.1-0.8,0.1
	l-77.3-0.5h-4.6l-0.3-0.3c-0.2-0.2-0.4-0.2-0.3-0.2h-2.6c-0.6,0-0.9-0.1-1.3-0.4c0,0,0,0-0.1,0c-0.3,0.2-0.7,0.4-1.2,0.4h-3.6v-0.3
	c-1.4,0.3-4.7,0.3-18.2,0.3c-0.1,0-0.2,0.1-0.4,0.2c-0.3,0.2-0.7,0.4-1.2,0.4h-0.3l-1.4-1c-0.1,0-0.1,0.1-0.2,0.1l-0.3,0.3H93
	c-0.6,0-1.6,0-2.4-0.5h-1.6c-1.2,0.4-2.2,0.2-3,0.1c-0.3-0.1-0.6-0.1-0.9-0.1h-0.4c-1.2,0.4-2.1,0.2-3,0.1c-0.5-0.1-0.9-0.1-1.4-0.1
	h-2.8C77,48,76.3,47.8,76,47.7c-0.1,0-0.2-0.1-0.2-0.1h-2.3c-0.8,0.5-1.9,0.5-2.4,0.5s-0.6,0-0.9,0.2l-0.3,0.3h-0.4
	c-0.1,0-0.8,0-1.4-0.5c-1.9,0-3.3,0-5.1,0.5h-2.2l-0.3-0.3c-0.1-0.1-0.3-0.2-0.5-0.3c-0.1,0-0.1-0.1-0.2-0.1l-0.2,0.2h-0.4v0.1
	l-0.6,0.3c-0.2,0.1-0.3,0.2-0.3,0.3c-0.1,0.2,0,0.6,0.2,1l0.1,0.2v0.3l1.9,1.9l0.1,0.1c0.1,0.2,0.2,0.4,0.3,0.6s0.2,0.4,0.2,0.4
	s0.1,0,0.2,0h0.4l1.3,1.3c0.1,0.1,0.2,0.2,0.2,0.2h0.1c0.9,0,1.6,0.7,2.3,1.3l0.3,0.3v0.2c0.2,0.1,0.4,0.2,0.6,0.4l1.5,0.7v0.2
	c0.5,0.2,0.8,0.6,1,0.9c0.1,0.1,0.1,0.2,0.2,0.3l2.5,1.5l0.2,0.2c0.5,0.5,0.9,0.9,1.8,1.4l0.3,0.1l0.1,0.3c0.3,0.5,0.7,0.9,1.2,1.3
	c0.3,0.2,0.5,0.4,0.7,0.6c0.1,0.1,0.2,0.2,0.2,0.2h0.1c1,0,1.9,0.6,2.6,1.1c0.3,0.2,0.6,0.4,0.9,0.6l0.6,0.3v0.6
	c0,0.1,0.1,0.2,0.2,0.4c0.1,0.2,0.2,0.5,0.3,0.8l2.2,2.2c0.3,0.1,0.5,0.3,0.7,0.5H84l0.8,0.8c0.3,0.3,0.7,0.7,0.9,0.8h0.4l0.3,0.3
	c0.5,0.5,1,1,1.2,1.6c0.8,0.5,1.4,1,2.1,1.8h1.6v1c0,0.3,0,0.5-0.1,0.7c0,0,0,0,0.1,0c0.2,0.1,0.5,0.3,0.6,0.3h0.2l1.9,0.6l0.2,0.2
	c0.7,0.7,0.8,1.4,0.8,1.9c0.3,0.5,0.3,1,0,1.5v0.3L94.6,83c-0.8,0.8-1.9,1.2-2.9,1.2c-0.7,0-1.4-0.2-2-0.4l-0.6-0.3v-0.1h-0.5v-0.9
	c-0.1,0-0.2-0.1-0.6-0.1h-0.4l-0.8-0.8c-0.6-0.6-0.8-0.8-0.8-1.4l-1.3-1.8c-0.5-0.5-0.7-0.7-0.7-1.2c0,0,0,0-0.1,0
	c-0.7,0-1.2-0.4-1.4-0.9c-0.7-0.5-1.2-1.1-1.5-1.6C81,74.7,81,74.7,81,74.6h-1.1v-1c0-0.4-0.1-0.5-0.9-0.9c-0.4-0.2-0.8-0.5-1.3-0.8
	c-1.5-0.5-2.7-1.1-3.8-2.3c-1-1-1.5-1.5-2.4-1.9l-1-0.5l-0.8-0.5c-1.3-0.8-2.3-1.5-3.3-3l-0.2-0.2v-0.3l-0.1-0.1h-1v-0.5
	c-1.1-0.1-1.8-0.8-2.6-1.6c-0.6-0.1-1.3-0.5-1.7-1c-0.9,0-2.1-0.7-2.7-1.3c-0.1-0.1-0.2-0.2-0.2-0.2H58h-0.3l-2.3-1.5v-0.5
	c-0.1,0-0.2-0.1-0.6-0.1h-0.4l-1.9-1.9c-0.2-0.2-0.4-0.2-0.9-0.2s-0.9-0.2-1.2-0.4c-0.1-0.1-0.3-0.1-0.3-0.2h-0.6l-0.3-0.6
	c-0.1-0.3-0.3-0.5-0.4-0.7c-0.4-0.6-0.7-1.3-0.8-2.2l-0.4-1.7c0-0.1-0.1-0.1-0.1-0.2h-0.1l-0.4,0.2h-0.2c-0.1,0-0.8,0-1.4-0.5h-6.8
	c-1.6,0.5-4.2,1-5.9,1h-3.7c-0.5,0-0.8-0.2-1.1-0.4c-1,0.4-1.8,0.4-2.8-0.1h-3.1c-0.8,0.5-2,0.5-3.2,0c-0.2,0-0.4,0-0.4,0
	c-0.1,0.1-0.1,0.1-0.3,0.2l-0.8,0.8h-0.4c-0.4,0-0.7,0.1-1,0.3c-0.1,0.1-0.3,0.1-0.4,0.2c-0.1,0.2-0.3,0.2-0.4,0.3
	c-0.3,0.1-0.5,0.1-0.8,0l-2.1,1.2l0.7,1c0.8,0.4,1.1,0.9,1.3,1.3c0.1,0.1,0.2,0.2,0.3,0.4l0.5,0.5c0.5,0.5,1.1,1.1,1.3,1.8l0.3,0.3
	c0.3,0.3,0.7,0.6,1,0.9c0.6,0.5,1.3,1,1.7,1.8c0.5,0.5,1,0.9,1.5,1.2c0.3,0.2,0.6,0.4,0.9,0.7c0.5,0.3,1.6,0.9,1.9,1.9
	c0.4,0.4,0.8,0.8,1.6,1.2l0.1,0.1l0.1,0.1c0.3,0.3,0.7,0.7,1.1,1c0.8,0.7,1.7,1.4,2.1,2.2c0.3,0.3,0.6,0.6,0.8,0.6H30l3.8,3.1v0.3
	c0.2,0.2,0.4,0.4,0.5,0.9c0.4,0.6,1,0.9,1.1,0.9h0.2l0.2,0.1c1.2,0.6,1.4,0.8,1.9,1.8c0.2,0.1,0.5,0.2,1.3,0.2H39l0.2-0.2
	c0.6-0.6,1.1-0.7,1.5-0.8c1-0.5,2.1-0.7,3.1,0.3l0.5,0.5c0.9,0.9,0.9,2.1,0,3L44,78.9c-0.2,1.9-1.5,3.7-3.6,3.7
	c-0.6,0-1.6,0-2.4-0.5h-1.1l-0.3-0.3h-0.1c-0.3-0.1-0.9-0.2-1.4-0.8c-0.1,0-0.2,0-0.2-0.1h-0.1l-1.6,1.6v-2L33,80.2
	c-0.2-0.2-0.4-0.4-0.8-0.6c-0.5-0.4-1.2-0.8-1.9-1.5c-0.5-0.5-1.1-1.1-1.3-1.8l-0.3-0.3c-0.3-0.3-0.5-0.6-0.6-0.9
	c-0.1-0.1-0.2-0.3-0.3-0.4h-1v-1c0-0.3-0.3-0.6-0.8-0.9c-0.2-0.2-0.4-0.3-0.5-0.4l-0.1-0.1l-0.1-0.1c-0.2-0.4-0.5-0.7-0.9-1
	c-0.3-0.3-0.6-0.6-0.9-1h-0.5l-0.3-0.4c-0.9-1.4-2.4-2.4-3.9-3.4l-0.2-0.1l-0.1-0.2c-0.6-0.9-1.2-1.4-1.9-2
	c-0.3-0.2-0.6-0.5-0.9-0.8c-0.7-0.2-1.2-0.7-1.7-1.2c-0.9-0.5-1.4-0.9-1.9-1.4h-0.7l-0.3-0.6c-0.4-0.9-0.8-1.2-1.6-1.6l-0.3-0.1
	l-0.1-0.3c-0.4-0.8-1.2-1.5-1.7-1.5H7.2l-1.1-1.1v-0.3c-0.2-0.2-0.4-0.4-0.7-0.8c-0.5-0.2-0.8-0.7-0.8-1.5c-0.2-0.2-0.5-0.5-0.6-0.5
	c-1.1,0-2.4-0.5-2.6-2.7C0.8,48.4,1.6,47.3,1.9,46.8z"/>
</svg>
