<svg id="Layer_1" data-name="Layer 1" xmlns="http://www.w3.org/2000/svg" viewBox="0 0 371.4 133.99"><defs><style>.cls-1{fill: rgba(237, 157, 177, 1);}</style></defs><title>rightCurl</title><path class="cls-1" d="M63.28.29c5,.55,6.6,3.3,6.05,6.6,1.1,7.15,0,14.31-.55,21.46C67.13,34.4,66.58,40.45,64.93,46,61.62,58.61,55,69.06,46.77,79c-3.3,3.3-6.05,7.15-10.45,10.45-1.1,1.1-2.75,3.3-1.65,5.5,0,3.85,0,7.7,2.2,11.55,2.75,5.5,6.6,11,12.66,14.3,4.4,2.2,7.7,4.4,12.1,6.6,2.2.55,5.5,1.65,7.7,1.65a48.13,48.13,0,0,0,26.41-4.4c5.5-3.3,9.9-7.15,16-10.45.55,0,1.1-1.1,2.2-2.2s1.65-2.2.55-3.3c-4.4-10.45-2.75-20.91,1.1-30.26,2.75-5.5,5.5-9.9,11-13.2,2.75-2.75,8.25-3.85,12.11-5,4.4-.55,8.8,2.75,8.8,6.6.55,5-.55,9.35-3.3,14.31-1.1,2.2-3.3,4.4-5,6.6-2.2,4.4-5,7.7-8.25,11.55a58.38,58.38,0,0,0-5,6.05c-1.1,1.65-.55,5,1.1,6.6a12.71,12.71,0,0,0,3.85,3.85c3.3,1.1,6.05,2.75,10.45,3.3,3.3,1.65,6.6-.55,9.9-1.65,7.15-2.2,12.66-6.6,19.81-9.9,6.6-3.3,11.55-7.15,18.16-10.45,3.85-3.3,8.8-5,14.86-6.05,2.75-1.65,6.05-.55,8.25.55a15.76,15.76,0,0,1,7.7,6.05c3.85,5,8.25,9.35,14.31,12.11,1.1.55,1.65,1.1,2.75,1.1,6.05.55,12.11,1.65,18.16,1.1,7.7-1.65,15.41-4.4,22.56-6.6,5.5-1.1,12.1-2.2,18.16-1.65,5.5,1.65,11,2.75,16,5,3.85,2.2,7.15,2.2,11.55,3.3,4.4.55,9.35,1.65,14.31,2.2,5.5,0,12.11-.55,17.61-2.75-.55-2.75,1.1-3.85,2.75-5.5,3.85-1.65,7.7-3.3,13.21-1.65,0,.55,0,1.1-1.1,1.65-1.1,1.65-2.75,2.75-2.75,5,0,.55,0,.55-.55,1.1-2.2,1.1-3.85,2.2-6.05,2.2-3.85-.55-7.15,1.65-11,2.2a60.74,60.74,0,0,1-9.9,1.1,98.42,98.42,0,0,1-12.66-1.1c-6.6-.55-12.65-2.2-19.26-3.85-4.4-1.1-7.7-1.65-11-3.85,0-.55-1.1-.55-1.1-.55-4.4,0-8.8-1.65-13.21,0-1.1,0-1.65,1.1-2.2,1.1-3.3.55-6.6,1.65-9.35,2.2-5,1.65-8.8,2.2-12.65,3.3-1.1,0-1.65,0-2.2.55-5,2.2-10.45.55-16-.55a41.91,41.91,0,0,1-7.7-.55,56.63,56.63,0,0,1-20.91-14.31c-1.65-1.65-3.85-3.3-5-5.5a3.35,3.35,0,0,0-4.4,0c-3.3,1.1-6.05,2.75-9.35,3.85-.55,0-1.1.55-2.2.55-4.4,3.3-9.9,5.5-14.86,8.8-2.75,2.2-6.6,5-9.35,7.15l-14.3,6.6c-3.3,1.1-5.5,1.1-8.8,1.65a70.29,70.29,0,0,1-11-.55,39.09,39.09,0,0,1-9.9-4.4c-1.65-1.1-3.3-2.75-5.5-3.85-3.85,3.3-8.8,5.5-11.55,9.35l-1.1,1.1c-6.05,1.65-9.35,6.6-15.41,7.15-4.4,2.2-9.35,1.65-12.66,1.65s-6.6-.55-9.9.55c-1.65,0-3.85-1.65-4.4-1.65-2.2-.55-3.3-1.1-5-1.1A69.6,69.6,0,0,1,38,121.88c-3.85-3.85-8.8-7.15-9.9-12.66a12.21,12.21,0,0,1-2.75-6.05c-.55-.55-1.1-1.1-1.65-1.1a4.76,4.76,0,0,0-3.3,1.65C16,107.58,11,110.33,5.5,114.18c-1.65.55-2.75.55-5.5,0A124.18,124.18,0,0,1,11,107c3.85-2.75,7.15-5.5,11-8.8a7,7,0,0,0,2.2-3.3c-.55-8.25-1.65-16.51-1.1-24.76,1.65-7.7,2.2-14.31,3.3-21.46,2.2-8.8,3.85-17.61,8.25-26.41C38,15.69,41.82,9.09,47.87,4.69,52.27,1.39,57.22-.81,63.28.29Zm77,63.83c-4.4-1.1-7.15,1.1-9.35,4.4-2.75,2.75-5,6.05-5,10.45-1.65,2.2-1.65,4.4-2.75,7.15,0,4.4-2.2,8.8-.55,13.2a5.54,5.54,0,0,0-.55,1.65c0,.55.55,1.1.55,1.65a.54.54,0,0,1,.55.55l8.25-8.8c1.65-2.2,3.3-5,4.4-6.6l4.4-6.6c1.1-2.2,1.65-5,2.75-7.15,1.65-2.2-.55-5.5-.55-8.8C142.51,64.66,141.41,64.11,140.31,64.11ZM59.42,3c-5.5,1.65-8.25,5.5-9.9,9.9-2.2,5-5.5,9.9-7.15,15.41a116.09,116.09,0,0,0-5.5,20.91c-.55,4.4-.55,9.9-1.65,15.41-1.65,5.5-1.65,11-2.2,16,0,2.2.55,3.85,1.1,6.6h1.1c1.65-2.2,4.4-5,6.05-7.7,6.05-5,9.35-11,13.76-16.51a32,32,0,0,0,5.5-10.45,10.37,10.37,0,0,1,1.1-4.4c.55-4.4,2.2-8.25,3.3-12.66l1.65-17.06c1.1-4.4.55-8.25-.55-12.66C65.48,2.49,63.28,1.39,59.42,3Z" transform="translate(0 0)"/></svg>
